%
M48
M72
T01C0.01550
T02C0.01969
T03C0.03200
T04C0.03543
T05C0.09843
%
T01
X57654Y117949
X46827Y126315
X58146Y128283
X68972Y134189
X73402Y127299
X80783Y127791
X70941Y119917
X92594Y114012
X93579Y119917
X105390Y112535
X108835Y110075
X114740Y113520
X120646Y113520
X126728Y110622
X133441Y116965
X137378Y121394
X145228Y125303
X137378Y127299
X141807Y132417
X145252Y136846
X151157Y135665
X157228Y132622
X161728Y133622
X165228Y131122
X170228Y127622
X177228Y127622
X181228Y131122
X186449Y131571
X191020Y128776
X195228Y134122
X206276Y132713
X215728Y136622
X221039Y133697
X218728Y142622
X203815Y150921
X219563Y161256
X227437Y161256
X234228Y159622
X241217Y161256
X247122Y167654
X262870Y168146
X263362Y176512
X254504Y188815
X237772Y182417
X221531Y189307
X204307Y191276
X205783Y181925
X202831Y178972
X205783Y173559
X194957Y176512
X189228Y177622
X183638Y181925
X178717Y181433
X172811Y181433
X165228Y180622
X157228Y177122
X141728Y171122
X137886Y166114
X124098Y165193
X122228Y171622
X118193Y174591
X118677Y179020
X109327Y178972
X105374Y177043
X104228Y171122
X99421Y171098
X90626Y168146
X98500Y162240
X92594Y154366
X88587Y146508
X81276Y143047
X73402Y156827
X60114Y148461
X47319Y153874
X45843Y160764
X44228Y165122
X46335Y144031
X27228Y134122
X99945Y130697
X112772Y148953
X109327Y151413
X115724Y153874
X118677Y150921
X124583Y148953
X133441Y145016
X139839Y146492
X146728Y146492
X151157Y146492
X181217Y143539
X190035Y143539
X169835Y167654
X176256Y173559
X129012Y179465
X129012Y184386
X129012Y188815
X108835Y187831
X98008Y183402
X113264Y161748
X115724Y158303
X235311Y147969
T02
X29228Y165364
X29228Y139380
T03
X141728Y111803
X146728Y117803
X151728Y111803
X156728Y117803
X161728Y111803
X166728Y117803
X171728Y111803
X176728Y117803
X181728Y111803
X186728Y117803
T04
X202248Y159961
X279228Y156717
X279228Y168528
T05
X271728Y117122
X271728Y187122
X31728Y187122
X31728Y117122
M30
