G75*
%MOIN*%
%OFA0B0*%
%FSLAX25Y25*%
%IPPOS*%
%LPD*%
%AMOC8*
5,1,8,0,0,1.08239X$1,22.5*
%
%ADD10C,0.00000*%
%ADD11C,0.10243*%
%ADD12R,0.06306X0.05282*%
%ADD13R,0.04337X0.04731*%
%ADD14R,0.05124X0.05124*%
%ADD15R,0.04731X0.04337*%
%ADD16C,0.04337*%
%ADD17C,0.01969*%
%ADD18R,0.04337X0.04337*%
%ADD19C,0.14243*%
%ADD20R,0.02565X0.05124*%
%ADD21R,0.05912X0.05912*%
%ADD22R,0.18510X0.04337*%
%ADD23R,0.13786X0.06699*%
%ADD24R,0.03353X0.01384*%
%ADD25R,0.01384X0.03353*%
%ADD26R,0.18904X0.18904*%
%ADD27R,0.04731X0.07880*%
%ADD28R,0.05282X0.06306*%
%ADD29R,0.02172X0.07683*%
%ADD30R,0.07683X0.02172*%
%ADD31C,0.03943*%
%ADD32C,0.02565*%
%ADD33R,0.06699X0.05518*%
%ADD34R,0.04337X0.05912*%
%ADD35R,0.11069X0.09888*%
%ADD36R,0.02762X0.09061*%
%ADD37R,0.05912X0.04534*%
%ADD38R,0.06306X0.03156*%
%ADD39R,0.03550X0.04337*%
%ADD40C,0.05943*%
%ADD41OC8,0.06700*%
%ADD42R,0.05715X0.01975*%
%ADD43R,0.05912X0.06699*%
%ADD44R,0.07880X0.07880*%
%ADD45C,0.04369*%
D10*
X0031728Y0107122D02*
X0185477Y0107122D01*
X0190201Y0102398D01*
X0233925Y0102398D01*
X0238649Y0107122D01*
X0271728Y0107122D01*
X0266807Y0117122D02*
X0266809Y0117262D01*
X0266815Y0117402D01*
X0266825Y0117541D01*
X0266839Y0117680D01*
X0266857Y0117819D01*
X0266878Y0117957D01*
X0266904Y0118095D01*
X0266934Y0118232D01*
X0266967Y0118367D01*
X0267005Y0118502D01*
X0267046Y0118636D01*
X0267091Y0118769D01*
X0267139Y0118900D01*
X0267192Y0119029D01*
X0267248Y0119158D01*
X0267307Y0119284D01*
X0267371Y0119409D01*
X0267437Y0119532D01*
X0267508Y0119653D01*
X0267581Y0119772D01*
X0267658Y0119889D01*
X0267739Y0120003D01*
X0267822Y0120115D01*
X0267909Y0120225D01*
X0267999Y0120333D01*
X0268091Y0120437D01*
X0268187Y0120539D01*
X0268286Y0120639D01*
X0268387Y0120735D01*
X0268491Y0120829D01*
X0268598Y0120919D01*
X0268707Y0121006D01*
X0268819Y0121091D01*
X0268933Y0121172D01*
X0269049Y0121250D01*
X0269167Y0121324D01*
X0269288Y0121395D01*
X0269410Y0121463D01*
X0269535Y0121527D01*
X0269661Y0121588D01*
X0269788Y0121645D01*
X0269918Y0121698D01*
X0270049Y0121748D01*
X0270181Y0121793D01*
X0270314Y0121836D01*
X0270449Y0121874D01*
X0270584Y0121908D01*
X0270721Y0121939D01*
X0270858Y0121966D01*
X0270996Y0121988D01*
X0271135Y0122007D01*
X0271274Y0122022D01*
X0271413Y0122033D01*
X0271553Y0122040D01*
X0271693Y0122043D01*
X0271833Y0122042D01*
X0271973Y0122037D01*
X0272112Y0122028D01*
X0272252Y0122015D01*
X0272391Y0121998D01*
X0272529Y0121977D01*
X0272667Y0121953D01*
X0272804Y0121924D01*
X0272940Y0121892D01*
X0273075Y0121855D01*
X0273209Y0121815D01*
X0273342Y0121771D01*
X0273473Y0121723D01*
X0273603Y0121672D01*
X0273732Y0121617D01*
X0273859Y0121558D01*
X0273984Y0121495D01*
X0274107Y0121430D01*
X0274229Y0121360D01*
X0274348Y0121287D01*
X0274466Y0121211D01*
X0274581Y0121132D01*
X0274694Y0121049D01*
X0274804Y0120963D01*
X0274912Y0120874D01*
X0275017Y0120782D01*
X0275120Y0120687D01*
X0275220Y0120589D01*
X0275317Y0120489D01*
X0275411Y0120385D01*
X0275503Y0120279D01*
X0275591Y0120171D01*
X0275676Y0120060D01*
X0275758Y0119946D01*
X0275837Y0119830D01*
X0275912Y0119713D01*
X0275984Y0119593D01*
X0276052Y0119471D01*
X0276117Y0119347D01*
X0276179Y0119221D01*
X0276237Y0119094D01*
X0276291Y0118965D01*
X0276342Y0118834D01*
X0276388Y0118702D01*
X0276431Y0118569D01*
X0276471Y0118435D01*
X0276506Y0118300D01*
X0276538Y0118163D01*
X0276565Y0118026D01*
X0276589Y0117888D01*
X0276609Y0117750D01*
X0276625Y0117611D01*
X0276637Y0117471D01*
X0276645Y0117332D01*
X0276649Y0117192D01*
X0276649Y0117052D01*
X0276645Y0116912D01*
X0276637Y0116773D01*
X0276625Y0116633D01*
X0276609Y0116494D01*
X0276589Y0116356D01*
X0276565Y0116218D01*
X0276538Y0116081D01*
X0276506Y0115944D01*
X0276471Y0115809D01*
X0276431Y0115675D01*
X0276388Y0115542D01*
X0276342Y0115410D01*
X0276291Y0115279D01*
X0276237Y0115150D01*
X0276179Y0115023D01*
X0276117Y0114897D01*
X0276052Y0114773D01*
X0275984Y0114651D01*
X0275912Y0114531D01*
X0275837Y0114414D01*
X0275758Y0114298D01*
X0275676Y0114184D01*
X0275591Y0114073D01*
X0275503Y0113965D01*
X0275411Y0113859D01*
X0275317Y0113755D01*
X0275220Y0113655D01*
X0275120Y0113557D01*
X0275017Y0113462D01*
X0274912Y0113370D01*
X0274804Y0113281D01*
X0274694Y0113195D01*
X0274581Y0113112D01*
X0274466Y0113033D01*
X0274348Y0112957D01*
X0274229Y0112884D01*
X0274107Y0112814D01*
X0273984Y0112749D01*
X0273859Y0112686D01*
X0273732Y0112627D01*
X0273603Y0112572D01*
X0273473Y0112521D01*
X0273342Y0112473D01*
X0273209Y0112429D01*
X0273075Y0112389D01*
X0272940Y0112352D01*
X0272804Y0112320D01*
X0272667Y0112291D01*
X0272529Y0112267D01*
X0272391Y0112246D01*
X0272252Y0112229D01*
X0272112Y0112216D01*
X0271973Y0112207D01*
X0271833Y0112202D01*
X0271693Y0112201D01*
X0271553Y0112204D01*
X0271413Y0112211D01*
X0271274Y0112222D01*
X0271135Y0112237D01*
X0270996Y0112256D01*
X0270858Y0112278D01*
X0270721Y0112305D01*
X0270584Y0112336D01*
X0270449Y0112370D01*
X0270314Y0112408D01*
X0270181Y0112451D01*
X0270049Y0112496D01*
X0269918Y0112546D01*
X0269788Y0112599D01*
X0269661Y0112656D01*
X0269535Y0112717D01*
X0269410Y0112781D01*
X0269288Y0112849D01*
X0269167Y0112920D01*
X0269049Y0112994D01*
X0268933Y0113072D01*
X0268819Y0113153D01*
X0268707Y0113238D01*
X0268598Y0113325D01*
X0268491Y0113415D01*
X0268387Y0113509D01*
X0268286Y0113605D01*
X0268187Y0113705D01*
X0268091Y0113807D01*
X0267999Y0113911D01*
X0267909Y0114019D01*
X0267822Y0114129D01*
X0267739Y0114241D01*
X0267658Y0114355D01*
X0267581Y0114472D01*
X0267508Y0114591D01*
X0267437Y0114712D01*
X0267371Y0114835D01*
X0267307Y0114960D01*
X0267248Y0115086D01*
X0267192Y0115215D01*
X0267139Y0115344D01*
X0267091Y0115475D01*
X0267046Y0115608D01*
X0267005Y0115742D01*
X0266967Y0115877D01*
X0266934Y0116012D01*
X0266904Y0116149D01*
X0266878Y0116287D01*
X0266857Y0116425D01*
X0266839Y0116564D01*
X0266825Y0116703D01*
X0266815Y0116842D01*
X0266809Y0116982D01*
X0266807Y0117122D01*
X0271728Y0107122D02*
X0271970Y0107125D01*
X0272211Y0107134D01*
X0272452Y0107148D01*
X0272693Y0107169D01*
X0272933Y0107195D01*
X0273173Y0107227D01*
X0273412Y0107265D01*
X0273649Y0107308D01*
X0273886Y0107358D01*
X0274121Y0107413D01*
X0274355Y0107473D01*
X0274587Y0107540D01*
X0274818Y0107611D01*
X0275047Y0107689D01*
X0275274Y0107772D01*
X0275499Y0107860D01*
X0275722Y0107954D01*
X0275942Y0108053D01*
X0276160Y0108158D01*
X0276375Y0108267D01*
X0276588Y0108382D01*
X0276798Y0108502D01*
X0277004Y0108627D01*
X0277208Y0108757D01*
X0277409Y0108892D01*
X0277606Y0109032D01*
X0277800Y0109176D01*
X0277990Y0109325D01*
X0278176Y0109479D01*
X0278359Y0109637D01*
X0278538Y0109799D01*
X0278713Y0109966D01*
X0278884Y0110137D01*
X0279051Y0110312D01*
X0279213Y0110491D01*
X0279371Y0110674D01*
X0279525Y0110860D01*
X0279674Y0111050D01*
X0279818Y0111244D01*
X0279958Y0111441D01*
X0280093Y0111642D01*
X0280223Y0111846D01*
X0280348Y0112052D01*
X0280468Y0112262D01*
X0280583Y0112475D01*
X0280692Y0112690D01*
X0280797Y0112908D01*
X0280896Y0113128D01*
X0280990Y0113351D01*
X0281078Y0113576D01*
X0281161Y0113803D01*
X0281239Y0114032D01*
X0281310Y0114263D01*
X0281377Y0114495D01*
X0281437Y0114729D01*
X0281492Y0114964D01*
X0281542Y0115201D01*
X0281585Y0115438D01*
X0281623Y0115677D01*
X0281655Y0115917D01*
X0281681Y0116157D01*
X0281702Y0116398D01*
X0281716Y0116639D01*
X0281725Y0116880D01*
X0281728Y0117122D01*
X0281728Y0140587D01*
X0286453Y0145311D01*
X0286453Y0179957D01*
X0281728Y0184681D01*
X0281728Y0187122D01*
X0266807Y0187122D02*
X0266809Y0187262D01*
X0266815Y0187402D01*
X0266825Y0187541D01*
X0266839Y0187680D01*
X0266857Y0187819D01*
X0266878Y0187957D01*
X0266904Y0188095D01*
X0266934Y0188232D01*
X0266967Y0188367D01*
X0267005Y0188502D01*
X0267046Y0188636D01*
X0267091Y0188769D01*
X0267139Y0188900D01*
X0267192Y0189029D01*
X0267248Y0189158D01*
X0267307Y0189284D01*
X0267371Y0189409D01*
X0267437Y0189532D01*
X0267508Y0189653D01*
X0267581Y0189772D01*
X0267658Y0189889D01*
X0267739Y0190003D01*
X0267822Y0190115D01*
X0267909Y0190225D01*
X0267999Y0190333D01*
X0268091Y0190437D01*
X0268187Y0190539D01*
X0268286Y0190639D01*
X0268387Y0190735D01*
X0268491Y0190829D01*
X0268598Y0190919D01*
X0268707Y0191006D01*
X0268819Y0191091D01*
X0268933Y0191172D01*
X0269049Y0191250D01*
X0269167Y0191324D01*
X0269288Y0191395D01*
X0269410Y0191463D01*
X0269535Y0191527D01*
X0269661Y0191588D01*
X0269788Y0191645D01*
X0269918Y0191698D01*
X0270049Y0191748D01*
X0270181Y0191793D01*
X0270314Y0191836D01*
X0270449Y0191874D01*
X0270584Y0191908D01*
X0270721Y0191939D01*
X0270858Y0191966D01*
X0270996Y0191988D01*
X0271135Y0192007D01*
X0271274Y0192022D01*
X0271413Y0192033D01*
X0271553Y0192040D01*
X0271693Y0192043D01*
X0271833Y0192042D01*
X0271973Y0192037D01*
X0272112Y0192028D01*
X0272252Y0192015D01*
X0272391Y0191998D01*
X0272529Y0191977D01*
X0272667Y0191953D01*
X0272804Y0191924D01*
X0272940Y0191892D01*
X0273075Y0191855D01*
X0273209Y0191815D01*
X0273342Y0191771D01*
X0273473Y0191723D01*
X0273603Y0191672D01*
X0273732Y0191617D01*
X0273859Y0191558D01*
X0273984Y0191495D01*
X0274107Y0191430D01*
X0274229Y0191360D01*
X0274348Y0191287D01*
X0274466Y0191211D01*
X0274581Y0191132D01*
X0274694Y0191049D01*
X0274804Y0190963D01*
X0274912Y0190874D01*
X0275017Y0190782D01*
X0275120Y0190687D01*
X0275220Y0190589D01*
X0275317Y0190489D01*
X0275411Y0190385D01*
X0275503Y0190279D01*
X0275591Y0190171D01*
X0275676Y0190060D01*
X0275758Y0189946D01*
X0275837Y0189830D01*
X0275912Y0189713D01*
X0275984Y0189593D01*
X0276052Y0189471D01*
X0276117Y0189347D01*
X0276179Y0189221D01*
X0276237Y0189094D01*
X0276291Y0188965D01*
X0276342Y0188834D01*
X0276388Y0188702D01*
X0276431Y0188569D01*
X0276471Y0188435D01*
X0276506Y0188300D01*
X0276538Y0188163D01*
X0276565Y0188026D01*
X0276589Y0187888D01*
X0276609Y0187750D01*
X0276625Y0187611D01*
X0276637Y0187471D01*
X0276645Y0187332D01*
X0276649Y0187192D01*
X0276649Y0187052D01*
X0276645Y0186912D01*
X0276637Y0186773D01*
X0276625Y0186633D01*
X0276609Y0186494D01*
X0276589Y0186356D01*
X0276565Y0186218D01*
X0276538Y0186081D01*
X0276506Y0185944D01*
X0276471Y0185809D01*
X0276431Y0185675D01*
X0276388Y0185542D01*
X0276342Y0185410D01*
X0276291Y0185279D01*
X0276237Y0185150D01*
X0276179Y0185023D01*
X0276117Y0184897D01*
X0276052Y0184773D01*
X0275984Y0184651D01*
X0275912Y0184531D01*
X0275837Y0184414D01*
X0275758Y0184298D01*
X0275676Y0184184D01*
X0275591Y0184073D01*
X0275503Y0183965D01*
X0275411Y0183859D01*
X0275317Y0183755D01*
X0275220Y0183655D01*
X0275120Y0183557D01*
X0275017Y0183462D01*
X0274912Y0183370D01*
X0274804Y0183281D01*
X0274694Y0183195D01*
X0274581Y0183112D01*
X0274466Y0183033D01*
X0274348Y0182957D01*
X0274229Y0182884D01*
X0274107Y0182814D01*
X0273984Y0182749D01*
X0273859Y0182686D01*
X0273732Y0182627D01*
X0273603Y0182572D01*
X0273473Y0182521D01*
X0273342Y0182473D01*
X0273209Y0182429D01*
X0273075Y0182389D01*
X0272940Y0182352D01*
X0272804Y0182320D01*
X0272667Y0182291D01*
X0272529Y0182267D01*
X0272391Y0182246D01*
X0272252Y0182229D01*
X0272112Y0182216D01*
X0271973Y0182207D01*
X0271833Y0182202D01*
X0271693Y0182201D01*
X0271553Y0182204D01*
X0271413Y0182211D01*
X0271274Y0182222D01*
X0271135Y0182237D01*
X0270996Y0182256D01*
X0270858Y0182278D01*
X0270721Y0182305D01*
X0270584Y0182336D01*
X0270449Y0182370D01*
X0270314Y0182408D01*
X0270181Y0182451D01*
X0270049Y0182496D01*
X0269918Y0182546D01*
X0269788Y0182599D01*
X0269661Y0182656D01*
X0269535Y0182717D01*
X0269410Y0182781D01*
X0269288Y0182849D01*
X0269167Y0182920D01*
X0269049Y0182994D01*
X0268933Y0183072D01*
X0268819Y0183153D01*
X0268707Y0183238D01*
X0268598Y0183325D01*
X0268491Y0183415D01*
X0268387Y0183509D01*
X0268286Y0183605D01*
X0268187Y0183705D01*
X0268091Y0183807D01*
X0267999Y0183911D01*
X0267909Y0184019D01*
X0267822Y0184129D01*
X0267739Y0184241D01*
X0267658Y0184355D01*
X0267581Y0184472D01*
X0267508Y0184591D01*
X0267437Y0184712D01*
X0267371Y0184835D01*
X0267307Y0184960D01*
X0267248Y0185086D01*
X0267192Y0185215D01*
X0267139Y0185344D01*
X0267091Y0185475D01*
X0267046Y0185608D01*
X0267005Y0185742D01*
X0266967Y0185877D01*
X0266934Y0186012D01*
X0266904Y0186149D01*
X0266878Y0186287D01*
X0266857Y0186425D01*
X0266839Y0186564D01*
X0266825Y0186703D01*
X0266815Y0186842D01*
X0266809Y0186982D01*
X0266807Y0187122D01*
X0271728Y0197122D02*
X0271970Y0197119D01*
X0272211Y0197110D01*
X0272452Y0197096D01*
X0272693Y0197075D01*
X0272933Y0197049D01*
X0273173Y0197017D01*
X0273412Y0196979D01*
X0273649Y0196936D01*
X0273886Y0196886D01*
X0274121Y0196831D01*
X0274355Y0196771D01*
X0274587Y0196704D01*
X0274818Y0196633D01*
X0275047Y0196555D01*
X0275274Y0196472D01*
X0275499Y0196384D01*
X0275722Y0196290D01*
X0275942Y0196191D01*
X0276160Y0196086D01*
X0276375Y0195977D01*
X0276588Y0195862D01*
X0276798Y0195742D01*
X0277004Y0195617D01*
X0277208Y0195487D01*
X0277409Y0195352D01*
X0277606Y0195212D01*
X0277800Y0195068D01*
X0277990Y0194919D01*
X0278176Y0194765D01*
X0278359Y0194607D01*
X0278538Y0194445D01*
X0278713Y0194278D01*
X0278884Y0194107D01*
X0279051Y0193932D01*
X0279213Y0193753D01*
X0279371Y0193570D01*
X0279525Y0193384D01*
X0279674Y0193194D01*
X0279818Y0193000D01*
X0279958Y0192803D01*
X0280093Y0192602D01*
X0280223Y0192398D01*
X0280348Y0192192D01*
X0280468Y0191982D01*
X0280583Y0191769D01*
X0280692Y0191554D01*
X0280797Y0191336D01*
X0280896Y0191116D01*
X0280990Y0190893D01*
X0281078Y0190668D01*
X0281161Y0190441D01*
X0281239Y0190212D01*
X0281310Y0189981D01*
X0281377Y0189749D01*
X0281437Y0189515D01*
X0281492Y0189280D01*
X0281542Y0189043D01*
X0281585Y0188806D01*
X0281623Y0188567D01*
X0281655Y0188327D01*
X0281681Y0188087D01*
X0281702Y0187846D01*
X0281716Y0187605D01*
X0281725Y0187364D01*
X0281728Y0187122D01*
X0271728Y0197122D02*
X0031728Y0197122D01*
X0031486Y0197119D01*
X0031245Y0197110D01*
X0031004Y0197096D01*
X0030763Y0197075D01*
X0030523Y0197049D01*
X0030283Y0197017D01*
X0030044Y0196979D01*
X0029807Y0196936D01*
X0029570Y0196886D01*
X0029335Y0196831D01*
X0029101Y0196771D01*
X0028869Y0196704D01*
X0028638Y0196633D01*
X0028409Y0196555D01*
X0028182Y0196472D01*
X0027957Y0196384D01*
X0027734Y0196290D01*
X0027514Y0196191D01*
X0027296Y0196086D01*
X0027081Y0195977D01*
X0026868Y0195862D01*
X0026658Y0195742D01*
X0026452Y0195617D01*
X0026248Y0195487D01*
X0026047Y0195352D01*
X0025850Y0195212D01*
X0025656Y0195068D01*
X0025466Y0194919D01*
X0025280Y0194765D01*
X0025097Y0194607D01*
X0024918Y0194445D01*
X0024743Y0194278D01*
X0024572Y0194107D01*
X0024405Y0193932D01*
X0024243Y0193753D01*
X0024085Y0193570D01*
X0023931Y0193384D01*
X0023782Y0193194D01*
X0023638Y0193000D01*
X0023498Y0192803D01*
X0023363Y0192602D01*
X0023233Y0192398D01*
X0023108Y0192192D01*
X0022988Y0191982D01*
X0022873Y0191769D01*
X0022764Y0191554D01*
X0022659Y0191336D01*
X0022560Y0191116D01*
X0022466Y0190893D01*
X0022378Y0190668D01*
X0022295Y0190441D01*
X0022217Y0190212D01*
X0022146Y0189981D01*
X0022079Y0189749D01*
X0022019Y0189515D01*
X0021964Y0189280D01*
X0021914Y0189043D01*
X0021871Y0188806D01*
X0021833Y0188567D01*
X0021801Y0188327D01*
X0021775Y0188087D01*
X0021754Y0187846D01*
X0021740Y0187605D01*
X0021731Y0187364D01*
X0021728Y0187122D01*
X0021728Y0162622D01*
X0023728Y0160622D01*
X0023728Y0144122D01*
X0021728Y0142122D01*
X0021728Y0117122D01*
X0021731Y0116880D01*
X0021740Y0116639D01*
X0021754Y0116398D01*
X0021775Y0116157D01*
X0021801Y0115917D01*
X0021833Y0115677D01*
X0021871Y0115438D01*
X0021914Y0115201D01*
X0021964Y0114964D01*
X0022019Y0114729D01*
X0022079Y0114495D01*
X0022146Y0114263D01*
X0022217Y0114032D01*
X0022295Y0113803D01*
X0022378Y0113576D01*
X0022466Y0113351D01*
X0022560Y0113128D01*
X0022659Y0112908D01*
X0022764Y0112690D01*
X0022873Y0112475D01*
X0022988Y0112262D01*
X0023108Y0112052D01*
X0023233Y0111846D01*
X0023363Y0111642D01*
X0023498Y0111441D01*
X0023638Y0111244D01*
X0023782Y0111050D01*
X0023931Y0110860D01*
X0024085Y0110674D01*
X0024243Y0110491D01*
X0024405Y0110312D01*
X0024572Y0110137D01*
X0024743Y0109966D01*
X0024918Y0109799D01*
X0025097Y0109637D01*
X0025280Y0109479D01*
X0025466Y0109325D01*
X0025656Y0109176D01*
X0025850Y0109032D01*
X0026047Y0108892D01*
X0026248Y0108757D01*
X0026452Y0108627D01*
X0026658Y0108502D01*
X0026868Y0108382D01*
X0027081Y0108267D01*
X0027296Y0108158D01*
X0027514Y0108053D01*
X0027734Y0107954D01*
X0027957Y0107860D01*
X0028182Y0107772D01*
X0028409Y0107689D01*
X0028638Y0107611D01*
X0028869Y0107540D01*
X0029101Y0107473D01*
X0029335Y0107413D01*
X0029570Y0107358D01*
X0029807Y0107308D01*
X0030044Y0107265D01*
X0030283Y0107227D01*
X0030523Y0107195D01*
X0030763Y0107169D01*
X0031004Y0107148D01*
X0031245Y0107134D01*
X0031486Y0107125D01*
X0031728Y0107122D01*
X0030606Y0138396D02*
X0027850Y0138396D01*
X0027788Y0138398D01*
X0027727Y0138404D01*
X0027666Y0138413D01*
X0027605Y0138427D01*
X0027546Y0138444D01*
X0027488Y0138465D01*
X0027431Y0138490D01*
X0027376Y0138518D01*
X0027323Y0138549D01*
X0027272Y0138584D01*
X0027223Y0138622D01*
X0027176Y0138663D01*
X0027133Y0138706D01*
X0027092Y0138753D01*
X0027054Y0138802D01*
X0027019Y0138853D01*
X0026988Y0138906D01*
X0026960Y0138961D01*
X0026935Y0139018D01*
X0026914Y0139076D01*
X0026897Y0139135D01*
X0026883Y0139196D01*
X0026874Y0139257D01*
X0026868Y0139318D01*
X0026866Y0139380D01*
X0026868Y0139442D01*
X0026874Y0139503D01*
X0026883Y0139564D01*
X0026897Y0139625D01*
X0026914Y0139684D01*
X0026935Y0139742D01*
X0026960Y0139799D01*
X0026988Y0139854D01*
X0027019Y0139907D01*
X0027054Y0139958D01*
X0027092Y0140007D01*
X0027133Y0140054D01*
X0027176Y0140097D01*
X0027223Y0140138D01*
X0027272Y0140176D01*
X0027323Y0140211D01*
X0027376Y0140242D01*
X0027431Y0140270D01*
X0027488Y0140295D01*
X0027546Y0140316D01*
X0027605Y0140333D01*
X0027666Y0140347D01*
X0027727Y0140356D01*
X0027788Y0140362D01*
X0027850Y0140364D01*
X0030606Y0140364D01*
X0030668Y0140362D01*
X0030729Y0140356D01*
X0030790Y0140347D01*
X0030851Y0140333D01*
X0030910Y0140316D01*
X0030968Y0140295D01*
X0031025Y0140270D01*
X0031080Y0140242D01*
X0031133Y0140211D01*
X0031184Y0140176D01*
X0031233Y0140138D01*
X0031280Y0140097D01*
X0031323Y0140054D01*
X0031364Y0140007D01*
X0031402Y0139958D01*
X0031437Y0139907D01*
X0031468Y0139854D01*
X0031496Y0139799D01*
X0031521Y0139742D01*
X0031542Y0139684D01*
X0031559Y0139625D01*
X0031573Y0139564D01*
X0031582Y0139503D01*
X0031588Y0139442D01*
X0031590Y0139380D01*
X0031588Y0139318D01*
X0031582Y0139257D01*
X0031573Y0139196D01*
X0031559Y0139135D01*
X0031542Y0139076D01*
X0031521Y0139018D01*
X0031496Y0138961D01*
X0031468Y0138906D01*
X0031437Y0138853D01*
X0031402Y0138802D01*
X0031364Y0138753D01*
X0031323Y0138706D01*
X0031280Y0138663D01*
X0031233Y0138622D01*
X0031184Y0138584D01*
X0031133Y0138549D01*
X0031080Y0138518D01*
X0031025Y0138490D01*
X0030968Y0138465D01*
X0030910Y0138444D01*
X0030851Y0138427D01*
X0030790Y0138413D01*
X0030729Y0138404D01*
X0030668Y0138398D01*
X0030606Y0138396D01*
X0030606Y0164380D02*
X0027850Y0164380D01*
X0027788Y0164382D01*
X0027727Y0164388D01*
X0027666Y0164397D01*
X0027605Y0164411D01*
X0027546Y0164428D01*
X0027488Y0164449D01*
X0027431Y0164474D01*
X0027376Y0164502D01*
X0027323Y0164533D01*
X0027272Y0164568D01*
X0027223Y0164606D01*
X0027176Y0164647D01*
X0027133Y0164690D01*
X0027092Y0164737D01*
X0027054Y0164786D01*
X0027019Y0164837D01*
X0026988Y0164890D01*
X0026960Y0164945D01*
X0026935Y0165002D01*
X0026914Y0165060D01*
X0026897Y0165119D01*
X0026883Y0165180D01*
X0026874Y0165241D01*
X0026868Y0165302D01*
X0026866Y0165364D01*
X0026868Y0165426D01*
X0026874Y0165487D01*
X0026883Y0165548D01*
X0026897Y0165609D01*
X0026914Y0165668D01*
X0026935Y0165726D01*
X0026960Y0165783D01*
X0026988Y0165838D01*
X0027019Y0165891D01*
X0027054Y0165942D01*
X0027092Y0165991D01*
X0027133Y0166038D01*
X0027176Y0166081D01*
X0027223Y0166122D01*
X0027272Y0166160D01*
X0027323Y0166195D01*
X0027376Y0166226D01*
X0027431Y0166254D01*
X0027488Y0166279D01*
X0027546Y0166300D01*
X0027605Y0166317D01*
X0027666Y0166331D01*
X0027727Y0166340D01*
X0027788Y0166346D01*
X0027850Y0166348D01*
X0030606Y0166348D01*
X0030668Y0166346D01*
X0030729Y0166340D01*
X0030790Y0166331D01*
X0030851Y0166317D01*
X0030910Y0166300D01*
X0030968Y0166279D01*
X0031025Y0166254D01*
X0031080Y0166226D01*
X0031133Y0166195D01*
X0031184Y0166160D01*
X0031233Y0166122D01*
X0031280Y0166081D01*
X0031323Y0166038D01*
X0031364Y0165991D01*
X0031402Y0165942D01*
X0031437Y0165891D01*
X0031468Y0165838D01*
X0031496Y0165783D01*
X0031521Y0165726D01*
X0031542Y0165668D01*
X0031559Y0165609D01*
X0031573Y0165548D01*
X0031582Y0165487D01*
X0031588Y0165426D01*
X0031590Y0165364D01*
X0031588Y0165302D01*
X0031582Y0165241D01*
X0031573Y0165180D01*
X0031559Y0165119D01*
X0031542Y0165060D01*
X0031521Y0165002D01*
X0031496Y0164945D01*
X0031468Y0164890D01*
X0031437Y0164837D01*
X0031402Y0164786D01*
X0031364Y0164737D01*
X0031323Y0164690D01*
X0031280Y0164647D01*
X0031233Y0164606D01*
X0031184Y0164568D01*
X0031133Y0164533D01*
X0031080Y0164502D01*
X0031025Y0164474D01*
X0030968Y0164449D01*
X0030910Y0164428D01*
X0030851Y0164411D01*
X0030790Y0164397D01*
X0030729Y0164388D01*
X0030668Y0164382D01*
X0030606Y0164380D01*
X0200476Y0159961D02*
X0200478Y0160045D01*
X0200484Y0160128D01*
X0200494Y0160211D01*
X0200508Y0160294D01*
X0200525Y0160376D01*
X0200547Y0160457D01*
X0200572Y0160536D01*
X0200601Y0160615D01*
X0200634Y0160692D01*
X0200670Y0160767D01*
X0200710Y0160841D01*
X0200753Y0160913D01*
X0200800Y0160982D01*
X0200850Y0161049D01*
X0200903Y0161114D01*
X0200959Y0161176D01*
X0201017Y0161236D01*
X0201079Y0161293D01*
X0201143Y0161346D01*
X0201210Y0161397D01*
X0201279Y0161444D01*
X0201350Y0161489D01*
X0201423Y0161529D01*
X0201498Y0161566D01*
X0201575Y0161600D01*
X0201653Y0161630D01*
X0201732Y0161656D01*
X0201813Y0161679D01*
X0201895Y0161697D01*
X0201977Y0161712D01*
X0202060Y0161723D01*
X0202143Y0161730D01*
X0202227Y0161733D01*
X0202311Y0161732D01*
X0202394Y0161727D01*
X0202478Y0161718D01*
X0202560Y0161705D01*
X0202642Y0161689D01*
X0202723Y0161668D01*
X0202804Y0161644D01*
X0202882Y0161616D01*
X0202960Y0161584D01*
X0203036Y0161548D01*
X0203110Y0161509D01*
X0203182Y0161467D01*
X0203252Y0161421D01*
X0203320Y0161372D01*
X0203385Y0161320D01*
X0203448Y0161265D01*
X0203508Y0161207D01*
X0203566Y0161146D01*
X0203620Y0161082D01*
X0203672Y0161016D01*
X0203720Y0160948D01*
X0203765Y0160877D01*
X0203806Y0160804D01*
X0203845Y0160730D01*
X0203879Y0160654D01*
X0203910Y0160576D01*
X0203937Y0160497D01*
X0203961Y0160416D01*
X0203980Y0160335D01*
X0203996Y0160253D01*
X0204008Y0160170D01*
X0204016Y0160086D01*
X0204020Y0160003D01*
X0204020Y0159919D01*
X0204016Y0159836D01*
X0204008Y0159752D01*
X0203996Y0159669D01*
X0203980Y0159587D01*
X0203961Y0159506D01*
X0203937Y0159425D01*
X0203910Y0159346D01*
X0203879Y0159268D01*
X0203845Y0159192D01*
X0203806Y0159118D01*
X0203765Y0159045D01*
X0203720Y0158974D01*
X0203672Y0158906D01*
X0203620Y0158840D01*
X0203566Y0158776D01*
X0203508Y0158715D01*
X0203448Y0158657D01*
X0203385Y0158602D01*
X0203320Y0158550D01*
X0203252Y0158501D01*
X0203182Y0158455D01*
X0203110Y0158413D01*
X0203036Y0158374D01*
X0202960Y0158338D01*
X0202882Y0158306D01*
X0202804Y0158278D01*
X0202723Y0158254D01*
X0202642Y0158233D01*
X0202560Y0158217D01*
X0202478Y0158204D01*
X0202394Y0158195D01*
X0202311Y0158190D01*
X0202227Y0158189D01*
X0202143Y0158192D01*
X0202060Y0158199D01*
X0201977Y0158210D01*
X0201895Y0158225D01*
X0201813Y0158243D01*
X0201732Y0158266D01*
X0201653Y0158292D01*
X0201575Y0158322D01*
X0201498Y0158356D01*
X0201423Y0158393D01*
X0201350Y0158433D01*
X0201279Y0158478D01*
X0201210Y0158525D01*
X0201143Y0158576D01*
X0201079Y0158629D01*
X0201017Y0158686D01*
X0200959Y0158746D01*
X0200903Y0158808D01*
X0200850Y0158873D01*
X0200800Y0158940D01*
X0200753Y0159009D01*
X0200710Y0159081D01*
X0200670Y0159155D01*
X0200634Y0159230D01*
X0200601Y0159307D01*
X0200572Y0159386D01*
X0200547Y0159465D01*
X0200525Y0159546D01*
X0200508Y0159628D01*
X0200494Y0159711D01*
X0200484Y0159794D01*
X0200478Y0159877D01*
X0200476Y0159961D01*
D11*
X0271728Y0187122D03*
X0271728Y0117122D03*
D12*
X0141228Y0177382D03*
X0141228Y0184862D03*
X0078787Y0158126D03*
X0078787Y0150646D03*
X0065728Y0147882D03*
X0065728Y0155362D03*
X0053571Y0151902D03*
X0053571Y0159382D03*
D13*
X0088295Y0141669D03*
X0098228Y0140776D03*
X0098228Y0147469D03*
X0088295Y0134976D03*
X0095228Y0131969D03*
X0088228Y0127969D03*
X0095228Y0125276D03*
X0088228Y0121276D03*
X0043728Y0186776D03*
X0043728Y0193469D03*
D14*
X0036276Y0175465D03*
X0028008Y0175465D03*
X0027094Y0129122D03*
X0035362Y0129122D03*
X0250228Y0184488D03*
X0258728Y0184488D03*
X0258728Y0192756D03*
X0250228Y0192756D03*
D15*
X0218075Y0193622D03*
X0211382Y0193622D03*
X0240382Y0155122D03*
X0247075Y0155122D03*
X0213075Y0145122D03*
X0206382Y0145122D03*
X0202575Y0128622D03*
X0195882Y0128622D03*
X0215382Y0129122D03*
X0222075Y0129122D03*
X0133575Y0159622D03*
X0126882Y0159622D03*
X0125882Y0153622D03*
X0132575Y0153622D03*
X0133575Y0169622D03*
X0126882Y0169622D03*
X0081575Y0113122D03*
X0074882Y0113122D03*
X0068775Y0113227D03*
X0062082Y0113227D03*
X0055575Y0113122D03*
X0048882Y0113122D03*
D16*
X0096228Y0192622D03*
X0277414Y0124650D03*
D17*
X0277414Y0127603D02*
X0277306Y0127601D01*
X0277198Y0127595D01*
X0277091Y0127585D01*
X0276984Y0127572D01*
X0276878Y0127554D01*
X0276772Y0127532D01*
X0276667Y0127507D01*
X0276563Y0127478D01*
X0276461Y0127445D01*
X0276359Y0127408D01*
X0276259Y0127368D01*
X0276161Y0127324D01*
X0276064Y0127276D01*
X0275969Y0127225D01*
X0275876Y0127171D01*
X0275785Y0127113D01*
X0275696Y0127052D01*
X0275609Y0126987D01*
X0275525Y0126920D01*
X0275443Y0126849D01*
X0275364Y0126776D01*
X0275288Y0126700D01*
X0275215Y0126621D01*
X0275144Y0126539D01*
X0275077Y0126455D01*
X0275012Y0126368D01*
X0274951Y0126279D01*
X0274893Y0126188D01*
X0274839Y0126095D01*
X0274788Y0126000D01*
X0274740Y0125903D01*
X0274696Y0125805D01*
X0274656Y0125705D01*
X0274619Y0125603D01*
X0274586Y0125501D01*
X0274557Y0125397D01*
X0274532Y0125292D01*
X0274510Y0125186D01*
X0274492Y0125080D01*
X0274479Y0124973D01*
X0274469Y0124866D01*
X0274463Y0124758D01*
X0274461Y0124650D01*
X0274463Y0124542D01*
X0274469Y0124434D01*
X0274479Y0124327D01*
X0274492Y0124220D01*
X0274510Y0124114D01*
X0274532Y0124008D01*
X0274557Y0123903D01*
X0274586Y0123799D01*
X0274619Y0123697D01*
X0274656Y0123595D01*
X0274696Y0123495D01*
X0274740Y0123397D01*
X0274788Y0123300D01*
X0274839Y0123205D01*
X0274893Y0123112D01*
X0274951Y0123021D01*
X0275012Y0122932D01*
X0275077Y0122845D01*
X0275144Y0122761D01*
X0275215Y0122679D01*
X0275288Y0122600D01*
X0275364Y0122524D01*
X0275443Y0122451D01*
X0275525Y0122380D01*
X0275609Y0122313D01*
X0275696Y0122248D01*
X0275785Y0122187D01*
X0275876Y0122129D01*
X0275969Y0122075D01*
X0276064Y0122024D01*
X0276161Y0121976D01*
X0276259Y0121932D01*
X0276359Y0121892D01*
X0276461Y0121855D01*
X0276563Y0121822D01*
X0276667Y0121793D01*
X0276772Y0121768D01*
X0276878Y0121746D01*
X0276984Y0121728D01*
X0277091Y0121715D01*
X0277198Y0121705D01*
X0277306Y0121699D01*
X0277414Y0121697D01*
X0277522Y0121699D01*
X0277630Y0121705D01*
X0277737Y0121715D01*
X0277844Y0121728D01*
X0277950Y0121746D01*
X0278056Y0121768D01*
X0278161Y0121793D01*
X0278265Y0121822D01*
X0278367Y0121855D01*
X0278469Y0121892D01*
X0278569Y0121932D01*
X0278667Y0121976D01*
X0278764Y0122024D01*
X0278859Y0122075D01*
X0278952Y0122129D01*
X0279043Y0122187D01*
X0279132Y0122248D01*
X0279219Y0122313D01*
X0279303Y0122380D01*
X0279385Y0122451D01*
X0279464Y0122524D01*
X0279540Y0122600D01*
X0279613Y0122679D01*
X0279684Y0122761D01*
X0279751Y0122845D01*
X0279816Y0122932D01*
X0279877Y0123021D01*
X0279935Y0123112D01*
X0279989Y0123205D01*
X0280040Y0123300D01*
X0280088Y0123397D01*
X0280132Y0123495D01*
X0280172Y0123595D01*
X0280209Y0123697D01*
X0280242Y0123799D01*
X0280271Y0123903D01*
X0280296Y0124008D01*
X0280318Y0124114D01*
X0280336Y0124220D01*
X0280349Y0124327D01*
X0280359Y0124434D01*
X0280365Y0124542D01*
X0280367Y0124650D01*
X0280365Y0124758D01*
X0280359Y0124866D01*
X0280349Y0124973D01*
X0280336Y0125080D01*
X0280318Y0125186D01*
X0280296Y0125292D01*
X0280271Y0125397D01*
X0280242Y0125501D01*
X0280209Y0125603D01*
X0280172Y0125705D01*
X0280132Y0125805D01*
X0280088Y0125903D01*
X0280040Y0126000D01*
X0279989Y0126095D01*
X0279935Y0126188D01*
X0279877Y0126279D01*
X0279816Y0126368D01*
X0279751Y0126455D01*
X0279684Y0126539D01*
X0279613Y0126621D01*
X0279540Y0126700D01*
X0279464Y0126776D01*
X0279385Y0126849D01*
X0279303Y0126920D01*
X0279219Y0126987D01*
X0279132Y0127052D01*
X0279043Y0127113D01*
X0278952Y0127171D01*
X0278859Y0127225D01*
X0278764Y0127276D01*
X0278667Y0127324D01*
X0278569Y0127368D01*
X0278469Y0127408D01*
X0278367Y0127445D01*
X0278265Y0127478D01*
X0278161Y0127507D01*
X0278056Y0127532D01*
X0277950Y0127554D01*
X0277844Y0127572D01*
X0277737Y0127585D01*
X0277630Y0127595D01*
X0277522Y0127601D01*
X0277414Y0127603D01*
X0096228Y0195575D02*
X0096120Y0195573D01*
X0096012Y0195567D01*
X0095905Y0195557D01*
X0095798Y0195544D01*
X0095692Y0195526D01*
X0095586Y0195504D01*
X0095481Y0195479D01*
X0095377Y0195450D01*
X0095275Y0195417D01*
X0095173Y0195380D01*
X0095073Y0195340D01*
X0094975Y0195296D01*
X0094878Y0195248D01*
X0094783Y0195197D01*
X0094690Y0195143D01*
X0094599Y0195085D01*
X0094510Y0195024D01*
X0094423Y0194959D01*
X0094339Y0194892D01*
X0094257Y0194821D01*
X0094178Y0194748D01*
X0094102Y0194672D01*
X0094029Y0194593D01*
X0093958Y0194511D01*
X0093891Y0194427D01*
X0093826Y0194340D01*
X0093765Y0194251D01*
X0093707Y0194160D01*
X0093653Y0194067D01*
X0093602Y0193972D01*
X0093554Y0193875D01*
X0093510Y0193777D01*
X0093470Y0193677D01*
X0093433Y0193575D01*
X0093400Y0193473D01*
X0093371Y0193369D01*
X0093346Y0193264D01*
X0093324Y0193158D01*
X0093306Y0193052D01*
X0093293Y0192945D01*
X0093283Y0192838D01*
X0093277Y0192730D01*
X0093275Y0192622D01*
X0093277Y0192514D01*
X0093283Y0192406D01*
X0093293Y0192299D01*
X0093306Y0192192D01*
X0093324Y0192086D01*
X0093346Y0191980D01*
X0093371Y0191875D01*
X0093400Y0191771D01*
X0093433Y0191669D01*
X0093470Y0191567D01*
X0093510Y0191467D01*
X0093554Y0191369D01*
X0093602Y0191272D01*
X0093653Y0191177D01*
X0093707Y0191084D01*
X0093765Y0190993D01*
X0093826Y0190904D01*
X0093891Y0190817D01*
X0093958Y0190733D01*
X0094029Y0190651D01*
X0094102Y0190572D01*
X0094178Y0190496D01*
X0094257Y0190423D01*
X0094339Y0190352D01*
X0094423Y0190285D01*
X0094510Y0190220D01*
X0094599Y0190159D01*
X0094690Y0190101D01*
X0094783Y0190047D01*
X0094878Y0189996D01*
X0094975Y0189948D01*
X0095073Y0189904D01*
X0095173Y0189864D01*
X0095275Y0189827D01*
X0095377Y0189794D01*
X0095481Y0189765D01*
X0095586Y0189740D01*
X0095692Y0189718D01*
X0095798Y0189700D01*
X0095905Y0189687D01*
X0096012Y0189677D01*
X0096120Y0189671D01*
X0096228Y0189669D01*
X0096336Y0189671D01*
X0096444Y0189677D01*
X0096551Y0189687D01*
X0096658Y0189700D01*
X0096764Y0189718D01*
X0096870Y0189740D01*
X0096975Y0189765D01*
X0097079Y0189794D01*
X0097181Y0189827D01*
X0097283Y0189864D01*
X0097383Y0189904D01*
X0097481Y0189948D01*
X0097578Y0189996D01*
X0097673Y0190047D01*
X0097766Y0190101D01*
X0097857Y0190159D01*
X0097946Y0190220D01*
X0098033Y0190285D01*
X0098117Y0190352D01*
X0098199Y0190423D01*
X0098278Y0190496D01*
X0098354Y0190572D01*
X0098427Y0190651D01*
X0098498Y0190733D01*
X0098565Y0190817D01*
X0098630Y0190904D01*
X0098691Y0190993D01*
X0098749Y0191084D01*
X0098803Y0191177D01*
X0098854Y0191272D01*
X0098902Y0191369D01*
X0098946Y0191467D01*
X0098986Y0191567D01*
X0099023Y0191669D01*
X0099056Y0191771D01*
X0099085Y0191875D01*
X0099110Y0191980D01*
X0099132Y0192086D01*
X0099150Y0192192D01*
X0099163Y0192299D01*
X0099173Y0192406D01*
X0099179Y0192514D01*
X0099181Y0192622D01*
X0099179Y0192730D01*
X0099173Y0192838D01*
X0099163Y0192945D01*
X0099150Y0193052D01*
X0099132Y0193158D01*
X0099110Y0193264D01*
X0099085Y0193369D01*
X0099056Y0193473D01*
X0099023Y0193575D01*
X0098986Y0193677D01*
X0098946Y0193777D01*
X0098902Y0193875D01*
X0098854Y0193972D01*
X0098803Y0194067D01*
X0098749Y0194160D01*
X0098691Y0194251D01*
X0098630Y0194340D01*
X0098565Y0194427D01*
X0098498Y0194511D01*
X0098427Y0194593D01*
X0098354Y0194672D01*
X0098278Y0194748D01*
X0098199Y0194821D01*
X0098117Y0194892D01*
X0098033Y0194959D01*
X0097946Y0195024D01*
X0097857Y0195085D01*
X0097766Y0195143D01*
X0097673Y0195197D01*
X0097578Y0195248D01*
X0097481Y0195296D01*
X0097383Y0195340D01*
X0097283Y0195380D01*
X0097181Y0195417D01*
X0097079Y0195450D01*
X0096975Y0195479D01*
X0096870Y0195504D01*
X0096764Y0195526D01*
X0096658Y0195544D01*
X0096551Y0195557D01*
X0096444Y0195567D01*
X0096336Y0195573D01*
X0096228Y0195575D01*
D18*
X0067102Y0129772D03*
X0067102Y0123472D03*
X0051354Y0123472D03*
X0051354Y0129772D03*
D19*
X0031728Y0117122D03*
X0031728Y0187122D03*
D20*
X0111988Y0166741D03*
X0115728Y0166741D03*
X0119469Y0166741D03*
X0119469Y0156504D03*
X0111988Y0156504D03*
X0081969Y0132741D03*
X0078228Y0132741D03*
X0074488Y0132741D03*
X0074488Y0122504D03*
X0081969Y0122504D03*
D21*
X0086445Y0156622D03*
X0101012Y0156622D03*
D22*
X0056161Y0174685D03*
X0056161Y0182559D03*
D23*
X0076634Y0192008D03*
X0076634Y0165236D03*
D24*
X0106047Y0141949D03*
X0106047Y0139980D03*
X0106047Y0138012D03*
X0106047Y0136043D03*
X0106047Y0134075D03*
X0106047Y0132106D03*
X0106047Y0130138D03*
X0106047Y0128169D03*
X0106047Y0126201D03*
X0106047Y0124232D03*
X0106047Y0122264D03*
X0106047Y0120295D03*
X0133409Y0120295D03*
X0133409Y0122264D03*
X0133409Y0124232D03*
X0133409Y0126201D03*
X0133409Y0128169D03*
X0133409Y0130138D03*
X0133409Y0132106D03*
X0133409Y0134075D03*
X0133409Y0136043D03*
X0133409Y0138012D03*
X0133409Y0139980D03*
X0133409Y0141949D03*
D25*
X0130555Y0144803D03*
X0128587Y0144803D03*
X0126618Y0144803D03*
X0124650Y0144803D03*
X0122681Y0144803D03*
X0120713Y0144803D03*
X0118744Y0144803D03*
X0116776Y0144803D03*
X0114807Y0144803D03*
X0112839Y0144803D03*
X0110870Y0144803D03*
X0108902Y0144803D03*
X0108902Y0117441D03*
X0110870Y0117441D03*
X0112839Y0117441D03*
X0114807Y0117441D03*
X0116776Y0117441D03*
X0118744Y0117441D03*
X0120713Y0117441D03*
X0122681Y0117441D03*
X0124650Y0117441D03*
X0126618Y0117441D03*
X0128587Y0117441D03*
X0130555Y0117441D03*
D26*
X0119728Y0131122D03*
D27*
X0097453Y0113622D03*
X0088004Y0113622D03*
D28*
X0141988Y0192622D03*
X0149469Y0192622D03*
D29*
X0156382Y0187618D03*
X0159138Y0187618D03*
X0161894Y0187618D03*
X0164650Y0187618D03*
X0167406Y0187618D03*
X0170161Y0187618D03*
X0172917Y0187618D03*
X0175673Y0187618D03*
X0178429Y0187618D03*
X0181185Y0187618D03*
X0197720Y0187618D03*
X0200476Y0187618D03*
X0200476Y0149626D03*
X0197720Y0149626D03*
X0194965Y0149626D03*
X0192209Y0149626D03*
X0189453Y0149626D03*
X0186697Y0149626D03*
X0183941Y0149626D03*
X0181185Y0149626D03*
X0178429Y0149626D03*
X0175673Y0149626D03*
X0172917Y0149626D03*
X0170161Y0149626D03*
X0167406Y0149626D03*
X0164650Y0149626D03*
X0161894Y0149626D03*
X0159138Y0149626D03*
X0156382Y0149626D03*
D30*
X0149984Y0152087D03*
X0149984Y0154843D03*
X0149984Y0157598D03*
X0149984Y0160354D03*
X0149984Y0163110D03*
X0149984Y0165866D03*
X0149984Y0168622D03*
X0149984Y0171378D03*
X0149984Y0174134D03*
X0149984Y0176890D03*
X0149984Y0179646D03*
X0149984Y0182402D03*
X0149984Y0185157D03*
D31*
X0202248Y0159961D03*
D32*
X0135028Y0176740D02*
X0131878Y0176740D01*
X0131878Y0176740D01*
X0135028Y0176740D01*
X0135028Y0176740D01*
X0135028Y0181661D02*
X0131878Y0181661D01*
X0131878Y0181661D01*
X0135028Y0181661D01*
X0135028Y0181661D01*
X0135028Y0186583D02*
X0131878Y0186583D01*
X0131878Y0186583D01*
X0135028Y0186583D01*
X0135028Y0186583D01*
X0135028Y0191504D02*
X0131878Y0191504D01*
X0131878Y0191504D01*
X0135028Y0191504D01*
X0135028Y0191504D01*
X0125579Y0191504D02*
X0122429Y0191504D01*
X0122429Y0191504D01*
X0125579Y0191504D01*
X0125579Y0191504D01*
X0125579Y0186583D02*
X0122429Y0186583D01*
X0122429Y0186583D01*
X0125579Y0186583D01*
X0125579Y0186583D01*
X0125579Y0181661D02*
X0122429Y0181661D01*
X0122429Y0181661D01*
X0125579Y0181661D01*
X0125579Y0181661D01*
X0125579Y0176740D02*
X0122429Y0176740D01*
X0122429Y0176740D01*
X0125579Y0176740D01*
X0125579Y0176740D01*
D33*
X0114728Y0184685D03*
X0114728Y0192559D03*
D34*
X0226988Y0154453D03*
X0234469Y0154453D03*
X0230728Y0145791D03*
D35*
X0234890Y0130622D03*
X0267567Y0130622D03*
D36*
X0240228Y0168386D03*
X0235228Y0168386D03*
X0230228Y0168386D03*
X0225228Y0168386D03*
X0225228Y0188858D03*
X0230228Y0188858D03*
X0235228Y0188858D03*
X0240228Y0188858D03*
D37*
X0229902Y0111331D03*
X0229902Y0105622D03*
X0215728Y0105622D03*
X0208402Y0105622D03*
X0208402Y0111331D03*
X0215728Y0111331D03*
X0194228Y0111331D03*
X0194228Y0105622D03*
D38*
X0272339Y0153764D03*
X0272339Y0165575D03*
X0272339Y0171480D03*
D39*
X0274898Y0176992D03*
X0283559Y0176992D03*
X0283559Y0148252D03*
X0274898Y0148252D03*
D40*
X0279228Y0156717D03*
X0279228Y0168528D03*
D41*
X0186728Y0117803D03*
X0181728Y0111803D03*
X0176728Y0117803D03*
X0171728Y0111803D03*
X0166728Y0117803D03*
X0161728Y0111803D03*
X0156728Y0117803D03*
X0151728Y0111803D03*
X0146728Y0117803D03*
X0141728Y0111803D03*
D42*
X0039760Y0147254D03*
X0039760Y0149813D03*
X0039760Y0152372D03*
X0039760Y0154931D03*
X0039760Y0157490D03*
D43*
X0038874Y0164970D03*
X0038874Y0139774D03*
D44*
X0029228Y0147648D03*
X0029228Y0157096D03*
D45*
X0027244Y0165364D02*
X0031213Y0165364D01*
X0031213Y0139380D02*
X0027244Y0139380D01*
M02*
