G75*
%MOIN*%
%OFA0B0*%
%FSLAX25Y25*%
%IPPOS*%
%LPD*%
%AMOC8*
5,1,8,0,0,1.08239X$1,22.5*
%
%ADD10C,0.00000*%
%ADD11C,0.00500*%
%ADD12C,0.00600*%
%ADD13C,0.00300*%
%ADD14C,0.00800*%
%ADD15C,0.01200*%
%ADD16R,0.00750X0.03500*%
%ADD17R,0.00787X0.03937*%
%ADD18R,0.00200X0.00025*%
%ADD19R,0.00325X0.00025*%
%ADD20R,0.00475X0.00025*%
%ADD21R,0.00550X0.00025*%
%ADD22R,0.00625X0.00025*%
%ADD23R,0.00700X0.00025*%
%ADD24R,0.00775X0.00025*%
%ADD25R,0.00850X0.00025*%
%ADD26R,0.00900X0.00025*%
%ADD27R,0.00950X0.00025*%
%ADD28R,0.01000X0.00025*%
%ADD29R,0.01050X0.00025*%
%ADD30R,0.01100X0.00025*%
%ADD31R,0.01125X0.00025*%
%ADD32R,0.01175X0.00025*%
%ADD33R,0.01225X0.00025*%
%ADD34R,0.01250X0.00025*%
%ADD35R,0.01300X0.00025*%
%ADD36R,0.01325X0.00025*%
%ADD37R,0.01375X0.00025*%
%ADD38R,0.01425X0.00025*%
%ADD39R,0.01450X0.00025*%
%ADD40R,0.01500X0.00025*%
%ADD41R,0.01525X0.00025*%
%ADD42R,0.01550X0.00025*%
%ADD43R,0.01600X0.00025*%
%ADD44R,0.01625X0.00025*%
%ADD45R,0.01650X0.00025*%
%ADD46R,0.01700X0.00025*%
%ADD47R,0.01725X0.00025*%
%ADD48R,0.01775X0.00025*%
%ADD49R,0.01800X0.00025*%
%ADD50R,0.01825X0.00025*%
%ADD51R,0.01875X0.00025*%
%ADD52R,0.01900X0.00025*%
%ADD53R,0.01925X0.00025*%
%ADD54R,0.01975X0.00025*%
%ADD55R,0.02000X0.00025*%
%ADD56R,0.02025X0.00025*%
%ADD57R,0.02075X0.00025*%
%ADD58R,0.02100X0.00025*%
%ADD59R,0.02150X0.00025*%
%ADD60R,0.02175X0.00025*%
%ADD61R,0.02200X0.00025*%
%ADD62R,0.02250X0.00025*%
%ADD63R,0.02275X0.00025*%
%ADD64R,0.02300X0.00025*%
%ADD65R,0.02350X0.00025*%
%ADD66R,0.02375X0.00025*%
%ADD67R,0.02400X0.00025*%
%ADD68R,0.02450X0.00025*%
%ADD69R,0.02475X0.00025*%
%ADD70R,0.02525X0.00025*%
%ADD71R,0.02550X0.00025*%
%ADD72R,0.00250X0.00025*%
%ADD73R,0.02575X0.00025*%
%ADD74R,0.00400X0.00025*%
%ADD75R,0.02625X0.00025*%
%ADD76R,0.00550X0.00025*%
%ADD77R,0.02650X0.00025*%
%ADD78R,0.00650X0.00025*%
%ADD79R,0.02675X0.00025*%
%ADD80R,0.00775X0.00025*%
%ADD81R,0.02725X0.00025*%
%ADD82R,0.00875X0.00025*%
%ADD83R,0.02750X0.00025*%
%ADD84R,0.00975X0.00025*%
%ADD85R,0.02775X0.00025*%
%ADD86R,0.01100X0.00025*%
%ADD87R,0.02825X0.00025*%
%ADD88R,0.01175X0.00025*%
%ADD89R,0.02850X0.00025*%
%ADD90R,0.02900X0.00025*%
%ADD91R,0.01350X0.00025*%
%ADD92R,0.02925X0.00025*%
%ADD93R,0.01475X0.00025*%
%ADD94R,0.02950X0.00025*%
%ADD95R,0.03000X0.00025*%
%ADD96R,0.01625X0.00025*%
%ADD97R,0.03025X0.00025*%
%ADD98R,0.01725X0.00025*%
%ADD99R,0.03050X0.00025*%
%ADD100R,0.01825X0.00025*%
%ADD101R,0.03100X0.00025*%
%ADD102R,0.03125X0.00025*%
%ADD103R,0.01950X0.00025*%
%ADD104R,0.03150X0.00025*%
%ADD105R,0.02050X0.00025*%
%ADD106R,0.03200X0.00025*%
%ADD107R,0.02100X0.00025*%
%ADD108R,0.03225X0.00025*%
%ADD109R,0.02200X0.00025*%
%ADD110R,0.03250X0.00025*%
%ADD111R,0.02275X0.00025*%
%ADD112R,0.03275X0.00025*%
%ADD113R,0.02350X0.00025*%
%ADD114R,0.03325X0.00025*%
%ADD115R,0.02425X0.00025*%
%ADD116R,0.03350X0.00025*%
%ADD117R,0.02500X0.00025*%
%ADD118R,0.03375X0.00025*%
%ADD119R,0.02575X0.00025*%
%ADD120R,0.03400X0.00025*%
%ADD121R,0.02625X0.00025*%
%ADD122R,0.03425X0.00025*%
%ADD123R,0.02700X0.00025*%
%ADD124R,0.03450X0.00025*%
%ADD125R,0.03475X0.00025*%
%ADD126R,0.02850X0.00025*%
%ADD127R,0.03500X0.00025*%
%ADD128R,0.03525X0.00025*%
%ADD129R,0.02975X0.00025*%
%ADD130R,0.03550X0.00025*%
%ADD131R,0.03575X0.00025*%
%ADD132R,0.03125X0.00025*%
%ADD133R,0.03600X0.00025*%
%ADD134R,0.03175X0.00025*%
%ADD135R,0.03625X0.00025*%
%ADD136R,0.03250X0.00025*%
%ADD137R,0.03650X0.00025*%
%ADD138R,0.03675X0.00025*%
%ADD139R,0.03375X0.00025*%
%ADD140R,0.03700X0.00025*%
%ADD141R,0.03425X0.00025*%
%ADD142R,0.03700X0.00025*%
%ADD143R,0.03725X0.00025*%
%ADD144R,0.03750X0.00025*%
%ADD145R,0.03575X0.00025*%
%ADD146R,0.03775X0.00025*%
%ADD147R,0.03800X0.00025*%
%ADD148R,0.03800X0.00025*%
%ADD149R,0.03825X0.00025*%
%ADD150R,0.03750X0.00025*%
%ADD151R,0.03850X0.00025*%
%ADD152R,0.03775X0.00025*%
%ADD153R,0.03875X0.00025*%
%ADD154R,0.03825X0.00025*%
%ADD155R,0.03875X0.00025*%
%ADD156R,0.03900X0.00025*%
%ADD157R,0.03875X0.00025*%
%ADD158R,0.03925X0.00025*%
%ADD159R,0.03925X0.00025*%
%ADD160R,0.03925X0.00025*%
%ADD161R,0.03950X0.00025*%
%ADD162R,0.04000X0.00025*%
%ADD163R,0.03975X0.00025*%
%ADD164R,0.04000X0.00025*%
%ADD165R,0.03975X0.00025*%
%ADD166R,0.04025X0.00025*%
%ADD167R,0.04050X0.00025*%
%ADD168R,0.04075X0.00025*%
%ADD169R,0.04125X0.00025*%
%ADD170R,0.04150X0.00025*%
%ADD171R,0.04050X0.00025*%
%ADD172R,0.04150X0.00025*%
%ADD173R,0.04075X0.00025*%
%ADD174R,0.04175X0.00025*%
%ADD175R,0.04075X0.00025*%
%ADD176R,0.04175X0.00025*%
%ADD177R,0.04100X0.00025*%
%ADD178R,0.04200X0.00025*%
%ADD179R,0.04100X0.00025*%
%ADD180R,0.04250X0.00025*%
%ADD181R,0.04125X0.00025*%
%ADD182R,0.04275X0.00025*%
%ADD183R,0.04125X0.00025*%
%ADD184R,0.04275X0.00025*%
%ADD185R,0.04300X0.00025*%
%ADD186R,0.04275X0.00025*%
%ADD187R,0.04325X0.00025*%
%ADD188R,0.04325X0.00025*%
%ADD189R,0.04175X0.00025*%
%ADD190R,0.04350X0.00025*%
%ADD191R,0.04350X0.00025*%
%ADD192R,0.04200X0.00025*%
%ADD193R,0.04375X0.00025*%
%ADD194R,0.04400X0.00025*%
%ADD195R,0.04400X0.00025*%
%ADD196R,0.04225X0.00025*%
%ADD197R,0.04225X0.00025*%
%ADD198R,0.04425X0.00025*%
%ADD199R,0.04250X0.00025*%
%ADD200R,0.04425X0.00025*%
%ADD201R,0.04450X0.00025*%
%ADD202R,0.04450X0.00025*%
%ADD203R,0.04475X0.00025*%
%ADD204R,0.04475X0.00025*%
%ADD205R,0.04275X0.00025*%
%ADD206R,0.04475X0.00025*%
%ADD207R,0.04475X0.00025*%
%ADD208R,0.04500X0.00025*%
%ADD209R,0.04500X0.00025*%
%ADD210R,0.04525X0.00025*%
%ADD211R,0.04525X0.00025*%
%ADD212R,0.04525X0.00025*%
%ADD213R,0.04525X0.00025*%
%ADD214R,0.04550X0.00025*%
%ADD215R,0.04550X0.00025*%
%ADD216R,0.04175X0.00025*%
%ADD217R,0.08650X0.00025*%
%ADD218R,0.08650X0.00025*%
%ADD219R,0.08600X0.00025*%
%ADD220R,0.08600X0.00025*%
%ADD221R,0.08550X0.00025*%
%ADD222R,0.08550X0.00025*%
%ADD223R,0.06025X0.00025*%
%ADD224R,0.05925X0.00025*%
%ADD225R,0.05875X0.00025*%
%ADD226R,0.05850X0.00025*%
%ADD227R,0.02225X0.00025*%
%ADD228R,0.05800X0.00025*%
%ADD229R,0.02225X0.00025*%
%ADD230R,0.05750X0.00025*%
%ADD231R,0.05725X0.00025*%
%ADD232R,0.02175X0.00025*%
%ADD233R,0.05675X0.00025*%
%ADD234R,0.02150X0.00025*%
%ADD235R,0.05650X0.00025*%
%ADD236R,0.02125X0.00025*%
%ADD237R,0.05625X0.00025*%
%ADD238R,0.05600X0.00025*%
%ADD239R,0.05550X0.00025*%
%ADD240R,0.02075X0.00025*%
%ADD241R,0.05525X0.00025*%
%ADD242R,0.02075X0.00025*%
%ADD243R,0.05475X0.00025*%
%ADD244R,0.05450X0.00025*%
%ADD245R,0.02050X0.00025*%
%ADD246R,0.05450X0.00025*%
%ADD247R,0.02025X0.00025*%
%ADD248R,0.05400X0.00025*%
%ADD249R,0.05375X0.00025*%
%ADD250R,0.02000X0.00025*%
%ADD251R,0.05325X0.00025*%
%ADD252R,0.01975X0.00025*%
%ADD253R,0.02800X0.00025*%
%ADD254R,0.02375X0.00025*%
%ADD255R,0.01975X0.00025*%
%ADD256R,0.02725X0.00025*%
%ADD257R,0.02250X0.00025*%
%ADD258R,0.02675X0.00025*%
%ADD259R,0.01950X0.00025*%
%ADD260R,0.02650X0.00025*%
%ADD261R,0.02625X0.00025*%
%ADD262R,0.01925X0.00025*%
%ADD263R,0.02600X0.00025*%
%ADD264R,0.01900X0.00025*%
%ADD265R,0.01875X0.00025*%
%ADD266R,0.02575X0.00025*%
%ADD267R,0.01850X0.00025*%
%ADD268R,0.01875X0.00025*%
%ADD269R,0.02550X0.00025*%
%ADD270R,0.01800X0.00025*%
%ADD271R,0.01850X0.00025*%
%ADD272R,0.02525X0.00025*%
%ADD273R,0.01750X0.00025*%
%ADD274R,0.01825X0.00025*%
%ADD275R,0.02500X0.00025*%
%ADD276R,0.01825X0.00025*%
%ADD277R,0.01550X0.00025*%
%ADD278R,0.01775X0.00025*%
%ADD279R,0.02475X0.00025*%
%ADD280R,0.01525X0.00025*%
%ADD281R,0.01775X0.00025*%
%ADD282R,0.02475X0.00025*%
%ADD283R,0.01475X0.00025*%
%ADD284R,0.01450X0.00025*%
%ADD285R,0.01725X0.00025*%
%ADD286R,0.02450X0.00025*%
%ADD287R,0.01400X0.00025*%
%ADD288R,0.01700X0.00025*%
%ADD289R,0.01375X0.00025*%
%ADD290R,0.01675X0.00025*%
%ADD291R,0.02425X0.00025*%
%ADD292R,0.01300X0.00025*%
%ADD293R,0.01650X0.00025*%
%ADD294R,0.02425X0.00025*%
%ADD295R,0.01225X0.00025*%
%ADD296R,0.01600X0.00025*%
%ADD297R,0.02425X0.00025*%
%ADD298R,0.01200X0.00025*%
%ADD299R,0.00625X0.00025*%
%ADD300R,0.02400X0.00025*%
%ADD301R,0.01150X0.00025*%
%ADD302R,0.00925X0.00025*%
%ADD303R,0.01525X0.00025*%
%ADD304R,0.01150X0.00025*%
%ADD305R,0.01325X0.00025*%
%ADD306R,0.01025X0.00025*%
%ADD307R,0.02375X0.00025*%
%ADD308R,0.01025X0.00025*%
%ADD309R,0.01425X0.00025*%
%ADD310R,0.01775X0.00025*%
%ADD311R,0.01400X0.00025*%
%ADD312R,0.01350X0.00025*%
%ADD313R,0.02025X0.00025*%
%ADD314R,0.00925X0.00025*%
%ADD315R,0.02125X0.00025*%
%ADD316R,0.02375X0.00025*%
%ADD317R,0.00925X0.00025*%
%ADD318R,0.03625X0.00025*%
%ADD319R,0.03775X0.00025*%
%ADD320R,0.00850X0.00025*%
%ADD321R,0.00825X0.00025*%
%ADD322R,0.00800X0.00025*%
%ADD323R,0.03950X0.00025*%
%ADD324R,0.00800X0.00025*%
%ADD325R,0.00775X0.00025*%
%ADD326R,0.00750X0.00025*%
%ADD327R,0.00750X0.00025*%
%ADD328R,0.00725X0.00025*%
%ADD329R,0.02325X0.00025*%
%ADD330R,0.00725X0.00025*%
%ADD331R,0.02325X0.00025*%
%ADD332R,0.00700X0.00025*%
%ADD333R,0.02300X0.00025*%
%ADD334R,0.04600X0.00025*%
%ADD335R,0.00675X0.00025*%
%ADD336R,0.04675X0.00025*%
%ADD337R,0.04725X0.00025*%
%ADD338R,0.02275X0.00025*%
%ADD339R,0.04775X0.00025*%
%ADD340R,0.04850X0.00025*%
%ADD341R,0.04925X0.00025*%
%ADD342R,0.02225X0.00025*%
%ADD343R,0.00725X0.00025*%
%ADD344R,0.04975X0.00025*%
%ADD345R,0.02225X0.00025*%
%ADD346R,0.05075X0.00025*%
%ADD347R,0.05175X0.00025*%
%ADD348R,0.02175X0.00025*%
%ADD349R,0.06175X0.00025*%
%ADD350R,0.02175X0.00025*%
%ADD351R,0.06225X0.00025*%
%ADD352R,0.06275X0.00025*%
%ADD353R,0.06325X0.00025*%
%ADD354R,0.06375X0.00025*%
%ADD355R,0.02025X0.00025*%
%ADD356R,0.06450X0.00025*%
%ADD357R,0.06525X0.00025*%
%ADD358R,0.08700X0.00025*%
%ADD359R,0.09550X0.00025*%
%ADD360R,0.09725X0.00025*%
%ADD361R,0.09850X0.00025*%
%ADD362R,0.09975X0.00025*%
%ADD363R,0.10075X0.00025*%
%ADD364R,0.10175X0.00025*%
%ADD365R,0.10275X0.00025*%
%ADD366R,0.10350X0.00025*%
%ADD367R,0.10475X0.00025*%
%ADD368R,0.10525X0.00025*%
%ADD369R,0.05600X0.00025*%
%ADD370R,0.04725X0.00025*%
%ADD371R,0.05375X0.00025*%
%ADD372R,0.05375X0.00025*%
%ADD373R,0.05325X0.00025*%
%ADD374R,0.04325X0.00025*%
%ADD375R,0.05350X0.00025*%
%ADD376R,0.05325X0.00025*%
%ADD377R,0.05350X0.00025*%
%ADD378R,0.05400X0.00025*%
%ADD379R,0.05425X0.00025*%
%ADD380R,0.05500X0.00025*%
%ADD381R,0.05525X0.00025*%
%ADD382R,0.03600X0.00025*%
%ADD383R,0.03450X0.00025*%
%ADD384R,0.01475X0.00025*%
%ADD385R,0.04225X0.00025*%
%ADD386R,0.01475X0.00025*%
%ADD387R,0.03325X0.00025*%
%ADD388R,0.03325X0.00025*%
%ADD389R,0.03275X0.00025*%
%ADD390R,0.04300X0.00025*%
%ADD391R,0.01575X0.00025*%
%ADD392R,0.03225X0.00025*%
%ADD393R,0.04375X0.00025*%
%ADD394R,0.03200X0.00025*%
%ADD395R,0.03150X0.00025*%
%ADD396R,0.01875X0.00025*%
%ADD397R,0.04650X0.00025*%
%ADD398R,0.01975X0.00025*%
%ADD399R,0.04700X0.00025*%
%ADD400R,0.03075X0.00025*%
%ADD401R,0.04875X0.00025*%
%ADD402R,0.03075X0.00025*%
%ADD403R,0.04950X0.00025*%
%ADD404R,0.05100X0.00025*%
%ADD405R,0.05250X0.00025*%
%ADD406R,0.03050X0.00025*%
%ADD407R,0.07350X0.00025*%
%ADD408R,0.00825X0.00025*%
%ADD409R,0.07350X0.00025*%
%ADD410R,0.03025X0.00025*%
%ADD411R,0.00825X0.00025*%
%ADD412R,0.07325X0.00025*%
%ADD413R,0.03000X0.00025*%
%ADD414R,0.03025X0.00025*%
%ADD415R,0.07325X0.00025*%
%ADD416R,0.07325X0.00025*%
%ADD417R,0.00875X0.00025*%
%ADD418R,0.07300X0.00025*%
%ADD419R,0.00925X0.00025*%
%ADD420R,0.07300X0.00025*%
%ADD421R,0.03025X0.00025*%
%ADD422R,0.01025X0.00025*%
%ADD423R,0.07275X0.00025*%
%ADD424R,0.01050X0.00025*%
%ADD425R,0.07275X0.00025*%
%ADD426R,0.01075X0.00025*%
%ADD427R,0.07250X0.00025*%
%ADD428R,0.01125X0.00025*%
%ADD429R,0.07250X0.00025*%
%ADD430R,0.01175X0.00025*%
%ADD431R,0.07225X0.00025*%
%ADD432R,0.03075X0.00025*%
%ADD433R,0.01200X0.00025*%
%ADD434R,0.07225X0.00025*%
%ADD435R,0.01250X0.00025*%
%ADD436R,0.07200X0.00025*%
%ADD437R,0.03100X0.00025*%
%ADD438R,0.01275X0.00025*%
%ADD439R,0.07200X0.00025*%
%ADD440R,0.03125X0.00025*%
%ADD441R,0.07175X0.00025*%
%ADD442R,0.03175X0.00025*%
%ADD443R,0.07175X0.00025*%
%ADD444R,0.07150X0.00025*%
%ADD445R,0.03225X0.00025*%
%ADD446R,0.01525X0.00025*%
%ADD447R,0.07150X0.00025*%
%ADD448R,0.07125X0.00025*%
%ADD449R,0.07100X0.00025*%
%ADD450R,0.07075X0.00025*%
%ADD451R,0.03550X0.00025*%
%ADD452R,0.07075X0.00025*%
%ADD453R,0.05675X0.00025*%
%ADD454R,0.07050X0.00025*%
%ADD455R,0.05700X0.00025*%
%ADD456R,0.07025X0.00025*%
%ADD457R,0.05700X0.00025*%
%ADD458R,0.07025X0.00025*%
%ADD459R,0.05725X0.00025*%
%ADD460R,0.06975X0.00025*%
%ADD461R,0.05750X0.00025*%
%ADD462R,0.06925X0.00025*%
%ADD463R,0.05775X0.00025*%
%ADD464R,0.06900X0.00025*%
%ADD465R,0.05775X0.00025*%
%ADD466R,0.06850X0.00025*%
%ADD467R,0.05800X0.00025*%
%ADD468R,0.06800X0.00025*%
%ADD469R,0.05825X0.00025*%
%ADD470R,0.06750X0.00025*%
%ADD471R,0.06675X0.00025*%
%ADD472R,0.05850X0.00025*%
%ADD473R,0.06625X0.00025*%
%ADD474R,0.05875X0.00025*%
%ADD475R,0.06550X0.00025*%
%ADD476R,0.05900X0.00025*%
%ADD477R,0.06475X0.00025*%
%ADD478R,0.05900X0.00025*%
%ADD479R,0.06375X0.00025*%
%ADD480R,0.05950X0.00025*%
%ADD481R,0.06300X0.00025*%
%ADD482R,0.05975X0.00025*%
%ADD483R,0.06200X0.00025*%
%ADD484R,0.06000X0.00025*%
%ADD485R,0.06125X0.00025*%
%ADD486R,0.06000X0.00025*%
%ADD487R,0.06050X0.00025*%
%ADD488R,0.06025X0.00025*%
%ADD489R,0.05975X0.00025*%
%ADD490R,0.05875X0.00025*%
%ADD491R,0.06100X0.00025*%
%ADD492R,0.05825X0.00025*%
%ADD493R,0.06100X0.00025*%
%ADD494R,0.06125X0.00025*%
%ADD495R,0.06150X0.00025*%
%ADD496R,0.01275X0.00025*%
%ADD497R,0.06175X0.00025*%
%ADD498R,0.01325X0.00025*%
%ADD499R,0.06250X0.00025*%
%ADD500R,0.03825X0.00025*%
%ADD501R,0.01375X0.00025*%
%ADD502R,0.06300X0.00025*%
%ADD503R,0.03625X0.00025*%
%ADD504R,0.03475X0.00025*%
%ADD505R,0.06350X0.00025*%
%ADD506R,0.01425X0.00025*%
%ADD507R,0.06400X0.00025*%
%ADD508R,0.06400X0.00025*%
%ADD509R,0.06475X0.00025*%
%ADD510R,0.02900X0.00025*%
%ADD511R,0.02825X0.00025*%
%ADD512R,0.06525X0.00025*%
%ADD513R,0.02675X0.00025*%
%ADD514R,0.06550X0.00025*%
%ADD515R,0.01575X0.00025*%
%ADD516R,0.06600X0.00025*%
%ADD517R,0.06600X0.00025*%
%ADD518R,0.01675X0.00025*%
%ADD519R,0.05325X0.00025*%
%ADD520R,0.01750X0.00025*%
%ADD521R,0.01425X0.00025*%
%ADD522R,0.00350X0.00025*%
%ADD523R,0.03975X0.00025*%
%ADD524R,0.03975X0.00025*%
%ADD525R,0.04025X0.00025*%
%ADD526R,0.05300X0.00025*%
%ADD527R,0.05300X0.00025*%
%ADD528R,0.05275X0.00025*%
%ADD529R,0.04075X0.00025*%
%ADD530R,0.05275X0.00025*%
%ADD531R,0.05250X0.00025*%
%ADD532R,0.05225X0.00025*%
%ADD533R,0.05200X0.00025*%
%ADD534R,0.05175X0.00025*%
%ADD535R,0.05175X0.00025*%
%ADD536R,0.05125X0.00025*%
%ADD537R,0.05100X0.00025*%
%ADD538R,0.05075X0.00025*%
%ADD539R,0.05025X0.00025*%
%ADD540R,0.04925X0.00025*%
%ADD541R,0.04900X0.00025*%
%ADD542R,0.04850X0.00025*%
%ADD543R,0.04775X0.00025*%
%ADD544R,0.04725X0.00025*%
%ADD545R,0.04675X0.00025*%
%ADD546R,0.04600X0.00025*%
%ADD547R,0.04125X0.00025*%
%ADD548R,0.03850X0.00025*%
%ADD549R,0.03725X0.00025*%
%ADD550R,0.03675X0.00025*%
%ADD551R,0.03525X0.00025*%
%ADD552R,0.03475X0.00025*%
%ADD553R,0.03400X0.00025*%
%ADD554R,0.03375X0.00025*%
%ADD555R,0.03350X0.00025*%
%ADD556R,0.03300X0.00025*%
%ADD557R,0.03175X0.00025*%
%ADD558R,0.02825X0.00025*%
%ADD559R,0.02800X0.00025*%
%ADD560R,0.02525X0.00025*%
%ADD561R,0.02525X0.00025*%
%ADD562R,0.02475X0.00025*%
%ADD563R,0.02325X0.00025*%
%ADD564R,0.02125X0.00025*%
%ADD565R,0.01125X0.00025*%
%ADD566R,0.00875X0.00025*%
%ADD567R,0.00675X0.00025*%
%ADD568R,0.00600X0.00025*%
%ADD569R,0.00525X0.00025*%
%ADD570C,0.01600*%
%ADD571R,0.03500X0.00750*%
%ADD572C,0.00787*%
%ADD573C,0.01969*%
%ADD574C,0.01000*%
D10*
X0031728Y0107122D02*
X0185477Y0107122D01*
X0190201Y0102398D01*
X0233925Y0102398D01*
X0238649Y0107122D01*
X0271728Y0107122D01*
X0266807Y0117122D02*
X0266809Y0117262D01*
X0266815Y0117402D01*
X0266825Y0117541D01*
X0266839Y0117680D01*
X0266857Y0117819D01*
X0266878Y0117957D01*
X0266904Y0118095D01*
X0266934Y0118232D01*
X0266967Y0118367D01*
X0267005Y0118502D01*
X0267046Y0118636D01*
X0267091Y0118769D01*
X0267139Y0118900D01*
X0267192Y0119029D01*
X0267248Y0119158D01*
X0267307Y0119284D01*
X0267371Y0119409D01*
X0267437Y0119532D01*
X0267508Y0119653D01*
X0267581Y0119772D01*
X0267658Y0119889D01*
X0267739Y0120003D01*
X0267822Y0120115D01*
X0267909Y0120225D01*
X0267999Y0120333D01*
X0268091Y0120437D01*
X0268187Y0120539D01*
X0268286Y0120639D01*
X0268387Y0120735D01*
X0268491Y0120829D01*
X0268598Y0120919D01*
X0268707Y0121006D01*
X0268819Y0121091D01*
X0268933Y0121172D01*
X0269049Y0121250D01*
X0269167Y0121324D01*
X0269288Y0121395D01*
X0269410Y0121463D01*
X0269535Y0121527D01*
X0269661Y0121588D01*
X0269788Y0121645D01*
X0269918Y0121698D01*
X0270049Y0121748D01*
X0270181Y0121793D01*
X0270314Y0121836D01*
X0270449Y0121874D01*
X0270584Y0121908D01*
X0270721Y0121939D01*
X0270858Y0121966D01*
X0270996Y0121988D01*
X0271135Y0122007D01*
X0271274Y0122022D01*
X0271413Y0122033D01*
X0271553Y0122040D01*
X0271693Y0122043D01*
X0271833Y0122042D01*
X0271973Y0122037D01*
X0272112Y0122028D01*
X0272252Y0122015D01*
X0272391Y0121998D01*
X0272529Y0121977D01*
X0272667Y0121953D01*
X0272804Y0121924D01*
X0272940Y0121892D01*
X0273075Y0121855D01*
X0273209Y0121815D01*
X0273342Y0121771D01*
X0273473Y0121723D01*
X0273603Y0121672D01*
X0273732Y0121617D01*
X0273859Y0121558D01*
X0273984Y0121495D01*
X0274107Y0121430D01*
X0274229Y0121360D01*
X0274348Y0121287D01*
X0274466Y0121211D01*
X0274581Y0121132D01*
X0274694Y0121049D01*
X0274804Y0120963D01*
X0274912Y0120874D01*
X0275017Y0120782D01*
X0275120Y0120687D01*
X0275220Y0120589D01*
X0275317Y0120489D01*
X0275411Y0120385D01*
X0275503Y0120279D01*
X0275591Y0120171D01*
X0275676Y0120060D01*
X0275758Y0119946D01*
X0275837Y0119830D01*
X0275912Y0119713D01*
X0275984Y0119593D01*
X0276052Y0119471D01*
X0276117Y0119347D01*
X0276179Y0119221D01*
X0276237Y0119094D01*
X0276291Y0118965D01*
X0276342Y0118834D01*
X0276388Y0118702D01*
X0276431Y0118569D01*
X0276471Y0118435D01*
X0276506Y0118300D01*
X0276538Y0118163D01*
X0276565Y0118026D01*
X0276589Y0117888D01*
X0276609Y0117750D01*
X0276625Y0117611D01*
X0276637Y0117471D01*
X0276645Y0117332D01*
X0276649Y0117192D01*
X0276649Y0117052D01*
X0276645Y0116912D01*
X0276637Y0116773D01*
X0276625Y0116633D01*
X0276609Y0116494D01*
X0276589Y0116356D01*
X0276565Y0116218D01*
X0276538Y0116081D01*
X0276506Y0115944D01*
X0276471Y0115809D01*
X0276431Y0115675D01*
X0276388Y0115542D01*
X0276342Y0115410D01*
X0276291Y0115279D01*
X0276237Y0115150D01*
X0276179Y0115023D01*
X0276117Y0114897D01*
X0276052Y0114773D01*
X0275984Y0114651D01*
X0275912Y0114531D01*
X0275837Y0114414D01*
X0275758Y0114298D01*
X0275676Y0114184D01*
X0275591Y0114073D01*
X0275503Y0113965D01*
X0275411Y0113859D01*
X0275317Y0113755D01*
X0275220Y0113655D01*
X0275120Y0113557D01*
X0275017Y0113462D01*
X0274912Y0113370D01*
X0274804Y0113281D01*
X0274694Y0113195D01*
X0274581Y0113112D01*
X0274466Y0113033D01*
X0274348Y0112957D01*
X0274229Y0112884D01*
X0274107Y0112814D01*
X0273984Y0112749D01*
X0273859Y0112686D01*
X0273732Y0112627D01*
X0273603Y0112572D01*
X0273473Y0112521D01*
X0273342Y0112473D01*
X0273209Y0112429D01*
X0273075Y0112389D01*
X0272940Y0112352D01*
X0272804Y0112320D01*
X0272667Y0112291D01*
X0272529Y0112267D01*
X0272391Y0112246D01*
X0272252Y0112229D01*
X0272112Y0112216D01*
X0271973Y0112207D01*
X0271833Y0112202D01*
X0271693Y0112201D01*
X0271553Y0112204D01*
X0271413Y0112211D01*
X0271274Y0112222D01*
X0271135Y0112237D01*
X0270996Y0112256D01*
X0270858Y0112278D01*
X0270721Y0112305D01*
X0270584Y0112336D01*
X0270449Y0112370D01*
X0270314Y0112408D01*
X0270181Y0112451D01*
X0270049Y0112496D01*
X0269918Y0112546D01*
X0269788Y0112599D01*
X0269661Y0112656D01*
X0269535Y0112717D01*
X0269410Y0112781D01*
X0269288Y0112849D01*
X0269167Y0112920D01*
X0269049Y0112994D01*
X0268933Y0113072D01*
X0268819Y0113153D01*
X0268707Y0113238D01*
X0268598Y0113325D01*
X0268491Y0113415D01*
X0268387Y0113509D01*
X0268286Y0113605D01*
X0268187Y0113705D01*
X0268091Y0113807D01*
X0267999Y0113911D01*
X0267909Y0114019D01*
X0267822Y0114129D01*
X0267739Y0114241D01*
X0267658Y0114355D01*
X0267581Y0114472D01*
X0267508Y0114591D01*
X0267437Y0114712D01*
X0267371Y0114835D01*
X0267307Y0114960D01*
X0267248Y0115086D01*
X0267192Y0115215D01*
X0267139Y0115344D01*
X0267091Y0115475D01*
X0267046Y0115608D01*
X0267005Y0115742D01*
X0266967Y0115877D01*
X0266934Y0116012D01*
X0266904Y0116149D01*
X0266878Y0116287D01*
X0266857Y0116425D01*
X0266839Y0116564D01*
X0266825Y0116703D01*
X0266815Y0116842D01*
X0266809Y0116982D01*
X0266807Y0117122D01*
X0271728Y0107122D02*
X0271970Y0107125D01*
X0272211Y0107134D01*
X0272452Y0107148D01*
X0272693Y0107169D01*
X0272933Y0107195D01*
X0273173Y0107227D01*
X0273412Y0107265D01*
X0273649Y0107308D01*
X0273886Y0107358D01*
X0274121Y0107413D01*
X0274355Y0107473D01*
X0274587Y0107540D01*
X0274818Y0107611D01*
X0275047Y0107689D01*
X0275274Y0107772D01*
X0275499Y0107860D01*
X0275722Y0107954D01*
X0275942Y0108053D01*
X0276160Y0108158D01*
X0276375Y0108267D01*
X0276588Y0108382D01*
X0276798Y0108502D01*
X0277004Y0108627D01*
X0277208Y0108757D01*
X0277409Y0108892D01*
X0277606Y0109032D01*
X0277800Y0109176D01*
X0277990Y0109325D01*
X0278176Y0109479D01*
X0278359Y0109637D01*
X0278538Y0109799D01*
X0278713Y0109966D01*
X0278884Y0110137D01*
X0279051Y0110312D01*
X0279213Y0110491D01*
X0279371Y0110674D01*
X0279525Y0110860D01*
X0279674Y0111050D01*
X0279818Y0111244D01*
X0279958Y0111441D01*
X0280093Y0111642D01*
X0280223Y0111846D01*
X0280348Y0112052D01*
X0280468Y0112262D01*
X0280583Y0112475D01*
X0280692Y0112690D01*
X0280797Y0112908D01*
X0280896Y0113128D01*
X0280990Y0113351D01*
X0281078Y0113576D01*
X0281161Y0113803D01*
X0281239Y0114032D01*
X0281310Y0114263D01*
X0281377Y0114495D01*
X0281437Y0114729D01*
X0281492Y0114964D01*
X0281542Y0115201D01*
X0281585Y0115438D01*
X0281623Y0115677D01*
X0281655Y0115917D01*
X0281681Y0116157D01*
X0281702Y0116398D01*
X0281716Y0116639D01*
X0281725Y0116880D01*
X0281728Y0117122D01*
X0281728Y0140587D01*
X0286453Y0145311D01*
X0286453Y0179957D01*
X0281728Y0184681D01*
X0281728Y0187122D01*
X0266807Y0187122D02*
X0266809Y0187262D01*
X0266815Y0187402D01*
X0266825Y0187541D01*
X0266839Y0187680D01*
X0266857Y0187819D01*
X0266878Y0187957D01*
X0266904Y0188095D01*
X0266934Y0188232D01*
X0266967Y0188367D01*
X0267005Y0188502D01*
X0267046Y0188636D01*
X0267091Y0188769D01*
X0267139Y0188900D01*
X0267192Y0189029D01*
X0267248Y0189158D01*
X0267307Y0189284D01*
X0267371Y0189409D01*
X0267437Y0189532D01*
X0267508Y0189653D01*
X0267581Y0189772D01*
X0267658Y0189889D01*
X0267739Y0190003D01*
X0267822Y0190115D01*
X0267909Y0190225D01*
X0267999Y0190333D01*
X0268091Y0190437D01*
X0268187Y0190539D01*
X0268286Y0190639D01*
X0268387Y0190735D01*
X0268491Y0190829D01*
X0268598Y0190919D01*
X0268707Y0191006D01*
X0268819Y0191091D01*
X0268933Y0191172D01*
X0269049Y0191250D01*
X0269167Y0191324D01*
X0269288Y0191395D01*
X0269410Y0191463D01*
X0269535Y0191527D01*
X0269661Y0191588D01*
X0269788Y0191645D01*
X0269918Y0191698D01*
X0270049Y0191748D01*
X0270181Y0191793D01*
X0270314Y0191836D01*
X0270449Y0191874D01*
X0270584Y0191908D01*
X0270721Y0191939D01*
X0270858Y0191966D01*
X0270996Y0191988D01*
X0271135Y0192007D01*
X0271274Y0192022D01*
X0271413Y0192033D01*
X0271553Y0192040D01*
X0271693Y0192043D01*
X0271833Y0192042D01*
X0271973Y0192037D01*
X0272112Y0192028D01*
X0272252Y0192015D01*
X0272391Y0191998D01*
X0272529Y0191977D01*
X0272667Y0191953D01*
X0272804Y0191924D01*
X0272940Y0191892D01*
X0273075Y0191855D01*
X0273209Y0191815D01*
X0273342Y0191771D01*
X0273473Y0191723D01*
X0273603Y0191672D01*
X0273732Y0191617D01*
X0273859Y0191558D01*
X0273984Y0191495D01*
X0274107Y0191430D01*
X0274229Y0191360D01*
X0274348Y0191287D01*
X0274466Y0191211D01*
X0274581Y0191132D01*
X0274694Y0191049D01*
X0274804Y0190963D01*
X0274912Y0190874D01*
X0275017Y0190782D01*
X0275120Y0190687D01*
X0275220Y0190589D01*
X0275317Y0190489D01*
X0275411Y0190385D01*
X0275503Y0190279D01*
X0275591Y0190171D01*
X0275676Y0190060D01*
X0275758Y0189946D01*
X0275837Y0189830D01*
X0275912Y0189713D01*
X0275984Y0189593D01*
X0276052Y0189471D01*
X0276117Y0189347D01*
X0276179Y0189221D01*
X0276237Y0189094D01*
X0276291Y0188965D01*
X0276342Y0188834D01*
X0276388Y0188702D01*
X0276431Y0188569D01*
X0276471Y0188435D01*
X0276506Y0188300D01*
X0276538Y0188163D01*
X0276565Y0188026D01*
X0276589Y0187888D01*
X0276609Y0187750D01*
X0276625Y0187611D01*
X0276637Y0187471D01*
X0276645Y0187332D01*
X0276649Y0187192D01*
X0276649Y0187052D01*
X0276645Y0186912D01*
X0276637Y0186773D01*
X0276625Y0186633D01*
X0276609Y0186494D01*
X0276589Y0186356D01*
X0276565Y0186218D01*
X0276538Y0186081D01*
X0276506Y0185944D01*
X0276471Y0185809D01*
X0276431Y0185675D01*
X0276388Y0185542D01*
X0276342Y0185410D01*
X0276291Y0185279D01*
X0276237Y0185150D01*
X0276179Y0185023D01*
X0276117Y0184897D01*
X0276052Y0184773D01*
X0275984Y0184651D01*
X0275912Y0184531D01*
X0275837Y0184414D01*
X0275758Y0184298D01*
X0275676Y0184184D01*
X0275591Y0184073D01*
X0275503Y0183965D01*
X0275411Y0183859D01*
X0275317Y0183755D01*
X0275220Y0183655D01*
X0275120Y0183557D01*
X0275017Y0183462D01*
X0274912Y0183370D01*
X0274804Y0183281D01*
X0274694Y0183195D01*
X0274581Y0183112D01*
X0274466Y0183033D01*
X0274348Y0182957D01*
X0274229Y0182884D01*
X0274107Y0182814D01*
X0273984Y0182749D01*
X0273859Y0182686D01*
X0273732Y0182627D01*
X0273603Y0182572D01*
X0273473Y0182521D01*
X0273342Y0182473D01*
X0273209Y0182429D01*
X0273075Y0182389D01*
X0272940Y0182352D01*
X0272804Y0182320D01*
X0272667Y0182291D01*
X0272529Y0182267D01*
X0272391Y0182246D01*
X0272252Y0182229D01*
X0272112Y0182216D01*
X0271973Y0182207D01*
X0271833Y0182202D01*
X0271693Y0182201D01*
X0271553Y0182204D01*
X0271413Y0182211D01*
X0271274Y0182222D01*
X0271135Y0182237D01*
X0270996Y0182256D01*
X0270858Y0182278D01*
X0270721Y0182305D01*
X0270584Y0182336D01*
X0270449Y0182370D01*
X0270314Y0182408D01*
X0270181Y0182451D01*
X0270049Y0182496D01*
X0269918Y0182546D01*
X0269788Y0182599D01*
X0269661Y0182656D01*
X0269535Y0182717D01*
X0269410Y0182781D01*
X0269288Y0182849D01*
X0269167Y0182920D01*
X0269049Y0182994D01*
X0268933Y0183072D01*
X0268819Y0183153D01*
X0268707Y0183238D01*
X0268598Y0183325D01*
X0268491Y0183415D01*
X0268387Y0183509D01*
X0268286Y0183605D01*
X0268187Y0183705D01*
X0268091Y0183807D01*
X0267999Y0183911D01*
X0267909Y0184019D01*
X0267822Y0184129D01*
X0267739Y0184241D01*
X0267658Y0184355D01*
X0267581Y0184472D01*
X0267508Y0184591D01*
X0267437Y0184712D01*
X0267371Y0184835D01*
X0267307Y0184960D01*
X0267248Y0185086D01*
X0267192Y0185215D01*
X0267139Y0185344D01*
X0267091Y0185475D01*
X0267046Y0185608D01*
X0267005Y0185742D01*
X0266967Y0185877D01*
X0266934Y0186012D01*
X0266904Y0186149D01*
X0266878Y0186287D01*
X0266857Y0186425D01*
X0266839Y0186564D01*
X0266825Y0186703D01*
X0266815Y0186842D01*
X0266809Y0186982D01*
X0266807Y0187122D01*
X0271728Y0197122D02*
X0271970Y0197119D01*
X0272211Y0197110D01*
X0272452Y0197096D01*
X0272693Y0197075D01*
X0272933Y0197049D01*
X0273173Y0197017D01*
X0273412Y0196979D01*
X0273649Y0196936D01*
X0273886Y0196886D01*
X0274121Y0196831D01*
X0274355Y0196771D01*
X0274587Y0196704D01*
X0274818Y0196633D01*
X0275047Y0196555D01*
X0275274Y0196472D01*
X0275499Y0196384D01*
X0275722Y0196290D01*
X0275942Y0196191D01*
X0276160Y0196086D01*
X0276375Y0195977D01*
X0276588Y0195862D01*
X0276798Y0195742D01*
X0277004Y0195617D01*
X0277208Y0195487D01*
X0277409Y0195352D01*
X0277606Y0195212D01*
X0277800Y0195068D01*
X0277990Y0194919D01*
X0278176Y0194765D01*
X0278359Y0194607D01*
X0278538Y0194445D01*
X0278713Y0194278D01*
X0278884Y0194107D01*
X0279051Y0193932D01*
X0279213Y0193753D01*
X0279371Y0193570D01*
X0279525Y0193384D01*
X0279674Y0193194D01*
X0279818Y0193000D01*
X0279958Y0192803D01*
X0280093Y0192602D01*
X0280223Y0192398D01*
X0280348Y0192192D01*
X0280468Y0191982D01*
X0280583Y0191769D01*
X0280692Y0191554D01*
X0280797Y0191336D01*
X0280896Y0191116D01*
X0280990Y0190893D01*
X0281078Y0190668D01*
X0281161Y0190441D01*
X0281239Y0190212D01*
X0281310Y0189981D01*
X0281377Y0189749D01*
X0281437Y0189515D01*
X0281492Y0189280D01*
X0281542Y0189043D01*
X0281585Y0188806D01*
X0281623Y0188567D01*
X0281655Y0188327D01*
X0281681Y0188087D01*
X0281702Y0187846D01*
X0281716Y0187605D01*
X0281725Y0187364D01*
X0281728Y0187122D01*
X0271728Y0197122D02*
X0031728Y0197122D01*
X0031486Y0197119D01*
X0031245Y0197110D01*
X0031004Y0197096D01*
X0030763Y0197075D01*
X0030523Y0197049D01*
X0030283Y0197017D01*
X0030044Y0196979D01*
X0029807Y0196936D01*
X0029570Y0196886D01*
X0029335Y0196831D01*
X0029101Y0196771D01*
X0028869Y0196704D01*
X0028638Y0196633D01*
X0028409Y0196555D01*
X0028182Y0196472D01*
X0027957Y0196384D01*
X0027734Y0196290D01*
X0027514Y0196191D01*
X0027296Y0196086D01*
X0027081Y0195977D01*
X0026868Y0195862D01*
X0026658Y0195742D01*
X0026452Y0195617D01*
X0026248Y0195487D01*
X0026047Y0195352D01*
X0025850Y0195212D01*
X0025656Y0195068D01*
X0025466Y0194919D01*
X0025280Y0194765D01*
X0025097Y0194607D01*
X0024918Y0194445D01*
X0024743Y0194278D01*
X0024572Y0194107D01*
X0024405Y0193932D01*
X0024243Y0193753D01*
X0024085Y0193570D01*
X0023931Y0193384D01*
X0023782Y0193194D01*
X0023638Y0193000D01*
X0023498Y0192803D01*
X0023363Y0192602D01*
X0023233Y0192398D01*
X0023108Y0192192D01*
X0022988Y0191982D01*
X0022873Y0191769D01*
X0022764Y0191554D01*
X0022659Y0191336D01*
X0022560Y0191116D01*
X0022466Y0190893D01*
X0022378Y0190668D01*
X0022295Y0190441D01*
X0022217Y0190212D01*
X0022146Y0189981D01*
X0022079Y0189749D01*
X0022019Y0189515D01*
X0021964Y0189280D01*
X0021914Y0189043D01*
X0021871Y0188806D01*
X0021833Y0188567D01*
X0021801Y0188327D01*
X0021775Y0188087D01*
X0021754Y0187846D01*
X0021740Y0187605D01*
X0021731Y0187364D01*
X0021728Y0187122D01*
X0021728Y0162622D01*
X0023728Y0160622D01*
X0023728Y0144122D01*
X0021728Y0142122D01*
X0021728Y0117122D01*
X0021731Y0116880D01*
X0021740Y0116639D01*
X0021754Y0116398D01*
X0021775Y0116157D01*
X0021801Y0115917D01*
X0021833Y0115677D01*
X0021871Y0115438D01*
X0021914Y0115201D01*
X0021964Y0114964D01*
X0022019Y0114729D01*
X0022079Y0114495D01*
X0022146Y0114263D01*
X0022217Y0114032D01*
X0022295Y0113803D01*
X0022378Y0113576D01*
X0022466Y0113351D01*
X0022560Y0113128D01*
X0022659Y0112908D01*
X0022764Y0112690D01*
X0022873Y0112475D01*
X0022988Y0112262D01*
X0023108Y0112052D01*
X0023233Y0111846D01*
X0023363Y0111642D01*
X0023498Y0111441D01*
X0023638Y0111244D01*
X0023782Y0111050D01*
X0023931Y0110860D01*
X0024085Y0110674D01*
X0024243Y0110491D01*
X0024405Y0110312D01*
X0024572Y0110137D01*
X0024743Y0109966D01*
X0024918Y0109799D01*
X0025097Y0109637D01*
X0025280Y0109479D01*
X0025466Y0109325D01*
X0025656Y0109176D01*
X0025850Y0109032D01*
X0026047Y0108892D01*
X0026248Y0108757D01*
X0026452Y0108627D01*
X0026658Y0108502D01*
X0026868Y0108382D01*
X0027081Y0108267D01*
X0027296Y0108158D01*
X0027514Y0108053D01*
X0027734Y0107954D01*
X0027957Y0107860D01*
X0028182Y0107772D01*
X0028409Y0107689D01*
X0028638Y0107611D01*
X0028869Y0107540D01*
X0029101Y0107473D01*
X0029335Y0107413D01*
X0029570Y0107358D01*
X0029807Y0107308D01*
X0030044Y0107265D01*
X0030283Y0107227D01*
X0030523Y0107195D01*
X0030763Y0107169D01*
X0031004Y0107148D01*
X0031245Y0107134D01*
X0031486Y0107125D01*
X0031728Y0107122D01*
X0030606Y0138396D02*
X0027850Y0138396D01*
X0027788Y0138398D01*
X0027727Y0138404D01*
X0027666Y0138413D01*
X0027605Y0138427D01*
X0027546Y0138444D01*
X0027488Y0138465D01*
X0027431Y0138490D01*
X0027376Y0138518D01*
X0027323Y0138549D01*
X0027272Y0138584D01*
X0027223Y0138622D01*
X0027176Y0138663D01*
X0027133Y0138706D01*
X0027092Y0138753D01*
X0027054Y0138802D01*
X0027019Y0138853D01*
X0026988Y0138906D01*
X0026960Y0138961D01*
X0026935Y0139018D01*
X0026914Y0139076D01*
X0026897Y0139135D01*
X0026883Y0139196D01*
X0026874Y0139257D01*
X0026868Y0139318D01*
X0026866Y0139380D01*
X0026868Y0139442D01*
X0026874Y0139503D01*
X0026883Y0139564D01*
X0026897Y0139625D01*
X0026914Y0139684D01*
X0026935Y0139742D01*
X0026960Y0139799D01*
X0026988Y0139854D01*
X0027019Y0139907D01*
X0027054Y0139958D01*
X0027092Y0140007D01*
X0027133Y0140054D01*
X0027176Y0140097D01*
X0027223Y0140138D01*
X0027272Y0140176D01*
X0027323Y0140211D01*
X0027376Y0140242D01*
X0027431Y0140270D01*
X0027488Y0140295D01*
X0027546Y0140316D01*
X0027605Y0140333D01*
X0027666Y0140347D01*
X0027727Y0140356D01*
X0027788Y0140362D01*
X0027850Y0140364D01*
X0030606Y0140364D01*
X0030668Y0140362D01*
X0030729Y0140356D01*
X0030790Y0140347D01*
X0030851Y0140333D01*
X0030910Y0140316D01*
X0030968Y0140295D01*
X0031025Y0140270D01*
X0031080Y0140242D01*
X0031133Y0140211D01*
X0031184Y0140176D01*
X0031233Y0140138D01*
X0031280Y0140097D01*
X0031323Y0140054D01*
X0031364Y0140007D01*
X0031402Y0139958D01*
X0031437Y0139907D01*
X0031468Y0139854D01*
X0031496Y0139799D01*
X0031521Y0139742D01*
X0031542Y0139684D01*
X0031559Y0139625D01*
X0031573Y0139564D01*
X0031582Y0139503D01*
X0031588Y0139442D01*
X0031590Y0139380D01*
X0031588Y0139318D01*
X0031582Y0139257D01*
X0031573Y0139196D01*
X0031559Y0139135D01*
X0031542Y0139076D01*
X0031521Y0139018D01*
X0031496Y0138961D01*
X0031468Y0138906D01*
X0031437Y0138853D01*
X0031402Y0138802D01*
X0031364Y0138753D01*
X0031323Y0138706D01*
X0031280Y0138663D01*
X0031233Y0138622D01*
X0031184Y0138584D01*
X0031133Y0138549D01*
X0031080Y0138518D01*
X0031025Y0138490D01*
X0030968Y0138465D01*
X0030910Y0138444D01*
X0030851Y0138427D01*
X0030790Y0138413D01*
X0030729Y0138404D01*
X0030668Y0138398D01*
X0030606Y0138396D01*
X0030606Y0164380D02*
X0027850Y0164380D01*
X0027788Y0164382D01*
X0027727Y0164388D01*
X0027666Y0164397D01*
X0027605Y0164411D01*
X0027546Y0164428D01*
X0027488Y0164449D01*
X0027431Y0164474D01*
X0027376Y0164502D01*
X0027323Y0164533D01*
X0027272Y0164568D01*
X0027223Y0164606D01*
X0027176Y0164647D01*
X0027133Y0164690D01*
X0027092Y0164737D01*
X0027054Y0164786D01*
X0027019Y0164837D01*
X0026988Y0164890D01*
X0026960Y0164945D01*
X0026935Y0165002D01*
X0026914Y0165060D01*
X0026897Y0165119D01*
X0026883Y0165180D01*
X0026874Y0165241D01*
X0026868Y0165302D01*
X0026866Y0165364D01*
X0026868Y0165426D01*
X0026874Y0165487D01*
X0026883Y0165548D01*
X0026897Y0165609D01*
X0026914Y0165668D01*
X0026935Y0165726D01*
X0026960Y0165783D01*
X0026988Y0165838D01*
X0027019Y0165891D01*
X0027054Y0165942D01*
X0027092Y0165991D01*
X0027133Y0166038D01*
X0027176Y0166081D01*
X0027223Y0166122D01*
X0027272Y0166160D01*
X0027323Y0166195D01*
X0027376Y0166226D01*
X0027431Y0166254D01*
X0027488Y0166279D01*
X0027546Y0166300D01*
X0027605Y0166317D01*
X0027666Y0166331D01*
X0027727Y0166340D01*
X0027788Y0166346D01*
X0027850Y0166348D01*
X0030606Y0166348D01*
X0030668Y0166346D01*
X0030729Y0166340D01*
X0030790Y0166331D01*
X0030851Y0166317D01*
X0030910Y0166300D01*
X0030968Y0166279D01*
X0031025Y0166254D01*
X0031080Y0166226D01*
X0031133Y0166195D01*
X0031184Y0166160D01*
X0031233Y0166122D01*
X0031280Y0166081D01*
X0031323Y0166038D01*
X0031364Y0165991D01*
X0031402Y0165942D01*
X0031437Y0165891D01*
X0031468Y0165838D01*
X0031496Y0165783D01*
X0031521Y0165726D01*
X0031542Y0165668D01*
X0031559Y0165609D01*
X0031573Y0165548D01*
X0031582Y0165487D01*
X0031588Y0165426D01*
X0031590Y0165364D01*
X0031588Y0165302D01*
X0031582Y0165241D01*
X0031573Y0165180D01*
X0031559Y0165119D01*
X0031542Y0165060D01*
X0031521Y0165002D01*
X0031496Y0164945D01*
X0031468Y0164890D01*
X0031437Y0164837D01*
X0031402Y0164786D01*
X0031364Y0164737D01*
X0031323Y0164690D01*
X0031280Y0164647D01*
X0031233Y0164606D01*
X0031184Y0164568D01*
X0031133Y0164533D01*
X0031080Y0164502D01*
X0031025Y0164474D01*
X0030968Y0164449D01*
X0030910Y0164428D01*
X0030851Y0164411D01*
X0030790Y0164397D01*
X0030729Y0164388D01*
X0030668Y0164382D01*
X0030606Y0164380D01*
X0200476Y0159961D02*
X0200478Y0160045D01*
X0200484Y0160128D01*
X0200494Y0160211D01*
X0200508Y0160294D01*
X0200525Y0160376D01*
X0200547Y0160457D01*
X0200572Y0160536D01*
X0200601Y0160615D01*
X0200634Y0160692D01*
X0200670Y0160767D01*
X0200710Y0160841D01*
X0200753Y0160913D01*
X0200800Y0160982D01*
X0200850Y0161049D01*
X0200903Y0161114D01*
X0200959Y0161176D01*
X0201017Y0161236D01*
X0201079Y0161293D01*
X0201143Y0161346D01*
X0201210Y0161397D01*
X0201279Y0161444D01*
X0201350Y0161489D01*
X0201423Y0161529D01*
X0201498Y0161566D01*
X0201575Y0161600D01*
X0201653Y0161630D01*
X0201732Y0161656D01*
X0201813Y0161679D01*
X0201895Y0161697D01*
X0201977Y0161712D01*
X0202060Y0161723D01*
X0202143Y0161730D01*
X0202227Y0161733D01*
X0202311Y0161732D01*
X0202394Y0161727D01*
X0202478Y0161718D01*
X0202560Y0161705D01*
X0202642Y0161689D01*
X0202723Y0161668D01*
X0202804Y0161644D01*
X0202882Y0161616D01*
X0202960Y0161584D01*
X0203036Y0161548D01*
X0203110Y0161509D01*
X0203182Y0161467D01*
X0203252Y0161421D01*
X0203320Y0161372D01*
X0203385Y0161320D01*
X0203448Y0161265D01*
X0203508Y0161207D01*
X0203566Y0161146D01*
X0203620Y0161082D01*
X0203672Y0161016D01*
X0203720Y0160948D01*
X0203765Y0160877D01*
X0203806Y0160804D01*
X0203845Y0160730D01*
X0203879Y0160654D01*
X0203910Y0160576D01*
X0203937Y0160497D01*
X0203961Y0160416D01*
X0203980Y0160335D01*
X0203996Y0160253D01*
X0204008Y0160170D01*
X0204016Y0160086D01*
X0204020Y0160003D01*
X0204020Y0159919D01*
X0204016Y0159836D01*
X0204008Y0159752D01*
X0203996Y0159669D01*
X0203980Y0159587D01*
X0203961Y0159506D01*
X0203937Y0159425D01*
X0203910Y0159346D01*
X0203879Y0159268D01*
X0203845Y0159192D01*
X0203806Y0159118D01*
X0203765Y0159045D01*
X0203720Y0158974D01*
X0203672Y0158906D01*
X0203620Y0158840D01*
X0203566Y0158776D01*
X0203508Y0158715D01*
X0203448Y0158657D01*
X0203385Y0158602D01*
X0203320Y0158550D01*
X0203252Y0158501D01*
X0203182Y0158455D01*
X0203110Y0158413D01*
X0203036Y0158374D01*
X0202960Y0158338D01*
X0202882Y0158306D01*
X0202804Y0158278D01*
X0202723Y0158254D01*
X0202642Y0158233D01*
X0202560Y0158217D01*
X0202478Y0158204D01*
X0202394Y0158195D01*
X0202311Y0158190D01*
X0202227Y0158189D01*
X0202143Y0158192D01*
X0202060Y0158199D01*
X0201977Y0158210D01*
X0201895Y0158225D01*
X0201813Y0158243D01*
X0201732Y0158266D01*
X0201653Y0158292D01*
X0201575Y0158322D01*
X0201498Y0158356D01*
X0201423Y0158393D01*
X0201350Y0158433D01*
X0201279Y0158478D01*
X0201210Y0158525D01*
X0201143Y0158576D01*
X0201079Y0158629D01*
X0201017Y0158686D01*
X0200959Y0158746D01*
X0200903Y0158808D01*
X0200850Y0158873D01*
X0200800Y0158940D01*
X0200753Y0159009D01*
X0200710Y0159081D01*
X0200670Y0159155D01*
X0200634Y0159230D01*
X0200601Y0159307D01*
X0200572Y0159386D01*
X0200547Y0159465D01*
X0200525Y0159546D01*
X0200508Y0159628D01*
X0200494Y0159711D01*
X0200484Y0159794D01*
X0200478Y0159877D01*
X0200476Y0159961D01*
D11*
X0202445Y0148543D02*
X0220555Y0148543D01*
X0220555Y0188701D01*
X0202445Y0188701D01*
X0195752Y0188701D02*
X0183154Y0188701D01*
X0154413Y0188701D02*
X0148902Y0188701D01*
X0148902Y0187126D01*
X0141395Y0158049D02*
X0138475Y0158049D01*
X0138475Y0155714D02*
X0141395Y0155714D01*
X0141978Y0156297D01*
X0141978Y0157465D01*
X0141395Y0158049D01*
X0138475Y0154366D02*
X0138475Y0152030D01*
X0141978Y0152030D01*
X0141395Y0150683D02*
X0139059Y0150683D01*
X0138475Y0150099D01*
X0138475Y0148347D01*
X0141978Y0148347D01*
X0141978Y0150099D01*
X0141395Y0150683D01*
X0140227Y0152030D02*
X0140227Y0153198D01*
X0148902Y0150118D02*
X0148902Y0148543D01*
X0154413Y0148543D01*
X0154076Y0141556D02*
X0154076Y0138053D01*
X0156411Y0138053D01*
X0157759Y0138053D02*
X0160094Y0138053D01*
X0161442Y0138053D02*
X0163194Y0138053D01*
X0163777Y0138637D01*
X0163777Y0140972D01*
X0163194Y0141556D01*
X0161442Y0141556D01*
X0161442Y0138053D01*
X0158927Y0139805D02*
X0157759Y0139805D01*
X0157759Y0141556D02*
X0157759Y0138053D01*
X0155243Y0139805D02*
X0154076Y0139805D01*
X0152728Y0139805D02*
X0152144Y0139221D01*
X0150393Y0139221D01*
X0150393Y0138053D02*
X0150393Y0141556D01*
X0152144Y0141556D01*
X0152728Y0140972D01*
X0152728Y0139805D01*
X0154076Y0141556D02*
X0156411Y0141556D01*
X0157759Y0141556D02*
X0160094Y0141556D01*
X0168160Y0141556D02*
X0168160Y0139221D01*
X0169328Y0138053D01*
X0170495Y0139221D01*
X0170495Y0141556D01*
X0171843Y0140388D02*
X0173011Y0141556D01*
X0174179Y0140388D01*
X0174179Y0138053D01*
X0175526Y0138053D02*
X0175526Y0141556D01*
X0177278Y0141556D01*
X0177862Y0140972D01*
X0177862Y0139805D01*
X0177278Y0139221D01*
X0175526Y0139221D01*
X0176694Y0139221D02*
X0177862Y0138053D01*
X0179210Y0138053D02*
X0180377Y0138053D01*
X0179793Y0138053D02*
X0179793Y0141556D01*
X0179210Y0141556D02*
X0180377Y0141556D01*
X0181665Y0140972D02*
X0181665Y0138637D01*
X0182249Y0138053D01*
X0183416Y0138053D01*
X0184000Y0138637D01*
X0184000Y0140972D01*
X0183416Y0141556D01*
X0182249Y0141556D01*
X0181665Y0140972D01*
X0189031Y0140388D02*
X0189031Y0138053D01*
X0190199Y0138053D02*
X0190199Y0139805D01*
X0190783Y0140388D01*
X0191367Y0139805D01*
X0191367Y0138053D01*
X0192714Y0138053D02*
X0193882Y0138053D01*
X0193298Y0138053D02*
X0193298Y0140388D01*
X0192714Y0140388D01*
X0193298Y0141556D02*
X0193298Y0142140D01*
X0195170Y0140388D02*
X0196921Y0140388D01*
X0197505Y0139805D01*
X0197505Y0138053D01*
X0198853Y0138053D02*
X0200021Y0138053D01*
X0199437Y0138053D02*
X0199437Y0140388D01*
X0198853Y0140388D01*
X0199437Y0141556D02*
X0199437Y0142140D01*
X0195170Y0140388D02*
X0195170Y0138053D01*
X0190199Y0139805D02*
X0189615Y0140388D01*
X0189031Y0140388D01*
X0174179Y0139805D02*
X0171843Y0139805D01*
X0171843Y0140388D02*
X0171843Y0138053D01*
X0175637Y0125056D02*
X0177388Y0125056D01*
X0177972Y0124472D01*
X0177972Y0123305D01*
X0177388Y0122721D01*
X0175637Y0122721D01*
X0176804Y0122721D02*
X0177972Y0121553D01*
X0175637Y0121553D02*
X0175637Y0125056D01*
X0185637Y0125056D02*
X0185637Y0122721D01*
X0186804Y0121553D01*
X0187972Y0122721D01*
X0187972Y0125056D01*
X0192612Y0121624D02*
X0194947Y0121624D01*
X0196295Y0121040D02*
X0197463Y0119872D01*
X0198631Y0121040D01*
X0198631Y0123375D01*
X0199978Y0122791D02*
X0199978Y0120456D01*
X0200562Y0119872D01*
X0201730Y0119872D01*
X0202314Y0120456D01*
X0202314Y0122791D01*
X0201730Y0123375D01*
X0200562Y0123375D01*
X0199978Y0122791D01*
X0196295Y0123375D02*
X0196295Y0121040D01*
X0194228Y0114776D02*
X0208402Y0114776D01*
X0205997Y0119872D02*
X0203661Y0119872D01*
X0203661Y0123375D01*
X0214612Y0121624D02*
X0216947Y0121624D01*
X0218295Y0121040D02*
X0219463Y0119872D01*
X0220631Y0121040D01*
X0220631Y0123375D01*
X0221978Y0122791D02*
X0221978Y0120456D01*
X0222562Y0119872D01*
X0223730Y0119872D01*
X0224314Y0120456D01*
X0224314Y0122791D01*
X0223730Y0123375D01*
X0222562Y0123375D01*
X0221978Y0122791D01*
X0218295Y0123375D02*
X0218295Y0121040D01*
X0215780Y0120456D02*
X0215780Y0122791D01*
X0225661Y0123375D02*
X0225661Y0119872D01*
X0227997Y0119872D01*
X0229902Y0114776D02*
X0215728Y0114776D01*
X0215728Y0102177D02*
X0219469Y0102177D01*
X0226161Y0102177D01*
X0229902Y0102177D01*
X0226161Y0102177D02*
X0226161Y0100209D01*
X0219469Y0100209D01*
X0219469Y0102177D01*
X0208402Y0102177D02*
X0204661Y0102177D01*
X0197969Y0102177D01*
X0194228Y0102177D01*
X0197969Y0102177D02*
X0197969Y0100209D01*
X0204661Y0100209D01*
X0204661Y0102177D01*
X0240992Y0107000D02*
X0261465Y0107000D01*
X0261465Y0116055D01*
X0240992Y0116055D02*
X0240992Y0107000D01*
X0259379Y0152372D02*
X0260547Y0152372D01*
X0261131Y0152956D01*
X0261131Y0155291D01*
X0260547Y0155875D01*
X0259379Y0155875D01*
X0258795Y0155291D01*
X0258795Y0152956D01*
X0259379Y0152372D01*
X0262478Y0152372D02*
X0262478Y0155875D01*
X0264814Y0152372D01*
X0264814Y0155875D01*
X0265820Y0170372D02*
X0265820Y0173875D01*
X0268155Y0173875D01*
X0266988Y0172124D02*
X0265820Y0172124D01*
X0264472Y0173875D02*
X0262137Y0173875D01*
X0262137Y0170372D01*
X0260789Y0170956D02*
X0260789Y0173291D01*
X0260205Y0173875D01*
X0259037Y0173875D01*
X0258454Y0173291D01*
X0258454Y0170956D01*
X0259037Y0170372D01*
X0260205Y0170372D01*
X0260789Y0170956D01*
X0262137Y0172124D02*
X0263304Y0172124D01*
X0167972Y0124472D02*
X0167972Y0122137D01*
X0167388Y0121553D01*
X0165637Y0121553D01*
X0165637Y0125056D01*
X0167388Y0125056D01*
X0167972Y0124472D01*
X0157972Y0124472D02*
X0157388Y0125056D01*
X0156221Y0125056D01*
X0155637Y0124472D01*
X0155637Y0122137D01*
X0156221Y0121553D01*
X0157388Y0121553D01*
X0157972Y0122137D01*
X0149972Y0122137D02*
X0149972Y0123305D01*
X0148804Y0123305D01*
X0147637Y0124472D02*
X0147637Y0122137D01*
X0148221Y0121553D01*
X0149388Y0121553D01*
X0149972Y0122137D01*
X0149972Y0124472D02*
X0149388Y0125056D01*
X0148221Y0125056D01*
X0147637Y0124472D01*
X0133902Y0119114D02*
X0133902Y0116949D01*
X0131736Y0116949D01*
X0130205Y0112375D02*
X0129037Y0112375D01*
X0128454Y0111791D01*
X0128454Y0111207D01*
X0129037Y0110624D01*
X0130205Y0110624D01*
X0130789Y0110040D01*
X0130789Y0109456D01*
X0130205Y0108872D01*
X0129037Y0108872D01*
X0128454Y0109456D01*
X0130789Y0111791D02*
X0130205Y0112375D01*
X0132137Y0111207D02*
X0133304Y0112375D01*
X0134472Y0111207D01*
X0134472Y0108872D01*
X0135820Y0108872D02*
X0135820Y0112375D01*
X0136988Y0111207D01*
X0138155Y0112375D01*
X0138155Y0108872D01*
X0134472Y0110624D02*
X0132137Y0110624D01*
X0132137Y0111207D02*
X0132137Y0108872D01*
X0107720Y0116949D02*
X0105555Y0116949D01*
X0105555Y0119114D01*
X0099028Y0115133D02*
X0099028Y0111980D01*
X0099027Y0111980D02*
X0099025Y0111915D01*
X0099019Y0111851D01*
X0099010Y0111787D01*
X0098997Y0111723D01*
X0098980Y0111661D01*
X0098960Y0111599D01*
X0098936Y0111539D01*
X0098909Y0111480D01*
X0098878Y0111424D01*
X0098844Y0111368D01*
X0098807Y0111315D01*
X0098767Y0111265D01*
X0098724Y0111216D01*
X0098678Y0111170D01*
X0098629Y0111127D01*
X0098579Y0111087D01*
X0098526Y0111050D01*
X0098471Y0111016D01*
X0098414Y0110985D01*
X0098355Y0110958D01*
X0098295Y0110934D01*
X0098233Y0110914D01*
X0098171Y0110897D01*
X0098107Y0110884D01*
X0098043Y0110875D01*
X0097979Y0110869D01*
X0097914Y0110867D01*
X0097914Y0110866D02*
X0087543Y0110866D01*
X0087543Y0110867D02*
X0087478Y0110869D01*
X0087414Y0110875D01*
X0087350Y0110884D01*
X0087286Y0110897D01*
X0087224Y0110914D01*
X0087162Y0110934D01*
X0087102Y0110958D01*
X0087043Y0110985D01*
X0086987Y0111016D01*
X0086931Y0111050D01*
X0086878Y0111087D01*
X0086828Y0111127D01*
X0086779Y0111170D01*
X0086733Y0111216D01*
X0086690Y0111265D01*
X0086650Y0111315D01*
X0086613Y0111368D01*
X0086579Y0111424D01*
X0086548Y0111480D01*
X0086521Y0111539D01*
X0086497Y0111599D01*
X0086477Y0111661D01*
X0086460Y0111723D01*
X0086447Y0111787D01*
X0086438Y0111851D01*
X0086432Y0111915D01*
X0086430Y0111980D01*
X0086429Y0111980D02*
X0086429Y0115498D01*
X0086431Y0115556D01*
X0086437Y0115613D01*
X0086446Y0115670D01*
X0086459Y0115726D01*
X0086476Y0115781D01*
X0086496Y0115835D01*
X0086520Y0115887D01*
X0086547Y0115938D01*
X0086577Y0115987D01*
X0086611Y0116034D01*
X0086647Y0116078D01*
X0086687Y0116120D01*
X0086729Y0116160D01*
X0086773Y0116196D01*
X0086820Y0116230D01*
X0086869Y0116260D01*
X0086920Y0116287D01*
X0086972Y0116311D01*
X0087026Y0116331D01*
X0087081Y0116348D01*
X0087137Y0116361D01*
X0087194Y0116370D01*
X0087251Y0116376D01*
X0087309Y0116378D01*
X0097783Y0116378D01*
X0097853Y0116376D01*
X0097922Y0116370D01*
X0097992Y0116360D01*
X0098060Y0116347D01*
X0098128Y0116329D01*
X0098194Y0116308D01*
X0098259Y0116283D01*
X0098323Y0116255D01*
X0098385Y0116223D01*
X0098445Y0116187D01*
X0098503Y0116148D01*
X0098559Y0116106D01*
X0098613Y0116061D01*
X0098663Y0116013D01*
X0098711Y0115963D01*
X0098756Y0115909D01*
X0098798Y0115853D01*
X0098837Y0115795D01*
X0098873Y0115735D01*
X0098905Y0115673D01*
X0098933Y0115609D01*
X0098958Y0115544D01*
X0098979Y0115478D01*
X0098997Y0115410D01*
X0099010Y0115342D01*
X0099020Y0115272D01*
X0099026Y0115203D01*
X0099028Y0115133D01*
X0097846Y0114016D02*
X0097846Y0113228D01*
X0097844Y0113162D01*
X0097839Y0113096D01*
X0097829Y0113030D01*
X0097816Y0112965D01*
X0097800Y0112901D01*
X0097780Y0112838D01*
X0097756Y0112776D01*
X0097729Y0112716D01*
X0097699Y0112657D01*
X0097665Y0112600D01*
X0097628Y0112545D01*
X0097588Y0112492D01*
X0097546Y0112441D01*
X0097500Y0112393D01*
X0097452Y0112347D01*
X0097401Y0112305D01*
X0097348Y0112265D01*
X0097293Y0112228D01*
X0097236Y0112194D01*
X0097177Y0112164D01*
X0097117Y0112137D01*
X0097055Y0112113D01*
X0096992Y0112093D01*
X0096928Y0112077D01*
X0096863Y0112064D01*
X0096797Y0112054D01*
X0096731Y0112049D01*
X0096665Y0112047D01*
X0088791Y0112047D01*
X0088791Y0112046D02*
X0088729Y0112036D01*
X0088666Y0112030D01*
X0088603Y0112027D01*
X0088540Y0112028D01*
X0088477Y0112034D01*
X0088415Y0112043D01*
X0088353Y0112056D01*
X0088292Y0112073D01*
X0088233Y0112094D01*
X0088175Y0112119D01*
X0088118Y0112147D01*
X0088064Y0112179D01*
X0088011Y0112214D01*
X0087961Y0112252D01*
X0087913Y0112293D01*
X0087868Y0112337D01*
X0087826Y0112384D01*
X0087787Y0112434D01*
X0087751Y0112486D01*
X0087719Y0112540D01*
X0087689Y0112595D01*
X0087664Y0112653D01*
X0087642Y0112712D01*
X0087624Y0112773D01*
X0087609Y0112834D01*
X0087610Y0112835D02*
X0087610Y0114016D01*
X0087611Y0114016D02*
X0087600Y0114076D01*
X0087594Y0114136D01*
X0087591Y0114197D01*
X0087592Y0114257D01*
X0087596Y0114318D01*
X0087605Y0114378D01*
X0087616Y0114437D01*
X0087632Y0114496D01*
X0087651Y0114553D01*
X0087673Y0114610D01*
X0087698Y0114665D01*
X0087727Y0114718D01*
X0087759Y0114769D01*
X0087795Y0114819D01*
X0087833Y0114866D01*
X0087873Y0114911D01*
X0087917Y0114953D01*
X0087963Y0114993D01*
X0088011Y0115029D01*
X0088061Y0115063D01*
X0088114Y0115094D01*
X0088168Y0115121D01*
X0088223Y0115145D01*
X0088280Y0115166D01*
X0088339Y0115183D01*
X0088398Y0115197D01*
X0096665Y0115197D01*
X0096665Y0115196D02*
X0096734Y0115194D01*
X0096802Y0115188D01*
X0096870Y0115178D01*
X0096938Y0115164D01*
X0097004Y0115146D01*
X0097069Y0115125D01*
X0097133Y0115099D01*
X0097195Y0115070D01*
X0097256Y0115038D01*
X0097314Y0115002D01*
X0097370Y0114962D01*
X0097424Y0114920D01*
X0097475Y0114874D01*
X0097524Y0114825D01*
X0097570Y0114774D01*
X0097612Y0114720D01*
X0097652Y0114664D01*
X0097688Y0114606D01*
X0097720Y0114545D01*
X0097749Y0114483D01*
X0097775Y0114419D01*
X0097796Y0114354D01*
X0097814Y0114288D01*
X0097828Y0114220D01*
X0097838Y0114152D01*
X0097844Y0114084D01*
X0097846Y0114015D01*
X0067496Y0121110D02*
X0067496Y0132134D01*
X0050961Y0132134D01*
X0050961Y0121110D01*
X0067496Y0121110D01*
X0063559Y0125835D02*
X0063559Y0127409D01*
X0063557Y0127504D01*
X0063551Y0127599D01*
X0063542Y0127694D01*
X0063528Y0127788D01*
X0063511Y0127881D01*
X0063490Y0127974D01*
X0063466Y0128066D01*
X0063437Y0128157D01*
X0063406Y0128247D01*
X0063370Y0128335D01*
X0063331Y0128422D01*
X0063288Y0128507D01*
X0063243Y0128590D01*
X0063193Y0128671D01*
X0063141Y0128751D01*
X0063085Y0128828D01*
X0063027Y0128903D01*
X0062965Y0128975D01*
X0062900Y0129045D01*
X0062833Y0129112D01*
X0062763Y0129177D01*
X0062691Y0129239D01*
X0062616Y0129297D01*
X0062539Y0129353D01*
X0062459Y0129405D01*
X0062378Y0129455D01*
X0062295Y0129500D01*
X0062210Y0129543D01*
X0062123Y0129582D01*
X0062035Y0129618D01*
X0061945Y0129649D01*
X0061854Y0129678D01*
X0061762Y0129702D01*
X0061669Y0129723D01*
X0061576Y0129740D01*
X0061482Y0129754D01*
X0061387Y0129763D01*
X0061292Y0129769D01*
X0061197Y0129771D01*
X0061197Y0129772D02*
X0057260Y0129772D01*
X0057260Y0129771D02*
X0057165Y0129769D01*
X0057070Y0129763D01*
X0056975Y0129754D01*
X0056881Y0129740D01*
X0056788Y0129723D01*
X0056695Y0129702D01*
X0056603Y0129678D01*
X0056512Y0129649D01*
X0056422Y0129618D01*
X0056334Y0129582D01*
X0056247Y0129543D01*
X0056162Y0129500D01*
X0056079Y0129455D01*
X0055998Y0129405D01*
X0055918Y0129353D01*
X0055841Y0129297D01*
X0055766Y0129239D01*
X0055694Y0129177D01*
X0055624Y0129112D01*
X0055557Y0129045D01*
X0055492Y0128975D01*
X0055430Y0128903D01*
X0055372Y0128828D01*
X0055316Y0128751D01*
X0055264Y0128671D01*
X0055214Y0128590D01*
X0055169Y0128507D01*
X0055126Y0128422D01*
X0055087Y0128335D01*
X0055051Y0128247D01*
X0055020Y0128157D01*
X0054991Y0128066D01*
X0054967Y0127974D01*
X0054946Y0127881D01*
X0054929Y0127788D01*
X0054915Y0127694D01*
X0054906Y0127599D01*
X0054900Y0127504D01*
X0054898Y0127409D01*
X0054898Y0125835D01*
X0054900Y0125740D01*
X0054906Y0125645D01*
X0054915Y0125550D01*
X0054929Y0125456D01*
X0054946Y0125363D01*
X0054967Y0125270D01*
X0054991Y0125178D01*
X0055020Y0125087D01*
X0055051Y0124997D01*
X0055087Y0124909D01*
X0055126Y0124822D01*
X0055169Y0124737D01*
X0055214Y0124654D01*
X0055264Y0124573D01*
X0055316Y0124493D01*
X0055372Y0124416D01*
X0055430Y0124341D01*
X0055492Y0124269D01*
X0055557Y0124199D01*
X0055624Y0124132D01*
X0055694Y0124067D01*
X0055766Y0124005D01*
X0055841Y0123947D01*
X0055918Y0123891D01*
X0055998Y0123839D01*
X0056079Y0123789D01*
X0056162Y0123744D01*
X0056247Y0123701D01*
X0056334Y0123662D01*
X0056422Y0123626D01*
X0056512Y0123595D01*
X0056603Y0123566D01*
X0056695Y0123542D01*
X0056788Y0123521D01*
X0056881Y0123504D01*
X0056975Y0123490D01*
X0057070Y0123481D01*
X0057165Y0123475D01*
X0057260Y0123473D01*
X0057260Y0123472D02*
X0061197Y0123472D01*
X0061197Y0123473D02*
X0061292Y0123475D01*
X0061387Y0123481D01*
X0061482Y0123490D01*
X0061576Y0123504D01*
X0061669Y0123521D01*
X0061762Y0123542D01*
X0061854Y0123566D01*
X0061945Y0123595D01*
X0062035Y0123626D01*
X0062123Y0123662D01*
X0062210Y0123701D01*
X0062295Y0123744D01*
X0062378Y0123789D01*
X0062459Y0123839D01*
X0062539Y0123891D01*
X0062616Y0123947D01*
X0062691Y0124005D01*
X0062763Y0124067D01*
X0062833Y0124132D01*
X0062900Y0124199D01*
X0062965Y0124269D01*
X0063027Y0124341D01*
X0063085Y0124416D01*
X0063141Y0124493D01*
X0063193Y0124573D01*
X0063243Y0124654D01*
X0063288Y0124737D01*
X0063331Y0124822D01*
X0063370Y0124909D01*
X0063406Y0124997D01*
X0063437Y0125087D01*
X0063466Y0125178D01*
X0063490Y0125270D01*
X0063511Y0125363D01*
X0063528Y0125456D01*
X0063542Y0125550D01*
X0063551Y0125645D01*
X0063557Y0125740D01*
X0063559Y0125835D01*
X0023520Y0136033D02*
X0023520Y0168711D01*
X0041975Y0173931D02*
X0045478Y0173931D01*
X0045478Y0175099D02*
X0041975Y0175099D01*
X0043143Y0175099D02*
X0043143Y0173347D01*
X0044311Y0173347D02*
X0044311Y0175683D01*
X0043143Y0175683D02*
X0043143Y0175099D01*
X0043143Y0177030D02*
X0041975Y0178198D01*
X0045478Y0178198D01*
X0045478Y0177030D02*
X0045478Y0179366D01*
X0044895Y0180714D02*
X0045478Y0181297D01*
X0045478Y0182465D01*
X0044895Y0183049D01*
X0044311Y0183049D01*
X0043727Y0182465D01*
X0043727Y0181881D01*
X0043727Y0182465D02*
X0043143Y0183049D01*
X0042559Y0183049D01*
X0041975Y0182465D01*
X0041975Y0181297D01*
X0042559Y0180714D01*
X0105555Y0145295D02*
X0105555Y0143130D01*
X0105555Y0145295D02*
X0107720Y0145295D01*
X0131736Y0145295D02*
X0133902Y0145295D01*
X0133902Y0143130D01*
X0139343Y0140388D02*
X0140511Y0138053D01*
X0141679Y0140388D01*
X0143026Y0140388D02*
X0144194Y0141556D01*
X0145362Y0140388D01*
X0146710Y0140388D02*
X0147293Y0139805D01*
X0148461Y0139805D01*
X0149045Y0139221D01*
X0149045Y0138637D01*
X0148461Y0138053D01*
X0147293Y0138053D01*
X0146710Y0138637D01*
X0146710Y0140388D02*
X0146710Y0140972D01*
X0147293Y0141556D01*
X0148461Y0141556D01*
X0149045Y0140972D01*
D12*
X0138451Y0134029D02*
X0135849Y0134029D01*
X0137150Y0132727D01*
X0137150Y0134462D01*
X0138017Y0131516D02*
X0135849Y0131516D01*
X0135849Y0129781D02*
X0138017Y0129781D01*
X0138451Y0130215D01*
X0138451Y0131082D01*
X0138017Y0131516D01*
X0143728Y0120803D02*
X0143728Y0119803D01*
X0143728Y0120803D02*
X0144728Y0120803D01*
X0148728Y0120803D02*
X0149728Y0120803D01*
X0149728Y0119803D01*
X0149728Y0115803D02*
X0149728Y0114803D01*
X0148728Y0114803D01*
X0148728Y0113803D01*
X0148728Y0114803D02*
X0149728Y0114803D01*
X0153728Y0114803D02*
X0153728Y0115803D01*
X0153728Y0114803D02*
X0154728Y0114803D01*
X0153728Y0114803D01*
X0154728Y0114803D02*
X0154728Y0113803D01*
X0158728Y0113803D02*
X0158728Y0114803D01*
X0159728Y0114803D01*
X0159728Y0115803D01*
X0159728Y0114803D02*
X0158728Y0114803D01*
X0163728Y0114803D02*
X0163728Y0115803D01*
X0163728Y0114803D02*
X0164728Y0114803D01*
X0163728Y0114803D01*
X0164728Y0114803D02*
X0164728Y0113803D01*
X0164728Y0109803D02*
X0164728Y0108803D01*
X0163728Y0108803D01*
X0159728Y0108803D02*
X0158728Y0108803D01*
X0158728Y0109803D01*
X0154728Y0109803D02*
X0154728Y0108803D01*
X0153728Y0108803D01*
X0149728Y0108803D02*
X0148728Y0108803D01*
X0148728Y0109803D01*
X0144728Y0109803D02*
X0144728Y0108803D01*
X0143728Y0108803D01*
X0139728Y0108803D02*
X0138728Y0108803D01*
X0138728Y0109803D01*
X0138728Y0113803D02*
X0138728Y0114803D01*
X0139728Y0114803D01*
X0143728Y0114803D02*
X0143728Y0115803D01*
X0143728Y0114803D02*
X0144728Y0114803D01*
X0143728Y0114803D01*
X0144728Y0114803D02*
X0144728Y0113803D01*
X0153728Y0119803D02*
X0153728Y0120803D01*
X0154728Y0120803D01*
X0158728Y0120803D02*
X0159728Y0120803D01*
X0159728Y0119803D01*
X0163728Y0119803D02*
X0163728Y0120803D01*
X0164728Y0120803D01*
X0168728Y0120803D02*
X0169728Y0120803D01*
X0169728Y0119803D01*
X0169728Y0115803D02*
X0169728Y0114803D01*
X0168728Y0114803D01*
X0168728Y0113803D01*
X0168728Y0114803D02*
X0169728Y0114803D01*
X0173728Y0114803D02*
X0173728Y0115803D01*
X0173728Y0114803D02*
X0174728Y0114803D01*
X0173728Y0114803D01*
X0174728Y0114803D02*
X0174728Y0113803D01*
X0178728Y0113803D02*
X0178728Y0114803D01*
X0179728Y0114803D01*
X0179728Y0115803D01*
X0179728Y0114803D02*
X0178728Y0114803D01*
X0178728Y0109803D02*
X0178728Y0108803D01*
X0179728Y0108803D01*
X0183728Y0108803D02*
X0184728Y0108803D01*
X0184728Y0109803D01*
X0184728Y0113803D02*
X0184728Y0114803D01*
X0183728Y0114803D01*
X0183728Y0115803D01*
X0183728Y0114803D02*
X0184728Y0114803D01*
X0188728Y0114803D02*
X0189728Y0114803D01*
X0189728Y0115803D01*
X0189728Y0119803D02*
X0189728Y0120803D01*
X0188728Y0120803D01*
X0184728Y0120803D02*
X0183728Y0120803D01*
X0183728Y0119803D01*
X0179728Y0119803D02*
X0179728Y0120803D01*
X0178728Y0120803D01*
X0174728Y0120803D02*
X0173728Y0120803D01*
X0173728Y0119803D01*
X0174728Y0109803D02*
X0174728Y0108803D01*
X0173728Y0108803D01*
X0169728Y0108803D02*
X0168728Y0108803D01*
X0168728Y0109803D01*
X0197028Y0116356D02*
X0197462Y0115922D01*
X0198329Y0115922D01*
X0198763Y0116356D01*
X0198763Y0118524D01*
X0199975Y0118091D02*
X0200409Y0118524D01*
X0201276Y0118524D01*
X0201710Y0118091D01*
X0201710Y0117657D01*
X0199975Y0115922D01*
X0201710Y0115922D01*
X0202921Y0116356D02*
X0203355Y0115922D01*
X0204222Y0115922D01*
X0204656Y0116356D01*
X0204656Y0117223D01*
X0204222Y0117657D01*
X0203789Y0117657D01*
X0202921Y0117223D01*
X0202921Y0118524D01*
X0204656Y0118524D01*
X0197028Y0118524D02*
X0197028Y0116356D01*
X0197763Y0131422D02*
X0196896Y0132289D01*
X0197329Y0132289D02*
X0196028Y0132289D01*
X0196028Y0131422D02*
X0196028Y0134024D01*
X0197329Y0134024D01*
X0197763Y0133591D01*
X0197763Y0132723D01*
X0197329Y0132289D01*
X0198975Y0131422D02*
X0200710Y0131422D01*
X0199842Y0131422D02*
X0199842Y0134024D01*
X0198975Y0133157D01*
X0201921Y0133157D02*
X0202789Y0134024D01*
X0202789Y0131422D01*
X0203656Y0131422D02*
X0201921Y0131422D01*
X0213528Y0131922D02*
X0213528Y0134524D01*
X0214829Y0134524D01*
X0215263Y0134091D01*
X0215263Y0133223D01*
X0214829Y0132789D01*
X0213528Y0132789D01*
X0214396Y0132789D02*
X0215263Y0131922D01*
X0216475Y0132356D02*
X0216909Y0131922D01*
X0217776Y0131922D01*
X0218210Y0132356D01*
X0218210Y0133223D01*
X0217776Y0133657D01*
X0217342Y0133657D01*
X0216475Y0133223D01*
X0216475Y0134524D01*
X0218210Y0134524D01*
X0218263Y0143922D02*
X0217396Y0144789D01*
X0217829Y0144789D02*
X0216528Y0144789D01*
X0216528Y0143922D02*
X0216528Y0146524D01*
X0217829Y0146524D01*
X0218263Y0146091D01*
X0218263Y0145223D01*
X0217829Y0144789D01*
X0219475Y0143922D02*
X0221210Y0143922D01*
X0220342Y0143922D02*
X0220342Y0146524D01*
X0219475Y0145657D01*
X0222421Y0146091D02*
X0222421Y0144356D01*
X0224156Y0146091D01*
X0224156Y0144356D01*
X0223722Y0143922D01*
X0222855Y0143922D01*
X0222421Y0144356D01*
X0222421Y0146091D02*
X0222855Y0146524D01*
X0223722Y0146524D01*
X0224156Y0146091D01*
X0233635Y0145391D02*
X0233635Y0143656D01*
X0234069Y0143222D01*
X0234936Y0143222D01*
X0235370Y0143656D01*
X0235370Y0145391D01*
X0234936Y0145824D01*
X0234069Y0145824D01*
X0233635Y0145391D01*
X0234503Y0144089D02*
X0235370Y0143222D01*
X0236582Y0143222D02*
X0238317Y0143222D01*
X0237449Y0143222D02*
X0237449Y0145824D01*
X0236582Y0144957D01*
X0241135Y0149722D02*
X0241135Y0152324D01*
X0242436Y0152324D01*
X0242870Y0151891D01*
X0242870Y0151023D01*
X0242436Y0150589D01*
X0241135Y0150589D01*
X0242003Y0150589D02*
X0242870Y0149722D01*
X0244082Y0150156D02*
X0244516Y0149722D01*
X0245383Y0149722D01*
X0245817Y0150156D01*
X0245817Y0151891D01*
X0245383Y0152324D01*
X0244516Y0152324D01*
X0244082Y0151891D01*
X0244082Y0151457D01*
X0244516Y0151023D01*
X0245817Y0151023D01*
X0244928Y0165422D02*
X0244928Y0166289D01*
X0244928Y0165856D02*
X0242326Y0165856D01*
X0242326Y0166289D02*
X0242326Y0165422D01*
X0242760Y0167386D02*
X0244495Y0167386D01*
X0244928Y0167820D01*
X0244928Y0168688D01*
X0244495Y0169121D01*
X0244928Y0170333D02*
X0244928Y0172068D01*
X0244928Y0171200D02*
X0242326Y0171200D01*
X0243194Y0170333D01*
X0242760Y0169121D02*
X0242326Y0168688D01*
X0242326Y0167820D01*
X0242760Y0167386D01*
X0242728Y0172622D02*
X0242728Y0184622D01*
X0248728Y0187622D02*
X0251728Y0187622D01*
X0250228Y0189622D01*
X0248728Y0187622D01*
X0249084Y0188096D02*
X0251373Y0188096D01*
X0250924Y0188694D02*
X0249533Y0188694D01*
X0249981Y0189293D02*
X0250475Y0189293D01*
X0257228Y0187622D02*
X0260228Y0187622D01*
X0258728Y0189622D01*
X0257228Y0187622D01*
X0257584Y0188096D02*
X0259873Y0188096D01*
X0259424Y0188694D02*
X0258033Y0188694D01*
X0258481Y0189293D02*
X0258975Y0189293D01*
X0258194Y0181103D02*
X0257760Y0181103D01*
X0257326Y0180670D01*
X0257326Y0179802D01*
X0257760Y0179369D01*
X0257760Y0178157D02*
X0257326Y0177723D01*
X0257326Y0176422D01*
X0259928Y0176422D01*
X0259928Y0177723D01*
X0259495Y0178157D01*
X0257760Y0178157D01*
X0259928Y0179369D02*
X0258194Y0181103D01*
X0259928Y0181103D02*
X0259928Y0179369D01*
X0251428Y0179802D02*
X0250995Y0179369D01*
X0251428Y0179802D02*
X0251428Y0180670D01*
X0250995Y0181103D01*
X0250561Y0181103D01*
X0250127Y0180670D01*
X0250127Y0180236D01*
X0250127Y0180670D02*
X0249694Y0181103D01*
X0249260Y0181103D01*
X0248826Y0180670D01*
X0248826Y0179802D01*
X0249260Y0179369D01*
X0249260Y0178157D02*
X0248826Y0177723D01*
X0248826Y0176422D01*
X0251428Y0176422D01*
X0251428Y0177723D01*
X0250995Y0178157D01*
X0249260Y0178157D01*
X0266776Y0160359D02*
X0266776Y0159926D01*
X0267210Y0159492D01*
X0268077Y0159492D01*
X0268511Y0159058D01*
X0268511Y0158625D01*
X0268077Y0158191D01*
X0267210Y0158191D01*
X0266776Y0158625D01*
X0266776Y0160359D02*
X0267210Y0160793D01*
X0268077Y0160793D01*
X0268511Y0160359D01*
X0269723Y0160359D02*
X0270156Y0160793D01*
X0271024Y0160793D01*
X0271457Y0160359D01*
X0271457Y0159926D01*
X0269723Y0158191D01*
X0271457Y0158191D01*
X0273033Y0139120D02*
X0272600Y0138686D01*
X0272600Y0138252D01*
X0273033Y0137819D01*
X0273901Y0137819D01*
X0274334Y0137385D01*
X0274334Y0136951D01*
X0273901Y0136517D01*
X0273033Y0136517D01*
X0272600Y0136951D01*
X0271388Y0136517D02*
X0269653Y0136517D01*
X0269653Y0139120D01*
X0273033Y0139120D02*
X0273901Y0139120D01*
X0274334Y0138686D01*
X0275546Y0138252D02*
X0276413Y0139120D01*
X0276413Y0136517D01*
X0275546Y0136517D02*
X0277281Y0136517D01*
X0233511Y0130622D02*
X0233516Y0131057D01*
X0233532Y0131491D01*
X0233559Y0131925D01*
X0233596Y0132359D01*
X0233644Y0132791D01*
X0233703Y0133222D01*
X0233772Y0133651D01*
X0233851Y0134078D01*
X0233941Y0134504D01*
X0234042Y0134927D01*
X0234153Y0135347D01*
X0234274Y0135765D01*
X0234405Y0136179D01*
X0234547Y0136591D01*
X0234698Y0136998D01*
X0234860Y0137402D01*
X0235031Y0137802D01*
X0235212Y0138197D01*
X0235403Y0138588D01*
X0235603Y0138974D01*
X0235813Y0139355D01*
X0236032Y0139730D01*
X0236260Y0140101D01*
X0236497Y0140465D01*
X0236743Y0140824D01*
X0236998Y0141176D01*
X0237261Y0141522D01*
X0237533Y0141862D01*
X0237813Y0142194D01*
X0238101Y0142520D01*
X0238397Y0142839D01*
X0238700Y0143150D01*
X0239011Y0143453D01*
X0239330Y0143749D01*
X0239656Y0144037D01*
X0239988Y0144317D01*
X0240328Y0144589D01*
X0240674Y0144852D01*
X0241026Y0145107D01*
X0241385Y0145353D01*
X0241749Y0145590D01*
X0242120Y0145818D01*
X0242495Y0146037D01*
X0242876Y0146247D01*
X0243262Y0146447D01*
X0243653Y0146638D01*
X0244048Y0146819D01*
X0244448Y0146990D01*
X0244852Y0147152D01*
X0245259Y0147303D01*
X0245671Y0147445D01*
X0246085Y0147576D01*
X0246503Y0147697D01*
X0246923Y0147808D01*
X0247346Y0147909D01*
X0247772Y0147999D01*
X0248199Y0148078D01*
X0248628Y0148147D01*
X0249059Y0148206D01*
X0249491Y0148254D01*
X0249925Y0148291D01*
X0250359Y0148318D01*
X0250793Y0148334D01*
X0251228Y0148339D01*
X0251663Y0148334D01*
X0252097Y0148318D01*
X0252531Y0148291D01*
X0252965Y0148254D01*
X0253397Y0148206D01*
X0253828Y0148147D01*
X0254257Y0148078D01*
X0254684Y0147999D01*
X0255110Y0147909D01*
X0255533Y0147808D01*
X0255953Y0147697D01*
X0256371Y0147576D01*
X0256785Y0147445D01*
X0257197Y0147303D01*
X0257604Y0147152D01*
X0258008Y0146990D01*
X0258408Y0146819D01*
X0258803Y0146638D01*
X0259194Y0146447D01*
X0259580Y0146247D01*
X0259961Y0146037D01*
X0260336Y0145818D01*
X0260707Y0145590D01*
X0261071Y0145353D01*
X0261430Y0145107D01*
X0261782Y0144852D01*
X0262128Y0144589D01*
X0262468Y0144317D01*
X0262800Y0144037D01*
X0263126Y0143749D01*
X0263445Y0143453D01*
X0263756Y0143150D01*
X0264059Y0142839D01*
X0264355Y0142520D01*
X0264643Y0142194D01*
X0264923Y0141862D01*
X0265195Y0141522D01*
X0265458Y0141176D01*
X0265713Y0140824D01*
X0265959Y0140465D01*
X0266196Y0140101D01*
X0266424Y0139730D01*
X0266643Y0139355D01*
X0266853Y0138974D01*
X0267053Y0138588D01*
X0267244Y0138197D01*
X0267425Y0137802D01*
X0267596Y0137402D01*
X0267758Y0136998D01*
X0267909Y0136591D01*
X0268051Y0136179D01*
X0268182Y0135765D01*
X0268303Y0135347D01*
X0268414Y0134927D01*
X0268515Y0134504D01*
X0268605Y0134078D01*
X0268684Y0133651D01*
X0268753Y0133222D01*
X0268812Y0132791D01*
X0268860Y0132359D01*
X0268897Y0131925D01*
X0268924Y0131491D01*
X0268940Y0131057D01*
X0268945Y0130622D01*
X0268940Y0130187D01*
X0268924Y0129753D01*
X0268897Y0129319D01*
X0268860Y0128885D01*
X0268812Y0128453D01*
X0268753Y0128022D01*
X0268684Y0127593D01*
X0268605Y0127166D01*
X0268515Y0126740D01*
X0268414Y0126317D01*
X0268303Y0125897D01*
X0268182Y0125479D01*
X0268051Y0125065D01*
X0267909Y0124653D01*
X0267758Y0124246D01*
X0267596Y0123842D01*
X0267425Y0123442D01*
X0267244Y0123047D01*
X0267053Y0122656D01*
X0266853Y0122270D01*
X0266643Y0121889D01*
X0266424Y0121514D01*
X0266196Y0121143D01*
X0265959Y0120779D01*
X0265713Y0120420D01*
X0265458Y0120068D01*
X0265195Y0119722D01*
X0264923Y0119382D01*
X0264643Y0119050D01*
X0264355Y0118724D01*
X0264059Y0118405D01*
X0263756Y0118094D01*
X0263445Y0117791D01*
X0263126Y0117495D01*
X0262800Y0117207D01*
X0262468Y0116927D01*
X0262128Y0116655D01*
X0261782Y0116392D01*
X0261430Y0116137D01*
X0261071Y0115891D01*
X0260707Y0115654D01*
X0260336Y0115426D01*
X0259961Y0115207D01*
X0259580Y0114997D01*
X0259194Y0114797D01*
X0258803Y0114606D01*
X0258408Y0114425D01*
X0258008Y0114254D01*
X0257604Y0114092D01*
X0257197Y0113941D01*
X0256785Y0113799D01*
X0256371Y0113668D01*
X0255953Y0113547D01*
X0255533Y0113436D01*
X0255110Y0113335D01*
X0254684Y0113245D01*
X0254257Y0113166D01*
X0253828Y0113097D01*
X0253397Y0113038D01*
X0252965Y0112990D01*
X0252531Y0112953D01*
X0252097Y0112926D01*
X0251663Y0112910D01*
X0251228Y0112905D01*
X0250793Y0112910D01*
X0250359Y0112926D01*
X0249925Y0112953D01*
X0249491Y0112990D01*
X0249059Y0113038D01*
X0248628Y0113097D01*
X0248199Y0113166D01*
X0247772Y0113245D01*
X0247346Y0113335D01*
X0246923Y0113436D01*
X0246503Y0113547D01*
X0246085Y0113668D01*
X0245671Y0113799D01*
X0245259Y0113941D01*
X0244852Y0114092D01*
X0244448Y0114254D01*
X0244048Y0114425D01*
X0243653Y0114606D01*
X0243262Y0114797D01*
X0242876Y0114997D01*
X0242495Y0115207D01*
X0242120Y0115426D01*
X0241749Y0115654D01*
X0241385Y0115891D01*
X0241026Y0116137D01*
X0240674Y0116392D01*
X0240328Y0116655D01*
X0239988Y0116927D01*
X0239656Y0117207D01*
X0239330Y0117495D01*
X0239011Y0117791D01*
X0238700Y0118094D01*
X0238397Y0118405D01*
X0238101Y0118724D01*
X0237813Y0119050D01*
X0237533Y0119382D01*
X0237261Y0119722D01*
X0236998Y0120068D01*
X0236743Y0120420D01*
X0236497Y0120779D01*
X0236260Y0121143D01*
X0236032Y0121514D01*
X0235813Y0121889D01*
X0235603Y0122270D01*
X0235403Y0122656D01*
X0235212Y0123047D01*
X0235031Y0123442D01*
X0234860Y0123842D01*
X0234698Y0124246D01*
X0234547Y0124653D01*
X0234405Y0125065D01*
X0234274Y0125479D01*
X0234153Y0125897D01*
X0234042Y0126317D01*
X0233941Y0126740D01*
X0233851Y0127166D01*
X0233772Y0127593D01*
X0233703Y0128022D01*
X0233644Y0128453D01*
X0233596Y0128885D01*
X0233559Y0129319D01*
X0233532Y0129753D01*
X0233516Y0130187D01*
X0233511Y0130622D01*
X0224789Y0118524D02*
X0224789Y0115922D01*
X0225656Y0115922D02*
X0223921Y0115922D01*
X0222276Y0115922D02*
X0222276Y0118524D01*
X0220975Y0117223D01*
X0222710Y0117223D01*
X0223921Y0117657D02*
X0224789Y0118524D01*
X0219763Y0118524D02*
X0219763Y0116356D01*
X0219329Y0115922D01*
X0218462Y0115922D01*
X0218028Y0116356D01*
X0218028Y0118524D01*
X0141710Y0160422D02*
X0139975Y0160422D01*
X0140842Y0160422D02*
X0140842Y0163024D01*
X0139975Y0162157D01*
X0138763Y0162591D02*
X0138763Y0161723D01*
X0138329Y0161289D01*
X0137028Y0161289D01*
X0137028Y0160422D02*
X0137028Y0163024D01*
X0138329Y0163024D01*
X0138763Y0162591D01*
X0137896Y0161289D02*
X0138763Y0160422D01*
X0132317Y0164656D02*
X0131883Y0164222D01*
X0131016Y0164222D01*
X0130582Y0164656D01*
X0131449Y0165523D02*
X0131883Y0165523D01*
X0132317Y0165089D01*
X0132317Y0164656D01*
X0131883Y0165523D02*
X0132317Y0165957D01*
X0132317Y0166391D01*
X0131883Y0166824D01*
X0131016Y0166824D01*
X0130582Y0166391D01*
X0129370Y0166391D02*
X0129370Y0165523D01*
X0128936Y0165089D01*
X0127635Y0165089D01*
X0127635Y0164222D02*
X0127635Y0166824D01*
X0128936Y0166824D01*
X0129370Y0166391D01*
X0128503Y0165089D02*
X0129370Y0164222D01*
X0140026Y0169963D02*
X0140026Y0170830D01*
X0140460Y0171264D01*
X0140460Y0172476D02*
X0140026Y0172909D01*
X0140026Y0173777D01*
X0140460Y0174210D01*
X0142195Y0174210D01*
X0142628Y0173777D01*
X0142628Y0172909D01*
X0142195Y0172476D01*
X0141327Y0172909D02*
X0141327Y0174210D01*
X0141327Y0172909D02*
X0140894Y0172476D01*
X0140460Y0172476D01*
X0142195Y0171264D02*
X0142628Y0170830D01*
X0142628Y0169963D01*
X0142195Y0169529D01*
X0140460Y0169529D01*
X0140026Y0169963D01*
X0118497Y0169922D02*
X0116762Y0169922D01*
X0118497Y0171657D01*
X0118497Y0172091D01*
X0118063Y0172524D01*
X0117196Y0172524D01*
X0116762Y0172091D01*
X0115551Y0172524D02*
X0115551Y0170356D01*
X0115117Y0169922D01*
X0114249Y0169922D01*
X0113816Y0170356D01*
X0113816Y0172524D01*
X0095449Y0163324D02*
X0095449Y0160722D01*
X0094582Y0160722D02*
X0096317Y0160722D01*
X0094582Y0162457D02*
X0095449Y0163324D01*
X0093370Y0162891D02*
X0092936Y0163324D01*
X0091635Y0163324D01*
X0091635Y0160722D01*
X0092936Y0160722D01*
X0093370Y0161156D01*
X0093370Y0162891D01*
X0075330Y0154404D02*
X0075330Y0153537D01*
X0074896Y0153103D01*
X0074463Y0153103D01*
X0074029Y0153537D01*
X0074029Y0154404D01*
X0074463Y0154838D01*
X0074896Y0154838D01*
X0075330Y0154404D01*
X0074029Y0154404D02*
X0073595Y0154838D01*
X0073161Y0154838D01*
X0072728Y0154404D01*
X0072728Y0153537D01*
X0073161Y0153103D01*
X0073595Y0153103D01*
X0074029Y0153537D01*
X0074896Y0151891D02*
X0075330Y0151457D01*
X0075330Y0150590D01*
X0074896Y0150156D01*
X0073161Y0150156D01*
X0072728Y0150590D01*
X0072728Y0151457D01*
X0073161Y0151891D01*
X0066495Y0144603D02*
X0066928Y0144170D01*
X0066928Y0143302D01*
X0066495Y0142869D01*
X0066495Y0141657D02*
X0066928Y0141223D01*
X0066928Y0140356D01*
X0066495Y0139922D01*
X0064760Y0139922D01*
X0064326Y0140356D01*
X0064326Y0141223D01*
X0064760Y0141657D01*
X0064760Y0142869D02*
X0064326Y0143302D01*
X0064326Y0144170D01*
X0064760Y0144603D01*
X0065194Y0144603D01*
X0065627Y0144170D01*
X0066061Y0144603D01*
X0066495Y0144603D01*
X0065627Y0144170D02*
X0065627Y0143736D01*
X0054968Y0144275D02*
X0054968Y0145142D01*
X0054534Y0145576D01*
X0054534Y0146788D02*
X0054968Y0147222D01*
X0054968Y0148089D01*
X0054534Y0148523D01*
X0054100Y0148523D01*
X0053667Y0148089D01*
X0053667Y0146788D01*
X0054534Y0146788D01*
X0053667Y0146788D02*
X0052799Y0147655D01*
X0052366Y0148523D01*
X0052799Y0145576D02*
X0052366Y0145142D01*
X0052366Y0144275D01*
X0052799Y0143841D01*
X0054534Y0143841D01*
X0054968Y0144275D01*
X0054609Y0135924D02*
X0054609Y0133322D01*
X0056343Y0133322D01*
X0057555Y0133756D02*
X0057989Y0133322D01*
X0058856Y0133322D01*
X0059290Y0133756D01*
X0059290Y0134189D01*
X0058856Y0134623D01*
X0057989Y0134623D01*
X0057555Y0135057D01*
X0057555Y0135491D01*
X0057989Y0135924D01*
X0058856Y0135924D01*
X0059290Y0135491D01*
X0060502Y0135924D02*
X0060502Y0133322D01*
X0062236Y0133322D01*
X0061369Y0134623D02*
X0060502Y0134623D01*
X0060502Y0135924D02*
X0062236Y0135924D01*
X0063448Y0135924D02*
X0065183Y0135924D01*
X0064316Y0135924D02*
X0064316Y0133322D01*
X0056343Y0135924D02*
X0054609Y0135924D01*
X0053397Y0135491D02*
X0053397Y0134623D01*
X0052963Y0134189D01*
X0051662Y0134189D01*
X0051662Y0133322D02*
X0051662Y0135924D01*
X0052963Y0135924D01*
X0053397Y0135491D01*
X0054609Y0134623D02*
X0055476Y0134623D01*
X0053397Y0133322D02*
X0052529Y0134189D01*
X0046156Y0129591D02*
X0045722Y0130024D01*
X0044855Y0130024D01*
X0044421Y0129591D01*
X0044421Y0127856D01*
X0044855Y0127422D01*
X0045722Y0127422D01*
X0046156Y0127856D01*
X0046156Y0128723D01*
X0045289Y0128723D01*
X0043210Y0128723D02*
X0041475Y0128723D01*
X0041475Y0127422D02*
X0041475Y0130024D01*
X0040263Y0129591D02*
X0039829Y0130024D01*
X0038962Y0130024D01*
X0038528Y0129591D01*
X0038528Y0127856D01*
X0038962Y0127422D01*
X0039829Y0127422D01*
X0040263Y0127856D01*
X0043210Y0127422D02*
X0043210Y0130024D01*
X0041026Y0132922D02*
X0040159Y0132922D01*
X0039725Y0133356D01*
X0040592Y0134223D02*
X0041026Y0134223D01*
X0041460Y0133789D01*
X0041460Y0133356D01*
X0041026Y0132922D01*
X0041026Y0134223D02*
X0041460Y0134657D01*
X0041460Y0135091D01*
X0041026Y0135524D01*
X0040159Y0135524D01*
X0039725Y0135091D01*
X0038513Y0135524D02*
X0036778Y0132922D01*
X0038513Y0132922D02*
X0036778Y0135524D01*
X0032228Y0129122D02*
X0030228Y0130622D01*
X0030228Y0127622D01*
X0032228Y0129122D01*
X0031856Y0128843D02*
X0030228Y0128843D01*
X0030228Y0128245D02*
X0031058Y0128245D01*
X0030260Y0127646D02*
X0030228Y0127646D01*
X0030228Y0129442D02*
X0031802Y0129442D01*
X0031004Y0130040D02*
X0030228Y0130040D01*
X0050028Y0110524D02*
X0051329Y0110524D01*
X0051763Y0110091D01*
X0051763Y0109223D01*
X0051329Y0108789D01*
X0050028Y0108789D01*
X0050028Y0107922D02*
X0050028Y0110524D01*
X0050896Y0108789D02*
X0051763Y0107922D01*
X0052975Y0107922D02*
X0054710Y0109657D01*
X0054710Y0110091D01*
X0054276Y0110524D01*
X0053409Y0110524D01*
X0052975Y0110091D01*
X0052975Y0107922D02*
X0054710Y0107922D01*
X0061228Y0108460D02*
X0061662Y0108027D01*
X0062529Y0108027D01*
X0062963Y0108460D01*
X0064175Y0108027D02*
X0065910Y0108027D01*
X0065042Y0108027D02*
X0065042Y0110629D01*
X0064175Y0109762D01*
X0062963Y0110195D02*
X0062529Y0110629D01*
X0061662Y0110629D01*
X0061228Y0110195D01*
X0061228Y0108460D01*
X0067121Y0109328D02*
X0068856Y0109328D01*
X0068422Y0110629D02*
X0067121Y0109328D01*
X0068422Y0108027D02*
X0068422Y0110629D01*
X0075635Y0110324D02*
X0075635Y0107722D01*
X0075635Y0108589D02*
X0076936Y0108589D01*
X0077370Y0109023D01*
X0077370Y0109891D01*
X0076936Y0110324D01*
X0075635Y0110324D01*
X0076503Y0108589D02*
X0077370Y0107722D01*
X0078582Y0108156D02*
X0078582Y0108589D01*
X0079016Y0109023D01*
X0079883Y0109023D01*
X0080317Y0108589D01*
X0080317Y0108156D01*
X0079883Y0107722D01*
X0079016Y0107722D01*
X0078582Y0108156D01*
X0079016Y0109023D02*
X0078582Y0109457D01*
X0078582Y0109891D01*
X0079016Y0110324D01*
X0079883Y0110324D01*
X0080317Y0109891D01*
X0080317Y0109457D01*
X0079883Y0109023D01*
X0079195Y0117742D02*
X0077026Y0117742D01*
X0077026Y0119476D02*
X0079195Y0119476D01*
X0079628Y0119043D01*
X0079628Y0118175D01*
X0079195Y0117742D01*
X0079195Y0120688D02*
X0079628Y0121122D01*
X0079628Y0121989D01*
X0079195Y0122423D01*
X0078761Y0122423D01*
X0078327Y0121989D01*
X0078327Y0121556D01*
X0078327Y0121989D02*
X0077894Y0122423D01*
X0077460Y0122423D01*
X0077026Y0121989D01*
X0077026Y0121122D01*
X0077460Y0120688D01*
X0083326Y0122856D02*
X0083760Y0122422D01*
X0085495Y0122422D01*
X0085928Y0122856D01*
X0085928Y0123723D01*
X0085495Y0124157D01*
X0084627Y0125369D02*
X0083326Y0126670D01*
X0085928Y0126670D01*
X0084627Y0127103D02*
X0084627Y0125369D01*
X0083760Y0124157D02*
X0083326Y0123723D01*
X0083326Y0122856D01*
X0095973Y0120363D02*
X0097708Y0117761D01*
X0098920Y0117761D02*
X0100655Y0119495D01*
X0100655Y0119929D01*
X0100221Y0120363D01*
X0099353Y0120363D01*
X0098920Y0119929D01*
X0097708Y0120363D02*
X0095973Y0117761D01*
X0098920Y0117761D02*
X0100655Y0117761D01*
X0100195Y0123029D02*
X0100628Y0123463D01*
X0100628Y0124330D01*
X0100195Y0124764D01*
X0100628Y0125976D02*
X0098894Y0127710D01*
X0098460Y0127710D01*
X0098026Y0127277D01*
X0098026Y0126409D01*
X0098460Y0125976D01*
X0098460Y0124764D02*
X0098026Y0124330D01*
X0098026Y0123463D01*
X0098460Y0123029D01*
X0100195Y0123029D01*
X0100628Y0125976D02*
X0100628Y0127710D01*
X0085669Y0137307D02*
X0085669Y0138174D01*
X0085235Y0138608D01*
X0085235Y0139819D02*
X0085669Y0139819D01*
X0085235Y0139819D02*
X0083500Y0141554D01*
X0083066Y0141554D01*
X0083066Y0139819D01*
X0083500Y0138608D02*
X0083066Y0138174D01*
X0083066Y0137307D01*
X0083500Y0136873D01*
X0085235Y0136873D01*
X0085669Y0137307D01*
X0092826Y0142856D02*
X0093260Y0142422D01*
X0094995Y0142422D01*
X0095428Y0142856D01*
X0095428Y0143723D01*
X0094995Y0144157D01*
X0095428Y0145369D02*
X0095428Y0147103D01*
X0095428Y0146236D02*
X0092826Y0146236D01*
X0093694Y0145369D01*
X0093260Y0144157D02*
X0092826Y0143723D01*
X0092826Y0142856D01*
X0067369Y0120424D02*
X0067369Y0117822D01*
X0066502Y0117822D02*
X0068236Y0117822D01*
X0066502Y0119557D02*
X0067369Y0120424D01*
X0065290Y0120424D02*
X0065290Y0117822D01*
X0064422Y0118689D01*
X0063555Y0117822D01*
X0063555Y0120424D01*
X0062343Y0119991D02*
X0061910Y0120424D01*
X0061042Y0120424D01*
X0060609Y0119991D01*
X0060609Y0119557D01*
X0061042Y0119123D01*
X0061910Y0119123D01*
X0062343Y0118689D01*
X0062343Y0118256D01*
X0061910Y0117822D01*
X0061042Y0117822D01*
X0060609Y0118256D01*
X0129135Y0147722D02*
X0129135Y0150324D01*
X0130436Y0150324D01*
X0130870Y0149891D01*
X0130870Y0149023D01*
X0130436Y0148589D01*
X0129135Y0148589D01*
X0130003Y0148589D02*
X0130870Y0147722D01*
X0132082Y0148156D02*
X0132516Y0147722D01*
X0133383Y0147722D01*
X0133817Y0148156D01*
X0133817Y0148589D01*
X0133383Y0149023D01*
X0132082Y0149023D01*
X0132082Y0148156D01*
X0132082Y0149023D02*
X0132949Y0149891D01*
X0133817Y0150324D01*
X0086878Y0188779D02*
X0084276Y0190514D01*
X0085144Y0191726D02*
X0084276Y0192593D01*
X0086878Y0192593D01*
X0086878Y0191726D02*
X0086878Y0193460D01*
X0086878Y0190514D02*
X0084276Y0188779D01*
X0103126Y0191711D02*
X0103559Y0191277D01*
X0104427Y0191277D01*
X0104861Y0191711D01*
X0106072Y0191277D02*
X0107807Y0191277D01*
X0106940Y0191277D02*
X0106940Y0193879D01*
X0106072Y0193012D01*
X0104861Y0193446D02*
X0104427Y0193879D01*
X0103559Y0193879D01*
X0103126Y0193446D01*
X0103126Y0191711D01*
X0109019Y0191711D02*
X0110754Y0193446D01*
X0110754Y0191711D01*
X0110320Y0191277D01*
X0109453Y0191277D01*
X0109019Y0191711D01*
X0109019Y0193446D01*
X0109453Y0193879D01*
X0110320Y0193879D01*
X0110754Y0193446D01*
X0120528Y0193422D02*
X0121396Y0193422D01*
X0120962Y0193422D02*
X0120962Y0196024D01*
X0120528Y0196024D02*
X0121396Y0196024D01*
X0122493Y0195591D02*
X0122493Y0193856D01*
X0122926Y0193422D01*
X0123794Y0193422D01*
X0124227Y0193856D01*
X0125439Y0193422D02*
X0127174Y0195157D01*
X0127174Y0195591D01*
X0126740Y0196024D01*
X0125873Y0196024D01*
X0125439Y0195591D01*
X0124227Y0195591D02*
X0123794Y0196024D01*
X0122926Y0196024D01*
X0122493Y0195591D01*
X0125439Y0193422D02*
X0127174Y0193422D01*
X0153528Y0193356D02*
X0153962Y0192922D01*
X0154829Y0192922D01*
X0155263Y0193356D01*
X0156475Y0193356D02*
X0156909Y0192922D01*
X0157776Y0192922D01*
X0158210Y0193356D01*
X0158210Y0194223D01*
X0157776Y0194657D01*
X0157342Y0194657D01*
X0156475Y0194223D01*
X0156475Y0195524D01*
X0158210Y0195524D01*
X0155263Y0195091D02*
X0154829Y0195524D01*
X0153962Y0195524D01*
X0153528Y0195091D01*
X0153528Y0193356D01*
X0183871Y0192749D02*
X0183871Y0190580D01*
X0184305Y0190146D01*
X0185172Y0190146D01*
X0185606Y0190580D01*
X0185606Y0192749D01*
X0186817Y0191881D02*
X0187685Y0192749D01*
X0187685Y0190146D01*
X0188552Y0190146D02*
X0186817Y0190146D01*
X0203528Y0193422D02*
X0203528Y0196024D01*
X0204829Y0196024D01*
X0205263Y0195591D01*
X0205263Y0194723D01*
X0204829Y0194289D01*
X0203528Y0194289D01*
X0204396Y0194289D02*
X0205263Y0193422D01*
X0206475Y0194723D02*
X0208210Y0194723D01*
X0207776Y0193422D02*
X0207776Y0196024D01*
X0206475Y0194723D01*
X0222728Y0184622D02*
X0222728Y0179622D01*
X0222790Y0179620D01*
X0222851Y0179614D01*
X0222912Y0179605D01*
X0222972Y0179592D01*
X0223031Y0179575D01*
X0223089Y0179554D01*
X0223146Y0179530D01*
X0223201Y0179503D01*
X0223254Y0179472D01*
X0223306Y0179438D01*
X0223355Y0179401D01*
X0223402Y0179361D01*
X0223446Y0179318D01*
X0223487Y0179273D01*
X0223526Y0179225D01*
X0223562Y0179174D01*
X0223594Y0179122D01*
X0223623Y0179068D01*
X0223649Y0179012D01*
X0223671Y0178954D01*
X0223690Y0178896D01*
X0223705Y0178836D01*
X0223716Y0178775D01*
X0223724Y0178714D01*
X0223728Y0178653D01*
X0223728Y0178591D01*
X0223724Y0178530D01*
X0223716Y0178469D01*
X0223705Y0178408D01*
X0223690Y0178348D01*
X0223671Y0178290D01*
X0223649Y0178232D01*
X0223623Y0178176D01*
X0223594Y0178122D01*
X0223562Y0178070D01*
X0223526Y0178019D01*
X0223487Y0177971D01*
X0223446Y0177926D01*
X0223402Y0177883D01*
X0223355Y0177843D01*
X0223306Y0177806D01*
X0223254Y0177772D01*
X0223201Y0177741D01*
X0223146Y0177714D01*
X0223089Y0177690D01*
X0223031Y0177669D01*
X0222972Y0177652D01*
X0222912Y0177639D01*
X0222851Y0177630D01*
X0222790Y0177624D01*
X0222728Y0177622D01*
X0222728Y0172622D01*
X0049128Y0188029D02*
X0046526Y0188029D01*
X0046526Y0189330D01*
X0046960Y0189764D01*
X0047827Y0189764D01*
X0048261Y0189330D01*
X0048261Y0188029D01*
X0048261Y0188896D02*
X0049128Y0189764D01*
X0049128Y0190976D02*
X0048695Y0190976D01*
X0046960Y0192710D01*
X0046526Y0192710D01*
X0046526Y0190976D01*
X0033142Y0176965D02*
X0031142Y0175465D01*
X0033142Y0173965D01*
X0033142Y0176965D01*
X0033142Y0176724D02*
X0032821Y0176724D01*
X0033142Y0176126D02*
X0032023Y0176126D01*
X0031225Y0175527D02*
X0033142Y0175527D01*
X0033142Y0174929D02*
X0031856Y0174929D01*
X0032654Y0174330D02*
X0033142Y0174330D01*
X0039615Y0174080D02*
X0041350Y0174080D01*
X0039615Y0174080D02*
X0039615Y0176682D01*
D13*
X0084459Y0175674D02*
X0084459Y0174273D01*
X0085159Y0173572D01*
X0085860Y0174273D01*
X0085860Y0175674D01*
X0086668Y0175674D02*
X0087719Y0175674D01*
X0088070Y0175324D01*
X0088070Y0174973D01*
X0087719Y0174623D01*
X0086668Y0174623D01*
X0086668Y0173572D02*
X0086668Y0175674D01*
X0087719Y0174623D02*
X0088070Y0174273D01*
X0088070Y0173922D01*
X0087719Y0173572D01*
X0086668Y0173572D01*
X0088878Y0173572D02*
X0088878Y0174973D01*
X0089579Y0175674D01*
X0090280Y0174973D01*
X0090280Y0173572D01*
X0090280Y0174623D02*
X0088878Y0174623D01*
X0091088Y0175674D02*
X0092489Y0175674D01*
X0091789Y0175674D02*
X0091789Y0173572D01*
X0090034Y0181572D02*
X0090384Y0181922D01*
X0090384Y0183324D01*
X0090034Y0183674D01*
X0088983Y0183674D01*
X0088983Y0181572D01*
X0090034Y0181572D01*
X0088175Y0181572D02*
X0088175Y0183674D01*
X0086773Y0183674D02*
X0086773Y0181572D01*
X0085965Y0181922D02*
X0085965Y0182623D01*
X0085264Y0182623D01*
X0084564Y0183324D02*
X0084564Y0181922D01*
X0084914Y0181572D01*
X0085614Y0181572D01*
X0085965Y0181922D01*
X0085965Y0183324D02*
X0085614Y0183674D01*
X0084914Y0183674D01*
X0084564Y0183324D01*
X0086773Y0183674D02*
X0088175Y0181572D01*
D14*
X0082539Y0187480D02*
X0082539Y0169764D01*
X0090291Y0159378D02*
X0097165Y0159378D01*
X0094909Y0156622D02*
X0092547Y0158197D01*
X0092547Y0155047D01*
X0094909Y0156622D01*
X0094122Y0156622D02*
X0092941Y0155835D01*
X0092941Y0157409D01*
X0094122Y0156622D01*
X0093540Y0157010D02*
X0092941Y0157010D01*
X0092941Y0156212D02*
X0093507Y0156212D01*
X0090291Y0153866D02*
X0097165Y0153866D01*
X0109232Y0158472D02*
X0109232Y0164772D01*
X0114154Y0157488D02*
X0117303Y0157488D01*
X0122224Y0158472D02*
X0122224Y0164772D01*
X0143228Y0154622D02*
X0143228Y0152122D01*
X0145728Y0152122D01*
X0145728Y0154622D02*
X0143228Y0154622D01*
X0084724Y0130772D02*
X0084724Y0124472D01*
X0079803Y0123488D02*
X0076654Y0123488D01*
X0071732Y0124472D02*
X0071732Y0130772D01*
X0023854Y0117122D02*
X0023856Y0117315D01*
X0023863Y0117508D01*
X0023875Y0117701D01*
X0023892Y0117894D01*
X0023913Y0118086D01*
X0023939Y0118277D01*
X0023970Y0118468D01*
X0024005Y0118658D01*
X0024045Y0118847D01*
X0024090Y0119035D01*
X0024139Y0119222D01*
X0024193Y0119408D01*
X0024251Y0119592D01*
X0024314Y0119775D01*
X0024382Y0119956D01*
X0024453Y0120135D01*
X0024530Y0120313D01*
X0024610Y0120489D01*
X0024695Y0120662D01*
X0024784Y0120834D01*
X0024877Y0121003D01*
X0024974Y0121170D01*
X0025076Y0121335D01*
X0025181Y0121497D01*
X0025290Y0121656D01*
X0025404Y0121813D01*
X0025521Y0121966D01*
X0025641Y0122117D01*
X0025766Y0122265D01*
X0025894Y0122410D01*
X0026025Y0122551D01*
X0026160Y0122690D01*
X0026299Y0122825D01*
X0026440Y0122956D01*
X0026585Y0123084D01*
X0026733Y0123209D01*
X0026884Y0123329D01*
X0027037Y0123446D01*
X0027194Y0123560D01*
X0027353Y0123669D01*
X0027515Y0123774D01*
X0027680Y0123876D01*
X0027847Y0123973D01*
X0028016Y0124066D01*
X0028188Y0124155D01*
X0028361Y0124240D01*
X0028537Y0124320D01*
X0028715Y0124397D01*
X0028894Y0124468D01*
X0029075Y0124536D01*
X0029258Y0124599D01*
X0029442Y0124657D01*
X0029628Y0124711D01*
X0029815Y0124760D01*
X0030003Y0124805D01*
X0030192Y0124845D01*
X0030382Y0124880D01*
X0030573Y0124911D01*
X0030764Y0124937D01*
X0030956Y0124958D01*
X0031149Y0124975D01*
X0031342Y0124987D01*
X0031535Y0124994D01*
X0031728Y0124996D01*
X0031921Y0124994D01*
X0032114Y0124987D01*
X0032307Y0124975D01*
X0032500Y0124958D01*
X0032692Y0124937D01*
X0032883Y0124911D01*
X0033074Y0124880D01*
X0033264Y0124845D01*
X0033453Y0124805D01*
X0033641Y0124760D01*
X0033828Y0124711D01*
X0034014Y0124657D01*
X0034198Y0124599D01*
X0034381Y0124536D01*
X0034562Y0124468D01*
X0034741Y0124397D01*
X0034919Y0124320D01*
X0035095Y0124240D01*
X0035268Y0124155D01*
X0035440Y0124066D01*
X0035609Y0123973D01*
X0035776Y0123876D01*
X0035941Y0123774D01*
X0036103Y0123669D01*
X0036262Y0123560D01*
X0036419Y0123446D01*
X0036572Y0123329D01*
X0036723Y0123209D01*
X0036871Y0123084D01*
X0037016Y0122956D01*
X0037157Y0122825D01*
X0037296Y0122690D01*
X0037431Y0122551D01*
X0037562Y0122410D01*
X0037690Y0122265D01*
X0037815Y0122117D01*
X0037935Y0121966D01*
X0038052Y0121813D01*
X0038166Y0121656D01*
X0038275Y0121497D01*
X0038380Y0121335D01*
X0038482Y0121170D01*
X0038579Y0121003D01*
X0038672Y0120834D01*
X0038761Y0120662D01*
X0038846Y0120489D01*
X0038926Y0120313D01*
X0039003Y0120135D01*
X0039074Y0119956D01*
X0039142Y0119775D01*
X0039205Y0119592D01*
X0039263Y0119408D01*
X0039317Y0119222D01*
X0039366Y0119035D01*
X0039411Y0118847D01*
X0039451Y0118658D01*
X0039486Y0118468D01*
X0039517Y0118277D01*
X0039543Y0118086D01*
X0039564Y0117894D01*
X0039581Y0117701D01*
X0039593Y0117508D01*
X0039600Y0117315D01*
X0039602Y0117122D01*
X0039600Y0116929D01*
X0039593Y0116736D01*
X0039581Y0116543D01*
X0039564Y0116350D01*
X0039543Y0116158D01*
X0039517Y0115967D01*
X0039486Y0115776D01*
X0039451Y0115586D01*
X0039411Y0115397D01*
X0039366Y0115209D01*
X0039317Y0115022D01*
X0039263Y0114836D01*
X0039205Y0114652D01*
X0039142Y0114469D01*
X0039074Y0114288D01*
X0039003Y0114109D01*
X0038926Y0113931D01*
X0038846Y0113755D01*
X0038761Y0113582D01*
X0038672Y0113410D01*
X0038579Y0113241D01*
X0038482Y0113074D01*
X0038380Y0112909D01*
X0038275Y0112747D01*
X0038166Y0112588D01*
X0038052Y0112431D01*
X0037935Y0112278D01*
X0037815Y0112127D01*
X0037690Y0111979D01*
X0037562Y0111834D01*
X0037431Y0111693D01*
X0037296Y0111554D01*
X0037157Y0111419D01*
X0037016Y0111288D01*
X0036871Y0111160D01*
X0036723Y0111035D01*
X0036572Y0110915D01*
X0036419Y0110798D01*
X0036262Y0110684D01*
X0036103Y0110575D01*
X0035941Y0110470D01*
X0035776Y0110368D01*
X0035609Y0110271D01*
X0035440Y0110178D01*
X0035268Y0110089D01*
X0035095Y0110004D01*
X0034919Y0109924D01*
X0034741Y0109847D01*
X0034562Y0109776D01*
X0034381Y0109708D01*
X0034198Y0109645D01*
X0034014Y0109587D01*
X0033828Y0109533D01*
X0033641Y0109484D01*
X0033453Y0109439D01*
X0033264Y0109399D01*
X0033074Y0109364D01*
X0032883Y0109333D01*
X0032692Y0109307D01*
X0032500Y0109286D01*
X0032307Y0109269D01*
X0032114Y0109257D01*
X0031921Y0109250D01*
X0031728Y0109248D01*
X0031535Y0109250D01*
X0031342Y0109257D01*
X0031149Y0109269D01*
X0030956Y0109286D01*
X0030764Y0109307D01*
X0030573Y0109333D01*
X0030382Y0109364D01*
X0030192Y0109399D01*
X0030003Y0109439D01*
X0029815Y0109484D01*
X0029628Y0109533D01*
X0029442Y0109587D01*
X0029258Y0109645D01*
X0029075Y0109708D01*
X0028894Y0109776D01*
X0028715Y0109847D01*
X0028537Y0109924D01*
X0028361Y0110004D01*
X0028188Y0110089D01*
X0028016Y0110178D01*
X0027847Y0110271D01*
X0027680Y0110368D01*
X0027515Y0110470D01*
X0027353Y0110575D01*
X0027194Y0110684D01*
X0027037Y0110798D01*
X0026884Y0110915D01*
X0026733Y0111035D01*
X0026585Y0111160D01*
X0026440Y0111288D01*
X0026299Y0111419D01*
X0026160Y0111554D01*
X0026025Y0111693D01*
X0025894Y0111834D01*
X0025766Y0111979D01*
X0025641Y0112127D01*
X0025521Y0112278D01*
X0025404Y0112431D01*
X0025290Y0112588D01*
X0025181Y0112747D01*
X0025076Y0112909D01*
X0024974Y0113074D01*
X0024877Y0113241D01*
X0024784Y0113410D01*
X0024695Y0113582D01*
X0024610Y0113755D01*
X0024530Y0113931D01*
X0024453Y0114109D01*
X0024382Y0114288D01*
X0024314Y0114469D01*
X0024251Y0114652D01*
X0024193Y0114836D01*
X0024139Y0115022D01*
X0024090Y0115209D01*
X0024045Y0115397D01*
X0024005Y0115586D01*
X0023970Y0115776D01*
X0023939Y0115967D01*
X0023913Y0116158D01*
X0023892Y0116350D01*
X0023875Y0116543D01*
X0023863Y0116736D01*
X0023856Y0116929D01*
X0023854Y0117122D01*
X0053012Y0162874D02*
X0053012Y0166220D01*
X0062854Y0166220D01*
X0062854Y0171732D01*
X0068760Y0162874D02*
X0053012Y0162874D01*
X0062854Y0185512D02*
X0062854Y0191024D01*
X0053012Y0191024D01*
X0053012Y0194370D01*
X0068760Y0194370D01*
X0023854Y0187122D02*
X0023856Y0187315D01*
X0023863Y0187508D01*
X0023875Y0187701D01*
X0023892Y0187894D01*
X0023913Y0188086D01*
X0023939Y0188277D01*
X0023970Y0188468D01*
X0024005Y0188658D01*
X0024045Y0188847D01*
X0024090Y0189035D01*
X0024139Y0189222D01*
X0024193Y0189408D01*
X0024251Y0189592D01*
X0024314Y0189775D01*
X0024382Y0189956D01*
X0024453Y0190135D01*
X0024530Y0190313D01*
X0024610Y0190489D01*
X0024695Y0190662D01*
X0024784Y0190834D01*
X0024877Y0191003D01*
X0024974Y0191170D01*
X0025076Y0191335D01*
X0025181Y0191497D01*
X0025290Y0191656D01*
X0025404Y0191813D01*
X0025521Y0191966D01*
X0025641Y0192117D01*
X0025766Y0192265D01*
X0025894Y0192410D01*
X0026025Y0192551D01*
X0026160Y0192690D01*
X0026299Y0192825D01*
X0026440Y0192956D01*
X0026585Y0193084D01*
X0026733Y0193209D01*
X0026884Y0193329D01*
X0027037Y0193446D01*
X0027194Y0193560D01*
X0027353Y0193669D01*
X0027515Y0193774D01*
X0027680Y0193876D01*
X0027847Y0193973D01*
X0028016Y0194066D01*
X0028188Y0194155D01*
X0028361Y0194240D01*
X0028537Y0194320D01*
X0028715Y0194397D01*
X0028894Y0194468D01*
X0029075Y0194536D01*
X0029258Y0194599D01*
X0029442Y0194657D01*
X0029628Y0194711D01*
X0029815Y0194760D01*
X0030003Y0194805D01*
X0030192Y0194845D01*
X0030382Y0194880D01*
X0030573Y0194911D01*
X0030764Y0194937D01*
X0030956Y0194958D01*
X0031149Y0194975D01*
X0031342Y0194987D01*
X0031535Y0194994D01*
X0031728Y0194996D01*
X0031921Y0194994D01*
X0032114Y0194987D01*
X0032307Y0194975D01*
X0032500Y0194958D01*
X0032692Y0194937D01*
X0032883Y0194911D01*
X0033074Y0194880D01*
X0033264Y0194845D01*
X0033453Y0194805D01*
X0033641Y0194760D01*
X0033828Y0194711D01*
X0034014Y0194657D01*
X0034198Y0194599D01*
X0034381Y0194536D01*
X0034562Y0194468D01*
X0034741Y0194397D01*
X0034919Y0194320D01*
X0035095Y0194240D01*
X0035268Y0194155D01*
X0035440Y0194066D01*
X0035609Y0193973D01*
X0035776Y0193876D01*
X0035941Y0193774D01*
X0036103Y0193669D01*
X0036262Y0193560D01*
X0036419Y0193446D01*
X0036572Y0193329D01*
X0036723Y0193209D01*
X0036871Y0193084D01*
X0037016Y0192956D01*
X0037157Y0192825D01*
X0037296Y0192690D01*
X0037431Y0192551D01*
X0037562Y0192410D01*
X0037690Y0192265D01*
X0037815Y0192117D01*
X0037935Y0191966D01*
X0038052Y0191813D01*
X0038166Y0191656D01*
X0038275Y0191497D01*
X0038380Y0191335D01*
X0038482Y0191170D01*
X0038579Y0191003D01*
X0038672Y0190834D01*
X0038761Y0190662D01*
X0038846Y0190489D01*
X0038926Y0190313D01*
X0039003Y0190135D01*
X0039074Y0189956D01*
X0039142Y0189775D01*
X0039205Y0189592D01*
X0039263Y0189408D01*
X0039317Y0189222D01*
X0039366Y0189035D01*
X0039411Y0188847D01*
X0039451Y0188658D01*
X0039486Y0188468D01*
X0039517Y0188277D01*
X0039543Y0188086D01*
X0039564Y0187894D01*
X0039581Y0187701D01*
X0039593Y0187508D01*
X0039600Y0187315D01*
X0039602Y0187122D01*
X0039600Y0186929D01*
X0039593Y0186736D01*
X0039581Y0186543D01*
X0039564Y0186350D01*
X0039543Y0186158D01*
X0039517Y0185967D01*
X0039486Y0185776D01*
X0039451Y0185586D01*
X0039411Y0185397D01*
X0039366Y0185209D01*
X0039317Y0185022D01*
X0039263Y0184836D01*
X0039205Y0184652D01*
X0039142Y0184469D01*
X0039074Y0184288D01*
X0039003Y0184109D01*
X0038926Y0183931D01*
X0038846Y0183755D01*
X0038761Y0183582D01*
X0038672Y0183410D01*
X0038579Y0183241D01*
X0038482Y0183074D01*
X0038380Y0182909D01*
X0038275Y0182747D01*
X0038166Y0182588D01*
X0038052Y0182431D01*
X0037935Y0182278D01*
X0037815Y0182127D01*
X0037690Y0181979D01*
X0037562Y0181834D01*
X0037431Y0181693D01*
X0037296Y0181554D01*
X0037157Y0181419D01*
X0037016Y0181288D01*
X0036871Y0181160D01*
X0036723Y0181035D01*
X0036572Y0180915D01*
X0036419Y0180798D01*
X0036262Y0180684D01*
X0036103Y0180575D01*
X0035941Y0180470D01*
X0035776Y0180368D01*
X0035609Y0180271D01*
X0035440Y0180178D01*
X0035268Y0180089D01*
X0035095Y0180004D01*
X0034919Y0179924D01*
X0034741Y0179847D01*
X0034562Y0179776D01*
X0034381Y0179708D01*
X0034198Y0179645D01*
X0034014Y0179587D01*
X0033828Y0179533D01*
X0033641Y0179484D01*
X0033453Y0179439D01*
X0033264Y0179399D01*
X0033074Y0179364D01*
X0032883Y0179333D01*
X0032692Y0179307D01*
X0032500Y0179286D01*
X0032307Y0179269D01*
X0032114Y0179257D01*
X0031921Y0179250D01*
X0031728Y0179248D01*
X0031535Y0179250D01*
X0031342Y0179257D01*
X0031149Y0179269D01*
X0030956Y0179286D01*
X0030764Y0179307D01*
X0030573Y0179333D01*
X0030382Y0179364D01*
X0030192Y0179399D01*
X0030003Y0179439D01*
X0029815Y0179484D01*
X0029628Y0179533D01*
X0029442Y0179587D01*
X0029258Y0179645D01*
X0029075Y0179708D01*
X0028894Y0179776D01*
X0028715Y0179847D01*
X0028537Y0179924D01*
X0028361Y0180004D01*
X0028188Y0180089D01*
X0028016Y0180178D01*
X0027847Y0180271D01*
X0027680Y0180368D01*
X0027515Y0180470D01*
X0027353Y0180575D01*
X0027194Y0180684D01*
X0027037Y0180798D01*
X0026884Y0180915D01*
X0026733Y0181035D01*
X0026585Y0181160D01*
X0026440Y0181288D01*
X0026299Y0181419D01*
X0026160Y0181554D01*
X0026025Y0181693D01*
X0025894Y0181834D01*
X0025766Y0181979D01*
X0025641Y0182127D01*
X0025521Y0182278D01*
X0025404Y0182431D01*
X0025290Y0182588D01*
X0025181Y0182747D01*
X0025076Y0182909D01*
X0024974Y0183074D01*
X0024877Y0183241D01*
X0024784Y0183410D01*
X0024695Y0183582D01*
X0024610Y0183755D01*
X0024530Y0183931D01*
X0024453Y0184109D01*
X0024382Y0184288D01*
X0024314Y0184469D01*
X0024251Y0184652D01*
X0024193Y0184836D01*
X0024139Y0185022D01*
X0024090Y0185209D01*
X0024045Y0185397D01*
X0024005Y0185586D01*
X0023970Y0185776D01*
X0023939Y0185967D01*
X0023913Y0186158D01*
X0023892Y0186350D01*
X0023875Y0186543D01*
X0023863Y0186736D01*
X0023856Y0186929D01*
X0023854Y0187122D01*
D15*
X0051571Y0155642D02*
X0055571Y0155642D01*
X0063728Y0151622D02*
X0067728Y0151622D01*
X0076787Y0154386D02*
X0080787Y0154386D01*
X0139228Y0181122D02*
X0143228Y0181122D01*
X0145728Y0190622D02*
X0145728Y0194622D01*
D16*
X0032156Y0129122D03*
X0031214Y0175465D03*
D17*
X0095303Y0156622D03*
D18*
X0101216Y0176197D03*
D19*
X0101228Y0176222D03*
D20*
X0101228Y0176247D03*
D21*
X0101216Y0176272D03*
D22*
X0101228Y0176297D03*
D23*
X0101216Y0176322D03*
X0097741Y0182372D03*
X0097741Y0182422D03*
X0097766Y0182472D03*
D24*
X0101228Y0176347D03*
X0099028Y0190897D03*
D25*
X0097416Y0184122D03*
X0097516Y0184022D03*
X0097666Y0182072D03*
X0101216Y0176372D03*
D26*
X0101216Y0176397D03*
X0097666Y0182047D03*
X0097566Y0183997D03*
D27*
X0097291Y0184272D03*
X0097641Y0181972D03*
X0101191Y0176422D03*
X0099016Y0190772D03*
D28*
X0099016Y0190747D03*
X0097266Y0184297D03*
X0097641Y0181947D03*
X0101191Y0176447D03*
D29*
X0101166Y0176472D03*
X0097616Y0181872D03*
D30*
X0097616Y0181847D03*
X0101166Y0176497D03*
D31*
X0101153Y0176522D03*
X0097603Y0181822D03*
D32*
X0101128Y0176547D03*
D33*
X0101128Y0176572D03*
X0097578Y0181722D03*
X0098978Y0190522D03*
D34*
X0101116Y0176597D03*
D35*
X0101091Y0176622D03*
X0092891Y0177772D03*
X0097566Y0181672D03*
X0099266Y0185322D03*
X0098966Y0190472D03*
D36*
X0101078Y0176647D03*
D37*
X0101078Y0176672D03*
X0097278Y0185822D03*
D38*
X0101053Y0176697D03*
D39*
X0101041Y0176722D03*
X0097941Y0183572D03*
X0099341Y0185522D03*
X0098941Y0190322D03*
D40*
X0097316Y0185947D03*
X0099366Y0185597D03*
X0097991Y0183647D03*
X0099841Y0181847D03*
X0101016Y0176747D03*
D41*
X0101003Y0176772D03*
X0098003Y0183672D03*
D42*
X0097866Y0183497D03*
X0099891Y0181797D03*
X0100991Y0176797D03*
X0092991Y0177847D03*
D43*
X0097816Y0183472D03*
X0098041Y0183722D03*
X0096916Y0184622D03*
X0097341Y0186022D03*
X0099966Y0181722D03*
X0100966Y0176822D03*
D44*
X0100953Y0176847D03*
X0101503Y0181897D03*
X0097503Y0181497D03*
X0099403Y0185747D03*
X0098903Y0190147D03*
D45*
X0098891Y0190122D03*
X0100016Y0181672D03*
X0097491Y0181472D03*
X0100941Y0176872D03*
D46*
X0100916Y0176897D03*
X0097491Y0181447D03*
X0099416Y0185797D03*
X0098891Y0190097D03*
D47*
X0100903Y0176922D03*
D48*
X0100878Y0176947D03*
X0099428Y0185897D03*
X0098878Y0189997D03*
D49*
X0098866Y0189972D03*
X0099416Y0185922D03*
X0096816Y0184672D03*
X0100866Y0176972D03*
D50*
X0100853Y0176997D03*
D51*
X0100828Y0177022D03*
D52*
X0100816Y0177047D03*
X0101491Y0181947D03*
X0097441Y0181347D03*
X0099416Y0185997D03*
X0093116Y0177947D03*
D53*
X0100803Y0177072D03*
X0100253Y0181272D03*
X0099403Y0186022D03*
X0098853Y0189872D03*
D54*
X0096728Y0184697D03*
X0100778Y0177097D03*
D55*
X0100766Y0177122D03*
X0100316Y0181122D03*
X0099391Y0186072D03*
D56*
X0098203Y0183897D03*
X0097403Y0181297D03*
X0100753Y0177147D03*
D57*
X0100728Y0177172D03*
X0098828Y0189722D03*
D58*
X0098816Y0189697D03*
X0095766Y0182697D03*
X0100366Y0180947D03*
X0100716Y0177197D03*
D59*
X0100691Y0177222D03*
X0098241Y0183922D03*
D60*
X0100378Y0180847D03*
X0100678Y0177247D03*
D61*
X0100666Y0177272D03*
X0095591Y0182622D03*
D62*
X0095466Y0182547D03*
X0100641Y0177297D03*
X0098791Y0189547D03*
D63*
X0098778Y0189522D03*
X0095428Y0182522D03*
X0100378Y0180772D03*
X0100628Y0177322D03*
D64*
X0100616Y0177347D03*
X0100366Y0180747D03*
X0095316Y0182447D03*
D65*
X0095116Y0182272D03*
X0095066Y0182222D03*
X0095016Y0182172D03*
X0094966Y0182122D03*
X0100341Y0180722D03*
X0100591Y0177372D03*
X0098766Y0189472D03*
D66*
X0100578Y0177397D03*
D67*
X0100566Y0177422D03*
X0094766Y0181872D03*
X0094841Y0181972D03*
X0098766Y0189422D03*
D68*
X0094641Y0181647D03*
X0094616Y0181597D03*
X0100541Y0177447D03*
D69*
X0100528Y0177472D03*
X0094578Y0181522D03*
D70*
X0094553Y0181447D03*
X0100503Y0177497D03*
D71*
X0100491Y0177522D03*
X0101741Y0185672D03*
D72*
X0099016Y0191047D03*
X0092691Y0177547D03*
D73*
X0094528Y0181347D03*
X0100478Y0177547D03*
X0098728Y0189247D03*
D74*
X0099016Y0191022D03*
X0092691Y0177572D03*
D75*
X0100453Y0177572D03*
D76*
X0092716Y0177597D03*
D77*
X0100441Y0177597D03*
D78*
X0092741Y0177622D03*
D79*
X0100428Y0177622D03*
D80*
X0097703Y0182197D03*
X0097803Y0182597D03*
X0092753Y0177647D03*
D81*
X0100403Y0177647D03*
X0098703Y0189097D03*
D82*
X0099028Y0190822D03*
X0097378Y0184172D03*
X0092778Y0177672D03*
D83*
X0100391Y0177672D03*
X0098691Y0189072D03*
D84*
X0092803Y0177697D03*
D85*
X0093578Y0178247D03*
X0100378Y0177697D03*
X0098678Y0189047D03*
D86*
X0092841Y0177722D03*
D87*
X0100353Y0177722D03*
D88*
X0092853Y0177747D03*
D89*
X0100341Y0177747D03*
D90*
X0100316Y0177772D03*
X0098666Y0188922D03*
D91*
X0097291Y0185797D03*
X0099291Y0185397D03*
X0099691Y0181997D03*
X0092916Y0177797D03*
D92*
X0093653Y0178297D03*
X0100303Y0177797D03*
X0098653Y0188897D03*
D93*
X0097303Y0185922D03*
X0099353Y0185572D03*
X0097903Y0183522D03*
X0101503Y0181872D03*
X0092953Y0177822D03*
D94*
X0100291Y0177822D03*
D95*
X0100266Y0177847D03*
X0093866Y0184297D03*
X0098641Y0188847D03*
D96*
X0098903Y0190172D03*
X0099403Y0185722D03*
X0093003Y0177872D03*
D97*
X0100253Y0177872D03*
X0093953Y0184172D03*
X0093853Y0184322D03*
D98*
X0098103Y0183797D03*
X0093053Y0177897D03*
D99*
X0093741Y0178347D03*
X0100241Y0177897D03*
X0094066Y0184047D03*
X0094016Y0184097D03*
X0093816Y0184397D03*
D100*
X0098128Y0183822D03*
X0093078Y0177922D03*
D101*
X0100216Y0177922D03*
X0093766Y0184472D03*
D102*
X0094203Y0183897D03*
X0100203Y0177947D03*
D103*
X0100291Y0181222D03*
X0097416Y0181322D03*
X0093141Y0177972D03*
D104*
X0100191Y0177972D03*
X0094291Y0183822D03*
D105*
X0095891Y0182747D03*
X0096066Y0182797D03*
X0100341Y0181047D03*
X0093191Y0177997D03*
X0098816Y0189747D03*
D106*
X0094391Y0183747D03*
X0100166Y0177997D03*
D107*
X0100366Y0180972D03*
X0097391Y0181272D03*
X0095841Y0182722D03*
X0093216Y0178022D03*
D108*
X0100153Y0178022D03*
X0098603Y0188622D03*
D109*
X0098791Y0189597D03*
X0093266Y0178047D03*
D110*
X0100141Y0178047D03*
X0094466Y0183697D03*
X0098591Y0188597D03*
D111*
X0095353Y0182472D03*
X0093303Y0178072D03*
D112*
X0100128Y0178072D03*
X0098578Y0188572D03*
D113*
X0098766Y0189447D03*
X0095141Y0182297D03*
X0095091Y0182247D03*
X0095041Y0182197D03*
X0094991Y0182147D03*
X0094941Y0182097D03*
X0093341Y0178097D03*
D114*
X0093903Y0178447D03*
X0100103Y0178097D03*
X0093753Y0184647D03*
D115*
X0094728Y0181822D03*
X0094678Y0181722D03*
X0093378Y0178122D03*
X0098328Y0183972D03*
D116*
X0100091Y0178122D03*
D117*
X0094566Y0181497D03*
X0093416Y0178147D03*
D118*
X0100078Y0178147D03*
X0101878Y0185497D03*
X0094628Y0183597D03*
D119*
X0093453Y0178172D03*
D120*
X0094666Y0183572D03*
X0093791Y0184672D03*
X0098566Y0188422D03*
X0100066Y0178172D03*
D121*
X0093503Y0178197D03*
X0098703Y0189197D03*
D122*
X0100053Y0178197D03*
D123*
X0093541Y0178222D03*
X0098691Y0189122D03*
D124*
X0100041Y0178222D03*
D125*
X0100028Y0178247D03*
D126*
X0093616Y0178272D03*
X0098666Y0188972D03*
D127*
X0094766Y0183522D03*
X0094016Y0178522D03*
X0100016Y0178272D03*
D128*
X0100003Y0178297D03*
X0094053Y0178547D03*
D129*
X0093703Y0178322D03*
X0098653Y0188872D03*
D130*
X0098541Y0188272D03*
X0099991Y0178322D03*
D131*
X0099978Y0178347D03*
D132*
X0093778Y0178372D03*
X0094228Y0183872D03*
X0098628Y0188722D03*
D133*
X0098541Y0188222D03*
X0099966Y0178372D03*
D134*
X0093828Y0178397D03*
X0094328Y0183797D03*
D135*
X0094103Y0178597D03*
X0099953Y0178397D03*
D136*
X0093866Y0178422D03*
D137*
X0094141Y0178622D03*
X0099941Y0178422D03*
X0092916Y0187072D03*
X0098541Y0188172D03*
D138*
X0098528Y0188147D03*
X0100828Y0182047D03*
X0099928Y0178447D03*
D139*
X0093953Y0178472D03*
D140*
X0094916Y0183472D03*
X0099916Y0178472D03*
X0101941Y0185422D03*
D141*
X0093978Y0178497D03*
D142*
X0094166Y0178647D03*
X0099916Y0178497D03*
X0098516Y0188097D03*
D143*
X0099903Y0178522D03*
D144*
X0099891Y0178547D03*
X0098516Y0188047D03*
D145*
X0094078Y0178572D03*
D146*
X0099878Y0178572D03*
X0098528Y0188022D03*
D147*
X0098516Y0187997D03*
X0100866Y0182097D03*
X0099866Y0178597D03*
D148*
X0099866Y0178622D03*
X0098516Y0187972D03*
D149*
X0098503Y0187947D03*
X0092953Y0187047D03*
X0099853Y0178647D03*
D150*
X0094191Y0178672D03*
D151*
X0099841Y0178672D03*
X0098516Y0187922D03*
D152*
X0094228Y0178697D03*
D153*
X0094278Y0178747D03*
X0099828Y0178697D03*
D154*
X0094253Y0178722D03*
D155*
X0099828Y0178722D03*
X0100878Y0182122D03*
D156*
X0099816Y0178747D03*
X0098441Y0186097D03*
X0098516Y0187847D03*
D157*
X0098503Y0187872D03*
X0094303Y0178772D03*
D158*
X0099803Y0178772D03*
X0102003Y0185372D03*
X0098453Y0186122D03*
X0098503Y0187772D03*
X0098503Y0187822D03*
D159*
X0094328Y0178797D03*
D160*
X0099803Y0178797D03*
X0098453Y0186147D03*
X0098503Y0187797D03*
D161*
X0098441Y0186172D03*
X0099791Y0178822D03*
X0094341Y0178822D03*
D162*
X0094366Y0178847D03*
X0099766Y0178897D03*
X0098441Y0186247D03*
X0098491Y0187647D03*
D163*
X0099778Y0178847D03*
D164*
X0099766Y0178922D03*
X0100916Y0182172D03*
X0098491Y0187622D03*
X0098491Y0187672D03*
X0094391Y0178872D03*
D165*
X0099778Y0178872D03*
X0092978Y0187022D03*
D166*
X0098453Y0186297D03*
X0099753Y0178947D03*
X0094403Y0178897D03*
D167*
X0094441Y0178922D03*
X0099741Y0178972D03*
X0098491Y0187572D03*
D168*
X0098453Y0186397D03*
X0094453Y0178947D03*
D169*
X0094478Y0178972D03*
X0100928Y0182222D03*
X0098478Y0187322D03*
X0098478Y0187372D03*
X0098478Y0187422D03*
D170*
X0098466Y0187297D03*
X0098466Y0187247D03*
X0098466Y0187197D03*
X0102491Y0183347D03*
X0102566Y0183397D03*
X0102641Y0183447D03*
X0099541Y0180497D03*
X0099541Y0180447D03*
X0099691Y0179197D03*
X0094491Y0178997D03*
D171*
X0099741Y0178997D03*
X0102016Y0185347D03*
X0098441Y0186347D03*
X0098491Y0187547D03*
X0098491Y0187597D03*
D172*
X0098466Y0187272D03*
X0098466Y0187222D03*
X0098441Y0186572D03*
X0102041Y0185322D03*
X0102666Y0183472D03*
X0099541Y0180472D03*
X0099541Y0180422D03*
X0099691Y0179222D03*
X0099691Y0179172D03*
X0094516Y0179022D03*
D173*
X0099728Y0179022D03*
X0098478Y0187472D03*
X0098478Y0187522D03*
D174*
X0099678Y0179247D03*
X0094528Y0179047D03*
D175*
X0099728Y0179047D03*
X0100928Y0182197D03*
X0098478Y0187497D03*
D176*
X0098453Y0186822D03*
X0098453Y0186772D03*
X0098453Y0186722D03*
X0098453Y0186672D03*
X0098453Y0186622D03*
X0102453Y0183322D03*
X0102603Y0183422D03*
X0099553Y0180372D03*
X0094553Y0179072D03*
D177*
X0099716Y0179072D03*
D178*
X0099666Y0179297D03*
X0099666Y0179347D03*
X0099566Y0180297D03*
X0100941Y0182247D03*
X0098466Y0186847D03*
X0098466Y0186897D03*
X0098466Y0186947D03*
X0098466Y0186997D03*
X0098466Y0187047D03*
X0098466Y0187097D03*
X0098466Y0187147D03*
X0094566Y0179097D03*
D179*
X0099716Y0179097D03*
X0098441Y0186447D03*
X0098491Y0187447D03*
X0093016Y0186997D03*
D180*
X0094591Y0179122D03*
X0099616Y0179622D03*
X0099641Y0179522D03*
X0099641Y0179472D03*
X0099566Y0180122D03*
X0099566Y0180172D03*
D181*
X0099703Y0179122D03*
X0098453Y0186472D03*
X0098453Y0186522D03*
D182*
X0099603Y0179847D03*
X0099603Y0179797D03*
X0099603Y0179747D03*
X0099603Y0179697D03*
X0094603Y0179147D03*
D183*
X0099703Y0179147D03*
X0098453Y0186497D03*
X0098453Y0186547D03*
D184*
X0102828Y0183622D03*
X0099578Y0180072D03*
X0099578Y0180022D03*
X0099578Y0179972D03*
X0099578Y0179922D03*
X0099628Y0179572D03*
X0094628Y0179172D03*
D185*
X0094641Y0179197D03*
X0100966Y0182297D03*
X0102841Y0183647D03*
D186*
X0102253Y0183222D03*
X0099603Y0179872D03*
X0099603Y0179822D03*
X0099603Y0179772D03*
X0099603Y0179722D03*
X0099603Y0179672D03*
X0094653Y0179222D03*
D187*
X0094678Y0179247D03*
D188*
X0094678Y0179272D03*
D189*
X0099678Y0179272D03*
X0102528Y0183372D03*
X0102728Y0183522D03*
D190*
X0102891Y0183697D03*
X0094691Y0179297D03*
D191*
X0094716Y0179322D03*
X0100966Y0182322D03*
X0102091Y0185272D03*
D192*
X0102366Y0183272D03*
X0099566Y0180322D03*
X0099566Y0180272D03*
X0099666Y0179372D03*
X0099666Y0179322D03*
X0098466Y0186872D03*
X0098466Y0186922D03*
X0098466Y0186972D03*
X0098466Y0187022D03*
X0098466Y0187072D03*
X0098466Y0187122D03*
X0098466Y0187172D03*
X0093041Y0186972D03*
D193*
X0094728Y0179347D03*
D194*
X0094741Y0179372D03*
X0094766Y0179422D03*
X0102141Y0183172D03*
D195*
X0094766Y0179397D03*
D196*
X0099553Y0180247D03*
X0099653Y0179397D03*
X0102753Y0183547D03*
X0102803Y0183597D03*
D197*
X0100953Y0182272D03*
X0099553Y0180222D03*
X0099653Y0179422D03*
D198*
X0100978Y0182347D03*
X0102078Y0183147D03*
X0094778Y0179447D03*
D199*
X0099566Y0180097D03*
X0099566Y0180147D03*
X0099566Y0180197D03*
X0099616Y0179647D03*
X0099641Y0179547D03*
X0099641Y0179497D03*
X0099641Y0179447D03*
X0102316Y0183247D03*
D200*
X0094803Y0179472D03*
D201*
X0094816Y0179497D03*
X0094841Y0179547D03*
X0102916Y0183747D03*
X0093116Y0186897D03*
D202*
X0094816Y0179522D03*
D203*
X0094853Y0179572D03*
D204*
X0094853Y0179597D03*
D205*
X0099578Y0179897D03*
X0099578Y0179947D03*
X0099578Y0179997D03*
X0099578Y0180047D03*
X0099628Y0179597D03*
X0102078Y0185297D03*
X0093078Y0186947D03*
D206*
X0100978Y0182372D03*
X0102928Y0183772D03*
X0094878Y0179622D03*
D207*
X0094878Y0179647D03*
D208*
X0094891Y0179672D03*
X0094916Y0179722D03*
X0094941Y0179772D03*
X0095141Y0180372D03*
D209*
X0095166Y0180447D03*
X0094916Y0179697D03*
X0102116Y0185247D03*
D210*
X0102928Y0183797D03*
X0095178Y0180497D03*
X0095128Y0180347D03*
X0095128Y0180297D03*
X0095078Y0180197D03*
X0095078Y0180147D03*
X0095028Y0179997D03*
X0094978Y0179897D03*
X0094978Y0179847D03*
X0094928Y0179747D03*
D211*
X0094953Y0179797D03*
X0095003Y0179947D03*
X0095053Y0180097D03*
X0095103Y0180247D03*
X0095153Y0180397D03*
D212*
X0095153Y0180422D03*
X0095103Y0180272D03*
X0095103Y0180222D03*
X0095053Y0180072D03*
X0095003Y0179922D03*
X0094953Y0179822D03*
X0093153Y0186872D03*
D213*
X0095178Y0180472D03*
X0095128Y0180322D03*
X0095078Y0180172D03*
X0095028Y0180022D03*
X0094978Y0179872D03*
D214*
X0095016Y0179972D03*
X0095066Y0180122D03*
X0101991Y0183122D03*
D215*
X0100991Y0182397D03*
X0095041Y0180047D03*
D216*
X0099553Y0180347D03*
X0099553Y0180397D03*
X0102403Y0183297D03*
X0102703Y0183497D03*
X0098453Y0186597D03*
X0098453Y0186647D03*
X0098453Y0186697D03*
X0098453Y0186747D03*
X0098453Y0186797D03*
D217*
X0097266Y0180572D03*
X0097266Y0180522D03*
D218*
X0097266Y0180547D03*
D219*
X0097266Y0180597D03*
X0097266Y0180647D03*
D220*
X0097266Y0180622D03*
D221*
X0097266Y0180672D03*
D222*
X0097266Y0180697D03*
D223*
X0096003Y0180722D03*
D224*
X0095978Y0180747D03*
D225*
X0095953Y0180772D03*
D226*
X0095941Y0180797D03*
X0094791Y0184947D03*
D227*
X0100378Y0180797D03*
D228*
X0095916Y0180822D03*
D229*
X0100378Y0180822D03*
D230*
X0095916Y0180847D03*
D231*
X0095903Y0180872D03*
D232*
X0100378Y0180872D03*
D233*
X0095903Y0180897D03*
D234*
X0097366Y0181247D03*
X0100366Y0180897D03*
X0101691Y0185747D03*
D235*
X0095891Y0180922D03*
D236*
X0100378Y0180922D03*
D237*
X0095878Y0180947D03*
D238*
X0095866Y0180972D03*
D239*
X0095866Y0180997D03*
D240*
X0100353Y0180997D03*
D241*
X0095853Y0181022D03*
D242*
X0100353Y0181022D03*
D243*
X0095853Y0181047D03*
D244*
X0095841Y0181072D03*
X0096291Y0183122D03*
D245*
X0100341Y0181072D03*
X0101691Y0185772D03*
D246*
X0095891Y0183397D03*
X0095841Y0181097D03*
D247*
X0100328Y0181097D03*
D248*
X0095841Y0181122D03*
X0095941Y0183322D03*
D249*
X0095828Y0181147D03*
D250*
X0100316Y0181147D03*
X0098841Y0189797D03*
D251*
X0093578Y0186272D03*
X0093828Y0185922D03*
X0093928Y0185772D03*
X0095828Y0181172D03*
D252*
X0100303Y0181172D03*
D253*
X0094566Y0181197D03*
D254*
X0094853Y0181997D03*
X0094903Y0182047D03*
X0097303Y0181197D03*
D255*
X0100303Y0181197D03*
D256*
X0094553Y0181222D03*
D257*
X0097341Y0181222D03*
X0098791Y0189572D03*
D258*
X0094528Y0181247D03*
D259*
X0100266Y0181247D03*
X0099391Y0186047D03*
X0098841Y0189847D03*
D260*
X0098716Y0189172D03*
X0094541Y0181272D03*
D261*
X0094528Y0181297D03*
D262*
X0100253Y0181297D03*
D263*
X0094516Y0181322D03*
X0098716Y0189222D03*
D264*
X0100241Y0181322D03*
D265*
X0100228Y0181347D03*
X0101678Y0185797D03*
D266*
X0094528Y0181372D03*
D267*
X0097441Y0181372D03*
X0100191Y0181422D03*
X0099416Y0185972D03*
D268*
X0098853Y0189922D03*
X0100203Y0181372D03*
D269*
X0094541Y0181397D03*
D270*
X0097466Y0181397D03*
X0100141Y0181497D03*
D271*
X0100191Y0181397D03*
X0099416Y0185947D03*
X0098866Y0189947D03*
D272*
X0094553Y0181422D03*
D273*
X0097466Y0181422D03*
X0100091Y0181572D03*
X0101666Y0185822D03*
X0099416Y0185872D03*
D274*
X0100178Y0181447D03*
D275*
X0094566Y0181472D03*
X0098741Y0189322D03*
D276*
X0100153Y0181472D03*
D277*
X0099916Y0181772D03*
X0097516Y0181522D03*
X0097316Y0185972D03*
X0098916Y0190222D03*
D278*
X0098878Y0190022D03*
X0100128Y0181522D03*
D279*
X0094578Y0181547D03*
D280*
X0097528Y0181547D03*
X0098928Y0190247D03*
D281*
X0100103Y0181547D03*
D282*
X0094603Y0181572D03*
D283*
X0097528Y0181572D03*
X0097978Y0183622D03*
X0096978Y0184572D03*
X0099828Y0181872D03*
D284*
X0099791Y0181897D03*
X0097541Y0181597D03*
X0097291Y0185897D03*
X0098941Y0190347D03*
D285*
X0100078Y0181597D03*
D286*
X0094641Y0181672D03*
X0094616Y0181622D03*
X0098741Y0189372D03*
D287*
X0098941Y0190372D03*
X0099316Y0185472D03*
X0097541Y0181622D03*
D288*
X0098091Y0183772D03*
X0097366Y0186072D03*
X0099416Y0185822D03*
X0100041Y0181622D03*
X0098891Y0190072D03*
D289*
X0098953Y0190397D03*
X0097553Y0181647D03*
D290*
X0100028Y0181647D03*
X0098878Y0183997D03*
X0096878Y0184647D03*
D291*
X0094753Y0181847D03*
X0094653Y0181697D03*
X0098753Y0189397D03*
D292*
X0097291Y0185747D03*
X0099266Y0185347D03*
X0097566Y0181697D03*
D293*
X0098066Y0183747D03*
X0097341Y0186047D03*
X0099991Y0181697D03*
D294*
X0101728Y0185697D03*
X0094678Y0181747D03*
D295*
X0097578Y0181747D03*
X0099228Y0185247D03*
X0098978Y0190547D03*
D296*
X0098916Y0190197D03*
X0099391Y0185697D03*
X0101666Y0185847D03*
X0099941Y0181747D03*
D297*
X0094703Y0181772D03*
D298*
X0097591Y0181772D03*
X0098991Y0190572D03*
D299*
X0101478Y0181772D03*
D300*
X0094816Y0181947D03*
X0094791Y0181897D03*
X0094716Y0181797D03*
D301*
X0097591Y0181797D03*
X0101641Y0185897D03*
X0098991Y0190597D03*
D302*
X0099028Y0190797D03*
X0101478Y0181797D03*
D303*
X0099878Y0181822D03*
X0099378Y0185622D03*
X0098928Y0190272D03*
D304*
X0098991Y0190622D03*
X0101491Y0181822D03*
D305*
X0101503Y0181847D03*
X0098953Y0190447D03*
D306*
X0097628Y0181897D03*
D307*
X0094803Y0181922D03*
D308*
X0097628Y0181922D03*
D309*
X0099778Y0181922D03*
D310*
X0101503Y0181922D03*
D311*
X0099741Y0181947D03*
X0099316Y0185447D03*
X0097291Y0185847D03*
X0097016Y0184547D03*
D312*
X0097041Y0184522D03*
X0099716Y0181972D03*
X0098966Y0190422D03*
D313*
X0101503Y0181972D03*
D314*
X0097653Y0181997D03*
X0097303Y0184247D03*
D315*
X0101503Y0181997D03*
D316*
X0094928Y0182072D03*
X0094878Y0182022D03*
D317*
X0097653Y0182022D03*
D318*
X0100803Y0182022D03*
D319*
X0100853Y0182072D03*
D320*
X0097666Y0182097D03*
X0097391Y0184147D03*
D321*
X0097828Y0182622D03*
X0097678Y0182122D03*
X0101628Y0185922D03*
X0099028Y0190872D03*
D322*
X0097691Y0182147D03*
D323*
X0100891Y0182147D03*
X0098491Y0187747D03*
D324*
X0097691Y0182172D03*
D325*
X0097703Y0182222D03*
D326*
X0097716Y0182247D03*
D327*
X0097716Y0182272D03*
D328*
X0097728Y0182297D03*
X0097778Y0182547D03*
D329*
X0095153Y0182322D03*
X0101703Y0185722D03*
D330*
X0097778Y0182522D03*
X0097728Y0182322D03*
X0099028Y0190922D03*
D331*
X0095253Y0182397D03*
X0095203Y0182347D03*
D332*
X0097741Y0182347D03*
X0097741Y0182397D03*
X0097766Y0182497D03*
D333*
X0095291Y0182422D03*
X0095216Y0182372D03*
D334*
X0100991Y0182422D03*
X0102941Y0183822D03*
D335*
X0097753Y0182447D03*
D336*
X0101003Y0182447D03*
D337*
X0101003Y0182472D03*
D338*
X0098278Y0183947D03*
X0095378Y0182497D03*
D339*
X0101003Y0182497D03*
X0102953Y0183897D03*
D340*
X0101016Y0182522D03*
D341*
X0101003Y0182547D03*
D342*
X0095503Y0182572D03*
D343*
X0097803Y0182572D03*
D344*
X0101003Y0182572D03*
X0093303Y0186672D03*
D345*
X0095553Y0182597D03*
D346*
X0101003Y0182597D03*
D347*
X0100978Y0182622D03*
D348*
X0095653Y0182647D03*
X0098803Y0189647D03*
D349*
X0100503Y0182647D03*
D350*
X0095703Y0182672D03*
X0098803Y0189622D03*
D351*
X0094678Y0185372D03*
X0100528Y0182672D03*
D352*
X0100528Y0182697D03*
D353*
X0100553Y0182722D03*
X0094653Y0185472D03*
D354*
X0100553Y0182747D03*
D355*
X0095978Y0182772D03*
X0098828Y0189772D03*
D356*
X0094641Y0185572D03*
X0100566Y0182772D03*
D357*
X0100553Y0182797D03*
D358*
X0099491Y0182822D03*
D359*
X0099116Y0182847D03*
D360*
X0099053Y0182872D03*
D361*
X0099016Y0182897D03*
D362*
X0099003Y0182922D03*
D363*
X0098978Y0182947D03*
D364*
X0098953Y0182972D03*
D365*
X0098953Y0182997D03*
D366*
X0098941Y0183022D03*
D367*
X0098928Y0183047D03*
D368*
X0098928Y0183072D03*
D369*
X0096391Y0183097D03*
D370*
X0101878Y0183097D03*
D371*
X0096203Y0183147D03*
D372*
X0096153Y0183172D03*
D373*
X0096103Y0183197D03*
X0093953Y0185747D03*
X0093903Y0185797D03*
X0093803Y0185947D03*
X0093703Y0186097D03*
X0093553Y0186297D03*
D374*
X0102203Y0183197D03*
D375*
X0096066Y0183222D03*
X0095991Y0183272D03*
X0093791Y0185972D03*
X0093716Y0186072D03*
X0093691Y0186122D03*
X0093616Y0186222D03*
D376*
X0093628Y0186197D03*
X0093778Y0185997D03*
X0093878Y0185847D03*
X0096028Y0183247D03*
D377*
X0095966Y0183297D03*
X0093841Y0185897D03*
X0093741Y0186047D03*
X0093666Y0186147D03*
X0093591Y0186247D03*
D378*
X0095916Y0183347D03*
D379*
X0095903Y0183372D03*
D380*
X0095866Y0183422D03*
D381*
X0095853Y0183447D03*
D382*
X0094841Y0183497D03*
X0098541Y0188247D03*
D383*
X0098566Y0188397D03*
X0092866Y0187097D03*
X0094716Y0183547D03*
D384*
X0097928Y0183547D03*
X0098928Y0190297D03*
D385*
X0102778Y0183572D03*
D386*
X0099353Y0185547D03*
X0097953Y0183597D03*
D387*
X0094578Y0183622D03*
X0098578Y0188522D03*
D388*
X0094528Y0183647D03*
D389*
X0094503Y0183672D03*
X0093753Y0184622D03*
X0101853Y0185522D03*
D390*
X0102866Y0183672D03*
D391*
X0099378Y0185647D03*
X0097328Y0185997D03*
X0098028Y0183697D03*
D392*
X0094428Y0183722D03*
D393*
X0093103Y0186922D03*
X0102903Y0183722D03*
D394*
X0094366Y0183772D03*
X0093741Y0184572D03*
D395*
X0094266Y0183847D03*
X0098616Y0188697D03*
X0101841Y0185547D03*
D396*
X0098153Y0183847D03*
X0098853Y0189897D03*
D397*
X0102941Y0183847D03*
D398*
X0098178Y0183872D03*
X0098828Y0189822D03*
D399*
X0102941Y0183872D03*
D400*
X0098628Y0188772D03*
X0094128Y0183972D03*
X0094178Y0183922D03*
D401*
X0102928Y0183922D03*
D402*
X0094153Y0183947D03*
X0094103Y0183997D03*
D403*
X0102916Y0183947D03*
D404*
X0102891Y0183972D03*
D405*
X0102841Y0183997D03*
X0093441Y0186447D03*
D406*
X0093791Y0184422D03*
X0093816Y0184372D03*
X0094091Y0184022D03*
X0101816Y0185572D03*
D407*
X0101816Y0184022D03*
D408*
X0097478Y0184047D03*
X0097428Y0184097D03*
D409*
X0101841Y0184047D03*
X0101891Y0184097D03*
D410*
X0094028Y0184072D03*
X0093878Y0184272D03*
D411*
X0097453Y0184072D03*
D412*
X0101878Y0184072D03*
X0101928Y0184122D03*
D413*
X0098641Y0188822D03*
X0093916Y0184222D03*
X0093991Y0184122D03*
D414*
X0093978Y0184147D03*
X0093928Y0184197D03*
X0093828Y0184347D03*
X0098628Y0188797D03*
D415*
X0101928Y0184147D03*
D416*
X0101953Y0184172D03*
D417*
X0097353Y0184197D03*
D418*
X0101966Y0184197D03*
X0101991Y0184247D03*
X0102016Y0184297D03*
D419*
X0097328Y0184222D03*
D420*
X0101991Y0184222D03*
X0102016Y0184272D03*
D421*
X0093903Y0184247D03*
D422*
X0097253Y0184322D03*
X0099003Y0190722D03*
D423*
X0102028Y0184322D03*
D424*
X0097216Y0184347D03*
X0099016Y0190697D03*
D425*
X0102028Y0184347D03*
D426*
X0097203Y0184372D03*
X0099003Y0190672D03*
D427*
X0102041Y0184372D03*
D428*
X0097178Y0184397D03*
D429*
X0102041Y0184397D03*
D430*
X0097153Y0184422D03*
D431*
X0102053Y0184422D03*
D432*
X0098628Y0188747D03*
X0093778Y0184447D03*
D433*
X0097116Y0184447D03*
D434*
X0102053Y0184447D03*
D435*
X0099241Y0185272D03*
X0097091Y0184472D03*
D436*
X0102066Y0184472D03*
D437*
X0093766Y0184497D03*
D438*
X0097078Y0184497D03*
X0098978Y0190497D03*
D439*
X0102066Y0184497D03*
D440*
X0093753Y0184522D03*
X0092803Y0187122D03*
D441*
X0102078Y0184522D03*
D442*
X0098603Y0188647D03*
X0093753Y0184547D03*
D443*
X0102078Y0184547D03*
D444*
X0102066Y0184572D03*
D445*
X0093753Y0184597D03*
D446*
X0096953Y0184597D03*
D447*
X0102066Y0184597D03*
D448*
X0102078Y0184622D03*
D449*
X0102066Y0184647D03*
D450*
X0102078Y0184672D03*
D451*
X0098541Y0188297D03*
X0093841Y0184697D03*
D452*
X0102078Y0184697D03*
D453*
X0094878Y0184722D03*
D454*
X0102066Y0184722D03*
D455*
X0094866Y0184747D03*
D456*
X0102053Y0184747D03*
D457*
X0094866Y0184772D03*
D458*
X0102053Y0184772D03*
D459*
X0094853Y0184797D03*
D460*
X0102053Y0184797D03*
D461*
X0094841Y0184822D03*
D462*
X0102028Y0184822D03*
D463*
X0094828Y0184847D03*
D464*
X0102016Y0184847D03*
D465*
X0094828Y0184872D03*
D466*
X0101991Y0184872D03*
D467*
X0094816Y0184897D03*
D468*
X0101991Y0184897D03*
D469*
X0094803Y0184922D03*
D470*
X0101966Y0184922D03*
D471*
X0101928Y0184947D03*
D472*
X0094791Y0184972D03*
D473*
X0101903Y0184972D03*
D474*
X0094778Y0184997D03*
D475*
X0101866Y0184997D03*
D476*
X0094766Y0185022D03*
D477*
X0094628Y0185622D03*
X0101828Y0185022D03*
D478*
X0094766Y0185047D03*
D479*
X0101778Y0185047D03*
D480*
X0094766Y0185072D03*
D481*
X0094666Y0185422D03*
X0101766Y0185072D03*
D482*
X0094753Y0185097D03*
D483*
X0094691Y0185347D03*
X0101716Y0185097D03*
D484*
X0094741Y0185122D03*
D485*
X0101678Y0185122D03*
D486*
X0094741Y0185147D03*
D487*
X0094716Y0185197D03*
X0101641Y0185147D03*
D488*
X0094728Y0185172D03*
D489*
X0101603Y0185172D03*
D490*
X0101553Y0185197D03*
D491*
X0094716Y0185222D03*
D492*
X0101528Y0185222D03*
D493*
X0094716Y0185247D03*
D494*
X0094703Y0185272D03*
D495*
X0094691Y0185297D03*
D496*
X0099253Y0185297D03*
D497*
X0094678Y0185322D03*
D498*
X0097278Y0185772D03*
X0099278Y0185372D03*
D499*
X0094666Y0185397D03*
D500*
X0101978Y0185397D03*
D501*
X0101653Y0185872D03*
X0099303Y0185422D03*
D502*
X0094666Y0185447D03*
D503*
X0098528Y0188197D03*
X0101928Y0185447D03*
D504*
X0101903Y0185472D03*
X0098553Y0188372D03*
D505*
X0094641Y0185497D03*
D506*
X0099328Y0185497D03*
D507*
X0094641Y0185522D03*
D508*
X0094641Y0185547D03*
D509*
X0094628Y0185597D03*
D510*
X0098666Y0188947D03*
X0101791Y0185597D03*
D511*
X0101778Y0185622D03*
D512*
X0094628Y0185647D03*
D513*
X0098703Y0189147D03*
X0101753Y0185647D03*
D514*
X0094616Y0185672D03*
D515*
X0099378Y0185672D03*
D516*
X0094616Y0185697D03*
D517*
X0094616Y0185722D03*
D518*
X0099403Y0185772D03*
D519*
X0093903Y0185822D03*
X0093853Y0185872D03*
X0093753Y0186022D03*
X0093653Y0186172D03*
D520*
X0099416Y0185847D03*
X0098891Y0190047D03*
D521*
X0097303Y0185872D03*
D522*
X0101616Y0185947D03*
D523*
X0098453Y0186197D03*
X0098503Y0187697D03*
D524*
X0098503Y0187722D03*
X0098453Y0186222D03*
D525*
X0098453Y0186272D03*
X0098453Y0186322D03*
D526*
X0093541Y0186322D03*
D527*
X0093516Y0186347D03*
D528*
X0093503Y0186372D03*
D529*
X0098453Y0186372D03*
X0098453Y0186422D03*
D530*
X0093478Y0186397D03*
D531*
X0093466Y0186422D03*
D532*
X0093428Y0186472D03*
D533*
X0093416Y0186497D03*
D534*
X0093403Y0186522D03*
D535*
X0093378Y0186547D03*
D536*
X0093353Y0186572D03*
D537*
X0093341Y0186597D03*
D538*
X0093328Y0186622D03*
D539*
X0093303Y0186647D03*
D540*
X0093278Y0186697D03*
D541*
X0093266Y0186722D03*
D542*
X0093241Y0186747D03*
D543*
X0093228Y0186772D03*
D544*
X0093203Y0186797D03*
D545*
X0093178Y0186822D03*
D546*
X0093166Y0186847D03*
D547*
X0098478Y0187347D03*
X0098478Y0187397D03*
D548*
X0098516Y0187897D03*
D549*
X0098528Y0188072D03*
D550*
X0098528Y0188122D03*
D551*
X0098553Y0188322D03*
D552*
X0098553Y0188347D03*
D553*
X0098566Y0188447D03*
D554*
X0098578Y0188472D03*
D555*
X0098566Y0188497D03*
D556*
X0098591Y0188547D03*
D557*
X0098603Y0188672D03*
D558*
X0098678Y0188997D03*
D559*
X0098691Y0189022D03*
D560*
X0098728Y0189272D03*
D561*
X0098728Y0189297D03*
D562*
X0098753Y0189347D03*
D563*
X0098778Y0189497D03*
D564*
X0098803Y0189672D03*
D565*
X0099003Y0190647D03*
D566*
X0099028Y0190847D03*
D567*
X0099028Y0190947D03*
D568*
X0099041Y0190972D03*
D569*
X0099028Y0190997D03*
D570*
X0134709Y0115854D02*
X0134711Y0115898D01*
X0134717Y0115942D01*
X0134727Y0115985D01*
X0134740Y0116027D01*
X0134757Y0116068D01*
X0134778Y0116107D01*
X0134802Y0116144D01*
X0134829Y0116179D01*
X0134859Y0116211D01*
X0134892Y0116241D01*
X0134928Y0116267D01*
X0134965Y0116291D01*
X0135005Y0116310D01*
X0135046Y0116327D01*
X0135089Y0116339D01*
X0135132Y0116348D01*
X0135176Y0116353D01*
X0135220Y0116354D01*
X0135264Y0116351D01*
X0135308Y0116344D01*
X0135351Y0116333D01*
X0135393Y0116319D01*
X0135433Y0116301D01*
X0135472Y0116279D01*
X0135508Y0116255D01*
X0135542Y0116227D01*
X0135574Y0116196D01*
X0135603Y0116162D01*
X0135629Y0116126D01*
X0135651Y0116088D01*
X0135670Y0116048D01*
X0135685Y0116006D01*
X0135697Y0115964D01*
X0135705Y0115920D01*
X0135709Y0115876D01*
X0135709Y0115832D01*
X0135705Y0115788D01*
X0135697Y0115744D01*
X0135685Y0115702D01*
X0135670Y0115660D01*
X0135651Y0115620D01*
X0135629Y0115582D01*
X0135603Y0115546D01*
X0135574Y0115512D01*
X0135542Y0115481D01*
X0135508Y0115453D01*
X0135472Y0115429D01*
X0135433Y0115407D01*
X0135393Y0115389D01*
X0135351Y0115375D01*
X0135308Y0115364D01*
X0135264Y0115357D01*
X0135220Y0115354D01*
X0135176Y0115355D01*
X0135132Y0115360D01*
X0135089Y0115369D01*
X0135046Y0115381D01*
X0135005Y0115398D01*
X0134965Y0115417D01*
X0134928Y0115441D01*
X0134892Y0115467D01*
X0134859Y0115497D01*
X0134829Y0115529D01*
X0134802Y0115564D01*
X0134778Y0115601D01*
X0134757Y0115640D01*
X0134740Y0115681D01*
X0134727Y0115723D01*
X0134717Y0115766D01*
X0134711Y0115810D01*
X0134709Y0115854D01*
D571*
X0250228Y0189550D03*
X0258728Y0189550D03*
D572*
X0128728Y0193965D02*
X0128728Y0174280D01*
D573*
X0119476Y0191504D03*
D574*
X0266161Y0153878D02*
X0266163Y0153918D01*
X0266169Y0153957D01*
X0266179Y0153996D01*
X0266192Y0154034D01*
X0266209Y0154070D01*
X0266230Y0154104D01*
X0266253Y0154136D01*
X0266280Y0154166D01*
X0266310Y0154193D01*
X0266342Y0154216D01*
X0266376Y0154237D01*
X0266412Y0154254D01*
X0266450Y0154267D01*
X0266489Y0154277D01*
X0266528Y0154283D01*
X0266568Y0154285D01*
X0266608Y0154283D01*
X0266647Y0154277D01*
X0266686Y0154267D01*
X0266724Y0154254D01*
X0266760Y0154237D01*
X0266794Y0154216D01*
X0266826Y0154193D01*
X0266856Y0154166D01*
X0266883Y0154136D01*
X0266906Y0154104D01*
X0266927Y0154070D01*
X0266944Y0154034D01*
X0266957Y0153996D01*
X0266967Y0153957D01*
X0266973Y0153918D01*
X0266975Y0153878D01*
X0266973Y0153838D01*
X0266967Y0153799D01*
X0266957Y0153760D01*
X0266944Y0153722D01*
X0266927Y0153686D01*
X0266906Y0153652D01*
X0266883Y0153620D01*
X0266856Y0153590D01*
X0266826Y0153563D01*
X0266794Y0153540D01*
X0266760Y0153519D01*
X0266724Y0153502D01*
X0266686Y0153489D01*
X0266647Y0153479D01*
X0266608Y0153473D01*
X0266568Y0153471D01*
X0266528Y0153473D01*
X0266489Y0153479D01*
X0266450Y0153489D01*
X0266412Y0153502D01*
X0266376Y0153519D01*
X0266342Y0153540D01*
X0266310Y0153563D01*
X0266280Y0153590D01*
X0266253Y0153620D01*
X0266230Y0153652D01*
X0266209Y0153686D01*
X0266192Y0153722D01*
X0266179Y0153760D01*
X0266169Y0153799D01*
X0266163Y0153838D01*
X0266161Y0153878D01*
X0274110Y0156323D02*
X0274110Y0163016D01*
X0277654Y0175811D02*
X0280803Y0175811D01*
X0286568Y0175811D02*
X0290252Y0175811D01*
X0290252Y0149433D01*
X0286451Y0149433D01*
X0280803Y0149433D02*
X0277654Y0149433D01*
X0276032Y0130622D02*
X0276034Y0130678D01*
X0276040Y0130733D01*
X0276050Y0130787D01*
X0276063Y0130841D01*
X0276081Y0130894D01*
X0276102Y0130945D01*
X0276126Y0130995D01*
X0276154Y0131043D01*
X0276186Y0131089D01*
X0276220Y0131133D01*
X0276258Y0131174D01*
X0276298Y0131212D01*
X0276341Y0131247D01*
X0276386Y0131279D01*
X0276434Y0131308D01*
X0276483Y0131334D01*
X0276534Y0131356D01*
X0276586Y0131374D01*
X0276640Y0131388D01*
X0276695Y0131399D01*
X0276750Y0131406D01*
X0276805Y0131409D01*
X0276861Y0131408D01*
X0276916Y0131403D01*
X0276971Y0131394D01*
X0277025Y0131382D01*
X0277078Y0131365D01*
X0277130Y0131345D01*
X0277180Y0131321D01*
X0277228Y0131294D01*
X0277275Y0131264D01*
X0277319Y0131230D01*
X0277361Y0131193D01*
X0277399Y0131153D01*
X0277436Y0131111D01*
X0277469Y0131066D01*
X0277498Y0131020D01*
X0277525Y0130971D01*
X0277547Y0130920D01*
X0277567Y0130868D01*
X0277582Y0130814D01*
X0277594Y0130760D01*
X0277602Y0130705D01*
X0277606Y0130650D01*
X0277606Y0130594D01*
X0277602Y0130539D01*
X0277594Y0130484D01*
X0277582Y0130430D01*
X0277567Y0130376D01*
X0277547Y0130324D01*
X0277525Y0130273D01*
X0277498Y0130224D01*
X0277469Y0130178D01*
X0277436Y0130133D01*
X0277399Y0130091D01*
X0277361Y0130051D01*
X0277319Y0130014D01*
X0277275Y0129980D01*
X0277228Y0129950D01*
X0277180Y0129923D01*
X0277130Y0129899D01*
X0277078Y0129879D01*
X0277025Y0129862D01*
X0276971Y0129850D01*
X0276916Y0129841D01*
X0276861Y0129836D01*
X0276805Y0129835D01*
X0276750Y0129838D01*
X0276695Y0129845D01*
X0276640Y0129856D01*
X0276586Y0129870D01*
X0276534Y0129888D01*
X0276483Y0129910D01*
X0276434Y0129936D01*
X0276386Y0129965D01*
X0276341Y0129997D01*
X0276298Y0130032D01*
X0276258Y0130070D01*
X0276220Y0130111D01*
X0276186Y0130155D01*
X0276154Y0130201D01*
X0276126Y0130249D01*
X0276102Y0130299D01*
X0276081Y0130350D01*
X0276063Y0130403D01*
X0276050Y0130457D01*
X0276040Y0130511D01*
X0276034Y0130566D01*
X0276032Y0130622D01*
M02*
