%
M48
M72
T01C0.01378
T02C0.03150
T03C0.04000
T04C0.04921
T05C0.07283
%
T01
X182595Y78933
X192595Y58933
X217595Y228933
T02
X87595Y93933
X97595Y93933
X107595Y93933
X117595Y93933
X127595Y93933
X137595Y93933
X147595Y93933
X157595Y93933
X167595Y93933
X177595Y93933
X187595Y93933
X197595Y93933
X207595Y93933
X217595Y93933
X227595Y93933
X227595Y33933
X217595Y33933
X207595Y33933
X197595Y33933
X187595Y33933
X177595Y33933
X167595Y33933
X157595Y33933
X147595Y33933
X137595Y33933
X127595Y33933
X117595Y33933
X107595Y33933
X97595Y33933
X87595Y33933
X82595Y53933
X82595Y63933
X82595Y73933
X92595Y73933
X92595Y63933
X92595Y53933
T03
X67595Y43933
X67595Y53933
X87595Y118933
X107595Y118933
X162595Y108933
X172595Y108933
X182595Y108933
X192595Y108933
X202595Y108933
X232595Y118933
X232595Y128933
X187595Y253933
X177595Y253933
X167595Y253933
X157595Y253933
X147595Y253933
X137595Y253933
X127595Y253933
X117595Y253933
X117595Y408933
X127595Y408933
X137595Y408933
X147595Y408933
X157595Y408933
X167595Y408933
X177595Y408933
X187595Y408933
T04
X92989Y223776
X92989Y204091
X92989Y168776
X92989Y149091
X142201Y149091
X142201Y168776
X162989Y168776
X162989Y149091
X162989Y204091
X162989Y223776
X142201Y223776
X142201Y204091
X212201Y204091
X212201Y223776
X212201Y168776
X212201Y149091
T05
X117595Y141217
X117595Y176650
X117595Y196217
X117595Y231650
X187595Y231650
X187595Y196217
X187595Y176650
X187595Y141217
M30
