G75*
%MOIN*%
%OFA0B0*%
%FSLAX25Y25*%
%IPPOS*%
%LPD*%
%AMOC8*
5,1,8,0,0,1.08239X$1,22.5*
%
%ADD10C,0.00000*%
%ADD11OC8,0.07000*%
%ADD12C,0.07000*%
%ADD13C,0.07874*%
%ADD14C,0.10925*%
%ADD15C,0.05150*%
%ADD16C,0.05150*%
%ADD17C,0.00600*%
%ADD18C,0.02978*%
D10*
X0052595Y0023933D02*
X0052595Y0417634D01*
X0249446Y0417634D01*
X0249446Y0023933D01*
X0052595Y0023933D01*
D11*
X0117595Y0253933D03*
X0127595Y0253933D03*
X0137595Y0253933D03*
X0147595Y0253933D03*
X0157595Y0253933D03*
X0167595Y0253933D03*
X0177595Y0253933D03*
X0187595Y0253933D03*
X0187595Y0408933D03*
X0177595Y0408933D03*
X0167595Y0408933D03*
X0157595Y0408933D03*
X0147595Y0408933D03*
X0137595Y0408933D03*
X0127595Y0408933D03*
X0117595Y0408933D03*
D12*
X0232595Y0128933D03*
X0232595Y0118933D03*
X0202595Y0108933D03*
X0192595Y0108933D03*
X0182595Y0108933D03*
X0172595Y0108933D03*
X0162595Y0108933D03*
X0107595Y0118933D03*
X0087595Y0118933D03*
X0067595Y0053933D03*
X0067595Y0043933D03*
D13*
X0092989Y0149091D03*
X0092989Y0168776D03*
X0092989Y0204091D03*
X0092989Y0223776D03*
X0142201Y0223776D03*
X0142201Y0204091D03*
X0162989Y0204091D03*
X0162989Y0223776D03*
X0162989Y0168776D03*
X0162989Y0149091D03*
X0142201Y0149091D03*
X0142201Y0168776D03*
X0212201Y0168776D03*
X0212201Y0149091D03*
X0212201Y0204091D03*
X0212201Y0223776D03*
D14*
X0187595Y0231650D03*
X0187595Y0196217D03*
X0187595Y0176650D03*
X0187595Y0141217D03*
X0117595Y0141217D03*
X0117595Y0176650D03*
X0117595Y0196217D03*
X0117595Y0231650D03*
D15*
X0117595Y0096508D02*
X0117595Y0091358D01*
X0127595Y0091358D02*
X0127595Y0096508D01*
X0137595Y0096508D02*
X0137595Y0091358D01*
X0147595Y0091358D02*
X0147595Y0096508D01*
X0157595Y0096508D02*
X0157595Y0091358D01*
X0167595Y0091358D02*
X0167595Y0096508D01*
X0177595Y0096508D02*
X0177595Y0091358D01*
X0187595Y0091358D02*
X0187595Y0096508D01*
X0197595Y0096508D02*
X0197595Y0091358D01*
X0207595Y0091358D02*
X0207595Y0096508D01*
X0217595Y0096508D02*
X0217595Y0091358D01*
X0227595Y0091358D02*
X0227595Y0096508D01*
X0227595Y0036508D02*
X0227595Y0031358D01*
X0217595Y0031358D02*
X0217595Y0036508D01*
X0207595Y0036508D02*
X0207595Y0031358D01*
X0197595Y0031358D02*
X0197595Y0036508D01*
X0187595Y0036508D02*
X0187595Y0031358D01*
X0177595Y0031358D02*
X0177595Y0036508D01*
X0167595Y0036508D02*
X0167595Y0031358D01*
X0157595Y0031358D02*
X0157595Y0036508D01*
X0147595Y0036508D02*
X0147595Y0031358D01*
X0137595Y0031358D02*
X0137595Y0036508D01*
X0127595Y0036508D02*
X0127595Y0031358D01*
X0117595Y0031358D02*
X0117595Y0036508D01*
X0107595Y0036508D02*
X0107595Y0031358D01*
X0097595Y0031358D02*
X0097595Y0036508D01*
X0087595Y0036508D02*
X0087595Y0031358D01*
X0087595Y0091358D02*
X0087595Y0096508D01*
X0097595Y0096508D02*
X0097595Y0091358D01*
X0107595Y0091358D02*
X0107595Y0096508D01*
D16*
X0092595Y0073933D03*
X0092595Y0063933D03*
X0092595Y0053933D03*
X0082595Y0053933D03*
X0082595Y0063933D03*
X0082595Y0073933D03*
D17*
X0090095Y0083933D02*
X0080095Y0093933D01*
X0080095Y0203933D01*
X0092595Y0203933D01*
X0092989Y0204091D01*
X0095095Y0203933D01*
X0140095Y0203933D01*
X0142201Y0204091D01*
X0142201Y0223776D02*
X0142595Y0223933D01*
X0152595Y0223933D01*
X0152595Y0168933D01*
X0142595Y0168933D01*
X0142201Y0168776D01*
X0140095Y0168933D01*
X0095095Y0168933D01*
X0092989Y0168776D01*
X0092989Y0149091D02*
X0095095Y0148933D01*
X0140095Y0148933D01*
X0142201Y0149091D01*
X0152595Y0168933D02*
X0162595Y0168933D01*
X0162989Y0168776D01*
X0165095Y0168933D01*
X0210095Y0168933D01*
X0212201Y0168776D01*
X0212595Y0166433D01*
X0217595Y0166433D01*
X0217595Y0118933D01*
X0212595Y0118933D01*
X0202595Y0108933D01*
X0217595Y0103933D02*
X0170095Y0103933D01*
X0165095Y0108933D01*
X0162595Y0108933D01*
X0167595Y0103933D02*
X0102595Y0103933D01*
X0087595Y0118933D01*
X0082595Y0116433D02*
X0082595Y0123933D01*
X0157595Y0123933D01*
X0172595Y0108933D01*
X0167595Y0103933D02*
X0177595Y0093933D01*
X0182595Y0078933D02*
X0227595Y0033933D01*
X0217595Y0033933D02*
X0192595Y0058933D01*
X0197595Y0033933D02*
X0147595Y0083933D01*
X0090095Y0083933D01*
X0097595Y0101433D02*
X0082595Y0116433D01*
X0097595Y0101433D02*
X0120095Y0101433D01*
X0127595Y0093933D01*
X0137595Y0093933D02*
X0145095Y0086433D01*
X0227595Y0086433D01*
X0237595Y0096433D01*
X0237595Y0128933D01*
X0232595Y0128933D01*
X0232595Y0118933D02*
X0217595Y0118933D01*
X0217595Y0103933D02*
X0227595Y0093933D01*
X0212201Y0149091D02*
X0210095Y0148933D01*
X0165095Y0148933D01*
X0162989Y0149091D01*
X0165095Y0203933D02*
X0162989Y0204091D01*
X0165095Y0203933D02*
X0210095Y0203933D01*
X0212201Y0204091D01*
X0212201Y0223776D02*
X0210095Y0223933D01*
X0165095Y0223933D01*
X0162989Y0223776D01*
X0162595Y0223933D01*
X0152595Y0223933D01*
X0142201Y0223776D02*
X0140095Y0223933D01*
X0095095Y0223933D01*
X0092989Y0223776D01*
X0147595Y0253933D02*
X0152595Y0248933D01*
X0197595Y0248933D01*
X0217595Y0228933D01*
X0077595Y0053933D02*
X0097595Y0033933D01*
X0087595Y0033933D02*
X0077595Y0043933D01*
X0067595Y0043933D01*
X0067595Y0053933D02*
X0077595Y0053933D01*
D18*
X0182595Y0078933D03*
X0192595Y0058933D03*
X0217595Y0228933D03*
M02*
