G75*
%MOIN*%
%OFA0B0*%
%FSLAX25Y25*%
%IPPOS*%
%LPD*%
%AMOC8*
5,1,8,0,0,1.08239X$1,22.5*
%
%ADD10C,0.00000*%
%ADD11C,0.00500*%
D10*
X0052595Y0023933D02*
X0052595Y0417634D01*
X0249446Y0417634D01*
X0249446Y0023933D01*
X0052595Y0023933D01*
D11*
X0062365Y0031383D02*
X0062365Y0035887D01*
X0065368Y0035887D02*
X0062365Y0031383D01*
X0065368Y0031383D02*
X0065368Y0035887D01*
X0066936Y0035887D02*
X0068437Y0035887D01*
X0067687Y0035887D02*
X0067687Y0031383D01*
X0068437Y0031383D02*
X0066936Y0031383D01*
X0070039Y0032884D02*
X0070039Y0035887D01*
X0073041Y0035887D02*
X0073041Y0032884D01*
X0071540Y0031383D01*
X0070039Y0032884D01*
X0074643Y0033635D02*
X0077645Y0033635D01*
X0076144Y0035136D02*
X0076144Y0032134D01*
X0072291Y0061383D02*
X0070789Y0061383D01*
X0070039Y0062134D01*
X0070039Y0063635D01*
X0071540Y0063635D01*
X0073041Y0065136D02*
X0073041Y0062134D01*
X0072291Y0061383D01*
X0074643Y0063635D02*
X0077645Y0063635D01*
X0073041Y0065136D02*
X0072291Y0065887D01*
X0070789Y0065887D01*
X0070039Y0065136D01*
X0068437Y0065887D02*
X0068437Y0061383D01*
X0065435Y0061383D02*
X0065435Y0065887D01*
X0063833Y0065887D02*
X0061581Y0065887D01*
X0060831Y0065136D01*
X0060831Y0062134D01*
X0061581Y0061383D01*
X0063833Y0061383D01*
X0063833Y0065887D01*
X0068437Y0065887D02*
X0065435Y0061383D01*
X0065231Y0116383D02*
X0068233Y0116383D01*
X0068233Y0117134D01*
X0065231Y0120136D01*
X0065231Y0120887D01*
X0068233Y0120887D01*
X0069835Y0120887D02*
X0069835Y0117134D01*
X0070585Y0116383D01*
X0072087Y0116383D01*
X0072837Y0117134D01*
X0072837Y0120887D01*
X0074439Y0120136D02*
X0074439Y0119386D01*
X0075189Y0118635D01*
X0077441Y0118635D01*
X0079043Y0118635D02*
X0082045Y0118635D01*
X0080544Y0120136D02*
X0080544Y0117134D01*
X0077441Y0116383D02*
X0077441Y0120887D01*
X0075189Y0120887D01*
X0074439Y0120136D01*
X0075189Y0118635D02*
X0074439Y0117884D01*
X0074439Y0117134D01*
X0075189Y0116383D01*
X0077441Y0116383D01*
X0063629Y0116383D02*
X0060627Y0116383D01*
X0063629Y0116383D02*
X0063629Y0117134D01*
X0060627Y0120136D01*
X0060627Y0120887D01*
X0063629Y0120887D01*
X0114247Y0120736D02*
X0117249Y0117734D01*
X0117249Y0116983D01*
X0114247Y0116983D01*
X0114247Y0120736D02*
X0114247Y0121487D01*
X0117249Y0121487D01*
X0118850Y0121487D02*
X0118850Y0120736D01*
X0121853Y0117734D01*
X0121853Y0116983D01*
X0118850Y0116983D01*
X0118850Y0121487D02*
X0121853Y0121487D01*
X0123454Y0121487D02*
X0123454Y0117734D01*
X0124205Y0116983D01*
X0125706Y0116983D01*
X0126457Y0117734D01*
X0126457Y0121487D01*
X0128058Y0120736D02*
X0128058Y0119986D01*
X0128809Y0119235D01*
X0131061Y0119235D01*
X0132662Y0119235D02*
X0135665Y0119235D01*
X0131061Y0116983D02*
X0128809Y0116983D01*
X0128058Y0117734D01*
X0128058Y0118484D01*
X0128809Y0119235D01*
X0128058Y0120736D02*
X0128809Y0121487D01*
X0131061Y0121487D01*
X0131061Y0116983D01*
X0160045Y0117486D02*
X0164549Y0117486D01*
X0163048Y0115984D01*
X0164549Y0114483D01*
X0160045Y0114483D01*
X0160045Y0119087D02*
X0160045Y0120588D01*
X0160045Y0119838D02*
X0164549Y0119838D01*
X0164549Y0120588D02*
X0164549Y0119087D01*
X0163798Y0122156D02*
X0163048Y0122156D01*
X0162297Y0122907D01*
X0162297Y0124408D01*
X0161546Y0125159D01*
X0160796Y0125159D01*
X0160045Y0124408D01*
X0160045Y0122907D01*
X0160796Y0122156D01*
X0163798Y0122156D02*
X0164549Y0122907D01*
X0164549Y0124408D01*
X0163798Y0125159D01*
X0163798Y0126760D02*
X0160796Y0126760D01*
X0160045Y0127511D01*
X0160045Y0129012D01*
X0160796Y0129763D01*
X0163798Y0129763D01*
X0164549Y0129012D01*
X0164549Y0127511D01*
X0163798Y0126760D01*
X0170045Y0121339D02*
X0170045Y0119838D01*
X0170796Y0119087D01*
X0170796Y0117486D02*
X0170045Y0116735D01*
X0170045Y0115234D01*
X0170796Y0114483D01*
X0173798Y0114483D01*
X0174549Y0115234D01*
X0174549Y0116735D01*
X0173798Y0117486D01*
X0173798Y0119087D02*
X0173048Y0119087D01*
X0172297Y0119838D01*
X0172297Y0121339D01*
X0171546Y0122090D01*
X0170796Y0122090D01*
X0170045Y0121339D01*
X0173798Y0122090D02*
X0174549Y0121339D01*
X0174549Y0119838D01*
X0173798Y0119087D01*
X0180045Y0119838D02*
X0180045Y0121339D01*
X0180796Y0122090D01*
X0181546Y0123691D02*
X0184549Y0126693D01*
X0184549Y0123691D02*
X0180045Y0123691D01*
X0182297Y0124442D02*
X0180045Y0126693D01*
X0183798Y0122090D02*
X0184549Y0121339D01*
X0184549Y0119838D01*
X0183798Y0119087D01*
X0180796Y0119087D01*
X0180045Y0119838D01*
X0180796Y0117486D02*
X0180045Y0116735D01*
X0180045Y0115234D01*
X0180796Y0114483D01*
X0182297Y0115234D02*
X0182297Y0116735D01*
X0181546Y0117486D01*
X0180796Y0117486D01*
X0182297Y0115234D02*
X0183048Y0114483D01*
X0183798Y0114483D01*
X0184549Y0115234D01*
X0184549Y0116735D01*
X0183798Y0117486D01*
X0190045Y0116735D02*
X0190045Y0115234D01*
X0190796Y0114483D01*
X0192297Y0115984D02*
X0192297Y0116735D01*
X0191546Y0117486D01*
X0190796Y0117486D01*
X0190045Y0116735D01*
X0192297Y0116735D02*
X0193048Y0117486D01*
X0193798Y0117486D01*
X0194549Y0116735D01*
X0194549Y0115234D01*
X0193798Y0114483D01*
X0194549Y0119087D02*
X0191546Y0119087D01*
X0190045Y0120588D01*
X0191546Y0122090D01*
X0194549Y0122090D01*
X0193798Y0123691D02*
X0194549Y0124442D01*
X0194549Y0125943D01*
X0193798Y0126693D01*
X0193048Y0126693D01*
X0192297Y0125943D01*
X0191546Y0126693D01*
X0190796Y0126693D01*
X0190045Y0125943D01*
X0190045Y0124442D01*
X0190796Y0123691D01*
X0192297Y0125192D02*
X0192297Y0125943D01*
X0200045Y0125943D02*
X0200045Y0123691D01*
X0204549Y0123691D01*
X0204549Y0125943D01*
X0203798Y0126693D01*
X0200796Y0126693D01*
X0200045Y0125943D01*
X0200045Y0122090D02*
X0204549Y0122090D01*
X0204549Y0119087D02*
X0200045Y0119087D01*
X0200796Y0117486D02*
X0202297Y0117486D01*
X0202297Y0115984D01*
X0200796Y0114483D02*
X0200045Y0115234D01*
X0200045Y0116735D01*
X0200796Y0117486D01*
X0203798Y0117486D02*
X0204549Y0116735D01*
X0204549Y0115234D01*
X0203798Y0114483D01*
X0200796Y0114483D01*
X0204549Y0119087D02*
X0200045Y0122090D01*
X0216623Y0110887D02*
X0216623Y0110136D01*
X0218124Y0108635D01*
X0218124Y0106383D01*
X0218124Y0108635D02*
X0219626Y0110136D01*
X0219626Y0110887D01*
X0221227Y0109386D02*
X0221227Y0106383D01*
X0221227Y0108635D02*
X0224229Y0108635D01*
X0224229Y0109386D02*
X0222728Y0110887D01*
X0221227Y0109386D01*
X0224229Y0109386D02*
X0224229Y0106383D01*
X0225831Y0106383D02*
X0228833Y0106383D01*
X0228833Y0110887D01*
X0230435Y0110887D02*
X0233437Y0110887D01*
X0233437Y0106383D01*
X0230435Y0106383D01*
X0231936Y0108635D02*
X0233437Y0108635D01*
X0235039Y0108635D02*
X0235789Y0107884D01*
X0238041Y0107884D01*
X0238041Y0106383D02*
X0238041Y0110887D01*
X0235789Y0110887D01*
X0235039Y0110136D01*
X0235039Y0108635D01*
X0236540Y0107884D02*
X0235039Y0106383D01*
X0239643Y0108635D02*
X0242645Y0108635D01*
X0238041Y0136383D02*
X0238041Y0140887D01*
X0235789Y0140887D01*
X0235039Y0140136D01*
X0235039Y0138635D01*
X0235789Y0137884D01*
X0238041Y0137884D01*
X0236540Y0137884D02*
X0235039Y0136383D01*
X0233437Y0136383D02*
X0233437Y0140887D01*
X0230435Y0140887D01*
X0228833Y0140887D02*
X0228833Y0136383D01*
X0225831Y0136383D01*
X0224229Y0136383D02*
X0224229Y0139386D01*
X0222728Y0140887D01*
X0221227Y0139386D01*
X0221227Y0136383D01*
X0221227Y0138635D02*
X0224229Y0138635D01*
X0219626Y0140136D02*
X0218124Y0138635D01*
X0218124Y0136383D01*
X0218124Y0138635D02*
X0216623Y0140136D01*
X0216623Y0140887D01*
X0219626Y0140887D02*
X0219626Y0140136D01*
X0230435Y0136383D02*
X0233437Y0136383D01*
X0233437Y0138635D02*
X0231936Y0138635D01*
X0239643Y0138635D02*
X0242645Y0138635D01*
X0241144Y0140136D02*
X0241144Y0137134D01*
M02*
