G75*
%MOIN*%
%OFA0B0*%
%FSLAX25Y25*%
%IPPOS*%
%LPD*%
%AMOC8*
5,1,8,0,0,1.08239X$1,22.5*
%
%ADD10C,0.00000*%
%ADD11R,0.07480X0.05512*%
%ADD12R,0.05512X0.07087*%
%ADD13R,0.05906X0.02756*%
%ADD14R,0.03937X0.05512*%
%ADD15R,0.05118X0.05906*%
%ADD16R,0.02200X0.07800*%
%ADD17C,0.02165*%
%ADD18R,0.06299X0.05118*%
%ADD19R,0.09488X0.10669*%
%ADD20R,0.03150X0.03937*%
%ADD21C,0.00815*%
D10*
X0057595Y0123933D02*
X0057595Y0451610D01*
X0227871Y0451610D01*
X0227871Y0123933D01*
X0057595Y0123933D01*
D11*
X0060745Y0370390D03*
X0064288Y0422358D03*
D12*
X0115863Y0416059D03*
X0115863Y0392437D03*
D13*
X0077280Y0392831D03*
X0075705Y0397161D03*
X0074131Y0401492D03*
X0075705Y0405823D03*
X0074131Y0410154D03*
X0075705Y0414484D03*
X0075705Y0418815D03*
X0075705Y0388500D03*
X0215705Y0372791D03*
X0215705Y0366886D03*
X0215705Y0355075D03*
D14*
X0171335Y0383264D03*
X0167595Y0374602D03*
X0163855Y0383264D03*
D15*
X0163855Y0393933D03*
X0171335Y0393933D03*
D16*
X0150095Y0393633D03*
X0145095Y0393633D03*
X0140095Y0393633D03*
X0135095Y0393633D03*
X0135095Y0374233D03*
X0140095Y0374233D03*
X0145095Y0374233D03*
X0150095Y0374233D03*
D17*
X0113895Y0191315D02*
X0110745Y0191315D01*
X0110745Y0191315D01*
X0113895Y0191315D01*
X0113895Y0191315D01*
X0113895Y0186394D02*
X0110745Y0186394D01*
X0110745Y0186394D01*
X0113895Y0186394D01*
X0113895Y0186394D01*
X0113895Y0181472D02*
X0110745Y0181472D01*
X0110745Y0181472D01*
X0113895Y0181472D01*
X0113895Y0181472D01*
X0113895Y0176551D02*
X0110745Y0176551D01*
X0110745Y0176551D01*
X0113895Y0176551D01*
X0113895Y0176551D01*
X0104446Y0176551D02*
X0101296Y0176551D01*
X0101296Y0176551D01*
X0104446Y0176551D01*
X0104446Y0176551D01*
X0104446Y0181472D02*
X0101296Y0181472D01*
X0101296Y0181472D01*
X0104446Y0181472D01*
X0104446Y0181472D01*
X0104446Y0186394D02*
X0101296Y0186394D01*
X0101296Y0186394D01*
X0104446Y0186394D01*
X0104446Y0186394D01*
X0104446Y0191315D02*
X0101296Y0191315D01*
X0101296Y0191315D01*
X0104446Y0191315D01*
X0104446Y0191315D01*
D18*
X0092595Y0192870D03*
X0092595Y0184996D03*
D19*
X0082595Y0322594D03*
X0082595Y0355272D03*
D20*
X0218264Y0349563D03*
X0226926Y0349563D03*
X0226926Y0378303D03*
X0218264Y0378303D03*
D21*
X0217689Y0199579D02*
X0210235Y0199579D01*
X0217689Y0199579D02*
X0217689Y0194961D01*
X0210235Y0194961D01*
X0210235Y0199579D01*
X0210235Y0195775D02*
X0217689Y0195775D01*
X0217689Y0196589D02*
X0210235Y0196589D01*
X0210235Y0197403D02*
X0217689Y0197403D01*
X0217689Y0198217D02*
X0210235Y0198217D01*
X0210235Y0199031D02*
X0217689Y0199031D01*
X0217689Y0181941D02*
X0210235Y0181941D01*
X0217689Y0181941D02*
X0217689Y0177323D01*
X0210235Y0177323D01*
X0210235Y0181941D01*
X0210235Y0178137D02*
X0217689Y0178137D01*
X0217689Y0178951D02*
X0210235Y0178951D01*
X0210235Y0179765D02*
X0217689Y0179765D01*
X0217689Y0180579D02*
X0210235Y0180579D01*
X0210235Y0181393D02*
X0217689Y0181393D01*
X0217689Y0175169D02*
X0210235Y0175169D01*
X0217689Y0175169D02*
X0217689Y0170551D01*
X0210235Y0170551D01*
X0210235Y0175169D01*
X0210235Y0171365D02*
X0217689Y0171365D01*
X0217689Y0172179D02*
X0210235Y0172179D01*
X0210235Y0172993D02*
X0217689Y0172993D01*
X0217689Y0173807D02*
X0210235Y0173807D01*
X0210235Y0174621D02*
X0217689Y0174621D01*
X0217689Y0157531D02*
X0210235Y0157531D01*
X0217689Y0157531D02*
X0217689Y0152913D01*
X0210235Y0152913D01*
X0210235Y0157531D01*
X0210235Y0153727D02*
X0217689Y0153727D01*
X0217689Y0154541D02*
X0210235Y0154541D01*
X0210235Y0155355D02*
X0217689Y0155355D01*
X0217689Y0156169D02*
X0210235Y0156169D01*
X0210235Y0156983D02*
X0217689Y0156983D01*
X0217689Y0150760D02*
X0210235Y0150760D01*
X0217689Y0150760D02*
X0217689Y0146142D01*
X0210235Y0146142D01*
X0210235Y0150760D01*
X0210235Y0146956D02*
X0217689Y0146956D01*
X0217689Y0147770D02*
X0210235Y0147770D01*
X0210235Y0148584D02*
X0217689Y0148584D01*
X0217689Y0149398D02*
X0210235Y0149398D01*
X0210235Y0150212D02*
X0217689Y0150212D01*
X0217689Y0133122D02*
X0210235Y0133122D01*
X0217689Y0133122D02*
X0217689Y0128504D01*
X0210235Y0128504D01*
X0210235Y0133122D01*
X0210235Y0129318D02*
X0217689Y0129318D01*
X0217689Y0130132D02*
X0210235Y0130132D01*
X0210235Y0130946D02*
X0217689Y0130946D01*
X0217689Y0131760D02*
X0210235Y0131760D01*
X0210235Y0132574D02*
X0217689Y0132574D01*
X0181862Y0133122D02*
X0174408Y0133122D01*
X0181862Y0133122D02*
X0181862Y0128504D01*
X0174408Y0128504D01*
X0174408Y0133122D01*
X0174408Y0129318D02*
X0181862Y0129318D01*
X0181862Y0130132D02*
X0174408Y0130132D01*
X0174408Y0130946D02*
X0181862Y0130946D01*
X0181862Y0131760D02*
X0174408Y0131760D01*
X0174408Y0132574D02*
X0181862Y0132574D01*
X0181862Y0150760D02*
X0174408Y0150760D01*
X0181862Y0150760D02*
X0181862Y0146142D01*
X0174408Y0146142D01*
X0174408Y0150760D01*
X0174408Y0146956D02*
X0181862Y0146956D01*
X0181862Y0147770D02*
X0174408Y0147770D01*
X0174408Y0148584D02*
X0181862Y0148584D01*
X0181862Y0149398D02*
X0174408Y0149398D01*
X0174408Y0150212D02*
X0181862Y0150212D01*
X0181862Y0157531D02*
X0174408Y0157531D01*
X0181862Y0157531D02*
X0181862Y0152913D01*
X0174408Y0152913D01*
X0174408Y0157531D01*
X0174408Y0153727D02*
X0181862Y0153727D01*
X0181862Y0154541D02*
X0174408Y0154541D01*
X0174408Y0155355D02*
X0181862Y0155355D01*
X0181862Y0156169D02*
X0174408Y0156169D01*
X0174408Y0156983D02*
X0181862Y0156983D01*
X0181862Y0175169D02*
X0174408Y0175169D01*
X0181862Y0175169D02*
X0181862Y0170551D01*
X0174408Y0170551D01*
X0174408Y0175169D01*
X0174408Y0171365D02*
X0181862Y0171365D01*
X0181862Y0172179D02*
X0174408Y0172179D01*
X0174408Y0172993D02*
X0181862Y0172993D01*
X0181862Y0173807D02*
X0174408Y0173807D01*
X0174408Y0174621D02*
X0181862Y0174621D01*
X0181862Y0181941D02*
X0174408Y0181941D01*
X0181862Y0181941D02*
X0181862Y0177323D01*
X0174408Y0177323D01*
X0174408Y0181941D01*
X0174408Y0178137D02*
X0181862Y0178137D01*
X0181862Y0178951D02*
X0174408Y0178951D01*
X0174408Y0179765D02*
X0181862Y0179765D01*
X0181862Y0180579D02*
X0174408Y0180579D01*
X0174408Y0181393D02*
X0181862Y0181393D01*
X0181862Y0199579D02*
X0174408Y0199579D01*
X0181862Y0199579D02*
X0181862Y0194961D01*
X0174408Y0194961D01*
X0174408Y0199579D01*
X0174408Y0195775D02*
X0181862Y0195775D01*
X0181862Y0196589D02*
X0174408Y0196589D01*
X0174408Y0197403D02*
X0181862Y0197403D01*
X0181862Y0198217D02*
X0174408Y0198217D01*
X0174408Y0199031D02*
X0181862Y0199031D01*
M02*
