%
M48
M72
T01C0.01378
T02C0.03543
T03C0.04000
%
T01
X70195Y170133
X83395Y176133
X86395Y178533
X106195Y173733
X120595Y162933
X145195Y155733
X155995Y152733
X161395Y179133
X171595Y150333
X118795Y206733
X77395Y248133
X71995Y229533
X74395Y224733
X69595Y222333
X95995Y315933
X110995Y357933
X115795Y360333
X134995Y383133
X146395Y387333
X149995Y387333
X210595Y369333
X71995Y392733
X68995Y410733
T02
X222595Y369839
X222595Y358028
T03
X107595Y313022
X117595Y313022
X127595Y313022
X137595Y313022
X147595Y313022
X157595Y313022
X167595Y313022
X177595Y313022
X142595Y278933
X142595Y268933
X142595Y258933
X142595Y248933
X142595Y238933
X142595Y228933
X142595Y218933
X142595Y208933
X142595Y198933
X142595Y188933
X142595Y178933
X142595Y168933
X62595Y168933
X62595Y158933
X62595Y148933
X62595Y138933
X62595Y128933
X62595Y178933
X62595Y188933
X62595Y198933
X62595Y208933
X62595Y218933
X62595Y228933
X62595Y238933
X62595Y248933
X62595Y258933
X62595Y268933
X62595Y278933
M30
