G75*
%MOIN*%
%OFA0B0*%
%FSLAX25Y25*%
%IPPOS*%
%LPD*%
%AMOC8*
5,1,8,0,0,1.08239X$1,22.5*
%
%ADD10C,0.00000*%
%ADD11C,0.05543*%
%ADD12OC8,0.10000*%
%ADD13C,0.00600*%
%ADD14C,0.02978*%
D10*
X0057595Y0123933D02*
X0057595Y0451610D01*
X0227871Y0451610D01*
X0227871Y0123933D01*
X0057595Y0123933D01*
D11*
X0222595Y0358028D03*
X0222595Y0369839D03*
D12*
X0177595Y0313022D03*
X0167595Y0313022D03*
X0157595Y0313022D03*
X0147595Y0313022D03*
X0137595Y0313022D03*
X0127595Y0313022D03*
X0117595Y0313022D03*
X0107595Y0313022D03*
X0142595Y0278933D03*
X0142595Y0268933D03*
X0142595Y0258933D03*
X0142595Y0248933D03*
X0142595Y0238933D03*
X0142595Y0228933D03*
X0142595Y0218933D03*
X0142595Y0208933D03*
X0142595Y0198933D03*
X0142595Y0188933D03*
X0142595Y0178933D03*
X0142595Y0168933D03*
X0062595Y0168933D03*
X0062595Y0158933D03*
X0062595Y0148933D03*
X0062595Y0138933D03*
X0062595Y0128933D03*
X0062595Y0178933D03*
X0062595Y0188933D03*
X0062595Y0198933D03*
X0062595Y0208933D03*
X0062595Y0218933D03*
X0062595Y0228933D03*
X0062595Y0238933D03*
X0062595Y0248933D03*
X0062595Y0258933D03*
X0062595Y0268933D03*
X0062595Y0278933D03*
D13*
X0068995Y0255333D02*
X0062595Y0248933D01*
X0062595Y0238933D02*
X0068995Y0232533D01*
X0068995Y0228933D01*
X0073195Y0224733D01*
X0074395Y0224733D01*
X0074995Y0227733D02*
X0079795Y0222933D01*
X0079795Y0220533D01*
X0078595Y0219333D01*
X0072595Y0219333D01*
X0069595Y0222333D01*
X0068995Y0218733D02*
X0062995Y0218733D01*
X0062595Y0218933D01*
X0068995Y0218733D02*
X0083395Y0204333D01*
X0119995Y0204333D01*
X0121195Y0205533D01*
X0121195Y0207933D01*
X0093595Y0235533D01*
X0093595Y0317133D01*
X0113395Y0336933D01*
X0113395Y0361533D01*
X0134995Y0383133D01*
X0146395Y0387333D02*
X0146395Y0324333D01*
X0157195Y0313533D01*
X0157595Y0313022D01*
X0147595Y0313022D02*
X0147595Y0313533D01*
X0115795Y0345333D01*
X0115795Y0360333D01*
X0145195Y0389733D01*
X0147595Y0389733D01*
X0149995Y0387333D01*
X0110995Y0357933D02*
X0110995Y0336333D01*
X0074995Y0300333D01*
X0074995Y0227733D01*
X0071995Y0229533D02*
X0071995Y0392733D01*
X0068995Y0410733D02*
X0068995Y0255333D01*
X0077395Y0248133D02*
X0118795Y0206733D01*
X0136195Y0194733D02*
X0136195Y0174933D01*
X0142195Y0168933D01*
X0142595Y0168933D01*
X0145195Y0162933D02*
X0120595Y0162933D01*
X0124195Y0155733D02*
X0106195Y0173733D01*
X0095995Y0178533D02*
X0124195Y0150333D01*
X0171595Y0150333D01*
X0155995Y0152733D02*
X0123595Y0152733D01*
X0087595Y0188733D01*
X0062995Y0188733D01*
X0062595Y0188933D01*
X0064195Y0170133D02*
X0062995Y0168933D01*
X0062595Y0168933D01*
X0064195Y0170133D02*
X0070195Y0170133D01*
X0062595Y0158933D02*
X0082195Y0178533D01*
X0086395Y0178533D01*
X0095995Y0178533D01*
X0083395Y0176133D02*
X0083395Y0159333D01*
X0062995Y0138933D01*
X0062595Y0138933D01*
X0136195Y0194733D02*
X0095995Y0234933D01*
X0095995Y0315933D01*
X0107595Y0313022D02*
X0107995Y0312933D01*
X0107995Y0253533D01*
X0142595Y0218933D01*
X0142595Y0228933D02*
X0142795Y0228933D01*
X0148795Y0234933D01*
X0148795Y0283533D01*
X0127795Y0304533D01*
X0127795Y0312933D01*
X0127595Y0313022D01*
X0117595Y0313022D02*
X0117595Y0273933D01*
X0142595Y0248933D01*
X0210595Y0246933D02*
X0142595Y0178933D01*
X0145195Y0162933D02*
X0161395Y0179133D01*
X0145195Y0155733D02*
X0124195Y0155733D01*
X0210595Y0246933D02*
X0210595Y0369333D01*
D14*
X0210595Y0369333D03*
X0149995Y0387333D03*
X0146395Y0387333D03*
X0134995Y0383133D03*
X0115795Y0360333D03*
X0110995Y0357933D03*
X0095995Y0315933D03*
X0077395Y0248133D03*
X0071995Y0229533D03*
X0074395Y0224733D03*
X0069595Y0222333D03*
X0086395Y0178533D03*
X0083395Y0176133D03*
X0070195Y0170133D03*
X0106195Y0173733D03*
X0120595Y0162933D03*
X0145195Y0155733D03*
X0155995Y0152733D03*
X0161395Y0179133D03*
X0171595Y0150333D03*
X0118795Y0206733D03*
X0071995Y0392733D03*
X0068995Y0410733D03*
M02*
