G75*
%MOIN*%
%OFA0B0*%
%FSLAX25Y25*%
%IPPOS*%
%LPD*%
%AMOC8*
5,1,8,0,0,1.08239X$1,22.5*
%
%ADD10C,0.00000*%
%ADD11C,0.06343*%
%ADD12OC8,0.10800*%
%ADD13C,0.03778*%
D10*
X0057595Y0123933D02*
X0057595Y0451610D01*
X0227871Y0451610D01*
X0227871Y0123933D01*
X0057595Y0123933D01*
D11*
X0222595Y0358028D03*
X0222595Y0369839D03*
D12*
X0177595Y0313022D03*
X0167595Y0313022D03*
X0157595Y0313022D03*
X0147595Y0313022D03*
X0137595Y0313022D03*
X0127595Y0313022D03*
X0117595Y0313022D03*
X0107595Y0313022D03*
X0142595Y0278933D03*
X0142595Y0268933D03*
X0142595Y0258933D03*
X0142595Y0248933D03*
X0142595Y0238933D03*
X0142595Y0228933D03*
X0142595Y0218933D03*
X0142595Y0208933D03*
X0142595Y0198933D03*
X0142595Y0188933D03*
X0142595Y0178933D03*
X0142595Y0168933D03*
X0062595Y0168933D03*
X0062595Y0158933D03*
X0062595Y0148933D03*
X0062595Y0138933D03*
X0062595Y0128933D03*
X0062595Y0178933D03*
X0062595Y0188933D03*
X0062595Y0198933D03*
X0062595Y0208933D03*
X0062595Y0218933D03*
X0062595Y0228933D03*
X0062595Y0238933D03*
X0062595Y0248933D03*
X0062595Y0258933D03*
X0062595Y0268933D03*
X0062595Y0278933D03*
D13*
X0077395Y0248133D03*
X0071995Y0229533D03*
X0074395Y0224733D03*
X0069595Y0222333D03*
X0086395Y0178533D03*
X0083395Y0176133D03*
X0070195Y0170133D03*
X0106195Y0173733D03*
X0120595Y0162933D03*
X0145195Y0155733D03*
X0155995Y0152733D03*
X0161395Y0179133D03*
X0171595Y0150333D03*
X0118795Y0206733D03*
X0095995Y0315933D03*
X0110995Y0357933D03*
X0115795Y0360333D03*
X0134995Y0383133D03*
X0146395Y0387333D03*
X0149995Y0387333D03*
X0210595Y0369333D03*
X0071995Y0392733D03*
X0068995Y0410733D03*
M02*
