G75*
%MOIN*%
%OFA0B0*%
%FSLAX25Y25*%
%IPPOS*%
%LPD*%
%AMOC8*
5,1,8,0,0,1.08239X$1,22.5*
%
%ADD10C,0.00000*%
%ADD11C,0.00600*%
%ADD12C,0.00200*%
%ADD13C,0.00500*%
%ADD14C,0.00400*%
%ADD15R,0.02559X0.05512*%
%ADD16C,0.00800*%
%ADD17C,0.00787*%
%ADD18C,0.01969*%
%ADD19C,0.00100*%
%ADD20C,0.00300*%
%ADD21C,0.01000*%
D10*
X0057595Y0123933D02*
X0057595Y0383776D01*
X0207201Y0383776D01*
X0207201Y0123933D01*
X0057595Y0123933D01*
X0107795Y0182733D02*
X0107864Y0182735D01*
X0107932Y0182741D01*
X0108000Y0182751D01*
X0108067Y0182764D01*
X0108133Y0182782D01*
X0108198Y0182803D01*
X0108262Y0182828D01*
X0108324Y0182856D01*
X0108385Y0182888D01*
X0108444Y0182923D01*
X0108500Y0182962D01*
X0108555Y0183004D01*
X0108606Y0183049D01*
X0108656Y0183097D01*
X0108702Y0183147D01*
X0108745Y0183200D01*
X0108786Y0183256D01*
X0108823Y0183313D01*
X0108856Y0183373D01*
X0108887Y0183435D01*
X0108913Y0183498D01*
X0108936Y0183562D01*
X0108956Y0183628D01*
X0108971Y0183695D01*
X0108983Y0183762D01*
X0108991Y0183830D01*
X0108995Y0183899D01*
X0108995Y0183967D01*
X0108991Y0184036D01*
X0108983Y0184104D01*
X0108971Y0184171D01*
X0108956Y0184238D01*
X0108936Y0184304D01*
X0108913Y0184368D01*
X0108887Y0184431D01*
X0108856Y0184493D01*
X0108823Y0184553D01*
X0108786Y0184610D01*
X0108745Y0184666D01*
X0108702Y0184719D01*
X0108656Y0184769D01*
X0108606Y0184817D01*
X0108555Y0184862D01*
X0108500Y0184904D01*
X0108444Y0184943D01*
X0108385Y0184978D01*
X0108324Y0185010D01*
X0108262Y0185038D01*
X0108198Y0185063D01*
X0108133Y0185084D01*
X0108067Y0185102D01*
X0108000Y0185115D01*
X0107932Y0185125D01*
X0107864Y0185131D01*
X0107795Y0185133D01*
X0192438Y0133776D02*
X0192440Y0133916D01*
X0192446Y0134056D01*
X0192456Y0134195D01*
X0192470Y0134334D01*
X0192488Y0134473D01*
X0192509Y0134611D01*
X0192535Y0134749D01*
X0192565Y0134886D01*
X0192598Y0135021D01*
X0192636Y0135156D01*
X0192677Y0135290D01*
X0192722Y0135423D01*
X0192770Y0135554D01*
X0192823Y0135683D01*
X0192879Y0135812D01*
X0192938Y0135938D01*
X0193002Y0136063D01*
X0193068Y0136186D01*
X0193139Y0136307D01*
X0193212Y0136426D01*
X0193289Y0136543D01*
X0193370Y0136657D01*
X0193453Y0136769D01*
X0193540Y0136879D01*
X0193630Y0136987D01*
X0193722Y0137091D01*
X0193818Y0137193D01*
X0193917Y0137293D01*
X0194018Y0137389D01*
X0194122Y0137483D01*
X0194229Y0137573D01*
X0194338Y0137660D01*
X0194450Y0137745D01*
X0194564Y0137826D01*
X0194680Y0137904D01*
X0194798Y0137978D01*
X0194919Y0138049D01*
X0195041Y0138117D01*
X0195166Y0138181D01*
X0195292Y0138242D01*
X0195419Y0138299D01*
X0195549Y0138352D01*
X0195680Y0138402D01*
X0195812Y0138447D01*
X0195945Y0138490D01*
X0196080Y0138528D01*
X0196215Y0138562D01*
X0196352Y0138593D01*
X0196489Y0138620D01*
X0196627Y0138642D01*
X0196766Y0138661D01*
X0196905Y0138676D01*
X0197044Y0138687D01*
X0197184Y0138694D01*
X0197324Y0138697D01*
X0197464Y0138696D01*
X0197604Y0138691D01*
X0197743Y0138682D01*
X0197883Y0138669D01*
X0198022Y0138652D01*
X0198160Y0138631D01*
X0198298Y0138607D01*
X0198435Y0138578D01*
X0198571Y0138546D01*
X0198706Y0138509D01*
X0198840Y0138469D01*
X0198973Y0138425D01*
X0199104Y0138377D01*
X0199234Y0138326D01*
X0199363Y0138271D01*
X0199490Y0138212D01*
X0199615Y0138149D01*
X0199738Y0138084D01*
X0199860Y0138014D01*
X0199979Y0137941D01*
X0200097Y0137865D01*
X0200212Y0137786D01*
X0200325Y0137703D01*
X0200435Y0137617D01*
X0200543Y0137528D01*
X0200648Y0137436D01*
X0200751Y0137341D01*
X0200851Y0137243D01*
X0200948Y0137143D01*
X0201042Y0137039D01*
X0201134Y0136933D01*
X0201222Y0136825D01*
X0201307Y0136714D01*
X0201389Y0136600D01*
X0201468Y0136484D01*
X0201543Y0136367D01*
X0201615Y0136247D01*
X0201683Y0136125D01*
X0201748Y0136001D01*
X0201810Y0135875D01*
X0201868Y0135748D01*
X0201922Y0135619D01*
X0201973Y0135488D01*
X0202019Y0135356D01*
X0202062Y0135223D01*
X0202102Y0135089D01*
X0202137Y0134954D01*
X0202169Y0134817D01*
X0202196Y0134680D01*
X0202220Y0134542D01*
X0202240Y0134404D01*
X0202256Y0134265D01*
X0202268Y0134125D01*
X0202276Y0133986D01*
X0202280Y0133846D01*
X0202280Y0133706D01*
X0202276Y0133566D01*
X0202268Y0133427D01*
X0202256Y0133287D01*
X0202240Y0133148D01*
X0202220Y0133010D01*
X0202196Y0132872D01*
X0202169Y0132735D01*
X0202137Y0132598D01*
X0202102Y0132463D01*
X0202062Y0132329D01*
X0202019Y0132196D01*
X0201973Y0132064D01*
X0201922Y0131933D01*
X0201868Y0131804D01*
X0201810Y0131677D01*
X0201748Y0131551D01*
X0201683Y0131427D01*
X0201615Y0131305D01*
X0201543Y0131185D01*
X0201468Y0131068D01*
X0201389Y0130952D01*
X0201307Y0130838D01*
X0201222Y0130727D01*
X0201134Y0130619D01*
X0201042Y0130513D01*
X0200948Y0130409D01*
X0200851Y0130309D01*
X0200751Y0130211D01*
X0200648Y0130116D01*
X0200543Y0130024D01*
X0200435Y0129935D01*
X0200325Y0129849D01*
X0200212Y0129766D01*
X0200097Y0129687D01*
X0199979Y0129611D01*
X0199860Y0129538D01*
X0199738Y0129468D01*
X0199615Y0129403D01*
X0199490Y0129340D01*
X0199363Y0129281D01*
X0199234Y0129226D01*
X0199104Y0129175D01*
X0198973Y0129127D01*
X0198840Y0129083D01*
X0198706Y0129043D01*
X0198571Y0129006D01*
X0198435Y0128974D01*
X0198298Y0128945D01*
X0198160Y0128921D01*
X0198022Y0128900D01*
X0197883Y0128883D01*
X0197743Y0128870D01*
X0197604Y0128861D01*
X0197464Y0128856D01*
X0197324Y0128855D01*
X0197184Y0128858D01*
X0197044Y0128865D01*
X0196905Y0128876D01*
X0196766Y0128891D01*
X0196627Y0128910D01*
X0196489Y0128932D01*
X0196352Y0128959D01*
X0196215Y0128990D01*
X0196080Y0129024D01*
X0195945Y0129062D01*
X0195812Y0129105D01*
X0195680Y0129150D01*
X0195549Y0129200D01*
X0195419Y0129253D01*
X0195292Y0129310D01*
X0195166Y0129371D01*
X0195041Y0129435D01*
X0194919Y0129503D01*
X0194798Y0129574D01*
X0194680Y0129648D01*
X0194564Y0129726D01*
X0194450Y0129807D01*
X0194338Y0129892D01*
X0194229Y0129979D01*
X0194122Y0130069D01*
X0194018Y0130163D01*
X0193917Y0130259D01*
X0193818Y0130359D01*
X0193722Y0130461D01*
X0193630Y0130565D01*
X0193540Y0130673D01*
X0193453Y0130783D01*
X0193370Y0130895D01*
X0193289Y0131009D01*
X0193212Y0131126D01*
X0193139Y0131245D01*
X0193068Y0131366D01*
X0193002Y0131489D01*
X0192938Y0131614D01*
X0192879Y0131740D01*
X0192823Y0131869D01*
X0192770Y0131998D01*
X0192722Y0132129D01*
X0192677Y0132262D01*
X0192636Y0132396D01*
X0192598Y0132531D01*
X0192565Y0132666D01*
X0192535Y0132803D01*
X0192509Y0132941D01*
X0192488Y0133079D01*
X0192470Y0133218D01*
X0192456Y0133357D01*
X0192446Y0133496D01*
X0192440Y0133636D01*
X0192438Y0133776D01*
D11*
X0195890Y0214233D02*
X0195890Y0217436D01*
X0196957Y0218503D01*
X0199092Y0218503D01*
X0200160Y0217436D01*
X0200160Y0214233D01*
X0202295Y0214233D02*
X0195890Y0214233D01*
X0195890Y0220679D02*
X0195890Y0223881D01*
X0196957Y0224949D01*
X0199092Y0224949D01*
X0200160Y0223881D01*
X0200160Y0220679D01*
X0200160Y0222814D02*
X0202295Y0224949D01*
X0201228Y0227124D02*
X0202295Y0228192D01*
X0202295Y0230327D01*
X0201228Y0231394D01*
X0196957Y0231394D01*
X0195890Y0230327D01*
X0195890Y0228192D01*
X0196957Y0227124D01*
X0201228Y0227124D01*
X0202295Y0220679D02*
X0195890Y0220679D01*
X0195890Y0233570D02*
X0195890Y0237840D01*
X0195890Y0235705D02*
X0202295Y0235705D01*
X0201228Y0240015D02*
X0202295Y0241083D01*
X0202295Y0243218D01*
X0201228Y0244285D01*
X0196957Y0244285D01*
X0195890Y0243218D01*
X0195890Y0241083D01*
X0196957Y0240015D01*
X0201228Y0240015D01*
X0195890Y0246461D02*
X0195890Y0250731D01*
X0195890Y0248596D02*
X0202295Y0248596D01*
X0202295Y0255041D02*
X0199092Y0255041D01*
X0196957Y0257176D01*
X0195890Y0257176D01*
X0195890Y0259352D02*
X0195890Y0262554D01*
X0196957Y0263622D01*
X0199092Y0263622D01*
X0200160Y0262554D01*
X0200160Y0259352D01*
X0202295Y0259352D02*
X0195890Y0259352D01*
X0199092Y0255041D02*
X0196957Y0252906D01*
X0195890Y0252906D01*
X0195890Y0265797D02*
X0202295Y0265797D01*
X0202295Y0270067D01*
X0202295Y0272243D02*
X0195890Y0272243D01*
X0195890Y0274378D01*
X0199092Y0276540D02*
X0195890Y0279742D01*
X0202295Y0279742D01*
X0202295Y0282985D02*
X0202295Y0285120D01*
X0195890Y0285120D01*
X0195890Y0282985D01*
X0199092Y0280810D02*
X0199092Y0276540D01*
X0202295Y0274378D02*
X0202295Y0272243D01*
X0199092Y0267932D02*
X0199092Y0265797D01*
X0195890Y0265797D02*
X0195890Y0270067D01*
X0197890Y0353451D02*
X0197890Y0356654D01*
X0198957Y0357721D01*
X0200025Y0357721D01*
X0201092Y0356654D01*
X0201092Y0353451D01*
X0197890Y0353451D02*
X0204295Y0353451D01*
X0204295Y0356654D01*
X0203228Y0357721D01*
X0202160Y0357721D01*
X0201092Y0356654D01*
X0203228Y0359897D02*
X0204295Y0360964D01*
X0204295Y0363099D01*
X0203228Y0364167D01*
X0197890Y0364167D01*
X0198957Y0366342D02*
X0197890Y0367410D01*
X0197890Y0369545D01*
X0198957Y0370612D01*
X0198957Y0372788D02*
X0197890Y0372788D01*
X0198957Y0372788D02*
X0201092Y0374923D01*
X0204295Y0374923D01*
X0201092Y0374923D02*
X0198957Y0377058D01*
X0197890Y0377058D01*
X0194295Y0374923D02*
X0187890Y0374923D01*
X0187890Y0372788D02*
X0187890Y0377058D01*
X0184295Y0375990D02*
X0184295Y0373855D01*
X0183228Y0372788D01*
X0178957Y0372788D01*
X0177890Y0373855D01*
X0177890Y0375990D01*
X0178957Y0377058D01*
X0183228Y0377058D02*
X0184295Y0375990D01*
X0183228Y0370612D02*
X0178957Y0370612D01*
X0177890Y0369545D01*
X0177890Y0366342D01*
X0184295Y0366342D01*
X0184295Y0369545D01*
X0183228Y0370612D01*
X0187890Y0369545D02*
X0187890Y0367410D01*
X0188957Y0366342D01*
X0190025Y0366342D01*
X0191092Y0367410D01*
X0191092Y0369545D01*
X0192160Y0370612D01*
X0193228Y0370612D01*
X0194295Y0369545D01*
X0194295Y0367410D01*
X0193228Y0366342D01*
X0194295Y0364167D02*
X0192160Y0362032D01*
X0192160Y0363099D02*
X0192160Y0359897D01*
X0194295Y0359897D02*
X0187890Y0359897D01*
X0187890Y0363099D01*
X0188957Y0364167D01*
X0191092Y0364167D01*
X0192160Y0363099D01*
X0187890Y0369545D02*
X0188957Y0370612D01*
X0197890Y0359897D02*
X0203228Y0359897D01*
X0203228Y0366342D02*
X0204295Y0367410D01*
X0204295Y0369545D01*
X0203228Y0370612D01*
X0202160Y0370612D01*
X0201092Y0369545D01*
X0201092Y0367410D01*
X0200025Y0366342D01*
X0198957Y0366342D01*
X0174295Y0367410D02*
X0173228Y0366342D01*
X0168957Y0366342D01*
X0167890Y0367410D01*
X0167890Y0369545D01*
X0168957Y0370612D01*
X0168957Y0372788D02*
X0170025Y0372788D01*
X0171092Y0373855D01*
X0171092Y0375990D01*
X0172160Y0377058D01*
X0173228Y0377058D01*
X0174295Y0375990D01*
X0174295Y0373855D01*
X0173228Y0372788D01*
X0173228Y0370612D02*
X0174295Y0369545D01*
X0174295Y0367410D01*
X0168957Y0372788D02*
X0167890Y0373855D01*
X0167890Y0375990D01*
X0168957Y0377058D01*
X0164295Y0377058D02*
X0161092Y0373855D01*
X0162160Y0372788D02*
X0157890Y0377058D01*
X0157890Y0372788D02*
X0164295Y0372788D01*
X0163228Y0370612D02*
X0164295Y0369545D01*
X0164295Y0367410D01*
X0163228Y0366342D01*
X0158957Y0366342D01*
X0157890Y0367410D01*
X0157890Y0369545D01*
X0158957Y0370612D01*
X0158957Y0364167D02*
X0157890Y0363099D01*
X0157890Y0360964D01*
X0158957Y0359897D01*
X0160025Y0359897D01*
X0161092Y0360964D01*
X0161092Y0363099D01*
X0162160Y0364167D01*
X0163228Y0364167D01*
X0164295Y0363099D01*
X0164295Y0360964D01*
X0163228Y0359897D01*
X0154295Y0359870D02*
X0147890Y0359870D01*
X0150025Y0357735D01*
X0147890Y0355600D01*
X0154295Y0355600D01*
X0153228Y0362045D02*
X0154295Y0363113D01*
X0154295Y0365248D01*
X0153228Y0366315D01*
X0148957Y0366315D01*
X0147890Y0365248D01*
X0147890Y0363113D01*
X0148957Y0362045D01*
X0153228Y0362045D01*
X0153228Y0368491D02*
X0154295Y0369558D01*
X0154295Y0371693D01*
X0153228Y0372761D01*
X0152160Y0372761D01*
X0151092Y0371693D01*
X0151092Y0369558D01*
X0150025Y0368491D01*
X0148957Y0368491D01*
X0147890Y0369558D01*
X0147890Y0371693D01*
X0148957Y0372761D01*
X0147890Y0374936D02*
X0147890Y0377071D01*
X0147890Y0376004D02*
X0154295Y0376004D01*
X0154295Y0377071D02*
X0154295Y0374936D01*
X0144295Y0375990D02*
X0144295Y0372788D01*
X0137890Y0372788D01*
X0137890Y0375990D01*
X0138957Y0377058D01*
X0143228Y0377058D01*
X0144295Y0375990D01*
X0144295Y0370612D02*
X0137890Y0370612D01*
X0137890Y0366342D02*
X0144295Y0370612D01*
X0144295Y0366342D02*
X0137890Y0366342D01*
X0138957Y0364167D02*
X0137890Y0363099D01*
X0137890Y0360964D01*
X0138957Y0359897D01*
X0143228Y0359897D01*
X0144295Y0360964D01*
X0144295Y0363099D01*
X0143228Y0364167D01*
X0141092Y0364167D01*
X0141092Y0362032D01*
X0134295Y0363099D02*
X0134295Y0360964D01*
X0133228Y0359897D01*
X0131092Y0362032D02*
X0131092Y0363099D01*
X0132160Y0364167D01*
X0133228Y0364167D01*
X0134295Y0363099D01*
X0131092Y0363099D02*
X0130025Y0364167D01*
X0128957Y0364167D01*
X0127890Y0363099D01*
X0127890Y0360964D01*
X0128957Y0359897D01*
X0127890Y0366342D02*
X0132160Y0366342D01*
X0134295Y0368477D01*
X0132160Y0370612D01*
X0127890Y0370612D01*
X0128957Y0372788D02*
X0127890Y0373855D01*
X0127890Y0375990D01*
X0128957Y0377058D01*
X0130025Y0377058D01*
X0131092Y0375990D01*
X0132160Y0377058D01*
X0133228Y0377058D01*
X0134295Y0375990D01*
X0134295Y0373855D01*
X0133228Y0372788D01*
X0131092Y0374923D02*
X0131092Y0375990D01*
X0071228Y0288701D02*
X0066957Y0288701D01*
X0065890Y0287633D01*
X0065890Y0285498D01*
X0066957Y0284431D01*
X0071228Y0284431D01*
X0072295Y0285498D01*
X0072295Y0287633D01*
X0071228Y0288701D01*
X0072295Y0282269D02*
X0072295Y0280134D01*
X0072295Y0281201D02*
X0065890Y0281201D01*
X0065890Y0280134D02*
X0065890Y0282269D01*
X0066957Y0277958D02*
X0065890Y0276891D01*
X0065890Y0273688D01*
X0072295Y0273688D01*
X0070160Y0273688D02*
X0070160Y0276891D01*
X0069092Y0277958D01*
X0066957Y0277958D01*
X0070160Y0275823D02*
X0072295Y0277958D01*
X0072295Y0271513D02*
X0068025Y0271513D01*
X0065890Y0269378D01*
X0068025Y0267243D01*
X0072295Y0267243D01*
X0070160Y0265067D02*
X0072295Y0262932D01*
X0070160Y0260797D01*
X0065890Y0260797D01*
X0065890Y0265067D02*
X0070160Y0265067D01*
X0069092Y0267243D02*
X0069092Y0271513D01*
X0066957Y0252176D02*
X0065890Y0251109D01*
X0065890Y0247906D01*
X0072295Y0247906D01*
X0072295Y0251109D01*
X0071228Y0252176D01*
X0066957Y0252176D01*
X0065890Y0245731D02*
X0065890Y0241461D01*
X0072295Y0241461D01*
X0072295Y0245731D01*
X0069092Y0243596D02*
X0069092Y0241461D01*
X0072295Y0239285D02*
X0072295Y0235015D01*
X0065890Y0235015D01*
X0065890Y0239285D01*
X0069092Y0237150D02*
X0069092Y0235015D01*
X0069092Y0232840D02*
X0066957Y0232840D01*
X0065890Y0231772D01*
X0065890Y0228570D01*
X0072295Y0228570D01*
X0070160Y0228570D02*
X0070160Y0231772D01*
X0069092Y0232840D01*
X0070160Y0226394D02*
X0071228Y0226394D01*
X0072295Y0225327D01*
X0072295Y0223192D01*
X0071228Y0222124D01*
X0069092Y0223192D02*
X0069092Y0225327D01*
X0070160Y0226394D01*
X0066957Y0226394D02*
X0065890Y0225327D01*
X0065890Y0223192D01*
X0066957Y0222124D01*
X0068025Y0222124D01*
X0069092Y0223192D01*
X0068025Y0219949D02*
X0065890Y0217814D01*
X0068025Y0215679D01*
X0068025Y0213503D02*
X0072295Y0211368D01*
X0068025Y0209233D01*
X0072595Y0163433D02*
X0058595Y0163433D01*
X0058595Y0138933D01*
X0057595Y0138933D01*
X0057595Y0143933D01*
X0056095Y0143933D01*
X0056095Y0153933D01*
X0057595Y0153933D01*
X0057595Y0143933D01*
X0059595Y0146433D02*
X0059595Y0135433D01*
X0064595Y0135433D01*
X0070595Y0135433D02*
X0072595Y0135433D01*
X0072595Y0138433D01*
X0073595Y0138433D01*
X0073595Y0141933D01*
X0072595Y0141933D01*
X0072595Y0145933D01*
X0071595Y0145933D01*
X0071595Y0151933D01*
X0072595Y0151933D01*
X0072595Y0156433D01*
X0073595Y0156433D01*
X0073595Y0159433D01*
X0072595Y0159433D01*
X0072595Y0162433D01*
X0070595Y0162433D01*
X0064595Y0162433D02*
X0059595Y0162433D01*
X0059595Y0151433D01*
X0059595Y0146433D01*
X0063595Y0146433D01*
X0063595Y0151433D01*
X0059595Y0151433D01*
X0057595Y0153933D02*
X0057595Y0158933D01*
X0058595Y0158933D01*
X0058595Y0138933D02*
X0058595Y0134433D01*
X0072595Y0134433D01*
X0107795Y0178533D02*
X0107795Y0182733D01*
X0107795Y0185133D01*
X0107795Y0189333D01*
X0116395Y0166433D02*
X0128795Y0166433D01*
X0128871Y0166431D01*
X0128947Y0166425D01*
X0129022Y0166416D01*
X0129097Y0166402D01*
X0129171Y0166385D01*
X0129244Y0166364D01*
X0129316Y0166340D01*
X0129387Y0166311D01*
X0129456Y0166280D01*
X0129523Y0166245D01*
X0129588Y0166206D01*
X0129652Y0166164D01*
X0129713Y0166119D01*
X0129772Y0166071D01*
X0129828Y0166020D01*
X0129882Y0165966D01*
X0129933Y0165910D01*
X0129981Y0165851D01*
X0130026Y0165790D01*
X0130068Y0165726D01*
X0130107Y0165661D01*
X0130142Y0165594D01*
X0130173Y0165525D01*
X0130202Y0165454D01*
X0130226Y0165382D01*
X0130247Y0165309D01*
X0130264Y0165235D01*
X0130278Y0165160D01*
X0130287Y0165085D01*
X0130293Y0165009D01*
X0130295Y0164933D01*
X0127395Y0178533D02*
X0127395Y0189333D01*
X0116395Y0166433D02*
X0116319Y0166431D01*
X0116243Y0166425D01*
X0116168Y0166416D01*
X0116093Y0166402D01*
X0116019Y0166385D01*
X0115946Y0166364D01*
X0115874Y0166340D01*
X0115803Y0166311D01*
X0115734Y0166280D01*
X0115667Y0166245D01*
X0115602Y0166206D01*
X0115538Y0166164D01*
X0115477Y0166119D01*
X0115418Y0166071D01*
X0115362Y0166020D01*
X0115308Y0165966D01*
X0115257Y0165910D01*
X0115209Y0165851D01*
X0115164Y0165790D01*
X0115122Y0165726D01*
X0115083Y0165661D01*
X0115048Y0165594D01*
X0115017Y0165525D01*
X0114988Y0165454D01*
X0114964Y0165382D01*
X0114943Y0165309D01*
X0114926Y0165235D01*
X0114912Y0165160D01*
X0114903Y0165085D01*
X0114897Y0165009D01*
X0114895Y0164933D01*
X0114895Y0132933D02*
X0114897Y0132857D01*
X0114903Y0132781D01*
X0114912Y0132706D01*
X0114926Y0132631D01*
X0114943Y0132557D01*
X0114964Y0132484D01*
X0114988Y0132412D01*
X0115017Y0132341D01*
X0115048Y0132272D01*
X0115083Y0132205D01*
X0115122Y0132140D01*
X0115164Y0132076D01*
X0115209Y0132015D01*
X0115257Y0131956D01*
X0115308Y0131900D01*
X0115362Y0131846D01*
X0115418Y0131795D01*
X0115477Y0131747D01*
X0115538Y0131702D01*
X0115602Y0131660D01*
X0115667Y0131621D01*
X0115734Y0131586D01*
X0115803Y0131555D01*
X0115874Y0131526D01*
X0115946Y0131502D01*
X0116019Y0131481D01*
X0116093Y0131464D01*
X0116168Y0131450D01*
X0116243Y0131441D01*
X0116319Y0131435D01*
X0116395Y0131433D01*
X0120595Y0131433D01*
X0124595Y0131433D01*
X0128795Y0131433D01*
X0128871Y0131435D01*
X0128947Y0131441D01*
X0129022Y0131450D01*
X0129097Y0131464D01*
X0129171Y0131481D01*
X0129244Y0131502D01*
X0129316Y0131526D01*
X0129387Y0131555D01*
X0129456Y0131586D01*
X0129523Y0131621D01*
X0129588Y0131660D01*
X0129652Y0131702D01*
X0129713Y0131747D01*
X0129772Y0131795D01*
X0129828Y0131846D01*
X0129882Y0131900D01*
X0129933Y0131956D01*
X0129981Y0132015D01*
X0130026Y0132076D01*
X0130068Y0132140D01*
X0130107Y0132205D01*
X0130142Y0132272D01*
X0130173Y0132341D01*
X0130202Y0132412D01*
X0130226Y0132484D01*
X0130247Y0132557D01*
X0130264Y0132631D01*
X0130278Y0132706D01*
X0130287Y0132781D01*
X0130293Y0132857D01*
X0130295Y0132933D01*
X0124595Y0131433D02*
X0124593Y0131521D01*
X0124587Y0131610D01*
X0124577Y0131698D01*
X0124564Y0131785D01*
X0124546Y0131872D01*
X0124525Y0131958D01*
X0124500Y0132043D01*
X0124471Y0132126D01*
X0124438Y0132209D01*
X0124402Y0132289D01*
X0124363Y0132368D01*
X0124320Y0132446D01*
X0124273Y0132521D01*
X0124223Y0132594D01*
X0124170Y0132665D01*
X0124114Y0132734D01*
X0124055Y0132800D01*
X0123993Y0132863D01*
X0123929Y0132923D01*
X0123862Y0132981D01*
X0123792Y0133035D01*
X0123720Y0133087D01*
X0123646Y0133135D01*
X0123569Y0133180D01*
X0123491Y0133221D01*
X0123411Y0133259D01*
X0123330Y0133293D01*
X0123247Y0133324D01*
X0123162Y0133351D01*
X0123077Y0133374D01*
X0122991Y0133393D01*
X0122903Y0133409D01*
X0122816Y0133421D01*
X0122728Y0133429D01*
X0122639Y0133433D01*
X0122551Y0133433D01*
X0122462Y0133429D01*
X0122374Y0133421D01*
X0122287Y0133409D01*
X0122199Y0133393D01*
X0122113Y0133374D01*
X0122028Y0133351D01*
X0121943Y0133324D01*
X0121860Y0133293D01*
X0121779Y0133259D01*
X0121699Y0133221D01*
X0121621Y0133180D01*
X0121544Y0133135D01*
X0121470Y0133087D01*
X0121398Y0133035D01*
X0121328Y0132981D01*
X0121261Y0132923D01*
X0121197Y0132863D01*
X0121135Y0132800D01*
X0121076Y0132734D01*
X0121020Y0132665D01*
X0120967Y0132594D01*
X0120917Y0132521D01*
X0120870Y0132446D01*
X0120827Y0132368D01*
X0120788Y0132289D01*
X0120752Y0132209D01*
X0120719Y0132126D01*
X0120690Y0132043D01*
X0120665Y0131958D01*
X0120644Y0131872D01*
X0120626Y0131785D01*
X0120613Y0131698D01*
X0120603Y0131610D01*
X0120597Y0131521D01*
X0120595Y0131433D01*
D12*
X0128895Y0131433D02*
X0128895Y0166433D01*
D13*
X0127242Y0129687D02*
X0125741Y0128186D01*
X0124140Y0128936D02*
X0123389Y0129687D01*
X0121888Y0129687D01*
X0121137Y0128936D01*
X0121137Y0125934D01*
X0121888Y0125183D01*
X0123389Y0125183D01*
X0124140Y0125934D01*
X0125741Y0125183D02*
X0128744Y0125183D01*
X0127242Y0125183D02*
X0127242Y0129687D01*
X0119569Y0129687D02*
X0118068Y0129687D01*
X0118819Y0129687D02*
X0118819Y0125183D01*
X0119569Y0125183D02*
X0118068Y0125183D01*
X0087345Y0150726D02*
X0086595Y0149975D01*
X0087345Y0150726D02*
X0087345Y0152227D01*
X0086595Y0152978D01*
X0085844Y0152978D01*
X0085093Y0152227D01*
X0085093Y0150726D01*
X0084343Y0149975D01*
X0083592Y0149975D01*
X0082841Y0150726D01*
X0082841Y0152227D01*
X0083592Y0152978D01*
X0084343Y0154579D02*
X0082841Y0156080D01*
X0087345Y0156080D01*
X0087345Y0154579D02*
X0087345Y0157582D01*
X0062989Y0318815D02*
X0122438Y0318815D01*
X0122438Y0373933D01*
X0065745Y0373933D01*
X0065745Y0369996D01*
X0064721Y0372358D02*
X0064586Y0372356D01*
X0064451Y0372350D01*
X0064317Y0372341D01*
X0064183Y0372327D01*
X0064049Y0372310D01*
X0063915Y0372289D01*
X0063783Y0372264D01*
X0063651Y0372235D01*
X0063520Y0372203D01*
X0063390Y0372167D01*
X0063261Y0372127D01*
X0063134Y0372083D01*
X0063007Y0372036D01*
X0062882Y0371985D01*
X0062759Y0371931D01*
X0062637Y0371873D01*
X0062516Y0371812D01*
X0062398Y0371747D01*
X0062282Y0371679D01*
X0062167Y0371608D01*
X0062055Y0371534D01*
X0061944Y0371456D01*
X0061836Y0371375D01*
X0061731Y0371291D01*
X0061627Y0371204D01*
X0061527Y0371114D01*
X0061429Y0371022D01*
X0061333Y0370926D01*
X0061241Y0370828D01*
X0061151Y0370728D01*
X0061064Y0370624D01*
X0060980Y0370519D01*
X0060899Y0370411D01*
X0060821Y0370300D01*
X0060747Y0370188D01*
X0060676Y0370073D01*
X0060608Y0369957D01*
X0060543Y0369839D01*
X0060482Y0369718D01*
X0060424Y0369596D01*
X0060370Y0369473D01*
X0060319Y0369348D01*
X0060272Y0369221D01*
X0060228Y0369094D01*
X0060188Y0368965D01*
X0060152Y0368835D01*
X0060120Y0368704D01*
X0060091Y0368572D01*
X0060066Y0368440D01*
X0060045Y0368306D01*
X0060028Y0368172D01*
X0060014Y0368038D01*
X0060005Y0367904D01*
X0059999Y0367769D01*
X0059997Y0367634D01*
X0059997Y0331413D01*
X0056453Y0331414D02*
X0056444Y0331279D01*
X0056439Y0331143D01*
X0056437Y0331008D01*
X0056439Y0330873D01*
X0056445Y0330737D01*
X0056455Y0330602D01*
X0056469Y0330468D01*
X0056487Y0330333D01*
X0056509Y0330200D01*
X0056534Y0330067D01*
X0056563Y0329934D01*
X0056596Y0329803D01*
X0056632Y0329673D01*
X0056673Y0329544D01*
X0056717Y0329415D01*
X0056764Y0329289D01*
X0056816Y0329163D01*
X0056870Y0329040D01*
X0056929Y0328917D01*
X0056991Y0328797D01*
X0057056Y0328678D01*
X0057124Y0328561D01*
X0057196Y0328447D01*
X0057271Y0328334D01*
X0057350Y0328224D01*
X0057431Y0328115D01*
X0057515Y0328010D01*
X0057603Y0327906D01*
X0057693Y0327805D01*
X0057786Y0327707D01*
X0057882Y0327612D01*
X0057981Y0327519D01*
X0058082Y0327429D01*
X0058186Y0327342D01*
X0058292Y0327258D01*
X0058401Y0327177D01*
X0058512Y0327100D01*
X0058625Y0327025D01*
X0058740Y0326954D01*
X0058857Y0326886D01*
X0058976Y0326821D01*
X0059097Y0326760D01*
X0059219Y0326702D01*
X0059344Y0326648D01*
X0059469Y0326598D01*
X0059596Y0326551D01*
X0059724Y0326507D01*
X0059854Y0326468D01*
X0059984Y0326432D01*
X0060116Y0326399D01*
X0060248Y0326371D01*
X0060381Y0326346D01*
X0060515Y0326326D01*
X0060650Y0326309D01*
X0060784Y0326295D01*
X0062989Y0322752D02*
X0063146Y0322754D01*
X0063303Y0322760D01*
X0063460Y0322770D01*
X0063616Y0322783D01*
X0063772Y0322801D01*
X0063928Y0322822D01*
X0064083Y0322848D01*
X0064237Y0322877D01*
X0064391Y0322910D01*
X0064543Y0322947D01*
X0064695Y0322987D01*
X0064846Y0323032D01*
X0064995Y0323080D01*
X0065143Y0323132D01*
X0065290Y0323187D01*
X0065436Y0323247D01*
X0065580Y0323309D01*
X0065722Y0323376D01*
X0065863Y0323446D01*
X0066002Y0323519D01*
X0066139Y0323596D01*
X0066274Y0323676D01*
X0066406Y0323760D01*
X0066537Y0323847D01*
X0066666Y0323937D01*
X0066792Y0324030D01*
X0066916Y0324126D01*
X0067038Y0324226D01*
X0067157Y0324328D01*
X0067273Y0324434D01*
X0067387Y0324542D01*
X0067498Y0324653D01*
X0067606Y0324767D01*
X0067712Y0324883D01*
X0067814Y0325002D01*
X0067914Y0325124D01*
X0068010Y0325248D01*
X0068103Y0325374D01*
X0068193Y0325503D01*
X0068280Y0325634D01*
X0068364Y0325766D01*
X0068444Y0325902D01*
X0068521Y0326038D01*
X0068594Y0326177D01*
X0068664Y0326318D01*
X0068731Y0326460D01*
X0068793Y0326604D01*
X0068853Y0326750D01*
X0068908Y0326897D01*
X0068960Y0327045D01*
X0069008Y0327194D01*
X0069053Y0327345D01*
X0069093Y0327497D01*
X0069130Y0327649D01*
X0069163Y0327803D01*
X0069192Y0327957D01*
X0069218Y0328112D01*
X0069239Y0328268D01*
X0069257Y0328424D01*
X0069270Y0328580D01*
X0069280Y0328737D01*
X0069286Y0328894D01*
X0069288Y0329051D01*
X0069288Y0367240D01*
X0069287Y0367240D02*
X0069272Y0367349D01*
X0069252Y0367458D01*
X0069229Y0367567D01*
X0069202Y0367674D01*
X0069171Y0367781D01*
X0069137Y0367886D01*
X0069099Y0367990D01*
X0069057Y0368093D01*
X0069012Y0368194D01*
X0068963Y0368293D01*
X0068911Y0368391D01*
X0068855Y0368487D01*
X0068796Y0368580D01*
X0068734Y0368672D01*
X0068669Y0368762D01*
X0068600Y0368849D01*
X0068529Y0368934D01*
X0068455Y0369016D01*
X0068377Y0369095D01*
X0068298Y0369172D01*
X0068215Y0369246D01*
X0068130Y0369317D01*
X0068043Y0369385D01*
X0067953Y0369450D01*
X0067861Y0369512D01*
X0067767Y0369570D01*
X0067671Y0369625D01*
X0067573Y0369677D01*
X0067473Y0369726D01*
X0067372Y0369770D01*
X0067269Y0369812D01*
X0067165Y0369849D01*
X0067059Y0369883D01*
X0066953Y0369914D01*
X0066845Y0369940D01*
X0066737Y0369963D01*
X0066628Y0369982D01*
X0066518Y0369997D01*
X0066408Y0370009D01*
X0066297Y0370016D01*
X0066186Y0370020D01*
X0066076Y0370019D01*
X0065965Y0370015D01*
X0065854Y0370007D01*
X0065744Y0369995D01*
X0061178Y0372358D02*
X0061043Y0372356D01*
X0060908Y0372350D01*
X0060774Y0372341D01*
X0060640Y0372327D01*
X0060506Y0372310D01*
X0060372Y0372289D01*
X0060240Y0372264D01*
X0060108Y0372235D01*
X0059977Y0372203D01*
X0059847Y0372167D01*
X0059718Y0372127D01*
X0059591Y0372083D01*
X0059464Y0372036D01*
X0059339Y0371985D01*
X0059216Y0371931D01*
X0059094Y0371873D01*
X0058973Y0371812D01*
X0058855Y0371747D01*
X0058739Y0371679D01*
X0058624Y0371608D01*
X0058512Y0371534D01*
X0058401Y0371456D01*
X0058293Y0371375D01*
X0058188Y0371291D01*
X0058084Y0371204D01*
X0057984Y0371114D01*
X0057886Y0371022D01*
X0057790Y0370926D01*
X0057698Y0370828D01*
X0057608Y0370728D01*
X0057521Y0370624D01*
X0057437Y0370519D01*
X0057356Y0370411D01*
X0057278Y0370300D01*
X0057204Y0370188D01*
X0057133Y0370073D01*
X0057065Y0369957D01*
X0057000Y0369839D01*
X0056939Y0369718D01*
X0056881Y0369596D01*
X0056827Y0369473D01*
X0056776Y0369348D01*
X0056729Y0369221D01*
X0056685Y0369094D01*
X0056645Y0368965D01*
X0056609Y0368835D01*
X0056577Y0368704D01*
X0056548Y0368572D01*
X0056523Y0368440D01*
X0056502Y0368306D01*
X0056485Y0368172D01*
X0056471Y0368038D01*
X0056462Y0367904D01*
X0056456Y0367769D01*
X0056454Y0367634D01*
X0056453Y0367634D02*
X0056453Y0331413D01*
X0062989Y0322752D02*
X0062989Y0318815D01*
X0064327Y0326295D02*
X0064193Y0326309D01*
X0064058Y0326326D01*
X0063924Y0326346D01*
X0063791Y0326371D01*
X0063659Y0326399D01*
X0063527Y0326432D01*
X0063397Y0326468D01*
X0063267Y0326507D01*
X0063139Y0326551D01*
X0063012Y0326598D01*
X0062887Y0326648D01*
X0062762Y0326702D01*
X0062640Y0326760D01*
X0062519Y0326821D01*
X0062400Y0326886D01*
X0062283Y0326954D01*
X0062168Y0327025D01*
X0062055Y0327100D01*
X0061944Y0327177D01*
X0061835Y0327258D01*
X0061729Y0327342D01*
X0061625Y0327429D01*
X0061524Y0327519D01*
X0061425Y0327612D01*
X0061329Y0327707D01*
X0061236Y0327805D01*
X0061146Y0327906D01*
X0061058Y0328010D01*
X0060974Y0328115D01*
X0060893Y0328224D01*
X0060814Y0328334D01*
X0060739Y0328447D01*
X0060667Y0328561D01*
X0060599Y0328678D01*
X0060534Y0328797D01*
X0060472Y0328917D01*
X0060413Y0329040D01*
X0060359Y0329163D01*
X0060307Y0329289D01*
X0060260Y0329415D01*
X0060216Y0329544D01*
X0060175Y0329673D01*
X0060139Y0329803D01*
X0060106Y0329934D01*
X0060077Y0330067D01*
X0060052Y0330200D01*
X0060030Y0330333D01*
X0060012Y0330468D01*
X0059998Y0330602D01*
X0059988Y0330737D01*
X0059982Y0330873D01*
X0059980Y0331008D01*
X0059982Y0331143D01*
X0059987Y0331279D01*
X0059996Y0331414D01*
X0045823Y0326295D02*
X0045689Y0326309D01*
X0045554Y0326326D01*
X0045420Y0326346D01*
X0045287Y0326371D01*
X0045155Y0326399D01*
X0045023Y0326432D01*
X0044893Y0326468D01*
X0044763Y0326507D01*
X0044635Y0326551D01*
X0044508Y0326598D01*
X0044383Y0326648D01*
X0044258Y0326702D01*
X0044136Y0326760D01*
X0044015Y0326821D01*
X0043896Y0326886D01*
X0043779Y0326954D01*
X0043664Y0327025D01*
X0043551Y0327100D01*
X0043440Y0327177D01*
X0043331Y0327258D01*
X0043225Y0327342D01*
X0043121Y0327429D01*
X0043020Y0327519D01*
X0042921Y0327612D01*
X0042825Y0327707D01*
X0042732Y0327805D01*
X0042642Y0327906D01*
X0042554Y0328010D01*
X0042470Y0328115D01*
X0042389Y0328224D01*
X0042310Y0328334D01*
X0042235Y0328447D01*
X0042163Y0328561D01*
X0042095Y0328678D01*
X0042030Y0328797D01*
X0041968Y0328917D01*
X0041909Y0329040D01*
X0041855Y0329163D01*
X0041803Y0329289D01*
X0041756Y0329415D01*
X0041712Y0329544D01*
X0041671Y0329673D01*
X0041635Y0329803D01*
X0041602Y0329934D01*
X0041573Y0330067D01*
X0041548Y0330200D01*
X0041526Y0330333D01*
X0041508Y0330468D01*
X0041494Y0330602D01*
X0041484Y0330737D01*
X0041478Y0330873D01*
X0041476Y0331008D01*
X0041478Y0331143D01*
X0041483Y0331279D01*
X0041492Y0331414D01*
X0041493Y0331413D02*
X0041493Y0367634D01*
X0041495Y0367769D01*
X0041501Y0367904D01*
X0041510Y0368038D01*
X0041524Y0368172D01*
X0041541Y0368306D01*
X0041562Y0368440D01*
X0041587Y0368572D01*
X0041616Y0368704D01*
X0041648Y0368835D01*
X0041684Y0368965D01*
X0041724Y0369094D01*
X0041768Y0369221D01*
X0041815Y0369348D01*
X0041866Y0369473D01*
X0041920Y0369596D01*
X0041978Y0369718D01*
X0042039Y0369839D01*
X0042104Y0369957D01*
X0042172Y0370073D01*
X0042243Y0370188D01*
X0042317Y0370300D01*
X0042395Y0370411D01*
X0042476Y0370519D01*
X0042560Y0370624D01*
X0042647Y0370728D01*
X0042737Y0370828D01*
X0042829Y0370926D01*
X0042925Y0371022D01*
X0043023Y0371114D01*
X0043123Y0371204D01*
X0043227Y0371291D01*
X0043332Y0371375D01*
X0043440Y0371456D01*
X0043551Y0371534D01*
X0043663Y0371608D01*
X0043778Y0371679D01*
X0043894Y0371747D01*
X0044012Y0371812D01*
X0044133Y0371873D01*
X0044255Y0371931D01*
X0044378Y0371985D01*
X0044503Y0372036D01*
X0044630Y0372083D01*
X0044757Y0372127D01*
X0044886Y0372167D01*
X0045016Y0372203D01*
X0045147Y0372235D01*
X0045279Y0372264D01*
X0045411Y0372289D01*
X0045545Y0372310D01*
X0045679Y0372327D01*
X0045813Y0372341D01*
X0045947Y0372350D01*
X0046082Y0372356D01*
X0046217Y0372358D01*
X0197162Y0164169D02*
X0206217Y0164169D01*
X0206217Y0143697D01*
X0197162Y0143697D01*
D14*
X0174175Y0180983D02*
X0174175Y0185587D01*
X0175709Y0185587D02*
X0172640Y0185587D01*
X0171105Y0184053D02*
X0171105Y0180983D01*
X0171105Y0183285D02*
X0168036Y0183285D01*
X0168036Y0184053D02*
X0169571Y0185587D01*
X0171105Y0184053D01*
X0168036Y0184053D02*
X0168036Y0180983D01*
X0166501Y0181751D02*
X0165734Y0180983D01*
X0163432Y0180983D01*
X0163432Y0185587D01*
X0165734Y0185587D01*
X0166501Y0184820D01*
X0166501Y0184053D01*
X0165734Y0183285D01*
X0163432Y0183285D01*
X0165734Y0183285D02*
X0166501Y0182518D01*
X0166501Y0181751D01*
X0157395Y0187425D02*
X0152791Y0187425D01*
X0152791Y0189727D01*
X0153559Y0190494D01*
X0155093Y0190494D01*
X0155861Y0189727D01*
X0155861Y0187425D01*
X0155861Y0188960D02*
X0157395Y0190494D01*
X0155093Y0192029D02*
X0155093Y0195098D01*
X0157395Y0194331D02*
X0152791Y0194331D01*
X0155093Y0192029D01*
X0164199Y0200983D02*
X0165734Y0200983D01*
X0166501Y0201751D01*
X0166501Y0205587D01*
X0168036Y0204820D02*
X0168036Y0204053D01*
X0168803Y0203285D01*
X0170338Y0203285D01*
X0171105Y0202518D01*
X0171105Y0201751D01*
X0170338Y0200983D01*
X0168803Y0200983D01*
X0168036Y0201751D01*
X0168036Y0204820D02*
X0168803Y0205587D01*
X0170338Y0205587D01*
X0171105Y0204820D01*
X0172640Y0205587D02*
X0174942Y0205587D01*
X0175709Y0204820D01*
X0175709Y0204053D01*
X0174942Y0203285D01*
X0172640Y0203285D01*
X0172640Y0200983D02*
X0172640Y0205587D01*
X0174942Y0203285D02*
X0175709Y0202518D01*
X0175709Y0201751D01*
X0174942Y0200983D01*
X0172640Y0200983D01*
X0173432Y0210983D02*
X0175734Y0210983D01*
X0176501Y0211751D01*
X0176501Y0214820D01*
X0175734Y0215587D01*
X0173432Y0215587D01*
X0173432Y0210983D01*
X0178036Y0210983D02*
X0181105Y0210983D01*
X0179571Y0210983D02*
X0179571Y0215587D01*
X0178036Y0214053D01*
X0182640Y0214820D02*
X0183407Y0215587D01*
X0184942Y0215587D01*
X0185709Y0214820D01*
X0185709Y0214053D01*
X0184942Y0213285D01*
X0185709Y0212518D01*
X0185709Y0211751D01*
X0184942Y0210983D01*
X0183407Y0210983D01*
X0182640Y0211751D01*
X0184175Y0213285D02*
X0184942Y0213285D01*
X0175709Y0220983D02*
X0172640Y0220983D01*
X0175709Y0224053D01*
X0175709Y0224820D01*
X0174942Y0225587D01*
X0173407Y0225587D01*
X0172640Y0224820D01*
X0169571Y0225587D02*
X0169571Y0220983D01*
X0171105Y0220983D02*
X0168036Y0220983D01*
X0166501Y0221751D02*
X0166501Y0224820D01*
X0165734Y0225587D01*
X0163432Y0225587D01*
X0163432Y0220983D01*
X0165734Y0220983D01*
X0166501Y0221751D01*
X0168036Y0224053D02*
X0169571Y0225587D01*
X0173432Y0230983D02*
X0173432Y0235587D01*
X0175734Y0235587D01*
X0176501Y0234820D01*
X0176501Y0231751D01*
X0175734Y0230983D01*
X0173432Y0230983D01*
X0178036Y0230983D02*
X0181105Y0230983D01*
X0179571Y0230983D02*
X0179571Y0235587D01*
X0178036Y0234053D01*
X0182640Y0234053D02*
X0184175Y0235587D01*
X0184175Y0230983D01*
X0185709Y0230983D02*
X0182640Y0230983D01*
X0174942Y0240983D02*
X0175709Y0241751D01*
X0175709Y0244820D01*
X0172640Y0241751D01*
X0173407Y0240983D01*
X0174942Y0240983D01*
X0172640Y0241751D02*
X0172640Y0244820D01*
X0173407Y0245587D01*
X0174942Y0245587D01*
X0175709Y0244820D01*
X0178036Y0250983D02*
X0180338Y0250983D01*
X0181105Y0251751D01*
X0181105Y0254820D01*
X0180338Y0255587D01*
X0178036Y0255587D01*
X0178036Y0250983D01*
X0182640Y0251751D02*
X0183407Y0250983D01*
X0184942Y0250983D01*
X0185709Y0251751D01*
X0185709Y0254820D01*
X0184942Y0255587D01*
X0183407Y0255587D01*
X0182640Y0254820D01*
X0182640Y0254053D01*
X0183407Y0253285D01*
X0185709Y0253285D01*
X0175709Y0261751D02*
X0175709Y0262518D01*
X0174942Y0263285D01*
X0172640Y0263285D01*
X0172640Y0261751D01*
X0173407Y0260983D01*
X0174942Y0260983D01*
X0175709Y0261751D01*
X0174175Y0264820D02*
X0172640Y0263285D01*
X0171105Y0261751D02*
X0171105Y0264820D01*
X0170338Y0265587D01*
X0168036Y0265587D01*
X0168036Y0260983D01*
X0170338Y0260983D01*
X0171105Y0261751D01*
X0174175Y0264820D02*
X0175709Y0265587D01*
X0178036Y0270983D02*
X0180338Y0270983D01*
X0181105Y0271751D01*
X0181105Y0274820D01*
X0180338Y0275587D01*
X0178036Y0275587D01*
X0178036Y0270983D01*
X0182640Y0271751D02*
X0183407Y0270983D01*
X0184942Y0270983D01*
X0185709Y0271751D01*
X0185709Y0273285D01*
X0184942Y0274053D01*
X0184175Y0274053D01*
X0182640Y0273285D01*
X0182640Y0275587D01*
X0185709Y0275587D01*
X0185709Y0290983D02*
X0185709Y0294053D01*
X0184175Y0295587D01*
X0182640Y0294053D01*
X0182640Y0290983D01*
X0181105Y0291751D02*
X0181105Y0294820D01*
X0180338Y0295587D01*
X0178036Y0295587D01*
X0178036Y0290983D01*
X0180338Y0290983D01*
X0181105Y0291751D01*
X0182640Y0293285D02*
X0185709Y0293285D01*
X0176501Y0292518D02*
X0176501Y0291751D01*
X0175734Y0290983D01*
X0174199Y0290983D01*
X0173432Y0291751D01*
X0174199Y0293285D02*
X0175734Y0293285D01*
X0176501Y0292518D01*
X0176501Y0294820D02*
X0175734Y0295587D01*
X0174199Y0295587D01*
X0173432Y0294820D01*
X0173432Y0294053D01*
X0174199Y0293285D01*
X0172640Y0285587D02*
X0172640Y0280983D01*
X0175709Y0280983D01*
X0171105Y0281751D02*
X0170338Y0280983D01*
X0168803Y0280983D01*
X0168036Y0281751D01*
X0168036Y0284820D01*
X0168803Y0285587D01*
X0170338Y0285587D01*
X0171105Y0284820D01*
X0166501Y0284820D02*
X0165734Y0285587D01*
X0164199Y0285587D01*
X0163432Y0284820D01*
X0163432Y0284053D01*
X0164199Y0283285D01*
X0165734Y0283285D01*
X0166501Y0282518D01*
X0166501Y0281751D01*
X0165734Y0280983D01*
X0164199Y0280983D01*
X0163432Y0281751D01*
X0163432Y0245587D02*
X0165734Y0245587D01*
X0166501Y0244820D01*
X0166501Y0241751D01*
X0165734Y0240983D01*
X0163432Y0240983D01*
X0163432Y0245587D01*
X0168036Y0244053D02*
X0169571Y0245587D01*
X0169571Y0240983D01*
X0171105Y0240983D02*
X0168036Y0240983D01*
X0163432Y0205587D02*
X0163432Y0201751D01*
X0164199Y0200983D01*
X0178036Y0195587D02*
X0178036Y0190983D01*
X0181105Y0190983D01*
X0182640Y0190983D02*
X0182640Y0195587D01*
X0185709Y0190983D01*
X0185709Y0195587D01*
X0181105Y0195587D02*
X0178036Y0195587D01*
X0178036Y0193285D02*
X0179571Y0193285D01*
X0153760Y0161633D02*
X0150691Y0161633D01*
X0149157Y0161633D02*
X0147622Y0163168D01*
X0148389Y0161633D02*
X0149157Y0162400D01*
X0149157Y0165470D01*
X0148389Y0166237D01*
X0146855Y0166237D01*
X0146087Y0165470D01*
X0146087Y0162400D01*
X0146855Y0161633D01*
X0148389Y0161633D01*
X0150691Y0164702D02*
X0152226Y0166237D01*
X0152226Y0161633D01*
X0151959Y0154737D02*
X0151191Y0153970D01*
X0151959Y0154737D02*
X0153493Y0154737D01*
X0154260Y0153970D01*
X0154260Y0153202D01*
X0151191Y0150133D01*
X0154260Y0150133D01*
X0149657Y0150133D02*
X0148122Y0151668D01*
X0148889Y0151668D02*
X0146587Y0151668D01*
X0146587Y0150133D02*
X0146587Y0154737D01*
X0148889Y0154737D01*
X0149657Y0153970D01*
X0149657Y0152435D01*
X0148889Y0151668D01*
X0148889Y0139737D02*
X0146587Y0139737D01*
X0146587Y0135133D01*
X0146587Y0136668D02*
X0148889Y0136668D01*
X0149657Y0137435D01*
X0149657Y0138970D01*
X0148889Y0139737D01*
X0151191Y0138970D02*
X0151959Y0139737D01*
X0153493Y0139737D01*
X0154260Y0138970D01*
X0154260Y0138202D01*
X0153493Y0137435D01*
X0154260Y0136668D01*
X0154260Y0135900D01*
X0153493Y0135133D01*
X0151959Y0135133D01*
X0151191Y0135900D01*
X0149657Y0135133D02*
X0148122Y0136668D01*
X0148889Y0129737D02*
X0146587Y0129737D01*
X0146587Y0125133D01*
X0146587Y0126668D02*
X0148889Y0126668D01*
X0149657Y0127435D01*
X0149657Y0128970D01*
X0148889Y0129737D01*
X0151191Y0128202D02*
X0152726Y0129737D01*
X0152726Y0125133D01*
X0154260Y0125133D02*
X0151191Y0125133D01*
X0149657Y0125133D02*
X0148122Y0126668D01*
X0152726Y0137435D02*
X0153493Y0137435D01*
X0105709Y0151751D02*
X0104942Y0150983D01*
X0103407Y0150983D01*
X0102640Y0151751D01*
X0101105Y0152518D02*
X0101105Y0155587D01*
X0102640Y0154820D02*
X0103407Y0155587D01*
X0104942Y0155587D01*
X0105709Y0154820D01*
X0105709Y0154053D01*
X0104942Y0153285D01*
X0105709Y0152518D01*
X0105709Y0151751D01*
X0104942Y0153285D02*
X0104175Y0153285D01*
X0101105Y0152518D02*
X0099571Y0150983D01*
X0098036Y0152518D01*
X0098036Y0155587D01*
X0096501Y0154820D02*
X0096501Y0154053D01*
X0095734Y0153285D01*
X0096501Y0152518D01*
X0096501Y0151751D01*
X0095734Y0150983D01*
X0094199Y0150983D01*
X0093432Y0151751D01*
X0094967Y0153285D02*
X0095734Y0153285D01*
X0096501Y0154820D02*
X0095734Y0155587D01*
X0094199Y0155587D01*
X0093432Y0154820D01*
X0092640Y0160983D02*
X0092640Y0165587D01*
X0095709Y0165587D01*
X0094175Y0163285D02*
X0092640Y0163285D01*
X0091105Y0160983D02*
X0088036Y0160983D01*
X0088036Y0165587D01*
X0091105Y0165587D01*
X0089571Y0163285D02*
X0088036Y0163285D01*
X0086501Y0163285D02*
X0085734Y0162518D01*
X0083432Y0162518D01*
X0083432Y0160983D02*
X0083432Y0165587D01*
X0085734Y0165587D01*
X0086501Y0164820D01*
X0086501Y0163285D01*
X0084967Y0162518D02*
X0086501Y0160983D01*
X0094199Y0170983D02*
X0093432Y0171751D01*
X0093432Y0174820D01*
X0094199Y0175587D01*
X0095734Y0175587D01*
X0096501Y0174820D01*
X0096501Y0173285D02*
X0094967Y0173285D01*
X0096501Y0173285D02*
X0096501Y0171751D01*
X0095734Y0170983D01*
X0094199Y0170983D01*
X0098036Y0170983D02*
X0098036Y0175587D01*
X0101105Y0170983D01*
X0101105Y0175587D01*
X0102640Y0175587D02*
X0102640Y0170983D01*
X0104942Y0170983D01*
X0105709Y0171751D01*
X0105709Y0174820D01*
X0104942Y0175587D01*
X0102640Y0175587D01*
X0095709Y0181751D02*
X0094942Y0180983D01*
X0093407Y0180983D01*
X0092640Y0181751D01*
X0095709Y0184820D01*
X0095709Y0181751D01*
X0092640Y0181751D02*
X0092640Y0184820D01*
X0093407Y0185587D01*
X0094942Y0185587D01*
X0095709Y0184820D01*
X0091105Y0184053D02*
X0091105Y0180983D01*
X0091105Y0183285D02*
X0088036Y0183285D01*
X0088036Y0184053D02*
X0089571Y0185587D01*
X0091105Y0184053D01*
X0088036Y0184053D02*
X0088036Y0180983D01*
X0098036Y0190983D02*
X0098036Y0194053D01*
X0099571Y0195587D01*
X0101105Y0194053D01*
X0101105Y0190983D01*
X0102640Y0190983D02*
X0105709Y0190983D01*
X0104175Y0190983D02*
X0104175Y0195587D01*
X0102640Y0194053D01*
X0101105Y0193285D02*
X0098036Y0193285D01*
X0095709Y0200983D02*
X0092640Y0200983D01*
X0095709Y0204053D01*
X0095709Y0204820D01*
X0094942Y0205587D01*
X0093407Y0205587D01*
X0092640Y0204820D01*
X0091105Y0204053D02*
X0091105Y0200983D01*
X0091105Y0203285D02*
X0088036Y0203285D01*
X0088036Y0204053D02*
X0089571Y0205587D01*
X0091105Y0204053D01*
X0088036Y0204053D02*
X0088036Y0200983D01*
X0098036Y0210983D02*
X0098036Y0214053D01*
X0099571Y0215587D01*
X0101105Y0214053D01*
X0101105Y0210983D01*
X0102640Y0211751D02*
X0103407Y0210983D01*
X0104942Y0210983D01*
X0105709Y0211751D01*
X0105709Y0212518D01*
X0104942Y0213285D01*
X0104175Y0213285D01*
X0104942Y0213285D02*
X0105709Y0214053D01*
X0105709Y0214820D01*
X0104942Y0215587D01*
X0103407Y0215587D01*
X0102640Y0214820D01*
X0101105Y0213285D02*
X0098036Y0213285D01*
X0094942Y0220983D02*
X0094942Y0225587D01*
X0092640Y0223285D01*
X0095709Y0223285D01*
X0091105Y0223285D02*
X0088036Y0223285D01*
X0088036Y0224053D02*
X0089571Y0225587D01*
X0091105Y0224053D01*
X0091105Y0220983D01*
X0088036Y0220983D02*
X0088036Y0224053D01*
X0098036Y0230983D02*
X0098036Y0234053D01*
X0099571Y0235587D01*
X0101105Y0234053D01*
X0101105Y0230983D01*
X0102640Y0231751D02*
X0103407Y0230983D01*
X0104942Y0230983D01*
X0105709Y0231751D01*
X0105709Y0233285D01*
X0104942Y0234053D01*
X0104175Y0234053D01*
X0102640Y0233285D01*
X0102640Y0235587D01*
X0105709Y0235587D01*
X0101105Y0233285D02*
X0098036Y0233285D01*
X0095709Y0240983D02*
X0093407Y0243285D01*
X0092640Y0242518D02*
X0095709Y0245587D01*
X0092640Y0245587D02*
X0092640Y0240983D01*
X0091105Y0241751D02*
X0090338Y0240983D01*
X0088803Y0240983D01*
X0088036Y0241751D01*
X0088036Y0244820D01*
X0088803Y0245587D01*
X0090338Y0245587D01*
X0091105Y0244820D01*
X0086501Y0244820D02*
X0085734Y0245587D01*
X0084199Y0245587D01*
X0083432Y0244820D01*
X0083432Y0244053D01*
X0084199Y0243285D01*
X0085734Y0243285D01*
X0086501Y0242518D01*
X0086501Y0241751D01*
X0085734Y0240983D01*
X0084199Y0240983D01*
X0083432Y0241751D01*
X0090363Y0250983D02*
X0090363Y0255587D01*
X0091898Y0254053D01*
X0093432Y0255587D01*
X0093432Y0250983D01*
X0094967Y0251751D02*
X0095734Y0250983D01*
X0097269Y0250983D01*
X0098036Y0251751D01*
X0098036Y0254820D01*
X0097269Y0255587D01*
X0095734Y0255587D01*
X0094967Y0254820D01*
X0094967Y0251751D01*
X0099571Y0251751D02*
X0100338Y0250983D01*
X0101873Y0250983D01*
X0102640Y0251751D01*
X0102640Y0252518D01*
X0101873Y0253285D01*
X0100338Y0253285D01*
X0099571Y0254053D01*
X0099571Y0254820D01*
X0100338Y0255587D01*
X0101873Y0255587D01*
X0102640Y0254820D01*
X0104175Y0255587D02*
X0105709Y0255587D01*
X0104942Y0255587D02*
X0104942Y0250983D01*
X0104175Y0250983D02*
X0105709Y0250983D01*
X0094942Y0260983D02*
X0095709Y0261751D01*
X0095709Y0264820D01*
X0094942Y0265587D01*
X0093407Y0265587D01*
X0092640Y0264820D01*
X0092640Y0261751D01*
X0093407Y0260983D01*
X0094942Y0260983D01*
X0091105Y0261751D02*
X0090338Y0260983D01*
X0088803Y0260983D01*
X0088036Y0261751D01*
X0088803Y0263285D02*
X0090338Y0263285D01*
X0091105Y0262518D01*
X0091105Y0261751D01*
X0088803Y0263285D02*
X0088036Y0264053D01*
X0088036Y0264820D01*
X0088803Y0265587D01*
X0090338Y0265587D01*
X0091105Y0264820D01*
X0086501Y0265587D02*
X0084967Y0265587D01*
X0085734Y0265587D02*
X0085734Y0260983D01*
X0084967Y0260983D02*
X0086501Y0260983D01*
X0083432Y0260983D02*
X0083432Y0265587D01*
X0081898Y0264053D01*
X0080363Y0265587D01*
X0080363Y0260983D01*
X0083432Y0280983D02*
X0086501Y0280983D01*
X0084967Y0280983D02*
X0084967Y0285587D01*
X0083432Y0284053D01*
X0088036Y0285587D02*
X0091105Y0285587D01*
X0089571Y0285587D02*
X0089571Y0280983D01*
X0092640Y0280983D02*
X0095709Y0285587D01*
X0092640Y0285587D02*
X0095709Y0280983D01*
X0095734Y0275587D02*
X0096501Y0274820D01*
X0093432Y0271751D01*
X0094199Y0270983D01*
X0095734Y0270983D01*
X0096501Y0271751D01*
X0096501Y0274820D01*
X0095734Y0275587D02*
X0094199Y0275587D01*
X0093432Y0274820D01*
X0093432Y0271751D01*
X0098036Y0272518D02*
X0100338Y0272518D01*
X0101105Y0273285D01*
X0101105Y0274820D01*
X0100338Y0275587D01*
X0098036Y0275587D01*
X0098036Y0270983D01*
X0099571Y0272518D02*
X0101105Y0270983D01*
X0102640Y0270983D02*
X0105709Y0275587D01*
X0102640Y0275587D02*
X0105709Y0270983D01*
X0104942Y0290983D02*
X0103407Y0290983D01*
X0102640Y0291751D01*
X0102640Y0295587D01*
X0101105Y0295587D02*
X0098036Y0295587D01*
X0098036Y0290983D01*
X0096501Y0291751D02*
X0096501Y0294820D01*
X0095734Y0295587D01*
X0093432Y0295587D01*
X0093432Y0290983D01*
X0095734Y0290983D01*
X0096501Y0291751D01*
X0098036Y0293285D02*
X0099571Y0293285D01*
X0104942Y0290983D02*
X0105709Y0291751D01*
X0105709Y0295587D01*
X0119642Y0319684D02*
X0124246Y0319684D01*
X0124246Y0322754D01*
X0124246Y0324288D02*
X0119642Y0324288D01*
X0119642Y0326590D01*
X0120409Y0327357D01*
X0121944Y0327357D01*
X0122711Y0326590D01*
X0122711Y0324288D01*
X0121944Y0321219D02*
X0121944Y0319684D01*
X0119642Y0319684D02*
X0119642Y0322754D01*
X0119642Y0328892D02*
X0119642Y0331194D01*
X0120409Y0331961D01*
X0123478Y0331961D01*
X0124246Y0331194D01*
X0124246Y0328892D01*
X0119642Y0328892D01*
X0125013Y0333496D02*
X0125013Y0336565D01*
X0123478Y0338100D02*
X0124246Y0338867D01*
X0124246Y0340402D01*
X0123478Y0341169D01*
X0122711Y0341169D01*
X0121944Y0340402D01*
X0121944Y0339635D01*
X0121944Y0340402D02*
X0121176Y0341169D01*
X0120409Y0341169D01*
X0119642Y0340402D01*
X0119642Y0338867D01*
X0120409Y0338100D01*
X0119642Y0342704D02*
X0122711Y0342704D01*
X0124246Y0344239D01*
X0122711Y0345773D01*
X0119642Y0345773D01*
X0120409Y0347308D02*
X0119642Y0348075D01*
X0119642Y0349610D01*
X0120409Y0350377D01*
X0121176Y0350377D01*
X0121944Y0349610D01*
X0122711Y0350377D01*
X0123478Y0350377D01*
X0124246Y0349610D01*
X0124246Y0348075D01*
X0123478Y0347308D01*
X0121944Y0348842D02*
X0121944Y0349610D01*
X0129642Y0349610D02*
X0129642Y0347308D01*
X0134246Y0347308D01*
X0134246Y0349610D01*
X0133478Y0350377D01*
X0130409Y0350377D01*
X0129642Y0349610D01*
X0129642Y0345773D02*
X0134246Y0345773D01*
X0129642Y0342704D01*
X0134246Y0342704D01*
X0133478Y0341169D02*
X0131944Y0341169D01*
X0131944Y0339635D01*
X0133478Y0341169D02*
X0134246Y0340402D01*
X0134246Y0338867D01*
X0133478Y0338100D01*
X0130409Y0338100D01*
X0129642Y0338867D01*
X0129642Y0340402D01*
X0130409Y0341169D01*
X0135013Y0336565D02*
X0135013Y0333496D01*
X0133478Y0331961D02*
X0130409Y0331961D01*
X0129642Y0331194D01*
X0129642Y0328892D01*
X0134246Y0328892D01*
X0134246Y0331194D01*
X0133478Y0331961D01*
X0131944Y0327357D02*
X0132711Y0326590D01*
X0132711Y0324288D01*
X0134246Y0324288D02*
X0129642Y0324288D01*
X0129642Y0326590D01*
X0130409Y0327357D01*
X0131944Y0327357D01*
X0134246Y0322754D02*
X0134246Y0319684D01*
X0129642Y0319684D01*
X0129642Y0322754D01*
X0131944Y0321219D02*
X0131944Y0319684D01*
X0139642Y0319684D02*
X0144246Y0319684D01*
X0144246Y0322754D01*
X0144246Y0324288D02*
X0139642Y0324288D01*
X0139642Y0326590D01*
X0140409Y0327357D01*
X0141944Y0327357D01*
X0142711Y0326590D01*
X0142711Y0324288D01*
X0141944Y0321219D02*
X0141944Y0319684D01*
X0139642Y0319684D02*
X0139642Y0322754D01*
X0139642Y0328892D02*
X0139642Y0331194D01*
X0140409Y0331961D01*
X0143478Y0331961D01*
X0144246Y0331194D01*
X0144246Y0328892D01*
X0139642Y0328892D01*
X0139642Y0338100D02*
X0141176Y0339635D01*
X0139642Y0341169D01*
X0144246Y0341169D01*
X0143478Y0342704D02*
X0144246Y0343471D01*
X0144246Y0345006D01*
X0143478Y0345773D01*
X0140409Y0345773D01*
X0139642Y0345006D01*
X0139642Y0343471D01*
X0140409Y0342704D01*
X0143478Y0342704D01*
X0143478Y0347308D02*
X0144246Y0348075D01*
X0144246Y0349610D01*
X0143478Y0350377D01*
X0142711Y0350377D01*
X0141944Y0349610D01*
X0141944Y0348075D01*
X0141176Y0347308D01*
X0140409Y0347308D01*
X0139642Y0348075D01*
X0139642Y0349610D01*
X0140409Y0350377D01*
X0139642Y0351912D02*
X0139642Y0353446D01*
X0139642Y0352679D02*
X0144246Y0352679D01*
X0144246Y0351912D02*
X0144246Y0353446D01*
X0149642Y0350377D02*
X0152711Y0347308D01*
X0151944Y0348075D02*
X0154246Y0350377D01*
X0154246Y0347308D02*
X0149642Y0347308D01*
X0150409Y0345773D02*
X0149642Y0345006D01*
X0149642Y0343471D01*
X0150409Y0342704D01*
X0153478Y0342704D01*
X0154246Y0343471D01*
X0154246Y0345006D01*
X0153478Y0345773D01*
X0153478Y0341169D02*
X0154246Y0340402D01*
X0154246Y0338867D01*
X0153478Y0338100D01*
X0151944Y0338867D02*
X0151944Y0340402D01*
X0152711Y0341169D01*
X0153478Y0341169D01*
X0151944Y0338867D02*
X0151176Y0338100D01*
X0150409Y0338100D01*
X0149642Y0338867D01*
X0149642Y0340402D01*
X0150409Y0341169D01*
X0155013Y0336565D02*
X0155013Y0333496D01*
X0153478Y0331961D02*
X0150409Y0331961D01*
X0149642Y0331194D01*
X0149642Y0328892D01*
X0154246Y0328892D01*
X0154246Y0331194D01*
X0153478Y0331961D01*
X0151944Y0327357D02*
X0152711Y0326590D01*
X0152711Y0324288D01*
X0154246Y0324288D02*
X0149642Y0324288D01*
X0149642Y0326590D01*
X0150409Y0327357D01*
X0151944Y0327357D01*
X0154246Y0322754D02*
X0154246Y0319684D01*
X0149642Y0319684D01*
X0149642Y0322754D01*
X0151944Y0321219D02*
X0151944Y0319684D01*
X0159642Y0319684D02*
X0164246Y0319684D01*
X0164246Y0322754D01*
X0164246Y0324288D02*
X0159642Y0324288D01*
X0159642Y0326590D01*
X0160409Y0327357D01*
X0161944Y0327357D01*
X0162711Y0326590D01*
X0162711Y0324288D01*
X0161944Y0321219D02*
X0161944Y0319684D01*
X0159642Y0319684D02*
X0159642Y0322754D01*
X0159642Y0328892D02*
X0159642Y0331194D01*
X0160409Y0331961D01*
X0163478Y0331961D01*
X0164246Y0331194D01*
X0164246Y0328892D01*
X0159642Y0328892D01*
X0165013Y0333496D02*
X0165013Y0336565D01*
X0163478Y0338100D02*
X0164246Y0338867D01*
X0164246Y0340402D01*
X0163478Y0341169D01*
X0163478Y0342704D02*
X0164246Y0343471D01*
X0164246Y0345006D01*
X0163478Y0345773D01*
X0162711Y0345773D01*
X0161944Y0345006D01*
X0161944Y0343471D01*
X0161176Y0342704D01*
X0160409Y0342704D01*
X0159642Y0343471D01*
X0159642Y0345006D01*
X0160409Y0345773D01*
X0160409Y0341169D02*
X0159642Y0340402D01*
X0159642Y0338867D01*
X0160409Y0338100D01*
X0163478Y0338100D01*
X0169642Y0338100D02*
X0169642Y0340402D01*
X0170409Y0341169D01*
X0173478Y0341169D01*
X0174246Y0340402D01*
X0174246Y0338100D01*
X0169642Y0338100D01*
X0170409Y0342704D02*
X0169642Y0343471D01*
X0169642Y0345006D01*
X0170409Y0345773D01*
X0170409Y0342704D02*
X0173478Y0342704D01*
X0174246Y0343471D01*
X0174246Y0345006D01*
X0173478Y0345773D01*
X0179642Y0345006D02*
X0179642Y0343471D01*
X0180409Y0342704D01*
X0181176Y0342704D01*
X0181944Y0343471D01*
X0181944Y0345006D01*
X0182711Y0345773D01*
X0183478Y0345773D01*
X0184246Y0345006D01*
X0184246Y0343471D01*
X0183478Y0342704D01*
X0184246Y0341169D02*
X0182711Y0339635D01*
X0182711Y0340402D02*
X0182711Y0338100D01*
X0184246Y0338100D02*
X0179642Y0338100D01*
X0179642Y0340402D01*
X0180409Y0341169D01*
X0181944Y0341169D01*
X0182711Y0340402D01*
X0185013Y0336565D02*
X0185013Y0333496D01*
X0183478Y0331961D02*
X0180409Y0331961D01*
X0179642Y0331194D01*
X0179642Y0328892D01*
X0184246Y0328892D01*
X0184246Y0331194D01*
X0183478Y0331961D01*
X0181944Y0327357D02*
X0182711Y0326590D01*
X0182711Y0324288D01*
X0184246Y0324288D02*
X0179642Y0324288D01*
X0179642Y0326590D01*
X0180409Y0327357D01*
X0181944Y0327357D01*
X0184246Y0322754D02*
X0184246Y0319684D01*
X0179642Y0319684D01*
X0179642Y0322754D01*
X0181944Y0321219D02*
X0181944Y0319684D01*
X0189642Y0319684D02*
X0194246Y0319684D01*
X0194246Y0322754D01*
X0194246Y0324288D02*
X0189642Y0324288D01*
X0189642Y0326590D01*
X0190409Y0327357D01*
X0191944Y0327357D01*
X0192711Y0326590D01*
X0192711Y0324288D01*
X0191944Y0321219D02*
X0191944Y0319684D01*
X0189642Y0319684D02*
X0189642Y0322754D01*
X0189642Y0328892D02*
X0189642Y0331194D01*
X0190409Y0331961D01*
X0193478Y0331961D01*
X0194246Y0331194D01*
X0194246Y0328892D01*
X0189642Y0328892D01*
X0195013Y0333496D02*
X0195013Y0336565D01*
X0194246Y0338100D02*
X0194246Y0340402D01*
X0193478Y0341169D01*
X0192711Y0341169D01*
X0191944Y0340402D01*
X0191944Y0338100D01*
X0194246Y0338100D02*
X0189642Y0338100D01*
X0189642Y0340402D01*
X0190409Y0341169D01*
X0191176Y0341169D01*
X0191944Y0340402D01*
X0193478Y0342704D02*
X0189642Y0342704D01*
X0189642Y0345773D02*
X0193478Y0345773D01*
X0194246Y0345006D01*
X0194246Y0343471D01*
X0193478Y0342704D01*
X0193478Y0347308D02*
X0194246Y0348075D01*
X0194246Y0349610D01*
X0193478Y0350377D01*
X0192711Y0350377D01*
X0191944Y0349610D01*
X0191944Y0348075D01*
X0191176Y0347308D01*
X0190409Y0347308D01*
X0189642Y0348075D01*
X0189642Y0349610D01*
X0190409Y0350377D01*
X0190409Y0351912D02*
X0191944Y0353446D01*
X0194246Y0353446D01*
X0191944Y0353446D02*
X0190409Y0354981D01*
X0189642Y0354981D01*
X0189642Y0351912D02*
X0190409Y0351912D01*
X0184246Y0348842D02*
X0179642Y0348842D01*
X0179642Y0347308D02*
X0179642Y0350377D01*
X0180409Y0345773D02*
X0179642Y0345006D01*
X0175013Y0336565D02*
X0175013Y0333496D01*
X0173478Y0331961D02*
X0170409Y0331961D01*
X0169642Y0331194D01*
X0169642Y0328892D01*
X0174246Y0328892D01*
X0174246Y0331194D01*
X0173478Y0331961D01*
X0171944Y0327357D02*
X0172711Y0326590D01*
X0172711Y0324288D01*
X0174246Y0324288D02*
X0169642Y0324288D01*
X0169642Y0326590D01*
X0170409Y0327357D01*
X0171944Y0327357D01*
X0174246Y0322754D02*
X0174246Y0319684D01*
X0169642Y0319684D01*
X0169642Y0322754D01*
X0171944Y0321219D02*
X0171944Y0319684D01*
X0145013Y0333496D02*
X0145013Y0336565D01*
X0144246Y0338100D02*
X0139642Y0338100D01*
X0111883Y0346522D02*
X0111883Y0348056D01*
X0111116Y0348824D01*
X0107279Y0348824D01*
X0108047Y0350358D02*
X0107279Y0351126D01*
X0107279Y0352660D01*
X0108047Y0353428D01*
X0108814Y0354962D02*
X0107279Y0356497D01*
X0111883Y0356497D01*
X0111883Y0358031D02*
X0111883Y0354962D01*
X0111116Y0353428D02*
X0111883Y0352660D01*
X0111883Y0351126D01*
X0111116Y0350358D01*
X0109581Y0351126D02*
X0108814Y0350358D01*
X0108047Y0350358D01*
X0109581Y0351126D02*
X0109581Y0352660D01*
X0110349Y0353428D01*
X0111116Y0353428D01*
X0112651Y0351893D02*
X0106512Y0351893D01*
X0107279Y0345754D02*
X0111116Y0345754D01*
X0111883Y0346522D01*
X0095709Y0145587D02*
X0092640Y0145587D01*
X0094175Y0145587D02*
X0094175Y0140983D01*
X0091105Y0141751D02*
X0090338Y0140983D01*
X0088803Y0140983D01*
X0088036Y0141751D01*
X0088803Y0143285D02*
X0090338Y0143285D01*
X0091105Y0142518D01*
X0091105Y0141751D01*
X0088803Y0143285D02*
X0088036Y0144053D01*
X0088036Y0144820D01*
X0088803Y0145587D01*
X0090338Y0145587D01*
X0091105Y0144820D01*
X0086501Y0144820D02*
X0086501Y0143285D01*
X0085734Y0142518D01*
X0083432Y0142518D01*
X0083432Y0140983D02*
X0083432Y0145587D01*
X0085734Y0145587D01*
X0086501Y0144820D01*
X0084967Y0142518D02*
X0086501Y0140983D01*
D15*
X0149716Y0143927D03*
X0149716Y0133927D03*
X0155516Y0133927D03*
X0155516Y0143927D03*
X0155516Y0158927D03*
X0149716Y0158927D03*
D16*
X0099667Y0171948D02*
X0099667Y0174421D01*
X0098430Y0175657D01*
X0092247Y0175657D01*
X0094720Y0178274D02*
X0092247Y0180747D01*
X0099667Y0180747D01*
X0099667Y0178274D02*
X0099667Y0183220D01*
X0099667Y0171948D02*
X0098430Y0170711D01*
X0092247Y0170711D01*
D17*
X0142595Y0289091D02*
X0142595Y0308776D01*
D18*
X0133343Y0306315D03*
D19*
X0139887Y0304541D02*
X0139887Y0303655D01*
X0140330Y0303212D01*
X0140330Y0302447D02*
X0139887Y0302004D01*
X0139887Y0301118D01*
X0140330Y0300675D01*
X0142102Y0300675D01*
X0142545Y0301118D01*
X0142545Y0302004D01*
X0142102Y0302447D01*
X0142545Y0303212D02*
X0140773Y0304985D01*
X0140330Y0304985D01*
X0139887Y0304541D01*
X0142545Y0304985D02*
X0142545Y0303212D01*
X0142545Y0299869D02*
X0142545Y0298983D01*
X0142545Y0299426D02*
X0139887Y0299426D01*
X0139887Y0298983D02*
X0139887Y0299869D01*
D20*
X0134890Y0301271D02*
X0134890Y0302505D01*
X0134273Y0303123D01*
X0134890Y0304337D02*
X0134890Y0306806D01*
X0134890Y0305571D02*
X0131187Y0305571D01*
X0132421Y0304337D01*
X0131804Y0303123D02*
X0131187Y0302505D01*
X0131187Y0301271D01*
X0131804Y0300654D01*
X0134273Y0300654D01*
X0134890Y0301271D01*
X0209838Y0174976D02*
X0212746Y0174976D01*
X0212746Y0174007D02*
X0212746Y0175945D01*
X0210807Y0174007D02*
X0209838Y0174976D01*
X0210323Y0172994D02*
X0209838Y0172509D01*
X0209838Y0171540D01*
X0210323Y0171055D01*
X0210807Y0171055D01*
X0211292Y0171540D01*
X0211292Y0172509D01*
X0211777Y0172994D01*
X0212262Y0172994D01*
X0212746Y0172509D01*
X0212746Y0171540D01*
X0212262Y0171055D01*
X0212746Y0170042D02*
X0212746Y0168103D01*
X0209838Y0168103D01*
D21*
X0181808Y0179524D02*
X0181810Y0179580D01*
X0181816Y0179635D01*
X0181826Y0179689D01*
X0181839Y0179743D01*
X0181857Y0179796D01*
X0181878Y0179847D01*
X0181902Y0179897D01*
X0181930Y0179945D01*
X0181962Y0179991D01*
X0181996Y0180035D01*
X0182034Y0180076D01*
X0182074Y0180114D01*
X0182117Y0180149D01*
X0182162Y0180181D01*
X0182210Y0180210D01*
X0182259Y0180236D01*
X0182310Y0180258D01*
X0182362Y0180276D01*
X0182416Y0180290D01*
X0182471Y0180301D01*
X0182526Y0180308D01*
X0182581Y0180311D01*
X0182637Y0180310D01*
X0182692Y0180305D01*
X0182747Y0180296D01*
X0182801Y0180284D01*
X0182854Y0180267D01*
X0182906Y0180247D01*
X0182956Y0180223D01*
X0183004Y0180196D01*
X0183051Y0180166D01*
X0183095Y0180132D01*
X0183137Y0180095D01*
X0183175Y0180055D01*
X0183212Y0180013D01*
X0183245Y0179968D01*
X0183274Y0179922D01*
X0183301Y0179873D01*
X0183323Y0179822D01*
X0183343Y0179770D01*
X0183358Y0179716D01*
X0183370Y0179662D01*
X0183378Y0179607D01*
X0183382Y0179552D01*
X0183382Y0179496D01*
X0183378Y0179441D01*
X0183370Y0179386D01*
X0183358Y0179332D01*
X0183343Y0179278D01*
X0183323Y0179226D01*
X0183301Y0179175D01*
X0183274Y0179126D01*
X0183245Y0179080D01*
X0183212Y0179035D01*
X0183175Y0178993D01*
X0183137Y0178953D01*
X0183095Y0178916D01*
X0183051Y0178882D01*
X0183004Y0178852D01*
X0182956Y0178825D01*
X0182906Y0178801D01*
X0182854Y0178781D01*
X0182801Y0178764D01*
X0182747Y0178752D01*
X0182692Y0178743D01*
X0182637Y0178738D01*
X0182581Y0178737D01*
X0182526Y0178740D01*
X0182471Y0178747D01*
X0182416Y0178758D01*
X0182362Y0178772D01*
X0182310Y0178790D01*
X0182259Y0178812D01*
X0182210Y0178838D01*
X0182162Y0178867D01*
X0182117Y0178899D01*
X0182074Y0178934D01*
X0182034Y0178972D01*
X0181996Y0179013D01*
X0181962Y0179057D01*
X0181930Y0179103D01*
X0181902Y0179151D01*
X0181878Y0179201D01*
X0181857Y0179252D01*
X0181839Y0179305D01*
X0181826Y0179359D01*
X0181816Y0179413D01*
X0181810Y0179468D01*
X0181808Y0179524D01*
M02*
