G75*
%MOIN*%
%OFA0B0*%
%FSLAX25Y25*%
%IPPOS*%
%LPD*%
%AMOC8*
5,1,8,0,0,1.08239X$1,22.5*
%
%ADD10C,0.00000*%
%ADD11R,0.08000X0.02600*%
%ADD12R,0.04331X0.05512*%
%ADD13OC8,0.06000*%
%ADD14C,0.08850*%
%ADD15R,0.07480X0.05512*%
%ADD16R,0.05512X0.07087*%
%ADD17R,0.05906X0.02756*%
%ADD18R,0.03937X0.05512*%
%ADD19R,0.05906X0.05118*%
%ADD20R,0.02200X0.07800*%
%ADD21C,0.02165*%
%ADD22R,0.06299X0.05118*%
%ADD23R,0.09488X0.10669*%
%ADD24R,0.10000X0.05000*%
%ADD25R,0.05000X0.10000*%
%ADD26C,0.00600*%
%ADD27C,0.02978*%
D10*
X0057595Y0123933D02*
X0057595Y0383776D01*
X0207201Y0383776D01*
X0207201Y0123933D01*
X0057595Y0123933D01*
X0192438Y0133776D02*
X0192440Y0133916D01*
X0192446Y0134056D01*
X0192456Y0134195D01*
X0192470Y0134334D01*
X0192488Y0134473D01*
X0192509Y0134611D01*
X0192535Y0134749D01*
X0192565Y0134886D01*
X0192598Y0135021D01*
X0192636Y0135156D01*
X0192677Y0135290D01*
X0192722Y0135423D01*
X0192770Y0135554D01*
X0192823Y0135683D01*
X0192879Y0135812D01*
X0192938Y0135938D01*
X0193002Y0136063D01*
X0193068Y0136186D01*
X0193139Y0136307D01*
X0193212Y0136426D01*
X0193289Y0136543D01*
X0193370Y0136657D01*
X0193453Y0136769D01*
X0193540Y0136879D01*
X0193630Y0136987D01*
X0193722Y0137091D01*
X0193818Y0137193D01*
X0193917Y0137293D01*
X0194018Y0137389D01*
X0194122Y0137483D01*
X0194229Y0137573D01*
X0194338Y0137660D01*
X0194450Y0137745D01*
X0194564Y0137826D01*
X0194680Y0137904D01*
X0194798Y0137978D01*
X0194919Y0138049D01*
X0195041Y0138117D01*
X0195166Y0138181D01*
X0195292Y0138242D01*
X0195419Y0138299D01*
X0195549Y0138352D01*
X0195680Y0138402D01*
X0195812Y0138447D01*
X0195945Y0138490D01*
X0196080Y0138528D01*
X0196215Y0138562D01*
X0196352Y0138593D01*
X0196489Y0138620D01*
X0196627Y0138642D01*
X0196766Y0138661D01*
X0196905Y0138676D01*
X0197044Y0138687D01*
X0197184Y0138694D01*
X0197324Y0138697D01*
X0197464Y0138696D01*
X0197604Y0138691D01*
X0197743Y0138682D01*
X0197883Y0138669D01*
X0198022Y0138652D01*
X0198160Y0138631D01*
X0198298Y0138607D01*
X0198435Y0138578D01*
X0198571Y0138546D01*
X0198706Y0138509D01*
X0198840Y0138469D01*
X0198973Y0138425D01*
X0199104Y0138377D01*
X0199234Y0138326D01*
X0199363Y0138271D01*
X0199490Y0138212D01*
X0199615Y0138149D01*
X0199738Y0138084D01*
X0199860Y0138014D01*
X0199979Y0137941D01*
X0200097Y0137865D01*
X0200212Y0137786D01*
X0200325Y0137703D01*
X0200435Y0137617D01*
X0200543Y0137528D01*
X0200648Y0137436D01*
X0200751Y0137341D01*
X0200851Y0137243D01*
X0200948Y0137143D01*
X0201042Y0137039D01*
X0201134Y0136933D01*
X0201222Y0136825D01*
X0201307Y0136714D01*
X0201389Y0136600D01*
X0201468Y0136484D01*
X0201543Y0136367D01*
X0201615Y0136247D01*
X0201683Y0136125D01*
X0201748Y0136001D01*
X0201810Y0135875D01*
X0201868Y0135748D01*
X0201922Y0135619D01*
X0201973Y0135488D01*
X0202019Y0135356D01*
X0202062Y0135223D01*
X0202102Y0135089D01*
X0202137Y0134954D01*
X0202169Y0134817D01*
X0202196Y0134680D01*
X0202220Y0134542D01*
X0202240Y0134404D01*
X0202256Y0134265D01*
X0202268Y0134125D01*
X0202276Y0133986D01*
X0202280Y0133846D01*
X0202280Y0133706D01*
X0202276Y0133566D01*
X0202268Y0133427D01*
X0202256Y0133287D01*
X0202240Y0133148D01*
X0202220Y0133010D01*
X0202196Y0132872D01*
X0202169Y0132735D01*
X0202137Y0132598D01*
X0202102Y0132463D01*
X0202062Y0132329D01*
X0202019Y0132196D01*
X0201973Y0132064D01*
X0201922Y0131933D01*
X0201868Y0131804D01*
X0201810Y0131677D01*
X0201748Y0131551D01*
X0201683Y0131427D01*
X0201615Y0131305D01*
X0201543Y0131185D01*
X0201468Y0131068D01*
X0201389Y0130952D01*
X0201307Y0130838D01*
X0201222Y0130727D01*
X0201134Y0130619D01*
X0201042Y0130513D01*
X0200948Y0130409D01*
X0200851Y0130309D01*
X0200751Y0130211D01*
X0200648Y0130116D01*
X0200543Y0130024D01*
X0200435Y0129935D01*
X0200325Y0129849D01*
X0200212Y0129766D01*
X0200097Y0129687D01*
X0199979Y0129611D01*
X0199860Y0129538D01*
X0199738Y0129468D01*
X0199615Y0129403D01*
X0199490Y0129340D01*
X0199363Y0129281D01*
X0199234Y0129226D01*
X0199104Y0129175D01*
X0198973Y0129127D01*
X0198840Y0129083D01*
X0198706Y0129043D01*
X0198571Y0129006D01*
X0198435Y0128974D01*
X0198298Y0128945D01*
X0198160Y0128921D01*
X0198022Y0128900D01*
X0197883Y0128883D01*
X0197743Y0128870D01*
X0197604Y0128861D01*
X0197464Y0128856D01*
X0197324Y0128855D01*
X0197184Y0128858D01*
X0197044Y0128865D01*
X0196905Y0128876D01*
X0196766Y0128891D01*
X0196627Y0128910D01*
X0196489Y0128932D01*
X0196352Y0128959D01*
X0196215Y0128990D01*
X0196080Y0129024D01*
X0195945Y0129062D01*
X0195812Y0129105D01*
X0195680Y0129150D01*
X0195549Y0129200D01*
X0195419Y0129253D01*
X0195292Y0129310D01*
X0195166Y0129371D01*
X0195041Y0129435D01*
X0194919Y0129503D01*
X0194798Y0129574D01*
X0194680Y0129648D01*
X0194564Y0129726D01*
X0194450Y0129807D01*
X0194338Y0129892D01*
X0194229Y0129979D01*
X0194122Y0130069D01*
X0194018Y0130163D01*
X0193917Y0130259D01*
X0193818Y0130359D01*
X0193722Y0130461D01*
X0193630Y0130565D01*
X0193540Y0130673D01*
X0193453Y0130783D01*
X0193370Y0130895D01*
X0193289Y0131009D01*
X0193212Y0131126D01*
X0193139Y0131245D01*
X0193068Y0131366D01*
X0193002Y0131489D01*
X0192938Y0131614D01*
X0192879Y0131740D01*
X0192823Y0131869D01*
X0192770Y0131998D01*
X0192722Y0132129D01*
X0192677Y0132262D01*
X0192636Y0132396D01*
X0192598Y0132531D01*
X0192565Y0132666D01*
X0192535Y0132803D01*
X0192509Y0132941D01*
X0192488Y0133079D01*
X0192470Y0133218D01*
X0192456Y0133357D01*
X0192446Y0133496D01*
X0192440Y0133636D01*
X0192438Y0133776D01*
D11*
X0134695Y0133933D03*
X0134695Y0138933D03*
X0134695Y0143933D03*
X0134695Y0148933D03*
X0134695Y0153933D03*
X0134695Y0158933D03*
X0134695Y0163933D03*
X0110495Y0163933D03*
X0110495Y0158933D03*
X0110495Y0153933D03*
X0110495Y0148933D03*
X0110495Y0143933D03*
X0110495Y0138933D03*
X0110495Y0133933D03*
D12*
X0148658Y0133933D03*
X0148658Y0143933D03*
X0156532Y0143933D03*
X0156532Y0133933D03*
X0156532Y0158933D03*
X0148658Y0158933D03*
D13*
X0067695Y0157833D03*
X0067695Y0140033D03*
D14*
X0077495Y0135133D03*
X0077495Y0162733D03*
D15*
X0065745Y0320390D03*
X0069288Y0372358D03*
D16*
X0120863Y0366059D03*
X0120863Y0342437D03*
D17*
X0082280Y0342831D03*
X0080705Y0347161D03*
X0079131Y0351492D03*
X0080705Y0355823D03*
X0079131Y0360154D03*
X0080705Y0364484D03*
X0080705Y0368815D03*
X0080705Y0338500D03*
D18*
X0143855Y0178264D03*
X0147595Y0169602D03*
X0151335Y0178264D03*
D19*
X0147595Y0190193D03*
X0147595Y0197673D03*
D20*
X0125095Y0193633D03*
X0120095Y0193633D03*
X0115095Y0193633D03*
X0110095Y0193633D03*
X0110095Y0174233D03*
X0115095Y0174233D03*
X0120095Y0174233D03*
X0125095Y0174233D03*
D21*
X0136296Y0291551D02*
X0139446Y0291551D01*
X0136296Y0291551D02*
X0136296Y0291551D01*
X0139446Y0291551D01*
X0139446Y0291551D01*
X0139446Y0296472D02*
X0136296Y0296472D01*
X0136296Y0296472D01*
X0139446Y0296472D01*
X0139446Y0296472D01*
X0139446Y0301394D02*
X0136296Y0301394D01*
X0136296Y0301394D01*
X0139446Y0301394D01*
X0139446Y0301394D01*
X0139446Y0306315D02*
X0136296Y0306315D01*
X0136296Y0306315D01*
X0139446Y0306315D01*
X0139446Y0306315D01*
X0145745Y0306315D02*
X0148895Y0306315D01*
X0145745Y0306315D02*
X0145745Y0306315D01*
X0148895Y0306315D01*
X0148895Y0306315D01*
X0148895Y0301394D02*
X0145745Y0301394D01*
X0145745Y0301394D01*
X0148895Y0301394D01*
X0148895Y0301394D01*
X0148895Y0296472D02*
X0145745Y0296472D01*
X0145745Y0296472D01*
X0148895Y0296472D01*
X0148895Y0296472D01*
X0148895Y0291551D02*
X0145745Y0291551D01*
X0145745Y0291551D01*
X0148895Y0291551D01*
X0148895Y0291551D01*
D22*
X0127595Y0299996D03*
X0127595Y0307870D03*
D23*
X0182595Y0170272D03*
X0182595Y0137594D03*
D24*
X0167595Y0188933D03*
X0177595Y0198933D03*
X0167595Y0208933D03*
X0177595Y0218933D03*
X0167595Y0228933D03*
X0177595Y0238933D03*
X0167595Y0248933D03*
X0177595Y0258933D03*
X0167595Y0268933D03*
X0177595Y0278933D03*
X0167595Y0288933D03*
X0177595Y0298933D03*
X0097595Y0298933D03*
X0087595Y0288933D03*
X0097595Y0278933D03*
X0087595Y0268933D03*
X0097595Y0258933D03*
X0087595Y0248933D03*
X0097595Y0238933D03*
X0087595Y0228933D03*
X0097595Y0218933D03*
X0087595Y0208933D03*
X0097595Y0198933D03*
X0087595Y0188933D03*
X0097595Y0178933D03*
X0087595Y0168933D03*
X0097595Y0158933D03*
X0087595Y0148933D03*
D25*
X0127595Y0328933D03*
X0137595Y0328933D03*
X0147595Y0328933D03*
X0157595Y0328933D03*
X0167595Y0328933D03*
X0177595Y0328933D03*
X0187595Y0328933D03*
X0197595Y0328933D03*
D26*
X0197595Y0253933D01*
X0187595Y0243933D01*
X0187595Y0238933D01*
X0177595Y0228933D01*
X0167595Y0228933D01*
X0167617Y0222333D02*
X0165206Y0219923D01*
X0165206Y0218944D01*
X0160195Y0213933D01*
X0160195Y0180933D01*
X0149395Y0170133D01*
X0147595Y0170133D01*
X0147595Y0169602D01*
X0143995Y0177933D02*
X0143995Y0159340D01*
X0139402Y0163933D01*
X0134695Y0163933D01*
X0130974Y0163933D01*
X0128585Y0161544D01*
X0126511Y0161544D01*
X0118095Y0169960D01*
X0118095Y0171159D01*
X0115002Y0174252D01*
X0114595Y0174333D01*
X0110395Y0174333D01*
X0110095Y0174233D01*
X0109795Y0174333D01*
X0101995Y0174333D01*
X0095395Y0167733D01*
X0095395Y0166533D01*
X0097595Y0163933D02*
X0102595Y0168933D01*
X0101995Y0163533D02*
X0106595Y0158933D01*
X0110495Y0158933D01*
X0107595Y0158933D01*
X0102595Y0153933D01*
X0106122Y0151133D02*
X0099922Y0144933D01*
X0099395Y0144933D01*
X0106122Y0151133D02*
X0107695Y0151133D01*
X0110495Y0153933D01*
X0113122Y0153933D01*
X0130322Y0136733D01*
X0131895Y0136733D01*
X0134695Y0133933D01*
X0148658Y0133933D01*
X0151532Y0138933D02*
X0156532Y0143933D01*
X0151532Y0138933D02*
X0142595Y0138933D01*
X0139595Y0141933D01*
X0139595Y0145606D01*
X0139505Y0147170D01*
X0139595Y0147260D01*
X0139595Y0160606D01*
X0139068Y0161133D01*
X0130322Y0161133D01*
X0129322Y0160133D01*
X0121395Y0160133D01*
X0117595Y0163933D01*
X0110495Y0163933D01*
X0115195Y0172533D02*
X0115195Y0173733D01*
X0115095Y0174233D01*
X0115002Y0174252D01*
X0118784Y0175544D02*
X0118784Y0181323D01*
X0112095Y0188012D01*
X0112095Y0233206D01*
X0102968Y0242333D01*
X0092222Y0242333D01*
X0091695Y0241806D01*
X0091695Y0236060D01*
X0097595Y0230160D01*
X0097595Y0218933D01*
X0087595Y0213933D02*
X0087595Y0208933D01*
X0087595Y0209133D01*
X0087595Y0213933D02*
X0072595Y0228933D01*
X0072595Y0313933D01*
X0077595Y0318933D01*
X0077595Y0328933D01*
X0072595Y0333933D01*
X0072595Y0338933D01*
X0076493Y0342831D01*
X0082280Y0342831D01*
X0080995Y0346933D02*
X0080705Y0347161D01*
X0080995Y0346933D02*
X0083995Y0346933D01*
X0086395Y0344533D01*
X0086395Y0322733D01*
X0082595Y0318933D01*
X0082595Y0313933D01*
X0086395Y0309333D01*
X0086395Y0301733D01*
X0076595Y0291933D01*
X0076595Y0266133D01*
X0083795Y0258933D01*
X0097595Y0258933D01*
X0091195Y0269133D02*
X0087595Y0268933D01*
X0087595Y0269133D01*
X0091195Y0269133D01*
X0091195Y0281733D01*
X0093595Y0284133D01*
X0093595Y0291933D01*
X0091195Y0294333D01*
X0091195Y0353994D01*
X0086195Y0358994D01*
X0080705Y0364484D01*
X0079597Y0361046D02*
X0077380Y0362206D01*
X0076853Y0362734D01*
X0076853Y0370566D01*
X0077380Y0371093D01*
X0084031Y0371093D01*
X0091707Y0363417D01*
X0097401Y0357705D01*
X0097401Y0349127D01*
X0097595Y0348933D01*
X0115795Y0329133D01*
X0115795Y0311733D01*
X0127195Y0300333D01*
X0127595Y0299996D01*
X0127795Y0300333D01*
X0128395Y0300933D01*
X0132459Y0300933D01*
X0132595Y0300797D01*
X0132595Y0298933D01*
X0135056Y0296472D01*
X0137871Y0296472D01*
X0137995Y0296733D01*
X0137995Y0300933D02*
X0137871Y0301394D01*
X0137395Y0300933D01*
X0132459Y0300933D01*
X0129368Y0306315D02*
X0127704Y0307979D01*
X0127595Y0307870D01*
X0127595Y0328933D01*
X0132395Y0329133D02*
X0137395Y0329133D01*
X0137595Y0328933D01*
X0143395Y0324733D02*
X0147595Y0328933D01*
X0153795Y0335133D01*
X0160595Y0335133D01*
X0161195Y0334533D01*
X0161195Y0323733D01*
X0158995Y0321533D01*
X0158995Y0201933D01*
X0151195Y0194133D01*
X0144595Y0194133D01*
X0138395Y0187933D01*
X0138395Y0187333D01*
X0125395Y0174333D01*
X0125095Y0174233D01*
X0127595Y0168933D02*
X0132595Y0173933D01*
X0127595Y0168933D02*
X0127595Y0163933D01*
X0126606Y0156322D02*
X0124217Y0153933D01*
X0122595Y0153933D01*
X0122595Y0149460D02*
X0130322Y0141733D01*
X0131895Y0141733D01*
X0134695Y0138933D01*
X0134695Y0143933D02*
X0134695Y0148933D01*
X0127595Y0148933D01*
X0127595Y0153933D01*
X0126606Y0156322D02*
X0128585Y0156322D01*
X0130974Y0153933D01*
X0134695Y0153933D01*
X0134695Y0158933D02*
X0117595Y0158933D01*
X0117595Y0153933D01*
X0122595Y0149460D01*
X0128122Y0133933D02*
X0131778Y0130277D01*
X0152876Y0130277D01*
X0156532Y0133933D01*
X0157938Y0135339D01*
X0182595Y0159996D01*
X0182595Y0170272D01*
X0167595Y0180272D01*
X0167595Y0188933D01*
X0167595Y0198933D02*
X0177595Y0198933D01*
X0177595Y0218933D02*
X0167595Y0218933D01*
X0167617Y0222333D02*
X0184795Y0222333D01*
X0188395Y0218733D01*
X0188395Y0143394D01*
X0182595Y0137594D01*
X0156532Y0155944D02*
X0156532Y0158933D01*
X0156532Y0155944D02*
X0148658Y0148070D01*
X0148658Y0143933D01*
X0148658Y0148070D02*
X0145195Y0151533D01*
X0148658Y0158933D02*
X0148195Y0159333D01*
X0143995Y0159333D01*
X0143995Y0159340D01*
X0143995Y0177933D02*
X0143855Y0178264D01*
X0151195Y0178533D02*
X0151335Y0178264D01*
X0151195Y0178533D02*
X0151195Y0186333D01*
X0147595Y0189933D01*
X0147595Y0190193D01*
X0147595Y0197133D02*
X0147595Y0197673D01*
X0147595Y0197133D02*
X0134995Y0197133D01*
X0125395Y0187533D01*
X0117595Y0187533D01*
X0115195Y0189933D01*
X0115195Y0193533D01*
X0115095Y0193633D01*
X0117595Y0196133D02*
X0120095Y0193633D01*
X0117595Y0196133D02*
X0117595Y0203933D01*
X0125395Y0194133D02*
X0125095Y0193633D01*
X0124795Y0193533D01*
X0124795Y0191733D01*
X0125395Y0194133D02*
X0125395Y0243798D01*
X0120260Y0248933D01*
X0087595Y0248933D01*
X0087595Y0248733D01*
X0097595Y0238933D02*
X0110095Y0226433D01*
X0110095Y0193633D01*
X0097795Y0198933D02*
X0116395Y0180333D01*
X0118784Y0175544D02*
X0120095Y0174233D01*
X0101995Y0174333D02*
X0097795Y0178533D01*
X0097595Y0178933D01*
X0097595Y0163933D02*
X0097595Y0158933D01*
X0099606Y0160944D01*
X0087595Y0177933D02*
X0087595Y0188933D01*
X0097595Y0198933D02*
X0097795Y0198933D01*
X0097795Y0238533D02*
X0097595Y0238933D01*
X0091195Y0269133D02*
X0119995Y0269133D01*
X0137595Y0268933D01*
X0152595Y0283933D01*
X0152595Y0293933D01*
X0150395Y0296133D01*
X0146995Y0296133D01*
X0147320Y0296472D01*
X0147320Y0291551D02*
X0142595Y0286827D01*
X0142595Y0283933D01*
X0137871Y0291551D02*
X0147320Y0291551D01*
X0147320Y0301394D02*
X0146995Y0301533D01*
X0143395Y0305133D01*
X0143395Y0309333D01*
X0143395Y0324733D01*
X0154195Y0315933D02*
X0147595Y0309333D01*
X0147595Y0306333D01*
X0147320Y0306315D01*
X0147595Y0305733D01*
X0157395Y0295933D01*
X0157395Y0285133D01*
X0125395Y0253133D01*
X0125395Y0244102D01*
X0125226Y0243933D01*
X0125395Y0243798D02*
X0125395Y0244102D01*
X0112595Y0303933D02*
X0112595Y0313933D01*
X0097595Y0328933D01*
X0084595Y0351733D02*
X0084595Y0351933D01*
X0080705Y0355823D01*
X0079131Y0360154D02*
X0079597Y0361046D01*
X0086195Y0359133D02*
X0086195Y0358994D01*
X0079131Y0351492D02*
X0075154Y0351492D01*
X0072595Y0348933D01*
X0122595Y0313933D02*
X0122595Y0312870D01*
X0127595Y0307870D01*
X0129368Y0306315D02*
X0137871Y0306315D01*
X0154195Y0315933D02*
X0157595Y0319333D01*
X0157595Y0328933D01*
X0167595Y0328933D02*
X0167595Y0297706D01*
X0161695Y0291806D01*
X0161695Y0286060D01*
X0167595Y0280160D01*
X0167595Y0268933D01*
X0167595Y0248933D02*
X0177595Y0248933D01*
X0187595Y0258933D01*
X0187595Y0318933D01*
X0177595Y0328933D01*
X0187595Y0328933D02*
X0192595Y0323933D01*
X0192595Y0258933D01*
X0177595Y0243933D01*
X0177595Y0238933D01*
X0128122Y0133933D02*
X0110495Y0133933D01*
D27*
X0099395Y0144933D03*
X0102595Y0153933D03*
X0101995Y0163533D03*
X0102595Y0168933D03*
X0095395Y0166533D03*
X0087595Y0177933D03*
X0116395Y0180333D03*
X0127595Y0163933D03*
X0132595Y0173933D03*
X0127595Y0153933D03*
X0122595Y0153933D03*
X0145195Y0151533D03*
X0167595Y0198933D03*
X0167595Y0218933D03*
X0142595Y0283933D03*
X0143395Y0309333D03*
X0154195Y0315933D03*
X0132395Y0329133D03*
X0122595Y0313933D03*
X0115795Y0329133D03*
X0112595Y0313933D03*
X0112595Y0303933D03*
X0097595Y0328933D03*
X0086395Y0309333D03*
X0072595Y0348933D03*
X0084595Y0351733D03*
X0117595Y0203933D03*
M02*
