%
M48
M72
T01C0.01378
T02C0.04000
T03C0.05900
T04C0.09843
%
T01
X87595Y177933
X95395Y166533
X101995Y163533
X102595Y168933
X102595Y153933
X99395Y144933
X116395Y180333
X127595Y163933
X132595Y173933
X127595Y153933
X122595Y153933
X145195Y151533
X167595Y198933
X167595Y218933
X142595Y283933
X143395Y309333
X154195Y315933
X132395Y329133
X122595Y313933
X115795Y329133
X112595Y313933
X112595Y303933
X97595Y328933
X86395Y309333
X72595Y348933
X84595Y351733
X117595Y203933
T02
X67695Y140033
X67695Y157833
T03
X77495Y135133
X77495Y162733
T04
X197359Y133776
M30
