G75*
%MOIN*%
%OFA0B0*%
%FSLAX25Y25*%
%IPPOS*%
%LPD*%
%AMOC8*
5,1,8,0,0,1.08239X$1,22.5*
%
%ADD10C,0.00000*%
%ADD11R,0.08280X0.06312*%
%ADD12R,0.06312X0.07887*%
%ADD13R,0.06706X0.03556*%
%ADD14R,0.04737X0.06312*%
%ADD15R,0.05918X0.06706*%
%ADD16R,0.03000X0.08600*%
%ADD17C,0.02965*%
%ADD18R,0.07099X0.05918*%
%ADD19R,0.10288X0.11469*%
%ADD20R,0.03950X0.04737*%
%ADD21C,0.06343*%
%ADD22C,0.00935*%
%ADD23C,0.06800*%
%ADD24C,0.03778*%
D10*
X0052595Y0028933D02*
X0052595Y0356610D01*
X0222871Y0356610D01*
X0222871Y0028933D01*
X0052595Y0028933D01*
D11*
X0055745Y0275390D03*
X0059288Y0327358D03*
D12*
X0110863Y0321059D03*
X0110863Y0297437D03*
D13*
X0072280Y0297831D03*
X0070705Y0302161D03*
X0069131Y0306492D03*
X0070705Y0310823D03*
X0069131Y0315154D03*
X0070705Y0319484D03*
X0070705Y0323815D03*
X0070705Y0293500D03*
X0210705Y0277791D03*
X0210705Y0271886D03*
X0210705Y0260075D03*
D14*
X0166335Y0288264D03*
X0162595Y0279602D03*
X0158855Y0288264D03*
D15*
X0158855Y0298933D03*
X0166335Y0298933D03*
D16*
X0145095Y0298633D03*
X0140095Y0298633D03*
X0135095Y0298633D03*
X0130095Y0298633D03*
X0130095Y0279233D03*
X0135095Y0279233D03*
X0140095Y0279233D03*
X0145095Y0279233D03*
D17*
X0108895Y0096315D02*
X0105745Y0096315D01*
X0105745Y0096315D01*
X0108895Y0096315D01*
X0108895Y0096315D01*
X0108895Y0091394D02*
X0105745Y0091394D01*
X0105745Y0091394D01*
X0108895Y0091394D01*
X0108895Y0091394D01*
X0108895Y0086472D02*
X0105745Y0086472D01*
X0105745Y0086472D01*
X0108895Y0086472D01*
X0108895Y0086472D01*
X0108895Y0081551D02*
X0105745Y0081551D01*
X0105745Y0081551D01*
X0108895Y0081551D01*
X0108895Y0081551D01*
X0099446Y0081551D02*
X0096296Y0081551D01*
X0096296Y0081551D01*
X0099446Y0081551D01*
X0099446Y0081551D01*
X0099446Y0086472D02*
X0096296Y0086472D01*
X0096296Y0086472D01*
X0099446Y0086472D01*
X0099446Y0086472D01*
X0099446Y0091394D02*
X0096296Y0091394D01*
X0096296Y0091394D01*
X0099446Y0091394D01*
X0099446Y0091394D01*
X0099446Y0096315D02*
X0096296Y0096315D01*
X0096296Y0096315D01*
X0099446Y0096315D01*
X0099446Y0096315D01*
D18*
X0087595Y0097870D03*
X0087595Y0089996D03*
D19*
X0077595Y0227594D03*
X0077595Y0260272D03*
D20*
X0213264Y0254563D03*
X0221926Y0254563D03*
X0221926Y0283303D03*
X0213264Y0283303D03*
D21*
X0217595Y0274839D03*
X0217595Y0263028D03*
D22*
X0213029Y0104919D02*
X0204895Y0104919D01*
X0213029Y0104919D02*
X0213029Y0099621D01*
X0204895Y0099621D01*
X0204895Y0104919D01*
X0204895Y0100555D02*
X0213029Y0100555D01*
X0213029Y0101489D02*
X0204895Y0101489D01*
X0204895Y0102423D02*
X0213029Y0102423D01*
X0213029Y0103357D02*
X0204895Y0103357D01*
X0204895Y0104291D02*
X0213029Y0104291D01*
X0213029Y0087281D02*
X0204895Y0087281D01*
X0213029Y0087281D02*
X0213029Y0081983D01*
X0204895Y0081983D01*
X0204895Y0087281D01*
X0204895Y0082917D02*
X0213029Y0082917D01*
X0213029Y0083851D02*
X0204895Y0083851D01*
X0204895Y0084785D02*
X0213029Y0084785D01*
X0213029Y0085719D02*
X0204895Y0085719D01*
X0204895Y0086653D02*
X0213029Y0086653D01*
X0213029Y0080509D02*
X0204895Y0080509D01*
X0213029Y0080509D02*
X0213029Y0075211D01*
X0204895Y0075211D01*
X0204895Y0080509D01*
X0204895Y0076145D02*
X0213029Y0076145D01*
X0213029Y0077079D02*
X0204895Y0077079D01*
X0204895Y0078013D02*
X0213029Y0078013D01*
X0213029Y0078947D02*
X0204895Y0078947D01*
X0204895Y0079881D02*
X0213029Y0079881D01*
X0213029Y0062871D02*
X0204895Y0062871D01*
X0213029Y0062871D02*
X0213029Y0057573D01*
X0204895Y0057573D01*
X0204895Y0062871D01*
X0204895Y0058507D02*
X0213029Y0058507D01*
X0213029Y0059441D02*
X0204895Y0059441D01*
X0204895Y0060375D02*
X0213029Y0060375D01*
X0213029Y0061309D02*
X0204895Y0061309D01*
X0204895Y0062243D02*
X0213029Y0062243D01*
X0213029Y0056100D02*
X0204895Y0056100D01*
X0213029Y0056100D02*
X0213029Y0050802D01*
X0204895Y0050802D01*
X0204895Y0056100D01*
X0204895Y0051736D02*
X0213029Y0051736D01*
X0213029Y0052670D02*
X0204895Y0052670D01*
X0204895Y0053604D02*
X0213029Y0053604D01*
X0213029Y0054538D02*
X0204895Y0054538D01*
X0204895Y0055472D02*
X0213029Y0055472D01*
X0213029Y0038462D02*
X0204895Y0038462D01*
X0213029Y0038462D02*
X0213029Y0033164D01*
X0204895Y0033164D01*
X0204895Y0038462D01*
X0204895Y0034098D02*
X0213029Y0034098D01*
X0213029Y0035032D02*
X0204895Y0035032D01*
X0204895Y0035966D02*
X0213029Y0035966D01*
X0213029Y0036900D02*
X0204895Y0036900D01*
X0204895Y0037834D02*
X0213029Y0037834D01*
X0177202Y0038462D02*
X0169068Y0038462D01*
X0177202Y0038462D02*
X0177202Y0033164D01*
X0169068Y0033164D01*
X0169068Y0038462D01*
X0169068Y0034098D02*
X0177202Y0034098D01*
X0177202Y0035032D02*
X0169068Y0035032D01*
X0169068Y0035966D02*
X0177202Y0035966D01*
X0177202Y0036900D02*
X0169068Y0036900D01*
X0169068Y0037834D02*
X0177202Y0037834D01*
X0177202Y0056100D02*
X0169068Y0056100D01*
X0177202Y0056100D02*
X0177202Y0050802D01*
X0169068Y0050802D01*
X0169068Y0056100D01*
X0169068Y0051736D02*
X0177202Y0051736D01*
X0177202Y0052670D02*
X0169068Y0052670D01*
X0169068Y0053604D02*
X0177202Y0053604D01*
X0177202Y0054538D02*
X0169068Y0054538D01*
X0169068Y0055472D02*
X0177202Y0055472D01*
X0177202Y0062871D02*
X0169068Y0062871D01*
X0177202Y0062871D02*
X0177202Y0057573D01*
X0169068Y0057573D01*
X0169068Y0062871D01*
X0169068Y0058507D02*
X0177202Y0058507D01*
X0177202Y0059441D02*
X0169068Y0059441D01*
X0169068Y0060375D02*
X0177202Y0060375D01*
X0177202Y0061309D02*
X0169068Y0061309D01*
X0169068Y0062243D02*
X0177202Y0062243D01*
X0177202Y0080509D02*
X0169068Y0080509D01*
X0177202Y0080509D02*
X0177202Y0075211D01*
X0169068Y0075211D01*
X0169068Y0080509D01*
X0169068Y0076145D02*
X0177202Y0076145D01*
X0177202Y0077079D02*
X0169068Y0077079D01*
X0169068Y0078013D02*
X0177202Y0078013D01*
X0177202Y0078947D02*
X0169068Y0078947D01*
X0169068Y0079881D02*
X0177202Y0079881D01*
X0177202Y0087281D02*
X0169068Y0087281D01*
X0177202Y0087281D02*
X0177202Y0081983D01*
X0169068Y0081983D01*
X0169068Y0087281D01*
X0169068Y0082917D02*
X0177202Y0082917D01*
X0177202Y0083851D02*
X0169068Y0083851D01*
X0169068Y0084785D02*
X0177202Y0084785D01*
X0177202Y0085719D02*
X0169068Y0085719D01*
X0169068Y0086653D02*
X0177202Y0086653D01*
X0177202Y0104919D02*
X0169068Y0104919D01*
X0177202Y0104919D02*
X0177202Y0099621D01*
X0169068Y0099621D01*
X0169068Y0104919D01*
X0169068Y0100555D02*
X0177202Y0100555D01*
X0177202Y0101489D02*
X0169068Y0101489D01*
X0169068Y0102423D02*
X0177202Y0102423D01*
X0177202Y0103357D02*
X0169068Y0103357D01*
X0169068Y0104291D02*
X0177202Y0104291D01*
D23*
X0140595Y0103933D02*
X0134595Y0103933D01*
X0134595Y0113933D02*
X0140595Y0113933D01*
X0140595Y0123933D02*
X0134595Y0123933D01*
X0134595Y0133933D02*
X0140595Y0133933D01*
X0140595Y0143933D02*
X0134595Y0143933D01*
X0134595Y0153933D02*
X0140595Y0153933D01*
X0140595Y0163933D02*
X0134595Y0163933D01*
X0134595Y0173933D02*
X0140595Y0173933D01*
X0140595Y0183933D02*
X0134595Y0183933D01*
X0132595Y0215022D02*
X0132595Y0221022D01*
X0122595Y0221022D02*
X0122595Y0215022D01*
X0112595Y0215022D02*
X0112595Y0221022D01*
X0102595Y0221022D02*
X0102595Y0215022D01*
X0142595Y0215022D02*
X0142595Y0221022D01*
X0152595Y0221022D02*
X0152595Y0215022D01*
X0162595Y0215022D02*
X0162595Y0221022D01*
X0172595Y0221022D02*
X0172595Y0215022D01*
X0140595Y0093933D02*
X0134595Y0093933D01*
X0134595Y0083933D02*
X0140595Y0083933D01*
X0140595Y0073933D02*
X0134595Y0073933D01*
X0060595Y0073933D02*
X0054595Y0073933D01*
X0054595Y0083933D02*
X0060595Y0083933D01*
X0060595Y0093933D02*
X0054595Y0093933D01*
X0054595Y0103933D02*
X0060595Y0103933D01*
X0060595Y0113933D02*
X0054595Y0113933D01*
X0054595Y0123933D02*
X0060595Y0123933D01*
X0060595Y0133933D02*
X0054595Y0133933D01*
X0054595Y0143933D02*
X0060595Y0143933D01*
X0060595Y0153933D02*
X0054595Y0153933D01*
X0054595Y0163933D02*
X0060595Y0163933D01*
X0060595Y0173933D02*
X0054595Y0173933D01*
X0054595Y0183933D02*
X0060595Y0183933D01*
X0060595Y0063933D02*
X0054595Y0063933D01*
X0054595Y0053933D02*
X0060595Y0053933D01*
X0060595Y0043933D02*
X0054595Y0043933D01*
X0054595Y0033933D02*
X0060595Y0033933D01*
D24*
X0066995Y0078133D03*
X0078995Y0081733D03*
X0080795Y0087133D03*
X0101795Y0093733D03*
X0104195Y0099133D03*
X0111995Y0097333D03*
X0149795Y0077533D03*
X0158195Y0099733D03*
X0171995Y0097333D03*
X0102995Y0192133D03*
X0074795Y0168733D03*
X0072395Y0165733D03*
X0064595Y0130333D03*
X0065195Y0246733D03*
X0074795Y0272533D03*
X0089195Y0278533D03*
X0087995Y0288133D03*
X0091595Y0288733D03*
X0116195Y0298333D03*
X0135395Y0291733D03*
X0140195Y0285733D03*
X0205595Y0274333D03*
M02*
