G75*
%MOIN*%
%OFA0B0*%
%FSLAX25Y25*%
%IPPOS*%
%LPD*%
%AMOC8*
5,1,8,0,0,1.08239X$1,22.5*
%
%ADD10C,0.00000*%
%ADD11R,0.07480X0.05512*%
%ADD12R,0.05512X0.07087*%
%ADD13R,0.05906X0.02756*%
%ADD14R,0.03937X0.05512*%
%ADD15R,0.05118X0.05906*%
%ADD16R,0.02200X0.07800*%
%ADD17C,0.02165*%
%ADD18R,0.06299X0.05118*%
%ADD19R,0.09488X0.10669*%
%ADD20R,0.03150X0.03937*%
%ADD21C,0.05543*%
%ADD22C,0.00815*%
%ADD23C,0.06000*%
%ADD24C,0.00600*%
%ADD25C,0.02978*%
D10*
X0052595Y0028933D02*
X0052595Y0356610D01*
X0222871Y0356610D01*
X0222871Y0028933D01*
X0052595Y0028933D01*
D11*
X0055745Y0275390D03*
X0059288Y0327358D03*
D12*
X0110863Y0321059D03*
X0110863Y0297437D03*
D13*
X0072280Y0297831D03*
X0070705Y0302161D03*
X0069131Y0306492D03*
X0070705Y0310823D03*
X0069131Y0315154D03*
X0070705Y0319484D03*
X0070705Y0323815D03*
X0070705Y0293500D03*
X0210705Y0277791D03*
X0210705Y0271886D03*
X0210705Y0260075D03*
D14*
X0166335Y0288264D03*
X0162595Y0279602D03*
X0158855Y0288264D03*
D15*
X0158855Y0298933D03*
X0166335Y0298933D03*
D16*
X0145095Y0298633D03*
X0140095Y0298633D03*
X0135095Y0298633D03*
X0130095Y0298633D03*
X0130095Y0279233D03*
X0135095Y0279233D03*
X0140095Y0279233D03*
X0145095Y0279233D03*
D17*
X0108895Y0096315D02*
X0105745Y0096315D01*
X0105745Y0096315D01*
X0108895Y0096315D01*
X0108895Y0096315D01*
X0108895Y0091394D02*
X0105745Y0091394D01*
X0105745Y0091394D01*
X0108895Y0091394D01*
X0108895Y0091394D01*
X0108895Y0086472D02*
X0105745Y0086472D01*
X0105745Y0086472D01*
X0108895Y0086472D01*
X0108895Y0086472D01*
X0108895Y0081551D02*
X0105745Y0081551D01*
X0105745Y0081551D01*
X0108895Y0081551D01*
X0108895Y0081551D01*
X0099446Y0081551D02*
X0096296Y0081551D01*
X0096296Y0081551D01*
X0099446Y0081551D01*
X0099446Y0081551D01*
X0099446Y0086472D02*
X0096296Y0086472D01*
X0096296Y0086472D01*
X0099446Y0086472D01*
X0099446Y0086472D01*
X0099446Y0091394D02*
X0096296Y0091394D01*
X0096296Y0091394D01*
X0099446Y0091394D01*
X0099446Y0091394D01*
X0099446Y0096315D02*
X0096296Y0096315D01*
X0096296Y0096315D01*
X0099446Y0096315D01*
X0099446Y0096315D01*
D18*
X0087595Y0097870D03*
X0087595Y0089996D03*
D19*
X0077595Y0227594D03*
X0077595Y0260272D03*
D20*
X0213264Y0254563D03*
X0221926Y0254563D03*
X0221926Y0283303D03*
X0213264Y0283303D03*
D21*
X0217595Y0274839D03*
X0217595Y0263028D03*
D22*
X0212689Y0104579D02*
X0205235Y0104579D01*
X0212689Y0104579D02*
X0212689Y0099961D01*
X0205235Y0099961D01*
X0205235Y0104579D01*
X0205235Y0100775D02*
X0212689Y0100775D01*
X0212689Y0101589D02*
X0205235Y0101589D01*
X0205235Y0102403D02*
X0212689Y0102403D01*
X0212689Y0103217D02*
X0205235Y0103217D01*
X0205235Y0104031D02*
X0212689Y0104031D01*
X0212689Y0086941D02*
X0205235Y0086941D01*
X0212689Y0086941D02*
X0212689Y0082323D01*
X0205235Y0082323D01*
X0205235Y0086941D01*
X0205235Y0083137D02*
X0212689Y0083137D01*
X0212689Y0083951D02*
X0205235Y0083951D01*
X0205235Y0084765D02*
X0212689Y0084765D01*
X0212689Y0085579D02*
X0205235Y0085579D01*
X0205235Y0086393D02*
X0212689Y0086393D01*
X0212689Y0080169D02*
X0205235Y0080169D01*
X0212689Y0080169D02*
X0212689Y0075551D01*
X0205235Y0075551D01*
X0205235Y0080169D01*
X0205235Y0076365D02*
X0212689Y0076365D01*
X0212689Y0077179D02*
X0205235Y0077179D01*
X0205235Y0077993D02*
X0212689Y0077993D01*
X0212689Y0078807D02*
X0205235Y0078807D01*
X0205235Y0079621D02*
X0212689Y0079621D01*
X0212689Y0062531D02*
X0205235Y0062531D01*
X0212689Y0062531D02*
X0212689Y0057913D01*
X0205235Y0057913D01*
X0205235Y0062531D01*
X0205235Y0058727D02*
X0212689Y0058727D01*
X0212689Y0059541D02*
X0205235Y0059541D01*
X0205235Y0060355D02*
X0212689Y0060355D01*
X0212689Y0061169D02*
X0205235Y0061169D01*
X0205235Y0061983D02*
X0212689Y0061983D01*
X0212689Y0055760D02*
X0205235Y0055760D01*
X0212689Y0055760D02*
X0212689Y0051142D01*
X0205235Y0051142D01*
X0205235Y0055760D01*
X0205235Y0051956D02*
X0212689Y0051956D01*
X0212689Y0052770D02*
X0205235Y0052770D01*
X0205235Y0053584D02*
X0212689Y0053584D01*
X0212689Y0054398D02*
X0205235Y0054398D01*
X0205235Y0055212D02*
X0212689Y0055212D01*
X0212689Y0038122D02*
X0205235Y0038122D01*
X0212689Y0038122D02*
X0212689Y0033504D01*
X0205235Y0033504D01*
X0205235Y0038122D01*
X0205235Y0034318D02*
X0212689Y0034318D01*
X0212689Y0035132D02*
X0205235Y0035132D01*
X0205235Y0035946D02*
X0212689Y0035946D01*
X0212689Y0036760D02*
X0205235Y0036760D01*
X0205235Y0037574D02*
X0212689Y0037574D01*
X0176862Y0038122D02*
X0169408Y0038122D01*
X0176862Y0038122D02*
X0176862Y0033504D01*
X0169408Y0033504D01*
X0169408Y0038122D01*
X0169408Y0034318D02*
X0176862Y0034318D01*
X0176862Y0035132D02*
X0169408Y0035132D01*
X0169408Y0035946D02*
X0176862Y0035946D01*
X0176862Y0036760D02*
X0169408Y0036760D01*
X0169408Y0037574D02*
X0176862Y0037574D01*
X0176862Y0055760D02*
X0169408Y0055760D01*
X0176862Y0055760D02*
X0176862Y0051142D01*
X0169408Y0051142D01*
X0169408Y0055760D01*
X0169408Y0051956D02*
X0176862Y0051956D01*
X0176862Y0052770D02*
X0169408Y0052770D01*
X0169408Y0053584D02*
X0176862Y0053584D01*
X0176862Y0054398D02*
X0169408Y0054398D01*
X0169408Y0055212D02*
X0176862Y0055212D01*
X0176862Y0062531D02*
X0169408Y0062531D01*
X0176862Y0062531D02*
X0176862Y0057913D01*
X0169408Y0057913D01*
X0169408Y0062531D01*
X0169408Y0058727D02*
X0176862Y0058727D01*
X0176862Y0059541D02*
X0169408Y0059541D01*
X0169408Y0060355D02*
X0176862Y0060355D01*
X0176862Y0061169D02*
X0169408Y0061169D01*
X0169408Y0061983D02*
X0176862Y0061983D01*
X0176862Y0080169D02*
X0169408Y0080169D01*
X0176862Y0080169D02*
X0176862Y0075551D01*
X0169408Y0075551D01*
X0169408Y0080169D01*
X0169408Y0076365D02*
X0176862Y0076365D01*
X0176862Y0077179D02*
X0169408Y0077179D01*
X0169408Y0077993D02*
X0176862Y0077993D01*
X0176862Y0078807D02*
X0169408Y0078807D01*
X0169408Y0079621D02*
X0176862Y0079621D01*
X0176862Y0086941D02*
X0169408Y0086941D01*
X0176862Y0086941D02*
X0176862Y0082323D01*
X0169408Y0082323D01*
X0169408Y0086941D01*
X0169408Y0083137D02*
X0176862Y0083137D01*
X0176862Y0083951D02*
X0169408Y0083951D01*
X0169408Y0084765D02*
X0176862Y0084765D01*
X0176862Y0085579D02*
X0169408Y0085579D01*
X0169408Y0086393D02*
X0176862Y0086393D01*
X0176862Y0104579D02*
X0169408Y0104579D01*
X0176862Y0104579D02*
X0176862Y0099961D01*
X0169408Y0099961D01*
X0169408Y0104579D01*
X0169408Y0100775D02*
X0176862Y0100775D01*
X0176862Y0101589D02*
X0169408Y0101589D01*
X0169408Y0102403D02*
X0176862Y0102403D01*
X0176862Y0103217D02*
X0169408Y0103217D01*
X0169408Y0104031D02*
X0176862Y0104031D01*
D23*
X0140595Y0103933D02*
X0134595Y0103933D01*
X0134595Y0113933D02*
X0140595Y0113933D01*
X0140595Y0123933D02*
X0134595Y0123933D01*
X0134595Y0133933D02*
X0140595Y0133933D01*
X0140595Y0143933D02*
X0134595Y0143933D01*
X0134595Y0153933D02*
X0140595Y0153933D01*
X0140595Y0163933D02*
X0134595Y0163933D01*
X0134595Y0173933D02*
X0140595Y0173933D01*
X0140595Y0183933D02*
X0134595Y0183933D01*
X0132595Y0215022D02*
X0132595Y0221022D01*
X0122595Y0221022D02*
X0122595Y0215022D01*
X0112595Y0215022D02*
X0112595Y0221022D01*
X0102595Y0221022D02*
X0102595Y0215022D01*
X0142595Y0215022D02*
X0142595Y0221022D01*
X0152595Y0221022D02*
X0152595Y0215022D01*
X0162595Y0215022D02*
X0162595Y0221022D01*
X0172595Y0221022D02*
X0172595Y0215022D01*
X0140595Y0093933D02*
X0134595Y0093933D01*
X0134595Y0083933D02*
X0140595Y0083933D01*
X0140595Y0073933D02*
X0134595Y0073933D01*
X0060595Y0073933D02*
X0054595Y0073933D01*
X0054595Y0083933D02*
X0060595Y0083933D01*
X0060595Y0093933D02*
X0054595Y0093933D01*
X0054595Y0103933D02*
X0060595Y0103933D01*
X0060595Y0113933D02*
X0054595Y0113933D01*
X0054595Y0123933D02*
X0060595Y0123933D01*
X0060595Y0133933D02*
X0054595Y0133933D01*
X0054595Y0143933D02*
X0060595Y0143933D01*
X0060595Y0153933D02*
X0054595Y0153933D01*
X0054595Y0163933D02*
X0060595Y0163933D01*
X0060595Y0173933D02*
X0054595Y0173933D01*
X0054595Y0183933D02*
X0060595Y0183933D01*
X0060595Y0063933D02*
X0054595Y0063933D01*
X0054595Y0053933D02*
X0060595Y0053933D01*
X0060595Y0043933D02*
X0054595Y0043933D01*
X0054595Y0033933D02*
X0060595Y0033933D01*
D24*
X0065795Y0075733D02*
X0057595Y0083933D01*
X0057995Y0093733D02*
X0057595Y0093933D01*
X0057995Y0093733D02*
X0072395Y0079333D01*
X0080195Y0079333D01*
X0084995Y0084133D01*
X0109595Y0084133D01*
X0111395Y0085933D01*
X0111395Y0086533D01*
X0132995Y0108133D01*
X0141995Y0108133D01*
X0152795Y0097333D01*
X0168395Y0097333D01*
X0179795Y0085933D01*
X0179795Y0051733D01*
X0173195Y0045133D01*
X0173195Y0036133D01*
X0173135Y0035813D01*
X0173135Y0053451D02*
X0173195Y0053533D01*
X0174395Y0053533D01*
X0178595Y0057733D01*
X0178595Y0072133D01*
X0173195Y0077533D01*
X0173135Y0077860D01*
X0172595Y0077533D01*
X0149795Y0077533D01*
X0146795Y0084133D02*
X0141995Y0079333D01*
X0081995Y0079333D01*
X0080795Y0078133D01*
X0066995Y0078133D01*
X0065795Y0075733D02*
X0080195Y0075733D01*
X0082595Y0078133D01*
X0141995Y0078133D01*
X0159395Y0060733D01*
X0172595Y0060733D01*
X0173135Y0060222D01*
X0172595Y0084133D02*
X0173135Y0084632D01*
X0172595Y0084133D02*
X0146795Y0084133D01*
X0158195Y0099733D02*
X0158195Y0223333D01*
X0153995Y0227533D01*
X0077795Y0227533D01*
X0077595Y0227594D01*
X0071795Y0221533D02*
X0072395Y0220933D01*
X0096395Y0220933D01*
X0100595Y0225133D01*
X0135995Y0225133D01*
X0142595Y0218533D01*
X0142595Y0218022D01*
X0142595Y0218533D02*
X0144395Y0218533D01*
X0150995Y0225133D01*
X0154595Y0225133D01*
X0156995Y0222733D01*
X0156995Y0132733D01*
X0142595Y0118333D01*
X0129395Y0118333D01*
X0107795Y0096733D01*
X0107320Y0096315D01*
X0107195Y0096733D01*
X0104795Y0099133D01*
X0104195Y0099133D01*
X0101795Y0093733D02*
X0101795Y0091933D01*
X0107195Y0086533D01*
X0107320Y0086472D01*
X0107195Y0081733D02*
X0107320Y0081551D01*
X0107795Y0081733D01*
X0114995Y0081733D01*
X0137195Y0103933D01*
X0137595Y0103933D01*
X0141995Y0119533D02*
X0152195Y0129733D01*
X0152195Y0217933D01*
X0152595Y0218022D01*
X0172595Y0218022D02*
X0172595Y0267733D01*
X0176795Y0271933D01*
X0164195Y0284533D01*
X0160595Y0284533D01*
X0158795Y0286333D01*
X0158855Y0288264D01*
X0159395Y0288733D01*
X0162395Y0291733D01*
X0162395Y0302533D01*
X0149795Y0315133D01*
X0069395Y0315133D01*
X0069131Y0315154D01*
X0065195Y0316933D02*
X0065195Y0246733D01*
X0071795Y0251533D02*
X0078995Y0244333D01*
X0078995Y0240733D01*
X0071795Y0233533D01*
X0071795Y0221533D01*
X0071795Y0251533D02*
X0071795Y0265933D01*
X0072395Y0266533D01*
X0073595Y0266533D01*
X0103595Y0296533D01*
X0089795Y0310333D01*
X0071195Y0310333D01*
X0070705Y0310823D01*
X0069131Y0306492D02*
X0069395Y0306133D01*
X0074195Y0306133D01*
X0091595Y0288733D01*
X0087995Y0288133D02*
X0074195Y0301933D01*
X0071195Y0301933D01*
X0070705Y0302161D01*
X0072280Y0297831D02*
X0072395Y0297733D01*
X0074795Y0295333D01*
X0074795Y0272533D01*
X0077795Y0260533D02*
X0077595Y0260272D01*
X0077795Y0260533D02*
X0134795Y0260533D01*
X0153395Y0279133D01*
X0162395Y0279133D01*
X0162595Y0279602D01*
X0158795Y0286333D02*
X0146795Y0274333D01*
X0138395Y0274333D01*
X0135395Y0277333D01*
X0135395Y0279133D01*
X0135095Y0279233D01*
X0134795Y0279733D01*
X0130595Y0279733D01*
X0130095Y0279233D01*
X0137195Y0289333D02*
X0144995Y0297133D01*
X0144995Y0298333D01*
X0145095Y0298633D01*
X0146795Y0303733D02*
X0138395Y0303733D01*
X0135395Y0300733D01*
X0135395Y0298933D01*
X0135095Y0298633D01*
X0139595Y0298333D02*
X0139595Y0295933D01*
X0135395Y0291733D01*
X0137195Y0289333D02*
X0110795Y0289333D01*
X0103595Y0296533D01*
X0098795Y0288133D02*
X0089195Y0278533D01*
X0098795Y0288133D02*
X0141395Y0288133D01*
X0144995Y0284533D01*
X0144995Y0279733D01*
X0145095Y0279233D01*
X0140195Y0279733D02*
X0140095Y0279233D01*
X0140195Y0279733D02*
X0140195Y0285733D01*
X0139595Y0298333D02*
X0140095Y0298633D01*
X0146795Y0303733D02*
X0151595Y0298933D01*
X0158855Y0298933D01*
X0166335Y0298933D02*
X0166595Y0298933D01*
X0166595Y0288733D01*
X0166335Y0288264D01*
X0158855Y0288264D02*
X0158795Y0288133D01*
X0158795Y0286333D01*
X0176795Y0271933D02*
X0210395Y0271933D01*
X0210705Y0271886D01*
X0210395Y0277333D02*
X0208595Y0277333D01*
X0205595Y0274333D01*
X0210395Y0277333D02*
X0210705Y0277791D01*
X0172595Y0218022D02*
X0172595Y0102733D01*
X0173135Y0102270D01*
X0172595Y0102133D01*
X0171995Y0101533D01*
X0171995Y0097333D01*
X0141995Y0119533D02*
X0120995Y0119533D01*
X0098195Y0096733D01*
X0097871Y0096315D01*
X0097595Y0096733D01*
X0088595Y0096733D01*
X0087995Y0097333D01*
X0087595Y0097870D01*
X0087395Y0097333D01*
X0078395Y0088333D01*
X0078395Y0082333D01*
X0078995Y0081733D01*
X0080795Y0087133D02*
X0083195Y0089533D01*
X0087395Y0089533D01*
X0087595Y0089996D01*
X0087995Y0090133D01*
X0098195Y0090133D01*
X0098195Y0086533D01*
X0097871Y0086472D01*
X0098195Y0090133D02*
X0098195Y0091333D01*
X0097871Y0091394D01*
X0098195Y0081733D02*
X0097871Y0081551D01*
X0098195Y0081733D02*
X0107195Y0081733D01*
X0107320Y0091394D02*
X0107795Y0091933D01*
X0111995Y0096133D01*
X0111995Y0097333D01*
X0137595Y0123933D02*
X0130595Y0130933D01*
X0130595Y0157933D01*
X0102995Y0185533D01*
X0102995Y0192133D01*
X0112595Y0178933D02*
X0137595Y0153933D01*
X0112595Y0178933D02*
X0112595Y0218022D01*
X0074795Y0168733D02*
X0074795Y0120733D01*
X0057995Y0103933D01*
X0057595Y0103933D01*
X0057595Y0123933D02*
X0057995Y0124333D01*
X0062195Y0124333D01*
X0066995Y0129133D01*
X0066995Y0131533D01*
X0065795Y0132733D01*
X0065795Y0159133D01*
X0072395Y0165733D01*
X0057995Y0153733D02*
X0064595Y0147133D01*
X0064595Y0130333D01*
X0057995Y0153733D02*
X0057595Y0153933D01*
X0116195Y0298333D02*
X0129995Y0298333D01*
X0130095Y0298633D01*
X0070705Y0319484D02*
X0070595Y0319333D01*
X0067595Y0319333D01*
X0065195Y0316933D01*
D25*
X0087995Y0288133D03*
X0091595Y0288733D03*
X0089195Y0278533D03*
X0074795Y0272533D03*
X0065195Y0246733D03*
X0102995Y0192133D03*
X0074795Y0168733D03*
X0072395Y0165733D03*
X0064595Y0130333D03*
X0080795Y0087133D03*
X0078995Y0081733D03*
X0066995Y0078133D03*
X0101795Y0093733D03*
X0104195Y0099133D03*
X0111995Y0097333D03*
X0149795Y0077533D03*
X0158195Y0099733D03*
X0171995Y0097333D03*
X0205595Y0274333D03*
X0140195Y0285733D03*
X0135395Y0291733D03*
X0116195Y0298333D03*
M02*
