%
M48
M72
T01C0.01378
T02C0.03543
T03C0.04000
%
T01
X66995Y78133
X78995Y81733
X80795Y87133
X101795Y93733
X104195Y99133
X111995Y97333
X149795Y77533
X158195Y99733
X171995Y97333
X102995Y192133
X74795Y168733
X72395Y165733
X64595Y130333
X65195Y246733
X74795Y272533
X89195Y278533
X87995Y288133
X91595Y288733
X116195Y298333
X135395Y291733
X140195Y285733
X205595Y274333
T02
X217595Y274839
X217595Y263028
T03
X102595Y218022
X112595Y218022
X122595Y218022
X132595Y218022
X142595Y218022
X152595Y218022
X162595Y218022
X172595Y218022
X137595Y183933
X137595Y173933
X137595Y163933
X137595Y153933
X137595Y143933
X137595Y133933
X137595Y123933
X137595Y113933
X137595Y103933
X137595Y93933
X137595Y83933
X137595Y73933
X57595Y73933
X57595Y83933
X57595Y93933
X57595Y103933
X57595Y113933
X57595Y123933
X57595Y133933
X57595Y143933
X57595Y153933
X57595Y163933
X57595Y173933
X57595Y183933
X57595Y63933
X57595Y53933
X57595Y43933
X57595Y33933
M30
