G75*
%MOIN*%
%OFA0B0*%
%FSLAX25Y25*%
%IPPOS*%
%LPD*%
%AMOC8*
5,1,8,0,0,1.08239X$1,22.5*
%
%ADD10C,0.00000*%
%ADD11C,0.00600*%
%ADD12C,0.00500*%
%ADD13C,0.00400*%
%ADD14C,0.00800*%
%ADD15C,0.00787*%
%ADD16C,0.01969*%
%ADD17C,0.00100*%
%ADD18C,0.00300*%
%ADD19C,0.01000*%
D10*
X0052595Y0028933D02*
X0052595Y0356610D01*
X0222871Y0356610D01*
X0222871Y0028933D01*
X0052595Y0028933D01*
X0127795Y0287733D02*
X0127864Y0287735D01*
X0127932Y0287741D01*
X0128000Y0287751D01*
X0128067Y0287764D01*
X0128133Y0287782D01*
X0128198Y0287803D01*
X0128262Y0287828D01*
X0128324Y0287856D01*
X0128385Y0287888D01*
X0128444Y0287923D01*
X0128500Y0287962D01*
X0128555Y0288004D01*
X0128606Y0288049D01*
X0128656Y0288097D01*
X0128702Y0288147D01*
X0128745Y0288200D01*
X0128786Y0288256D01*
X0128823Y0288313D01*
X0128856Y0288373D01*
X0128887Y0288435D01*
X0128913Y0288498D01*
X0128936Y0288562D01*
X0128956Y0288628D01*
X0128971Y0288695D01*
X0128983Y0288762D01*
X0128991Y0288830D01*
X0128995Y0288899D01*
X0128995Y0288967D01*
X0128991Y0289036D01*
X0128983Y0289104D01*
X0128971Y0289171D01*
X0128956Y0289238D01*
X0128936Y0289304D01*
X0128913Y0289368D01*
X0128887Y0289431D01*
X0128856Y0289493D01*
X0128823Y0289553D01*
X0128786Y0289610D01*
X0128745Y0289666D01*
X0128702Y0289719D01*
X0128656Y0289769D01*
X0128606Y0289817D01*
X0128555Y0289862D01*
X0128500Y0289904D01*
X0128444Y0289943D01*
X0128385Y0289978D01*
X0128324Y0290010D01*
X0128262Y0290038D01*
X0128198Y0290063D01*
X0128133Y0290084D01*
X0128067Y0290102D01*
X0128000Y0290115D01*
X0127932Y0290125D01*
X0127864Y0290131D01*
X0127795Y0290133D01*
D11*
X0127795Y0287733D01*
X0127795Y0283533D01*
X0127795Y0290133D02*
X0127795Y0294333D01*
X0137895Y0324233D02*
X0137895Y0330639D01*
X0141098Y0330639D01*
X0142165Y0329571D01*
X0142165Y0327436D01*
X0141098Y0326368D01*
X0137895Y0326368D01*
X0144341Y0326368D02*
X0147543Y0326368D01*
X0148611Y0327436D01*
X0148611Y0329571D01*
X0147543Y0330639D01*
X0144341Y0330639D01*
X0144341Y0324233D01*
X0146476Y0326368D02*
X0148611Y0324233D01*
X0150786Y0325301D02*
X0151854Y0324233D01*
X0153989Y0324233D01*
X0155056Y0325301D01*
X0155056Y0329571D01*
X0153989Y0330639D01*
X0151854Y0330639D01*
X0150786Y0329571D01*
X0150786Y0325301D01*
X0157232Y0330639D02*
X0161502Y0330639D01*
X0159367Y0330639D02*
X0159367Y0324233D01*
X0163677Y0325301D02*
X0164745Y0324233D01*
X0166880Y0324233D01*
X0167947Y0325301D01*
X0167947Y0329571D01*
X0166880Y0330639D01*
X0164745Y0330639D01*
X0163677Y0329571D01*
X0163677Y0325301D01*
X0170123Y0330639D02*
X0174393Y0330639D01*
X0172258Y0330639D02*
X0172258Y0324233D01*
X0178703Y0324233D02*
X0178703Y0327436D01*
X0180838Y0329571D01*
X0180838Y0330639D01*
X0183014Y0330639D02*
X0186216Y0330639D01*
X0187284Y0329571D01*
X0187284Y0327436D01*
X0186216Y0326368D01*
X0183014Y0326368D01*
X0183014Y0324233D02*
X0183014Y0330639D01*
X0178703Y0327436D02*
X0176568Y0329571D01*
X0176568Y0330639D01*
X0176568Y0339233D02*
X0179771Y0339233D01*
X0180838Y0340301D01*
X0180838Y0344571D01*
X0179771Y0345639D01*
X0176568Y0345639D01*
X0176568Y0339233D01*
X0174393Y0339233D02*
X0170123Y0339233D01*
X0170123Y0345639D01*
X0174393Y0345639D01*
X0172258Y0342436D02*
X0170123Y0342436D01*
X0167947Y0345639D02*
X0163677Y0345639D01*
X0163677Y0339233D01*
X0167947Y0339233D01*
X0165812Y0342436D02*
X0163677Y0342436D01*
X0161502Y0342436D02*
X0161502Y0344571D01*
X0160434Y0345639D01*
X0157232Y0345639D01*
X0157232Y0339233D01*
X0157232Y0341368D02*
X0160434Y0341368D01*
X0161502Y0342436D01*
X0155056Y0341368D02*
X0155056Y0340301D01*
X0153989Y0339233D01*
X0151854Y0339233D01*
X0150786Y0340301D01*
X0151854Y0342436D02*
X0150786Y0343503D01*
X0150786Y0344571D01*
X0151854Y0345639D01*
X0153989Y0345639D01*
X0155056Y0344571D01*
X0153989Y0342436D02*
X0151854Y0342436D01*
X0153989Y0342436D02*
X0155056Y0341368D01*
X0148611Y0343503D02*
X0146476Y0345639D01*
X0144341Y0343503D01*
X0142165Y0343503D02*
X0140030Y0339233D01*
X0137895Y0343503D01*
X0147395Y0294333D02*
X0147395Y0283533D01*
X0160890Y0257137D02*
X0160890Y0252867D01*
X0160890Y0255002D02*
X0167295Y0255002D01*
X0167295Y0250691D02*
X0160890Y0250691D01*
X0164092Y0250691D02*
X0164092Y0246421D01*
X0164092Y0244246D02*
X0164092Y0242111D01*
X0164092Y0244246D02*
X0166228Y0244246D01*
X0167295Y0243178D01*
X0167295Y0241043D01*
X0166228Y0239976D01*
X0161957Y0239976D01*
X0160890Y0241043D01*
X0160890Y0243178D01*
X0161957Y0244246D01*
X0160890Y0246421D02*
X0167295Y0246421D01*
X0170890Y0245327D02*
X0170890Y0242124D01*
X0177295Y0242124D01*
X0177295Y0245327D01*
X0176228Y0246394D01*
X0171957Y0246394D01*
X0170890Y0245327D01*
X0170890Y0239949D02*
X0177295Y0239949D01*
X0170890Y0235679D01*
X0177295Y0235679D01*
X0176228Y0233503D02*
X0177295Y0232436D01*
X0177295Y0230301D01*
X0176228Y0229233D01*
X0171957Y0229233D01*
X0170890Y0230301D01*
X0170890Y0232436D01*
X0171957Y0233503D01*
X0174092Y0233503D02*
X0174092Y0231368D01*
X0174092Y0233503D02*
X0176228Y0233503D01*
X0167295Y0233503D02*
X0167295Y0229233D01*
X0160890Y0229233D01*
X0157295Y0230301D02*
X0156228Y0229233D01*
X0157295Y0230301D02*
X0157295Y0232436D01*
X0156228Y0233503D01*
X0155160Y0233503D01*
X0154092Y0232436D01*
X0154092Y0231368D01*
X0154092Y0232436D02*
X0153025Y0233503D01*
X0151957Y0233503D01*
X0150890Y0232436D01*
X0150890Y0230301D01*
X0151957Y0229233D01*
X0150890Y0235679D02*
X0155160Y0235679D01*
X0157295Y0237814D01*
X0155160Y0239949D01*
X0150890Y0239949D01*
X0151957Y0242124D02*
X0150890Y0243192D01*
X0150890Y0245327D01*
X0151957Y0246394D01*
X0153025Y0246394D01*
X0154092Y0245327D01*
X0155160Y0246394D01*
X0156228Y0246394D01*
X0157295Y0245327D01*
X0157295Y0243192D01*
X0156228Y0242124D01*
X0154092Y0244259D02*
X0154092Y0245327D01*
X0160890Y0237814D02*
X0160890Y0235679D01*
X0160890Y0236746D02*
X0167295Y0236746D01*
X0167295Y0235679D02*
X0167295Y0237814D01*
X0165095Y0223022D02*
X0160095Y0223022D01*
X0157595Y0220522D01*
X0157595Y0215522D01*
X0160095Y0213022D01*
X0165095Y0213022D01*
X0167595Y0215522D01*
X0170095Y0213022D01*
X0175095Y0213022D01*
X0177595Y0215522D01*
X0177595Y0220522D01*
X0175095Y0223022D01*
X0170095Y0223022D01*
X0167595Y0220522D01*
X0167595Y0215522D01*
X0167595Y0220522D02*
X0165095Y0223022D01*
X0157595Y0220522D02*
X0155095Y0223022D01*
X0150095Y0223022D01*
X0147595Y0220522D01*
X0147595Y0215522D01*
X0145095Y0213022D01*
X0140095Y0213022D01*
X0137595Y0215522D01*
X0135095Y0213022D01*
X0130095Y0213022D01*
X0127595Y0215522D01*
X0125095Y0213022D01*
X0120095Y0213022D01*
X0117595Y0215522D01*
X0115095Y0213022D01*
X0110095Y0213022D01*
X0107595Y0215522D01*
X0105095Y0213022D01*
X0100095Y0213022D01*
X0097595Y0215522D01*
X0097595Y0220522D01*
X0100095Y0223022D01*
X0105095Y0223022D01*
X0107595Y0220522D01*
X0110095Y0223022D01*
X0115095Y0223022D01*
X0117595Y0220522D01*
X0117595Y0215522D01*
X0117595Y0220522D02*
X0120095Y0223022D01*
X0125095Y0223022D01*
X0127595Y0220522D01*
X0130095Y0223022D01*
X0135095Y0223022D01*
X0137595Y0220522D01*
X0140095Y0223022D01*
X0145095Y0223022D01*
X0147595Y0220522D01*
X0147595Y0215522D02*
X0150095Y0213022D01*
X0155095Y0213022D01*
X0157595Y0215522D01*
X0146228Y0229233D02*
X0147295Y0230301D01*
X0147295Y0232436D01*
X0146228Y0233503D01*
X0145160Y0233503D01*
X0144092Y0232436D01*
X0144092Y0230301D01*
X0143025Y0229233D01*
X0141957Y0229233D01*
X0140890Y0230301D01*
X0140890Y0232436D01*
X0141957Y0233503D01*
X0141957Y0235679D02*
X0146228Y0235679D01*
X0147295Y0236746D01*
X0147295Y0238881D01*
X0146228Y0239949D01*
X0147295Y0242124D02*
X0140890Y0242124D01*
X0141957Y0239949D02*
X0140890Y0238881D01*
X0140890Y0236746D01*
X0141957Y0235679D01*
X0137295Y0236746D02*
X0136228Y0235679D01*
X0131957Y0235679D01*
X0130890Y0236746D01*
X0130890Y0238881D01*
X0131957Y0239949D01*
X0136228Y0239949D01*
X0137295Y0238881D01*
X0137295Y0236746D01*
X0137295Y0233503D02*
X0130890Y0233503D01*
X0133025Y0231368D01*
X0130890Y0229233D01*
X0137295Y0229233D01*
X0137595Y0220522D02*
X0137595Y0215522D01*
X0127595Y0215522D02*
X0127595Y0220522D01*
X0127295Y0229233D02*
X0120890Y0229233D01*
X0120890Y0232436D01*
X0121957Y0233503D01*
X0126228Y0233503D01*
X0127295Y0232436D01*
X0127295Y0229233D01*
X0126228Y0235679D02*
X0127295Y0236746D01*
X0127295Y0238881D01*
X0126228Y0239949D01*
X0126228Y0235679D02*
X0121957Y0235679D01*
X0120890Y0236746D01*
X0120890Y0238881D01*
X0121957Y0239949D01*
X0117295Y0238881D02*
X0117295Y0236746D01*
X0116228Y0235679D01*
X0116228Y0233503D02*
X0117295Y0232436D01*
X0117295Y0230301D01*
X0116228Y0229233D01*
X0111957Y0229233D01*
X0110890Y0230301D01*
X0110890Y0232436D01*
X0111957Y0233503D01*
X0111957Y0235679D02*
X0113025Y0235679D01*
X0114092Y0236746D01*
X0114092Y0238881D01*
X0115160Y0239949D01*
X0116228Y0239949D01*
X0117295Y0238881D01*
X0111957Y0239949D02*
X0110890Y0238881D01*
X0110890Y0236746D01*
X0111957Y0235679D01*
X0107295Y0236746D02*
X0106228Y0235679D01*
X0107295Y0236746D02*
X0107295Y0238881D01*
X0106228Y0239949D01*
X0105160Y0239949D01*
X0104092Y0238881D01*
X0104092Y0236746D01*
X0103025Y0235679D01*
X0101957Y0235679D01*
X0100890Y0236746D01*
X0100890Y0238881D01*
X0101957Y0239949D01*
X0100890Y0242124D02*
X0100890Y0246394D01*
X0100890Y0244259D02*
X0107295Y0244259D01*
X0107295Y0233503D02*
X0105160Y0231368D01*
X0105160Y0232436D02*
X0105160Y0229233D01*
X0107295Y0229233D02*
X0100890Y0229233D01*
X0100890Y0232436D01*
X0101957Y0233503D01*
X0104092Y0233503D01*
X0105160Y0232436D01*
X0107595Y0220522D02*
X0107595Y0215522D01*
X0085056Y0185639D02*
X0085056Y0180301D01*
X0083989Y0179233D01*
X0081854Y0179233D01*
X0080786Y0180301D01*
X0080786Y0185639D01*
X0078611Y0185639D02*
X0074341Y0185639D01*
X0074341Y0179233D01*
X0072165Y0180301D02*
X0072165Y0184571D01*
X0071098Y0185639D01*
X0067895Y0185639D01*
X0067895Y0179233D01*
X0071098Y0179233D01*
X0072165Y0180301D01*
X0074341Y0182436D02*
X0076476Y0182436D01*
X0076476Y0175639D02*
X0076476Y0169233D01*
X0077543Y0165639D02*
X0074341Y0165639D01*
X0074341Y0159233D01*
X0074341Y0161368D02*
X0077543Y0161368D01*
X0078611Y0162436D01*
X0078611Y0164571D01*
X0077543Y0165639D01*
X0080786Y0165639D02*
X0085056Y0159233D01*
X0086151Y0155639D02*
X0085083Y0154571D01*
X0085083Y0150301D01*
X0086151Y0149233D01*
X0088286Y0149233D01*
X0089353Y0150301D01*
X0089353Y0154571D01*
X0088286Y0155639D01*
X0086151Y0155639D01*
X0082908Y0154571D02*
X0081840Y0155639D01*
X0079705Y0155639D01*
X0078638Y0154571D01*
X0078638Y0153503D01*
X0079705Y0152436D01*
X0081840Y0152436D01*
X0082908Y0151368D01*
X0082908Y0150301D01*
X0081840Y0149233D01*
X0079705Y0149233D01*
X0078638Y0150301D01*
X0076476Y0149233D02*
X0074341Y0149233D01*
X0075408Y0149233D02*
X0075408Y0155639D01*
X0074341Y0155639D02*
X0076476Y0155639D01*
X0078611Y0159233D02*
X0076476Y0161368D01*
X0072165Y0160301D02*
X0072165Y0164571D01*
X0067895Y0160301D01*
X0068963Y0159233D01*
X0071098Y0159233D01*
X0072165Y0160301D01*
X0072165Y0164571D02*
X0071098Y0165639D01*
X0068963Y0165639D01*
X0067895Y0164571D01*
X0067895Y0160301D01*
X0067895Y0155639D02*
X0070030Y0153503D01*
X0072165Y0155639D01*
X0072165Y0149233D01*
X0072165Y0145639D02*
X0072165Y0139233D01*
X0074341Y0140301D02*
X0075408Y0139233D01*
X0077543Y0139233D01*
X0078611Y0140301D01*
X0078611Y0144571D01*
X0077543Y0145639D01*
X0075408Y0145639D01*
X0074341Y0144571D01*
X0074341Y0140301D01*
X0075408Y0135639D02*
X0074341Y0134571D01*
X0074341Y0130301D01*
X0075408Y0129233D01*
X0077543Y0129233D01*
X0078611Y0130301D01*
X0080786Y0131368D02*
X0085056Y0135639D01*
X0083989Y0139233D02*
X0081854Y0139233D01*
X0080786Y0140301D01*
X0081854Y0142436D02*
X0083989Y0142436D01*
X0085056Y0141368D01*
X0085056Y0140301D01*
X0083989Y0139233D01*
X0081854Y0142436D02*
X0080786Y0143503D01*
X0080786Y0144571D01*
X0081854Y0145639D01*
X0083989Y0145639D01*
X0085056Y0144571D01*
X0087232Y0145639D02*
X0089367Y0145639D01*
X0088299Y0145639D02*
X0088299Y0139233D01*
X0087232Y0139233D02*
X0089367Y0139233D01*
X0080786Y0135639D02*
X0080786Y0129233D01*
X0081854Y0132436D02*
X0085056Y0129233D01*
X0078611Y0125639D02*
X0074341Y0125639D01*
X0074341Y0122436D01*
X0076476Y0123503D01*
X0077543Y0123503D01*
X0078611Y0122436D01*
X0078611Y0120301D01*
X0077543Y0119233D01*
X0075408Y0119233D01*
X0074341Y0120301D01*
X0072165Y0119233D02*
X0072165Y0123503D01*
X0070030Y0125639D01*
X0067895Y0123503D01*
X0067895Y0119233D01*
X0067895Y0122436D02*
X0072165Y0122436D01*
X0071098Y0129233D02*
X0068963Y0129233D01*
X0067895Y0130301D01*
X0068963Y0132436D02*
X0071098Y0132436D01*
X0072165Y0131368D01*
X0072165Y0130301D01*
X0071098Y0129233D01*
X0068963Y0132436D02*
X0067895Y0133503D01*
X0067895Y0134571D01*
X0068963Y0135639D01*
X0071098Y0135639D01*
X0072165Y0134571D01*
X0075408Y0135639D02*
X0077543Y0135639D01*
X0078611Y0134571D01*
X0070030Y0143503D02*
X0072165Y0145639D01*
X0070030Y0143503D02*
X0067895Y0145639D01*
X0067895Y0139233D01*
X0062595Y0141433D02*
X0062595Y0146433D01*
X0060095Y0148933D01*
X0062595Y0151433D01*
X0062595Y0156433D01*
X0060095Y0158933D01*
X0062595Y0161433D01*
X0062595Y0166433D01*
X0060095Y0168933D01*
X0055095Y0168933D01*
X0052595Y0166433D01*
X0052595Y0161433D01*
X0055095Y0158933D01*
X0060095Y0158933D01*
X0055095Y0158933D02*
X0052595Y0156433D01*
X0052595Y0151433D01*
X0055095Y0148933D01*
X0060095Y0148933D01*
X0055095Y0148933D02*
X0052595Y0146433D01*
X0052595Y0141433D01*
X0055095Y0138933D01*
X0060095Y0138933D01*
X0062595Y0136433D01*
X0062595Y0131433D01*
X0060095Y0128933D01*
X0062595Y0126433D01*
X0062595Y0121433D01*
X0060095Y0118933D01*
X0062595Y0116433D01*
X0062595Y0111433D01*
X0060095Y0108933D01*
X0062595Y0106433D01*
X0062595Y0101433D01*
X0060095Y0098933D01*
X0062595Y0096433D01*
X0062595Y0091433D01*
X0060095Y0088933D01*
X0062595Y0086433D01*
X0062595Y0081433D01*
X0060095Y0078933D01*
X0062595Y0076433D01*
X0062595Y0071433D01*
X0060095Y0068933D01*
X0062595Y0066433D01*
X0062595Y0061433D01*
X0060095Y0058933D01*
X0062595Y0056433D01*
X0062595Y0051433D01*
X0060095Y0048933D01*
X0062595Y0046433D01*
X0062595Y0041433D01*
X0060095Y0038933D01*
X0062595Y0036433D01*
X0062595Y0031433D01*
X0060095Y0028933D01*
X0055095Y0028933D01*
X0052595Y0031433D01*
X0052595Y0036433D01*
X0055095Y0038933D01*
X0052595Y0041433D01*
X0052595Y0046433D01*
X0055095Y0048933D01*
X0060095Y0048933D01*
X0055095Y0048933D02*
X0052595Y0051433D01*
X0052595Y0056433D01*
X0055095Y0058933D01*
X0052595Y0061433D01*
X0052595Y0066433D01*
X0055095Y0068933D01*
X0052595Y0071433D01*
X0052595Y0076433D01*
X0055095Y0078933D01*
X0060095Y0078933D01*
X0055095Y0078933D02*
X0052595Y0081433D01*
X0052595Y0086433D01*
X0055095Y0088933D01*
X0052595Y0091433D01*
X0052595Y0096433D01*
X0055095Y0098933D01*
X0052595Y0101433D01*
X0052595Y0106433D01*
X0055095Y0108933D01*
X0060095Y0108933D01*
X0055095Y0108933D02*
X0052595Y0111433D01*
X0052595Y0116433D01*
X0055095Y0118933D01*
X0052595Y0121433D01*
X0052595Y0126433D01*
X0055095Y0128933D01*
X0052595Y0131433D01*
X0052595Y0136433D01*
X0055095Y0138933D01*
X0060095Y0138933D02*
X0062595Y0141433D01*
X0067895Y0149233D02*
X0067895Y0155639D01*
X0067895Y0169233D02*
X0072165Y0169233D01*
X0070030Y0169233D02*
X0070030Y0175639D01*
X0067895Y0173503D01*
X0062595Y0171433D02*
X0060095Y0168933D01*
X0062595Y0171433D02*
X0062595Y0176433D01*
X0060095Y0178933D01*
X0062595Y0181433D01*
X0062595Y0186433D01*
X0060095Y0188933D01*
X0055095Y0188933D01*
X0052595Y0186433D01*
X0052595Y0181433D01*
X0055095Y0178933D01*
X0060095Y0178933D01*
X0055095Y0178933D02*
X0052595Y0176433D01*
X0052595Y0171433D01*
X0055095Y0168933D01*
X0074341Y0175639D02*
X0078611Y0175639D01*
X0080786Y0175639D02*
X0085056Y0169233D01*
X0085056Y0165639D02*
X0080786Y0159233D01*
X0080786Y0169233D02*
X0085056Y0175639D01*
X0060095Y0128933D02*
X0055095Y0128933D01*
X0055095Y0118933D02*
X0060095Y0118933D01*
X0067895Y0113503D02*
X0067895Y0109233D01*
X0067895Y0112436D02*
X0072165Y0112436D01*
X0072165Y0113503D02*
X0072165Y0109233D01*
X0074341Y0112436D02*
X0078611Y0112436D01*
X0077543Y0109233D02*
X0077543Y0115639D01*
X0074341Y0112436D01*
X0072165Y0113503D02*
X0070030Y0115639D01*
X0067895Y0113503D01*
X0070030Y0105639D02*
X0067895Y0103503D01*
X0067895Y0099233D01*
X0067895Y0102436D02*
X0072165Y0102436D01*
X0072165Y0103503D02*
X0072165Y0099233D01*
X0074341Y0100301D02*
X0075408Y0099233D01*
X0077543Y0099233D01*
X0078611Y0100301D01*
X0078611Y0101368D01*
X0077543Y0102436D01*
X0076476Y0102436D01*
X0077543Y0102436D02*
X0078611Y0103503D01*
X0078611Y0104571D01*
X0077543Y0105639D01*
X0075408Y0105639D01*
X0074341Y0104571D01*
X0072165Y0103503D02*
X0070030Y0105639D01*
X0070030Y0095639D02*
X0072165Y0093503D01*
X0072165Y0089233D01*
X0074341Y0089233D02*
X0078611Y0093503D01*
X0078611Y0094571D01*
X0077543Y0095639D01*
X0075408Y0095639D01*
X0074341Y0094571D01*
X0072165Y0092436D02*
X0067895Y0092436D01*
X0067895Y0093503D02*
X0070030Y0095639D01*
X0067895Y0093503D02*
X0067895Y0089233D01*
X0070030Y0085639D02*
X0072165Y0083503D01*
X0072165Y0079233D01*
X0074341Y0079233D02*
X0078611Y0079233D01*
X0076476Y0079233D02*
X0076476Y0085639D01*
X0074341Y0083503D01*
X0072165Y0082436D02*
X0067895Y0082436D01*
X0067895Y0083503D02*
X0070030Y0085639D01*
X0067895Y0083503D02*
X0067895Y0079233D01*
X0070030Y0075639D02*
X0067895Y0073503D01*
X0067895Y0069233D01*
X0067895Y0072436D02*
X0072165Y0072436D01*
X0072165Y0073503D02*
X0072165Y0069233D01*
X0074341Y0070301D02*
X0078611Y0074571D01*
X0078611Y0070301D01*
X0077543Y0069233D01*
X0075408Y0069233D01*
X0074341Y0070301D01*
X0074341Y0074571D01*
X0075408Y0075639D01*
X0077543Y0075639D01*
X0078611Y0074571D01*
X0072165Y0073503D02*
X0070030Y0075639D01*
X0068963Y0065639D02*
X0067895Y0064571D01*
X0067895Y0060301D01*
X0068963Y0059233D01*
X0071098Y0059233D01*
X0072165Y0060301D01*
X0072165Y0062436D01*
X0070030Y0062436D01*
X0072165Y0064571D02*
X0071098Y0065639D01*
X0068963Y0065639D01*
X0074341Y0065639D02*
X0074341Y0059233D01*
X0074341Y0055639D02*
X0074341Y0049233D01*
X0078611Y0049233D01*
X0080786Y0049233D02*
X0080786Y0055639D01*
X0085056Y0055639D01*
X0083989Y0059233D02*
X0085056Y0060301D01*
X0085056Y0064571D01*
X0083989Y0065639D01*
X0080786Y0065639D01*
X0080786Y0059233D01*
X0083989Y0059233D01*
X0078611Y0059233D02*
X0078611Y0065639D01*
X0074341Y0065639D02*
X0078611Y0059233D01*
X0078611Y0055639D02*
X0074341Y0055639D01*
X0072165Y0054571D02*
X0072165Y0052436D01*
X0071098Y0051368D01*
X0067895Y0051368D01*
X0067895Y0049233D02*
X0067895Y0055639D01*
X0071098Y0055639D01*
X0072165Y0054571D01*
X0074341Y0052436D02*
X0076476Y0052436D01*
X0072165Y0049233D02*
X0070030Y0051368D01*
X0068963Y0045639D02*
X0071098Y0045639D01*
X0072165Y0044571D01*
X0072165Y0043503D01*
X0071098Y0042436D01*
X0072165Y0041368D01*
X0072165Y0040301D01*
X0071098Y0039233D01*
X0068963Y0039233D01*
X0067895Y0040301D01*
X0070030Y0042436D02*
X0071098Y0042436D01*
X0074341Y0041368D02*
X0076476Y0039233D01*
X0078611Y0041368D01*
X0078611Y0045639D01*
X0080786Y0044571D02*
X0081854Y0045639D01*
X0083989Y0045639D01*
X0085056Y0044571D01*
X0085056Y0043503D01*
X0083989Y0042436D01*
X0085056Y0041368D01*
X0085056Y0040301D01*
X0083989Y0039233D01*
X0081854Y0039233D01*
X0080786Y0040301D01*
X0082921Y0042436D02*
X0083989Y0042436D01*
X0085056Y0035639D02*
X0080786Y0035639D01*
X0082921Y0035639D02*
X0082921Y0029233D01*
X0078611Y0030301D02*
X0077543Y0029233D01*
X0075408Y0029233D01*
X0074341Y0030301D01*
X0075408Y0032436D02*
X0074341Y0033503D01*
X0074341Y0034571D01*
X0075408Y0035639D01*
X0077543Y0035639D01*
X0078611Y0034571D01*
X0077543Y0032436D02*
X0075408Y0032436D01*
X0077543Y0032436D02*
X0078611Y0031368D01*
X0078611Y0030301D01*
X0072165Y0029233D02*
X0070030Y0031368D01*
X0071098Y0031368D02*
X0067895Y0031368D01*
X0067895Y0029233D02*
X0067895Y0035639D01*
X0071098Y0035639D01*
X0072165Y0034571D01*
X0072165Y0032436D01*
X0071098Y0031368D01*
X0074341Y0041368D02*
X0074341Y0045639D01*
X0068963Y0045639D02*
X0067895Y0044571D01*
X0060095Y0038933D02*
X0055095Y0038933D01*
X0055095Y0058933D02*
X0060095Y0058933D01*
X0060095Y0068933D02*
X0055095Y0068933D01*
X0055095Y0088933D02*
X0060095Y0088933D01*
X0060095Y0098933D02*
X0055095Y0098933D01*
X0074341Y0089233D02*
X0078611Y0089233D01*
X0080786Y0052436D02*
X0082921Y0052436D01*
X0132595Y0071433D02*
X0135095Y0068933D01*
X0140095Y0068933D01*
X0142595Y0071433D01*
X0142595Y0076433D01*
X0140095Y0078933D01*
X0142595Y0081433D01*
X0142595Y0086433D01*
X0140095Y0088933D01*
X0135095Y0088933D01*
X0132595Y0086433D01*
X0132595Y0081433D01*
X0135095Y0078933D01*
X0140095Y0078933D01*
X0135095Y0078933D02*
X0132595Y0076433D01*
X0132595Y0071433D01*
X0135095Y0088933D02*
X0132595Y0091433D01*
X0132595Y0096433D01*
X0135095Y0098933D01*
X0132595Y0101433D01*
X0132595Y0106433D01*
X0135095Y0108933D01*
X0132595Y0111433D01*
X0132595Y0116433D01*
X0135095Y0118933D01*
X0140095Y0118933D01*
X0142595Y0116433D01*
X0142595Y0111433D01*
X0140095Y0108933D01*
X0142595Y0106433D01*
X0142595Y0101433D01*
X0140095Y0098933D01*
X0142595Y0096433D01*
X0142595Y0091433D01*
X0140095Y0088933D01*
X0140095Y0098933D02*
X0135095Y0098933D01*
X0135095Y0108933D02*
X0140095Y0108933D01*
X0147895Y0109233D02*
X0151098Y0109233D01*
X0152165Y0110301D01*
X0152165Y0114571D01*
X0151098Y0115639D01*
X0147895Y0115639D01*
X0147895Y0109233D01*
X0147895Y0105639D02*
X0151098Y0105639D01*
X0152165Y0104571D01*
X0152165Y0100301D01*
X0151098Y0099233D01*
X0147895Y0099233D01*
X0147895Y0105639D01*
X0147895Y0095639D02*
X0147895Y0090301D01*
X0148963Y0089233D01*
X0151098Y0089233D01*
X0152165Y0090301D01*
X0152165Y0095639D01*
X0154341Y0094571D02*
X0154341Y0093503D01*
X0155408Y0092436D01*
X0157543Y0092436D01*
X0158611Y0091368D01*
X0158611Y0090301D01*
X0157543Y0089233D01*
X0155408Y0089233D01*
X0154341Y0090301D01*
X0154341Y0094571D02*
X0155408Y0095639D01*
X0157543Y0095639D01*
X0158611Y0094571D01*
X0160786Y0095639D02*
X0160786Y0089233D01*
X0163989Y0089233D01*
X0165056Y0090301D01*
X0165056Y0091368D01*
X0163989Y0092436D01*
X0160786Y0092436D01*
X0160786Y0095639D02*
X0163989Y0095639D01*
X0165056Y0094571D01*
X0165056Y0093503D01*
X0163989Y0092436D01*
X0163989Y0099233D02*
X0161854Y0099233D01*
X0160786Y0100301D01*
X0158611Y0099233D02*
X0154341Y0099233D01*
X0156476Y0099233D02*
X0156476Y0105639D01*
X0154341Y0103503D01*
X0154341Y0109233D02*
X0158611Y0109233D01*
X0156476Y0109233D02*
X0156476Y0115639D01*
X0154341Y0113503D01*
X0154341Y0119233D02*
X0158611Y0119233D01*
X0156476Y0119233D02*
X0156476Y0125639D01*
X0154341Y0123503D01*
X0152165Y0124571D02*
X0152165Y0120301D01*
X0151098Y0119233D01*
X0147895Y0119233D01*
X0147895Y0125639D01*
X0151098Y0125639D01*
X0152165Y0124571D01*
X0151098Y0129233D02*
X0152165Y0130301D01*
X0152165Y0134571D01*
X0151098Y0135639D01*
X0147895Y0135639D01*
X0147895Y0129233D01*
X0151098Y0129233D01*
X0154341Y0129233D02*
X0158611Y0129233D01*
X0156476Y0129233D02*
X0156476Y0135639D01*
X0154341Y0133503D01*
X0155408Y0139233D02*
X0157543Y0139233D01*
X0158611Y0140301D01*
X0158611Y0144571D01*
X0157543Y0145639D01*
X0155408Y0145639D01*
X0154341Y0144571D01*
X0154341Y0143503D01*
X0155408Y0142436D01*
X0158611Y0142436D01*
X0155408Y0139233D02*
X0154341Y0140301D01*
X0152165Y0140301D02*
X0152165Y0144571D01*
X0151098Y0145639D01*
X0147895Y0145639D01*
X0147895Y0139233D01*
X0151098Y0139233D01*
X0152165Y0140301D01*
X0151098Y0149233D02*
X0147895Y0149233D01*
X0147895Y0155639D01*
X0151098Y0155639D01*
X0152165Y0154571D01*
X0152165Y0150301D01*
X0151098Y0149233D01*
X0154341Y0150301D02*
X0155408Y0149233D01*
X0157543Y0149233D01*
X0158611Y0150301D01*
X0158611Y0151368D01*
X0157543Y0152436D01*
X0154341Y0152436D01*
X0154341Y0150301D01*
X0154341Y0152436D02*
X0156476Y0154571D01*
X0158611Y0155639D01*
X0157543Y0159233D02*
X0155408Y0159233D01*
X0154341Y0160301D01*
X0154341Y0162436D02*
X0156476Y0163503D01*
X0157543Y0163503D01*
X0158611Y0162436D01*
X0158611Y0160301D01*
X0157543Y0159233D01*
X0154341Y0162436D02*
X0154341Y0165639D01*
X0158611Y0165639D01*
X0157543Y0169233D02*
X0155408Y0169233D01*
X0154341Y0170301D01*
X0154341Y0174571D01*
X0155408Y0175639D01*
X0157543Y0175639D01*
X0158611Y0174571D01*
X0160786Y0175639D02*
X0160786Y0169233D01*
X0165056Y0169233D01*
X0165056Y0179233D02*
X0165056Y0183503D01*
X0162921Y0185639D01*
X0160786Y0183503D01*
X0160786Y0179233D01*
X0158611Y0180301D02*
X0158611Y0184571D01*
X0157543Y0185639D01*
X0154341Y0185639D01*
X0154341Y0179233D01*
X0157543Y0179233D01*
X0158611Y0180301D01*
X0160786Y0182436D02*
X0165056Y0182436D01*
X0158611Y0170301D02*
X0157543Y0169233D01*
X0152165Y0170301D02*
X0151098Y0169233D01*
X0148963Y0169233D01*
X0147895Y0170301D01*
X0148963Y0172436D02*
X0147895Y0173503D01*
X0147895Y0174571D01*
X0148963Y0175639D01*
X0151098Y0175639D01*
X0152165Y0174571D01*
X0151098Y0172436D02*
X0152165Y0171368D01*
X0152165Y0170301D01*
X0151098Y0172436D02*
X0148963Y0172436D01*
X0148963Y0179233D02*
X0147895Y0180301D01*
X0148963Y0179233D02*
X0151098Y0179233D01*
X0152165Y0180301D01*
X0152165Y0181368D01*
X0151098Y0182436D01*
X0148963Y0182436D01*
X0147895Y0183503D01*
X0147895Y0184571D01*
X0148963Y0185639D01*
X0151098Y0185639D01*
X0152165Y0184571D01*
X0142595Y0186433D02*
X0142595Y0181433D01*
X0140095Y0178933D01*
X0142595Y0176433D01*
X0142595Y0171433D01*
X0140095Y0168933D01*
X0142595Y0166433D01*
X0142595Y0161433D01*
X0140095Y0158933D01*
X0142595Y0156433D01*
X0142595Y0151433D01*
X0140095Y0148933D01*
X0142595Y0146433D01*
X0142595Y0141433D01*
X0140095Y0138933D01*
X0142595Y0136433D01*
X0142595Y0131433D01*
X0140095Y0128933D01*
X0142595Y0126433D01*
X0142595Y0121433D01*
X0140095Y0118933D01*
X0135095Y0118933D02*
X0132595Y0121433D01*
X0132595Y0126433D01*
X0135095Y0128933D01*
X0132595Y0131433D01*
X0132595Y0136433D01*
X0135095Y0138933D01*
X0132595Y0141433D01*
X0132595Y0146433D01*
X0135095Y0148933D01*
X0140095Y0148933D01*
X0135095Y0148933D02*
X0132595Y0151433D01*
X0132595Y0156433D01*
X0135095Y0158933D01*
X0132595Y0161433D01*
X0132595Y0166433D01*
X0135095Y0168933D01*
X0132595Y0171433D01*
X0132595Y0176433D01*
X0135095Y0178933D01*
X0132595Y0181433D01*
X0132595Y0186433D01*
X0135095Y0188933D01*
X0140095Y0188933D01*
X0142595Y0186433D01*
X0140095Y0178933D02*
X0135095Y0178933D01*
X0135095Y0168933D02*
X0140095Y0168933D01*
X0147895Y0165639D02*
X0147895Y0159233D01*
X0151098Y0159233D01*
X0152165Y0160301D01*
X0152165Y0164571D01*
X0151098Y0165639D01*
X0147895Y0165639D01*
X0140095Y0158933D02*
X0135095Y0158933D01*
X0135095Y0138933D02*
X0140095Y0138933D01*
X0140095Y0128933D02*
X0135095Y0128933D01*
X0160786Y0130301D02*
X0165056Y0134571D01*
X0165056Y0130301D01*
X0163989Y0129233D01*
X0161854Y0129233D01*
X0160786Y0130301D01*
X0160786Y0134571D01*
X0161854Y0135639D01*
X0163989Y0135639D01*
X0165056Y0134571D01*
X0162921Y0125639D02*
X0160786Y0123503D01*
X0162921Y0125639D02*
X0162921Y0119233D01*
X0160786Y0119233D02*
X0165056Y0119233D01*
X0163989Y0115639D02*
X0161854Y0115639D01*
X0160786Y0114571D01*
X0163989Y0115639D02*
X0165056Y0114571D01*
X0165056Y0113503D01*
X0160786Y0109233D01*
X0165056Y0109233D01*
X0163989Y0105639D02*
X0165056Y0104571D01*
X0165056Y0103503D01*
X0163989Y0102436D01*
X0165056Y0101368D01*
X0165056Y0100301D01*
X0163989Y0099233D01*
X0163989Y0102436D02*
X0162921Y0102436D01*
X0160786Y0104571D02*
X0161854Y0105639D01*
X0163989Y0105639D01*
X0169312Y0109344D02*
X0170382Y0108275D01*
X0172521Y0108275D01*
X0173590Y0109344D01*
X0173590Y0110414D01*
X0172521Y0111483D01*
X0170382Y0111483D01*
X0169312Y0112553D01*
X0169312Y0113622D01*
X0170382Y0114692D01*
X0172521Y0114692D01*
X0173590Y0113622D01*
X0175768Y0114692D02*
X0175768Y0108275D01*
X0177907Y0110414D01*
X0180047Y0108275D01*
X0180047Y0114692D01*
X0182225Y0112553D02*
X0184364Y0114692D01*
X0184364Y0108275D01*
X0182225Y0108275D02*
X0186503Y0108275D01*
X0185433Y0090283D02*
X0183294Y0090283D01*
X0182225Y0089213D01*
X0180047Y0090283D02*
X0180047Y0083865D01*
X0177907Y0086004D01*
X0175768Y0083865D01*
X0175768Y0090283D01*
X0173590Y0089213D02*
X0172521Y0090283D01*
X0170382Y0090283D01*
X0169312Y0089213D01*
X0169312Y0088144D01*
X0170382Y0087074D01*
X0172521Y0087074D01*
X0173590Y0086004D01*
X0173590Y0084935D01*
X0172521Y0083865D01*
X0170382Y0083865D01*
X0169312Y0084935D01*
X0165056Y0075639D02*
X0160786Y0075639D01*
X0162921Y0075639D02*
X0162921Y0069233D01*
X0158611Y0069233D02*
X0158611Y0073503D01*
X0156476Y0075639D01*
X0154341Y0073503D01*
X0154341Y0069233D01*
X0152165Y0070301D02*
X0151098Y0069233D01*
X0147895Y0069233D01*
X0147895Y0075639D01*
X0151098Y0075639D01*
X0152165Y0074571D01*
X0152165Y0073503D01*
X0151098Y0072436D01*
X0147895Y0072436D01*
X0151098Y0072436D02*
X0152165Y0071368D01*
X0152165Y0070301D01*
X0154341Y0072436D02*
X0158611Y0072436D01*
X0158611Y0079233D02*
X0158611Y0085639D01*
X0154341Y0085639D02*
X0158611Y0079233D01*
X0154341Y0079233D02*
X0154341Y0085639D01*
X0152165Y0085639D02*
X0147895Y0085639D01*
X0147895Y0079233D01*
X0152165Y0079233D01*
X0150030Y0082436D02*
X0147895Y0082436D01*
X0169312Y0064804D02*
X0169312Y0063734D01*
X0170382Y0062665D01*
X0172521Y0062665D01*
X0173590Y0061595D01*
X0173590Y0060526D01*
X0172521Y0059456D01*
X0170382Y0059456D01*
X0169312Y0060526D01*
X0169312Y0064804D02*
X0170382Y0065873D01*
X0172521Y0065873D01*
X0173590Y0064804D01*
X0175768Y0065873D02*
X0175768Y0059456D01*
X0177907Y0061595D01*
X0180047Y0059456D01*
X0180047Y0065873D01*
X0182225Y0064804D02*
X0183294Y0065873D01*
X0185433Y0065873D01*
X0186503Y0064804D01*
X0186503Y0063734D01*
X0185433Y0062665D01*
X0186503Y0061595D01*
X0186503Y0060526D01*
X0185433Y0059456D01*
X0183294Y0059456D01*
X0182225Y0060526D01*
X0184364Y0062665D02*
X0185433Y0062665D01*
X0186503Y0083865D02*
X0182225Y0083865D01*
X0186503Y0088144D01*
X0186503Y0089213D01*
X0185433Y0090283D01*
X0145160Y0242124D02*
X0140890Y0246394D01*
X0137295Y0245327D02*
X0137295Y0243192D01*
X0136228Y0242124D01*
X0134092Y0243192D02*
X0134092Y0245327D01*
X0135160Y0246394D01*
X0136228Y0246394D01*
X0137295Y0245327D01*
X0137295Y0248570D02*
X0137295Y0250705D01*
X0137295Y0249637D02*
X0130890Y0249637D01*
X0130890Y0248570D02*
X0130890Y0250705D01*
X0131957Y0246394D02*
X0130890Y0245327D01*
X0130890Y0243192D01*
X0131957Y0242124D01*
X0133025Y0242124D01*
X0134092Y0243192D01*
X0144092Y0243192D02*
X0147295Y0246394D01*
X0189459Y0324233D02*
X0193729Y0324233D01*
X0195905Y0324233D02*
X0195905Y0330639D01*
X0198040Y0330639D01*
X0200202Y0330639D02*
X0200202Y0327436D01*
X0202337Y0328503D01*
X0203404Y0328503D01*
X0204472Y0327436D01*
X0204472Y0325301D01*
X0203404Y0324233D01*
X0201269Y0324233D01*
X0200202Y0325301D01*
X0198040Y0324233D02*
X0195905Y0324233D01*
X0191594Y0327436D02*
X0189459Y0327436D01*
X0189459Y0330639D02*
X0189459Y0324233D01*
X0189459Y0330639D02*
X0193729Y0330639D01*
X0191594Y0339233D02*
X0193729Y0341368D01*
X0193729Y0345639D01*
X0195905Y0343503D02*
X0198040Y0345639D01*
X0200175Y0343503D01*
X0200175Y0339233D01*
X0202350Y0339233D02*
X0202350Y0345639D01*
X0205553Y0345639D01*
X0206620Y0344571D01*
X0206620Y0342436D01*
X0205553Y0341368D01*
X0202350Y0341368D01*
X0204485Y0341368D02*
X0206620Y0339233D01*
X0208796Y0339233D02*
X0210931Y0339233D01*
X0209863Y0339233D02*
X0209863Y0345639D01*
X0208796Y0345639D02*
X0210931Y0345639D01*
X0213093Y0344571D02*
X0213093Y0340301D01*
X0214160Y0339233D01*
X0216295Y0339233D01*
X0217363Y0340301D01*
X0217363Y0344571D01*
X0216295Y0345639D01*
X0214160Y0345639D01*
X0213093Y0344571D01*
X0208782Y0330639D02*
X0206647Y0330639D01*
X0208782Y0330639D02*
X0208782Y0324233D01*
X0206647Y0324233D01*
X0204472Y0330639D02*
X0200202Y0330639D01*
X0195905Y0339233D02*
X0195905Y0343503D01*
X0195905Y0342436D02*
X0200175Y0342436D01*
X0191594Y0339233D02*
X0189459Y0341368D01*
X0189459Y0345639D01*
D12*
X0045641Y0031886D02*
X0045641Y0030384D01*
X0045641Y0031135D02*
X0049395Y0031135D01*
X0050145Y0030384D01*
X0050145Y0029634D01*
X0049395Y0028883D01*
X0050145Y0033487D02*
X0045641Y0033487D01*
X0045641Y0035739D01*
X0046392Y0036490D01*
X0047893Y0036490D01*
X0048644Y0035739D01*
X0048644Y0033487D01*
X0050145Y0038091D02*
X0047143Y0041093D01*
X0046392Y0041093D01*
X0045641Y0040343D01*
X0045641Y0038842D01*
X0046392Y0038091D01*
X0050145Y0038091D02*
X0050145Y0041093D01*
X0125641Y0070384D02*
X0125641Y0071886D01*
X0125641Y0071135D02*
X0129395Y0071135D01*
X0130145Y0070384D01*
X0130145Y0069634D01*
X0129395Y0068883D01*
X0130145Y0073487D02*
X0125641Y0073487D01*
X0125641Y0075739D01*
X0126392Y0076490D01*
X0127893Y0076490D01*
X0128644Y0075739D01*
X0128644Y0073487D01*
X0130145Y0078091D02*
X0130145Y0081093D01*
X0130145Y0079592D02*
X0125641Y0079592D01*
X0127143Y0078091D01*
X0179238Y0080852D02*
X0179238Y0057230D01*
X0202860Y0057230D01*
X0202860Y0080852D01*
X0179238Y0080852D01*
X0179238Y0081640D02*
X0202860Y0081640D01*
X0202860Y0105262D01*
X0179238Y0105262D01*
X0179238Y0081640D01*
X0179238Y0056443D02*
X0202860Y0056443D01*
X0202860Y0032821D01*
X0179238Y0032821D01*
X0179238Y0056443D01*
X0109005Y0225472D02*
X0107504Y0225472D01*
X0106753Y0226222D01*
X0108254Y0227724D02*
X0109005Y0227724D01*
X0109756Y0226973D01*
X0109756Y0226222D01*
X0109005Y0225472D01*
X0109005Y0227724D02*
X0109756Y0228474D01*
X0109756Y0229225D01*
X0109005Y0229976D01*
X0107504Y0229976D01*
X0106753Y0229225D01*
X0105152Y0229225D02*
X0105152Y0227724D01*
X0104401Y0226973D01*
X0102149Y0226973D01*
X0102149Y0225472D02*
X0102149Y0229976D01*
X0104401Y0229976D01*
X0105152Y0229225D01*
X0100548Y0229976D02*
X0099046Y0229976D01*
X0099797Y0229976D02*
X0099797Y0226222D01*
X0099046Y0225472D01*
X0098296Y0225472D01*
X0097545Y0226222D01*
X0112438Y0273815D02*
X0112438Y0328933D01*
X0055745Y0328933D01*
X0055745Y0324996D01*
X0054721Y0327358D02*
X0054586Y0327356D01*
X0054451Y0327350D01*
X0054317Y0327341D01*
X0054183Y0327327D01*
X0054049Y0327310D01*
X0053915Y0327289D01*
X0053783Y0327264D01*
X0053651Y0327235D01*
X0053520Y0327203D01*
X0053390Y0327167D01*
X0053261Y0327127D01*
X0053134Y0327083D01*
X0053007Y0327036D01*
X0052882Y0326985D01*
X0052759Y0326931D01*
X0052637Y0326873D01*
X0052516Y0326812D01*
X0052398Y0326747D01*
X0052282Y0326679D01*
X0052167Y0326608D01*
X0052055Y0326534D01*
X0051944Y0326456D01*
X0051836Y0326375D01*
X0051731Y0326291D01*
X0051627Y0326204D01*
X0051527Y0326114D01*
X0051429Y0326022D01*
X0051333Y0325926D01*
X0051241Y0325828D01*
X0051151Y0325728D01*
X0051064Y0325624D01*
X0050980Y0325519D01*
X0050899Y0325411D01*
X0050821Y0325300D01*
X0050747Y0325188D01*
X0050676Y0325073D01*
X0050608Y0324957D01*
X0050543Y0324839D01*
X0050482Y0324718D01*
X0050424Y0324596D01*
X0050370Y0324473D01*
X0050319Y0324348D01*
X0050272Y0324221D01*
X0050228Y0324094D01*
X0050188Y0323965D01*
X0050152Y0323835D01*
X0050120Y0323704D01*
X0050091Y0323572D01*
X0050066Y0323440D01*
X0050045Y0323306D01*
X0050028Y0323172D01*
X0050014Y0323038D01*
X0050005Y0322904D01*
X0049999Y0322769D01*
X0049997Y0322634D01*
X0049997Y0286413D01*
X0046453Y0286414D02*
X0046444Y0286279D01*
X0046439Y0286143D01*
X0046437Y0286008D01*
X0046439Y0285873D01*
X0046445Y0285737D01*
X0046455Y0285602D01*
X0046469Y0285468D01*
X0046487Y0285333D01*
X0046509Y0285200D01*
X0046534Y0285067D01*
X0046563Y0284934D01*
X0046596Y0284803D01*
X0046632Y0284673D01*
X0046673Y0284544D01*
X0046717Y0284415D01*
X0046764Y0284289D01*
X0046816Y0284163D01*
X0046870Y0284040D01*
X0046929Y0283917D01*
X0046991Y0283797D01*
X0047056Y0283678D01*
X0047124Y0283561D01*
X0047196Y0283447D01*
X0047271Y0283334D01*
X0047350Y0283224D01*
X0047431Y0283115D01*
X0047515Y0283010D01*
X0047603Y0282906D01*
X0047693Y0282805D01*
X0047786Y0282707D01*
X0047882Y0282612D01*
X0047981Y0282519D01*
X0048082Y0282429D01*
X0048186Y0282342D01*
X0048292Y0282258D01*
X0048401Y0282177D01*
X0048512Y0282100D01*
X0048625Y0282025D01*
X0048740Y0281954D01*
X0048857Y0281886D01*
X0048976Y0281821D01*
X0049097Y0281760D01*
X0049219Y0281702D01*
X0049344Y0281648D01*
X0049469Y0281598D01*
X0049596Y0281551D01*
X0049724Y0281507D01*
X0049854Y0281468D01*
X0049984Y0281432D01*
X0050116Y0281399D01*
X0050248Y0281371D01*
X0050381Y0281346D01*
X0050515Y0281326D01*
X0050650Y0281309D01*
X0050784Y0281295D01*
X0052989Y0277752D02*
X0053146Y0277754D01*
X0053303Y0277760D01*
X0053460Y0277770D01*
X0053616Y0277783D01*
X0053772Y0277801D01*
X0053928Y0277822D01*
X0054083Y0277848D01*
X0054237Y0277877D01*
X0054391Y0277910D01*
X0054543Y0277947D01*
X0054695Y0277987D01*
X0054846Y0278032D01*
X0054995Y0278080D01*
X0055143Y0278132D01*
X0055290Y0278187D01*
X0055436Y0278247D01*
X0055580Y0278309D01*
X0055722Y0278376D01*
X0055863Y0278446D01*
X0056002Y0278519D01*
X0056139Y0278596D01*
X0056274Y0278676D01*
X0056406Y0278760D01*
X0056537Y0278847D01*
X0056666Y0278937D01*
X0056792Y0279030D01*
X0056916Y0279126D01*
X0057038Y0279226D01*
X0057157Y0279328D01*
X0057273Y0279434D01*
X0057387Y0279542D01*
X0057498Y0279653D01*
X0057606Y0279767D01*
X0057712Y0279883D01*
X0057814Y0280002D01*
X0057914Y0280124D01*
X0058010Y0280248D01*
X0058103Y0280374D01*
X0058193Y0280503D01*
X0058280Y0280634D01*
X0058364Y0280766D01*
X0058444Y0280902D01*
X0058521Y0281038D01*
X0058594Y0281177D01*
X0058664Y0281318D01*
X0058731Y0281460D01*
X0058793Y0281604D01*
X0058853Y0281750D01*
X0058908Y0281897D01*
X0058960Y0282045D01*
X0059008Y0282194D01*
X0059053Y0282345D01*
X0059093Y0282497D01*
X0059130Y0282649D01*
X0059163Y0282803D01*
X0059192Y0282957D01*
X0059218Y0283112D01*
X0059239Y0283268D01*
X0059257Y0283424D01*
X0059270Y0283580D01*
X0059280Y0283737D01*
X0059286Y0283894D01*
X0059288Y0284051D01*
X0059288Y0322240D01*
X0059287Y0322240D02*
X0059272Y0322349D01*
X0059252Y0322458D01*
X0059229Y0322567D01*
X0059202Y0322674D01*
X0059171Y0322781D01*
X0059137Y0322886D01*
X0059099Y0322990D01*
X0059057Y0323093D01*
X0059012Y0323194D01*
X0058963Y0323293D01*
X0058911Y0323391D01*
X0058855Y0323487D01*
X0058796Y0323580D01*
X0058734Y0323672D01*
X0058669Y0323762D01*
X0058600Y0323849D01*
X0058529Y0323934D01*
X0058455Y0324016D01*
X0058377Y0324095D01*
X0058298Y0324172D01*
X0058215Y0324246D01*
X0058130Y0324317D01*
X0058043Y0324385D01*
X0057953Y0324450D01*
X0057861Y0324512D01*
X0057767Y0324570D01*
X0057671Y0324625D01*
X0057573Y0324677D01*
X0057473Y0324726D01*
X0057372Y0324770D01*
X0057269Y0324812D01*
X0057165Y0324849D01*
X0057059Y0324883D01*
X0056953Y0324914D01*
X0056845Y0324940D01*
X0056737Y0324963D01*
X0056628Y0324982D01*
X0056518Y0324997D01*
X0056408Y0325009D01*
X0056297Y0325016D01*
X0056186Y0325020D01*
X0056076Y0325019D01*
X0055965Y0325015D01*
X0055854Y0325007D01*
X0055744Y0324995D01*
X0051178Y0327358D02*
X0051043Y0327356D01*
X0050908Y0327350D01*
X0050774Y0327341D01*
X0050640Y0327327D01*
X0050506Y0327310D01*
X0050372Y0327289D01*
X0050240Y0327264D01*
X0050108Y0327235D01*
X0049977Y0327203D01*
X0049847Y0327167D01*
X0049718Y0327127D01*
X0049591Y0327083D01*
X0049464Y0327036D01*
X0049339Y0326985D01*
X0049216Y0326931D01*
X0049094Y0326873D01*
X0048973Y0326812D01*
X0048855Y0326747D01*
X0048739Y0326679D01*
X0048624Y0326608D01*
X0048512Y0326534D01*
X0048401Y0326456D01*
X0048293Y0326375D01*
X0048188Y0326291D01*
X0048084Y0326204D01*
X0047984Y0326114D01*
X0047886Y0326022D01*
X0047790Y0325926D01*
X0047698Y0325828D01*
X0047608Y0325728D01*
X0047521Y0325624D01*
X0047437Y0325519D01*
X0047356Y0325411D01*
X0047278Y0325300D01*
X0047204Y0325188D01*
X0047133Y0325073D01*
X0047065Y0324957D01*
X0047000Y0324839D01*
X0046939Y0324718D01*
X0046881Y0324596D01*
X0046827Y0324473D01*
X0046776Y0324348D01*
X0046729Y0324221D01*
X0046685Y0324094D01*
X0046645Y0323965D01*
X0046609Y0323835D01*
X0046577Y0323704D01*
X0046548Y0323572D01*
X0046523Y0323440D01*
X0046502Y0323306D01*
X0046485Y0323172D01*
X0046471Y0323038D01*
X0046462Y0322904D01*
X0046456Y0322769D01*
X0046454Y0322634D01*
X0046453Y0322634D02*
X0046453Y0286413D01*
X0049996Y0286414D02*
X0049987Y0286279D01*
X0049982Y0286143D01*
X0049980Y0286008D01*
X0049982Y0285873D01*
X0049988Y0285737D01*
X0049998Y0285602D01*
X0050012Y0285468D01*
X0050030Y0285333D01*
X0050052Y0285200D01*
X0050077Y0285067D01*
X0050106Y0284934D01*
X0050139Y0284803D01*
X0050175Y0284673D01*
X0050216Y0284544D01*
X0050260Y0284415D01*
X0050307Y0284289D01*
X0050359Y0284163D01*
X0050413Y0284040D01*
X0050472Y0283917D01*
X0050534Y0283797D01*
X0050599Y0283678D01*
X0050667Y0283561D01*
X0050739Y0283447D01*
X0050814Y0283334D01*
X0050893Y0283224D01*
X0050974Y0283115D01*
X0051058Y0283010D01*
X0051146Y0282906D01*
X0051236Y0282805D01*
X0051329Y0282707D01*
X0051425Y0282612D01*
X0051524Y0282519D01*
X0051625Y0282429D01*
X0051729Y0282342D01*
X0051835Y0282258D01*
X0051944Y0282177D01*
X0052055Y0282100D01*
X0052168Y0282025D01*
X0052283Y0281954D01*
X0052400Y0281886D01*
X0052519Y0281821D01*
X0052640Y0281760D01*
X0052762Y0281702D01*
X0052887Y0281648D01*
X0053012Y0281598D01*
X0053139Y0281551D01*
X0053267Y0281507D01*
X0053397Y0281468D01*
X0053527Y0281432D01*
X0053659Y0281399D01*
X0053791Y0281371D01*
X0053924Y0281346D01*
X0054058Y0281326D01*
X0054193Y0281309D01*
X0054327Y0281295D01*
X0052989Y0277752D02*
X0052989Y0273815D01*
X0112438Y0273815D01*
X0063028Y0254169D02*
X0053973Y0254169D01*
X0053973Y0233697D01*
X0063028Y0233697D01*
X0035823Y0281295D02*
X0035689Y0281309D01*
X0035554Y0281326D01*
X0035420Y0281346D01*
X0035287Y0281371D01*
X0035155Y0281399D01*
X0035023Y0281432D01*
X0034893Y0281468D01*
X0034763Y0281507D01*
X0034635Y0281551D01*
X0034508Y0281598D01*
X0034383Y0281648D01*
X0034258Y0281702D01*
X0034136Y0281760D01*
X0034015Y0281821D01*
X0033896Y0281886D01*
X0033779Y0281954D01*
X0033664Y0282025D01*
X0033551Y0282100D01*
X0033440Y0282177D01*
X0033331Y0282258D01*
X0033225Y0282342D01*
X0033121Y0282429D01*
X0033020Y0282519D01*
X0032921Y0282612D01*
X0032825Y0282707D01*
X0032732Y0282805D01*
X0032642Y0282906D01*
X0032554Y0283010D01*
X0032470Y0283115D01*
X0032389Y0283224D01*
X0032310Y0283334D01*
X0032235Y0283447D01*
X0032163Y0283561D01*
X0032095Y0283678D01*
X0032030Y0283797D01*
X0031968Y0283917D01*
X0031909Y0284040D01*
X0031855Y0284163D01*
X0031803Y0284289D01*
X0031756Y0284415D01*
X0031712Y0284544D01*
X0031671Y0284673D01*
X0031635Y0284803D01*
X0031602Y0284934D01*
X0031573Y0285067D01*
X0031548Y0285200D01*
X0031526Y0285333D01*
X0031508Y0285468D01*
X0031494Y0285602D01*
X0031484Y0285737D01*
X0031478Y0285873D01*
X0031476Y0286008D01*
X0031478Y0286143D01*
X0031483Y0286279D01*
X0031492Y0286414D01*
X0031493Y0286413D02*
X0031493Y0322634D01*
X0031495Y0322769D01*
X0031501Y0322904D01*
X0031510Y0323038D01*
X0031524Y0323172D01*
X0031541Y0323306D01*
X0031562Y0323440D01*
X0031587Y0323572D01*
X0031616Y0323704D01*
X0031648Y0323835D01*
X0031684Y0323965D01*
X0031724Y0324094D01*
X0031768Y0324221D01*
X0031815Y0324348D01*
X0031866Y0324473D01*
X0031920Y0324596D01*
X0031978Y0324718D01*
X0032039Y0324839D01*
X0032104Y0324957D01*
X0032172Y0325073D01*
X0032243Y0325188D01*
X0032317Y0325300D01*
X0032395Y0325411D01*
X0032476Y0325519D01*
X0032560Y0325624D01*
X0032647Y0325728D01*
X0032737Y0325828D01*
X0032829Y0325926D01*
X0032925Y0326022D01*
X0033023Y0326114D01*
X0033123Y0326204D01*
X0033227Y0326291D01*
X0033332Y0326375D01*
X0033440Y0326456D01*
X0033551Y0326534D01*
X0033663Y0326608D01*
X0033778Y0326679D01*
X0033894Y0326747D01*
X0034012Y0326812D01*
X0034133Y0326873D01*
X0034255Y0326931D01*
X0034378Y0326985D01*
X0034503Y0327036D01*
X0034630Y0327083D01*
X0034757Y0327127D01*
X0034886Y0327167D01*
X0035016Y0327203D01*
X0035147Y0327235D01*
X0035279Y0327264D01*
X0035411Y0327289D01*
X0035545Y0327310D01*
X0035679Y0327327D01*
X0035813Y0327341D01*
X0035947Y0327350D01*
X0036082Y0327356D01*
X0036217Y0327358D01*
D13*
X0097279Y0311497D02*
X0101883Y0311497D01*
X0101883Y0313031D02*
X0101883Y0309962D01*
X0101116Y0308428D02*
X0100349Y0308428D01*
X0099581Y0307660D01*
X0099581Y0306126D01*
X0098814Y0305358D01*
X0098047Y0305358D01*
X0097279Y0306126D01*
X0097279Y0307660D01*
X0098047Y0308428D01*
X0098814Y0309962D02*
X0097279Y0311497D01*
X0096512Y0306893D02*
X0102651Y0306893D01*
X0101883Y0307660D02*
X0101116Y0308428D01*
X0101883Y0307660D02*
X0101883Y0306126D01*
X0101116Y0305358D01*
X0101116Y0303824D02*
X0097279Y0303824D01*
X0097279Y0300754D02*
X0101116Y0300754D01*
X0101883Y0301522D01*
X0101883Y0303056D01*
X0101116Y0303824D01*
X0160295Y0304133D02*
X0160295Y0308737D01*
X0162597Y0308737D01*
X0163364Y0307970D01*
X0163364Y0306435D01*
X0162597Y0305668D01*
X0160295Y0305668D01*
X0161830Y0305668D02*
X0163364Y0304133D01*
X0164899Y0306435D02*
X0167968Y0306435D01*
X0167201Y0304133D02*
X0167201Y0308737D01*
X0164899Y0306435D01*
X0163389Y0276237D02*
X0164157Y0275470D01*
X0164157Y0272400D01*
X0163389Y0271633D01*
X0161855Y0271633D01*
X0161087Y0272400D01*
X0161087Y0275470D01*
X0161855Y0276237D01*
X0163389Y0276237D01*
X0165691Y0274702D02*
X0167226Y0276237D01*
X0167226Y0271633D01*
X0168760Y0271633D02*
X0165691Y0271633D01*
X0164157Y0271633D02*
X0162622Y0273168D01*
X0215660Y0270241D02*
X0215660Y0268706D01*
X0216427Y0267939D01*
X0216427Y0266404D02*
X0215660Y0265637D01*
X0215660Y0264102D01*
X0216427Y0263335D01*
X0217195Y0263335D01*
X0217962Y0264102D01*
X0217962Y0265637D01*
X0218729Y0266404D01*
X0219497Y0266404D01*
X0220264Y0265637D01*
X0220264Y0264102D01*
X0219497Y0263335D01*
X0220264Y0267939D02*
X0217195Y0271008D01*
X0216427Y0271008D01*
X0215660Y0270241D01*
X0220264Y0271008D02*
X0220264Y0267939D01*
D14*
X0119667Y0276948D02*
X0119667Y0279421D01*
X0118430Y0280657D01*
X0112247Y0280657D01*
X0114720Y0283274D02*
X0112247Y0285747D01*
X0119667Y0285747D01*
X0119667Y0283274D02*
X0119667Y0288220D01*
X0119667Y0276948D02*
X0118430Y0275711D01*
X0112247Y0275711D01*
D15*
X0166438Y0102305D02*
X0166440Y0102344D01*
X0166446Y0102383D01*
X0166456Y0102421D01*
X0166469Y0102458D01*
X0166486Y0102493D01*
X0166506Y0102527D01*
X0166530Y0102558D01*
X0166557Y0102587D01*
X0166586Y0102613D01*
X0166618Y0102636D01*
X0166652Y0102656D01*
X0166688Y0102672D01*
X0166725Y0102684D01*
X0166764Y0102693D01*
X0166803Y0102698D01*
X0166842Y0102699D01*
X0166881Y0102696D01*
X0166920Y0102689D01*
X0166957Y0102678D01*
X0166994Y0102664D01*
X0167029Y0102646D01*
X0167062Y0102625D01*
X0167093Y0102600D01*
X0167121Y0102573D01*
X0167146Y0102543D01*
X0167168Y0102510D01*
X0167187Y0102476D01*
X0167202Y0102440D01*
X0167214Y0102402D01*
X0167222Y0102364D01*
X0167226Y0102325D01*
X0167226Y0102285D01*
X0167222Y0102246D01*
X0167214Y0102208D01*
X0167202Y0102170D01*
X0167187Y0102134D01*
X0167168Y0102100D01*
X0167146Y0102067D01*
X0167121Y0102037D01*
X0167093Y0102010D01*
X0167062Y0101985D01*
X0167029Y0101964D01*
X0166994Y0101946D01*
X0166957Y0101932D01*
X0166920Y0101921D01*
X0166881Y0101914D01*
X0166842Y0101911D01*
X0166803Y0101912D01*
X0166764Y0101917D01*
X0166725Y0101926D01*
X0166688Y0101938D01*
X0166652Y0101954D01*
X0166618Y0101974D01*
X0166586Y0101997D01*
X0166557Y0102023D01*
X0166530Y0102052D01*
X0166506Y0102083D01*
X0166486Y0102117D01*
X0166469Y0102152D01*
X0166456Y0102189D01*
X0166446Y0102227D01*
X0166440Y0102266D01*
X0166438Y0102305D01*
X0166438Y0077896D02*
X0166440Y0077935D01*
X0166446Y0077974D01*
X0166456Y0078012D01*
X0166469Y0078049D01*
X0166486Y0078084D01*
X0166506Y0078118D01*
X0166530Y0078149D01*
X0166557Y0078178D01*
X0166586Y0078204D01*
X0166618Y0078227D01*
X0166652Y0078247D01*
X0166688Y0078263D01*
X0166725Y0078275D01*
X0166764Y0078284D01*
X0166803Y0078289D01*
X0166842Y0078290D01*
X0166881Y0078287D01*
X0166920Y0078280D01*
X0166957Y0078269D01*
X0166994Y0078255D01*
X0167029Y0078237D01*
X0167062Y0078216D01*
X0167093Y0078191D01*
X0167121Y0078164D01*
X0167146Y0078134D01*
X0167168Y0078101D01*
X0167187Y0078067D01*
X0167202Y0078031D01*
X0167214Y0077993D01*
X0167222Y0077955D01*
X0167226Y0077916D01*
X0167226Y0077876D01*
X0167222Y0077837D01*
X0167214Y0077799D01*
X0167202Y0077761D01*
X0167187Y0077725D01*
X0167168Y0077691D01*
X0167146Y0077658D01*
X0167121Y0077628D01*
X0167093Y0077601D01*
X0167062Y0077576D01*
X0167029Y0077555D01*
X0166994Y0077537D01*
X0166957Y0077523D01*
X0166920Y0077512D01*
X0166881Y0077505D01*
X0166842Y0077502D01*
X0166803Y0077503D01*
X0166764Y0077508D01*
X0166725Y0077517D01*
X0166688Y0077529D01*
X0166652Y0077545D01*
X0166618Y0077565D01*
X0166586Y0077588D01*
X0166557Y0077614D01*
X0166530Y0077643D01*
X0166506Y0077674D01*
X0166486Y0077708D01*
X0166469Y0077743D01*
X0166456Y0077780D01*
X0166446Y0077818D01*
X0166440Y0077857D01*
X0166438Y0077896D01*
X0166438Y0053486D02*
X0166440Y0053525D01*
X0166446Y0053564D01*
X0166456Y0053602D01*
X0166469Y0053639D01*
X0166486Y0053674D01*
X0166506Y0053708D01*
X0166530Y0053739D01*
X0166557Y0053768D01*
X0166586Y0053794D01*
X0166618Y0053817D01*
X0166652Y0053837D01*
X0166688Y0053853D01*
X0166725Y0053865D01*
X0166764Y0053874D01*
X0166803Y0053879D01*
X0166842Y0053880D01*
X0166881Y0053877D01*
X0166920Y0053870D01*
X0166957Y0053859D01*
X0166994Y0053845D01*
X0167029Y0053827D01*
X0167062Y0053806D01*
X0167093Y0053781D01*
X0167121Y0053754D01*
X0167146Y0053724D01*
X0167168Y0053691D01*
X0167187Y0053657D01*
X0167202Y0053621D01*
X0167214Y0053583D01*
X0167222Y0053545D01*
X0167226Y0053506D01*
X0167226Y0053466D01*
X0167222Y0053427D01*
X0167214Y0053389D01*
X0167202Y0053351D01*
X0167187Y0053315D01*
X0167168Y0053281D01*
X0167146Y0053248D01*
X0167121Y0053218D01*
X0167093Y0053191D01*
X0167062Y0053166D01*
X0167029Y0053145D01*
X0166994Y0053127D01*
X0166957Y0053113D01*
X0166920Y0053102D01*
X0166881Y0053095D01*
X0166842Y0053092D01*
X0166803Y0053093D01*
X0166764Y0053098D01*
X0166725Y0053107D01*
X0166688Y0053119D01*
X0166652Y0053135D01*
X0166618Y0053155D01*
X0166586Y0053178D01*
X0166557Y0053204D01*
X0166530Y0053233D01*
X0166506Y0053264D01*
X0166486Y0053298D01*
X0166469Y0053333D01*
X0166456Y0053370D01*
X0166446Y0053408D01*
X0166440Y0053447D01*
X0166438Y0053486D01*
X0102595Y0079091D02*
X0102595Y0098776D01*
D16*
X0093343Y0096315D03*
D17*
X0099887Y0094541D02*
X0099887Y0093655D01*
X0100330Y0093212D01*
X0100330Y0092447D02*
X0099887Y0092004D01*
X0099887Y0091118D01*
X0100330Y0090675D01*
X0102102Y0090675D01*
X0102545Y0091118D01*
X0102545Y0092004D01*
X0102102Y0092447D01*
X0102545Y0093212D02*
X0100773Y0094985D01*
X0100330Y0094985D01*
X0099887Y0094541D01*
X0102545Y0094985D02*
X0102545Y0093212D01*
X0102545Y0089869D02*
X0102545Y0088983D01*
X0102545Y0089426D02*
X0099887Y0089426D01*
X0099887Y0088983D02*
X0099887Y0089869D01*
D18*
X0094890Y0091271D02*
X0094890Y0092505D01*
X0094273Y0093123D01*
X0094890Y0094337D02*
X0094890Y0096806D01*
X0094890Y0095571D02*
X0091187Y0095571D01*
X0092421Y0094337D01*
X0091804Y0093123D02*
X0091187Y0092505D01*
X0091187Y0091271D01*
X0091804Y0090654D01*
X0094273Y0090654D01*
X0094890Y0091271D01*
X0050350Y0221208D02*
X0047442Y0221208D01*
X0050350Y0221208D02*
X0050350Y0223146D01*
X0049865Y0224159D02*
X0050350Y0224644D01*
X0050350Y0225614D01*
X0049865Y0226098D01*
X0049380Y0226098D01*
X0048896Y0225614D01*
X0048896Y0224644D01*
X0048411Y0224159D01*
X0047926Y0224159D01*
X0047442Y0224644D01*
X0047442Y0225614D01*
X0047926Y0226098D01*
X0048411Y0227111D02*
X0047442Y0228081D01*
X0050350Y0228081D01*
X0050350Y0229050D02*
X0050350Y0227111D01*
D19*
X0076808Y0218343D02*
X0076810Y0218399D01*
X0076816Y0218454D01*
X0076826Y0218508D01*
X0076839Y0218562D01*
X0076857Y0218615D01*
X0076878Y0218666D01*
X0076902Y0218716D01*
X0076930Y0218764D01*
X0076962Y0218810D01*
X0076996Y0218854D01*
X0077034Y0218895D01*
X0077074Y0218933D01*
X0077117Y0218968D01*
X0077162Y0219000D01*
X0077210Y0219029D01*
X0077259Y0219055D01*
X0077310Y0219077D01*
X0077362Y0219095D01*
X0077416Y0219109D01*
X0077471Y0219120D01*
X0077526Y0219127D01*
X0077581Y0219130D01*
X0077637Y0219129D01*
X0077692Y0219124D01*
X0077747Y0219115D01*
X0077801Y0219103D01*
X0077854Y0219086D01*
X0077906Y0219066D01*
X0077956Y0219042D01*
X0078004Y0219015D01*
X0078051Y0218985D01*
X0078095Y0218951D01*
X0078137Y0218914D01*
X0078175Y0218874D01*
X0078212Y0218832D01*
X0078245Y0218787D01*
X0078274Y0218741D01*
X0078301Y0218692D01*
X0078323Y0218641D01*
X0078343Y0218589D01*
X0078358Y0218535D01*
X0078370Y0218481D01*
X0078378Y0218426D01*
X0078382Y0218371D01*
X0078382Y0218315D01*
X0078378Y0218260D01*
X0078370Y0218205D01*
X0078358Y0218151D01*
X0078343Y0218097D01*
X0078323Y0218045D01*
X0078301Y0217994D01*
X0078274Y0217945D01*
X0078245Y0217899D01*
X0078212Y0217854D01*
X0078175Y0217812D01*
X0078137Y0217772D01*
X0078095Y0217735D01*
X0078051Y0217701D01*
X0078004Y0217671D01*
X0077956Y0217644D01*
X0077906Y0217620D01*
X0077854Y0217600D01*
X0077801Y0217583D01*
X0077747Y0217571D01*
X0077692Y0217562D01*
X0077637Y0217557D01*
X0077581Y0217556D01*
X0077526Y0217559D01*
X0077471Y0217566D01*
X0077416Y0217577D01*
X0077362Y0217591D01*
X0077310Y0217609D01*
X0077259Y0217631D01*
X0077210Y0217657D01*
X0077162Y0217686D01*
X0077117Y0217718D01*
X0077074Y0217753D01*
X0077034Y0217791D01*
X0076996Y0217832D01*
X0076962Y0217876D01*
X0076930Y0217922D01*
X0076902Y0217970D01*
X0076878Y0218020D01*
X0076857Y0218071D01*
X0076839Y0218124D01*
X0076826Y0218178D01*
X0076816Y0218232D01*
X0076810Y0218287D01*
X0076808Y0218343D01*
X0204528Y0260189D02*
X0204530Y0260229D01*
X0204536Y0260268D01*
X0204546Y0260307D01*
X0204559Y0260345D01*
X0204576Y0260381D01*
X0204597Y0260415D01*
X0204620Y0260447D01*
X0204647Y0260477D01*
X0204677Y0260504D01*
X0204709Y0260527D01*
X0204743Y0260548D01*
X0204779Y0260565D01*
X0204817Y0260578D01*
X0204856Y0260588D01*
X0204895Y0260594D01*
X0204935Y0260596D01*
X0204975Y0260594D01*
X0205014Y0260588D01*
X0205053Y0260578D01*
X0205091Y0260565D01*
X0205127Y0260548D01*
X0205161Y0260527D01*
X0205193Y0260504D01*
X0205223Y0260477D01*
X0205250Y0260447D01*
X0205273Y0260415D01*
X0205294Y0260381D01*
X0205311Y0260345D01*
X0205324Y0260307D01*
X0205334Y0260268D01*
X0205340Y0260229D01*
X0205342Y0260189D01*
X0205340Y0260149D01*
X0205334Y0260110D01*
X0205324Y0260071D01*
X0205311Y0260033D01*
X0205294Y0259997D01*
X0205273Y0259963D01*
X0205250Y0259931D01*
X0205223Y0259901D01*
X0205193Y0259874D01*
X0205161Y0259851D01*
X0205127Y0259830D01*
X0205091Y0259813D01*
X0205053Y0259800D01*
X0205014Y0259790D01*
X0204975Y0259784D01*
X0204935Y0259782D01*
X0204895Y0259784D01*
X0204856Y0259790D01*
X0204817Y0259800D01*
X0204779Y0259813D01*
X0204743Y0259830D01*
X0204709Y0259851D01*
X0204677Y0259874D01*
X0204647Y0259901D01*
X0204620Y0259931D01*
X0204597Y0259963D01*
X0204576Y0259997D01*
X0204559Y0260033D01*
X0204546Y0260071D01*
X0204536Y0260110D01*
X0204530Y0260149D01*
X0204528Y0260189D01*
X0212477Y0262634D02*
X0212477Y0269327D01*
X0216020Y0282122D02*
X0219170Y0282122D01*
X0224935Y0282122D02*
X0228619Y0282122D01*
X0228619Y0255744D01*
X0224818Y0255744D01*
X0219170Y0255744D02*
X0216020Y0255744D01*
M02*
