%
M48
M72
T01C0.01550
T02C0.02756
T03C0.03150
T04C0.03543
T05C0.09843
%
T01
X281871Y143626
X265138Y137228
X260217Y134276
X248898Y144118
X231674Y146087
X233150Y136736
X230198Y133783
X222323Y131323
X216595Y132433
X211005Y136736
X206083Y136244
X200178Y136244
X192595Y135433
X184595Y131933
X169095Y125933
X165253Y120925
X151465Y120004
X143091Y113114
X140631Y116559
X143091Y108685
X146044Y105732
X151949Y103764
X160808Y99827
X167205Y101303
X174095Y101303
X178524Y101303
X191095Y90433
X197595Y85933
X204595Y85933
X208595Y87433
X212816Y86382
X218386Y83587
X222595Y90433
X233642Y87524
X248406Y88508
X249233Y74079
X227087Y66205
X225611Y72110
X214784Y64236
X215276Y59807
X169016Y81953
X169174Y86047
X172619Y88508
X178524Y86539
X183595Y86433
X164745Y82110
X164745Y76205
X160808Y71776
X166524Y69252
X161142Y65713
X156918Y65870
X148012Y68331
X142107Y68331
X136201Y64886
X132757Y67346
X119961Y68823
X120946Y74728
X108150Y82602
X100768Y82110
X98308Y74728
X85020Y72760
X74194Y81126
X85512Y83094
X96339Y89000
X108642Y97858
X115953Y101319
X119961Y109177
X125867Y117051
X117993Y122957
X126788Y125909
X131595Y125933
X132741Y131854
X136694Y133783
X146044Y133831
X145560Y129402
X149595Y126433
X156379Y134276
X156379Y139197
X156379Y143626
X136201Y142642
X125375Y138213
X100768Y111638
X87481Y103272
X74686Y108685
X73209Y115575
X73701Y98843
X127312Y85508
X140138Y103764
X136694Y106224
X197201Y122465
X203623Y128370
X231182Y105732
X217402Y98350
X208583Y98350
X246930Y116067
X254804Y116067
X268583Y116067
X274489Y122465
X290237Y122957
X290729Y131323
X262678Y102780
X233150Y128370
T02
X66595Y114610
X66595Y99256
T03
X70138Y93941
X70138Y119925
T04
X306595Y111528
X306595Y123339
X229615Y114772
X59115Y121106
X59115Y92760
T05
X59095Y141933
X59095Y71933
X299095Y141933
X299095Y71933
M30
