G75*
%MOIN*%
%OFA0B0*%
%FSLAX25Y25*%
%IPPOS*%
%LPD*%
%AMOC8*
5,1,8,0,0,1.08239X$1,22.5*
%
%ADD10C,0.00000*%
%ADD11C,0.00500*%
%ADD12C,0.00700*%
%ADD13C,0.00600*%
%ADD14R,0.02343X0.00069*%
%ADD15R,0.03720X0.00069*%
%ADD16R,0.04823X0.00069*%
%ADD17R,0.05650X0.00069*%
%ADD18R,0.06339X0.00069*%
%ADD19R,0.06890X0.00069*%
%ADD20R,0.07579X0.00069*%
%ADD21R,0.08130X0.00069*%
%ADD22R,0.08543X0.00069*%
%ADD23R,0.09094X0.00069*%
%ADD24R,0.09508X0.00069*%
%ADD25R,0.09921X0.00069*%
%ADD26R,0.10335X0.00069*%
%ADD27R,0.10748X0.00069*%
%ADD28R,0.11024X0.00069*%
%ADD29R,0.04547X0.00069*%
%ADD30R,0.04065X0.00069*%
%ADD31R,0.04134X0.00069*%
%ADD32R,0.03789X0.00069*%
%ADD33R,0.03514X0.00069*%
%ADD34R,0.03376X0.00069*%
%ADD35R,0.03238X0.00069*%
%ADD36R,0.03100X0.00069*%
%ADD37R,0.02963X0.00069*%
%ADD38R,0.02825X0.00069*%
%ADD39R,0.02756X0.00069*%
%ADD40R,0.02687X0.00069*%
%ADD41R,0.02618X0.00069*%
%ADD42R,0.02549X0.00069*%
%ADD43R,0.02480X0.00069*%
%ADD44R,0.02411X0.00069*%
%ADD45R,0.02274X0.00069*%
%ADD46R,0.02205X0.00069*%
%ADD47R,0.02136X0.00069*%
%ADD48R,0.02067X0.00069*%
%ADD49R,0.01998X0.00069*%
%ADD50R,0.05236X0.00069*%
%ADD51R,0.05925X0.00069*%
%ADD52R,0.01929X0.00069*%
%ADD53R,0.06476X0.00069*%
%ADD54R,0.07028X0.00069*%
%ADD55R,0.07441X0.00069*%
%ADD56R,0.01860X0.00069*%
%ADD57R,0.07992X0.00069*%
%ADD58R,0.08406X0.00069*%
%ADD59R,0.08819X0.00069*%
%ADD60R,0.01791X0.00069*%
%ADD61R,0.10197X0.00069*%
%ADD62R,0.01722X0.00069*%
%ADD63R,0.03996X0.00069*%
%ADD64R,0.03445X0.00069*%
%ADD65R,0.01654X0.00069*%
%ADD66R,0.03031X0.00069*%
%ADD67R,0.02894X0.00069*%
%ADD68R,0.01516X0.00069*%
%ADD69R,0.01447X0.00069*%
%ADD70R,0.01378X0.00069*%
%ADD71R,0.01240X0.00069*%
%ADD72R,0.01033X0.00069*%
%ADD73R,0.00827X0.00069*%
%ADD74R,0.00689X0.00069*%
%ADD75R,0.00551X0.00069*%
%ADD76R,0.00413X0.00069*%
%ADD77R,0.04272X0.00069*%
%ADD78R,0.05374X0.00069*%
%ADD79R,0.07303X0.00069*%
%ADD80R,0.08268X0.00069*%
%ADD81R,0.08681X0.00069*%
%ADD82R,0.08957X0.00069*%
%ADD83R,0.04341X0.00069*%
%ADD84R,0.04409X0.00069*%
%ADD85R,0.03583X0.00069*%
%ADD86R,0.01171X0.00069*%
%ADD87R,0.00896X0.00069*%
%ADD88R,0.00758X0.00069*%
%ADD89R,0.00620X0.00069*%
%ADD90R,0.00482X0.00069*%
%ADD91R,0.00344X0.00069*%
%ADD92R,0.00138X0.00069*%
%ADD93R,0.01585X0.00069*%
%ADD94R,0.01447X0.00069*%
%ADD95R,0.01654X0.00069*%
%ADD96R,0.01723X0.00069*%
%ADD97R,0.04341X0.00069*%
%ADD98R,0.04410X0.00069*%
%ADD99R,0.04478X0.00069*%
%ADD100R,0.04479X0.00069*%
%ADD101R,0.03652X0.00069*%
%ADD102R,0.04548X0.00069*%
%ADD103R,0.04616X0.00069*%
%ADD104R,0.04617X0.00069*%
%ADD105R,0.03927X0.00069*%
%ADD106R,0.04685X0.00069*%
%ADD107R,0.04685X0.00069*%
%ADD108R,0.04754X0.00069*%
%ADD109R,0.04203X0.00069*%
%ADD110R,0.04754X0.00069*%
%ADD111R,0.04823X0.00069*%
%ADD112R,0.04892X0.00069*%
%ADD113R,0.04892X0.00069*%
%ADD114R,0.04961X0.00069*%
%ADD115R,0.04961X0.00069*%
%ADD116R,0.02412X0.00069*%
%ADD117R,0.02205X0.00069*%
%ADD118R,0.01998X0.00069*%
%ADD119R,0.01930X0.00069*%
%ADD120R,0.01792X0.00069*%
%ADD121R,0.01861X0.00069*%
%ADD122R,0.03169X0.00069*%
%ADD123R,0.02067X0.00069*%
%ADD124R,0.02274X0.00069*%
%ADD125R,0.02067X0.00069*%
%ADD126R,0.03307X0.00069*%
%ADD127R,0.01309X0.00069*%
%ADD128R,0.00965X0.00069*%
%ADD129R,0.00069X0.00069*%
%ADD130R,0.02342X0.00069*%
%ADD131R,0.07717X0.00069*%
%ADD132R,0.06063X0.00069*%
%ADD133R,0.05512X0.00069*%
%ADD134R,0.00207X0.00069*%
%ADD135R,0.01102X0.00069*%
%ADD136R,0.09577X0.00069*%
%ADD137R,0.09232X0.00069*%
%ADD138R,0.06614X0.00069*%
%ADD139R,0.03858X0.00069*%
%ADD140R,0.11161X0.00069*%
%ADD141R,0.00276X0.00069*%
%ADD142R,0.05030X0.00069*%
%ADD143R,0.04822X0.00069*%
%ADD144R,0.02619X0.00069*%
%ADD145R,0.06683X0.00069*%
%ADD146R,0.06545X0.00069*%
%ADD147R,0.06407X0.00069*%
%ADD148R,0.06270X0.00069*%
%ADD149R,0.06131X0.00069*%
%ADD150R,0.05787X0.00069*%
%ADD151R,0.05167X0.00069*%
%ADD152R,0.03600X0.00100*%
%ADD153R,0.02000X0.00100*%
%ADD154R,0.03500X0.00100*%
%ADD155R,0.01600X0.00100*%
%ADD156R,0.05200X0.00100*%
%ADD157R,0.02900X0.00100*%
%ADD158R,0.02600X0.00100*%
%ADD159R,0.05300X0.00100*%
%ADD160R,0.06400X0.00100*%
%ADD161R,0.03700X0.00100*%
%ADD162R,0.00100X0.00100*%
%ADD163R,0.03400X0.00100*%
%ADD164R,0.01700X0.00100*%
%ADD165R,0.06300X0.00100*%
%ADD166R,0.07300X0.00100*%
%ADD167R,0.04200X0.00100*%
%ADD168R,0.00200X0.00100*%
%ADD169R,0.07200X0.00100*%
%ADD170R,0.08000X0.00100*%
%ADD171R,0.04800X0.00100*%
%ADD172R,0.00300X0.00100*%
%ADD173R,0.03900X0.00100*%
%ADD174R,0.08100X0.00100*%
%ADD175R,0.08700X0.00100*%
%ADD176R,0.09300X0.00100*%
%ADD177R,0.05700X0.00100*%
%ADD178R,0.00400X0.00100*%
%ADD179R,0.04300X0.00100*%
%ADD180R,0.09800X0.00100*%
%ADD181R,0.06200X0.00100*%
%ADD182R,0.00500X0.00100*%
%ADD183R,0.04500X0.00100*%
%ADD184R,0.10100X0.00100*%
%ADD185R,0.06600X0.00100*%
%ADD186R,0.00600X0.00100*%
%ADD187R,0.04600X0.00100*%
%ADD188R,0.10200X0.00100*%
%ADD189R,0.06900X0.00100*%
%ADD190R,0.00700X0.00100*%
%ADD191R,0.04700X0.00100*%
%ADD192R,0.10300X0.00100*%
%ADD193R,0.00800X0.00100*%
%ADD194R,0.10400X0.00100*%
%ADD195R,0.07600X0.00100*%
%ADD196R,0.00900X0.00100*%
%ADD197R,0.04900X0.00100*%
%ADD198R,0.10500X0.00100*%
%ADD199R,0.01000X0.00100*%
%ADD200R,0.10600X0.00100*%
%ADD201R,0.08300X0.00100*%
%ADD202R,0.01100X0.00100*%
%ADD203R,0.10700X0.00100*%
%ADD204R,0.04100X0.00100*%
%ADD205R,0.10800X0.00100*%
%ADD206R,0.08900X0.00100*%
%ADD207R,0.01200X0.00100*%
%ADD208R,0.03300X0.00100*%
%ADD209R,0.02700X0.00100*%
%ADD210R,0.05000X0.00100*%
%ADD211R,0.01300X0.00100*%
%ADD212R,0.02400X0.00100*%
%ADD213R,0.01400X0.00100*%
%ADD214R,0.03000X0.00100*%
%ADD215R,0.02500X0.00100*%
%ADD216R,0.02300X0.00100*%
%ADD217R,0.01500X0.00100*%
%ADD218R,0.02100X0.00100*%
%ADD219R,0.02200X0.00100*%
%ADD220R,0.01900X0.00100*%
%ADD221R,0.04400X0.00100*%
%ADD222R,0.01800X0.00100*%
%ADD223R,0.03100X0.00100*%
%ADD224R,0.02800X0.00100*%
%ADD225R,0.09500X0.00100*%
%ADD226R,0.09600X0.00100*%
%ADD227R,0.10000X0.00100*%
%ADD228R,0.11000X0.00100*%
%ADD229R,0.11100X0.00100*%
%ADD230R,0.11200X0.00100*%
%ADD231R,0.11300X0.00100*%
%ADD232R,0.04000X0.00100*%
%ADD233R,0.11400X0.00100*%
%ADD234R,0.05600X0.00100*%
%ADD235R,0.11500X0.00100*%
%ADD236R,0.07100X0.00100*%
%ADD237R,0.11600X0.00100*%
%ADD238R,0.11700X0.00100*%
%ADD239R,0.11800X0.00100*%
%ADD240R,0.11900X0.00100*%
%ADD241R,0.10900X0.00100*%
%ADD242R,0.09900X0.00100*%
%ADD243R,0.09200X0.00100*%
%ADD244R,0.03800X0.00100*%
%ADD245R,0.03200X0.00100*%
%ADD246R,0.06500X0.00100*%
%ADD247R,0.06700X0.00100*%
%ADD248R,0.06800X0.00100*%
%ADD249R,0.08500X0.00100*%
%ADD250R,0.07000X0.00100*%
%ADD251R,0.08200X0.00100*%
%ADD252R,0.09700X0.00100*%
%ADD253R,0.07900X0.00100*%
%ADD254R,0.07500X0.00100*%
%ADD255R,0.09000X0.00100*%
%ADD256R,0.07700X0.00100*%
%ADD257R,0.08800X0.00100*%
%ADD258R,0.06000X0.00100*%
%ADD259R,0.07800X0.00100*%
%ADD260R,0.08600X0.00100*%
%ADD261R,0.05800X0.00100*%
%ADD262R,0.05500X0.00100*%
%ADD263R,0.09400X0.00100*%
%ADD264R,0.07400X0.00100*%
%ADD265R,0.05100X0.00100*%
%ADD266R,0.06100X0.00100*%
%ADD267R,0.05400X0.00100*%
%ADD268R,0.12600X0.00100*%
%ADD269R,0.13300X0.00100*%
%ADD270R,0.15100X0.00100*%
%ADD271R,0.15700X0.00100*%
%ADD272R,0.16100X0.00100*%
%ADD273R,0.16600X0.00100*%
%ADD274R,0.09100X0.00100*%
%ADD275R,0.12700X0.00100*%
%ADD276R,0.13700X0.00100*%
%ADD277R,0.13600X0.00100*%
%ADD278R,0.05900X0.00100*%
%ADD279R,0.13500X0.00100*%
%ADD280R,0.13400X0.00100*%
%ADD281R,0.13200X0.00100*%
%ADD282R,0.13100X0.00100*%
%ADD283R,0.13000X0.00100*%
%ADD284R,0.12900X0.00100*%
%ADD285R,0.12800X0.00100*%
%ADD286R,0.12500X0.00100*%
%ADD287R,0.08400X0.00100*%
D10*
X0059095Y0057209D02*
X0299095Y0057209D01*
X0299451Y0057213D01*
X0299806Y0057226D01*
X0300162Y0057248D01*
X0300516Y0057278D01*
X0300870Y0057316D01*
X0301222Y0057364D01*
X0301574Y0057419D01*
X0301924Y0057483D01*
X0302272Y0057556D01*
X0302619Y0057637D01*
X0302963Y0057726D01*
X0303305Y0057824D01*
X0303645Y0057930D01*
X0303982Y0058044D01*
X0304316Y0058166D01*
X0304647Y0058296D01*
X0304975Y0058434D01*
X0305300Y0058580D01*
X0305621Y0058734D01*
X0305938Y0058896D01*
X0306251Y0059065D01*
X0306559Y0059241D01*
X0306864Y0059425D01*
X0307164Y0059617D01*
X0307459Y0059815D01*
X0307750Y0060021D01*
X0308035Y0060234D01*
X0308315Y0060453D01*
X0308590Y0060679D01*
X0308859Y0060912D01*
X0309122Y0061151D01*
X0309380Y0061397D01*
X0309631Y0061648D01*
X0309877Y0061906D01*
X0310116Y0062169D01*
X0310349Y0062438D01*
X0310575Y0062713D01*
X0310794Y0062993D01*
X0311007Y0063278D01*
X0311213Y0063569D01*
X0311411Y0063864D01*
X0311603Y0064164D01*
X0311787Y0064469D01*
X0311963Y0064777D01*
X0312132Y0065090D01*
X0312294Y0065407D01*
X0312448Y0065728D01*
X0312594Y0066053D01*
X0312732Y0066381D01*
X0312862Y0066712D01*
X0312984Y0067046D01*
X0313098Y0067383D01*
X0313204Y0067723D01*
X0313302Y0068065D01*
X0313391Y0068409D01*
X0313472Y0068756D01*
X0313545Y0069104D01*
X0313609Y0069454D01*
X0313664Y0069806D01*
X0313712Y0070158D01*
X0313750Y0070512D01*
X0313780Y0070866D01*
X0313802Y0071222D01*
X0313815Y0071577D01*
X0313819Y0071933D01*
X0313820Y0071933D02*
X0313820Y0141933D01*
X0313819Y0141933D02*
X0313815Y0142289D01*
X0313802Y0142644D01*
X0313780Y0143000D01*
X0313750Y0143354D01*
X0313712Y0143708D01*
X0313664Y0144060D01*
X0313609Y0144412D01*
X0313545Y0144762D01*
X0313472Y0145110D01*
X0313391Y0145457D01*
X0313302Y0145801D01*
X0313204Y0146143D01*
X0313098Y0146483D01*
X0312984Y0146820D01*
X0312862Y0147154D01*
X0312732Y0147485D01*
X0312594Y0147813D01*
X0312448Y0148138D01*
X0312294Y0148459D01*
X0312132Y0148776D01*
X0311963Y0149089D01*
X0311787Y0149397D01*
X0311603Y0149702D01*
X0311411Y0150002D01*
X0311213Y0150297D01*
X0311007Y0150588D01*
X0310794Y0150873D01*
X0310575Y0151153D01*
X0310349Y0151428D01*
X0310116Y0151697D01*
X0309877Y0151960D01*
X0309631Y0152218D01*
X0309380Y0152469D01*
X0309122Y0152715D01*
X0308859Y0152954D01*
X0308590Y0153187D01*
X0308315Y0153413D01*
X0308035Y0153632D01*
X0307750Y0153845D01*
X0307459Y0154051D01*
X0307164Y0154249D01*
X0306864Y0154441D01*
X0306559Y0154625D01*
X0306251Y0154801D01*
X0305938Y0154970D01*
X0305621Y0155132D01*
X0305300Y0155286D01*
X0304975Y0155432D01*
X0304647Y0155570D01*
X0304316Y0155700D01*
X0303982Y0155822D01*
X0303645Y0155936D01*
X0303305Y0156042D01*
X0302963Y0156140D01*
X0302619Y0156229D01*
X0302272Y0156310D01*
X0301924Y0156383D01*
X0301574Y0156447D01*
X0301222Y0156502D01*
X0300870Y0156550D01*
X0300516Y0156588D01*
X0300162Y0156618D01*
X0299806Y0156640D01*
X0299451Y0156653D01*
X0299095Y0156657D01*
X0059095Y0156657D01*
X0058739Y0156653D01*
X0058384Y0156640D01*
X0058028Y0156618D01*
X0057674Y0156588D01*
X0057320Y0156550D01*
X0056968Y0156502D01*
X0056616Y0156447D01*
X0056266Y0156383D01*
X0055918Y0156310D01*
X0055571Y0156229D01*
X0055227Y0156140D01*
X0054885Y0156042D01*
X0054545Y0155936D01*
X0054208Y0155822D01*
X0053874Y0155700D01*
X0053543Y0155570D01*
X0053215Y0155432D01*
X0052890Y0155286D01*
X0052569Y0155132D01*
X0052252Y0154970D01*
X0051939Y0154801D01*
X0051631Y0154625D01*
X0051326Y0154441D01*
X0051026Y0154249D01*
X0050731Y0154051D01*
X0050440Y0153845D01*
X0050155Y0153632D01*
X0049875Y0153413D01*
X0049600Y0153187D01*
X0049331Y0152954D01*
X0049068Y0152715D01*
X0048810Y0152469D01*
X0048559Y0152218D01*
X0048313Y0151960D01*
X0048074Y0151697D01*
X0047841Y0151428D01*
X0047615Y0151153D01*
X0047396Y0150873D01*
X0047183Y0150588D01*
X0046977Y0150297D01*
X0046779Y0150002D01*
X0046587Y0149702D01*
X0046403Y0149397D01*
X0046227Y0149089D01*
X0046058Y0148776D01*
X0045896Y0148459D01*
X0045742Y0148138D01*
X0045596Y0147813D01*
X0045458Y0147485D01*
X0045328Y0147154D01*
X0045206Y0146820D01*
X0045092Y0146483D01*
X0044986Y0146143D01*
X0044888Y0145801D01*
X0044799Y0145457D01*
X0044718Y0145110D01*
X0044645Y0144762D01*
X0044581Y0144412D01*
X0044526Y0144060D01*
X0044478Y0143708D01*
X0044440Y0143354D01*
X0044410Y0143000D01*
X0044388Y0142644D01*
X0044375Y0142289D01*
X0044371Y0141933D01*
X0044371Y0122157D01*
X0051095Y0115433D01*
X0051095Y0098933D01*
X0044371Y0092209D01*
X0044371Y0071933D01*
X0044375Y0071577D01*
X0044388Y0071222D01*
X0044410Y0070866D01*
X0044440Y0070512D01*
X0044478Y0070158D01*
X0044526Y0069806D01*
X0044581Y0069454D01*
X0044645Y0069104D01*
X0044718Y0068756D01*
X0044799Y0068409D01*
X0044888Y0068065D01*
X0044986Y0067723D01*
X0045092Y0067383D01*
X0045206Y0067046D01*
X0045328Y0066712D01*
X0045458Y0066381D01*
X0045596Y0066053D01*
X0045742Y0065728D01*
X0045896Y0065407D01*
X0046058Y0065090D01*
X0046227Y0064777D01*
X0046403Y0064469D01*
X0046587Y0064164D01*
X0046779Y0063864D01*
X0046977Y0063569D01*
X0047183Y0063278D01*
X0047396Y0062993D01*
X0047615Y0062713D01*
X0047841Y0062438D01*
X0048074Y0062169D01*
X0048313Y0061906D01*
X0048559Y0061648D01*
X0048810Y0061397D01*
X0049068Y0061151D01*
X0049331Y0060912D01*
X0049600Y0060679D01*
X0049875Y0060453D01*
X0050155Y0060234D01*
X0050440Y0060021D01*
X0050731Y0059815D01*
X0051026Y0059617D01*
X0051326Y0059425D01*
X0051631Y0059241D01*
X0051939Y0059065D01*
X0052252Y0058896D01*
X0052569Y0058734D01*
X0052890Y0058580D01*
X0053215Y0058434D01*
X0053543Y0058296D01*
X0053874Y0058166D01*
X0054208Y0058044D01*
X0054545Y0057930D01*
X0054885Y0057824D01*
X0055227Y0057726D01*
X0055571Y0057637D01*
X0055918Y0057556D01*
X0056266Y0057483D01*
X0056616Y0057419D01*
X0056968Y0057364D01*
X0057320Y0057316D01*
X0057674Y0057278D01*
X0058028Y0057248D01*
X0058384Y0057226D01*
X0058739Y0057213D01*
X0059095Y0057209D01*
X0057934Y0090988D02*
X0060296Y0090988D01*
X0060373Y0091000D01*
X0060449Y0091015D01*
X0060525Y0091034D01*
X0060599Y0091057D01*
X0060673Y0091083D01*
X0060744Y0091113D01*
X0060815Y0091147D01*
X0060883Y0091183D01*
X0060950Y0091224D01*
X0061015Y0091267D01*
X0061077Y0091313D01*
X0061138Y0091363D01*
X0061195Y0091415D01*
X0061250Y0091471D01*
X0061302Y0091528D01*
X0061352Y0091589D01*
X0061398Y0091651D01*
X0061441Y0091716D01*
X0061481Y0091783D01*
X0061518Y0091852D01*
X0061551Y0091922D01*
X0061581Y0091994D01*
X0061607Y0092068D01*
X0061629Y0092142D01*
X0061648Y0092218D01*
X0061663Y0092294D01*
X0061674Y0092371D01*
X0061682Y0092449D01*
X0061686Y0092527D01*
X0061685Y0092605D01*
X0061682Y0092682D01*
X0061674Y0092760D01*
X0061682Y0092838D01*
X0061685Y0092915D01*
X0061686Y0092993D01*
X0061682Y0093071D01*
X0061674Y0093149D01*
X0061663Y0093226D01*
X0061648Y0093302D01*
X0061629Y0093378D01*
X0061607Y0093452D01*
X0061581Y0093526D01*
X0061551Y0093598D01*
X0061518Y0093668D01*
X0061481Y0093737D01*
X0061441Y0093804D01*
X0061398Y0093869D01*
X0061352Y0093931D01*
X0061302Y0093992D01*
X0061250Y0094049D01*
X0061195Y0094105D01*
X0061138Y0094157D01*
X0061077Y0094207D01*
X0061015Y0094253D01*
X0060950Y0094296D01*
X0060883Y0094337D01*
X0060815Y0094373D01*
X0060744Y0094407D01*
X0060673Y0094437D01*
X0060599Y0094463D01*
X0060525Y0094486D01*
X0060449Y0094505D01*
X0060373Y0094520D01*
X0060296Y0094532D01*
X0060296Y0094531D02*
X0057934Y0094531D01*
X0057934Y0094532D02*
X0057857Y0094520D01*
X0057781Y0094505D01*
X0057705Y0094486D01*
X0057631Y0094463D01*
X0057557Y0094437D01*
X0057486Y0094407D01*
X0057415Y0094373D01*
X0057347Y0094337D01*
X0057280Y0094296D01*
X0057215Y0094253D01*
X0057153Y0094207D01*
X0057092Y0094157D01*
X0057035Y0094105D01*
X0056980Y0094049D01*
X0056928Y0093992D01*
X0056878Y0093931D01*
X0056832Y0093869D01*
X0056789Y0093804D01*
X0056749Y0093737D01*
X0056712Y0093668D01*
X0056679Y0093598D01*
X0056649Y0093526D01*
X0056623Y0093452D01*
X0056601Y0093378D01*
X0056582Y0093302D01*
X0056567Y0093226D01*
X0056556Y0093149D01*
X0056548Y0093071D01*
X0056544Y0092993D01*
X0056545Y0092915D01*
X0056548Y0092838D01*
X0056556Y0092760D01*
X0056548Y0092682D01*
X0056545Y0092605D01*
X0056544Y0092527D01*
X0056548Y0092449D01*
X0056556Y0092371D01*
X0056567Y0092294D01*
X0056582Y0092218D01*
X0056601Y0092142D01*
X0056623Y0092068D01*
X0056649Y0091994D01*
X0056679Y0091922D01*
X0056712Y0091852D01*
X0056749Y0091783D01*
X0056789Y0091716D01*
X0056832Y0091651D01*
X0056878Y0091589D01*
X0056928Y0091528D01*
X0056980Y0091471D01*
X0057035Y0091415D01*
X0057092Y0091363D01*
X0057153Y0091313D01*
X0057215Y0091267D01*
X0057280Y0091224D01*
X0057347Y0091183D01*
X0057415Y0091147D01*
X0057486Y0091113D01*
X0057557Y0091083D01*
X0057631Y0091057D01*
X0057705Y0091034D01*
X0057781Y0091015D01*
X0057857Y0091000D01*
X0057934Y0090988D01*
X0065217Y0099256D02*
X0065219Y0099330D01*
X0065225Y0099404D01*
X0065235Y0099477D01*
X0065249Y0099550D01*
X0065266Y0099622D01*
X0065288Y0099692D01*
X0065313Y0099762D01*
X0065342Y0099830D01*
X0065375Y0099896D01*
X0065411Y0099961D01*
X0065451Y0100023D01*
X0065493Y0100084D01*
X0065539Y0100142D01*
X0065588Y0100197D01*
X0065640Y0100250D01*
X0065695Y0100300D01*
X0065752Y0100346D01*
X0065812Y0100390D01*
X0065874Y0100430D01*
X0065938Y0100467D01*
X0066004Y0100501D01*
X0066072Y0100531D01*
X0066141Y0100557D01*
X0066212Y0100580D01*
X0066283Y0100598D01*
X0066356Y0100613D01*
X0066429Y0100624D01*
X0066503Y0100631D01*
X0066577Y0100634D01*
X0066650Y0100633D01*
X0066724Y0100628D01*
X0066798Y0100619D01*
X0066871Y0100606D01*
X0066943Y0100589D01*
X0067014Y0100569D01*
X0067084Y0100544D01*
X0067152Y0100516D01*
X0067219Y0100485D01*
X0067284Y0100449D01*
X0067347Y0100411D01*
X0067408Y0100369D01*
X0067467Y0100323D01*
X0067523Y0100275D01*
X0067576Y0100224D01*
X0067626Y0100170D01*
X0067674Y0100113D01*
X0067718Y0100054D01*
X0067760Y0099992D01*
X0067798Y0099929D01*
X0067832Y0099863D01*
X0067863Y0099796D01*
X0067890Y0099727D01*
X0067913Y0099657D01*
X0067933Y0099586D01*
X0067949Y0099513D01*
X0067961Y0099440D01*
X0067969Y0099367D01*
X0067973Y0099293D01*
X0067973Y0099219D01*
X0067969Y0099145D01*
X0067961Y0099072D01*
X0067949Y0098999D01*
X0067933Y0098926D01*
X0067913Y0098855D01*
X0067890Y0098785D01*
X0067863Y0098716D01*
X0067832Y0098649D01*
X0067798Y0098583D01*
X0067760Y0098520D01*
X0067718Y0098458D01*
X0067674Y0098399D01*
X0067626Y0098342D01*
X0067576Y0098288D01*
X0067523Y0098237D01*
X0067467Y0098189D01*
X0067408Y0098143D01*
X0067347Y0098101D01*
X0067284Y0098063D01*
X0067219Y0098027D01*
X0067152Y0097996D01*
X0067084Y0097968D01*
X0067014Y0097943D01*
X0066943Y0097923D01*
X0066871Y0097906D01*
X0066798Y0097893D01*
X0066724Y0097884D01*
X0066650Y0097879D01*
X0066577Y0097878D01*
X0066503Y0097881D01*
X0066429Y0097888D01*
X0066356Y0097899D01*
X0066283Y0097914D01*
X0066212Y0097932D01*
X0066141Y0097955D01*
X0066072Y0097981D01*
X0066004Y0098011D01*
X0065938Y0098045D01*
X0065874Y0098082D01*
X0065812Y0098122D01*
X0065752Y0098166D01*
X0065695Y0098212D01*
X0065640Y0098262D01*
X0065588Y0098315D01*
X0065539Y0098370D01*
X0065493Y0098428D01*
X0065451Y0098489D01*
X0065411Y0098551D01*
X0065375Y0098616D01*
X0065342Y0098682D01*
X0065313Y0098750D01*
X0065288Y0098820D01*
X0065266Y0098890D01*
X0065249Y0098962D01*
X0065235Y0099035D01*
X0065225Y0099108D01*
X0065219Y0099182D01*
X0065217Y0099256D01*
X0065217Y0114610D02*
X0065219Y0114684D01*
X0065225Y0114758D01*
X0065235Y0114831D01*
X0065249Y0114904D01*
X0065266Y0114976D01*
X0065288Y0115046D01*
X0065313Y0115116D01*
X0065342Y0115184D01*
X0065375Y0115250D01*
X0065411Y0115315D01*
X0065451Y0115377D01*
X0065493Y0115438D01*
X0065539Y0115496D01*
X0065588Y0115551D01*
X0065640Y0115604D01*
X0065695Y0115654D01*
X0065752Y0115700D01*
X0065812Y0115744D01*
X0065874Y0115784D01*
X0065938Y0115821D01*
X0066004Y0115855D01*
X0066072Y0115885D01*
X0066141Y0115911D01*
X0066212Y0115934D01*
X0066283Y0115952D01*
X0066356Y0115967D01*
X0066429Y0115978D01*
X0066503Y0115985D01*
X0066577Y0115988D01*
X0066650Y0115987D01*
X0066724Y0115982D01*
X0066798Y0115973D01*
X0066871Y0115960D01*
X0066943Y0115943D01*
X0067014Y0115923D01*
X0067084Y0115898D01*
X0067152Y0115870D01*
X0067219Y0115839D01*
X0067284Y0115803D01*
X0067347Y0115765D01*
X0067408Y0115723D01*
X0067467Y0115677D01*
X0067523Y0115629D01*
X0067576Y0115578D01*
X0067626Y0115524D01*
X0067674Y0115467D01*
X0067718Y0115408D01*
X0067760Y0115346D01*
X0067798Y0115283D01*
X0067832Y0115217D01*
X0067863Y0115150D01*
X0067890Y0115081D01*
X0067913Y0115011D01*
X0067933Y0114940D01*
X0067949Y0114867D01*
X0067961Y0114794D01*
X0067969Y0114721D01*
X0067973Y0114647D01*
X0067973Y0114573D01*
X0067969Y0114499D01*
X0067961Y0114426D01*
X0067949Y0114353D01*
X0067933Y0114280D01*
X0067913Y0114209D01*
X0067890Y0114139D01*
X0067863Y0114070D01*
X0067832Y0114003D01*
X0067798Y0113937D01*
X0067760Y0113874D01*
X0067718Y0113812D01*
X0067674Y0113753D01*
X0067626Y0113696D01*
X0067576Y0113642D01*
X0067523Y0113591D01*
X0067467Y0113543D01*
X0067408Y0113497D01*
X0067347Y0113455D01*
X0067284Y0113417D01*
X0067219Y0113381D01*
X0067152Y0113350D01*
X0067084Y0113322D01*
X0067014Y0113297D01*
X0066943Y0113277D01*
X0066871Y0113260D01*
X0066798Y0113247D01*
X0066724Y0113238D01*
X0066650Y0113233D01*
X0066577Y0113232D01*
X0066503Y0113235D01*
X0066429Y0113242D01*
X0066356Y0113253D01*
X0066283Y0113268D01*
X0066212Y0113286D01*
X0066141Y0113309D01*
X0066072Y0113335D01*
X0066004Y0113365D01*
X0065938Y0113399D01*
X0065874Y0113436D01*
X0065812Y0113476D01*
X0065752Y0113520D01*
X0065695Y0113566D01*
X0065640Y0113616D01*
X0065588Y0113669D01*
X0065539Y0113724D01*
X0065493Y0113782D01*
X0065451Y0113843D01*
X0065411Y0113905D01*
X0065375Y0113970D01*
X0065342Y0114036D01*
X0065313Y0114104D01*
X0065288Y0114174D01*
X0065266Y0114244D01*
X0065249Y0114316D01*
X0065235Y0114389D01*
X0065225Y0114462D01*
X0065219Y0114536D01*
X0065217Y0114610D01*
X0060296Y0119335D02*
X0058131Y0119335D01*
X0058130Y0119334D02*
X0058056Y0119331D01*
X0057981Y0119332D01*
X0057906Y0119336D01*
X0057831Y0119345D01*
X0057757Y0119357D01*
X0057684Y0119373D01*
X0057611Y0119392D01*
X0057540Y0119415D01*
X0057470Y0119442D01*
X0057401Y0119472D01*
X0057334Y0119506D01*
X0057269Y0119543D01*
X0057206Y0119583D01*
X0057145Y0119626D01*
X0057086Y0119673D01*
X0057030Y0119722D01*
X0056976Y0119774D01*
X0056925Y0119829D01*
X0056876Y0119887D01*
X0056831Y0119946D01*
X0056789Y0120008D01*
X0056750Y0120072D01*
X0056714Y0120138D01*
X0056681Y0120206D01*
X0056652Y0120275D01*
X0056627Y0120346D01*
X0056605Y0120417D01*
X0056587Y0120490D01*
X0056573Y0120564D01*
X0056562Y0120638D01*
X0056555Y0120713D01*
X0056556Y0120713D02*
X0056556Y0121500D01*
X0056555Y0121500D02*
X0056562Y0121575D01*
X0056573Y0121649D01*
X0056587Y0121723D01*
X0056605Y0121796D01*
X0056627Y0121867D01*
X0056652Y0121938D01*
X0056681Y0122007D01*
X0056714Y0122075D01*
X0056750Y0122141D01*
X0056789Y0122205D01*
X0056831Y0122267D01*
X0056876Y0122326D01*
X0056925Y0122384D01*
X0056976Y0122439D01*
X0057030Y0122491D01*
X0057086Y0122540D01*
X0057145Y0122587D01*
X0057206Y0122630D01*
X0057269Y0122670D01*
X0057334Y0122707D01*
X0057401Y0122741D01*
X0057470Y0122771D01*
X0057540Y0122798D01*
X0057611Y0122821D01*
X0057684Y0122840D01*
X0057757Y0122856D01*
X0057831Y0122868D01*
X0057906Y0122877D01*
X0057981Y0122881D01*
X0058056Y0122882D01*
X0058130Y0122879D01*
X0058131Y0122878D02*
X0060296Y0122878D01*
X0060368Y0122876D01*
X0060440Y0122870D01*
X0060512Y0122861D01*
X0060583Y0122848D01*
X0060653Y0122831D01*
X0060722Y0122811D01*
X0060790Y0122786D01*
X0060856Y0122759D01*
X0060922Y0122728D01*
X0060985Y0122693D01*
X0061047Y0122656D01*
X0061106Y0122615D01*
X0061163Y0122571D01*
X0061218Y0122524D01*
X0061270Y0122474D01*
X0061320Y0122422D01*
X0061367Y0122367D01*
X0061411Y0122310D01*
X0061452Y0122251D01*
X0061489Y0122189D01*
X0061524Y0122126D01*
X0061555Y0122060D01*
X0061582Y0121994D01*
X0061607Y0121926D01*
X0061627Y0121857D01*
X0061644Y0121787D01*
X0061657Y0121716D01*
X0061666Y0121644D01*
X0061672Y0121572D01*
X0061674Y0121500D01*
X0061674Y0120713D01*
X0061672Y0120641D01*
X0061666Y0120569D01*
X0061657Y0120497D01*
X0061644Y0120426D01*
X0061627Y0120356D01*
X0061607Y0120287D01*
X0061582Y0120219D01*
X0061555Y0120153D01*
X0061524Y0120087D01*
X0061489Y0120024D01*
X0061452Y0119962D01*
X0061411Y0119903D01*
X0061367Y0119846D01*
X0061320Y0119791D01*
X0061270Y0119739D01*
X0061218Y0119689D01*
X0061163Y0119642D01*
X0061106Y0119598D01*
X0061047Y0119557D01*
X0060985Y0119520D01*
X0060922Y0119485D01*
X0060856Y0119454D01*
X0060790Y0119427D01*
X0060722Y0119402D01*
X0060653Y0119382D01*
X0060583Y0119365D01*
X0060512Y0119352D01*
X0060440Y0119343D01*
X0060368Y0119337D01*
X0060296Y0119335D01*
X0183126Y0076933D02*
X0183128Y0077021D01*
X0183134Y0077109D01*
X0183144Y0077197D01*
X0183158Y0077285D01*
X0183175Y0077371D01*
X0183197Y0077457D01*
X0183222Y0077541D01*
X0183252Y0077625D01*
X0183284Y0077707D01*
X0183321Y0077787D01*
X0183361Y0077866D01*
X0183405Y0077943D01*
X0183452Y0078018D01*
X0183502Y0078090D01*
X0183556Y0078161D01*
X0183612Y0078228D01*
X0183672Y0078294D01*
X0183734Y0078356D01*
X0183800Y0078416D01*
X0183867Y0078472D01*
X0183938Y0078526D01*
X0184010Y0078576D01*
X0184085Y0078623D01*
X0184162Y0078667D01*
X0184241Y0078707D01*
X0184321Y0078744D01*
X0184403Y0078776D01*
X0184487Y0078806D01*
X0184571Y0078831D01*
X0184657Y0078853D01*
X0184743Y0078870D01*
X0184831Y0078884D01*
X0184919Y0078894D01*
X0185007Y0078900D01*
X0185095Y0078902D01*
X0185183Y0078900D01*
X0185271Y0078894D01*
X0185359Y0078884D01*
X0185447Y0078870D01*
X0185533Y0078853D01*
X0185619Y0078831D01*
X0185703Y0078806D01*
X0185787Y0078776D01*
X0185869Y0078744D01*
X0185949Y0078707D01*
X0186028Y0078667D01*
X0186105Y0078623D01*
X0186180Y0078576D01*
X0186252Y0078526D01*
X0186323Y0078472D01*
X0186390Y0078416D01*
X0186456Y0078356D01*
X0186518Y0078294D01*
X0186578Y0078228D01*
X0186634Y0078161D01*
X0186688Y0078090D01*
X0186738Y0078018D01*
X0186785Y0077943D01*
X0186829Y0077866D01*
X0186869Y0077787D01*
X0186906Y0077707D01*
X0186938Y0077625D01*
X0186968Y0077541D01*
X0186993Y0077457D01*
X0187015Y0077371D01*
X0187032Y0077285D01*
X0187046Y0077197D01*
X0187056Y0077109D01*
X0187062Y0077021D01*
X0187064Y0076933D01*
X0187062Y0076845D01*
X0187056Y0076757D01*
X0187046Y0076669D01*
X0187032Y0076581D01*
X0187015Y0076495D01*
X0186993Y0076409D01*
X0186968Y0076325D01*
X0186938Y0076241D01*
X0186906Y0076159D01*
X0186869Y0076079D01*
X0186829Y0076000D01*
X0186785Y0075923D01*
X0186738Y0075848D01*
X0186688Y0075776D01*
X0186634Y0075705D01*
X0186578Y0075638D01*
X0186518Y0075572D01*
X0186456Y0075510D01*
X0186390Y0075450D01*
X0186323Y0075394D01*
X0186252Y0075340D01*
X0186180Y0075290D01*
X0186105Y0075243D01*
X0186028Y0075199D01*
X0185949Y0075159D01*
X0185869Y0075122D01*
X0185787Y0075090D01*
X0185703Y0075060D01*
X0185619Y0075035D01*
X0185533Y0075013D01*
X0185447Y0074996D01*
X0185359Y0074982D01*
X0185271Y0074972D01*
X0185183Y0074966D01*
X0185095Y0074964D01*
X0185007Y0074966D01*
X0184919Y0074972D01*
X0184831Y0074982D01*
X0184743Y0074996D01*
X0184657Y0075013D01*
X0184571Y0075035D01*
X0184487Y0075060D01*
X0184403Y0075090D01*
X0184321Y0075122D01*
X0184241Y0075159D01*
X0184162Y0075199D01*
X0184085Y0075243D01*
X0184010Y0075290D01*
X0183938Y0075340D01*
X0183867Y0075394D01*
X0183800Y0075450D01*
X0183734Y0075510D01*
X0183672Y0075572D01*
X0183612Y0075638D01*
X0183556Y0075705D01*
X0183502Y0075776D01*
X0183452Y0075848D01*
X0183405Y0075923D01*
X0183361Y0076000D01*
X0183321Y0076079D01*
X0183284Y0076159D01*
X0183252Y0076241D01*
X0183222Y0076325D01*
X0183197Y0076409D01*
X0183175Y0076495D01*
X0183158Y0076581D01*
X0183144Y0076669D01*
X0183134Y0076757D01*
X0183128Y0076845D01*
X0183126Y0076933D01*
X0198126Y0076933D02*
X0198128Y0077021D01*
X0198134Y0077109D01*
X0198144Y0077197D01*
X0198158Y0077285D01*
X0198175Y0077371D01*
X0198197Y0077457D01*
X0198222Y0077541D01*
X0198252Y0077625D01*
X0198284Y0077707D01*
X0198321Y0077787D01*
X0198361Y0077866D01*
X0198405Y0077943D01*
X0198452Y0078018D01*
X0198502Y0078090D01*
X0198556Y0078161D01*
X0198612Y0078228D01*
X0198672Y0078294D01*
X0198734Y0078356D01*
X0198800Y0078416D01*
X0198867Y0078472D01*
X0198938Y0078526D01*
X0199010Y0078576D01*
X0199085Y0078623D01*
X0199162Y0078667D01*
X0199241Y0078707D01*
X0199321Y0078744D01*
X0199403Y0078776D01*
X0199487Y0078806D01*
X0199571Y0078831D01*
X0199657Y0078853D01*
X0199743Y0078870D01*
X0199831Y0078884D01*
X0199919Y0078894D01*
X0200007Y0078900D01*
X0200095Y0078902D01*
X0200183Y0078900D01*
X0200271Y0078894D01*
X0200359Y0078884D01*
X0200447Y0078870D01*
X0200533Y0078853D01*
X0200619Y0078831D01*
X0200703Y0078806D01*
X0200787Y0078776D01*
X0200869Y0078744D01*
X0200949Y0078707D01*
X0201028Y0078667D01*
X0201105Y0078623D01*
X0201180Y0078576D01*
X0201252Y0078526D01*
X0201323Y0078472D01*
X0201390Y0078416D01*
X0201456Y0078356D01*
X0201518Y0078294D01*
X0201578Y0078228D01*
X0201634Y0078161D01*
X0201688Y0078090D01*
X0201738Y0078018D01*
X0201785Y0077943D01*
X0201829Y0077866D01*
X0201869Y0077787D01*
X0201906Y0077707D01*
X0201938Y0077625D01*
X0201968Y0077541D01*
X0201993Y0077457D01*
X0202015Y0077371D01*
X0202032Y0077285D01*
X0202046Y0077197D01*
X0202056Y0077109D01*
X0202062Y0077021D01*
X0202064Y0076933D01*
X0202062Y0076845D01*
X0202056Y0076757D01*
X0202046Y0076669D01*
X0202032Y0076581D01*
X0202015Y0076495D01*
X0201993Y0076409D01*
X0201968Y0076325D01*
X0201938Y0076241D01*
X0201906Y0076159D01*
X0201869Y0076079D01*
X0201829Y0076000D01*
X0201785Y0075923D01*
X0201738Y0075848D01*
X0201688Y0075776D01*
X0201634Y0075705D01*
X0201578Y0075638D01*
X0201518Y0075572D01*
X0201456Y0075510D01*
X0201390Y0075450D01*
X0201323Y0075394D01*
X0201252Y0075340D01*
X0201180Y0075290D01*
X0201105Y0075243D01*
X0201028Y0075199D01*
X0200949Y0075159D01*
X0200869Y0075122D01*
X0200787Y0075090D01*
X0200703Y0075060D01*
X0200619Y0075035D01*
X0200533Y0075013D01*
X0200447Y0074996D01*
X0200359Y0074982D01*
X0200271Y0074972D01*
X0200183Y0074966D01*
X0200095Y0074964D01*
X0200007Y0074966D01*
X0199919Y0074972D01*
X0199831Y0074982D01*
X0199743Y0074996D01*
X0199657Y0075013D01*
X0199571Y0075035D01*
X0199487Y0075060D01*
X0199403Y0075090D01*
X0199321Y0075122D01*
X0199241Y0075159D01*
X0199162Y0075199D01*
X0199085Y0075243D01*
X0199010Y0075290D01*
X0198938Y0075340D01*
X0198867Y0075394D01*
X0198800Y0075450D01*
X0198734Y0075510D01*
X0198672Y0075572D01*
X0198612Y0075638D01*
X0198556Y0075705D01*
X0198502Y0075776D01*
X0198452Y0075848D01*
X0198405Y0075923D01*
X0198361Y0076000D01*
X0198321Y0076079D01*
X0198284Y0076159D01*
X0198252Y0076241D01*
X0198222Y0076325D01*
X0198197Y0076409D01*
X0198175Y0076495D01*
X0198158Y0076581D01*
X0198144Y0076669D01*
X0198134Y0076757D01*
X0198128Y0076845D01*
X0198126Y0076933D01*
X0227843Y0114772D02*
X0227845Y0114856D01*
X0227851Y0114939D01*
X0227861Y0115022D01*
X0227875Y0115105D01*
X0227892Y0115187D01*
X0227914Y0115268D01*
X0227939Y0115347D01*
X0227968Y0115426D01*
X0228001Y0115503D01*
X0228037Y0115578D01*
X0228077Y0115652D01*
X0228120Y0115724D01*
X0228167Y0115793D01*
X0228217Y0115860D01*
X0228270Y0115925D01*
X0228326Y0115987D01*
X0228384Y0116047D01*
X0228446Y0116104D01*
X0228510Y0116157D01*
X0228577Y0116208D01*
X0228646Y0116255D01*
X0228717Y0116300D01*
X0228790Y0116340D01*
X0228865Y0116377D01*
X0228942Y0116411D01*
X0229020Y0116441D01*
X0229099Y0116467D01*
X0229180Y0116490D01*
X0229262Y0116508D01*
X0229344Y0116523D01*
X0229427Y0116534D01*
X0229510Y0116541D01*
X0229594Y0116544D01*
X0229678Y0116543D01*
X0229761Y0116538D01*
X0229845Y0116529D01*
X0229927Y0116516D01*
X0230009Y0116500D01*
X0230090Y0116479D01*
X0230171Y0116455D01*
X0230249Y0116427D01*
X0230327Y0116395D01*
X0230403Y0116359D01*
X0230477Y0116320D01*
X0230549Y0116278D01*
X0230619Y0116232D01*
X0230687Y0116183D01*
X0230752Y0116131D01*
X0230815Y0116076D01*
X0230875Y0116018D01*
X0230933Y0115957D01*
X0230987Y0115893D01*
X0231039Y0115827D01*
X0231087Y0115759D01*
X0231132Y0115688D01*
X0231173Y0115615D01*
X0231212Y0115541D01*
X0231246Y0115465D01*
X0231277Y0115387D01*
X0231304Y0115308D01*
X0231328Y0115227D01*
X0231347Y0115146D01*
X0231363Y0115064D01*
X0231375Y0114981D01*
X0231383Y0114897D01*
X0231387Y0114814D01*
X0231387Y0114730D01*
X0231383Y0114647D01*
X0231375Y0114563D01*
X0231363Y0114480D01*
X0231347Y0114398D01*
X0231328Y0114317D01*
X0231304Y0114236D01*
X0231277Y0114157D01*
X0231246Y0114079D01*
X0231212Y0114003D01*
X0231173Y0113929D01*
X0231132Y0113856D01*
X0231087Y0113785D01*
X0231039Y0113717D01*
X0230987Y0113651D01*
X0230933Y0113587D01*
X0230875Y0113526D01*
X0230815Y0113468D01*
X0230752Y0113413D01*
X0230687Y0113361D01*
X0230619Y0113312D01*
X0230549Y0113266D01*
X0230477Y0113224D01*
X0230403Y0113185D01*
X0230327Y0113149D01*
X0230249Y0113117D01*
X0230171Y0113089D01*
X0230090Y0113065D01*
X0230009Y0113044D01*
X0229927Y0113028D01*
X0229845Y0113015D01*
X0229761Y0113006D01*
X0229678Y0113001D01*
X0229594Y0113000D01*
X0229510Y0113003D01*
X0229427Y0113010D01*
X0229344Y0113021D01*
X0229262Y0113036D01*
X0229180Y0113054D01*
X0229099Y0113077D01*
X0229020Y0113103D01*
X0228942Y0113133D01*
X0228865Y0113167D01*
X0228790Y0113204D01*
X0228717Y0113244D01*
X0228646Y0113289D01*
X0228577Y0113336D01*
X0228510Y0113387D01*
X0228446Y0113440D01*
X0228384Y0113497D01*
X0228326Y0113557D01*
X0228270Y0113619D01*
X0228217Y0113684D01*
X0228167Y0113751D01*
X0228120Y0113820D01*
X0228077Y0113892D01*
X0228037Y0113966D01*
X0228001Y0114041D01*
X0227968Y0114118D01*
X0227939Y0114197D01*
X0227914Y0114276D01*
X0227892Y0114357D01*
X0227875Y0114439D01*
X0227861Y0114522D01*
X0227851Y0114605D01*
X0227845Y0114688D01*
X0227843Y0114772D01*
X0294174Y0141933D02*
X0294176Y0142073D01*
X0294182Y0142213D01*
X0294192Y0142352D01*
X0294206Y0142491D01*
X0294224Y0142630D01*
X0294245Y0142768D01*
X0294271Y0142906D01*
X0294301Y0143043D01*
X0294334Y0143178D01*
X0294372Y0143313D01*
X0294413Y0143447D01*
X0294458Y0143580D01*
X0294506Y0143711D01*
X0294559Y0143840D01*
X0294615Y0143969D01*
X0294674Y0144095D01*
X0294738Y0144220D01*
X0294804Y0144343D01*
X0294875Y0144464D01*
X0294948Y0144583D01*
X0295025Y0144700D01*
X0295106Y0144814D01*
X0295189Y0144926D01*
X0295276Y0145036D01*
X0295366Y0145144D01*
X0295458Y0145248D01*
X0295554Y0145350D01*
X0295653Y0145450D01*
X0295754Y0145546D01*
X0295858Y0145640D01*
X0295965Y0145730D01*
X0296074Y0145817D01*
X0296186Y0145902D01*
X0296300Y0145983D01*
X0296416Y0146061D01*
X0296534Y0146135D01*
X0296655Y0146206D01*
X0296777Y0146274D01*
X0296902Y0146338D01*
X0297028Y0146399D01*
X0297155Y0146456D01*
X0297285Y0146509D01*
X0297416Y0146559D01*
X0297548Y0146604D01*
X0297681Y0146647D01*
X0297816Y0146685D01*
X0297951Y0146719D01*
X0298088Y0146750D01*
X0298225Y0146777D01*
X0298363Y0146799D01*
X0298502Y0146818D01*
X0298641Y0146833D01*
X0298780Y0146844D01*
X0298920Y0146851D01*
X0299060Y0146854D01*
X0299200Y0146853D01*
X0299340Y0146848D01*
X0299479Y0146839D01*
X0299619Y0146826D01*
X0299758Y0146809D01*
X0299896Y0146788D01*
X0300034Y0146764D01*
X0300171Y0146735D01*
X0300307Y0146703D01*
X0300442Y0146666D01*
X0300576Y0146626D01*
X0300709Y0146582D01*
X0300840Y0146534D01*
X0300970Y0146483D01*
X0301099Y0146428D01*
X0301226Y0146369D01*
X0301351Y0146306D01*
X0301474Y0146241D01*
X0301596Y0146171D01*
X0301715Y0146098D01*
X0301833Y0146022D01*
X0301948Y0145943D01*
X0302061Y0145860D01*
X0302171Y0145774D01*
X0302279Y0145685D01*
X0302384Y0145593D01*
X0302487Y0145498D01*
X0302587Y0145400D01*
X0302684Y0145300D01*
X0302778Y0145196D01*
X0302870Y0145090D01*
X0302958Y0144982D01*
X0303043Y0144871D01*
X0303125Y0144757D01*
X0303204Y0144641D01*
X0303279Y0144524D01*
X0303351Y0144404D01*
X0303419Y0144282D01*
X0303484Y0144158D01*
X0303546Y0144032D01*
X0303604Y0143905D01*
X0303658Y0143776D01*
X0303709Y0143645D01*
X0303755Y0143513D01*
X0303798Y0143380D01*
X0303838Y0143246D01*
X0303873Y0143111D01*
X0303905Y0142974D01*
X0303932Y0142837D01*
X0303956Y0142699D01*
X0303976Y0142561D01*
X0303992Y0142422D01*
X0304004Y0142282D01*
X0304012Y0142143D01*
X0304016Y0142003D01*
X0304016Y0141863D01*
X0304012Y0141723D01*
X0304004Y0141584D01*
X0303992Y0141444D01*
X0303976Y0141305D01*
X0303956Y0141167D01*
X0303932Y0141029D01*
X0303905Y0140892D01*
X0303873Y0140755D01*
X0303838Y0140620D01*
X0303798Y0140486D01*
X0303755Y0140353D01*
X0303709Y0140221D01*
X0303658Y0140090D01*
X0303604Y0139961D01*
X0303546Y0139834D01*
X0303484Y0139708D01*
X0303419Y0139584D01*
X0303351Y0139462D01*
X0303279Y0139342D01*
X0303204Y0139225D01*
X0303125Y0139109D01*
X0303043Y0138995D01*
X0302958Y0138884D01*
X0302870Y0138776D01*
X0302778Y0138670D01*
X0302684Y0138566D01*
X0302587Y0138466D01*
X0302487Y0138368D01*
X0302384Y0138273D01*
X0302279Y0138181D01*
X0302171Y0138092D01*
X0302061Y0138006D01*
X0301948Y0137923D01*
X0301833Y0137844D01*
X0301715Y0137768D01*
X0301596Y0137695D01*
X0301474Y0137625D01*
X0301351Y0137560D01*
X0301226Y0137497D01*
X0301099Y0137438D01*
X0300970Y0137383D01*
X0300840Y0137332D01*
X0300709Y0137284D01*
X0300576Y0137240D01*
X0300442Y0137200D01*
X0300307Y0137163D01*
X0300171Y0137131D01*
X0300034Y0137102D01*
X0299896Y0137078D01*
X0299758Y0137057D01*
X0299619Y0137040D01*
X0299479Y0137027D01*
X0299340Y0137018D01*
X0299200Y0137013D01*
X0299060Y0137012D01*
X0298920Y0137015D01*
X0298780Y0137022D01*
X0298641Y0137033D01*
X0298502Y0137048D01*
X0298363Y0137067D01*
X0298225Y0137089D01*
X0298088Y0137116D01*
X0297951Y0137147D01*
X0297816Y0137181D01*
X0297681Y0137219D01*
X0297548Y0137262D01*
X0297416Y0137307D01*
X0297285Y0137357D01*
X0297155Y0137410D01*
X0297028Y0137467D01*
X0296902Y0137528D01*
X0296777Y0137592D01*
X0296655Y0137660D01*
X0296534Y0137731D01*
X0296416Y0137805D01*
X0296300Y0137883D01*
X0296186Y0137964D01*
X0296074Y0138049D01*
X0295965Y0138136D01*
X0295858Y0138226D01*
X0295754Y0138320D01*
X0295653Y0138416D01*
X0295554Y0138516D01*
X0295458Y0138618D01*
X0295366Y0138722D01*
X0295276Y0138830D01*
X0295189Y0138940D01*
X0295106Y0139052D01*
X0295025Y0139166D01*
X0294948Y0139283D01*
X0294875Y0139402D01*
X0294804Y0139523D01*
X0294738Y0139646D01*
X0294674Y0139771D01*
X0294615Y0139897D01*
X0294559Y0140026D01*
X0294506Y0140155D01*
X0294458Y0140286D01*
X0294413Y0140419D01*
X0294372Y0140553D01*
X0294334Y0140688D01*
X0294301Y0140823D01*
X0294271Y0140960D01*
X0294245Y0141098D01*
X0294224Y0141236D01*
X0294206Y0141375D01*
X0294192Y0141514D01*
X0294182Y0141653D01*
X0294176Y0141793D01*
X0294174Y0141933D01*
X0294174Y0071933D02*
X0294176Y0072073D01*
X0294182Y0072213D01*
X0294192Y0072352D01*
X0294206Y0072491D01*
X0294224Y0072630D01*
X0294245Y0072768D01*
X0294271Y0072906D01*
X0294301Y0073043D01*
X0294334Y0073178D01*
X0294372Y0073313D01*
X0294413Y0073447D01*
X0294458Y0073580D01*
X0294506Y0073711D01*
X0294559Y0073840D01*
X0294615Y0073969D01*
X0294674Y0074095D01*
X0294738Y0074220D01*
X0294804Y0074343D01*
X0294875Y0074464D01*
X0294948Y0074583D01*
X0295025Y0074700D01*
X0295106Y0074814D01*
X0295189Y0074926D01*
X0295276Y0075036D01*
X0295366Y0075144D01*
X0295458Y0075248D01*
X0295554Y0075350D01*
X0295653Y0075450D01*
X0295754Y0075546D01*
X0295858Y0075640D01*
X0295965Y0075730D01*
X0296074Y0075817D01*
X0296186Y0075902D01*
X0296300Y0075983D01*
X0296416Y0076061D01*
X0296534Y0076135D01*
X0296655Y0076206D01*
X0296777Y0076274D01*
X0296902Y0076338D01*
X0297028Y0076399D01*
X0297155Y0076456D01*
X0297285Y0076509D01*
X0297416Y0076559D01*
X0297548Y0076604D01*
X0297681Y0076647D01*
X0297816Y0076685D01*
X0297951Y0076719D01*
X0298088Y0076750D01*
X0298225Y0076777D01*
X0298363Y0076799D01*
X0298502Y0076818D01*
X0298641Y0076833D01*
X0298780Y0076844D01*
X0298920Y0076851D01*
X0299060Y0076854D01*
X0299200Y0076853D01*
X0299340Y0076848D01*
X0299479Y0076839D01*
X0299619Y0076826D01*
X0299758Y0076809D01*
X0299896Y0076788D01*
X0300034Y0076764D01*
X0300171Y0076735D01*
X0300307Y0076703D01*
X0300442Y0076666D01*
X0300576Y0076626D01*
X0300709Y0076582D01*
X0300840Y0076534D01*
X0300970Y0076483D01*
X0301099Y0076428D01*
X0301226Y0076369D01*
X0301351Y0076306D01*
X0301474Y0076241D01*
X0301596Y0076171D01*
X0301715Y0076098D01*
X0301833Y0076022D01*
X0301948Y0075943D01*
X0302061Y0075860D01*
X0302171Y0075774D01*
X0302279Y0075685D01*
X0302384Y0075593D01*
X0302487Y0075498D01*
X0302587Y0075400D01*
X0302684Y0075300D01*
X0302778Y0075196D01*
X0302870Y0075090D01*
X0302958Y0074982D01*
X0303043Y0074871D01*
X0303125Y0074757D01*
X0303204Y0074641D01*
X0303279Y0074524D01*
X0303351Y0074404D01*
X0303419Y0074282D01*
X0303484Y0074158D01*
X0303546Y0074032D01*
X0303604Y0073905D01*
X0303658Y0073776D01*
X0303709Y0073645D01*
X0303755Y0073513D01*
X0303798Y0073380D01*
X0303838Y0073246D01*
X0303873Y0073111D01*
X0303905Y0072974D01*
X0303932Y0072837D01*
X0303956Y0072699D01*
X0303976Y0072561D01*
X0303992Y0072422D01*
X0304004Y0072282D01*
X0304012Y0072143D01*
X0304016Y0072003D01*
X0304016Y0071863D01*
X0304012Y0071723D01*
X0304004Y0071584D01*
X0303992Y0071444D01*
X0303976Y0071305D01*
X0303956Y0071167D01*
X0303932Y0071029D01*
X0303905Y0070892D01*
X0303873Y0070755D01*
X0303838Y0070620D01*
X0303798Y0070486D01*
X0303755Y0070353D01*
X0303709Y0070221D01*
X0303658Y0070090D01*
X0303604Y0069961D01*
X0303546Y0069834D01*
X0303484Y0069708D01*
X0303419Y0069584D01*
X0303351Y0069462D01*
X0303279Y0069342D01*
X0303204Y0069225D01*
X0303125Y0069109D01*
X0303043Y0068995D01*
X0302958Y0068884D01*
X0302870Y0068776D01*
X0302778Y0068670D01*
X0302684Y0068566D01*
X0302587Y0068466D01*
X0302487Y0068368D01*
X0302384Y0068273D01*
X0302279Y0068181D01*
X0302171Y0068092D01*
X0302061Y0068006D01*
X0301948Y0067923D01*
X0301833Y0067844D01*
X0301715Y0067768D01*
X0301596Y0067695D01*
X0301474Y0067625D01*
X0301351Y0067560D01*
X0301226Y0067497D01*
X0301099Y0067438D01*
X0300970Y0067383D01*
X0300840Y0067332D01*
X0300709Y0067284D01*
X0300576Y0067240D01*
X0300442Y0067200D01*
X0300307Y0067163D01*
X0300171Y0067131D01*
X0300034Y0067102D01*
X0299896Y0067078D01*
X0299758Y0067057D01*
X0299619Y0067040D01*
X0299479Y0067027D01*
X0299340Y0067018D01*
X0299200Y0067013D01*
X0299060Y0067012D01*
X0298920Y0067015D01*
X0298780Y0067022D01*
X0298641Y0067033D01*
X0298502Y0067048D01*
X0298363Y0067067D01*
X0298225Y0067089D01*
X0298088Y0067116D01*
X0297951Y0067147D01*
X0297816Y0067181D01*
X0297681Y0067219D01*
X0297548Y0067262D01*
X0297416Y0067307D01*
X0297285Y0067357D01*
X0297155Y0067410D01*
X0297028Y0067467D01*
X0296902Y0067528D01*
X0296777Y0067592D01*
X0296655Y0067660D01*
X0296534Y0067731D01*
X0296416Y0067805D01*
X0296300Y0067883D01*
X0296186Y0067964D01*
X0296074Y0068049D01*
X0295965Y0068136D01*
X0295858Y0068226D01*
X0295754Y0068320D01*
X0295653Y0068416D01*
X0295554Y0068516D01*
X0295458Y0068618D01*
X0295366Y0068722D01*
X0295276Y0068830D01*
X0295189Y0068940D01*
X0295106Y0069052D01*
X0295025Y0069166D01*
X0294948Y0069283D01*
X0294875Y0069402D01*
X0294804Y0069523D01*
X0294738Y0069646D01*
X0294674Y0069771D01*
X0294615Y0069897D01*
X0294559Y0070026D01*
X0294506Y0070155D01*
X0294458Y0070286D01*
X0294413Y0070419D01*
X0294372Y0070553D01*
X0294334Y0070688D01*
X0294301Y0070823D01*
X0294271Y0070960D01*
X0294245Y0071098D01*
X0294224Y0071236D01*
X0294206Y0071375D01*
X0294192Y0071514D01*
X0294182Y0071653D01*
X0294176Y0071793D01*
X0294174Y0071933D01*
D11*
X0248013Y0092678D02*
X0246845Y0091511D01*
X0246845Y0092094D01*
X0246261Y0092094D01*
X0246261Y0091511D01*
X0246845Y0091511D01*
X0246261Y0090223D02*
X0245677Y0090223D01*
X0245094Y0089639D01*
X0245094Y0088471D01*
X0245677Y0087887D01*
X0246261Y0087887D01*
X0246845Y0088471D01*
X0246845Y0089639D01*
X0246261Y0090223D01*
X0245094Y0089639D02*
X0244510Y0090223D01*
X0243926Y0090223D01*
X0243342Y0089639D01*
X0243342Y0088471D01*
X0243926Y0087887D01*
X0244510Y0087887D01*
X0245094Y0088471D01*
X0241345Y0088441D02*
X0241345Y0089609D01*
X0241345Y0089025D02*
X0237842Y0089025D01*
X0237842Y0089609D02*
X0237842Y0088441D01*
X0238426Y0087154D02*
X0239010Y0087154D01*
X0239594Y0086570D01*
X0239594Y0085402D01*
X0240177Y0084818D01*
X0240761Y0084818D01*
X0241345Y0085402D01*
X0241345Y0086570D01*
X0240761Y0087154D01*
X0238426Y0087154D02*
X0237842Y0086570D01*
X0237842Y0085402D01*
X0238426Y0084818D01*
X0238426Y0083470D02*
X0240761Y0083470D01*
X0241345Y0082887D01*
X0241345Y0081719D01*
X0240761Y0081135D01*
X0238426Y0081135D01*
X0237842Y0081719D01*
X0237842Y0082887D01*
X0238426Y0083470D01*
X0234845Y0084130D02*
X0234845Y0085881D01*
X0233677Y0085297D02*
X0233677Y0084130D01*
X0234261Y0083546D01*
X0234845Y0084130D01*
X0233677Y0085297D02*
X0233094Y0085881D01*
X0232510Y0085297D01*
X0232510Y0083546D01*
X0232510Y0082198D02*
X0233094Y0082198D01*
X0233094Y0081614D01*
X0232510Y0081614D01*
X0232510Y0082198D01*
X0234261Y0082198D02*
X0234845Y0082198D01*
X0234845Y0081614D01*
X0234261Y0081614D01*
X0234261Y0082198D01*
X0237842Y0079787D02*
X0239010Y0078620D01*
X0240177Y0078620D01*
X0241345Y0079787D01*
X0243342Y0078590D02*
X0243926Y0079173D01*
X0244510Y0079173D01*
X0245094Y0078590D01*
X0245094Y0077422D01*
X0245677Y0076838D01*
X0246261Y0076838D01*
X0246845Y0077422D01*
X0246845Y0078590D01*
X0246261Y0079173D01*
X0246261Y0080521D02*
X0246845Y0081105D01*
X0246845Y0082273D01*
X0246261Y0082857D01*
X0243926Y0082857D01*
X0243342Y0082273D01*
X0243342Y0081105D01*
X0243926Y0080521D01*
X0243342Y0078590D02*
X0243342Y0077422D01*
X0243926Y0076838D01*
X0234845Y0087229D02*
X0233094Y0087229D01*
X0232510Y0087813D01*
X0232510Y0089564D01*
X0234845Y0089564D01*
X0234845Y0090852D02*
X0234845Y0092020D01*
X0234845Y0091436D02*
X0232510Y0091436D01*
X0232510Y0092020D01*
X0231342Y0091436D02*
X0230758Y0091436D01*
X0231926Y0093368D02*
X0233094Y0093368D01*
X0233677Y0093951D01*
X0233677Y0095703D01*
X0234845Y0095703D02*
X0231342Y0095703D01*
X0231342Y0093951D01*
X0231926Y0093368D01*
X0237842Y0093292D02*
X0239010Y0092124D01*
X0237842Y0090957D01*
X0241345Y0090957D01*
X0241345Y0093292D02*
X0237842Y0093292D01*
X0240761Y0094580D02*
X0240761Y0095164D01*
X0241345Y0095164D01*
X0241345Y0094580D01*
X0240761Y0094580D01*
X0241345Y0094580D02*
X0242513Y0095748D01*
X0243342Y0095778D02*
X0243342Y0094610D01*
X0243926Y0094026D01*
X0246261Y0094026D01*
X0246845Y0094610D01*
X0246845Y0095778D01*
X0246261Y0096361D01*
X0243926Y0096361D01*
X0243342Y0095778D01*
X0243926Y0097709D02*
X0245094Y0097709D01*
X0245677Y0098293D01*
X0245677Y0100045D01*
X0246845Y0100045D02*
X0243342Y0100045D01*
X0243342Y0098293D01*
X0243926Y0097709D01*
X0245677Y0098877D02*
X0246845Y0097709D01*
X0245677Y0095194D02*
X0246845Y0094026D01*
X0241345Y0097035D02*
X0241345Y0098203D01*
X0241345Y0097619D02*
X0237842Y0097619D01*
X0237842Y0098203D02*
X0237842Y0097035D01*
X0238426Y0099551D02*
X0237842Y0100135D01*
X0237842Y0101302D01*
X0238426Y0101886D01*
X0239010Y0101886D01*
X0239594Y0101302D01*
X0239594Y0100135D01*
X0240177Y0099551D01*
X0240761Y0099551D01*
X0241345Y0100135D01*
X0241345Y0101302D01*
X0240761Y0101886D01*
X0240761Y0103234D02*
X0238426Y0103234D01*
X0237842Y0103818D01*
X0237842Y0104985D01*
X0238426Y0105569D01*
X0240761Y0105569D01*
X0241345Y0104985D01*
X0241345Y0103818D01*
X0240761Y0103234D01*
X0243342Y0102500D02*
X0243342Y0101332D01*
X0243342Y0101916D02*
X0246845Y0101916D01*
X0246845Y0102500D02*
X0246845Y0101332D01*
X0241345Y0106917D02*
X0237842Y0106917D01*
X0239010Y0108085D01*
X0237842Y0109252D01*
X0241345Y0109252D01*
X0241345Y0110540D02*
X0241345Y0111124D01*
X0240761Y0111124D01*
X0240761Y0110540D01*
X0241345Y0110540D01*
X0242513Y0111708D01*
X0241345Y0113056D02*
X0239594Y0114807D01*
X0240177Y0115391D02*
X0237842Y0113056D01*
X0237842Y0115391D02*
X0241345Y0115391D01*
X0240761Y0116739D02*
X0241345Y0117323D01*
X0241345Y0118490D01*
X0240761Y0119074D01*
X0238426Y0119074D01*
X0237842Y0118490D01*
X0237842Y0117323D01*
X0238426Y0116739D01*
X0234845Y0116604D02*
X0234845Y0115436D01*
X0234845Y0116604D02*
X0234261Y0117188D01*
X0233094Y0117188D01*
X0232510Y0116604D01*
X0232510Y0115436D01*
X0233094Y0114853D01*
X0233677Y0114853D01*
X0233677Y0117188D01*
X0232510Y0118536D02*
X0234845Y0118536D01*
X0234845Y0120287D01*
X0234261Y0120871D01*
X0232510Y0120871D01*
X0231342Y0122743D02*
X0234845Y0122743D01*
X0234845Y0123327D02*
X0234845Y0122159D01*
X0234261Y0124674D02*
X0233677Y0124674D01*
X0233094Y0125258D01*
X0233094Y0127010D01*
X0234845Y0127010D02*
X0231342Y0127010D01*
X0231342Y0125258D01*
X0231926Y0124674D01*
X0232510Y0124674D01*
X0233094Y0125258D01*
X0234261Y0124674D02*
X0234845Y0125258D01*
X0234845Y0127010D01*
X0237842Y0127084D02*
X0241345Y0127084D01*
X0241345Y0127668D02*
X0241345Y0126500D01*
X0240177Y0125213D02*
X0239010Y0125213D01*
X0237842Y0124045D01*
X0238426Y0122757D02*
X0239010Y0122757D01*
X0239594Y0122173D01*
X0239594Y0121006D01*
X0240177Y0120422D01*
X0240761Y0120422D01*
X0241345Y0121006D01*
X0241345Y0122173D01*
X0240761Y0122757D01*
X0241345Y0124045D02*
X0240177Y0125213D01*
X0237842Y0126500D02*
X0237842Y0127668D01*
X0238426Y0129016D02*
X0239594Y0129016D01*
X0240177Y0129600D01*
X0240177Y0131351D01*
X0241345Y0131351D02*
X0237842Y0131351D01*
X0237842Y0129600D01*
X0238426Y0129016D01*
X0243342Y0129510D02*
X0243342Y0127758D01*
X0243926Y0127174D01*
X0245094Y0127174D01*
X0245677Y0127758D01*
X0245677Y0129510D01*
X0245677Y0128342D02*
X0246845Y0127174D01*
X0246261Y0125827D02*
X0245094Y0125827D01*
X0244510Y0125243D01*
X0244510Y0124075D01*
X0245094Y0123491D01*
X0245677Y0123491D01*
X0245677Y0125827D01*
X0246261Y0125827D02*
X0246845Y0125243D01*
X0246845Y0124075D01*
X0246845Y0122143D02*
X0246845Y0120392D01*
X0246261Y0119808D01*
X0245677Y0120392D01*
X0245677Y0121560D01*
X0245094Y0122143D01*
X0244510Y0121560D01*
X0244510Y0119808D01*
X0245094Y0118460D02*
X0244510Y0117876D01*
X0244510Y0116709D01*
X0245094Y0116125D01*
X0245677Y0116125D01*
X0245677Y0118460D01*
X0245094Y0118460D02*
X0246261Y0118460D01*
X0246845Y0117876D01*
X0246845Y0116709D01*
X0244510Y0114777D02*
X0244510Y0113609D01*
X0243926Y0114193D02*
X0246261Y0114193D01*
X0246845Y0113609D01*
X0248013Y0112322D02*
X0246845Y0111154D01*
X0246845Y0111738D01*
X0246261Y0111738D01*
X0246261Y0111154D01*
X0246845Y0111154D01*
X0246845Y0109866D02*
X0246261Y0109866D01*
X0243926Y0107531D01*
X0243342Y0107531D01*
X0243342Y0109866D01*
X0234845Y0111049D02*
X0232510Y0111049D01*
X0233677Y0111049D02*
X0232510Y0109882D01*
X0232510Y0109298D01*
X0232510Y0107980D02*
X0234261Y0107980D01*
X0234845Y0107396D01*
X0234845Y0105645D01*
X0232510Y0105645D01*
X0232510Y0104297D02*
X0232510Y0103713D01*
X0234845Y0103713D01*
X0234845Y0104297D02*
X0234845Y0103129D01*
X0234261Y0101258D02*
X0231926Y0101258D01*
X0232510Y0101842D02*
X0232510Y0100674D01*
X0234261Y0101258D02*
X0234845Y0100674D01*
X0231342Y0103713D02*
X0230758Y0103713D01*
X0224345Y0103639D02*
X0223761Y0103056D01*
X0223177Y0103056D01*
X0222594Y0103639D01*
X0222594Y0104807D01*
X0222010Y0105391D01*
X0221426Y0105391D01*
X0220842Y0104807D01*
X0220842Y0103639D01*
X0221426Y0103056D01*
X0220842Y0101708D02*
X0224345Y0101708D01*
X0223177Y0100540D01*
X0224345Y0099372D01*
X0220842Y0099372D01*
X0221426Y0098025D02*
X0223761Y0098025D01*
X0224345Y0097441D01*
X0224345Y0096273D01*
X0223761Y0095689D01*
X0224345Y0094341D02*
X0220842Y0094341D01*
X0221426Y0095689D02*
X0220842Y0096273D01*
X0220842Y0097441D01*
X0221426Y0098025D01*
X0224345Y0094341D02*
X0224345Y0092006D01*
X0224345Y0090658D02*
X0220842Y0090658D01*
X0222594Y0090075D02*
X0224345Y0088323D01*
X0223177Y0090658D02*
X0220842Y0088323D01*
X0215345Y0090021D02*
X0215345Y0091188D01*
X0214761Y0091772D01*
X0212426Y0091772D01*
X0211842Y0091188D01*
X0211842Y0090021D01*
X0212426Y0089437D01*
X0214761Y0089437D01*
X0215345Y0090021D01*
X0215345Y0093060D02*
X0215345Y0094228D01*
X0215345Y0093644D02*
X0211842Y0093644D01*
X0211842Y0094228D02*
X0211842Y0093060D01*
X0212426Y0095575D02*
X0211842Y0096159D01*
X0211842Y0097911D01*
X0215345Y0097911D01*
X0215345Y0096159D01*
X0214761Y0095575D01*
X0212426Y0095575D01*
X0211842Y0099259D02*
X0215345Y0099259D01*
X0214177Y0100426D01*
X0215345Y0101594D01*
X0211842Y0101594D01*
X0212426Y0102942D02*
X0211842Y0103526D01*
X0211842Y0104693D01*
X0212426Y0105277D01*
X0213010Y0105277D01*
X0213594Y0104693D01*
X0213594Y0103526D01*
X0214177Y0102942D01*
X0214761Y0102942D01*
X0215345Y0103526D01*
X0215345Y0104693D01*
X0214761Y0105277D01*
X0206345Y0105208D02*
X0202842Y0105208D01*
X0202842Y0103456D01*
X0203426Y0102872D01*
X0204594Y0102872D01*
X0205177Y0103456D01*
X0205177Y0105208D01*
X0205177Y0104040D02*
X0206345Y0102872D01*
X0205761Y0101525D02*
X0206345Y0100941D01*
X0206345Y0099773D01*
X0205761Y0099189D01*
X0205177Y0099189D01*
X0204594Y0099773D01*
X0204594Y0100941D01*
X0204010Y0101525D01*
X0203426Y0101525D01*
X0202842Y0100941D01*
X0202842Y0099773D01*
X0203426Y0099189D01*
X0202842Y0097841D02*
X0202842Y0095506D01*
X0202842Y0096674D02*
X0206345Y0096674D01*
X0197345Y0097258D02*
X0197345Y0096090D01*
X0196761Y0095506D01*
X0193842Y0095506D01*
X0193842Y0097841D02*
X0196761Y0097841D01*
X0197345Y0097258D01*
X0193842Y0099189D02*
X0193842Y0101525D01*
X0197345Y0101525D01*
X0196761Y0102872D02*
X0194426Y0102872D01*
X0193842Y0103456D01*
X0193842Y0105208D01*
X0197345Y0105208D01*
X0197345Y0103456D01*
X0196761Y0102872D01*
X0195594Y0101525D02*
X0195594Y0100357D01*
X0188345Y0101525D02*
X0184842Y0101525D01*
X0188345Y0099189D01*
X0184842Y0099189D01*
X0184842Y0097841D02*
X0184842Y0096090D01*
X0185426Y0095506D01*
X0187761Y0095506D01*
X0188345Y0096090D01*
X0188345Y0097841D01*
X0184842Y0097841D01*
X0185426Y0102872D02*
X0184842Y0103456D01*
X0184842Y0104624D01*
X0185426Y0105208D01*
X0187761Y0105208D01*
X0188345Y0104624D01*
X0188345Y0103456D01*
X0187761Y0102872D01*
X0186594Y0102872D01*
X0186594Y0104040D01*
X0182855Y0111209D02*
X0190335Y0111209D01*
X0190335Y0120657D01*
X0182855Y0120657D01*
X0182855Y0111209D01*
X0191855Y0111209D02*
X0199335Y0111209D01*
X0199335Y0120657D01*
X0191855Y0120657D01*
X0191855Y0111209D01*
X0200855Y0111209D02*
X0208335Y0111209D01*
X0208335Y0120657D01*
X0200855Y0120657D01*
X0200855Y0111209D01*
X0209855Y0111209D02*
X0217335Y0111209D01*
X0217335Y0120657D01*
X0209855Y0120657D01*
X0209855Y0111209D01*
X0218855Y0111209D02*
X0226335Y0111209D01*
X0226335Y0120657D01*
X0218855Y0120657D01*
X0218855Y0111209D01*
X0223761Y0105391D02*
X0224345Y0104807D01*
X0224345Y0103639D01*
X0231342Y0112337D02*
X0231926Y0112921D01*
X0234845Y0112921D01*
X0233094Y0113505D02*
X0233094Y0112337D01*
X0238426Y0120422D02*
X0237842Y0121006D01*
X0237842Y0122173D01*
X0238426Y0122757D01*
X0231342Y0122743D02*
X0231342Y0123327D01*
X0243342Y0129510D02*
X0246845Y0129510D01*
X0241345Y0133283D02*
X0240761Y0132699D01*
X0240177Y0132699D01*
X0239594Y0133283D01*
X0239594Y0134451D01*
X0239010Y0135034D01*
X0238426Y0135034D01*
X0237842Y0134451D01*
X0237842Y0133283D01*
X0238426Y0132699D01*
X0241345Y0133283D02*
X0241345Y0134451D01*
X0240761Y0135034D01*
X0243342Y0135124D02*
X0245094Y0136876D01*
X0245094Y0134541D01*
X0246845Y0135124D02*
X0243342Y0135124D01*
X0103796Y0133515D02*
X0103212Y0134099D01*
X0103212Y0135267D01*
X0102628Y0134683D01*
X0102044Y0134683D01*
X0101460Y0135267D01*
X0101460Y0136435D01*
X0103212Y0136435D02*
X0103212Y0135267D01*
X0100112Y0135267D02*
X0100112Y0138186D01*
X0097777Y0138186D02*
X0097777Y0135267D01*
X0098361Y0134683D01*
X0099529Y0134683D01*
X0100112Y0135267D01*
X0096429Y0135267D02*
X0095845Y0134683D01*
X0094678Y0134683D01*
X0094094Y0135267D01*
X0094094Y0135851D01*
X0094678Y0136435D01*
X0095845Y0136435D01*
X0096429Y0137018D01*
X0096429Y0137602D01*
X0095845Y0138186D01*
X0094678Y0138186D01*
X0094094Y0137602D01*
X0092746Y0138186D02*
X0090995Y0138186D01*
X0090411Y0137602D01*
X0090411Y0137018D01*
X0090995Y0136435D01*
X0092746Y0136435D01*
X0092746Y0138186D02*
X0092746Y0134683D01*
X0090995Y0134683D01*
X0090411Y0135267D01*
X0090411Y0135851D01*
X0090995Y0136435D01*
X0085380Y0136435D02*
X0085380Y0135267D01*
X0084796Y0134683D01*
X0083044Y0134683D01*
X0081697Y0134683D02*
X0081697Y0138186D01*
X0081113Y0137018D02*
X0079945Y0137018D01*
X0079361Y0136435D01*
X0079361Y0134683D01*
X0078014Y0135267D02*
X0077430Y0135851D01*
X0075678Y0135851D01*
X0075678Y0136435D02*
X0075678Y0134683D01*
X0077430Y0134683D01*
X0078014Y0135267D01*
X0077430Y0137018D02*
X0076262Y0137018D01*
X0075678Y0136435D01*
X0074330Y0137018D02*
X0074330Y0134683D01*
X0074330Y0135851D02*
X0073163Y0137018D01*
X0072579Y0137018D01*
X0071261Y0136435D02*
X0071261Y0135267D01*
X0070677Y0134683D01*
X0068926Y0134683D01*
X0068926Y0134099D02*
X0068926Y0137018D01*
X0070677Y0137018D01*
X0071261Y0136435D01*
X0070093Y0133515D02*
X0069510Y0133515D01*
X0068926Y0134099D01*
X0067578Y0135267D02*
X0067578Y0136435D01*
X0066994Y0137018D01*
X0065826Y0137018D01*
X0065243Y0136435D01*
X0065243Y0135851D01*
X0067578Y0135851D01*
X0067578Y0135267D02*
X0066994Y0134683D01*
X0065826Y0134683D01*
X0067331Y0140683D02*
X0067915Y0141267D01*
X0067915Y0143602D01*
X0068499Y0143018D02*
X0067331Y0143018D01*
X0069787Y0143018D02*
X0070954Y0143018D01*
X0070370Y0143602D02*
X0070370Y0141267D01*
X0069787Y0140683D01*
X0072302Y0140683D02*
X0074053Y0140683D01*
X0074637Y0141267D01*
X0074053Y0141851D01*
X0072302Y0141851D01*
X0072302Y0142435D02*
X0072302Y0140683D01*
X0072302Y0142435D02*
X0072886Y0143018D01*
X0074053Y0143018D01*
X0075985Y0143018D02*
X0076569Y0142435D01*
X0078320Y0142435D01*
X0076569Y0142435D02*
X0075985Y0141851D01*
X0075985Y0141267D01*
X0076569Y0140683D01*
X0078320Y0140683D01*
X0078320Y0144186D01*
X0076569Y0144186D01*
X0075985Y0143602D01*
X0075985Y0143018D01*
X0075985Y0146683D02*
X0078320Y0146683D01*
X0075985Y0149018D01*
X0075985Y0149602D01*
X0076569Y0150186D01*
X0077737Y0150186D01*
X0078320Y0149602D01*
X0079578Y0147267D02*
X0079578Y0146683D01*
X0080162Y0146683D01*
X0080162Y0147267D01*
X0079578Y0147267D01*
X0081510Y0148435D02*
X0083845Y0148435D01*
X0082094Y0150186D01*
X0082094Y0146683D01*
X0083351Y0143018D02*
X0083351Y0140099D01*
X0083935Y0139515D01*
X0084519Y0139515D01*
X0085103Y0140683D02*
X0083351Y0140683D01*
X0085103Y0140683D02*
X0085687Y0141267D01*
X0085687Y0143018D01*
X0087558Y0144186D02*
X0087558Y0140683D01*
X0086975Y0140683D02*
X0088142Y0140683D01*
X0089490Y0141267D02*
X0089490Y0142435D01*
X0090074Y0143018D01*
X0091241Y0143018D01*
X0091825Y0142435D01*
X0091825Y0141267D01*
X0091241Y0140683D01*
X0090074Y0140683D01*
X0089490Y0141267D01*
X0088142Y0144186D02*
X0087558Y0144186D01*
X0087528Y0146683D02*
X0085193Y0150186D01*
X0088876Y0150186D02*
X0088876Y0149602D01*
X0091211Y0147267D01*
X0091211Y0146683D01*
X0092469Y0146683D02*
X0093053Y0146683D01*
X0093053Y0147267D01*
X0092469Y0147267D01*
X0092469Y0146683D01*
X0094401Y0147267D02*
X0094985Y0146683D01*
X0096152Y0146683D01*
X0096736Y0147267D01*
X0095569Y0148435D02*
X0094985Y0148435D01*
X0094401Y0147851D01*
X0094401Y0147267D01*
X0094985Y0148435D02*
X0094401Y0149018D01*
X0094401Y0149602D01*
X0094985Y0150186D01*
X0096152Y0150186D01*
X0096736Y0149602D01*
X0097380Y0144770D02*
X0097380Y0144186D01*
X0097380Y0143018D02*
X0097380Y0140683D01*
X0097964Y0140683D02*
X0096796Y0140683D01*
X0095508Y0140683D02*
X0095508Y0144186D01*
X0093757Y0144186D01*
X0093173Y0143602D01*
X0093173Y0142435D01*
X0093757Y0141851D01*
X0095508Y0141851D01*
X0097380Y0143018D02*
X0097964Y0143018D01*
X0099312Y0140683D02*
X0101647Y0140683D01*
X0101647Y0144186D01*
X0091211Y0150186D02*
X0088876Y0150186D01*
X0074637Y0150186D02*
X0074637Y0147851D01*
X0073470Y0146683D01*
X0072302Y0147851D01*
X0072302Y0150186D01*
X0081113Y0137018D02*
X0081697Y0136435D01*
X0083044Y0137018D02*
X0084796Y0137018D01*
X0085380Y0136435D01*
D12*
X0130309Y0123337D02*
X0133179Y0123337D01*
X0133179Y0119033D01*
X0130309Y0119033D01*
X0131744Y0121185D02*
X0133179Y0121185D01*
X0134913Y0119033D02*
X0137782Y0119033D01*
X0137782Y0123337D01*
X0144021Y0121902D02*
X0145456Y0121902D01*
X0144738Y0122619D02*
X0144738Y0119750D01*
X0144021Y0119033D01*
X0147090Y0119033D02*
X0148525Y0119033D01*
X0147808Y0119033D02*
X0147808Y0121902D01*
X0148525Y0121902D01*
X0147808Y0123337D02*
X0147808Y0124054D01*
X0148525Y0126533D02*
X0148525Y0129402D01*
X0148525Y0127968D02*
X0147090Y0129402D01*
X0146373Y0129402D01*
X0150260Y0128685D02*
X0150260Y0127968D01*
X0153129Y0127968D01*
X0153129Y0128685D02*
X0152412Y0129402D01*
X0150977Y0129402D01*
X0150260Y0128685D01*
X0150977Y0126533D02*
X0152412Y0126533D01*
X0153129Y0127250D01*
X0153129Y0128685D01*
X0154864Y0128685D02*
X0154864Y0126533D01*
X0154864Y0128685D02*
X0155581Y0129402D01*
X0157016Y0129402D01*
X0157733Y0128685D01*
X0159368Y0129402D02*
X0160802Y0129402D01*
X0160085Y0130119D02*
X0160085Y0127250D01*
X0159368Y0126533D01*
X0157733Y0126533D02*
X0157733Y0130837D01*
X0162537Y0128685D02*
X0162537Y0126533D01*
X0164689Y0126533D01*
X0165406Y0127250D01*
X0164689Y0127968D01*
X0162537Y0127968D01*
X0162537Y0128685D02*
X0163254Y0129402D01*
X0164689Y0129402D01*
X0167141Y0128685D02*
X0167141Y0127968D01*
X0170010Y0127968D01*
X0170010Y0128685D02*
X0169293Y0129402D01*
X0167858Y0129402D01*
X0167141Y0128685D01*
X0167858Y0126533D02*
X0169293Y0126533D01*
X0170010Y0127250D01*
X0170010Y0128685D01*
X0171745Y0130837D02*
X0174614Y0130837D01*
X0174614Y0126533D01*
X0174614Y0128685D02*
X0173179Y0128685D01*
X0172312Y0123337D02*
X0171595Y0123337D01*
X0171595Y0119033D01*
X0172312Y0119033D02*
X0170877Y0119033D01*
X0169243Y0119750D02*
X0168525Y0119033D01*
X0166373Y0119033D01*
X0166373Y0121902D01*
X0164639Y0121185D02*
X0164639Y0119750D01*
X0163921Y0119033D01*
X0162487Y0119033D01*
X0161770Y0120468D02*
X0164639Y0120468D01*
X0164639Y0121185D02*
X0163921Y0121902D01*
X0162487Y0121902D01*
X0161770Y0121185D01*
X0161770Y0120468D01*
X0160035Y0121185D02*
X0158600Y0121185D01*
X0159317Y0122619D02*
X0159317Y0119033D01*
X0156965Y0119033D02*
X0156965Y0121902D01*
X0155531Y0121902D02*
X0154814Y0121902D01*
X0155531Y0121902D02*
X0156965Y0120468D01*
X0159317Y0122619D02*
X0158600Y0123337D01*
X0153129Y0121902D02*
X0153129Y0119750D01*
X0152412Y0119033D01*
X0150260Y0119033D01*
X0150260Y0121902D01*
X0140084Y0126533D02*
X0140084Y0130837D01*
X0138650Y0129402D01*
X0137215Y0130837D01*
X0137215Y0126533D01*
X0135480Y0127250D02*
X0132611Y0130119D01*
X0132611Y0127250D01*
X0133329Y0126533D01*
X0134763Y0126533D01*
X0135480Y0127250D01*
X0135480Y0130119D01*
X0134763Y0130837D01*
X0133329Y0130837D01*
X0132611Y0130119D01*
X0169243Y0121902D02*
X0169243Y0119750D01*
X0174047Y0119750D02*
X0174047Y0120468D01*
X0174764Y0121185D01*
X0176916Y0121185D01*
X0176916Y0123337D02*
X0174764Y0123337D01*
X0174047Y0122619D01*
X0174047Y0121902D01*
X0174764Y0121185D01*
X0174047Y0119750D02*
X0174764Y0119033D01*
X0176916Y0119033D01*
X0176916Y0123337D01*
X0183528Y0127926D02*
X0184796Y0126658D01*
X0186063Y0127926D01*
X0186063Y0130461D01*
X0187671Y0129827D02*
X0187671Y0129194D01*
X0188305Y0128560D01*
X0187671Y0127926D01*
X0187671Y0127292D01*
X0188305Y0126658D01*
X0189573Y0126658D01*
X0190207Y0127292D01*
X0191645Y0127292D02*
X0191645Y0126658D01*
X0192279Y0126658D01*
X0192279Y0127292D01*
X0191645Y0127292D01*
X0193887Y0127292D02*
X0193887Y0127926D01*
X0194521Y0128560D01*
X0195154Y0128560D01*
X0194521Y0128560D02*
X0193887Y0129194D01*
X0193887Y0129827D01*
X0194521Y0130461D01*
X0195788Y0130461D01*
X0196422Y0129827D01*
X0202174Y0127926D02*
X0203442Y0126658D01*
X0204075Y0126658D01*
X0204709Y0127292D01*
X0204709Y0127926D01*
X0203442Y0129194D01*
X0203442Y0129827D01*
X0204075Y0130461D01*
X0204709Y0129827D01*
X0204709Y0129194D01*
X0202174Y0126658D01*
X0196422Y0127292D02*
X0195788Y0126658D01*
X0194521Y0126658D01*
X0193887Y0127292D01*
X0190207Y0129827D02*
X0189573Y0130461D01*
X0188305Y0130461D01*
X0187671Y0129827D01*
X0188305Y0128560D02*
X0188939Y0128560D01*
X0183528Y0127926D02*
X0183528Y0130461D01*
X0185198Y0133408D02*
X0186465Y0133408D01*
X0187099Y0134042D01*
X0187099Y0134676D01*
X0186465Y0135310D01*
X0185198Y0135310D01*
X0184564Y0134676D01*
X0184564Y0134042D01*
X0185198Y0133408D01*
X0185198Y0135310D02*
X0184564Y0135944D01*
X0184564Y0136577D01*
X0185198Y0137211D01*
X0186465Y0137211D01*
X0187099Y0136577D01*
X0187099Y0135944D01*
X0186465Y0135310D01*
X0188707Y0133408D02*
X0191243Y0133408D01*
X0189975Y0133408D02*
X0189975Y0137211D01*
X0191243Y0135944D01*
X0192851Y0136577D02*
X0193485Y0137211D01*
X0194752Y0137211D01*
X0195386Y0136577D01*
X0195386Y0134042D01*
X0194752Y0133408D01*
X0193485Y0133408D01*
X0192851Y0134042D01*
X0192851Y0135310D01*
X0194119Y0135310D01*
X0196994Y0133408D02*
X0199530Y0133408D01*
X0198262Y0133408D02*
X0198262Y0137211D01*
X0199530Y0135944D01*
X0201138Y0135944D02*
X0201138Y0136577D01*
X0201772Y0137211D01*
X0203039Y0137211D01*
X0203673Y0136577D01*
X0205281Y0136577D02*
X0205915Y0137211D01*
X0207817Y0137211D01*
X0207817Y0133408D01*
X0205915Y0133408D01*
X0205281Y0134042D01*
X0205281Y0136577D01*
X0203673Y0133408D02*
X0201138Y0133408D01*
X0203673Y0133408D02*
X0201138Y0135944D01*
X0209425Y0137211D02*
X0209425Y0133408D01*
X0211960Y0133408D02*
X0211960Y0137211D01*
X0210693Y0135944D01*
X0209425Y0137211D01*
X0213568Y0135944D02*
X0213568Y0133408D01*
X0213568Y0135310D02*
X0216104Y0135310D01*
X0216104Y0135944D02*
X0214836Y0137211D01*
X0213568Y0135944D01*
X0216104Y0135944D02*
X0216104Y0133408D01*
X0217712Y0134042D02*
X0218346Y0133408D01*
X0219614Y0133408D01*
X0220248Y0134042D01*
X0219614Y0135310D02*
X0218346Y0135310D01*
X0217712Y0134676D01*
X0217712Y0134042D01*
X0219614Y0135310D02*
X0220248Y0135944D01*
X0220248Y0136577D01*
X0219614Y0137211D01*
X0218346Y0137211D01*
X0217712Y0136577D01*
X0221856Y0137211D02*
X0224391Y0137211D01*
X0223123Y0137211D02*
X0223123Y0133408D01*
X0225999Y0133408D02*
X0225999Y0135944D01*
X0227267Y0137211D01*
X0228535Y0135944D01*
X0228535Y0133408D01*
X0228535Y0135310D02*
X0225999Y0135310D01*
X0224793Y0130461D02*
X0223525Y0130461D01*
X0222891Y0129827D01*
X0222891Y0129194D01*
X0223525Y0128560D01*
X0224793Y0128560D01*
X0225427Y0129194D01*
X0225427Y0129827D01*
X0224793Y0130461D01*
X0224793Y0128560D02*
X0225427Y0127926D01*
X0225427Y0127292D01*
X0224793Y0126658D01*
X0223525Y0126658D01*
X0222891Y0127292D01*
X0222891Y0127926D01*
X0223525Y0128560D01*
X0221283Y0130461D02*
X0221283Y0126658D01*
X0218748Y0126658D02*
X0218748Y0130461D01*
X0220016Y0129194D01*
X0221283Y0130461D01*
X0217140Y0130461D02*
X0217140Y0126658D01*
X0217140Y0128560D02*
X0214604Y0128560D01*
X0212996Y0129194D02*
X0210461Y0129194D01*
X0212996Y0126658D01*
X0210461Y0126658D01*
X0214604Y0126658D02*
X0214604Y0130461D01*
X0227035Y0128560D02*
X0229570Y0128560D01*
X0227669Y0130461D01*
X0227669Y0126658D01*
D13*
X0226464Y0124335D02*
X0224730Y0124335D01*
X0225597Y0124335D02*
X0225597Y0121733D01*
X0223518Y0121733D02*
X0223518Y0124335D01*
X0222217Y0124335D01*
X0221783Y0123902D01*
X0221783Y0123034D01*
X0222217Y0122600D01*
X0223518Y0122600D01*
X0220571Y0122167D02*
X0220138Y0121733D01*
X0219270Y0121733D01*
X0218837Y0122167D01*
X0218837Y0122600D01*
X0219270Y0123034D01*
X0219704Y0123034D01*
X0219270Y0123034D02*
X0218837Y0123468D01*
X0218837Y0123902D01*
X0219270Y0124335D01*
X0220138Y0124335D01*
X0220571Y0123902D01*
X0217464Y0124335D02*
X0215730Y0124335D01*
X0216597Y0124335D02*
X0216597Y0121733D01*
X0214518Y0121733D02*
X0214518Y0124335D01*
X0213217Y0124335D01*
X0212783Y0123902D01*
X0212783Y0123034D01*
X0213217Y0122600D01*
X0214518Y0122600D01*
X0211571Y0123034D02*
X0210270Y0124335D01*
X0210270Y0121733D01*
X0209837Y0123034D02*
X0211571Y0123034D01*
X0208464Y0124335D02*
X0206730Y0124335D01*
X0207597Y0124335D02*
X0207597Y0121733D01*
X0205518Y0121733D02*
X0205518Y0124335D01*
X0204217Y0124335D01*
X0203783Y0123902D01*
X0203783Y0123034D01*
X0204217Y0122600D01*
X0205518Y0122600D01*
X0202571Y0122167D02*
X0202138Y0121733D01*
X0201270Y0121733D01*
X0200837Y0122167D01*
X0200837Y0123034D01*
X0201270Y0123468D01*
X0201704Y0123468D01*
X0202571Y0123034D01*
X0202571Y0124335D01*
X0200837Y0124335D01*
X0199464Y0124335D02*
X0197730Y0124335D01*
X0198597Y0124335D02*
X0198597Y0121733D01*
X0196518Y0121733D02*
X0196518Y0124335D01*
X0195217Y0124335D01*
X0194783Y0123902D01*
X0194783Y0123034D01*
X0195217Y0122600D01*
X0196518Y0122600D01*
X0193571Y0121733D02*
X0191837Y0121733D01*
X0192704Y0121733D02*
X0192704Y0124335D01*
X0193571Y0123468D01*
X0190464Y0124335D02*
X0188730Y0124335D01*
X0189597Y0124335D02*
X0189597Y0121733D01*
X0187518Y0121733D02*
X0187518Y0124335D01*
X0186217Y0124335D01*
X0185783Y0123902D01*
X0185783Y0123034D01*
X0186217Y0122600D01*
X0187518Y0122600D01*
X0184571Y0121733D02*
X0182837Y0123468D01*
X0182837Y0123902D01*
X0183270Y0124335D01*
X0184138Y0124335D01*
X0184571Y0123902D01*
X0184571Y0121733D02*
X0182837Y0121733D01*
D14*
X0133598Y0100957D03*
X0121334Y0096409D03*
X0122505Y0094274D03*
X0123608Y0092069D03*
X0123470Y0092000D03*
X0116787Y0089933D03*
X0110104Y0092000D03*
X0109966Y0092069D03*
X0111068Y0094274D03*
X0114720Y0112876D03*
X0112171Y0114736D03*
X0111068Y0116872D03*
X0111206Y0116941D03*
X0110104Y0119146D03*
X0109966Y0119077D03*
X0114789Y0125760D03*
X0111482Y0126242D03*
X0111413Y0126311D03*
X0118647Y0125898D03*
X0123470Y0119146D03*
X0123608Y0119077D03*
X0122505Y0116872D03*
X0122368Y0116941D03*
D15*
X0120990Y0120041D03*
X0119887Y0122591D03*
X0113549Y0123693D03*
X0113480Y0123762D03*
X0113342Y0123969D03*
X0113273Y0124037D03*
X0113204Y0124106D03*
X0113066Y0124313D03*
X0111826Y0127207D03*
X0120783Y0127896D03*
X0120921Y0127965D03*
X0124021Y0127344D03*
X0124090Y0127413D03*
X0112584Y0120041D03*
X0113204Y0093516D03*
X0116787Y0092482D03*
X0116787Y0090002D03*
X0120370Y0093516D03*
D16*
X0116787Y0095031D03*
X0116787Y0090071D03*
X0125675Y0101646D03*
X0125675Y0101715D03*
X0125675Y0101783D03*
X0119956Y0104953D03*
X0106521Y0101783D03*
X0106521Y0101715D03*
X0106521Y0101646D03*
X0120990Y0123624D03*
X0121059Y0123693D03*
X0121127Y0123762D03*
X0122712Y0125760D03*
X0124159Y0129343D03*
X0112584Y0126587D03*
D17*
X0116787Y0121006D03*
X0123608Y0128998D03*
X0116787Y0090140D03*
D18*
X0116787Y0090209D03*
X0116787Y0095238D03*
D19*
X0116787Y0095307D03*
X0116787Y0090278D03*
X0116787Y0115839D03*
D20*
X0116787Y0118250D03*
X0116787Y0120799D03*
X0116787Y0095445D03*
X0116787Y0090346D03*
D21*
X0116787Y0090415D03*
X0116787Y0120730D03*
D22*
X0116787Y0090484D03*
D23*
X0116787Y0090553D03*
X0116787Y0093171D03*
X0116787Y0120593D03*
D24*
X0116787Y0120524D03*
X0116787Y0093240D03*
X0116787Y0090622D03*
D25*
X0116787Y0090691D03*
X0116787Y0093309D03*
X0116787Y0117837D03*
X0116787Y0120455D03*
D26*
X0116787Y0120386D03*
X0116787Y0090760D03*
D27*
X0116787Y0090829D03*
X0116787Y0120317D03*
D28*
X0116787Y0090898D03*
D29*
X0116787Y0092551D03*
X0120232Y0090967D03*
X0113342Y0090967D03*
X0106383Y0101163D03*
X0125537Y0101163D03*
X0123057Y0126173D03*
X0123125Y0126242D03*
X0112377Y0126793D03*
D30*
X0120128Y0122797D03*
X0124538Y0129549D03*
X0119922Y0109776D03*
X0119922Y0101439D03*
X0119922Y0101370D03*
X0120611Y0091035D03*
D31*
X0112929Y0091035D03*
X0114238Y0115356D03*
X0119336Y0115356D03*
X0120232Y0122866D03*
X0123608Y0126862D03*
X0123677Y0126931D03*
D32*
X0123987Y0127276D03*
X0121024Y0128033D03*
X0119922Y0109913D03*
X0119922Y0101232D03*
X0120955Y0091104D03*
X0112619Y0091104D03*
D33*
X0112343Y0091173D03*
X0121231Y0091173D03*
X0119922Y0101094D03*
X0119922Y0110051D03*
X0119784Y0115287D03*
X0121300Y0119972D03*
X0113997Y0123142D03*
X0113928Y0123211D03*
X0112756Y0124726D03*
X0112687Y0124795D03*
X0112619Y0124864D03*
X0111723Y0127276D03*
X0120404Y0127620D03*
X0120473Y0127689D03*
X0124193Y0127551D03*
X0124262Y0127620D03*
X0124882Y0129687D03*
X0112274Y0119972D03*
D34*
X0112894Y0117561D03*
X0114203Y0122935D03*
X0114134Y0123004D03*
X0112481Y0125071D03*
X0112412Y0125140D03*
X0120128Y0127413D03*
X0120197Y0127482D03*
X0124400Y0127758D03*
X0120680Y0117561D03*
X0119922Y0110120D03*
X0121506Y0091242D03*
X0112067Y0091242D03*
D35*
X0111861Y0091311D03*
X0112687Y0093654D03*
X0113514Y0095927D03*
X0120060Y0095927D03*
X0120886Y0093654D03*
X0121713Y0091311D03*
X0119922Y0101026D03*
X0115306Y0108880D03*
X0119922Y0110189D03*
X0099184Y0110327D03*
X0099184Y0108949D03*
X0099184Y0108880D03*
X0114272Y0122866D03*
X0114341Y0122797D03*
X0112343Y0125209D03*
X0112274Y0125278D03*
X0119784Y0127138D03*
X0119853Y0127207D03*
X0119922Y0127276D03*
D36*
X0119715Y0127069D03*
X0119646Y0127000D03*
X0112136Y0125484D03*
X0119922Y0100957D03*
X0121920Y0091380D03*
X0111654Y0091380D03*
D37*
X0111447Y0091449D03*
X0122126Y0091449D03*
X0119922Y0110258D03*
X0120335Y0115150D03*
X0121162Y0117423D03*
X0113239Y0115150D03*
X0112412Y0117423D03*
X0114617Y0122591D03*
X0111998Y0125622D03*
X0119439Y0126793D03*
X0119508Y0126862D03*
X0124676Y0128102D03*
D38*
X0119302Y0126656D03*
X0119233Y0126587D03*
X0119164Y0126518D03*
X0114685Y0122522D03*
X0111861Y0125829D03*
X0111241Y0119628D03*
X0113032Y0115081D03*
X0114961Y0111980D03*
X0111516Y0108604D03*
X0120542Y0115081D03*
X0122333Y0119628D03*
X0119922Y0100888D03*
X0121506Y0093860D03*
X0122333Y0091518D03*
X0112067Y0093860D03*
X0111241Y0091518D03*
D39*
X0111068Y0091587D03*
X0112860Y0096134D03*
X0120714Y0096134D03*
X0122505Y0091587D03*
X0114996Y0111843D03*
X0114996Y0111911D03*
X0114927Y0112049D03*
X0114927Y0112118D03*
X0114927Y0112187D03*
X0112033Y0117285D03*
X0111068Y0119559D03*
X0116787Y0118732D03*
X0121541Y0117285D03*
X0122505Y0119559D03*
X0113893Y0126380D03*
X0111757Y0125898D03*
X0111344Y0127482D03*
X0124848Y0128240D03*
X0125261Y0129825D03*
D40*
X0119095Y0126449D03*
X0119026Y0126380D03*
X0114134Y0126242D03*
X0113997Y0126311D03*
X0111723Y0125967D03*
X0114823Y0122453D03*
X0111861Y0117217D03*
X0112825Y0115012D03*
X0114892Y0112394D03*
X0114892Y0112325D03*
X0114892Y0112256D03*
X0115030Y0111774D03*
X0119922Y0110327D03*
X0120748Y0115012D03*
X0121713Y0117217D03*
X0121713Y0093929D03*
X0122678Y0091656D03*
X0111861Y0093929D03*
X0110896Y0091656D03*
D41*
X0110724Y0091724D03*
X0111688Y0093998D03*
X0112653Y0096203D03*
X0107210Y0101026D03*
X0120921Y0096203D03*
X0121885Y0093998D03*
X0122850Y0091724D03*
X0126364Y0101026D03*
X0114858Y0112463D03*
X0114858Y0112531D03*
X0112653Y0114943D03*
X0111688Y0117148D03*
X0110724Y0119421D03*
X0110862Y0119490D03*
X0116787Y0121213D03*
X0122712Y0119490D03*
X0122850Y0119421D03*
X0121885Y0117148D03*
X0120921Y0114943D03*
X0116787Y0116321D03*
X0114238Y0126173D03*
X0111688Y0126035D03*
X0118992Y0126311D03*
X0124917Y0128309D03*
D42*
X0118888Y0126173D03*
X0118819Y0126104D03*
X0114410Y0126035D03*
X0114341Y0126104D03*
X0111585Y0126104D03*
X0111172Y0127551D03*
X0110552Y0119352D03*
X0111516Y0117079D03*
X0112481Y0114874D03*
X0114823Y0112600D03*
X0121093Y0114874D03*
X0122058Y0117079D03*
X0123022Y0119352D03*
X0119922Y0100819D03*
X0123022Y0091793D03*
X0110552Y0091793D03*
D43*
X0110379Y0091862D03*
X0111551Y0094067D03*
X0116787Y0094825D03*
X0112515Y0096272D03*
X0107210Y0100957D03*
X0111688Y0108535D03*
X0114789Y0112669D03*
X0114789Y0112738D03*
X0111344Y0117010D03*
X0110379Y0119283D03*
X0114927Y0122384D03*
X0114513Y0125967D03*
X0111551Y0126173D03*
X0123194Y0119283D03*
X0133598Y0110189D03*
X0126364Y0100957D03*
X0121059Y0096272D03*
X0122023Y0094067D03*
X0123194Y0091862D03*
X0116787Y0092413D03*
D44*
X0111378Y0094136D03*
X0111241Y0094205D03*
X0110276Y0091931D03*
X0112343Y0096341D03*
X0112205Y0096409D03*
X0121231Y0096341D03*
X0122333Y0094205D03*
X0122195Y0094136D03*
X0123298Y0091931D03*
X0124469Y0102335D03*
X0114754Y0112807D03*
X0112343Y0114805D03*
X0110207Y0119215D03*
X0121231Y0114805D03*
X0122195Y0117010D03*
X0123367Y0119215D03*
X0118682Y0125967D03*
X0118750Y0126035D03*
X0114685Y0125829D03*
X0114617Y0125898D03*
X0105315Y0102335D03*
D45*
X0111930Y0096547D03*
X0112067Y0096478D03*
X0110965Y0094343D03*
X0109863Y0092138D03*
X0121506Y0096478D03*
X0121644Y0096547D03*
X0122609Y0094343D03*
X0123711Y0092138D03*
X0111792Y0108467D03*
X0119922Y0110396D03*
X0121506Y0114667D03*
X0114685Y0112945D03*
X0112067Y0114667D03*
X0109794Y0119008D03*
X0114823Y0125691D03*
X0118544Y0125760D03*
X0118613Y0125829D03*
X0125502Y0129894D03*
X0123780Y0119008D03*
X0133563Y0110258D03*
D46*
X0121679Y0114598D03*
X0122781Y0116734D03*
X0122919Y0116665D03*
X0122643Y0116803D03*
X0123883Y0118939D03*
X0124021Y0118870D03*
X0124159Y0118801D03*
X0119474Y0122246D03*
X0118509Y0125691D03*
X0115064Y0125484D03*
X0114996Y0125553D03*
X0114927Y0125622D03*
X0111344Y0126380D03*
X0109690Y0118939D03*
X0109553Y0118870D03*
X0109415Y0118801D03*
X0110655Y0116665D03*
X0110793Y0116734D03*
X0110931Y0116803D03*
X0111895Y0114598D03*
X0105212Y0102404D03*
X0107210Y0100888D03*
X0110793Y0094411D03*
X0109690Y0092207D03*
X0109553Y0092276D03*
X0122781Y0094411D03*
X0123883Y0092207D03*
X0124021Y0092276D03*
X0126364Y0100888D03*
X0124366Y0102404D03*
D47*
X0119922Y0100750D03*
X0121920Y0096685D03*
X0121782Y0096616D03*
X0122884Y0094480D03*
X0123022Y0094549D03*
X0124124Y0092344D03*
X0124262Y0092413D03*
X0111792Y0096616D03*
X0111654Y0096685D03*
X0110552Y0094549D03*
X0110689Y0094480D03*
X0109449Y0092344D03*
X0109311Y0092413D03*
X0133563Y0100888D03*
X0111861Y0108398D03*
X0114617Y0113014D03*
X0111792Y0114530D03*
X0111654Y0114461D03*
X0110414Y0116528D03*
X0110552Y0116596D03*
X0109311Y0118732D03*
X0109174Y0118663D03*
X0114961Y0122315D03*
X0118406Y0125553D03*
X0118475Y0125622D03*
X0110965Y0127620D03*
X0124262Y0118732D03*
X0124400Y0118663D03*
X0123022Y0116596D03*
X0123160Y0116528D03*
X0121920Y0114461D03*
X0121782Y0114530D03*
D48*
X0122023Y0114392D03*
X0122161Y0114323D03*
X0123263Y0116459D03*
X0123401Y0116390D03*
X0124503Y0118594D03*
X0124641Y0118526D03*
X0118372Y0125484D03*
X0115202Y0125346D03*
X0115133Y0125415D03*
X0109070Y0118594D03*
X0108933Y0118526D03*
X0110173Y0116390D03*
X0110310Y0116459D03*
X0111413Y0114323D03*
X0111551Y0114392D03*
X0114582Y0113083D03*
X0118578Y0108880D03*
X0124297Y0102472D03*
X0122023Y0096754D03*
X0123125Y0094618D03*
X0123263Y0094687D03*
X0124503Y0092551D03*
X0124366Y0092482D03*
X0111551Y0096754D03*
X0110448Y0094618D03*
X0110310Y0094687D03*
X0109070Y0092551D03*
X0109208Y0092482D03*
X0105143Y0102472D03*
D49*
X0108071Y0102335D03*
X0111310Y0096892D03*
X0111447Y0096823D03*
X0110207Y0094756D03*
X0110069Y0094825D03*
X0108967Y0092620D03*
X0108829Y0092689D03*
X0108623Y0092827D03*
X0122126Y0096823D03*
X0122264Y0096892D03*
X0123367Y0094756D03*
X0123504Y0094825D03*
X0124607Y0092620D03*
X0124745Y0092689D03*
X0124951Y0092827D03*
X0127225Y0102335D03*
X0121300Y0102335D03*
X0111930Y0108329D03*
X0111310Y0114254D03*
X0110069Y0116321D03*
X0108829Y0118457D03*
X0115306Y0125209D03*
X0115237Y0125278D03*
X0118337Y0125415D03*
X0124745Y0118457D03*
X0123504Y0116321D03*
X0122264Y0114254D03*
X0133563Y0110327D03*
X0132668Y0102335D03*
D50*
X0116787Y0092620D03*
D51*
X0116787Y0092689D03*
X0116787Y0095169D03*
X0123470Y0128860D03*
D52*
X0118303Y0125346D03*
X0118234Y0125278D03*
X0124848Y0118388D03*
X0124986Y0118319D03*
X0125055Y0118250D03*
X0125192Y0118181D03*
X0123746Y0116183D03*
X0123608Y0116252D03*
X0122505Y0114116D03*
X0122368Y0114185D03*
X0115409Y0111705D03*
X0114513Y0113152D03*
X0111206Y0114185D03*
X0111068Y0114116D03*
X0109966Y0116252D03*
X0109828Y0116183D03*
X0108519Y0118250D03*
X0108588Y0118319D03*
X0108726Y0118388D03*
X0108381Y0118181D03*
X0118509Y0108811D03*
X0121334Y0108811D03*
X0121403Y0102404D03*
X0124228Y0102541D03*
X0126364Y0100819D03*
X0122368Y0096961D03*
X0123608Y0094894D03*
X0123814Y0095031D03*
X0125261Y0093033D03*
X0125055Y0092896D03*
X0124848Y0092758D03*
X0111206Y0096961D03*
X0109966Y0094894D03*
X0109759Y0095031D03*
X0108519Y0092896D03*
X0108726Y0092758D03*
X0107210Y0100819D03*
X0105074Y0102541D03*
X0118509Y0102335D03*
X0132633Y0102404D03*
X0132633Y0108811D03*
D53*
X0116787Y0115907D03*
X0116787Y0120937D03*
X0123057Y0128516D03*
X0116787Y0092758D03*
D54*
X0116787Y0092827D03*
X0116787Y0118319D03*
X0116787Y0120868D03*
D55*
X0116787Y0092896D03*
D56*
X0122471Y0097030D03*
X0122609Y0097098D03*
X0122678Y0097167D03*
X0123918Y0095100D03*
X0123711Y0094963D03*
X0124124Y0095238D03*
X0125571Y0093240D03*
X0125365Y0093102D03*
X0125158Y0092965D03*
X0133563Y0100819D03*
X0132599Y0102472D03*
X0127294Y0102472D03*
X0127294Y0102404D03*
X0121437Y0102472D03*
X0118406Y0102404D03*
X0118406Y0108673D03*
X0118406Y0108742D03*
X0119922Y0110465D03*
X0121437Y0108742D03*
X0121437Y0108673D03*
X0122609Y0114047D03*
X0123918Y0116045D03*
X0123849Y0116114D03*
X0124056Y0115976D03*
X0124124Y0115907D03*
X0125365Y0118043D03*
X0125296Y0118112D03*
X0125502Y0117974D03*
X0118199Y0125140D03*
X0118199Y0125209D03*
X0115443Y0125071D03*
X0115374Y0125140D03*
X0108278Y0118112D03*
X0108209Y0118043D03*
X0108071Y0117974D03*
X0109518Y0115976D03*
X0109656Y0116045D03*
X0109725Y0116114D03*
X0110965Y0114047D03*
X0111998Y0108260D03*
X0108140Y0102472D03*
X0108140Y0102404D03*
X0110896Y0097167D03*
X0110965Y0097098D03*
X0111103Y0097030D03*
X0109863Y0094963D03*
X0109656Y0095100D03*
X0109449Y0095238D03*
X0108002Y0093240D03*
X0108209Y0093102D03*
X0108278Y0093033D03*
X0108416Y0092965D03*
X0132599Y0108742D03*
D57*
X0116787Y0115632D03*
X0116787Y0118181D03*
X0116787Y0095514D03*
X0116787Y0092965D03*
D58*
X0116787Y0093033D03*
X0116787Y0115563D03*
X0116787Y0118112D03*
D59*
X0116787Y0118043D03*
X0116787Y0093102D03*
D60*
X0122781Y0097236D03*
X0124297Y0095376D03*
X0124228Y0095307D03*
X0124021Y0095169D03*
X0125468Y0093171D03*
X0125675Y0093309D03*
X0125744Y0093378D03*
X0125950Y0093516D03*
X0115547Y0100957D03*
X0115547Y0101026D03*
X0115547Y0101094D03*
X0115547Y0101163D03*
X0115547Y0101232D03*
X0115547Y0101301D03*
X0115547Y0101370D03*
X0115547Y0101439D03*
X0115547Y0101508D03*
X0115547Y0101577D03*
X0115547Y0101646D03*
X0115547Y0101715D03*
X0115547Y0101783D03*
X0115547Y0101852D03*
X0115547Y0101921D03*
X0115547Y0101990D03*
X0115547Y0102059D03*
X0115547Y0102128D03*
X0115547Y0102197D03*
X0115547Y0102266D03*
X0115547Y0102335D03*
X0115547Y0102404D03*
X0115547Y0102472D03*
X0115547Y0102541D03*
X0115547Y0102610D03*
X0115547Y0102679D03*
X0115547Y0102748D03*
X0115547Y0102817D03*
X0115547Y0102886D03*
X0115547Y0102955D03*
X0115547Y0103024D03*
X0115547Y0103093D03*
X0115547Y0103161D03*
X0115547Y0103230D03*
X0115547Y0103299D03*
X0115547Y0103368D03*
X0115547Y0103437D03*
X0115547Y0103506D03*
X0115547Y0103575D03*
X0115547Y0103644D03*
X0115547Y0103713D03*
X0115547Y0103781D03*
X0115547Y0103850D03*
X0115547Y0103919D03*
X0115547Y0103988D03*
X0115547Y0104057D03*
X0115547Y0104126D03*
X0115547Y0104195D03*
X0115547Y0104264D03*
X0115547Y0104333D03*
X0115547Y0104402D03*
X0115547Y0104470D03*
X0115547Y0104539D03*
X0115547Y0104608D03*
X0115547Y0104677D03*
X0115547Y0104746D03*
X0115547Y0104815D03*
X0115547Y0104884D03*
X0115547Y0104953D03*
X0115547Y0105022D03*
X0115547Y0105091D03*
X0115547Y0105159D03*
X0115547Y0105228D03*
X0115547Y0105297D03*
X0115547Y0105366D03*
X0115547Y0105435D03*
X0115547Y0105504D03*
X0115547Y0105573D03*
X0115547Y0105642D03*
X0115547Y0105711D03*
X0115547Y0105780D03*
X0115547Y0105848D03*
X0115547Y0105917D03*
X0115547Y0105986D03*
X0115547Y0106055D03*
X0115547Y0106124D03*
X0115547Y0106193D03*
X0115547Y0106262D03*
X0115547Y0106331D03*
X0115547Y0106400D03*
X0115547Y0106469D03*
X0115547Y0106537D03*
X0115547Y0106606D03*
X0115547Y0106675D03*
X0115547Y0106744D03*
X0115547Y0106813D03*
X0115547Y0106882D03*
X0115547Y0106951D03*
X0115547Y0107020D03*
X0115547Y0107089D03*
X0115547Y0107157D03*
X0115547Y0107226D03*
X0115547Y0107295D03*
X0115547Y0107364D03*
X0115547Y0107433D03*
X0115547Y0107502D03*
X0115547Y0107571D03*
X0115547Y0107640D03*
X0115547Y0107709D03*
X0115547Y0107778D03*
X0115547Y0107846D03*
X0115547Y0107915D03*
X0115547Y0107984D03*
X0115547Y0108053D03*
X0115547Y0108122D03*
X0115547Y0108191D03*
X0115547Y0108260D03*
X0115547Y0108329D03*
X0115547Y0108398D03*
X0115547Y0108467D03*
X0115547Y0108535D03*
X0115547Y0108604D03*
X0115547Y0108673D03*
X0115547Y0108742D03*
X0115547Y0108811D03*
X0115547Y0110465D03*
X0115547Y0110533D03*
X0115547Y0110602D03*
X0115547Y0110671D03*
X0115547Y0110740D03*
X0115547Y0110809D03*
X0115547Y0110878D03*
X0115547Y0110947D03*
X0115547Y0111016D03*
X0115547Y0111085D03*
X0115547Y0111154D03*
X0115547Y0111222D03*
X0115547Y0111291D03*
X0115547Y0111360D03*
X0115547Y0111429D03*
X0115547Y0111498D03*
X0115547Y0111567D03*
X0115478Y0111636D03*
X0110862Y0113978D03*
X0110793Y0113909D03*
X0110586Y0113772D03*
X0109346Y0115839D03*
X0109415Y0115907D03*
X0107899Y0117837D03*
X0107968Y0117906D03*
X0107692Y0117699D03*
X0102387Y0112669D03*
X0102387Y0112600D03*
X0102387Y0112531D03*
X0102387Y0112463D03*
X0102387Y0112394D03*
X0102387Y0112325D03*
X0102387Y0112256D03*
X0102387Y0112187D03*
X0102387Y0112118D03*
X0102387Y0112049D03*
X0102387Y0111980D03*
X0102387Y0111911D03*
X0102387Y0111843D03*
X0102387Y0111774D03*
X0102387Y0111705D03*
X0102387Y0111636D03*
X0102387Y0111567D03*
X0102387Y0111498D03*
X0102387Y0111429D03*
X0102387Y0111360D03*
X0102387Y0111291D03*
X0102387Y0111222D03*
X0102387Y0111154D03*
X0108175Y0110258D03*
X0108175Y0110189D03*
X0108175Y0110120D03*
X0108175Y0110051D03*
X0108175Y0109982D03*
X0108175Y0109913D03*
X0108175Y0109844D03*
X0108175Y0109776D03*
X0108175Y0109707D03*
X0108175Y0109638D03*
X0108175Y0109569D03*
X0108175Y0109500D03*
X0108175Y0109431D03*
X0108175Y0109362D03*
X0108175Y0109293D03*
X0108175Y0109224D03*
X0108175Y0109156D03*
X0108175Y0109087D03*
X0108175Y0109018D03*
X0108175Y0108949D03*
X0108175Y0108880D03*
X0108175Y0108811D03*
X0108175Y0108742D03*
X0108175Y0108673D03*
X0108175Y0108604D03*
X0108175Y0108535D03*
X0108175Y0108467D03*
X0108175Y0108398D03*
X0108175Y0108329D03*
X0108175Y0108260D03*
X0108175Y0108191D03*
X0108175Y0108122D03*
X0108175Y0108053D03*
X0108175Y0107984D03*
X0108175Y0107915D03*
X0108175Y0107846D03*
X0108175Y0107778D03*
X0108175Y0107709D03*
X0108175Y0107640D03*
X0108175Y0107571D03*
X0108175Y0107502D03*
X0108175Y0107433D03*
X0108175Y0107364D03*
X0108175Y0107295D03*
X0108175Y0107226D03*
X0108175Y0107157D03*
X0108175Y0107089D03*
X0108175Y0107020D03*
X0108175Y0106951D03*
X0108175Y0106882D03*
X0108175Y0106813D03*
X0108175Y0106744D03*
X0108175Y0106675D03*
X0108175Y0106606D03*
X0108175Y0106537D03*
X0108175Y0106469D03*
X0108175Y0106400D03*
X0108175Y0106331D03*
X0108175Y0106262D03*
X0108175Y0106193D03*
X0108175Y0106124D03*
X0108175Y0106055D03*
X0108175Y0105986D03*
X0108175Y0105917D03*
X0108175Y0105848D03*
X0108175Y0105780D03*
X0108175Y0105711D03*
X0108175Y0105642D03*
X0108175Y0105573D03*
X0108175Y0105504D03*
X0108175Y0105435D03*
X0108175Y0105366D03*
X0108175Y0105297D03*
X0108175Y0105228D03*
X0108175Y0105159D03*
X0108175Y0105091D03*
X0108175Y0105022D03*
X0108175Y0104953D03*
X0108175Y0104884D03*
X0108175Y0104815D03*
X0108175Y0104746D03*
X0108175Y0104677D03*
X0108175Y0104608D03*
X0108175Y0104539D03*
X0108175Y0104470D03*
X0108175Y0104402D03*
X0108175Y0104333D03*
X0108175Y0104264D03*
X0108175Y0104195D03*
X0108175Y0104126D03*
X0108175Y0104057D03*
X0108175Y0103988D03*
X0108175Y0103919D03*
X0108175Y0103850D03*
X0108175Y0103781D03*
X0108175Y0103713D03*
X0108175Y0103644D03*
X0108175Y0103575D03*
X0108175Y0103506D03*
X0108175Y0103437D03*
X0108175Y0103368D03*
X0108175Y0103299D03*
X0108175Y0103230D03*
X0108175Y0103161D03*
X0108175Y0103093D03*
X0108175Y0103024D03*
X0108175Y0102955D03*
X0108175Y0102886D03*
X0108175Y0102817D03*
X0108175Y0102748D03*
X0108175Y0102679D03*
X0108175Y0102610D03*
X0108175Y0102541D03*
X0105005Y0102610D03*
X0110793Y0097236D03*
X0109277Y0095376D03*
X0109346Y0095307D03*
X0109553Y0095169D03*
X0108106Y0093171D03*
X0107899Y0093309D03*
X0107830Y0093378D03*
X0107623Y0093516D03*
X0118372Y0102472D03*
X0118372Y0102541D03*
X0121472Y0102541D03*
X0121472Y0102610D03*
X0121472Y0102679D03*
X0124159Y0102610D03*
X0127328Y0102610D03*
X0127328Y0102541D03*
X0127328Y0102679D03*
X0127328Y0102748D03*
X0127328Y0102817D03*
X0127328Y0102886D03*
X0127328Y0102955D03*
X0127328Y0103024D03*
X0127328Y0103093D03*
X0127328Y0103161D03*
X0127328Y0103230D03*
X0127328Y0103299D03*
X0127328Y0103368D03*
X0127328Y0103437D03*
X0127328Y0103506D03*
X0127328Y0103575D03*
X0127328Y0103644D03*
X0127328Y0103713D03*
X0127328Y0103781D03*
X0127328Y0103850D03*
X0127328Y0103919D03*
X0127328Y0103988D03*
X0127328Y0104057D03*
X0127328Y0104126D03*
X0127328Y0104195D03*
X0127328Y0104264D03*
X0127328Y0104333D03*
X0127328Y0104402D03*
X0127328Y0104470D03*
X0127328Y0104539D03*
X0127328Y0104608D03*
X0127328Y0104677D03*
X0127328Y0104746D03*
X0127328Y0104815D03*
X0127328Y0104884D03*
X0127328Y0104953D03*
X0127328Y0105022D03*
X0127328Y0105091D03*
X0127328Y0105159D03*
X0127328Y0105228D03*
X0127328Y0105297D03*
X0127328Y0105366D03*
X0127328Y0105435D03*
X0127328Y0105504D03*
X0127328Y0105573D03*
X0127328Y0105642D03*
X0127328Y0105711D03*
X0127328Y0105780D03*
X0127328Y0105848D03*
X0127328Y0105917D03*
X0127328Y0105986D03*
X0127328Y0106055D03*
X0127328Y0106124D03*
X0127328Y0106193D03*
X0127328Y0106262D03*
X0127328Y0106331D03*
X0127328Y0106400D03*
X0127328Y0106469D03*
X0127328Y0106537D03*
X0127328Y0106606D03*
X0127328Y0106675D03*
X0127328Y0106744D03*
X0127328Y0106813D03*
X0127328Y0106882D03*
X0127328Y0106951D03*
X0127328Y0107020D03*
X0127328Y0107089D03*
X0127328Y0107157D03*
X0127328Y0107226D03*
X0127328Y0107295D03*
X0127328Y0107364D03*
X0127328Y0107433D03*
X0127328Y0107502D03*
X0127328Y0107571D03*
X0127328Y0107640D03*
X0127328Y0107709D03*
X0127328Y0107778D03*
X0127328Y0107846D03*
X0127328Y0107915D03*
X0127328Y0107984D03*
X0127328Y0108053D03*
X0127328Y0108122D03*
X0127328Y0108191D03*
X0127328Y0108260D03*
X0127328Y0108329D03*
X0127328Y0108398D03*
X0127328Y0108467D03*
X0127328Y0108535D03*
X0127328Y0108604D03*
X0127328Y0108673D03*
X0127328Y0108742D03*
X0127328Y0108811D03*
X0127328Y0108880D03*
X0127328Y0108949D03*
X0127328Y0109018D03*
X0127328Y0109087D03*
X0127328Y0109156D03*
X0127328Y0109224D03*
X0127328Y0109293D03*
X0127328Y0109362D03*
X0127328Y0109431D03*
X0127328Y0109500D03*
X0127328Y0109569D03*
X0127328Y0109638D03*
X0127328Y0109707D03*
X0127328Y0109776D03*
X0127328Y0109844D03*
X0127328Y0109913D03*
X0127328Y0109982D03*
X0127328Y0110051D03*
X0127328Y0110120D03*
X0127328Y0110189D03*
X0127328Y0110258D03*
X0132564Y0108673D03*
X0132564Y0108604D03*
X0132564Y0102610D03*
X0132564Y0102541D03*
X0121472Y0108535D03*
X0121472Y0108604D03*
X0118372Y0108604D03*
X0118372Y0108535D03*
X0112033Y0108191D03*
X0122712Y0113978D03*
X0122781Y0113909D03*
X0122988Y0113772D03*
X0124228Y0115839D03*
X0125675Y0117837D03*
X0125606Y0117906D03*
X0125881Y0117699D03*
X0118165Y0125071D03*
X0118096Y0125002D03*
X0115547Y0124933D03*
X0115478Y0125002D03*
D61*
X0116787Y0093378D03*
D62*
X0122884Y0097305D03*
X0122953Y0097374D03*
X0123091Y0097443D03*
X0123160Y0097512D03*
X0124469Y0095514D03*
X0124400Y0095445D03*
X0125847Y0093447D03*
X0126054Y0093585D03*
X0126123Y0093654D03*
X0124124Y0100888D03*
X0124124Y0100957D03*
X0124124Y0101026D03*
X0124124Y0102679D03*
X0124124Y0102748D03*
X0124124Y0102817D03*
X0124124Y0102886D03*
X0124124Y0102955D03*
X0124124Y0103024D03*
X0124124Y0103093D03*
X0124124Y0103161D03*
X0124124Y0103230D03*
X0124124Y0103299D03*
X0124124Y0103368D03*
X0124124Y0103437D03*
X0124124Y0103506D03*
X0124124Y0103575D03*
X0124124Y0103644D03*
X0124124Y0103713D03*
X0124124Y0103781D03*
X0124124Y0103850D03*
X0124124Y0103919D03*
X0124124Y0103988D03*
X0124124Y0104057D03*
X0124124Y0104126D03*
X0124124Y0104195D03*
X0124124Y0104264D03*
X0124124Y0104333D03*
X0124124Y0104402D03*
X0124124Y0104470D03*
X0124124Y0104539D03*
X0124124Y0104608D03*
X0124124Y0104677D03*
X0124124Y0104746D03*
X0124124Y0104815D03*
X0124124Y0104884D03*
X0124124Y0104953D03*
X0124124Y0105022D03*
X0124124Y0105091D03*
X0124124Y0105159D03*
X0124124Y0105228D03*
X0124124Y0105297D03*
X0124124Y0105366D03*
X0124124Y0105435D03*
X0124124Y0105504D03*
X0124124Y0105573D03*
X0124124Y0105642D03*
X0124124Y0105711D03*
X0124124Y0105780D03*
X0124124Y0105848D03*
X0124124Y0105917D03*
X0124124Y0105986D03*
X0124124Y0106055D03*
X0124124Y0106124D03*
X0124124Y0106193D03*
X0124124Y0106262D03*
X0124124Y0106331D03*
X0124124Y0106400D03*
X0124124Y0106469D03*
X0124124Y0106537D03*
X0124124Y0106606D03*
X0124124Y0106675D03*
X0124124Y0106744D03*
X0124124Y0106813D03*
X0124124Y0106882D03*
X0124124Y0106951D03*
X0124124Y0107020D03*
X0124124Y0107089D03*
X0124124Y0107157D03*
X0124124Y0107226D03*
X0124124Y0107295D03*
X0124124Y0107364D03*
X0124124Y0107433D03*
X0124124Y0107502D03*
X0124124Y0107571D03*
X0124124Y0107640D03*
X0124124Y0107709D03*
X0124124Y0107778D03*
X0124124Y0107846D03*
X0124124Y0107915D03*
X0124124Y0107984D03*
X0124124Y0108053D03*
X0124124Y0108122D03*
X0124124Y0108191D03*
X0124124Y0108260D03*
X0124124Y0108329D03*
X0124124Y0108398D03*
X0124124Y0108467D03*
X0124124Y0108535D03*
X0124124Y0108604D03*
X0124124Y0108673D03*
X0124124Y0108742D03*
X0124124Y0108811D03*
X0124124Y0108880D03*
X0124124Y0108949D03*
X0124124Y0109018D03*
X0124124Y0109087D03*
X0124124Y0109156D03*
X0124124Y0109224D03*
X0124124Y0109293D03*
X0124124Y0109362D03*
X0124124Y0109431D03*
X0124124Y0109500D03*
X0124124Y0109569D03*
X0124124Y0109638D03*
X0124124Y0109707D03*
X0124124Y0109776D03*
X0124124Y0109844D03*
X0124124Y0109913D03*
X0124124Y0109982D03*
X0124124Y0110051D03*
X0124124Y0110120D03*
X0124124Y0110189D03*
X0124124Y0110258D03*
X0121506Y0108467D03*
X0121506Y0108398D03*
X0121506Y0108329D03*
X0121506Y0108260D03*
X0121506Y0108191D03*
X0121506Y0108122D03*
X0121506Y0108053D03*
X0121506Y0107984D03*
X0121506Y0107915D03*
X0121506Y0107846D03*
X0121506Y0107778D03*
X0121506Y0107709D03*
X0121506Y0107640D03*
X0121506Y0107571D03*
X0121506Y0107502D03*
X0121506Y0107433D03*
X0121506Y0107364D03*
X0121506Y0107295D03*
X0121506Y0107226D03*
X0121506Y0107157D03*
X0121506Y0107089D03*
X0121506Y0107020D03*
X0121506Y0106951D03*
X0121506Y0106882D03*
X0121506Y0106813D03*
X0121506Y0106744D03*
X0121506Y0106675D03*
X0121506Y0106606D03*
X0121506Y0104884D03*
X0121506Y0104815D03*
X0121506Y0104746D03*
X0121506Y0104677D03*
X0121506Y0104608D03*
X0121506Y0104539D03*
X0121506Y0104470D03*
X0121506Y0104402D03*
X0121506Y0104333D03*
X0121506Y0104264D03*
X0121506Y0104195D03*
X0121506Y0104126D03*
X0121506Y0104057D03*
X0121506Y0103988D03*
X0121506Y0103919D03*
X0121506Y0103850D03*
X0121506Y0103781D03*
X0121506Y0103713D03*
X0121506Y0103644D03*
X0121506Y0103575D03*
X0121506Y0103506D03*
X0121506Y0103437D03*
X0121506Y0103368D03*
X0121506Y0103299D03*
X0121506Y0103230D03*
X0121506Y0103161D03*
X0121506Y0103093D03*
X0121506Y0103024D03*
X0121506Y0102955D03*
X0121506Y0102886D03*
X0121506Y0102817D03*
X0121506Y0102748D03*
X0118337Y0102748D03*
X0118337Y0102679D03*
X0118337Y0102610D03*
X0118337Y0102817D03*
X0118337Y0102886D03*
X0118337Y0102955D03*
X0118337Y0103024D03*
X0118337Y0103093D03*
X0118337Y0103161D03*
X0118337Y0103230D03*
X0118337Y0103299D03*
X0118337Y0103368D03*
X0118337Y0103437D03*
X0118337Y0103506D03*
X0118337Y0103575D03*
X0118337Y0103644D03*
X0118337Y0103713D03*
X0118337Y0103781D03*
X0118337Y0103850D03*
X0118337Y0103919D03*
X0118337Y0103988D03*
X0118337Y0106606D03*
X0118337Y0106675D03*
X0118337Y0106744D03*
X0118337Y0106813D03*
X0118337Y0106882D03*
X0118337Y0106951D03*
X0118337Y0107020D03*
X0118337Y0107089D03*
X0118337Y0107157D03*
X0118337Y0107226D03*
X0118337Y0107295D03*
X0118337Y0107364D03*
X0118337Y0107433D03*
X0118337Y0107502D03*
X0118337Y0107571D03*
X0118337Y0107640D03*
X0118337Y0107709D03*
X0118337Y0107778D03*
X0118337Y0107846D03*
X0118337Y0107915D03*
X0118337Y0107984D03*
X0118337Y0108053D03*
X0118337Y0108122D03*
X0118337Y0108191D03*
X0118337Y0108260D03*
X0118337Y0108329D03*
X0118337Y0108398D03*
X0118337Y0108467D03*
X0112067Y0108122D03*
X0112067Y0108053D03*
X0112067Y0107984D03*
X0112067Y0107915D03*
X0112067Y0107846D03*
X0112067Y0107778D03*
X0112067Y0107709D03*
X0112067Y0107640D03*
X0112067Y0107571D03*
X0112067Y0107502D03*
X0112067Y0107433D03*
X0112067Y0107364D03*
X0112067Y0107295D03*
X0112067Y0107226D03*
X0112067Y0107157D03*
X0112067Y0107089D03*
X0112067Y0107020D03*
X0112067Y0106951D03*
X0112067Y0106882D03*
X0112067Y0106813D03*
X0112067Y0106744D03*
X0112067Y0106675D03*
X0112067Y0106606D03*
X0112067Y0106537D03*
X0112067Y0106469D03*
X0112067Y0106400D03*
X0112067Y0106331D03*
X0112067Y0106262D03*
X0112067Y0106193D03*
X0112067Y0106124D03*
X0112067Y0106055D03*
X0112067Y0105986D03*
X0112067Y0105917D03*
X0112067Y0105848D03*
X0112067Y0105780D03*
X0112067Y0105711D03*
X0112067Y0105642D03*
X0112067Y0105573D03*
X0112067Y0105504D03*
X0112067Y0105435D03*
X0112067Y0105366D03*
X0112067Y0105297D03*
X0112067Y0105228D03*
X0112067Y0105159D03*
X0112067Y0105091D03*
X0112067Y0105022D03*
X0112067Y0104953D03*
X0112067Y0104884D03*
X0112067Y0104815D03*
X0112067Y0104746D03*
X0112067Y0104677D03*
X0112067Y0104608D03*
X0112067Y0104539D03*
X0112067Y0104470D03*
X0112067Y0104402D03*
X0112067Y0104333D03*
X0112067Y0104264D03*
X0112067Y0104195D03*
X0112067Y0104126D03*
X0112067Y0104057D03*
X0112067Y0103988D03*
X0112067Y0103919D03*
X0112067Y0103850D03*
X0112067Y0103781D03*
X0112067Y0103713D03*
X0112067Y0103644D03*
X0112067Y0103575D03*
X0112067Y0103506D03*
X0112067Y0103437D03*
X0112067Y0103368D03*
X0112067Y0103299D03*
X0112067Y0103230D03*
X0112067Y0103161D03*
X0112067Y0103093D03*
X0112067Y0103024D03*
X0112067Y0102955D03*
X0112067Y0102886D03*
X0112067Y0102817D03*
X0112067Y0102748D03*
X0112067Y0102679D03*
X0112067Y0102610D03*
X0112067Y0102541D03*
X0112067Y0102472D03*
X0112067Y0102404D03*
X0112067Y0102335D03*
X0112067Y0102266D03*
X0112067Y0102197D03*
X0112067Y0102128D03*
X0112067Y0102059D03*
X0112067Y0101990D03*
X0112067Y0101921D03*
X0112067Y0101852D03*
X0112067Y0101783D03*
X0112067Y0101715D03*
X0112067Y0101646D03*
X0112067Y0101577D03*
X0112067Y0101508D03*
X0112067Y0101439D03*
X0112067Y0101370D03*
X0112067Y0101301D03*
X0112067Y0101232D03*
X0112067Y0101163D03*
X0112067Y0101094D03*
X0112067Y0101026D03*
X0112067Y0100957D03*
X0112067Y0100888D03*
X0115581Y0100888D03*
X0110689Y0097305D03*
X0110621Y0097374D03*
X0110483Y0097443D03*
X0110414Y0097512D03*
X0109105Y0095514D03*
X0109174Y0095445D03*
X0108967Y0095583D03*
X0107451Y0093654D03*
X0107520Y0093585D03*
X0107727Y0093447D03*
X0104971Y0100888D03*
X0104971Y0100957D03*
X0104971Y0101026D03*
X0104971Y0102679D03*
X0104971Y0102748D03*
X0104971Y0102817D03*
X0104971Y0102886D03*
X0104971Y0102955D03*
X0104971Y0103024D03*
X0104971Y0103093D03*
X0104971Y0103161D03*
X0104971Y0103230D03*
X0104971Y0103299D03*
X0104971Y0103368D03*
X0104971Y0103437D03*
X0104971Y0103506D03*
X0104971Y0103575D03*
X0104971Y0103644D03*
X0104971Y0103713D03*
X0104971Y0103781D03*
X0104971Y0103850D03*
X0104971Y0103919D03*
X0104971Y0103988D03*
X0104971Y0104057D03*
X0104971Y0104126D03*
X0104971Y0104195D03*
X0104971Y0104264D03*
X0104971Y0104333D03*
X0104971Y0104402D03*
X0104971Y0104470D03*
X0104971Y0104539D03*
X0104971Y0104608D03*
X0104971Y0104677D03*
X0104971Y0104746D03*
X0104971Y0104815D03*
X0104971Y0104884D03*
X0104971Y0104953D03*
X0104971Y0105022D03*
X0104971Y0105091D03*
X0104971Y0105159D03*
X0104971Y0105228D03*
X0104971Y0105297D03*
X0104971Y0105366D03*
X0104971Y0105435D03*
X0104971Y0105504D03*
X0104971Y0105573D03*
X0104971Y0105642D03*
X0104971Y0105711D03*
X0104971Y0105780D03*
X0104971Y0105848D03*
X0104971Y0105917D03*
X0104971Y0105986D03*
X0104971Y0106055D03*
X0104971Y0106124D03*
X0104971Y0106193D03*
X0104971Y0106262D03*
X0104971Y0106331D03*
X0104971Y0106400D03*
X0104971Y0106469D03*
X0104971Y0106537D03*
X0104971Y0106606D03*
X0104971Y0106675D03*
X0104971Y0106744D03*
X0104971Y0106813D03*
X0104971Y0106882D03*
X0104971Y0106951D03*
X0104971Y0107020D03*
X0104971Y0107089D03*
X0104971Y0107157D03*
X0104971Y0107226D03*
X0104971Y0107295D03*
X0104971Y0107364D03*
X0104971Y0107433D03*
X0104971Y0107502D03*
X0104971Y0107571D03*
X0104971Y0107640D03*
X0104971Y0107709D03*
X0104971Y0107778D03*
X0104971Y0107846D03*
X0104971Y0107915D03*
X0104971Y0107984D03*
X0104971Y0108053D03*
X0104971Y0108122D03*
X0104971Y0108191D03*
X0104971Y0108260D03*
X0104971Y0108329D03*
X0104971Y0108398D03*
X0104971Y0108467D03*
X0104971Y0108535D03*
X0104971Y0108604D03*
X0104971Y0108673D03*
X0104971Y0108742D03*
X0104971Y0108811D03*
X0104971Y0108880D03*
X0104971Y0108949D03*
X0104971Y0109018D03*
X0104971Y0109087D03*
X0104971Y0109156D03*
X0104971Y0109224D03*
X0104971Y0109293D03*
X0104971Y0109362D03*
X0104971Y0109431D03*
X0104971Y0109500D03*
X0104971Y0109569D03*
X0104971Y0109638D03*
X0104971Y0109707D03*
X0104971Y0109776D03*
X0104971Y0109844D03*
X0104971Y0109913D03*
X0104971Y0109982D03*
X0104971Y0110051D03*
X0104971Y0110120D03*
X0104971Y0110189D03*
X0104971Y0110258D03*
X0104971Y0110327D03*
X0102353Y0110327D03*
X0102353Y0110258D03*
X0102353Y0110189D03*
X0102353Y0110120D03*
X0102353Y0110051D03*
X0102353Y0109982D03*
X0102353Y0109913D03*
X0102353Y0109844D03*
X0102353Y0109776D03*
X0102353Y0109707D03*
X0102353Y0109638D03*
X0102353Y0109569D03*
X0102353Y0109500D03*
X0102353Y0109431D03*
X0102353Y0109362D03*
X0102353Y0109293D03*
X0102353Y0109224D03*
X0102353Y0109156D03*
X0102353Y0109087D03*
X0102353Y0109018D03*
X0102353Y0108949D03*
X0102353Y0108880D03*
X0102353Y0108811D03*
X0102353Y0108742D03*
X0102353Y0108673D03*
X0102353Y0108604D03*
X0102353Y0108535D03*
X0102353Y0108467D03*
X0102353Y0108398D03*
X0102353Y0108329D03*
X0102353Y0108260D03*
X0102353Y0108191D03*
X0102353Y0108122D03*
X0102353Y0108053D03*
X0102353Y0107984D03*
X0102353Y0107915D03*
X0102353Y0107846D03*
X0102353Y0107778D03*
X0102353Y0107709D03*
X0102353Y0107640D03*
X0102353Y0107571D03*
X0102353Y0107502D03*
X0102353Y0107433D03*
X0102353Y0107364D03*
X0102353Y0107295D03*
X0102353Y0107226D03*
X0102353Y0107157D03*
X0102353Y0107089D03*
X0102353Y0107020D03*
X0102353Y0106951D03*
X0102353Y0106882D03*
X0102353Y0106813D03*
X0102353Y0106744D03*
X0102353Y0106675D03*
X0102353Y0106606D03*
X0102353Y0106537D03*
X0102353Y0106469D03*
X0102353Y0106400D03*
X0102353Y0106331D03*
X0102353Y0106262D03*
X0102353Y0106193D03*
X0102353Y0106124D03*
X0102353Y0106055D03*
X0102353Y0105986D03*
X0102353Y0105917D03*
X0102353Y0105848D03*
X0102353Y0105780D03*
X0102353Y0105711D03*
X0102353Y0105642D03*
X0102353Y0105573D03*
X0102353Y0105504D03*
X0102353Y0105435D03*
X0102353Y0105366D03*
X0102353Y0105297D03*
X0102353Y0105228D03*
X0102353Y0105159D03*
X0102353Y0105091D03*
X0102353Y0105022D03*
X0102353Y0104953D03*
X0102353Y0104884D03*
X0102353Y0104815D03*
X0102353Y0104746D03*
X0102353Y0104677D03*
X0102353Y0104608D03*
X0102353Y0104539D03*
X0102353Y0104470D03*
X0102353Y0104402D03*
X0102353Y0104333D03*
X0102353Y0104264D03*
X0102353Y0104195D03*
X0102353Y0104126D03*
X0102353Y0104057D03*
X0102353Y0103988D03*
X0102353Y0103919D03*
X0102353Y0103850D03*
X0102353Y0103781D03*
X0102353Y0103713D03*
X0102353Y0103644D03*
X0102353Y0103575D03*
X0102353Y0103506D03*
X0102353Y0103437D03*
X0102353Y0103368D03*
X0102353Y0103299D03*
X0102353Y0103230D03*
X0102353Y0103161D03*
X0102353Y0103093D03*
X0102353Y0103024D03*
X0102353Y0102955D03*
X0102353Y0102886D03*
X0102353Y0102817D03*
X0102353Y0102748D03*
X0102353Y0102679D03*
X0102353Y0102610D03*
X0102353Y0102541D03*
X0102353Y0102472D03*
X0102353Y0102404D03*
X0102353Y0102335D03*
X0102353Y0102266D03*
X0102353Y0102197D03*
X0102353Y0102128D03*
X0102353Y0102059D03*
X0102353Y0101990D03*
X0102353Y0101921D03*
X0102353Y0101852D03*
X0102353Y0101783D03*
X0102353Y0101715D03*
X0102353Y0101646D03*
X0102353Y0101577D03*
X0102353Y0101508D03*
X0102353Y0101439D03*
X0102353Y0101370D03*
X0102353Y0101301D03*
X0102353Y0101232D03*
X0102353Y0101163D03*
X0102353Y0101094D03*
X0102353Y0101026D03*
X0102353Y0100957D03*
X0102353Y0100888D03*
X0102353Y0100819D03*
X0099321Y0100888D03*
X0099321Y0100957D03*
X0099321Y0101026D03*
X0099321Y0101094D03*
X0099321Y0101163D03*
X0099321Y0101232D03*
X0099321Y0101301D03*
X0099321Y0101370D03*
X0099321Y0101439D03*
X0099321Y0101508D03*
X0099321Y0101577D03*
X0099321Y0101646D03*
X0099321Y0101715D03*
X0099321Y0101783D03*
X0099321Y0101852D03*
X0099321Y0101921D03*
X0099321Y0101990D03*
X0099321Y0102059D03*
X0099321Y0102128D03*
X0099321Y0102197D03*
X0099321Y0102266D03*
X0099321Y0102335D03*
X0099321Y0102404D03*
X0099321Y0102472D03*
X0099321Y0102541D03*
X0099321Y0102610D03*
X0099321Y0102679D03*
X0099321Y0102748D03*
X0099321Y0102817D03*
X0099321Y0102886D03*
X0099321Y0102955D03*
X0099321Y0103024D03*
X0099321Y0103093D03*
X0099321Y0103161D03*
X0099321Y0103230D03*
X0099321Y0103299D03*
X0099321Y0103368D03*
X0099321Y0103437D03*
X0099321Y0103506D03*
X0099321Y0103575D03*
X0099321Y0103644D03*
X0099321Y0103713D03*
X0099321Y0103781D03*
X0099321Y0103850D03*
X0099321Y0103919D03*
X0099321Y0103988D03*
X0099321Y0104057D03*
X0099321Y0104126D03*
X0099321Y0104195D03*
X0099321Y0104264D03*
X0099321Y0104333D03*
X0099321Y0104402D03*
X0099321Y0104470D03*
X0099321Y0104539D03*
X0099321Y0104608D03*
X0099321Y0104677D03*
X0099321Y0104746D03*
X0099321Y0104815D03*
X0099321Y0104884D03*
X0099321Y0104953D03*
X0099321Y0105022D03*
X0099321Y0105091D03*
X0099321Y0105159D03*
X0099321Y0105228D03*
X0099321Y0105297D03*
X0099321Y0105366D03*
X0099321Y0105435D03*
X0099321Y0105504D03*
X0099321Y0105573D03*
X0099321Y0105642D03*
X0099321Y0105711D03*
X0099321Y0105780D03*
X0099321Y0105848D03*
X0099321Y0105917D03*
X0099321Y0105986D03*
X0099321Y0106055D03*
X0099321Y0106124D03*
X0099321Y0106193D03*
X0099321Y0106262D03*
X0099321Y0106331D03*
X0099321Y0106400D03*
X0099321Y0106469D03*
X0099321Y0106537D03*
X0099321Y0106606D03*
X0099321Y0106675D03*
X0099321Y0106744D03*
X0099321Y0106813D03*
X0099321Y0106882D03*
X0099321Y0106951D03*
X0099321Y0107020D03*
X0099321Y0107089D03*
X0099321Y0107157D03*
X0099321Y0107226D03*
X0099321Y0107295D03*
X0099321Y0107364D03*
X0099321Y0107433D03*
X0099321Y0107502D03*
X0099321Y0107571D03*
X0099321Y0107640D03*
X0099321Y0107709D03*
X0099321Y0107778D03*
X0099321Y0107846D03*
X0099321Y0107915D03*
X0099321Y0107984D03*
X0099321Y0108053D03*
X0099321Y0108122D03*
X0099321Y0108191D03*
X0099321Y0108260D03*
X0099321Y0108329D03*
X0099321Y0108398D03*
X0099321Y0108467D03*
X0099321Y0108535D03*
X0099321Y0108604D03*
X0099321Y0108673D03*
X0099321Y0108742D03*
X0099321Y0108811D03*
X0099321Y0110465D03*
X0099321Y0110533D03*
X0099321Y0110602D03*
X0099321Y0110671D03*
X0099321Y0110740D03*
X0099321Y0110809D03*
X0099321Y0110878D03*
X0099321Y0110947D03*
X0099321Y0111016D03*
X0099321Y0111085D03*
X0099321Y0111154D03*
X0099321Y0111222D03*
X0099321Y0111291D03*
X0099321Y0111360D03*
X0099321Y0111429D03*
X0099321Y0111498D03*
X0099321Y0111567D03*
X0099321Y0111636D03*
X0099321Y0111705D03*
X0099321Y0111774D03*
X0099321Y0111843D03*
X0102353Y0111085D03*
X0102353Y0111016D03*
X0102353Y0112738D03*
X0108967Y0115563D03*
X0109036Y0115632D03*
X0109174Y0115701D03*
X0109243Y0115770D03*
X0110483Y0113703D03*
X0110414Y0113634D03*
X0110689Y0113841D03*
X0112067Y0110258D03*
X0112067Y0110189D03*
X0112067Y0110120D03*
X0112067Y0110051D03*
X0122884Y0113841D03*
X0123091Y0113703D03*
X0123160Y0113634D03*
X0124400Y0115701D03*
X0124331Y0115770D03*
X0124538Y0115632D03*
X0126123Y0117492D03*
X0126054Y0117561D03*
X0125985Y0117630D03*
X0125778Y0117768D03*
X0129912Y0113220D03*
X0129912Y0113152D03*
X0129912Y0113083D03*
X0129912Y0113014D03*
X0129912Y0112945D03*
X0129912Y0112876D03*
X0129912Y0112807D03*
X0129912Y0112738D03*
X0129912Y0112669D03*
X0129912Y0112600D03*
X0129912Y0112531D03*
X0129912Y0112463D03*
X0129912Y0112394D03*
X0129912Y0112325D03*
X0129912Y0112256D03*
X0129912Y0112187D03*
X0129912Y0112118D03*
X0129912Y0112049D03*
X0129912Y0111980D03*
X0129912Y0111911D03*
X0129912Y0111843D03*
X0129912Y0111774D03*
X0129912Y0111705D03*
X0129912Y0111636D03*
X0129912Y0111567D03*
X0129912Y0111498D03*
X0129912Y0111429D03*
X0129912Y0111360D03*
X0129912Y0111291D03*
X0129912Y0111222D03*
X0129912Y0111154D03*
X0129912Y0111085D03*
X0129912Y0111016D03*
X0129912Y0110947D03*
X0129912Y0110878D03*
X0129912Y0110809D03*
X0129912Y0110740D03*
X0129912Y0110671D03*
X0129912Y0110602D03*
X0129912Y0110533D03*
X0129912Y0110465D03*
X0129912Y0110396D03*
X0129912Y0110327D03*
X0129912Y0110258D03*
X0129912Y0110189D03*
X0129912Y0110120D03*
X0129912Y0110051D03*
X0129912Y0109982D03*
X0129912Y0109913D03*
X0129912Y0109844D03*
X0129912Y0109776D03*
X0129912Y0109707D03*
X0129912Y0109638D03*
X0129912Y0109569D03*
X0129912Y0109500D03*
X0129912Y0109431D03*
X0129912Y0109362D03*
X0129912Y0109293D03*
X0129912Y0109224D03*
X0129912Y0109156D03*
X0129912Y0109087D03*
X0129912Y0109018D03*
X0129912Y0108949D03*
X0129912Y0108880D03*
X0129912Y0108811D03*
X0129912Y0108742D03*
X0129912Y0108673D03*
X0129912Y0108604D03*
X0129912Y0108535D03*
X0129912Y0108467D03*
X0129912Y0108398D03*
X0129912Y0108329D03*
X0129912Y0108260D03*
X0129912Y0108191D03*
X0129912Y0108122D03*
X0129912Y0108053D03*
X0129912Y0107984D03*
X0129912Y0107915D03*
X0129912Y0107846D03*
X0129912Y0107778D03*
X0129912Y0107709D03*
X0129912Y0107640D03*
X0129912Y0107571D03*
X0129912Y0107502D03*
X0129912Y0107433D03*
X0129912Y0107364D03*
X0129912Y0107295D03*
X0129912Y0107226D03*
X0129912Y0107157D03*
X0129912Y0107089D03*
X0129912Y0107020D03*
X0129912Y0106951D03*
X0129912Y0106882D03*
X0129912Y0106813D03*
X0129912Y0106744D03*
X0129912Y0106675D03*
X0129912Y0106606D03*
X0129912Y0106537D03*
X0129912Y0106469D03*
X0129912Y0106400D03*
X0129912Y0106331D03*
X0129912Y0106262D03*
X0129912Y0106193D03*
X0129912Y0106124D03*
X0129912Y0106055D03*
X0129912Y0105986D03*
X0129912Y0105917D03*
X0129912Y0105848D03*
X0129912Y0105780D03*
X0129912Y0105711D03*
X0129912Y0105642D03*
X0129912Y0105573D03*
X0129912Y0105504D03*
X0129912Y0105435D03*
X0129912Y0105366D03*
X0129912Y0105297D03*
X0129912Y0105228D03*
X0129912Y0105159D03*
X0129912Y0105091D03*
X0129912Y0105022D03*
X0129912Y0104953D03*
X0129912Y0104884D03*
X0129912Y0104815D03*
X0129912Y0104746D03*
X0129912Y0104677D03*
X0129912Y0104608D03*
X0129912Y0104539D03*
X0129912Y0104470D03*
X0129912Y0104402D03*
X0129912Y0104333D03*
X0129912Y0104264D03*
X0129912Y0104195D03*
X0129912Y0104126D03*
X0129912Y0104057D03*
X0129912Y0103988D03*
X0129912Y0103919D03*
X0129912Y0103850D03*
X0129912Y0103781D03*
X0129912Y0103713D03*
X0129912Y0103644D03*
X0129912Y0103575D03*
X0129912Y0103506D03*
X0129912Y0103437D03*
X0129912Y0103368D03*
X0129912Y0103299D03*
X0129912Y0103230D03*
X0129912Y0103161D03*
X0129912Y0103093D03*
X0129912Y0103024D03*
X0129912Y0102955D03*
X0129912Y0102886D03*
X0129912Y0102817D03*
X0129912Y0102748D03*
X0129912Y0102679D03*
X0129912Y0102610D03*
X0129912Y0102541D03*
X0129912Y0102472D03*
X0129912Y0102404D03*
X0129912Y0102335D03*
X0129912Y0102266D03*
X0129912Y0102197D03*
X0129912Y0102128D03*
X0129912Y0102059D03*
X0129912Y0101990D03*
X0129912Y0101921D03*
X0129912Y0101852D03*
X0129912Y0101783D03*
X0129912Y0101715D03*
X0129912Y0101646D03*
X0129912Y0101577D03*
X0129912Y0101508D03*
X0129912Y0101439D03*
X0129912Y0101370D03*
X0129912Y0101301D03*
X0129912Y0101232D03*
X0129912Y0101163D03*
X0129912Y0101094D03*
X0129912Y0101026D03*
X0129912Y0100957D03*
X0129912Y0100888D03*
X0132530Y0102679D03*
X0132530Y0102748D03*
X0132530Y0102817D03*
X0132530Y0102886D03*
X0132530Y0102955D03*
X0132530Y0103024D03*
X0132530Y0103093D03*
X0132530Y0103161D03*
X0132530Y0103230D03*
X0132530Y0103299D03*
X0132530Y0103368D03*
X0132530Y0103437D03*
X0132530Y0103506D03*
X0132530Y0103575D03*
X0132530Y0103644D03*
X0132530Y0103713D03*
X0132530Y0103781D03*
X0132530Y0103850D03*
X0132530Y0103919D03*
X0132530Y0103988D03*
X0132530Y0104057D03*
X0132530Y0104126D03*
X0132530Y0104195D03*
X0132530Y0104264D03*
X0132530Y0104333D03*
X0132530Y0104402D03*
X0132530Y0104470D03*
X0132530Y0104539D03*
X0132530Y0104608D03*
X0132530Y0104677D03*
X0132530Y0104746D03*
X0132530Y0104815D03*
X0132530Y0104884D03*
X0132530Y0104953D03*
X0132530Y0105022D03*
X0132530Y0105091D03*
X0132530Y0105159D03*
X0132530Y0105228D03*
X0132530Y0105297D03*
X0132530Y0105366D03*
X0132530Y0105435D03*
X0132530Y0105504D03*
X0132530Y0105573D03*
X0132530Y0105642D03*
X0132530Y0105711D03*
X0132530Y0105780D03*
X0132530Y0105848D03*
X0132530Y0105917D03*
X0132530Y0105986D03*
X0132530Y0106055D03*
X0132530Y0106124D03*
X0132530Y0106193D03*
X0132530Y0106262D03*
X0132530Y0106331D03*
X0132530Y0106400D03*
X0132530Y0106469D03*
X0132530Y0106537D03*
X0132530Y0106606D03*
X0132530Y0106675D03*
X0132530Y0106744D03*
X0132530Y0106813D03*
X0132530Y0106882D03*
X0132530Y0106951D03*
X0132530Y0107020D03*
X0132530Y0107089D03*
X0132530Y0107157D03*
X0132530Y0107226D03*
X0132530Y0107295D03*
X0132530Y0107364D03*
X0132530Y0107433D03*
X0132530Y0107502D03*
X0132530Y0107571D03*
X0132530Y0107640D03*
X0132530Y0107709D03*
X0132530Y0107778D03*
X0132530Y0107846D03*
X0132530Y0107915D03*
X0132530Y0107984D03*
X0132530Y0108053D03*
X0132530Y0108122D03*
X0132530Y0108191D03*
X0132530Y0108260D03*
X0132530Y0108329D03*
X0132530Y0108398D03*
X0132530Y0108467D03*
X0132530Y0108535D03*
X0133563Y0110396D03*
X0107796Y0117768D03*
X0107589Y0117630D03*
X0107520Y0117561D03*
X0107451Y0117492D03*
X0115581Y0124864D03*
X0115650Y0124795D03*
X0118061Y0124933D03*
X0110758Y0127689D03*
X0125847Y0129963D03*
D63*
X0123814Y0127069D03*
X0123746Y0127000D03*
X0116787Y0121144D03*
X0112860Y0120110D03*
X0113480Y0117699D03*
X0120094Y0117699D03*
X0120714Y0120110D03*
X0112033Y0127069D03*
X0113549Y0093447D03*
X0120025Y0093447D03*
D64*
X0120645Y0093585D03*
X0116787Y0094894D03*
X0112929Y0093585D03*
X0114100Y0123073D03*
X0112584Y0124933D03*
X0112515Y0125002D03*
X0119681Y0122453D03*
X0120301Y0127551D03*
X0124297Y0127689D03*
D65*
X0118027Y0124864D03*
X0115685Y0124726D03*
X0107348Y0117423D03*
X0107279Y0117354D03*
X0107210Y0117285D03*
X0108933Y0115494D03*
X0110310Y0113565D03*
X0114444Y0113220D03*
X0112102Y0110327D03*
X0108175Y0110327D03*
X0108175Y0110396D03*
X0102387Y0112807D03*
X0099356Y0111911D03*
X0099356Y0100819D03*
X0104936Y0100819D03*
X0110310Y0097581D03*
X0108933Y0095652D03*
X0107210Y0093860D03*
X0107279Y0093791D03*
X0107348Y0093722D03*
X0112102Y0100819D03*
X0115547Y0100819D03*
X0118303Y0104057D03*
X0124090Y0100819D03*
X0129946Y0100819D03*
X0123194Y0097581D03*
X0124641Y0095652D03*
X0124572Y0095583D03*
X0126364Y0093860D03*
X0126295Y0093791D03*
X0126226Y0093722D03*
X0127328Y0110327D03*
X0127328Y0110396D03*
X0124090Y0110327D03*
X0129946Y0113289D03*
X0124641Y0115494D03*
X0124572Y0115563D03*
X0126295Y0117354D03*
X0126364Y0117285D03*
X0126226Y0117423D03*
D66*
X0121954Y0119766D03*
X0114513Y0122659D03*
X0112102Y0125553D03*
X0111482Y0127413D03*
X0119543Y0126931D03*
X0124641Y0128033D03*
X0111620Y0119766D03*
X0113273Y0095996D03*
X0112446Y0093722D03*
X0120301Y0095996D03*
X0121127Y0093722D03*
D67*
X0121334Y0093791D03*
X0120507Y0096065D03*
X0113066Y0096065D03*
X0112240Y0093791D03*
X0112240Y0117354D03*
X0111413Y0119697D03*
X0119474Y0122315D03*
X0122161Y0119697D03*
X0121334Y0117354D03*
X0111964Y0125691D03*
X0111895Y0125760D03*
X0119336Y0126724D03*
X0124779Y0128171D03*
D68*
X0117958Y0124726D03*
X0117958Y0124657D03*
X0115822Y0124520D03*
X0107141Y0117217D03*
X0108864Y0115425D03*
X0110242Y0113427D03*
X0123332Y0113427D03*
X0124710Y0115425D03*
X0126433Y0117217D03*
X0124090Y0100750D03*
X0129946Y0100750D03*
X0135803Y0100750D03*
X0124710Y0095720D03*
X0123332Y0097719D03*
X0126433Y0093929D03*
X0115547Y0100750D03*
X0112102Y0100750D03*
X0110242Y0097719D03*
X0108864Y0095720D03*
X0107141Y0093929D03*
X0104936Y0100750D03*
D69*
X0099321Y0100750D03*
X0108829Y0095789D03*
X0107107Y0093998D03*
X0124745Y0095789D03*
X0126467Y0093998D03*
X0099321Y0111980D03*
X0107107Y0117148D03*
X0108829Y0115356D03*
X0114341Y0113289D03*
X0124745Y0115356D03*
X0126467Y0117148D03*
X0129912Y0113358D03*
X0117924Y0124589D03*
X0115857Y0124451D03*
D70*
X0115891Y0124382D03*
X0115960Y0124313D03*
X0117820Y0124451D03*
X0117889Y0124520D03*
X0126501Y0117079D03*
X0123401Y0113358D03*
X0110173Y0113358D03*
X0110448Y0110051D03*
X0107072Y0117079D03*
X0135803Y0113358D03*
X0123401Y0097787D03*
X0124779Y0095858D03*
X0126501Y0094067D03*
X0110173Y0097787D03*
X0108795Y0095858D03*
X0107072Y0094067D03*
D71*
X0107072Y0094136D03*
X0110173Y0097856D03*
X0123401Y0097856D03*
X0126501Y0094136D03*
X0110379Y0110189D03*
X0110173Y0113289D03*
X0108795Y0115287D03*
X0123401Y0113289D03*
X0124779Y0115287D03*
X0117751Y0124244D03*
X0116029Y0124175D03*
D72*
X0116201Y0123831D03*
X0117648Y0123969D03*
X0119508Y0122177D03*
X0110414Y0127758D03*
X0108760Y0115150D03*
X0110276Y0110327D03*
X0119922Y0110533D03*
X0124813Y0115150D03*
X0126398Y0100681D03*
X0123435Y0097994D03*
X0124813Y0095996D03*
X0126536Y0094205D03*
X0133563Y0100681D03*
X0110138Y0097994D03*
X0108760Y0095996D03*
X0107038Y0094205D03*
X0107245Y0100681D03*
D73*
X0107072Y0094274D03*
X0126501Y0094274D03*
X0114169Y0113358D03*
X0116787Y0116390D03*
X0107072Y0116872D03*
X0116305Y0123555D03*
X0117545Y0123624D03*
X0117545Y0123693D03*
X0126501Y0116872D03*
D74*
X0126501Y0116803D03*
X0124848Y0115012D03*
X0117476Y0123417D03*
X0117476Y0123486D03*
X0116373Y0123348D03*
X0107072Y0116803D03*
X0108726Y0115012D03*
X0110104Y0110465D03*
X0110035Y0098201D03*
X0107072Y0094343D03*
X0126501Y0094343D03*
D75*
X0126501Y0094411D03*
X0123539Y0098270D03*
X0110035Y0098270D03*
X0107072Y0094411D03*
X0133529Y0110533D03*
X0124848Y0114943D03*
X0126501Y0116734D03*
X0123539Y0112876D03*
X0110035Y0112876D03*
X0108726Y0114943D03*
X0107072Y0116734D03*
X0116442Y0123142D03*
X0117476Y0123280D03*
X0117476Y0123348D03*
D76*
X0117407Y0123142D03*
X0117407Y0123073D03*
X0123539Y0112807D03*
X0110035Y0112807D03*
X0110035Y0098339D03*
X0107072Y0094480D03*
X0123539Y0098339D03*
X0126501Y0094480D03*
D77*
X0116787Y0094963D03*
X0116787Y0116183D03*
X0120301Y0122935D03*
X0123401Y0126587D03*
X0123470Y0126656D03*
D78*
X0123814Y0129136D03*
X0116787Y0118526D03*
X0116787Y0095100D03*
D79*
X0116787Y0095376D03*
X0116787Y0115770D03*
D80*
X0116787Y0095583D03*
D81*
X0116787Y0095652D03*
X0116787Y0115494D03*
X0116787Y0120661D03*
D82*
X0116787Y0115425D03*
X0116787Y0095720D03*
D83*
X0119233Y0095789D03*
X0119922Y0101577D03*
X0119922Y0101646D03*
X0119922Y0109500D03*
X0119922Y0109569D03*
X0120404Y0123004D03*
X0123367Y0126518D03*
X0124400Y0129480D03*
X0112205Y0126931D03*
D84*
X0112309Y0126862D03*
X0120438Y0123073D03*
X0120301Y0120179D03*
X0113273Y0120179D03*
X0123263Y0126449D03*
X0114375Y0095789D03*
D85*
X0113824Y0095858D03*
X0119749Y0095858D03*
X0113755Y0115287D03*
X0113135Y0117630D03*
X0116787Y0116252D03*
X0120438Y0117630D03*
X0113893Y0123280D03*
X0113824Y0123348D03*
X0112860Y0124589D03*
X0112791Y0124657D03*
X0120576Y0127758D03*
D86*
X0117717Y0124175D03*
X0116063Y0124106D03*
X0116063Y0124037D03*
X0107038Y0117010D03*
X0108760Y0115219D03*
X0110138Y0113220D03*
X0110345Y0110258D03*
X0123435Y0113220D03*
X0124813Y0115219D03*
X0123435Y0097925D03*
X0124813Y0095927D03*
X0110138Y0097925D03*
X0108760Y0095927D03*
D87*
X0108760Y0096065D03*
X0110069Y0098063D03*
X0123504Y0098063D03*
X0124813Y0096065D03*
X0110207Y0110396D03*
X0110069Y0113083D03*
X0108760Y0115081D03*
X0116270Y0123624D03*
X0117579Y0123762D03*
X0124813Y0115081D03*
X0123504Y0113083D03*
D88*
X0123504Y0113014D03*
X0110069Y0113014D03*
X0116339Y0123417D03*
X0116339Y0123486D03*
X0117510Y0123555D03*
X0123504Y0098132D03*
X0124813Y0096134D03*
X0110069Y0098132D03*
X0108760Y0096134D03*
D89*
X0108691Y0096203D03*
X0123504Y0098201D03*
X0124882Y0096203D03*
X0123504Y0112945D03*
X0110069Y0112945D03*
X0116408Y0123211D03*
X0116408Y0123280D03*
D90*
X0116477Y0123073D03*
X0116477Y0123004D03*
X0117441Y0123211D03*
X0124882Y0114874D03*
X0108691Y0114874D03*
X0108691Y0096272D03*
X0124882Y0096272D03*
D91*
X0124882Y0096341D03*
X0123573Y0098407D03*
X0110000Y0098407D03*
X0108691Y0096341D03*
X0110000Y0112738D03*
X0108691Y0114805D03*
X0107038Y0116665D03*
X0116477Y0122866D03*
X0116477Y0122935D03*
X0117373Y0122935D03*
X0117373Y0123004D03*
X0126536Y0116665D03*
X0124882Y0114805D03*
X0123573Y0112738D03*
D92*
X0117338Y0122728D03*
X0117338Y0122797D03*
X0116580Y0122591D03*
X0116580Y0122522D03*
X0108657Y0096409D03*
X0124917Y0096409D03*
D93*
X0123298Y0097650D03*
X0126398Y0100750D03*
X0119922Y0100681D03*
X0118337Y0104126D03*
X0124124Y0110396D03*
X0123298Y0113496D03*
X0123229Y0113565D03*
X0112067Y0110396D03*
X0110276Y0113496D03*
X0104971Y0110396D03*
X0102353Y0110396D03*
X0107245Y0100750D03*
X0110276Y0097650D03*
X0133563Y0100750D03*
X0117993Y0124795D03*
X0115788Y0124589D03*
X0115719Y0124657D03*
D94*
X0102353Y0100750D03*
D95*
X0135803Y0100819D03*
X0135803Y0113289D03*
D96*
X0135768Y0113220D03*
X0135768Y0113152D03*
X0135768Y0113083D03*
X0135768Y0113014D03*
X0135768Y0112945D03*
X0135768Y0112876D03*
X0135768Y0112807D03*
X0135768Y0112738D03*
X0135768Y0112669D03*
X0135768Y0112600D03*
X0135768Y0112531D03*
X0135768Y0112463D03*
X0135768Y0112394D03*
X0135768Y0112325D03*
X0135768Y0112256D03*
X0135768Y0112187D03*
X0135768Y0112118D03*
X0135768Y0112049D03*
X0135768Y0111980D03*
X0135768Y0111911D03*
X0135768Y0111843D03*
X0135768Y0111774D03*
X0135768Y0111705D03*
X0135768Y0111636D03*
X0135768Y0111567D03*
X0135768Y0111498D03*
X0135768Y0111429D03*
X0135768Y0111360D03*
X0135768Y0111291D03*
X0135768Y0111222D03*
X0135768Y0111154D03*
X0135768Y0111085D03*
X0135768Y0111016D03*
X0135768Y0110947D03*
X0135768Y0110878D03*
X0135768Y0110809D03*
X0135768Y0110740D03*
X0135768Y0110671D03*
X0135768Y0110602D03*
X0135768Y0110533D03*
X0135768Y0110465D03*
X0135768Y0110396D03*
X0135768Y0110327D03*
X0135768Y0110258D03*
X0135768Y0110189D03*
X0135768Y0108535D03*
X0135768Y0108467D03*
X0135768Y0108398D03*
X0135768Y0108329D03*
X0135768Y0108260D03*
X0135768Y0108191D03*
X0135768Y0108122D03*
X0135768Y0108053D03*
X0135768Y0107984D03*
X0135768Y0107915D03*
X0135768Y0107846D03*
X0135768Y0107778D03*
X0135768Y0107709D03*
X0135768Y0107640D03*
X0135768Y0107571D03*
X0135768Y0107502D03*
X0135768Y0107433D03*
X0135768Y0107364D03*
X0135768Y0107295D03*
X0135768Y0107226D03*
X0135768Y0107157D03*
X0135768Y0107089D03*
X0135768Y0107020D03*
X0135768Y0106951D03*
X0135768Y0106882D03*
X0135768Y0106813D03*
X0135768Y0106744D03*
X0135768Y0106675D03*
X0135768Y0106606D03*
X0135768Y0106537D03*
X0135768Y0106469D03*
X0135768Y0106400D03*
X0135768Y0106331D03*
X0135768Y0106262D03*
X0135768Y0106193D03*
X0135768Y0106124D03*
X0135768Y0106055D03*
X0135768Y0105986D03*
X0135768Y0105917D03*
X0135768Y0105848D03*
X0135768Y0105780D03*
X0135768Y0105711D03*
X0135768Y0105642D03*
X0135768Y0105573D03*
X0135768Y0105504D03*
X0135768Y0105435D03*
X0135768Y0105366D03*
X0135768Y0105297D03*
X0135768Y0105228D03*
X0135768Y0105159D03*
X0135768Y0105091D03*
X0135768Y0105022D03*
X0135768Y0104953D03*
X0135768Y0104884D03*
X0135768Y0104815D03*
X0135768Y0104746D03*
X0135768Y0104677D03*
X0135768Y0104608D03*
X0135768Y0104539D03*
X0135768Y0104470D03*
X0135768Y0104402D03*
X0135768Y0104333D03*
X0135768Y0104264D03*
X0135768Y0104195D03*
X0135768Y0104126D03*
X0135768Y0104057D03*
X0135768Y0103988D03*
X0135768Y0103919D03*
X0135768Y0103850D03*
X0135768Y0103781D03*
X0135768Y0103713D03*
X0135768Y0103644D03*
X0135768Y0103575D03*
X0135768Y0103506D03*
X0135768Y0103437D03*
X0135768Y0103368D03*
X0135768Y0103299D03*
X0135768Y0103230D03*
X0135768Y0103161D03*
X0135768Y0103093D03*
X0135768Y0103024D03*
X0135768Y0102955D03*
X0135768Y0102886D03*
X0135768Y0102817D03*
X0135768Y0102748D03*
X0135768Y0102679D03*
X0135768Y0100957D03*
X0135768Y0100888D03*
D97*
X0134459Y0101026D03*
X0134459Y0110120D03*
D98*
X0134425Y0110051D03*
X0134425Y0101094D03*
D99*
X0125502Y0101094D03*
X0119922Y0101715D03*
X0119922Y0101783D03*
X0119922Y0109362D03*
X0119922Y0109431D03*
X0106349Y0101094D03*
X0120542Y0123142D03*
X0120611Y0123211D03*
X0123160Y0126311D03*
X0123229Y0126380D03*
D100*
X0134390Y0109982D03*
X0134390Y0101163D03*
D101*
X0119922Y0101163D03*
X0119922Y0109982D03*
X0119784Y0122522D03*
X0113790Y0123417D03*
X0113721Y0123486D03*
X0113652Y0123555D03*
X0113583Y0123624D03*
X0113445Y0123831D03*
X0113376Y0123900D03*
X0113170Y0124175D03*
X0113101Y0124244D03*
X0113032Y0124382D03*
X0112963Y0124451D03*
X0112894Y0124520D03*
X0120680Y0127827D03*
X0124124Y0127482D03*
D102*
X0134356Y0109913D03*
X0134356Y0101232D03*
D103*
X0125571Y0101232D03*
X0125571Y0101301D03*
X0119922Y0101852D03*
X0119922Y0101921D03*
X0119922Y0101990D03*
X0119922Y0109156D03*
X0119922Y0109224D03*
X0119922Y0109293D03*
X0106418Y0101301D03*
X0106418Y0101232D03*
X0120680Y0123280D03*
X0120748Y0123348D03*
X0122953Y0126035D03*
X0123022Y0126104D03*
X0124262Y0129411D03*
D104*
X0134322Y0109844D03*
X0134322Y0101370D03*
X0134322Y0101301D03*
D105*
X0119922Y0101301D03*
X0119922Y0109844D03*
X0120060Y0122728D03*
X0123849Y0127138D03*
X0121506Y0128309D03*
X0121369Y0128240D03*
D106*
X0122919Y0125967D03*
X0122850Y0125898D03*
X0120783Y0123417D03*
X0116787Y0118594D03*
X0112515Y0126656D03*
X0112446Y0126724D03*
X0119887Y0102059D03*
X0125606Y0101439D03*
X0125606Y0101370D03*
X0106452Y0101370D03*
X0106452Y0101439D03*
D107*
X0134287Y0101439D03*
X0134287Y0101508D03*
X0134287Y0109707D03*
X0134287Y0109776D03*
D108*
X0125640Y0101577D03*
X0125640Y0101508D03*
X0119922Y0102128D03*
X0119922Y0102197D03*
X0119922Y0102266D03*
X0119922Y0108949D03*
X0119922Y0109018D03*
X0119922Y0109087D03*
X0106487Y0101577D03*
X0106487Y0101508D03*
X0114065Y0117768D03*
X0119508Y0117768D03*
X0120886Y0123486D03*
X0120955Y0123555D03*
X0122747Y0125829D03*
D109*
X0123504Y0126724D03*
X0123573Y0126793D03*
X0112136Y0127000D03*
X0119922Y0109707D03*
X0119922Y0109638D03*
X0119922Y0101508D03*
D110*
X0134253Y0101577D03*
X0134253Y0101646D03*
X0134253Y0109569D03*
X0134253Y0109638D03*
D111*
X0134218Y0109500D03*
X0134218Y0109431D03*
X0134218Y0109362D03*
X0134218Y0101852D03*
X0134218Y0101783D03*
X0134218Y0101715D03*
D112*
X0125709Y0101852D03*
X0125709Y0101921D03*
X0125709Y0101990D03*
X0125709Y0102059D03*
X0125709Y0102128D03*
X0125709Y0102197D03*
X0119922Y0105022D03*
X0119922Y0105091D03*
X0119922Y0105159D03*
X0119922Y0105228D03*
X0119922Y0105297D03*
X0119922Y0105366D03*
X0119922Y0105435D03*
X0119922Y0105504D03*
X0119922Y0105573D03*
X0119922Y0105642D03*
X0119922Y0105711D03*
X0119922Y0105780D03*
X0119922Y0105848D03*
X0119922Y0105917D03*
X0119922Y0105986D03*
X0119922Y0106055D03*
X0119922Y0106124D03*
X0119922Y0106193D03*
X0119922Y0106262D03*
X0119922Y0106331D03*
X0119922Y0106400D03*
X0119922Y0106469D03*
X0119922Y0106537D03*
X0106556Y0102197D03*
X0106556Y0102128D03*
X0106556Y0102059D03*
X0106556Y0101990D03*
X0106556Y0101921D03*
X0106556Y0101852D03*
X0121162Y0123831D03*
X0121231Y0123900D03*
X0121300Y0123969D03*
X0122402Y0125346D03*
X0122471Y0125415D03*
X0122540Y0125484D03*
X0122540Y0125553D03*
X0122609Y0125622D03*
X0112619Y0126518D03*
D113*
X0134184Y0109293D03*
X0134184Y0109224D03*
X0134184Y0109156D03*
X0134184Y0109087D03*
X0134184Y0109018D03*
X0134184Y0102128D03*
X0134184Y0102059D03*
X0134184Y0101990D03*
X0134184Y0101921D03*
D114*
X0134149Y0102197D03*
X0134149Y0102266D03*
X0134149Y0108880D03*
X0134149Y0108949D03*
D115*
X0125744Y0102266D03*
X0106590Y0102266D03*
X0116787Y0116114D03*
X0116787Y0121075D03*
X0121334Y0124037D03*
X0121403Y0124106D03*
X0121472Y0124175D03*
X0122023Y0124864D03*
X0122161Y0125071D03*
X0122230Y0125140D03*
X0122299Y0125209D03*
X0122368Y0125278D03*
X0124021Y0129274D03*
X0112722Y0126449D03*
D116*
X0135424Y0102335D03*
D117*
X0135527Y0102404D03*
D118*
X0135631Y0102472D03*
X0135631Y0108673D03*
D119*
X0135665Y0102541D03*
D120*
X0135734Y0102610D03*
D121*
X0135699Y0108604D03*
D122*
X0120094Y0115219D03*
X0120921Y0117492D03*
X0121748Y0119835D03*
X0114444Y0122728D03*
X0112240Y0125346D03*
X0112171Y0125415D03*
X0111826Y0119835D03*
X0112653Y0117492D03*
X0113480Y0115219D03*
X0115271Y0110396D03*
X0111344Y0109982D03*
X0111344Y0109913D03*
X0111344Y0109844D03*
X0111344Y0109776D03*
X0111344Y0109707D03*
X0111344Y0109638D03*
X0111344Y0109569D03*
X0111344Y0109500D03*
X0111344Y0109431D03*
X0111344Y0109362D03*
X0111344Y0109293D03*
X0111344Y0109224D03*
X0111344Y0109156D03*
X0111344Y0109087D03*
X0111344Y0109018D03*
X0111344Y0108949D03*
X0111344Y0108880D03*
X0111344Y0108811D03*
X0111344Y0108742D03*
X0111344Y0108673D03*
X0099149Y0110396D03*
X0124503Y0127896D03*
X0124572Y0127965D03*
X0125055Y0129756D03*
D123*
X0135596Y0108742D03*
D124*
X0135493Y0108811D03*
D125*
X0121265Y0108880D03*
D126*
X0115271Y0108949D03*
X0115271Y0109018D03*
X0115271Y0109087D03*
X0115271Y0109156D03*
X0115271Y0109224D03*
X0115271Y0109293D03*
X0115271Y0109362D03*
X0115271Y0109431D03*
X0115271Y0109500D03*
X0115271Y0109569D03*
X0115271Y0109638D03*
X0115271Y0109707D03*
X0115271Y0109776D03*
X0115271Y0109844D03*
X0115271Y0109913D03*
X0115271Y0109982D03*
X0115271Y0110051D03*
X0115271Y0110120D03*
X0115271Y0110189D03*
X0115271Y0110258D03*
X0115271Y0110327D03*
X0112033Y0119904D03*
X0119543Y0122384D03*
X0121541Y0119904D03*
X0120025Y0127344D03*
X0124435Y0127827D03*
X0111620Y0127344D03*
X0099149Y0110258D03*
X0099149Y0110189D03*
X0099149Y0110120D03*
X0099149Y0110051D03*
X0099149Y0109982D03*
X0099149Y0109913D03*
X0099149Y0109844D03*
X0099149Y0109776D03*
X0099149Y0109707D03*
X0099149Y0109638D03*
X0099149Y0109569D03*
X0099149Y0109500D03*
X0099149Y0109431D03*
X0099149Y0109362D03*
X0099149Y0109293D03*
X0099149Y0109224D03*
X0099149Y0109156D03*
X0099149Y0109087D03*
X0099149Y0109018D03*
D127*
X0110414Y0110120D03*
X0133563Y0110465D03*
X0114961Y0122246D03*
X0115995Y0124244D03*
X0117786Y0124313D03*
X0117786Y0124382D03*
D128*
X0117614Y0123900D03*
X0117614Y0123831D03*
X0116236Y0123762D03*
X0116236Y0123693D03*
X0107072Y0116941D03*
X0110104Y0113152D03*
X0123470Y0113152D03*
X0126501Y0116941D03*
D129*
X0124882Y0114736D03*
X0117304Y0122659D03*
D130*
X0121403Y0114736D03*
D131*
X0116787Y0115701D03*
D132*
X0116787Y0115976D03*
X0116787Y0118457D03*
X0123401Y0128791D03*
D133*
X0123746Y0129067D03*
X0116787Y0116045D03*
D134*
X0107038Y0116596D03*
X0116546Y0122659D03*
X0116546Y0122728D03*
D135*
X0116167Y0123900D03*
X0116098Y0123969D03*
X0117683Y0124037D03*
X0117683Y0124106D03*
X0126501Y0117010D03*
D136*
X0116752Y0117906D03*
D137*
X0116787Y0117974D03*
D138*
X0116787Y0118388D03*
D139*
X0116787Y0118663D03*
X0119956Y0122659D03*
X0123883Y0127207D03*
X0121265Y0128171D03*
X0121127Y0128102D03*
X0124710Y0129618D03*
X0111964Y0127138D03*
D140*
X0116787Y0120248D03*
D141*
X0116511Y0122797D03*
X0117338Y0122866D03*
D142*
X0121506Y0124244D03*
X0121575Y0124313D03*
X0121644Y0124382D03*
X0121713Y0124451D03*
X0121713Y0124520D03*
X0121782Y0124589D03*
X0121851Y0124657D03*
X0121920Y0124726D03*
X0121989Y0124795D03*
X0122058Y0124933D03*
X0122126Y0125002D03*
D143*
X0122643Y0125691D03*
D144*
X0118923Y0126242D03*
D145*
X0122953Y0128378D03*
D146*
X0123022Y0128447D03*
D147*
X0123160Y0128585D03*
D148*
X0123229Y0128654D03*
D149*
X0123298Y0128722D03*
D150*
X0123539Y0128929D03*
D151*
X0123918Y0129205D03*
D152*
X0088745Y0099933D03*
X0074445Y0101233D03*
X0074345Y0101433D03*
X0074345Y0101533D03*
X0074245Y0101633D03*
X0074245Y0101733D03*
X0074245Y0101833D03*
X0074145Y0101933D03*
X0074145Y0102033D03*
X0074145Y0102133D03*
X0074145Y0102233D03*
X0104745Y0086533D03*
X0150445Y0063733D03*
D153*
X0154445Y0066033D03*
X0145145Y0072533D03*
X0145345Y0076833D03*
X0145445Y0076933D03*
X0154445Y0076833D03*
X0163145Y0084533D03*
X0140145Y0070733D03*
X0140045Y0070833D03*
X0140045Y0065733D03*
X0137445Y0063733D03*
X0123345Y0066033D03*
X0130645Y0077033D03*
X0130745Y0077133D03*
X0114645Y0076233D03*
X0105045Y0077033D03*
X0098745Y0076833D03*
X0089745Y0076933D03*
X0089445Y0072533D03*
X0084045Y0076033D03*
X0077345Y0079233D03*
X0097945Y0082933D03*
X0107945Y0085233D03*
X0113845Y0083433D03*
X0097045Y0092633D03*
X0096945Y0092733D03*
X0087445Y0101733D03*
X0098745Y0065933D03*
X0098645Y0065833D03*
D154*
X0094795Y0063733D03*
X0090795Y0077533D03*
X0083295Y0076733D03*
X0081195Y0077433D03*
X0100495Y0088233D03*
X0104995Y0086433D03*
X0113895Y0076933D03*
X0146495Y0077533D03*
X0088695Y0100033D03*
X0088595Y0100133D03*
D155*
X0087245Y0102033D03*
X0087145Y0102133D03*
X0096645Y0093133D03*
X0096745Y0093033D03*
X0103245Y0088133D03*
X0103345Y0088033D03*
X0084245Y0077233D03*
X0084245Y0075833D03*
X0084245Y0075733D03*
X0084245Y0075633D03*
X0084245Y0075533D03*
X0084245Y0075433D03*
X0084245Y0075333D03*
X0084245Y0075233D03*
X0084245Y0075133D03*
X0084245Y0075033D03*
X0084245Y0074933D03*
X0084245Y0074833D03*
X0084245Y0074733D03*
X0084245Y0074633D03*
X0084245Y0074533D03*
X0084245Y0074433D03*
X0084245Y0074333D03*
X0084245Y0074233D03*
X0084245Y0074133D03*
X0084245Y0074033D03*
X0084245Y0073933D03*
X0084245Y0073833D03*
X0084245Y0073733D03*
X0084245Y0073633D03*
X0084245Y0073533D03*
X0084245Y0073433D03*
X0084245Y0073333D03*
X0084245Y0073233D03*
X0084245Y0073133D03*
X0084245Y0073033D03*
X0084245Y0072933D03*
X0084245Y0072833D03*
X0084245Y0072733D03*
X0084245Y0072633D03*
X0084245Y0072533D03*
X0084245Y0072433D03*
X0084245Y0072333D03*
X0084245Y0072233D03*
X0084245Y0072133D03*
X0084245Y0072033D03*
X0084245Y0071933D03*
X0084245Y0071833D03*
X0084245Y0071733D03*
X0084245Y0071633D03*
X0084245Y0071533D03*
X0084245Y0071433D03*
X0084245Y0071333D03*
X0084245Y0071233D03*
X0084245Y0071133D03*
X0084245Y0071033D03*
X0084245Y0070933D03*
X0084245Y0070833D03*
X0084245Y0070733D03*
X0084245Y0070633D03*
X0084245Y0070533D03*
X0084245Y0070433D03*
X0084245Y0070333D03*
X0084245Y0070233D03*
X0084245Y0070133D03*
X0084245Y0070033D03*
X0084245Y0069933D03*
X0084245Y0069833D03*
X0084245Y0069733D03*
X0084245Y0069633D03*
X0084245Y0069533D03*
X0084245Y0069433D03*
X0084245Y0069333D03*
X0084245Y0069233D03*
X0084245Y0069133D03*
X0084245Y0069033D03*
X0084245Y0068933D03*
X0084245Y0068833D03*
X0084245Y0068733D03*
X0084245Y0068633D03*
X0084245Y0068533D03*
X0084245Y0068433D03*
X0084245Y0068333D03*
X0084245Y0068233D03*
X0084245Y0068133D03*
X0084245Y0068033D03*
X0084245Y0067933D03*
X0084245Y0067833D03*
X0084245Y0067733D03*
X0084245Y0067633D03*
X0084245Y0067533D03*
X0084245Y0067433D03*
X0084245Y0067333D03*
X0084245Y0067233D03*
X0084245Y0067133D03*
X0084245Y0067033D03*
X0084245Y0066933D03*
X0084245Y0066833D03*
X0084245Y0066733D03*
X0084245Y0066633D03*
X0084245Y0066533D03*
X0084245Y0066433D03*
X0084245Y0066333D03*
X0084245Y0066233D03*
X0084245Y0066133D03*
X0084245Y0066033D03*
X0084245Y0065933D03*
X0084245Y0065833D03*
X0084245Y0065733D03*
X0084245Y0065633D03*
X0084245Y0065533D03*
X0084245Y0065433D03*
X0084245Y0065333D03*
X0084245Y0065233D03*
X0084245Y0065133D03*
X0084245Y0065033D03*
X0084245Y0064933D03*
X0084245Y0064833D03*
X0084245Y0064733D03*
X0084245Y0064633D03*
X0084245Y0064533D03*
X0084245Y0064433D03*
X0084245Y0064333D03*
X0084245Y0064233D03*
X0084245Y0064133D03*
X0084245Y0064033D03*
X0084245Y0063933D03*
X0084245Y0063833D03*
X0099245Y0066933D03*
X0099345Y0067233D03*
X0099345Y0067333D03*
X0099345Y0067433D03*
X0099445Y0067633D03*
X0099445Y0067733D03*
X0099445Y0067833D03*
X0099445Y0067933D03*
X0099545Y0068033D03*
X0099545Y0068133D03*
X0099545Y0068233D03*
X0099545Y0068333D03*
X0099545Y0068433D03*
X0099545Y0068533D03*
X0099545Y0068633D03*
X0099545Y0068733D03*
X0099645Y0068833D03*
X0099645Y0068933D03*
X0099645Y0069033D03*
X0099645Y0069133D03*
X0099645Y0069233D03*
X0099645Y0069333D03*
X0099645Y0069433D03*
X0099645Y0069533D03*
X0099645Y0069633D03*
X0099645Y0069733D03*
X0099645Y0069833D03*
X0099645Y0069933D03*
X0099645Y0070033D03*
X0099645Y0070133D03*
X0099645Y0070233D03*
X0099645Y0070333D03*
X0099645Y0070433D03*
X0099645Y0072533D03*
X0099645Y0072633D03*
X0099645Y0072733D03*
X0099645Y0072833D03*
X0099645Y0072933D03*
X0099645Y0073033D03*
X0099645Y0073133D03*
X0099645Y0073233D03*
X0099645Y0073333D03*
X0099645Y0073433D03*
X0099645Y0073533D03*
X0099645Y0073633D03*
X0099645Y0073733D03*
X0099645Y0073833D03*
X0099645Y0073933D03*
X0099545Y0074133D03*
X0099545Y0074233D03*
X0099545Y0074333D03*
X0099545Y0074433D03*
X0099545Y0074533D03*
X0099545Y0074633D03*
X0099545Y0074733D03*
X0099445Y0074933D03*
X0099445Y0075033D03*
X0099445Y0075133D03*
X0099445Y0075233D03*
X0099345Y0075433D03*
X0099345Y0075533D03*
X0099245Y0075833D03*
X0104245Y0074933D03*
X0104245Y0074833D03*
X0104245Y0074733D03*
X0104245Y0074633D03*
X0104245Y0074533D03*
X0104245Y0074433D03*
X0104245Y0074333D03*
X0104245Y0074233D03*
X0104245Y0074133D03*
X0104245Y0074033D03*
X0104245Y0073933D03*
X0104245Y0073833D03*
X0104245Y0073733D03*
X0104245Y0073633D03*
X0104245Y0073533D03*
X0104245Y0073433D03*
X0104245Y0073333D03*
X0104245Y0073233D03*
X0104245Y0073133D03*
X0104245Y0073033D03*
X0104245Y0072933D03*
X0104245Y0072833D03*
X0104245Y0072733D03*
X0104245Y0072633D03*
X0104245Y0072533D03*
X0104245Y0072433D03*
X0104245Y0072333D03*
X0104245Y0072233D03*
X0104245Y0072133D03*
X0104245Y0072033D03*
X0104245Y0071933D03*
X0104245Y0071833D03*
X0104245Y0071733D03*
X0104245Y0071633D03*
X0104245Y0071533D03*
X0104245Y0071433D03*
X0104245Y0071333D03*
X0104245Y0071233D03*
X0104245Y0071133D03*
X0104245Y0071033D03*
X0104245Y0070933D03*
X0104245Y0070833D03*
X0104245Y0070733D03*
X0104245Y0070633D03*
X0104245Y0070533D03*
X0104245Y0070433D03*
X0104245Y0070333D03*
X0104245Y0070233D03*
X0104245Y0070133D03*
X0104245Y0070033D03*
X0104245Y0069933D03*
X0104245Y0069833D03*
X0104245Y0069733D03*
X0104245Y0069633D03*
X0104245Y0069533D03*
X0104245Y0069433D03*
X0104245Y0069333D03*
X0104245Y0069233D03*
X0104245Y0069133D03*
X0104245Y0069033D03*
X0104245Y0068933D03*
X0104245Y0068833D03*
X0104245Y0068733D03*
X0104245Y0068633D03*
X0104245Y0068533D03*
X0104245Y0068433D03*
X0104245Y0068333D03*
X0104245Y0068233D03*
X0104245Y0068133D03*
X0104245Y0068033D03*
X0104245Y0067933D03*
X0104245Y0067833D03*
X0104245Y0067733D03*
X0104245Y0067633D03*
X0104245Y0067533D03*
X0104245Y0067433D03*
X0104245Y0067333D03*
X0104245Y0067233D03*
X0104245Y0067133D03*
X0104245Y0067033D03*
X0104245Y0066933D03*
X0104245Y0066833D03*
X0104245Y0066733D03*
X0104245Y0066633D03*
X0104245Y0066533D03*
X0104245Y0066433D03*
X0104245Y0066333D03*
X0104245Y0066233D03*
X0104245Y0066133D03*
X0104245Y0066033D03*
X0104245Y0065933D03*
X0104245Y0065833D03*
X0104245Y0065733D03*
X0104245Y0065633D03*
X0104245Y0065533D03*
X0104245Y0065433D03*
X0104245Y0065333D03*
X0104245Y0065233D03*
X0104245Y0065133D03*
X0104245Y0065033D03*
X0104245Y0064933D03*
X0104245Y0064833D03*
X0104245Y0064733D03*
X0104245Y0064633D03*
X0104245Y0064533D03*
X0104245Y0064433D03*
X0104245Y0064333D03*
X0104245Y0064233D03*
X0104245Y0064133D03*
X0104245Y0064033D03*
X0104245Y0063933D03*
X0104245Y0063833D03*
X0114845Y0063833D03*
X0123845Y0067333D03*
X0123845Y0067433D03*
X0123945Y0067933D03*
X0123945Y0068033D03*
X0123945Y0068133D03*
X0123945Y0068233D03*
X0123945Y0068333D03*
X0130145Y0068333D03*
X0130145Y0068233D03*
X0130145Y0068133D03*
X0130145Y0068033D03*
X0130145Y0067933D03*
X0130145Y0067833D03*
X0130145Y0067733D03*
X0130145Y0067633D03*
X0130145Y0067533D03*
X0130145Y0067433D03*
X0130145Y0067333D03*
X0130145Y0067233D03*
X0130145Y0067133D03*
X0130145Y0067033D03*
X0130145Y0066933D03*
X0130145Y0066833D03*
X0130145Y0065633D03*
X0130145Y0068433D03*
X0130145Y0068533D03*
X0130145Y0068633D03*
X0130145Y0068733D03*
X0130145Y0068833D03*
X0130145Y0068933D03*
X0130145Y0069033D03*
X0130145Y0069133D03*
X0130145Y0069233D03*
X0130145Y0069333D03*
X0130145Y0069433D03*
X0130145Y0069533D03*
X0130145Y0069633D03*
X0130145Y0069733D03*
X0130145Y0069833D03*
X0130145Y0069933D03*
X0130145Y0070033D03*
X0130145Y0070133D03*
X0130145Y0070233D03*
X0130145Y0070333D03*
X0130145Y0070433D03*
X0130145Y0070533D03*
X0130145Y0070633D03*
X0130145Y0070733D03*
X0130145Y0070833D03*
X0130145Y0070933D03*
X0130145Y0071033D03*
X0130145Y0071133D03*
X0130145Y0071233D03*
X0130145Y0071333D03*
X0130145Y0071433D03*
X0130145Y0071533D03*
X0130145Y0071633D03*
X0130145Y0071733D03*
X0130145Y0073033D03*
X0130145Y0073133D03*
X0130145Y0073233D03*
X0130145Y0073333D03*
X0130145Y0073433D03*
X0130145Y0073533D03*
X0130145Y0073633D03*
X0130145Y0073733D03*
X0130145Y0073833D03*
X0130145Y0073933D03*
X0130145Y0074033D03*
X0130145Y0074133D03*
X0130145Y0074233D03*
X0130145Y0074333D03*
X0130145Y0074433D03*
X0130145Y0074533D03*
X0130145Y0074633D03*
X0130145Y0074733D03*
X0130145Y0074833D03*
X0130145Y0074933D03*
X0130145Y0075033D03*
X0130145Y0075133D03*
X0130145Y0075233D03*
X0130145Y0075333D03*
X0130145Y0075433D03*
X0130145Y0075533D03*
X0130145Y0075633D03*
X0130245Y0076033D03*
X0140545Y0069533D03*
X0140545Y0069433D03*
X0140545Y0069333D03*
X0140545Y0069233D03*
X0140545Y0069133D03*
X0140545Y0069033D03*
X0140545Y0068933D03*
X0140545Y0068833D03*
X0140545Y0068733D03*
X0140545Y0068633D03*
X0140545Y0068533D03*
X0140545Y0068433D03*
X0140545Y0068333D03*
X0140545Y0068233D03*
X0140545Y0068133D03*
X0140545Y0068033D03*
X0140545Y0067933D03*
X0140545Y0067833D03*
X0140545Y0067733D03*
X0140545Y0067633D03*
X0140545Y0067533D03*
X0140545Y0067433D03*
X0140545Y0067333D03*
X0140545Y0067233D03*
X0140545Y0067133D03*
X0140545Y0067033D03*
X0144745Y0073633D03*
X0144745Y0073733D03*
X0144745Y0073833D03*
X0144745Y0073933D03*
X0144745Y0074033D03*
X0144745Y0074133D03*
X0144745Y0074233D03*
X0144745Y0074333D03*
X0144845Y0075033D03*
X0144845Y0075133D03*
X0144845Y0075233D03*
X0144845Y0075333D03*
X0144845Y0075433D03*
X0144945Y0075833D03*
X0154945Y0075733D03*
X0155045Y0075433D03*
X0155045Y0075333D03*
X0155045Y0075233D03*
X0155145Y0075033D03*
X0155145Y0074933D03*
X0155145Y0074833D03*
X0155145Y0074733D03*
X0155145Y0074633D03*
X0155245Y0074533D03*
X0155245Y0074433D03*
X0155245Y0074333D03*
X0155245Y0074233D03*
X0155245Y0074133D03*
X0155245Y0074033D03*
X0155245Y0073933D03*
X0155245Y0073833D03*
X0155245Y0073733D03*
X0155345Y0073433D03*
X0155345Y0073333D03*
X0155345Y0073233D03*
X0155345Y0073133D03*
X0155345Y0073033D03*
X0155345Y0072933D03*
X0155345Y0072833D03*
X0155345Y0072733D03*
X0155345Y0072633D03*
X0155345Y0072533D03*
X0155345Y0072433D03*
X0155345Y0072333D03*
X0155345Y0072233D03*
X0155345Y0070533D03*
X0155345Y0070433D03*
X0155345Y0070333D03*
X0155345Y0070233D03*
X0155345Y0070133D03*
X0155345Y0070033D03*
X0155345Y0069933D03*
X0155345Y0069833D03*
X0155345Y0069733D03*
X0155345Y0069633D03*
X0155345Y0069533D03*
X0155345Y0069433D03*
X0155345Y0069333D03*
X0155245Y0069233D03*
X0155245Y0069133D03*
X0155245Y0069033D03*
X0155245Y0068933D03*
X0155245Y0068833D03*
X0155245Y0068733D03*
X0155245Y0068633D03*
X0155245Y0068533D03*
X0155245Y0068433D03*
X0155245Y0068333D03*
X0155145Y0068233D03*
X0155145Y0068133D03*
X0155145Y0068033D03*
X0155145Y0067933D03*
X0155145Y0067833D03*
X0155145Y0067733D03*
X0155045Y0067633D03*
X0155045Y0067533D03*
X0155045Y0067433D03*
X0155045Y0067333D03*
X0154945Y0067133D03*
X0154945Y0067033D03*
X0163645Y0067033D03*
X0163645Y0066933D03*
X0163645Y0066833D03*
X0163645Y0066733D03*
X0163645Y0066633D03*
X0163645Y0066533D03*
X0163645Y0066433D03*
X0163645Y0066333D03*
X0163645Y0066233D03*
X0163645Y0066133D03*
X0163645Y0066033D03*
X0163645Y0065933D03*
X0163645Y0065833D03*
X0163645Y0065733D03*
X0163645Y0065633D03*
X0163645Y0065533D03*
X0163645Y0065433D03*
X0163645Y0065333D03*
X0163645Y0065233D03*
X0163645Y0065133D03*
X0163645Y0065033D03*
X0163645Y0064933D03*
X0163645Y0064833D03*
X0163645Y0064733D03*
X0163645Y0064633D03*
X0163645Y0064533D03*
X0163645Y0064433D03*
X0163645Y0064333D03*
X0163645Y0064233D03*
X0163645Y0064133D03*
X0163645Y0064033D03*
X0163645Y0063933D03*
X0163645Y0063833D03*
X0163645Y0067133D03*
X0163645Y0067233D03*
X0163645Y0067333D03*
X0163645Y0067433D03*
X0163645Y0067533D03*
X0163645Y0067633D03*
X0163645Y0067733D03*
X0163645Y0067833D03*
X0163645Y0067933D03*
X0163645Y0068033D03*
X0163645Y0068133D03*
X0163645Y0068233D03*
X0163645Y0068333D03*
X0163645Y0068433D03*
X0163645Y0068533D03*
X0163645Y0068633D03*
X0163645Y0068733D03*
X0163645Y0068833D03*
X0163645Y0068933D03*
X0163645Y0069033D03*
X0163645Y0069133D03*
X0163645Y0069233D03*
X0163645Y0069333D03*
X0163645Y0069433D03*
X0163645Y0069533D03*
X0163645Y0069633D03*
X0163645Y0069733D03*
X0163645Y0069833D03*
X0163645Y0069933D03*
X0163645Y0070033D03*
X0163645Y0070133D03*
X0163645Y0070233D03*
X0163645Y0070333D03*
X0163645Y0070433D03*
X0163645Y0070533D03*
X0163645Y0070633D03*
X0163645Y0070733D03*
X0163645Y0070833D03*
X0163645Y0070933D03*
X0163645Y0071033D03*
X0163645Y0071133D03*
X0163645Y0071233D03*
X0163645Y0071333D03*
X0163645Y0071433D03*
X0163645Y0071533D03*
X0163645Y0071633D03*
X0163645Y0071733D03*
X0163645Y0071833D03*
X0163645Y0071933D03*
X0163645Y0072033D03*
X0163645Y0072133D03*
X0163645Y0072233D03*
X0163645Y0072333D03*
X0163645Y0072433D03*
X0163645Y0072533D03*
X0163645Y0072633D03*
X0163645Y0072733D03*
X0163645Y0072833D03*
X0163645Y0072933D03*
X0163645Y0073033D03*
X0163645Y0073133D03*
X0163645Y0073233D03*
X0163645Y0073333D03*
X0163645Y0073433D03*
X0163645Y0073533D03*
X0163645Y0073633D03*
X0163645Y0073733D03*
X0163645Y0073833D03*
X0163645Y0073933D03*
X0163645Y0074033D03*
X0163645Y0074133D03*
X0163645Y0074233D03*
X0163645Y0074333D03*
X0163645Y0074433D03*
X0163645Y0074533D03*
X0163645Y0074633D03*
X0163645Y0074733D03*
X0163645Y0074833D03*
X0163645Y0074933D03*
X0163645Y0075033D03*
X0163645Y0075133D03*
X0163645Y0075233D03*
X0163645Y0075333D03*
X0163645Y0075433D03*
X0163645Y0075533D03*
X0163645Y0075633D03*
X0163645Y0075733D03*
X0163645Y0075833D03*
X0163645Y0075933D03*
X0163645Y0076033D03*
X0163645Y0076133D03*
X0163645Y0076233D03*
X0163645Y0076333D03*
X0163645Y0076433D03*
X0163645Y0076533D03*
X0163645Y0076633D03*
X0163645Y0076733D03*
X0163645Y0076833D03*
X0163645Y0076933D03*
X0163645Y0077033D03*
X0163645Y0077133D03*
X0163645Y0077233D03*
X0163645Y0077333D03*
X0163645Y0077433D03*
X0163645Y0079133D03*
X0163645Y0079233D03*
X0163645Y0079333D03*
X0163645Y0079433D03*
X0163645Y0079533D03*
X0163645Y0079633D03*
X0163645Y0079733D03*
X0163645Y0079833D03*
X0163645Y0079933D03*
X0163645Y0080033D03*
X0163645Y0080133D03*
X0163645Y0080233D03*
X0163645Y0080333D03*
X0163645Y0080433D03*
X0163645Y0080533D03*
X0163645Y0080633D03*
X0163645Y0080733D03*
X0163645Y0080833D03*
X0163645Y0080933D03*
X0163645Y0081033D03*
X0163645Y0081133D03*
X0163645Y0081233D03*
X0163645Y0081333D03*
X0163645Y0081433D03*
X0163645Y0081533D03*
X0163645Y0081633D03*
X0163645Y0081733D03*
X0163645Y0081833D03*
X0163645Y0081933D03*
X0163645Y0082033D03*
X0163645Y0082133D03*
X0163645Y0082233D03*
X0163645Y0082333D03*
X0163645Y0082433D03*
X0163645Y0082533D03*
X0163645Y0082633D03*
X0163645Y0082733D03*
X0163645Y0082833D03*
X0163645Y0082933D03*
X0163545Y0083433D03*
X0163545Y0083533D03*
X0104445Y0075833D03*
X0104345Y0075533D03*
X0104345Y0075433D03*
X0089245Y0075533D03*
X0089245Y0075633D03*
X0089245Y0075733D03*
X0089145Y0075133D03*
X0089145Y0075033D03*
X0089145Y0074933D03*
X0089145Y0074833D03*
X0089145Y0074733D03*
X0089145Y0074633D03*
X0089145Y0074533D03*
X0089145Y0074433D03*
X0089145Y0073433D03*
X0089145Y0073333D03*
X0089145Y0073233D03*
D156*
X0108445Y0078833D03*
X0099345Y0089133D03*
X0093345Y0092333D03*
X0084345Y0098733D03*
X0084245Y0098833D03*
X0075545Y0100233D03*
X0131945Y0065733D03*
X0150145Y0063833D03*
D157*
X0137395Y0063833D03*
X0139395Y0071333D03*
X0131495Y0077733D03*
X0114195Y0076633D03*
X0106195Y0085933D03*
X0090395Y0077433D03*
X0083595Y0076433D03*
X0088195Y0100733D03*
X0153595Y0077433D03*
X0160795Y0086333D03*
D158*
X0153845Y0077333D03*
X0145845Y0077333D03*
X0145545Y0072233D03*
X0139645Y0071233D03*
X0139145Y0077633D03*
X0131245Y0077633D03*
X0114345Y0076533D03*
X0108245Y0079233D03*
X0105645Y0077533D03*
X0098145Y0077333D03*
X0083745Y0076333D03*
X0101145Y0087733D03*
X0097445Y0092033D03*
X0087945Y0101133D03*
X0122845Y0065533D03*
X0120145Y0063833D03*
D159*
X0137095Y0064233D03*
X0160295Y0086033D03*
X0099195Y0089233D03*
X0097895Y0089833D03*
X0093195Y0092433D03*
X0084195Y0098933D03*
X0075695Y0100033D03*
X0075595Y0100133D03*
X0077995Y0078633D03*
X0094095Y0079033D03*
X0094495Y0063833D03*
D160*
X0108545Y0078533D03*
X0092945Y0084833D03*
X0096745Y0090733D03*
X0083345Y0100133D03*
X0083245Y0100233D03*
X0079245Y0096433D03*
X0076945Y0098333D03*
X0076845Y0098433D03*
X0078545Y0078133D03*
X0149945Y0063933D03*
X0160245Y0085633D03*
D161*
X0153195Y0077533D03*
X0131195Y0066133D03*
X0137295Y0063933D03*
X0122095Y0065233D03*
X0120595Y0064033D03*
X0097495Y0077533D03*
X0083195Y0076833D03*
X0089695Y0085633D03*
X0083595Y0089033D03*
X0078395Y0094833D03*
X0074495Y0101133D03*
X0074395Y0101333D03*
X0088795Y0099833D03*
X0104595Y0086633D03*
D162*
X0110895Y0084233D03*
X0111195Y0084133D03*
X0123195Y0086133D03*
X0123195Y0086233D03*
X0100395Y0090733D03*
X0095495Y0094933D03*
X0092695Y0097733D03*
X0092595Y0097833D03*
X0085895Y0103533D03*
X0074795Y0096333D03*
X0084995Y0078933D03*
X0129395Y0063933D03*
D163*
X0131045Y0066233D03*
X0122345Y0065333D03*
X0120445Y0063933D03*
X0111945Y0077533D03*
X0108345Y0079133D03*
X0105245Y0086333D03*
X0100645Y0088133D03*
X0088545Y0100233D03*
X0077345Y0079133D03*
D164*
X0089295Y0076033D03*
X0089295Y0075933D03*
X0089295Y0075833D03*
X0089395Y0076133D03*
X0089395Y0076233D03*
X0089195Y0075433D03*
X0089195Y0075333D03*
X0089195Y0075233D03*
X0089095Y0074333D03*
X0089095Y0074233D03*
X0089095Y0074133D03*
X0089095Y0074033D03*
X0089095Y0073933D03*
X0089095Y0073833D03*
X0089095Y0073733D03*
X0089095Y0073633D03*
X0089095Y0073533D03*
X0089195Y0073133D03*
X0089195Y0073033D03*
X0099095Y0076233D03*
X0099195Y0076033D03*
X0099195Y0075933D03*
X0099295Y0075733D03*
X0099295Y0075633D03*
X0099395Y0075333D03*
X0099495Y0074833D03*
X0099595Y0074033D03*
X0099695Y0072433D03*
X0099695Y0072333D03*
X0099695Y0072233D03*
X0099695Y0070533D03*
X0099395Y0067533D03*
X0099295Y0067133D03*
X0099295Y0067033D03*
X0099195Y0066833D03*
X0099195Y0066733D03*
X0099095Y0066633D03*
X0099095Y0066533D03*
X0104295Y0075033D03*
X0104295Y0075133D03*
X0104295Y0075233D03*
X0104295Y0075333D03*
X0104395Y0075633D03*
X0104395Y0075733D03*
X0104495Y0075933D03*
X0104495Y0076033D03*
X0104595Y0076233D03*
X0114795Y0076033D03*
X0114795Y0075933D03*
X0114795Y0075833D03*
X0114795Y0075733D03*
X0114795Y0075633D03*
X0114795Y0075533D03*
X0114795Y0075433D03*
X0114795Y0075333D03*
X0114795Y0075233D03*
X0114795Y0075133D03*
X0114795Y0075033D03*
X0114795Y0074933D03*
X0114795Y0074833D03*
X0114795Y0074733D03*
X0114795Y0074633D03*
X0114795Y0074533D03*
X0114795Y0074433D03*
X0114795Y0074333D03*
X0114795Y0074233D03*
X0114795Y0074133D03*
X0114795Y0074033D03*
X0114795Y0073933D03*
X0114795Y0073833D03*
X0114795Y0073733D03*
X0114795Y0073633D03*
X0114795Y0073533D03*
X0114795Y0073433D03*
X0114795Y0073333D03*
X0114795Y0073233D03*
X0114795Y0073133D03*
X0114795Y0073033D03*
X0114795Y0072933D03*
X0114795Y0072833D03*
X0114795Y0072733D03*
X0114795Y0072633D03*
X0114795Y0072533D03*
X0114795Y0072433D03*
X0114795Y0072333D03*
X0114795Y0072233D03*
X0114795Y0072133D03*
X0114795Y0072033D03*
X0114795Y0071933D03*
X0114795Y0071833D03*
X0114795Y0071733D03*
X0114795Y0071633D03*
X0114795Y0071533D03*
X0114795Y0071433D03*
X0114795Y0071333D03*
X0114795Y0071233D03*
X0114795Y0071133D03*
X0114795Y0071033D03*
X0114795Y0070933D03*
X0114795Y0070833D03*
X0114795Y0070733D03*
X0114795Y0070633D03*
X0114795Y0070533D03*
X0114795Y0070433D03*
X0114795Y0070333D03*
X0114795Y0070233D03*
X0114795Y0070133D03*
X0114795Y0070033D03*
X0114795Y0069933D03*
X0114795Y0069833D03*
X0114795Y0069733D03*
X0114795Y0069633D03*
X0114795Y0069533D03*
X0114795Y0069433D03*
X0114795Y0069333D03*
X0114795Y0069233D03*
X0114795Y0069133D03*
X0114795Y0069033D03*
X0114795Y0068933D03*
X0114795Y0068833D03*
X0114795Y0068733D03*
X0114795Y0068633D03*
X0114795Y0068533D03*
X0114795Y0068433D03*
X0114795Y0068333D03*
X0114795Y0068233D03*
X0114795Y0068133D03*
X0114795Y0068033D03*
X0114795Y0067933D03*
X0114795Y0067833D03*
X0114795Y0067733D03*
X0114795Y0067633D03*
X0114795Y0067533D03*
X0114795Y0067433D03*
X0114795Y0067333D03*
X0114795Y0067233D03*
X0114795Y0067133D03*
X0114795Y0067033D03*
X0114795Y0066933D03*
X0114795Y0066833D03*
X0114795Y0066733D03*
X0114795Y0066633D03*
X0114795Y0066533D03*
X0114795Y0066433D03*
X0114795Y0066333D03*
X0114795Y0066233D03*
X0114795Y0066133D03*
X0114795Y0066033D03*
X0114795Y0065933D03*
X0114795Y0065833D03*
X0114795Y0065733D03*
X0114795Y0065633D03*
X0114795Y0065533D03*
X0114795Y0065433D03*
X0114795Y0065333D03*
X0114795Y0065233D03*
X0114795Y0065133D03*
X0114795Y0065033D03*
X0114795Y0064933D03*
X0114795Y0064833D03*
X0114795Y0064733D03*
X0114795Y0064633D03*
X0114795Y0064533D03*
X0114795Y0064433D03*
X0114795Y0064333D03*
X0114795Y0064233D03*
X0114795Y0064133D03*
X0114795Y0064033D03*
X0114795Y0063933D03*
X0123695Y0066733D03*
X0123695Y0066833D03*
X0123795Y0067033D03*
X0123795Y0067133D03*
X0123795Y0067233D03*
X0123895Y0067533D03*
X0123895Y0067633D03*
X0123895Y0067733D03*
X0123895Y0067833D03*
X0123995Y0068433D03*
X0123995Y0068533D03*
X0123995Y0068633D03*
X0123995Y0068733D03*
X0123995Y0068833D03*
X0123995Y0068933D03*
X0123995Y0069033D03*
X0123995Y0069133D03*
X0123995Y0069233D03*
X0123995Y0069333D03*
X0123995Y0069433D03*
X0123995Y0069533D03*
X0123995Y0069633D03*
X0123995Y0069733D03*
X0123995Y0069833D03*
X0123995Y0069933D03*
X0123995Y0070033D03*
X0123995Y0070133D03*
X0123995Y0070233D03*
X0123995Y0070333D03*
X0123995Y0070433D03*
X0123995Y0070533D03*
X0123995Y0070633D03*
X0123995Y0070733D03*
X0123995Y0070833D03*
X0123995Y0070933D03*
X0123995Y0071033D03*
X0123995Y0071133D03*
X0123995Y0071233D03*
X0123995Y0071333D03*
X0123995Y0071433D03*
X0123995Y0071533D03*
X0123995Y0071633D03*
X0123995Y0071733D03*
X0123995Y0071833D03*
X0123995Y0071933D03*
X0123995Y0072033D03*
X0123995Y0072133D03*
X0123995Y0072233D03*
X0123995Y0072333D03*
X0123995Y0072433D03*
X0123995Y0072533D03*
X0123995Y0072633D03*
X0123995Y0072733D03*
X0123995Y0072833D03*
X0123995Y0072933D03*
X0123995Y0073033D03*
X0123995Y0073133D03*
X0123995Y0073233D03*
X0123995Y0073333D03*
X0123995Y0073433D03*
X0123995Y0073533D03*
X0123995Y0073633D03*
X0123995Y0073733D03*
X0123995Y0073833D03*
X0123995Y0073933D03*
X0123995Y0074033D03*
X0123995Y0074133D03*
X0123995Y0074233D03*
X0123995Y0074333D03*
X0123995Y0074433D03*
X0123995Y0074533D03*
X0123995Y0074633D03*
X0123995Y0074733D03*
X0123995Y0074833D03*
X0123995Y0074933D03*
X0123995Y0075033D03*
X0123995Y0075133D03*
X0123995Y0075233D03*
X0123995Y0075333D03*
X0123995Y0075433D03*
X0123995Y0075533D03*
X0123995Y0075633D03*
X0123995Y0075733D03*
X0123995Y0075833D03*
X0123995Y0075933D03*
X0123995Y0076033D03*
X0123995Y0076133D03*
X0123995Y0076233D03*
X0123995Y0076333D03*
X0123995Y0076433D03*
X0123995Y0076533D03*
X0123995Y0076633D03*
X0123995Y0076733D03*
X0123995Y0076833D03*
X0123995Y0076933D03*
X0123995Y0077033D03*
X0123995Y0077133D03*
X0123995Y0077233D03*
X0123995Y0077333D03*
X0123995Y0077433D03*
X0123995Y0077533D03*
X0123995Y0077633D03*
X0123995Y0077733D03*
X0123995Y0077833D03*
X0123995Y0077933D03*
X0123995Y0078033D03*
X0123995Y0078133D03*
X0123995Y0078233D03*
X0123995Y0078333D03*
X0123995Y0078433D03*
X0123995Y0078533D03*
X0123995Y0078633D03*
X0123995Y0078733D03*
X0123995Y0078833D03*
X0123995Y0078933D03*
X0123995Y0079033D03*
X0123995Y0079133D03*
X0123995Y0079233D03*
X0123995Y0079333D03*
X0123995Y0079433D03*
X0123995Y0079533D03*
X0123995Y0079633D03*
X0123995Y0079733D03*
X0123995Y0079833D03*
X0123995Y0079933D03*
X0123995Y0080033D03*
X0123995Y0080133D03*
X0123995Y0080233D03*
X0123995Y0080333D03*
X0123995Y0080433D03*
X0123995Y0080533D03*
X0123995Y0080633D03*
X0123995Y0080733D03*
X0123995Y0080833D03*
X0123995Y0080933D03*
X0123995Y0081033D03*
X0123995Y0081133D03*
X0127795Y0080933D03*
X0127795Y0082933D03*
X0130395Y0076533D03*
X0130295Y0076333D03*
X0130295Y0076233D03*
X0130295Y0076133D03*
X0130195Y0075933D03*
X0130195Y0075833D03*
X0130195Y0075733D03*
X0140395Y0070233D03*
X0140395Y0070133D03*
X0140495Y0069933D03*
X0140495Y0069833D03*
X0140495Y0069733D03*
X0140495Y0069633D03*
X0140495Y0066933D03*
X0140495Y0066833D03*
X0140495Y0066733D03*
X0140495Y0066633D03*
X0140395Y0066533D03*
X0140395Y0066433D03*
X0144895Y0072933D03*
X0144895Y0073033D03*
X0144795Y0073133D03*
X0144795Y0073233D03*
X0144795Y0073333D03*
X0144795Y0073433D03*
X0144795Y0073533D03*
X0144795Y0074433D03*
X0144795Y0074533D03*
X0144795Y0074633D03*
X0144795Y0074733D03*
X0144795Y0074833D03*
X0144795Y0074933D03*
X0144895Y0075533D03*
X0144895Y0075633D03*
X0144895Y0075733D03*
X0144995Y0075933D03*
X0144995Y0076033D03*
X0144995Y0076133D03*
X0145095Y0076333D03*
X0154795Y0076133D03*
X0154795Y0076033D03*
X0154895Y0075933D03*
X0154895Y0075833D03*
X0154995Y0075633D03*
X0154995Y0075533D03*
X0155095Y0075133D03*
X0155295Y0073633D03*
X0155295Y0073533D03*
X0154995Y0067233D03*
X0154895Y0066933D03*
X0154895Y0066833D03*
X0154795Y0066733D03*
X0154795Y0066633D03*
X0154695Y0066433D03*
X0163595Y0083033D03*
X0163595Y0083133D03*
X0163595Y0083233D03*
X0163595Y0083333D03*
X0163495Y0083633D03*
X0163495Y0083733D03*
X0163495Y0083833D03*
X0163395Y0084033D03*
X0114795Y0084633D03*
X0114795Y0084733D03*
X0114795Y0084833D03*
X0114795Y0084933D03*
X0114795Y0085033D03*
X0114795Y0085133D03*
X0114795Y0085233D03*
X0114795Y0085333D03*
X0114795Y0085433D03*
X0114795Y0085533D03*
X0114795Y0085633D03*
X0114795Y0085733D03*
X0114795Y0085833D03*
X0114795Y0085933D03*
X0114795Y0086033D03*
X0114795Y0086133D03*
X0114795Y0086233D03*
X0114795Y0086333D03*
X0113395Y0083533D03*
X0114795Y0081933D03*
X0114795Y0081833D03*
X0114795Y0081733D03*
X0114795Y0081633D03*
X0114795Y0081533D03*
X0114795Y0081433D03*
X0114795Y0081333D03*
X0114795Y0081233D03*
X0114795Y0081133D03*
X0114795Y0081033D03*
X0114795Y0080933D03*
X0114795Y0080833D03*
X0114795Y0080733D03*
X0114795Y0080633D03*
X0114795Y0080533D03*
X0114795Y0080433D03*
X0114795Y0080333D03*
X0114795Y0080233D03*
X0114795Y0080133D03*
X0114795Y0080033D03*
X0114795Y0079933D03*
X0114795Y0079833D03*
X0114795Y0079733D03*
X0114795Y0079633D03*
X0114795Y0079533D03*
X0114795Y0079433D03*
X0114795Y0079333D03*
X0114795Y0079233D03*
X0114795Y0079133D03*
X0114795Y0079033D03*
X0114795Y0078933D03*
X0114795Y0078833D03*
X0114795Y0078733D03*
X0114795Y0078633D03*
X0114795Y0078533D03*
X0114795Y0078433D03*
X0114795Y0078333D03*
X0114795Y0078233D03*
X0114795Y0078133D03*
X0114795Y0078033D03*
X0114795Y0077933D03*
X0114795Y0077833D03*
X0114795Y0077733D03*
X0114795Y0077633D03*
X0114795Y0077533D03*
X0114795Y0077433D03*
X0108495Y0085033D03*
D165*
X0100295Y0084933D03*
X0092395Y0093233D03*
X0083395Y0100033D03*
X0076795Y0098533D03*
X0076695Y0098633D03*
X0074595Y0107033D03*
X0094295Y0063933D03*
X0161395Y0077533D03*
X0160195Y0085733D03*
D166*
X0161895Y0078133D03*
X0149795Y0078733D03*
X0149795Y0064033D03*
X0136695Y0064733D03*
X0108695Y0078233D03*
X0100395Y0084733D03*
X0097995Y0083433D03*
X0095695Y0091533D03*
X0095595Y0091633D03*
X0091495Y0094133D03*
X0089595Y0095433D03*
X0082295Y0101633D03*
X0082195Y0101733D03*
X0082195Y0101833D03*
X0075195Y0106733D03*
X0077895Y0097133D03*
X0077995Y0097033D03*
X0078395Y0096733D03*
X0078995Y0077633D03*
D167*
X0082945Y0077033D03*
X0090645Y0089633D03*
X0089145Y0099033D03*
X0089145Y0099133D03*
X0074245Y0103033D03*
X0133345Y0065533D03*
X0137245Y0064033D03*
X0120845Y0064233D03*
D168*
X0129445Y0064033D03*
X0123245Y0085933D03*
X0123245Y0086033D03*
X0102445Y0089133D03*
X0102345Y0089233D03*
X0100445Y0090633D03*
X0095545Y0094833D03*
X0092845Y0097533D03*
X0092745Y0097633D03*
X0085945Y0103433D03*
X0082745Y0105233D03*
X0084945Y0078833D03*
D169*
X0084545Y0089533D03*
X0090445Y0088933D03*
X0095845Y0091433D03*
X0091645Y0094033D03*
X0089745Y0095333D03*
X0082445Y0101433D03*
X0082345Y0101533D03*
X0077845Y0097233D03*
X0077745Y0097333D03*
X0094145Y0064033D03*
X0161845Y0078033D03*
D170*
X0162245Y0078533D03*
X0149645Y0064133D03*
X0136545Y0064933D03*
X0105545Y0083133D03*
X0090845Y0094833D03*
X0088845Y0096233D03*
X0078945Y0096033D03*
D171*
X0082345Y0094633D03*
X0084645Y0098333D03*
X0084545Y0098433D03*
X0074445Y0103333D03*
X0093645Y0092033D03*
X0099545Y0088933D03*
X0077745Y0078833D03*
X0121145Y0064733D03*
X0131745Y0065833D03*
X0137145Y0064133D03*
D172*
X0129495Y0064133D03*
X0129495Y0064233D03*
X0140295Y0077433D03*
X0123295Y0085633D03*
X0123295Y0085733D03*
X0123295Y0085833D03*
X0100595Y0090433D03*
X0100495Y0090533D03*
X0095595Y0094733D03*
X0092995Y0097233D03*
X0092895Y0097433D03*
X0086095Y0103333D03*
X0082895Y0105133D03*
X0097795Y0082833D03*
X0084895Y0078733D03*
D173*
X0092495Y0084533D03*
X0104095Y0086833D03*
X0082595Y0094833D03*
X0088895Y0099633D03*
X0074595Y0101033D03*
X0074195Y0102633D03*
X0132995Y0065633D03*
X0120695Y0064133D03*
X0160595Y0086233D03*
D174*
X0162295Y0078633D03*
X0093995Y0064133D03*
X0079095Y0095833D03*
X0078995Y0095933D03*
X0088695Y0096433D03*
X0088795Y0096333D03*
D175*
X0088095Y0097133D03*
X0079895Y0095033D03*
X0079795Y0095133D03*
X0105595Y0083033D03*
X0108895Y0077733D03*
X0093895Y0064233D03*
X0136395Y0065133D03*
X0136195Y0071733D03*
X0149495Y0064233D03*
D176*
X0149395Y0064333D03*
X0149795Y0078133D03*
X0094195Y0078133D03*
X0093795Y0064333D03*
X0087195Y0098033D03*
D177*
X0083895Y0099333D03*
X0080595Y0103333D03*
X0076095Y0099433D03*
X0075995Y0099533D03*
X0092895Y0092733D03*
X0097495Y0090133D03*
X0098895Y0089433D03*
X0092795Y0084733D03*
X0134795Y0079133D03*
X0136995Y0064333D03*
D178*
X0129545Y0064333D03*
X0144445Y0065633D03*
X0111545Y0084033D03*
X0110545Y0084333D03*
X0102545Y0089033D03*
X0095745Y0094533D03*
X0095645Y0094633D03*
X0093045Y0097133D03*
X0092945Y0097333D03*
X0086145Y0103233D03*
X0083045Y0105033D03*
X0123345Y0085533D03*
X0123345Y0085433D03*
X0084845Y0078633D03*
X0088745Y0065633D03*
D179*
X0113495Y0077233D03*
X0103495Y0087133D03*
X0103295Y0087233D03*
X0099995Y0088633D03*
X0089195Y0098833D03*
X0089195Y0098933D03*
X0082495Y0094733D03*
X0120895Y0064333D03*
D180*
X0135545Y0078433D03*
X0149845Y0077833D03*
X0149345Y0064433D03*
X0093645Y0064433D03*
X0081845Y0093233D03*
X0081745Y0093333D03*
X0076545Y0105733D03*
D181*
X0076545Y0098833D03*
X0076645Y0098733D03*
X0090545Y0089133D03*
X0096845Y0090633D03*
X0104045Y0082533D03*
X0078445Y0078233D03*
X0136945Y0064433D03*
X0149745Y0078933D03*
X0160145Y0085833D03*
D182*
X0127795Y0080633D03*
X0123395Y0085133D03*
X0123395Y0085233D03*
X0123395Y0085333D03*
X0111895Y0083933D03*
X0102595Y0088933D03*
X0100795Y0090233D03*
X0100695Y0090333D03*
X0095795Y0094433D03*
X0093195Y0096933D03*
X0093095Y0097033D03*
X0084795Y0078533D03*
X0129595Y0064433D03*
D183*
X0133695Y0065433D03*
X0120995Y0064433D03*
X0146495Y0065333D03*
X0102895Y0087433D03*
X0099795Y0088733D03*
X0097995Y0083133D03*
X0090695Y0089533D03*
X0089295Y0098533D03*
X0089295Y0098633D03*
X0074295Y0103133D03*
X0077595Y0078933D03*
X0082795Y0077133D03*
D184*
X0094195Y0077633D03*
X0094195Y0077733D03*
X0089995Y0088433D03*
X0082295Y0092833D03*
X0082195Y0092933D03*
X0076695Y0105433D03*
X0123995Y0081533D03*
X0135395Y0078133D03*
X0134395Y0072633D03*
X0149295Y0064533D03*
X0093595Y0064533D03*
D185*
X0078645Y0078033D03*
X0094345Y0085333D03*
X0096445Y0090933D03*
X0084345Y0089433D03*
X0077045Y0098133D03*
X0083045Y0100533D03*
X0083145Y0100433D03*
X0074845Y0106933D03*
X0136845Y0064533D03*
X0160345Y0085433D03*
D186*
X0123445Y0085033D03*
X0123445Y0084933D03*
X0115345Y0084433D03*
X0110245Y0084433D03*
X0100845Y0090133D03*
X0095945Y0094233D03*
X0095845Y0094333D03*
X0093345Y0096733D03*
X0093245Y0096833D03*
X0086345Y0103033D03*
X0086245Y0103133D03*
X0083145Y0104933D03*
X0084745Y0078433D03*
X0084745Y0078333D03*
X0075645Y0077533D03*
X0129645Y0064533D03*
D187*
X0121545Y0065033D03*
X0121045Y0064533D03*
X0113345Y0077333D03*
X0100045Y0085333D03*
X0102645Y0087533D03*
X0083845Y0089133D03*
X0084745Y0098133D03*
X0089345Y0098433D03*
X0089445Y0098333D03*
X0089445Y0098233D03*
X0074345Y0103233D03*
X0090845Y0065333D03*
X0160445Y0086133D03*
D188*
X0149845Y0077633D03*
X0135345Y0077933D03*
X0135345Y0078033D03*
X0149345Y0064633D03*
X0105745Y0082833D03*
X0082545Y0092633D03*
X0082445Y0092733D03*
X0076745Y0105333D03*
D189*
X0082695Y0101033D03*
X0082795Y0100933D03*
X0077495Y0097633D03*
X0077395Y0097733D03*
X0089995Y0095033D03*
X0090095Y0094933D03*
X0091795Y0093833D03*
X0091895Y0093733D03*
X0096095Y0091233D03*
X0078795Y0077833D03*
X0136795Y0064633D03*
X0160495Y0084933D03*
X0160495Y0085033D03*
D190*
X0129695Y0064633D03*
X0123495Y0084633D03*
X0123495Y0084733D03*
X0123495Y0084833D03*
X0102695Y0088833D03*
X0095995Y0094133D03*
X0093395Y0096633D03*
X0083295Y0104833D03*
X0084695Y0078233D03*
D191*
X0102495Y0087633D03*
X0099695Y0088833D03*
X0093695Y0091933D03*
X0089495Y0098133D03*
X0084695Y0098233D03*
X0108395Y0078933D03*
X0121095Y0064633D03*
D192*
X0134495Y0072533D03*
X0135295Y0077833D03*
X0150995Y0070833D03*
X0149395Y0064733D03*
X0093695Y0064633D03*
X0082695Y0092533D03*
X0076895Y0105133D03*
X0076795Y0105233D03*
D193*
X0086445Y0102933D03*
X0086545Y0102833D03*
X0093445Y0096533D03*
X0093545Y0096433D03*
X0096045Y0094033D03*
X0100945Y0090033D03*
X0101045Y0089933D03*
X0102745Y0088733D03*
X0102845Y0088633D03*
X0109945Y0084533D03*
X0112245Y0083833D03*
X0123545Y0084333D03*
X0123545Y0084433D03*
X0123545Y0084533D03*
X0157545Y0084833D03*
X0129745Y0064733D03*
X0084645Y0078133D03*
D194*
X0095345Y0070833D03*
X0093745Y0064733D03*
X0105545Y0082733D03*
X0082945Y0092333D03*
X0082845Y0092433D03*
X0076945Y0104933D03*
X0076945Y0105033D03*
X0149445Y0064833D03*
D195*
X0136645Y0064833D03*
X0108745Y0078133D03*
X0084645Y0089633D03*
X0089445Y0095633D03*
X0089345Y0095733D03*
X0091245Y0094433D03*
X0075345Y0106633D03*
D196*
X0083395Y0104733D03*
X0083495Y0104633D03*
X0083595Y0104533D03*
X0093595Y0096333D03*
X0093695Y0096133D03*
X0096095Y0093933D03*
X0096195Y0093833D03*
X0101095Y0089833D03*
X0084595Y0078033D03*
X0123595Y0084133D03*
X0123595Y0084233D03*
X0127795Y0083133D03*
X0129795Y0064833D03*
D197*
X0121295Y0064933D03*
X0121195Y0064833D03*
X0105195Y0083633D03*
X0100095Y0085233D03*
X0092695Y0084633D03*
X0075195Y0100733D03*
X0073895Y0107333D03*
D198*
X0076995Y0104833D03*
X0083095Y0092233D03*
X0083195Y0092133D03*
X0117095Y0082633D03*
X0134595Y0072433D03*
X0149495Y0064933D03*
X0093795Y0064833D03*
D199*
X0084545Y0077933D03*
X0102945Y0088533D03*
X0101145Y0089733D03*
X0093945Y0095533D03*
X0093845Y0095733D03*
X0093845Y0095833D03*
X0093745Y0095933D03*
X0093745Y0096033D03*
X0093645Y0096233D03*
X0086645Y0102733D03*
X0083745Y0104333D03*
X0083645Y0104433D03*
X0109645Y0084633D03*
X0123645Y0084033D03*
X0123645Y0083933D03*
X0123645Y0083833D03*
X0129845Y0064933D03*
D200*
X0134645Y0072333D03*
X0150845Y0070933D03*
X0149545Y0065033D03*
X0096745Y0085433D03*
X0083445Y0091933D03*
X0083345Y0092033D03*
X0077045Y0104733D03*
X0095245Y0070933D03*
X0093845Y0065033D03*
X0093845Y0064933D03*
D201*
X0100495Y0084533D03*
X0090295Y0088733D03*
X0079395Y0095533D03*
X0079295Y0095633D03*
X0088495Y0096633D03*
X0088595Y0096533D03*
X0075695Y0106433D03*
X0135395Y0078833D03*
X0136495Y0065033D03*
X0162395Y0078733D03*
D202*
X0161095Y0086433D03*
X0127795Y0080733D03*
X0123695Y0083633D03*
X0123695Y0083733D03*
X0112595Y0083733D03*
X0102995Y0088433D03*
X0096295Y0093733D03*
X0094195Y0094933D03*
X0094095Y0095133D03*
X0094095Y0095233D03*
X0093995Y0095333D03*
X0093995Y0095433D03*
X0093895Y0095633D03*
X0086695Y0102633D03*
X0083995Y0103933D03*
X0083895Y0104033D03*
X0083895Y0104133D03*
X0083795Y0104233D03*
X0084495Y0077833D03*
X0084495Y0077733D03*
X0129895Y0065133D03*
X0129895Y0065033D03*
D203*
X0134695Y0072233D03*
X0149595Y0065133D03*
X0100595Y0084133D03*
X0083595Y0091833D03*
X0077095Y0104633D03*
X0093895Y0065133D03*
D204*
X0108395Y0079033D03*
X0103695Y0087033D03*
X0100095Y0088533D03*
X0089095Y0099233D03*
X0088995Y0099433D03*
X0074795Y0100833D03*
X0074195Y0102833D03*
X0074195Y0102933D03*
X0121795Y0065133D03*
X0131395Y0066033D03*
D205*
X0149645Y0065233D03*
X0150745Y0071033D03*
X0095145Y0071033D03*
X0093945Y0065233D03*
X0089845Y0088333D03*
X0083845Y0091633D03*
X0083745Y0091733D03*
X0077245Y0104333D03*
X0077245Y0104433D03*
X0077145Y0104533D03*
D206*
X0087695Y0097533D03*
X0087795Y0097433D03*
X0097995Y0083633D03*
X0100495Y0084433D03*
X0124495Y0081433D03*
X0135495Y0078733D03*
X0136295Y0065233D03*
D207*
X0129945Y0065233D03*
X0144845Y0065533D03*
X0123745Y0083333D03*
X0123745Y0083433D03*
X0123745Y0083533D03*
X0115045Y0084533D03*
X0109345Y0084733D03*
X0096345Y0093633D03*
X0094145Y0095033D03*
X0086845Y0102533D03*
X0084345Y0103333D03*
X0084245Y0103533D03*
X0084145Y0103633D03*
X0084145Y0103733D03*
X0084045Y0103833D03*
X0084445Y0077633D03*
D208*
X0083395Y0076633D03*
X0097995Y0083033D03*
X0105495Y0086233D03*
X0115195Y0083133D03*
X0113995Y0076833D03*
X0097795Y0065333D03*
X0153395Y0065333D03*
X0088495Y0100333D03*
D209*
X0088095Y0100933D03*
X0087995Y0101033D03*
X0097495Y0091933D03*
X0089395Y0085533D03*
X0106695Y0085733D03*
X0089895Y0072233D03*
X0098095Y0065433D03*
X0134195Y0079333D03*
X0139495Y0065333D03*
X0153795Y0065433D03*
D210*
X0134145Y0065333D03*
X0116045Y0082933D03*
X0099445Y0089033D03*
X0093545Y0092133D03*
X0090645Y0089433D03*
X0084445Y0098533D03*
X0075345Y0100533D03*
X0075245Y0100633D03*
D211*
X0084295Y0103433D03*
X0084395Y0103233D03*
X0084495Y0103133D03*
X0084495Y0103033D03*
X0084595Y0102933D03*
X0084595Y0102833D03*
X0084695Y0102733D03*
X0086895Y0102433D03*
X0096395Y0093533D03*
X0096495Y0093433D03*
X0103095Y0088333D03*
X0109095Y0084833D03*
X0108195Y0079333D03*
X0123795Y0083033D03*
X0123795Y0083133D03*
X0123795Y0083233D03*
X0129995Y0065333D03*
X0089195Y0065533D03*
X0084395Y0077533D03*
X0083495Y0088933D03*
D212*
X0097245Y0092333D03*
X0097345Y0092233D03*
X0107145Y0085533D03*
X0114245Y0083333D03*
X0114445Y0076433D03*
X0105545Y0077433D03*
X0098345Y0077233D03*
X0090045Y0077233D03*
X0083845Y0076233D03*
X0089745Y0065433D03*
X0122945Y0065633D03*
X0139645Y0065433D03*
X0145445Y0065433D03*
X0131145Y0077533D03*
X0087845Y0101233D03*
D213*
X0086945Y0102333D03*
X0084945Y0102233D03*
X0084945Y0102133D03*
X0084845Y0102333D03*
X0084845Y0102433D03*
X0084745Y0102533D03*
X0084745Y0102633D03*
X0096545Y0093333D03*
X0103145Y0088233D03*
X0113045Y0083633D03*
X0123845Y0082933D03*
X0123845Y0082833D03*
X0127745Y0083033D03*
X0139745Y0077533D03*
X0130045Y0065433D03*
X0088945Y0085433D03*
X0084345Y0077433D03*
D214*
X0097945Y0077433D03*
X0105945Y0086033D03*
X0100945Y0087933D03*
X0072945Y0107633D03*
X0122545Y0065433D03*
D215*
X0130595Y0066533D03*
X0153995Y0065533D03*
X0153995Y0077233D03*
X0106895Y0085633D03*
X0097395Y0092133D03*
X0090195Y0077333D03*
X0098295Y0065533D03*
D216*
X0098395Y0065633D03*
X0089695Y0072333D03*
X0098495Y0077133D03*
X0105395Y0077333D03*
X0123095Y0065733D03*
X0139795Y0065533D03*
X0139895Y0071033D03*
X0139795Y0071133D03*
X0145395Y0072333D03*
X0145695Y0077233D03*
X0154095Y0077133D03*
X0162895Y0084733D03*
X0130995Y0077433D03*
X0154095Y0065633D03*
X0087795Y0101333D03*
X0087695Y0101433D03*
D217*
X0087095Y0102233D03*
X0096595Y0093233D03*
X0092395Y0084433D03*
X0084295Y0077333D03*
X0108795Y0084933D03*
X0123895Y0082733D03*
X0123895Y0082633D03*
X0127795Y0080833D03*
X0130095Y0065533D03*
D218*
X0123295Y0065933D03*
X0123195Y0065833D03*
X0139895Y0065633D03*
X0139995Y0070933D03*
X0145495Y0077033D03*
X0145595Y0077133D03*
X0154295Y0076933D03*
X0162995Y0084633D03*
X0130895Y0077333D03*
X0130795Y0077233D03*
X0127795Y0081133D03*
X0127795Y0082733D03*
X0107695Y0085333D03*
X0103595Y0087733D03*
X0097095Y0092533D03*
X0087595Y0101633D03*
X0089795Y0077033D03*
X0089595Y0072433D03*
X0098695Y0076933D03*
X0105195Y0077133D03*
X0154295Y0065833D03*
X0154395Y0065933D03*
D219*
X0154245Y0065733D03*
X0145245Y0072433D03*
X0154245Y0077033D03*
X0130445Y0066633D03*
X0114545Y0076333D03*
X0105245Y0077233D03*
X0098545Y0077033D03*
X0089945Y0077133D03*
X0083945Y0076133D03*
X0098545Y0065733D03*
X0127745Y0082633D03*
X0107445Y0085433D03*
X0097145Y0092433D03*
X0087645Y0101533D03*
D220*
X0087395Y0101833D03*
X0096895Y0092833D03*
X0103495Y0087833D03*
X0104995Y0076933D03*
X0104895Y0076833D03*
X0104795Y0076633D03*
X0098895Y0076633D03*
X0098795Y0076733D03*
X0089695Y0076833D03*
X0089595Y0076733D03*
X0089395Y0072633D03*
X0098795Y0066033D03*
X0098895Y0066133D03*
X0123395Y0066133D03*
X0123495Y0066233D03*
X0130295Y0066733D03*
X0140095Y0065833D03*
X0140195Y0065933D03*
X0140195Y0066033D03*
X0140295Y0070433D03*
X0140195Y0070633D03*
X0144995Y0072733D03*
X0145095Y0072633D03*
X0145295Y0076733D03*
X0154495Y0076733D03*
X0154595Y0076533D03*
X0163195Y0084433D03*
X0163295Y0084333D03*
X0154595Y0066233D03*
X0154495Y0066133D03*
X0130595Y0076933D03*
X0127795Y0081033D03*
X0127795Y0082833D03*
D221*
X0134545Y0079233D03*
X0131545Y0065933D03*
X0103045Y0087333D03*
X0089245Y0098733D03*
X0073645Y0107433D03*
D222*
X0072345Y0107733D03*
X0087345Y0101933D03*
X0096845Y0092933D03*
X0103445Y0087933D03*
X0108245Y0085133D03*
X0104845Y0076733D03*
X0104745Y0076533D03*
X0104645Y0076433D03*
X0104645Y0076333D03*
X0104545Y0076133D03*
X0099145Y0076133D03*
X0099045Y0076333D03*
X0099045Y0076433D03*
X0098945Y0076533D03*
X0089545Y0076533D03*
X0089545Y0076633D03*
X0089445Y0076433D03*
X0089445Y0076333D03*
X0084145Y0075933D03*
X0089245Y0072933D03*
X0089245Y0072833D03*
X0089345Y0072733D03*
X0098945Y0066333D03*
X0098945Y0066233D03*
X0099045Y0066433D03*
X0114745Y0076133D03*
X0130345Y0076433D03*
X0130445Y0076633D03*
X0130445Y0076733D03*
X0130545Y0076833D03*
X0140245Y0070533D03*
X0140345Y0070333D03*
X0140445Y0070033D03*
X0140345Y0066333D03*
X0140345Y0066233D03*
X0140245Y0066133D03*
X0144945Y0072833D03*
X0145045Y0076233D03*
X0145145Y0076433D03*
X0145145Y0076533D03*
X0145245Y0076633D03*
X0154545Y0076633D03*
X0154645Y0076433D03*
X0154745Y0076333D03*
X0154745Y0076233D03*
X0163445Y0083933D03*
X0163345Y0084133D03*
X0163345Y0084233D03*
X0154745Y0066533D03*
X0154645Y0066333D03*
X0123745Y0066933D03*
X0123645Y0066633D03*
X0123645Y0066533D03*
X0123545Y0066433D03*
X0123545Y0066333D03*
D223*
X0130895Y0066333D03*
X0114095Y0076733D03*
X0105695Y0086133D03*
X0083495Y0076533D03*
X0081795Y0077233D03*
X0088395Y0100533D03*
X0088295Y0100633D03*
D224*
X0088145Y0100833D03*
X0101045Y0087833D03*
X0106445Y0085833D03*
X0114745Y0083233D03*
X0105845Y0077633D03*
X0130745Y0066433D03*
X0146045Y0077433D03*
X0162645Y0084833D03*
D225*
X0149795Y0078033D03*
X0151395Y0070633D03*
X0105695Y0082933D03*
X0094195Y0078033D03*
X0081295Y0093733D03*
X0081195Y0093833D03*
D226*
X0081345Y0093633D03*
X0076345Y0105933D03*
X0135645Y0078533D03*
X0134145Y0072833D03*
X0149845Y0077933D03*
X0095745Y0070633D03*
D227*
X0095545Y0070733D03*
X0100545Y0084233D03*
X0096745Y0085533D03*
X0082045Y0093033D03*
X0076645Y0105533D03*
X0135445Y0078233D03*
X0149845Y0077733D03*
X0151145Y0070733D03*
D228*
X0150645Y0071133D03*
X0134845Y0072033D03*
X0123545Y0081633D03*
X0095045Y0071133D03*
X0084245Y0091333D03*
X0084145Y0091433D03*
X0077445Y0103933D03*
X0077345Y0104133D03*
D229*
X0077395Y0104033D03*
X0077495Y0103833D03*
X0084395Y0091233D03*
X0134895Y0071933D03*
X0150595Y0071233D03*
D230*
X0150545Y0071333D03*
X0134945Y0071833D03*
X0094945Y0071233D03*
X0084645Y0091033D03*
X0084545Y0091133D03*
X0077545Y0103733D03*
D231*
X0077595Y0103633D03*
X0077595Y0103533D03*
X0077695Y0103433D03*
X0084795Y0090933D03*
X0085095Y0090733D03*
X0100595Y0084033D03*
X0094895Y0071333D03*
X0150495Y0071433D03*
D232*
X0138745Y0071433D03*
X0138445Y0077733D03*
X0149745Y0079133D03*
X0113645Y0077133D03*
X0103945Y0086933D03*
X0100245Y0088433D03*
X0094045Y0079133D03*
X0083045Y0076933D03*
X0080845Y0077533D03*
X0077445Y0079033D03*
X0089045Y0099333D03*
X0088945Y0099533D03*
X0074645Y0100933D03*
X0074145Y0102733D03*
D233*
X0084945Y0090833D03*
X0085245Y0090633D03*
X0094845Y0071433D03*
X0150445Y0071533D03*
D234*
X0137945Y0071533D03*
X0108445Y0078733D03*
X0093045Y0092633D03*
X0084045Y0099133D03*
X0083945Y0099233D03*
X0075945Y0099633D03*
D235*
X0085395Y0090533D03*
X0089695Y0088233D03*
X0094795Y0071533D03*
X0150395Y0071633D03*
D236*
X0137095Y0071633D03*
X0095995Y0091333D03*
X0091695Y0093933D03*
X0089895Y0095133D03*
X0089795Y0095233D03*
X0082595Y0101233D03*
X0082495Y0101333D03*
X0082195Y0101933D03*
X0082195Y0102033D03*
X0077695Y0097433D03*
X0093295Y0085033D03*
X0078895Y0077733D03*
D237*
X0094745Y0071633D03*
X0085845Y0090233D03*
X0085645Y0090333D03*
X0085545Y0090433D03*
X0150345Y0071733D03*
D238*
X0150295Y0071833D03*
X0094695Y0071733D03*
X0085995Y0090133D03*
D239*
X0086145Y0090033D03*
X0086445Y0089833D03*
X0094645Y0071933D03*
X0094645Y0071833D03*
X0123145Y0081733D03*
X0150245Y0072033D03*
X0150245Y0071933D03*
D240*
X0150195Y0072133D03*
X0100595Y0083933D03*
X0086595Y0089733D03*
X0086295Y0089933D03*
X0094595Y0072133D03*
X0094595Y0072033D03*
D241*
X0083995Y0091533D03*
X0077295Y0104233D03*
X0134795Y0072133D03*
D242*
X0134295Y0072733D03*
X0135495Y0078333D03*
X0094195Y0077833D03*
X0081995Y0093133D03*
X0076595Y0105633D03*
D243*
X0087345Y0097933D03*
X0087445Y0097833D03*
X0080845Y0094133D03*
X0133945Y0072933D03*
D244*
X0113745Y0077033D03*
X0111545Y0077633D03*
X0115745Y0083033D03*
X0104345Y0086733D03*
X0100345Y0088333D03*
X0088845Y0099733D03*
X0074145Y0102333D03*
X0074145Y0102433D03*
X0074145Y0102533D03*
X0073345Y0107533D03*
D245*
X0088445Y0100433D03*
X0100745Y0088033D03*
X0112245Y0077433D03*
X0081545Y0077333D03*
D246*
X0097995Y0083333D03*
X0096595Y0090833D03*
X0092295Y0093333D03*
X0092195Y0093433D03*
X0083195Y0100333D03*
X0076995Y0098233D03*
X0160295Y0085533D03*
X0161495Y0077633D03*
D247*
X0161595Y0077733D03*
X0160395Y0085233D03*
X0160395Y0085333D03*
X0134995Y0079033D03*
X0108595Y0078433D03*
X0105395Y0083333D03*
X0093995Y0085233D03*
X0090495Y0089033D03*
X0092095Y0093533D03*
X0091995Y0093633D03*
X0082995Y0100633D03*
X0082895Y0100733D03*
X0078895Y0096533D03*
X0077195Y0098033D03*
D248*
X0077245Y0097933D03*
X0077345Y0097833D03*
X0081745Y0094333D03*
X0082845Y0100833D03*
X0096245Y0091133D03*
X0096345Y0091033D03*
X0093645Y0085133D03*
X0100345Y0084833D03*
X0094145Y0078833D03*
X0078745Y0077933D03*
X0149745Y0078833D03*
X0161645Y0077833D03*
X0160445Y0085133D03*
D249*
X0162495Y0078833D03*
X0149795Y0078433D03*
X0108895Y0077833D03*
X0080095Y0094933D03*
X0079695Y0095233D03*
X0079595Y0095333D03*
X0079495Y0095433D03*
X0088295Y0096833D03*
X0075795Y0106333D03*
D250*
X0075045Y0106833D03*
X0082645Y0101133D03*
X0078645Y0096633D03*
X0077545Y0097533D03*
X0092945Y0084933D03*
X0108645Y0078333D03*
X0161745Y0077933D03*
D251*
X0149845Y0078533D03*
X0108845Y0077933D03*
X0097945Y0083533D03*
X0094145Y0078533D03*
X0079245Y0095733D03*
D252*
X0081495Y0093533D03*
X0081595Y0093433D03*
X0076495Y0105833D03*
X0094195Y0077933D03*
D253*
X0108795Y0078033D03*
X0090895Y0094733D03*
X0088995Y0096133D03*
X0078795Y0096133D03*
X0078695Y0096233D03*
X0075495Y0106533D03*
X0149795Y0078633D03*
D254*
X0161995Y0078233D03*
X0135195Y0078933D03*
X0125195Y0081333D03*
X0095295Y0091833D03*
X0091295Y0094333D03*
X0078195Y0096833D03*
D255*
X0094145Y0078233D03*
X0149845Y0078233D03*
D256*
X0162095Y0078333D03*
X0090395Y0088833D03*
X0091095Y0094533D03*
X0089295Y0095833D03*
D257*
X0087945Y0097233D03*
X0087845Y0097333D03*
X0090245Y0088633D03*
X0094145Y0078333D03*
X0075945Y0106233D03*
X0149845Y0078333D03*
X0162645Y0079033D03*
D258*
X0108545Y0078633D03*
X0098645Y0089633D03*
X0097145Y0090433D03*
X0084245Y0089333D03*
X0083645Y0099733D03*
X0076445Y0098933D03*
X0078345Y0078333D03*
D259*
X0094145Y0078633D03*
X0100445Y0084633D03*
X0091045Y0094633D03*
X0089145Y0095933D03*
X0089045Y0096033D03*
X0081445Y0094233D03*
X0162145Y0078433D03*
D260*
X0162545Y0078933D03*
X0094145Y0078433D03*
X0088245Y0096933D03*
X0088145Y0097033D03*
D261*
X0083845Y0099433D03*
X0079645Y0096333D03*
X0076245Y0099233D03*
X0076145Y0099333D03*
X0097245Y0090333D03*
X0097345Y0090233D03*
X0100245Y0085033D03*
X0078245Y0078433D03*
X0126045Y0081233D03*
D262*
X0105295Y0083533D03*
X0097995Y0083233D03*
X0099095Y0089333D03*
X0097595Y0090033D03*
X0093095Y0092533D03*
X0081395Y0102133D03*
X0081395Y0102233D03*
X0081295Y0102333D03*
X0081295Y0102433D03*
X0080795Y0103133D03*
X0080695Y0103233D03*
X0075895Y0099733D03*
X0075795Y0099833D03*
X0078095Y0078533D03*
D263*
X0090145Y0088533D03*
X0096845Y0085633D03*
X0100545Y0084333D03*
X0116045Y0082733D03*
X0135645Y0078633D03*
X0081045Y0093933D03*
X0080945Y0094033D03*
X0076245Y0106033D03*
D264*
X0078145Y0096933D03*
X0089545Y0095533D03*
X0091445Y0094233D03*
X0095445Y0091733D03*
X0105445Y0083233D03*
X0115845Y0082833D03*
X0094145Y0078733D03*
D265*
X0077895Y0078733D03*
X0097995Y0089733D03*
X0093395Y0092233D03*
X0084395Y0098633D03*
X0075495Y0100333D03*
X0075395Y0100433D03*
D266*
X0083495Y0099933D03*
X0083595Y0099833D03*
X0081995Y0094433D03*
X0092495Y0093133D03*
X0092595Y0093033D03*
X0096995Y0090533D03*
X0105295Y0083433D03*
X0094095Y0078933D03*
D267*
X0100145Y0085133D03*
X0097745Y0089933D03*
X0090645Y0089333D03*
X0084045Y0089233D03*
X0082245Y0094533D03*
X0084145Y0099033D03*
X0081245Y0102533D03*
X0081145Y0102633D03*
X0081145Y0102733D03*
X0081045Y0102833D03*
X0080945Y0102933D03*
X0080945Y0103033D03*
X0075745Y0099933D03*
X0074145Y0107233D03*
X0149745Y0079033D03*
D268*
X0122745Y0081833D03*
X0089545Y0088033D03*
D269*
X0092395Y0086633D03*
X0092595Y0086533D03*
X0092795Y0086433D03*
X0100595Y0083733D03*
X0122395Y0081933D03*
D270*
X0121495Y0082033D03*
X0121495Y0082133D03*
X0121495Y0082233D03*
D271*
X0121195Y0082333D03*
D272*
X0120895Y0082433D03*
D273*
X0120645Y0082533D03*
D274*
X0104595Y0082633D03*
X0087595Y0097633D03*
X0087495Y0097733D03*
X0076095Y0106133D03*
D275*
X0089795Y0087933D03*
X0100595Y0083833D03*
D276*
X0094395Y0085733D03*
D277*
X0094145Y0085833D03*
X0093945Y0085933D03*
D278*
X0090595Y0089233D03*
X0092795Y0092833D03*
X0092695Y0092933D03*
X0098795Y0089533D03*
X0083795Y0099533D03*
X0083695Y0099633D03*
X0076395Y0099033D03*
X0076295Y0099133D03*
X0074395Y0107133D03*
X0160195Y0085933D03*
D279*
X0093695Y0086033D03*
X0093495Y0086133D03*
D280*
X0093245Y0086233D03*
X0093045Y0086333D03*
D281*
X0092145Y0086733D03*
X0091945Y0086833D03*
X0091745Y0086933D03*
D282*
X0091495Y0087033D03*
D283*
X0091345Y0087133D03*
X0091145Y0087233D03*
X0090945Y0087333D03*
D284*
X0090695Y0087433D03*
D285*
X0090545Y0087533D03*
X0090345Y0087633D03*
X0090145Y0087733D03*
X0089945Y0087833D03*
D286*
X0089395Y0088133D03*
D287*
X0088445Y0096733D03*
M02*
