G75*
%MOIN*%
%OFA0B0*%
%FSLAX25Y25*%
%IPPOS*%
%LPD*%
%AMOC8*
5,1,8,0,0,1.08239X$1,22.5*
%
%ADD10C,0.00000*%
D10*
X0049095Y0045933D02*
X0289095Y0045933D01*
X0284174Y0055933D02*
X0284176Y0056073D01*
X0284182Y0056213D01*
X0284192Y0056352D01*
X0284206Y0056491D01*
X0284224Y0056630D01*
X0284245Y0056768D01*
X0284271Y0056906D01*
X0284301Y0057043D01*
X0284334Y0057178D01*
X0284372Y0057313D01*
X0284413Y0057447D01*
X0284458Y0057580D01*
X0284506Y0057711D01*
X0284559Y0057840D01*
X0284615Y0057969D01*
X0284674Y0058095D01*
X0284738Y0058220D01*
X0284804Y0058343D01*
X0284875Y0058464D01*
X0284948Y0058583D01*
X0285025Y0058700D01*
X0285106Y0058814D01*
X0285189Y0058926D01*
X0285276Y0059036D01*
X0285366Y0059144D01*
X0285458Y0059248D01*
X0285554Y0059350D01*
X0285653Y0059450D01*
X0285754Y0059546D01*
X0285858Y0059640D01*
X0285965Y0059730D01*
X0286074Y0059817D01*
X0286186Y0059902D01*
X0286300Y0059983D01*
X0286416Y0060061D01*
X0286534Y0060135D01*
X0286655Y0060206D01*
X0286777Y0060274D01*
X0286902Y0060338D01*
X0287028Y0060399D01*
X0287155Y0060456D01*
X0287285Y0060509D01*
X0287416Y0060559D01*
X0287548Y0060604D01*
X0287681Y0060647D01*
X0287816Y0060685D01*
X0287951Y0060719D01*
X0288088Y0060750D01*
X0288225Y0060777D01*
X0288363Y0060799D01*
X0288502Y0060818D01*
X0288641Y0060833D01*
X0288780Y0060844D01*
X0288920Y0060851D01*
X0289060Y0060854D01*
X0289200Y0060853D01*
X0289340Y0060848D01*
X0289479Y0060839D01*
X0289619Y0060826D01*
X0289758Y0060809D01*
X0289896Y0060788D01*
X0290034Y0060764D01*
X0290171Y0060735D01*
X0290307Y0060703D01*
X0290442Y0060666D01*
X0290576Y0060626D01*
X0290709Y0060582D01*
X0290840Y0060534D01*
X0290970Y0060483D01*
X0291099Y0060428D01*
X0291226Y0060369D01*
X0291351Y0060306D01*
X0291474Y0060241D01*
X0291596Y0060171D01*
X0291715Y0060098D01*
X0291833Y0060022D01*
X0291948Y0059943D01*
X0292061Y0059860D01*
X0292171Y0059774D01*
X0292279Y0059685D01*
X0292384Y0059593D01*
X0292487Y0059498D01*
X0292587Y0059400D01*
X0292684Y0059300D01*
X0292778Y0059196D01*
X0292870Y0059090D01*
X0292958Y0058982D01*
X0293043Y0058871D01*
X0293125Y0058757D01*
X0293204Y0058641D01*
X0293279Y0058524D01*
X0293351Y0058404D01*
X0293419Y0058282D01*
X0293484Y0058158D01*
X0293546Y0058032D01*
X0293604Y0057905D01*
X0293658Y0057776D01*
X0293709Y0057645D01*
X0293755Y0057513D01*
X0293798Y0057380D01*
X0293838Y0057246D01*
X0293873Y0057111D01*
X0293905Y0056974D01*
X0293932Y0056837D01*
X0293956Y0056699D01*
X0293976Y0056561D01*
X0293992Y0056422D01*
X0294004Y0056282D01*
X0294012Y0056143D01*
X0294016Y0056003D01*
X0294016Y0055863D01*
X0294012Y0055723D01*
X0294004Y0055584D01*
X0293992Y0055444D01*
X0293976Y0055305D01*
X0293956Y0055167D01*
X0293932Y0055029D01*
X0293905Y0054892D01*
X0293873Y0054755D01*
X0293838Y0054620D01*
X0293798Y0054486D01*
X0293755Y0054353D01*
X0293709Y0054221D01*
X0293658Y0054090D01*
X0293604Y0053961D01*
X0293546Y0053834D01*
X0293484Y0053708D01*
X0293419Y0053584D01*
X0293351Y0053462D01*
X0293279Y0053342D01*
X0293204Y0053225D01*
X0293125Y0053109D01*
X0293043Y0052995D01*
X0292958Y0052884D01*
X0292870Y0052776D01*
X0292778Y0052670D01*
X0292684Y0052566D01*
X0292587Y0052466D01*
X0292487Y0052368D01*
X0292384Y0052273D01*
X0292279Y0052181D01*
X0292171Y0052092D01*
X0292061Y0052006D01*
X0291948Y0051923D01*
X0291833Y0051844D01*
X0291715Y0051768D01*
X0291596Y0051695D01*
X0291474Y0051625D01*
X0291351Y0051560D01*
X0291226Y0051497D01*
X0291099Y0051438D01*
X0290970Y0051383D01*
X0290840Y0051332D01*
X0290709Y0051284D01*
X0290576Y0051240D01*
X0290442Y0051200D01*
X0290307Y0051163D01*
X0290171Y0051131D01*
X0290034Y0051102D01*
X0289896Y0051078D01*
X0289758Y0051057D01*
X0289619Y0051040D01*
X0289479Y0051027D01*
X0289340Y0051018D01*
X0289200Y0051013D01*
X0289060Y0051012D01*
X0288920Y0051015D01*
X0288780Y0051022D01*
X0288641Y0051033D01*
X0288502Y0051048D01*
X0288363Y0051067D01*
X0288225Y0051089D01*
X0288088Y0051116D01*
X0287951Y0051147D01*
X0287816Y0051181D01*
X0287681Y0051219D01*
X0287548Y0051262D01*
X0287416Y0051307D01*
X0287285Y0051357D01*
X0287155Y0051410D01*
X0287028Y0051467D01*
X0286902Y0051528D01*
X0286777Y0051592D01*
X0286655Y0051660D01*
X0286534Y0051731D01*
X0286416Y0051805D01*
X0286300Y0051883D01*
X0286186Y0051964D01*
X0286074Y0052049D01*
X0285965Y0052136D01*
X0285858Y0052226D01*
X0285754Y0052320D01*
X0285653Y0052416D01*
X0285554Y0052516D01*
X0285458Y0052618D01*
X0285366Y0052722D01*
X0285276Y0052830D01*
X0285189Y0052940D01*
X0285106Y0053052D01*
X0285025Y0053166D01*
X0284948Y0053283D01*
X0284875Y0053402D01*
X0284804Y0053523D01*
X0284738Y0053646D01*
X0284674Y0053771D01*
X0284615Y0053897D01*
X0284559Y0054026D01*
X0284506Y0054155D01*
X0284458Y0054286D01*
X0284413Y0054419D01*
X0284372Y0054553D01*
X0284334Y0054688D01*
X0284301Y0054823D01*
X0284271Y0054960D01*
X0284245Y0055098D01*
X0284224Y0055236D01*
X0284206Y0055375D01*
X0284192Y0055514D01*
X0284182Y0055653D01*
X0284176Y0055793D01*
X0284174Y0055933D01*
X0289095Y0045933D02*
X0289337Y0045936D01*
X0289578Y0045945D01*
X0289819Y0045959D01*
X0290060Y0045980D01*
X0290300Y0046006D01*
X0290540Y0046038D01*
X0290779Y0046076D01*
X0291016Y0046119D01*
X0291253Y0046169D01*
X0291488Y0046224D01*
X0291722Y0046284D01*
X0291954Y0046351D01*
X0292185Y0046422D01*
X0292414Y0046500D01*
X0292641Y0046583D01*
X0292866Y0046671D01*
X0293089Y0046765D01*
X0293309Y0046864D01*
X0293527Y0046969D01*
X0293742Y0047078D01*
X0293955Y0047193D01*
X0294165Y0047313D01*
X0294371Y0047438D01*
X0294575Y0047568D01*
X0294776Y0047703D01*
X0294973Y0047843D01*
X0295167Y0047987D01*
X0295357Y0048136D01*
X0295543Y0048290D01*
X0295726Y0048448D01*
X0295905Y0048610D01*
X0296080Y0048777D01*
X0296251Y0048948D01*
X0296418Y0049123D01*
X0296580Y0049302D01*
X0296738Y0049485D01*
X0296892Y0049671D01*
X0297041Y0049861D01*
X0297185Y0050055D01*
X0297325Y0050252D01*
X0297460Y0050453D01*
X0297590Y0050657D01*
X0297715Y0050863D01*
X0297835Y0051073D01*
X0297950Y0051286D01*
X0298059Y0051501D01*
X0298164Y0051719D01*
X0298263Y0051939D01*
X0298357Y0052162D01*
X0298445Y0052387D01*
X0298528Y0052614D01*
X0298606Y0052843D01*
X0298677Y0053074D01*
X0298744Y0053306D01*
X0298804Y0053540D01*
X0298859Y0053775D01*
X0298909Y0054012D01*
X0298952Y0054249D01*
X0298990Y0054488D01*
X0299022Y0054728D01*
X0299048Y0054968D01*
X0299069Y0055209D01*
X0299083Y0055450D01*
X0299092Y0055691D01*
X0299095Y0055933D01*
X0299095Y0125933D01*
X0284174Y0125933D02*
X0284176Y0126073D01*
X0284182Y0126213D01*
X0284192Y0126352D01*
X0284206Y0126491D01*
X0284224Y0126630D01*
X0284245Y0126768D01*
X0284271Y0126906D01*
X0284301Y0127043D01*
X0284334Y0127178D01*
X0284372Y0127313D01*
X0284413Y0127447D01*
X0284458Y0127580D01*
X0284506Y0127711D01*
X0284559Y0127840D01*
X0284615Y0127969D01*
X0284674Y0128095D01*
X0284738Y0128220D01*
X0284804Y0128343D01*
X0284875Y0128464D01*
X0284948Y0128583D01*
X0285025Y0128700D01*
X0285106Y0128814D01*
X0285189Y0128926D01*
X0285276Y0129036D01*
X0285366Y0129144D01*
X0285458Y0129248D01*
X0285554Y0129350D01*
X0285653Y0129450D01*
X0285754Y0129546D01*
X0285858Y0129640D01*
X0285965Y0129730D01*
X0286074Y0129817D01*
X0286186Y0129902D01*
X0286300Y0129983D01*
X0286416Y0130061D01*
X0286534Y0130135D01*
X0286655Y0130206D01*
X0286777Y0130274D01*
X0286902Y0130338D01*
X0287028Y0130399D01*
X0287155Y0130456D01*
X0287285Y0130509D01*
X0287416Y0130559D01*
X0287548Y0130604D01*
X0287681Y0130647D01*
X0287816Y0130685D01*
X0287951Y0130719D01*
X0288088Y0130750D01*
X0288225Y0130777D01*
X0288363Y0130799D01*
X0288502Y0130818D01*
X0288641Y0130833D01*
X0288780Y0130844D01*
X0288920Y0130851D01*
X0289060Y0130854D01*
X0289200Y0130853D01*
X0289340Y0130848D01*
X0289479Y0130839D01*
X0289619Y0130826D01*
X0289758Y0130809D01*
X0289896Y0130788D01*
X0290034Y0130764D01*
X0290171Y0130735D01*
X0290307Y0130703D01*
X0290442Y0130666D01*
X0290576Y0130626D01*
X0290709Y0130582D01*
X0290840Y0130534D01*
X0290970Y0130483D01*
X0291099Y0130428D01*
X0291226Y0130369D01*
X0291351Y0130306D01*
X0291474Y0130241D01*
X0291596Y0130171D01*
X0291715Y0130098D01*
X0291833Y0130022D01*
X0291948Y0129943D01*
X0292061Y0129860D01*
X0292171Y0129774D01*
X0292279Y0129685D01*
X0292384Y0129593D01*
X0292487Y0129498D01*
X0292587Y0129400D01*
X0292684Y0129300D01*
X0292778Y0129196D01*
X0292870Y0129090D01*
X0292958Y0128982D01*
X0293043Y0128871D01*
X0293125Y0128757D01*
X0293204Y0128641D01*
X0293279Y0128524D01*
X0293351Y0128404D01*
X0293419Y0128282D01*
X0293484Y0128158D01*
X0293546Y0128032D01*
X0293604Y0127905D01*
X0293658Y0127776D01*
X0293709Y0127645D01*
X0293755Y0127513D01*
X0293798Y0127380D01*
X0293838Y0127246D01*
X0293873Y0127111D01*
X0293905Y0126974D01*
X0293932Y0126837D01*
X0293956Y0126699D01*
X0293976Y0126561D01*
X0293992Y0126422D01*
X0294004Y0126282D01*
X0294012Y0126143D01*
X0294016Y0126003D01*
X0294016Y0125863D01*
X0294012Y0125723D01*
X0294004Y0125584D01*
X0293992Y0125444D01*
X0293976Y0125305D01*
X0293956Y0125167D01*
X0293932Y0125029D01*
X0293905Y0124892D01*
X0293873Y0124755D01*
X0293838Y0124620D01*
X0293798Y0124486D01*
X0293755Y0124353D01*
X0293709Y0124221D01*
X0293658Y0124090D01*
X0293604Y0123961D01*
X0293546Y0123834D01*
X0293484Y0123708D01*
X0293419Y0123584D01*
X0293351Y0123462D01*
X0293279Y0123342D01*
X0293204Y0123225D01*
X0293125Y0123109D01*
X0293043Y0122995D01*
X0292958Y0122884D01*
X0292870Y0122776D01*
X0292778Y0122670D01*
X0292684Y0122566D01*
X0292587Y0122466D01*
X0292487Y0122368D01*
X0292384Y0122273D01*
X0292279Y0122181D01*
X0292171Y0122092D01*
X0292061Y0122006D01*
X0291948Y0121923D01*
X0291833Y0121844D01*
X0291715Y0121768D01*
X0291596Y0121695D01*
X0291474Y0121625D01*
X0291351Y0121560D01*
X0291226Y0121497D01*
X0291099Y0121438D01*
X0290970Y0121383D01*
X0290840Y0121332D01*
X0290709Y0121284D01*
X0290576Y0121240D01*
X0290442Y0121200D01*
X0290307Y0121163D01*
X0290171Y0121131D01*
X0290034Y0121102D01*
X0289896Y0121078D01*
X0289758Y0121057D01*
X0289619Y0121040D01*
X0289479Y0121027D01*
X0289340Y0121018D01*
X0289200Y0121013D01*
X0289060Y0121012D01*
X0288920Y0121015D01*
X0288780Y0121022D01*
X0288641Y0121033D01*
X0288502Y0121048D01*
X0288363Y0121067D01*
X0288225Y0121089D01*
X0288088Y0121116D01*
X0287951Y0121147D01*
X0287816Y0121181D01*
X0287681Y0121219D01*
X0287548Y0121262D01*
X0287416Y0121307D01*
X0287285Y0121357D01*
X0287155Y0121410D01*
X0287028Y0121467D01*
X0286902Y0121528D01*
X0286777Y0121592D01*
X0286655Y0121660D01*
X0286534Y0121731D01*
X0286416Y0121805D01*
X0286300Y0121883D01*
X0286186Y0121964D01*
X0286074Y0122049D01*
X0285965Y0122136D01*
X0285858Y0122226D01*
X0285754Y0122320D01*
X0285653Y0122416D01*
X0285554Y0122516D01*
X0285458Y0122618D01*
X0285366Y0122722D01*
X0285276Y0122830D01*
X0285189Y0122940D01*
X0285106Y0123052D01*
X0285025Y0123166D01*
X0284948Y0123283D01*
X0284875Y0123402D01*
X0284804Y0123523D01*
X0284738Y0123646D01*
X0284674Y0123771D01*
X0284615Y0123897D01*
X0284559Y0124026D01*
X0284506Y0124155D01*
X0284458Y0124286D01*
X0284413Y0124419D01*
X0284372Y0124553D01*
X0284334Y0124688D01*
X0284301Y0124823D01*
X0284271Y0124960D01*
X0284245Y0125098D01*
X0284224Y0125236D01*
X0284206Y0125375D01*
X0284192Y0125514D01*
X0284182Y0125653D01*
X0284176Y0125793D01*
X0284174Y0125933D01*
X0289095Y0135933D02*
X0289337Y0135930D01*
X0289578Y0135921D01*
X0289819Y0135907D01*
X0290060Y0135886D01*
X0290300Y0135860D01*
X0290540Y0135828D01*
X0290779Y0135790D01*
X0291016Y0135747D01*
X0291253Y0135697D01*
X0291488Y0135642D01*
X0291722Y0135582D01*
X0291954Y0135515D01*
X0292185Y0135444D01*
X0292414Y0135366D01*
X0292641Y0135283D01*
X0292866Y0135195D01*
X0293089Y0135101D01*
X0293309Y0135002D01*
X0293527Y0134897D01*
X0293742Y0134788D01*
X0293955Y0134673D01*
X0294165Y0134553D01*
X0294371Y0134428D01*
X0294575Y0134298D01*
X0294776Y0134163D01*
X0294973Y0134023D01*
X0295167Y0133879D01*
X0295357Y0133730D01*
X0295543Y0133576D01*
X0295726Y0133418D01*
X0295905Y0133256D01*
X0296080Y0133089D01*
X0296251Y0132918D01*
X0296418Y0132743D01*
X0296580Y0132564D01*
X0296738Y0132381D01*
X0296892Y0132195D01*
X0297041Y0132005D01*
X0297185Y0131811D01*
X0297325Y0131614D01*
X0297460Y0131413D01*
X0297590Y0131209D01*
X0297715Y0131003D01*
X0297835Y0130793D01*
X0297950Y0130580D01*
X0298059Y0130365D01*
X0298164Y0130147D01*
X0298263Y0129927D01*
X0298357Y0129704D01*
X0298445Y0129479D01*
X0298528Y0129252D01*
X0298606Y0129023D01*
X0298677Y0128792D01*
X0298744Y0128560D01*
X0298804Y0128326D01*
X0298859Y0128091D01*
X0298909Y0127854D01*
X0298952Y0127617D01*
X0298990Y0127378D01*
X0299022Y0127138D01*
X0299048Y0126898D01*
X0299069Y0126657D01*
X0299083Y0126416D01*
X0299092Y0126175D01*
X0299095Y0125933D01*
X0289095Y0135933D02*
X0049095Y0135933D01*
X0048853Y0135930D01*
X0048612Y0135921D01*
X0048371Y0135907D01*
X0048130Y0135886D01*
X0047890Y0135860D01*
X0047650Y0135828D01*
X0047411Y0135790D01*
X0047174Y0135747D01*
X0046937Y0135697D01*
X0046702Y0135642D01*
X0046468Y0135582D01*
X0046236Y0135515D01*
X0046005Y0135444D01*
X0045776Y0135366D01*
X0045549Y0135283D01*
X0045324Y0135195D01*
X0045101Y0135101D01*
X0044881Y0135002D01*
X0044663Y0134897D01*
X0044448Y0134788D01*
X0044235Y0134673D01*
X0044025Y0134553D01*
X0043819Y0134428D01*
X0043615Y0134298D01*
X0043414Y0134163D01*
X0043217Y0134023D01*
X0043023Y0133879D01*
X0042833Y0133730D01*
X0042647Y0133576D01*
X0042464Y0133418D01*
X0042285Y0133256D01*
X0042110Y0133089D01*
X0041939Y0132918D01*
X0041772Y0132743D01*
X0041610Y0132564D01*
X0041452Y0132381D01*
X0041298Y0132195D01*
X0041149Y0132005D01*
X0041005Y0131811D01*
X0040865Y0131614D01*
X0040730Y0131413D01*
X0040600Y0131209D01*
X0040475Y0131003D01*
X0040355Y0130793D01*
X0040240Y0130580D01*
X0040131Y0130365D01*
X0040026Y0130147D01*
X0039927Y0129927D01*
X0039833Y0129704D01*
X0039745Y0129479D01*
X0039662Y0129252D01*
X0039584Y0129023D01*
X0039513Y0128792D01*
X0039446Y0128560D01*
X0039386Y0128326D01*
X0039331Y0128091D01*
X0039281Y0127854D01*
X0039238Y0127617D01*
X0039200Y0127378D01*
X0039168Y0127138D01*
X0039142Y0126898D01*
X0039121Y0126657D01*
X0039107Y0126416D01*
X0039098Y0126175D01*
X0039095Y0125933D01*
X0039095Y0101433D01*
X0041095Y0099433D01*
X0041095Y0082933D01*
X0039095Y0080933D01*
X0039095Y0055933D01*
X0039098Y0055691D01*
X0039107Y0055450D01*
X0039121Y0055209D01*
X0039142Y0054968D01*
X0039168Y0054728D01*
X0039200Y0054488D01*
X0039238Y0054249D01*
X0039281Y0054012D01*
X0039331Y0053775D01*
X0039386Y0053540D01*
X0039446Y0053306D01*
X0039513Y0053074D01*
X0039584Y0052843D01*
X0039662Y0052614D01*
X0039745Y0052387D01*
X0039833Y0052162D01*
X0039927Y0051939D01*
X0040026Y0051719D01*
X0040131Y0051501D01*
X0040240Y0051286D01*
X0040355Y0051073D01*
X0040475Y0050863D01*
X0040600Y0050657D01*
X0040730Y0050453D01*
X0040865Y0050252D01*
X0041005Y0050055D01*
X0041149Y0049861D01*
X0041298Y0049671D01*
X0041452Y0049485D01*
X0041610Y0049302D01*
X0041772Y0049123D01*
X0041939Y0048948D01*
X0042110Y0048777D01*
X0042285Y0048610D01*
X0042464Y0048448D01*
X0042647Y0048290D01*
X0042833Y0048136D01*
X0043023Y0047987D01*
X0043217Y0047843D01*
X0043414Y0047703D01*
X0043615Y0047568D01*
X0043819Y0047438D01*
X0044025Y0047313D01*
X0044235Y0047193D01*
X0044448Y0047078D01*
X0044663Y0046969D01*
X0044881Y0046864D01*
X0045101Y0046765D01*
X0045324Y0046671D01*
X0045549Y0046583D01*
X0045776Y0046500D01*
X0046005Y0046422D01*
X0046236Y0046351D01*
X0046468Y0046284D01*
X0046702Y0046224D01*
X0046937Y0046169D01*
X0047174Y0046119D01*
X0047411Y0046076D01*
X0047650Y0046038D01*
X0047890Y0046006D01*
X0048130Y0045980D01*
X0048371Y0045959D01*
X0048612Y0045945D01*
X0048853Y0045936D01*
X0049095Y0045933D01*
X0047934Y0074988D02*
X0050296Y0074988D01*
X0050373Y0075000D01*
X0050449Y0075015D01*
X0050525Y0075034D01*
X0050599Y0075057D01*
X0050673Y0075083D01*
X0050744Y0075113D01*
X0050815Y0075147D01*
X0050883Y0075183D01*
X0050950Y0075224D01*
X0051015Y0075267D01*
X0051077Y0075313D01*
X0051138Y0075363D01*
X0051195Y0075415D01*
X0051250Y0075471D01*
X0051302Y0075528D01*
X0051352Y0075589D01*
X0051398Y0075651D01*
X0051441Y0075716D01*
X0051481Y0075783D01*
X0051518Y0075852D01*
X0051551Y0075922D01*
X0051581Y0075994D01*
X0051607Y0076068D01*
X0051629Y0076142D01*
X0051648Y0076218D01*
X0051663Y0076294D01*
X0051674Y0076371D01*
X0051682Y0076449D01*
X0051686Y0076527D01*
X0051685Y0076605D01*
X0051682Y0076682D01*
X0051674Y0076760D01*
X0051682Y0076838D01*
X0051685Y0076915D01*
X0051686Y0076993D01*
X0051682Y0077071D01*
X0051674Y0077149D01*
X0051663Y0077226D01*
X0051648Y0077302D01*
X0051629Y0077378D01*
X0051607Y0077452D01*
X0051581Y0077526D01*
X0051551Y0077598D01*
X0051518Y0077668D01*
X0051481Y0077737D01*
X0051441Y0077804D01*
X0051398Y0077869D01*
X0051352Y0077931D01*
X0051302Y0077992D01*
X0051250Y0078049D01*
X0051195Y0078105D01*
X0051138Y0078157D01*
X0051077Y0078207D01*
X0051015Y0078253D01*
X0050950Y0078296D01*
X0050883Y0078337D01*
X0050815Y0078373D01*
X0050744Y0078407D01*
X0050673Y0078437D01*
X0050599Y0078463D01*
X0050525Y0078486D01*
X0050449Y0078505D01*
X0050373Y0078520D01*
X0050296Y0078532D01*
X0050296Y0078531D02*
X0047934Y0078531D01*
X0047934Y0078532D02*
X0047857Y0078520D01*
X0047781Y0078505D01*
X0047705Y0078486D01*
X0047631Y0078463D01*
X0047557Y0078437D01*
X0047486Y0078407D01*
X0047415Y0078373D01*
X0047347Y0078337D01*
X0047280Y0078296D01*
X0047215Y0078253D01*
X0047153Y0078207D01*
X0047092Y0078157D01*
X0047035Y0078105D01*
X0046980Y0078049D01*
X0046928Y0077992D01*
X0046878Y0077931D01*
X0046832Y0077869D01*
X0046789Y0077804D01*
X0046749Y0077737D01*
X0046712Y0077668D01*
X0046679Y0077598D01*
X0046649Y0077526D01*
X0046623Y0077452D01*
X0046601Y0077378D01*
X0046582Y0077302D01*
X0046567Y0077226D01*
X0046556Y0077149D01*
X0046548Y0077071D01*
X0046544Y0076993D01*
X0046545Y0076915D01*
X0046548Y0076838D01*
X0046556Y0076760D01*
X0046548Y0076682D01*
X0046545Y0076605D01*
X0046544Y0076527D01*
X0046548Y0076449D01*
X0046556Y0076371D01*
X0046567Y0076294D01*
X0046582Y0076218D01*
X0046601Y0076142D01*
X0046623Y0076068D01*
X0046649Y0075994D01*
X0046679Y0075922D01*
X0046712Y0075852D01*
X0046749Y0075783D01*
X0046789Y0075716D01*
X0046832Y0075651D01*
X0046878Y0075589D01*
X0046928Y0075528D01*
X0046980Y0075471D01*
X0047035Y0075415D01*
X0047092Y0075363D01*
X0047153Y0075313D01*
X0047215Y0075267D01*
X0047280Y0075224D01*
X0047347Y0075183D01*
X0047415Y0075147D01*
X0047486Y0075113D01*
X0047557Y0075083D01*
X0047631Y0075057D01*
X0047705Y0075034D01*
X0047781Y0075015D01*
X0047857Y0075000D01*
X0047934Y0074988D01*
X0055217Y0083256D02*
X0055219Y0083330D01*
X0055225Y0083404D01*
X0055235Y0083477D01*
X0055249Y0083550D01*
X0055266Y0083622D01*
X0055288Y0083692D01*
X0055313Y0083762D01*
X0055342Y0083830D01*
X0055375Y0083896D01*
X0055411Y0083961D01*
X0055451Y0084023D01*
X0055493Y0084084D01*
X0055539Y0084142D01*
X0055588Y0084197D01*
X0055640Y0084250D01*
X0055695Y0084300D01*
X0055752Y0084346D01*
X0055812Y0084390D01*
X0055874Y0084430D01*
X0055938Y0084467D01*
X0056004Y0084501D01*
X0056072Y0084531D01*
X0056141Y0084557D01*
X0056212Y0084580D01*
X0056283Y0084598D01*
X0056356Y0084613D01*
X0056429Y0084624D01*
X0056503Y0084631D01*
X0056577Y0084634D01*
X0056650Y0084633D01*
X0056724Y0084628D01*
X0056798Y0084619D01*
X0056871Y0084606D01*
X0056943Y0084589D01*
X0057014Y0084569D01*
X0057084Y0084544D01*
X0057152Y0084516D01*
X0057219Y0084485D01*
X0057284Y0084449D01*
X0057347Y0084411D01*
X0057408Y0084369D01*
X0057467Y0084323D01*
X0057523Y0084275D01*
X0057576Y0084224D01*
X0057626Y0084170D01*
X0057674Y0084113D01*
X0057718Y0084054D01*
X0057760Y0083992D01*
X0057798Y0083929D01*
X0057832Y0083863D01*
X0057863Y0083796D01*
X0057890Y0083727D01*
X0057913Y0083657D01*
X0057933Y0083586D01*
X0057949Y0083513D01*
X0057961Y0083440D01*
X0057969Y0083367D01*
X0057973Y0083293D01*
X0057973Y0083219D01*
X0057969Y0083145D01*
X0057961Y0083072D01*
X0057949Y0082999D01*
X0057933Y0082926D01*
X0057913Y0082855D01*
X0057890Y0082785D01*
X0057863Y0082716D01*
X0057832Y0082649D01*
X0057798Y0082583D01*
X0057760Y0082520D01*
X0057718Y0082458D01*
X0057674Y0082399D01*
X0057626Y0082342D01*
X0057576Y0082288D01*
X0057523Y0082237D01*
X0057467Y0082189D01*
X0057408Y0082143D01*
X0057347Y0082101D01*
X0057284Y0082063D01*
X0057219Y0082027D01*
X0057152Y0081996D01*
X0057084Y0081968D01*
X0057014Y0081943D01*
X0056943Y0081923D01*
X0056871Y0081906D01*
X0056798Y0081893D01*
X0056724Y0081884D01*
X0056650Y0081879D01*
X0056577Y0081878D01*
X0056503Y0081881D01*
X0056429Y0081888D01*
X0056356Y0081899D01*
X0056283Y0081914D01*
X0056212Y0081932D01*
X0056141Y0081955D01*
X0056072Y0081981D01*
X0056004Y0082011D01*
X0055938Y0082045D01*
X0055874Y0082082D01*
X0055812Y0082122D01*
X0055752Y0082166D01*
X0055695Y0082212D01*
X0055640Y0082262D01*
X0055588Y0082315D01*
X0055539Y0082370D01*
X0055493Y0082428D01*
X0055451Y0082489D01*
X0055411Y0082551D01*
X0055375Y0082616D01*
X0055342Y0082682D01*
X0055313Y0082750D01*
X0055288Y0082820D01*
X0055266Y0082890D01*
X0055249Y0082962D01*
X0055235Y0083035D01*
X0055225Y0083108D01*
X0055219Y0083182D01*
X0055217Y0083256D01*
X0055217Y0098610D02*
X0055219Y0098684D01*
X0055225Y0098758D01*
X0055235Y0098831D01*
X0055249Y0098904D01*
X0055266Y0098976D01*
X0055288Y0099046D01*
X0055313Y0099116D01*
X0055342Y0099184D01*
X0055375Y0099250D01*
X0055411Y0099315D01*
X0055451Y0099377D01*
X0055493Y0099438D01*
X0055539Y0099496D01*
X0055588Y0099551D01*
X0055640Y0099604D01*
X0055695Y0099654D01*
X0055752Y0099700D01*
X0055812Y0099744D01*
X0055874Y0099784D01*
X0055938Y0099821D01*
X0056004Y0099855D01*
X0056072Y0099885D01*
X0056141Y0099911D01*
X0056212Y0099934D01*
X0056283Y0099952D01*
X0056356Y0099967D01*
X0056429Y0099978D01*
X0056503Y0099985D01*
X0056577Y0099988D01*
X0056650Y0099987D01*
X0056724Y0099982D01*
X0056798Y0099973D01*
X0056871Y0099960D01*
X0056943Y0099943D01*
X0057014Y0099923D01*
X0057084Y0099898D01*
X0057152Y0099870D01*
X0057219Y0099839D01*
X0057284Y0099803D01*
X0057347Y0099765D01*
X0057408Y0099723D01*
X0057467Y0099677D01*
X0057523Y0099629D01*
X0057576Y0099578D01*
X0057626Y0099524D01*
X0057674Y0099467D01*
X0057718Y0099408D01*
X0057760Y0099346D01*
X0057798Y0099283D01*
X0057832Y0099217D01*
X0057863Y0099150D01*
X0057890Y0099081D01*
X0057913Y0099011D01*
X0057933Y0098940D01*
X0057949Y0098867D01*
X0057961Y0098794D01*
X0057969Y0098721D01*
X0057973Y0098647D01*
X0057973Y0098573D01*
X0057969Y0098499D01*
X0057961Y0098426D01*
X0057949Y0098353D01*
X0057933Y0098280D01*
X0057913Y0098209D01*
X0057890Y0098139D01*
X0057863Y0098070D01*
X0057832Y0098003D01*
X0057798Y0097937D01*
X0057760Y0097874D01*
X0057718Y0097812D01*
X0057674Y0097753D01*
X0057626Y0097696D01*
X0057576Y0097642D01*
X0057523Y0097591D01*
X0057467Y0097543D01*
X0057408Y0097497D01*
X0057347Y0097455D01*
X0057284Y0097417D01*
X0057219Y0097381D01*
X0057152Y0097350D01*
X0057084Y0097322D01*
X0057014Y0097297D01*
X0056943Y0097277D01*
X0056871Y0097260D01*
X0056798Y0097247D01*
X0056724Y0097238D01*
X0056650Y0097233D01*
X0056577Y0097232D01*
X0056503Y0097235D01*
X0056429Y0097242D01*
X0056356Y0097253D01*
X0056283Y0097268D01*
X0056212Y0097286D01*
X0056141Y0097309D01*
X0056072Y0097335D01*
X0056004Y0097365D01*
X0055938Y0097399D01*
X0055874Y0097436D01*
X0055812Y0097476D01*
X0055752Y0097520D01*
X0055695Y0097566D01*
X0055640Y0097616D01*
X0055588Y0097669D01*
X0055539Y0097724D01*
X0055493Y0097782D01*
X0055451Y0097843D01*
X0055411Y0097905D01*
X0055375Y0097970D01*
X0055342Y0098036D01*
X0055313Y0098104D01*
X0055288Y0098174D01*
X0055266Y0098244D01*
X0055249Y0098316D01*
X0055235Y0098389D01*
X0055225Y0098462D01*
X0055219Y0098536D01*
X0055217Y0098610D01*
X0050296Y0103335D02*
X0048131Y0103335D01*
X0048130Y0103334D02*
X0048056Y0103331D01*
X0047981Y0103332D01*
X0047906Y0103336D01*
X0047831Y0103345D01*
X0047757Y0103357D01*
X0047684Y0103373D01*
X0047611Y0103392D01*
X0047540Y0103415D01*
X0047470Y0103442D01*
X0047401Y0103472D01*
X0047334Y0103506D01*
X0047269Y0103543D01*
X0047206Y0103583D01*
X0047145Y0103626D01*
X0047086Y0103673D01*
X0047030Y0103722D01*
X0046976Y0103774D01*
X0046925Y0103829D01*
X0046876Y0103887D01*
X0046831Y0103946D01*
X0046789Y0104008D01*
X0046750Y0104072D01*
X0046714Y0104138D01*
X0046681Y0104206D01*
X0046652Y0104275D01*
X0046627Y0104346D01*
X0046605Y0104417D01*
X0046587Y0104490D01*
X0046573Y0104564D01*
X0046562Y0104638D01*
X0046555Y0104713D01*
X0046556Y0104713D02*
X0046556Y0105500D01*
X0046555Y0105500D02*
X0046562Y0105575D01*
X0046573Y0105649D01*
X0046587Y0105723D01*
X0046605Y0105796D01*
X0046627Y0105867D01*
X0046652Y0105938D01*
X0046681Y0106007D01*
X0046714Y0106075D01*
X0046750Y0106141D01*
X0046789Y0106205D01*
X0046831Y0106267D01*
X0046876Y0106326D01*
X0046925Y0106384D01*
X0046976Y0106439D01*
X0047030Y0106491D01*
X0047086Y0106540D01*
X0047145Y0106587D01*
X0047206Y0106630D01*
X0047269Y0106670D01*
X0047334Y0106707D01*
X0047401Y0106741D01*
X0047470Y0106771D01*
X0047540Y0106798D01*
X0047611Y0106821D01*
X0047684Y0106840D01*
X0047757Y0106856D01*
X0047831Y0106868D01*
X0047906Y0106877D01*
X0047981Y0106881D01*
X0048056Y0106882D01*
X0048130Y0106879D01*
X0048131Y0106878D02*
X0050296Y0106878D01*
X0050368Y0106876D01*
X0050440Y0106870D01*
X0050512Y0106861D01*
X0050583Y0106848D01*
X0050653Y0106831D01*
X0050722Y0106811D01*
X0050790Y0106786D01*
X0050856Y0106759D01*
X0050922Y0106728D01*
X0050985Y0106693D01*
X0051047Y0106656D01*
X0051106Y0106615D01*
X0051163Y0106571D01*
X0051218Y0106524D01*
X0051270Y0106474D01*
X0051320Y0106422D01*
X0051367Y0106367D01*
X0051411Y0106310D01*
X0051452Y0106251D01*
X0051489Y0106189D01*
X0051524Y0106126D01*
X0051555Y0106060D01*
X0051582Y0105994D01*
X0051607Y0105926D01*
X0051627Y0105857D01*
X0051644Y0105787D01*
X0051657Y0105716D01*
X0051666Y0105644D01*
X0051672Y0105572D01*
X0051674Y0105500D01*
X0051674Y0104713D01*
X0051672Y0104641D01*
X0051666Y0104569D01*
X0051657Y0104497D01*
X0051644Y0104426D01*
X0051627Y0104356D01*
X0051607Y0104287D01*
X0051582Y0104219D01*
X0051555Y0104153D01*
X0051524Y0104087D01*
X0051489Y0104024D01*
X0051452Y0103962D01*
X0051411Y0103903D01*
X0051367Y0103846D01*
X0051320Y0103791D01*
X0051270Y0103739D01*
X0051218Y0103689D01*
X0051163Y0103642D01*
X0051106Y0103598D01*
X0051047Y0103557D01*
X0050985Y0103520D01*
X0050922Y0103485D01*
X0050856Y0103454D01*
X0050790Y0103427D01*
X0050722Y0103402D01*
X0050653Y0103382D01*
X0050583Y0103365D01*
X0050512Y0103352D01*
X0050440Y0103343D01*
X0050368Y0103337D01*
X0050296Y0103335D01*
X0173126Y0060933D02*
X0173128Y0061021D01*
X0173134Y0061109D01*
X0173144Y0061197D01*
X0173158Y0061285D01*
X0173175Y0061371D01*
X0173197Y0061457D01*
X0173222Y0061541D01*
X0173252Y0061625D01*
X0173284Y0061707D01*
X0173321Y0061787D01*
X0173361Y0061866D01*
X0173405Y0061943D01*
X0173452Y0062018D01*
X0173502Y0062090D01*
X0173556Y0062161D01*
X0173612Y0062228D01*
X0173672Y0062294D01*
X0173734Y0062356D01*
X0173800Y0062416D01*
X0173867Y0062472D01*
X0173938Y0062526D01*
X0174010Y0062576D01*
X0174085Y0062623D01*
X0174162Y0062667D01*
X0174241Y0062707D01*
X0174321Y0062744D01*
X0174403Y0062776D01*
X0174487Y0062806D01*
X0174571Y0062831D01*
X0174657Y0062853D01*
X0174743Y0062870D01*
X0174831Y0062884D01*
X0174919Y0062894D01*
X0175007Y0062900D01*
X0175095Y0062902D01*
X0175183Y0062900D01*
X0175271Y0062894D01*
X0175359Y0062884D01*
X0175447Y0062870D01*
X0175533Y0062853D01*
X0175619Y0062831D01*
X0175703Y0062806D01*
X0175787Y0062776D01*
X0175869Y0062744D01*
X0175949Y0062707D01*
X0176028Y0062667D01*
X0176105Y0062623D01*
X0176180Y0062576D01*
X0176252Y0062526D01*
X0176323Y0062472D01*
X0176390Y0062416D01*
X0176456Y0062356D01*
X0176518Y0062294D01*
X0176578Y0062228D01*
X0176634Y0062161D01*
X0176688Y0062090D01*
X0176738Y0062018D01*
X0176785Y0061943D01*
X0176829Y0061866D01*
X0176869Y0061787D01*
X0176906Y0061707D01*
X0176938Y0061625D01*
X0176968Y0061541D01*
X0176993Y0061457D01*
X0177015Y0061371D01*
X0177032Y0061285D01*
X0177046Y0061197D01*
X0177056Y0061109D01*
X0177062Y0061021D01*
X0177064Y0060933D01*
X0177062Y0060845D01*
X0177056Y0060757D01*
X0177046Y0060669D01*
X0177032Y0060581D01*
X0177015Y0060495D01*
X0176993Y0060409D01*
X0176968Y0060325D01*
X0176938Y0060241D01*
X0176906Y0060159D01*
X0176869Y0060079D01*
X0176829Y0060000D01*
X0176785Y0059923D01*
X0176738Y0059848D01*
X0176688Y0059776D01*
X0176634Y0059705D01*
X0176578Y0059638D01*
X0176518Y0059572D01*
X0176456Y0059510D01*
X0176390Y0059450D01*
X0176323Y0059394D01*
X0176252Y0059340D01*
X0176180Y0059290D01*
X0176105Y0059243D01*
X0176028Y0059199D01*
X0175949Y0059159D01*
X0175869Y0059122D01*
X0175787Y0059090D01*
X0175703Y0059060D01*
X0175619Y0059035D01*
X0175533Y0059013D01*
X0175447Y0058996D01*
X0175359Y0058982D01*
X0175271Y0058972D01*
X0175183Y0058966D01*
X0175095Y0058964D01*
X0175007Y0058966D01*
X0174919Y0058972D01*
X0174831Y0058982D01*
X0174743Y0058996D01*
X0174657Y0059013D01*
X0174571Y0059035D01*
X0174487Y0059060D01*
X0174403Y0059090D01*
X0174321Y0059122D01*
X0174241Y0059159D01*
X0174162Y0059199D01*
X0174085Y0059243D01*
X0174010Y0059290D01*
X0173938Y0059340D01*
X0173867Y0059394D01*
X0173800Y0059450D01*
X0173734Y0059510D01*
X0173672Y0059572D01*
X0173612Y0059638D01*
X0173556Y0059705D01*
X0173502Y0059776D01*
X0173452Y0059848D01*
X0173405Y0059923D01*
X0173361Y0060000D01*
X0173321Y0060079D01*
X0173284Y0060159D01*
X0173252Y0060241D01*
X0173222Y0060325D01*
X0173197Y0060409D01*
X0173175Y0060495D01*
X0173158Y0060581D01*
X0173144Y0060669D01*
X0173134Y0060757D01*
X0173128Y0060845D01*
X0173126Y0060933D01*
X0188126Y0060933D02*
X0188128Y0061021D01*
X0188134Y0061109D01*
X0188144Y0061197D01*
X0188158Y0061285D01*
X0188175Y0061371D01*
X0188197Y0061457D01*
X0188222Y0061541D01*
X0188252Y0061625D01*
X0188284Y0061707D01*
X0188321Y0061787D01*
X0188361Y0061866D01*
X0188405Y0061943D01*
X0188452Y0062018D01*
X0188502Y0062090D01*
X0188556Y0062161D01*
X0188612Y0062228D01*
X0188672Y0062294D01*
X0188734Y0062356D01*
X0188800Y0062416D01*
X0188867Y0062472D01*
X0188938Y0062526D01*
X0189010Y0062576D01*
X0189085Y0062623D01*
X0189162Y0062667D01*
X0189241Y0062707D01*
X0189321Y0062744D01*
X0189403Y0062776D01*
X0189487Y0062806D01*
X0189571Y0062831D01*
X0189657Y0062853D01*
X0189743Y0062870D01*
X0189831Y0062884D01*
X0189919Y0062894D01*
X0190007Y0062900D01*
X0190095Y0062902D01*
X0190183Y0062900D01*
X0190271Y0062894D01*
X0190359Y0062884D01*
X0190447Y0062870D01*
X0190533Y0062853D01*
X0190619Y0062831D01*
X0190703Y0062806D01*
X0190787Y0062776D01*
X0190869Y0062744D01*
X0190949Y0062707D01*
X0191028Y0062667D01*
X0191105Y0062623D01*
X0191180Y0062576D01*
X0191252Y0062526D01*
X0191323Y0062472D01*
X0191390Y0062416D01*
X0191456Y0062356D01*
X0191518Y0062294D01*
X0191578Y0062228D01*
X0191634Y0062161D01*
X0191688Y0062090D01*
X0191738Y0062018D01*
X0191785Y0061943D01*
X0191829Y0061866D01*
X0191869Y0061787D01*
X0191906Y0061707D01*
X0191938Y0061625D01*
X0191968Y0061541D01*
X0191993Y0061457D01*
X0192015Y0061371D01*
X0192032Y0061285D01*
X0192046Y0061197D01*
X0192056Y0061109D01*
X0192062Y0061021D01*
X0192064Y0060933D01*
X0192062Y0060845D01*
X0192056Y0060757D01*
X0192046Y0060669D01*
X0192032Y0060581D01*
X0192015Y0060495D01*
X0191993Y0060409D01*
X0191968Y0060325D01*
X0191938Y0060241D01*
X0191906Y0060159D01*
X0191869Y0060079D01*
X0191829Y0060000D01*
X0191785Y0059923D01*
X0191738Y0059848D01*
X0191688Y0059776D01*
X0191634Y0059705D01*
X0191578Y0059638D01*
X0191518Y0059572D01*
X0191456Y0059510D01*
X0191390Y0059450D01*
X0191323Y0059394D01*
X0191252Y0059340D01*
X0191180Y0059290D01*
X0191105Y0059243D01*
X0191028Y0059199D01*
X0190949Y0059159D01*
X0190869Y0059122D01*
X0190787Y0059090D01*
X0190703Y0059060D01*
X0190619Y0059035D01*
X0190533Y0059013D01*
X0190447Y0058996D01*
X0190359Y0058982D01*
X0190271Y0058972D01*
X0190183Y0058966D01*
X0190095Y0058964D01*
X0190007Y0058966D01*
X0189919Y0058972D01*
X0189831Y0058982D01*
X0189743Y0058996D01*
X0189657Y0059013D01*
X0189571Y0059035D01*
X0189487Y0059060D01*
X0189403Y0059090D01*
X0189321Y0059122D01*
X0189241Y0059159D01*
X0189162Y0059199D01*
X0189085Y0059243D01*
X0189010Y0059290D01*
X0188938Y0059340D01*
X0188867Y0059394D01*
X0188800Y0059450D01*
X0188734Y0059510D01*
X0188672Y0059572D01*
X0188612Y0059638D01*
X0188556Y0059705D01*
X0188502Y0059776D01*
X0188452Y0059848D01*
X0188405Y0059923D01*
X0188361Y0060000D01*
X0188321Y0060079D01*
X0188284Y0060159D01*
X0188252Y0060241D01*
X0188222Y0060325D01*
X0188197Y0060409D01*
X0188175Y0060495D01*
X0188158Y0060581D01*
X0188144Y0060669D01*
X0188134Y0060757D01*
X0188128Y0060845D01*
X0188126Y0060933D01*
X0217843Y0098772D02*
X0217845Y0098856D01*
X0217851Y0098939D01*
X0217861Y0099022D01*
X0217875Y0099105D01*
X0217892Y0099187D01*
X0217914Y0099268D01*
X0217939Y0099347D01*
X0217968Y0099426D01*
X0218001Y0099503D01*
X0218037Y0099578D01*
X0218077Y0099652D01*
X0218120Y0099724D01*
X0218167Y0099793D01*
X0218217Y0099860D01*
X0218270Y0099925D01*
X0218326Y0099987D01*
X0218384Y0100047D01*
X0218446Y0100104D01*
X0218510Y0100157D01*
X0218577Y0100208D01*
X0218646Y0100255D01*
X0218717Y0100300D01*
X0218790Y0100340D01*
X0218865Y0100377D01*
X0218942Y0100411D01*
X0219020Y0100441D01*
X0219099Y0100467D01*
X0219180Y0100490D01*
X0219262Y0100508D01*
X0219344Y0100523D01*
X0219427Y0100534D01*
X0219510Y0100541D01*
X0219594Y0100544D01*
X0219678Y0100543D01*
X0219761Y0100538D01*
X0219845Y0100529D01*
X0219927Y0100516D01*
X0220009Y0100500D01*
X0220090Y0100479D01*
X0220171Y0100455D01*
X0220249Y0100427D01*
X0220327Y0100395D01*
X0220403Y0100359D01*
X0220477Y0100320D01*
X0220549Y0100278D01*
X0220619Y0100232D01*
X0220687Y0100183D01*
X0220752Y0100131D01*
X0220815Y0100076D01*
X0220875Y0100018D01*
X0220933Y0099957D01*
X0220987Y0099893D01*
X0221039Y0099827D01*
X0221087Y0099759D01*
X0221132Y0099688D01*
X0221173Y0099615D01*
X0221212Y0099541D01*
X0221246Y0099465D01*
X0221277Y0099387D01*
X0221304Y0099308D01*
X0221328Y0099227D01*
X0221347Y0099146D01*
X0221363Y0099064D01*
X0221375Y0098981D01*
X0221383Y0098897D01*
X0221387Y0098814D01*
X0221387Y0098730D01*
X0221383Y0098647D01*
X0221375Y0098563D01*
X0221363Y0098480D01*
X0221347Y0098398D01*
X0221328Y0098317D01*
X0221304Y0098236D01*
X0221277Y0098157D01*
X0221246Y0098079D01*
X0221212Y0098003D01*
X0221173Y0097929D01*
X0221132Y0097856D01*
X0221087Y0097785D01*
X0221039Y0097717D01*
X0220987Y0097651D01*
X0220933Y0097587D01*
X0220875Y0097526D01*
X0220815Y0097468D01*
X0220752Y0097413D01*
X0220687Y0097361D01*
X0220619Y0097312D01*
X0220549Y0097266D01*
X0220477Y0097224D01*
X0220403Y0097185D01*
X0220327Y0097149D01*
X0220249Y0097117D01*
X0220171Y0097089D01*
X0220090Y0097065D01*
X0220009Y0097044D01*
X0219927Y0097028D01*
X0219845Y0097015D01*
X0219761Y0097006D01*
X0219678Y0097001D01*
X0219594Y0097000D01*
X0219510Y0097003D01*
X0219427Y0097010D01*
X0219344Y0097021D01*
X0219262Y0097036D01*
X0219180Y0097054D01*
X0219099Y0097077D01*
X0219020Y0097103D01*
X0218942Y0097133D01*
X0218865Y0097167D01*
X0218790Y0097204D01*
X0218717Y0097244D01*
X0218646Y0097289D01*
X0218577Y0097336D01*
X0218510Y0097387D01*
X0218446Y0097440D01*
X0218384Y0097497D01*
X0218326Y0097557D01*
X0218270Y0097619D01*
X0218217Y0097684D01*
X0218167Y0097751D01*
X0218120Y0097820D01*
X0218077Y0097892D01*
X0218037Y0097966D01*
X0218001Y0098041D01*
X0217968Y0098118D01*
X0217939Y0098197D01*
X0217914Y0098276D01*
X0217892Y0098357D01*
X0217875Y0098439D01*
X0217861Y0098522D01*
X0217851Y0098605D01*
X0217845Y0098688D01*
X0217843Y0098772D01*
M02*
