G04 MADE WITH FRITZING*
G04 WWW.FRITZING.ORG*
G04 DOUBLE SIDED*
G04 HOLES PLATED*
G04 CONTOUR ON CENTER OF CONTOUR VECTOR*
%ASAXBY*%
%FSLAX23Y23*%
%MOIN*%
%OFA0B0*%
%SFA1.0B1.0*%
%ADD10R,0.001000X0.001000*%
%LNSILK1*%
G90*
G70*
G54D10*
X0Y866D02*
X21Y866D01*
X50Y866D02*
X521Y866D01*
X550Y866D02*
X721Y866D01*
X750Y866D02*
X821Y866D01*
X850Y866D02*
X921Y866D01*
X950Y866D02*
X1021Y866D01*
X1050Y866D02*
X1967Y866D01*
X0Y865D02*
X19Y865D01*
X52Y865D02*
X519Y865D01*
X552Y865D02*
X719Y865D01*
X752Y865D02*
X819Y865D01*
X852Y865D02*
X919Y865D01*
X952Y865D02*
X1019Y865D01*
X1052Y865D02*
X1967Y865D01*
X0Y864D02*
X17Y864D01*
X54Y864D02*
X517Y864D01*
X554Y864D02*
X717Y864D01*
X754Y864D02*
X817Y864D01*
X854Y864D02*
X917Y864D01*
X954Y864D02*
X1017Y864D01*
X1054Y864D02*
X1967Y864D01*
X0Y863D02*
X16Y863D01*
X55Y863D02*
X515Y863D01*
X555Y863D02*
X715Y863D01*
X755Y863D02*
X815Y863D01*
X855Y863D02*
X915Y863D01*
X955Y863D02*
X1015Y863D01*
X1055Y863D02*
X1967Y863D01*
X0Y862D02*
X14Y862D01*
X57Y862D02*
X514Y862D01*
X557Y862D02*
X714Y862D01*
X757Y862D02*
X814Y862D01*
X857Y862D02*
X914Y862D01*
X957Y862D02*
X1014Y862D01*
X1057Y862D02*
X1967Y862D01*
X0Y861D02*
X13Y861D01*
X58Y861D02*
X513Y861D01*
X558Y861D02*
X713Y861D01*
X758Y861D02*
X813Y861D01*
X858Y861D02*
X913Y861D01*
X958Y861D02*
X1013Y861D01*
X1058Y861D02*
X1967Y861D01*
X0Y860D02*
X12Y860D01*
X59Y860D02*
X512Y860D01*
X559Y860D02*
X712Y860D01*
X759Y860D02*
X812Y860D01*
X859Y860D02*
X911Y860D01*
X959Y860D02*
X1011Y860D01*
X1059Y860D02*
X1967Y860D01*
X0Y859D02*
X11Y859D01*
X60Y859D02*
X510Y859D01*
X560Y859D02*
X710Y859D01*
X760Y859D02*
X810Y859D01*
X860Y859D02*
X910Y859D01*
X960Y859D02*
X1010Y859D01*
X1060Y859D02*
X1967Y859D01*
X0Y858D02*
X7Y858D01*
X1960Y858D02*
X1967Y858D01*
X0Y857D02*
X7Y857D01*
X1930Y857D02*
X1938Y857D01*
X1960Y857D02*
X1967Y857D01*
X0Y856D02*
X7Y856D01*
X1923Y856D02*
X1938Y856D01*
X1960Y856D02*
X1967Y856D01*
X0Y855D02*
X7Y855D01*
X1916Y855D02*
X1938Y855D01*
X1960Y855D02*
X1967Y855D01*
X0Y854D02*
X7Y854D01*
X343Y854D02*
X348Y854D01*
X1909Y854D02*
X1938Y854D01*
X1960Y854D02*
X1967Y854D01*
X0Y853D02*
X6Y853D01*
X343Y853D02*
X350Y853D01*
X1904Y853D02*
X1938Y853D01*
X1960Y853D02*
X1967Y853D01*
X0Y852D02*
X5Y852D01*
X342Y852D02*
X353Y852D01*
X1904Y852D02*
X1938Y852D01*
X1960Y852D02*
X1967Y852D01*
X0Y851D02*
X5Y851D01*
X342Y851D02*
X355Y851D01*
X1905Y851D02*
X1939Y851D01*
X1960Y851D02*
X1967Y851D01*
X0Y850D02*
X4Y850D01*
X341Y850D02*
X357Y850D01*
X1905Y850D02*
X1930Y850D01*
X1932Y850D02*
X1939Y850D01*
X1960Y850D02*
X1967Y850D01*
X0Y849D02*
X4Y849D01*
X341Y849D02*
X360Y849D01*
X1905Y849D02*
X1925Y849D01*
X1933Y849D02*
X1939Y849D01*
X1960Y849D02*
X1967Y849D01*
X0Y848D02*
X3Y848D01*
X340Y848D02*
X362Y848D01*
X1905Y848D02*
X1916Y848D01*
X1919Y848D02*
X1925Y848D01*
X1933Y848D02*
X1939Y848D01*
X1960Y848D02*
X1967Y848D01*
X0Y847D02*
X3Y847D01*
X340Y847D02*
X364Y847D01*
X1905Y847D02*
X1911Y847D01*
X1919Y847D02*
X1925Y847D01*
X1933Y847D02*
X1939Y847D01*
X1960Y847D02*
X1967Y847D01*
X0Y846D02*
X3Y846D01*
X340Y846D02*
X347Y846D01*
X349Y846D02*
X367Y846D01*
X1905Y846D02*
X1911Y846D01*
X1919Y846D02*
X1925Y846D01*
X1934Y846D02*
X1938Y846D01*
X1960Y846D02*
X1967Y846D01*
X0Y845D02*
X2Y845D01*
X339Y845D02*
X346Y845D01*
X351Y845D02*
X369Y845D01*
X1905Y845D02*
X1912Y845D01*
X1919Y845D02*
X1925Y845D01*
X1935Y845D02*
X1936Y845D01*
X1960Y845D02*
X1967Y845D01*
X0Y844D02*
X2Y844D01*
X339Y844D02*
X346Y844D01*
X354Y844D02*
X372Y844D01*
X1906Y844D02*
X1911Y844D01*
X1919Y844D02*
X1926Y844D01*
X1960Y844D02*
X1967Y844D01*
X0Y843D02*
X2Y843D01*
X338Y843D02*
X345Y843D01*
X356Y843D02*
X374Y843D01*
X1906Y843D02*
X1911Y843D01*
X1920Y843D02*
X1926Y843D01*
X1960Y843D02*
X1967Y843D01*
X0Y842D02*
X1Y842D01*
X338Y842D02*
X345Y842D01*
X358Y842D02*
X376Y842D01*
X1824Y842D02*
X1835Y842D01*
X1907Y842D02*
X1910Y842D01*
X1920Y842D02*
X1926Y842D01*
X1960Y842D02*
X1967Y842D01*
X0Y841D02*
X1Y841D01*
X337Y841D02*
X345Y841D01*
X358Y841D02*
X379Y841D01*
X1817Y841D02*
X1836Y841D01*
X1920Y841D02*
X1926Y841D01*
X1960Y841D02*
X1967Y841D01*
X0Y840D02*
X1Y840D01*
X337Y840D02*
X344Y840D01*
X357Y840D02*
X381Y840D01*
X1811Y840D02*
X1837Y840D01*
X1920Y840D02*
X1926Y840D01*
X1960Y840D02*
X1967Y840D01*
X0Y839D02*
X1Y839D01*
X337Y839D02*
X344Y839D01*
X357Y839D02*
X383Y839D01*
X1809Y839D02*
X1838Y839D01*
X1920Y839D02*
X1926Y839D01*
X1960Y839D02*
X1967Y839D01*
X0Y838D02*
X1Y838D01*
X336Y838D02*
X343Y838D01*
X357Y838D02*
X364Y838D01*
X368Y838D02*
X386Y838D01*
X1808Y838D02*
X1839Y838D01*
X1920Y838D02*
X1926Y838D01*
X1960Y838D02*
X1967Y838D01*
X0Y837D02*
X1Y837D01*
X336Y837D02*
X343Y837D01*
X356Y837D02*
X363Y837D01*
X370Y837D02*
X388Y837D01*
X1808Y837D02*
X1839Y837D01*
X1920Y837D02*
X1927Y837D01*
X1960Y837D02*
X1967Y837D01*
X0Y836D02*
X1Y836D01*
X335Y836D02*
X342Y836D01*
X356Y836D02*
X363Y836D01*
X372Y836D02*
X390Y836D01*
X1807Y836D02*
X1840Y836D01*
X1921Y836D02*
X1927Y836D01*
X1960Y836D02*
X1967Y836D01*
X0Y835D02*
X1Y835D01*
X335Y835D02*
X342Y835D01*
X355Y835D02*
X362Y835D01*
X375Y835D02*
X393Y835D01*
X1807Y835D02*
X1823Y835D01*
X1833Y835D02*
X1840Y835D01*
X1921Y835D02*
X1927Y835D01*
X1960Y835D02*
X1967Y835D01*
X0Y834D02*
X1Y834D01*
X334Y834D02*
X342Y834D01*
X355Y834D02*
X362Y834D01*
X377Y834D02*
X394Y834D01*
X1806Y834D02*
X1816Y834D01*
X1834Y834D02*
X1840Y834D01*
X1921Y834D02*
X1927Y834D01*
X1960Y834D02*
X1967Y834D01*
X0Y833D02*
X1Y833D01*
X334Y833D02*
X341Y833D01*
X354Y833D02*
X361Y833D01*
X379Y833D02*
X394Y833D01*
X1806Y833D02*
X1812Y833D01*
X1834Y833D02*
X1839Y833D01*
X1921Y833D02*
X1927Y833D01*
X1960Y833D02*
X1967Y833D01*
X0Y832D02*
X1Y832D01*
X334Y832D02*
X341Y832D01*
X354Y832D02*
X361Y832D01*
X382Y832D02*
X394Y832D01*
X1806Y832D02*
X1813Y832D01*
X1835Y832D02*
X1839Y832D01*
X1921Y832D02*
X1927Y832D01*
X1960Y832D02*
X1967Y832D01*
X0Y831D02*
X1Y831D01*
X333Y831D02*
X340Y831D01*
X354Y831D02*
X361Y831D01*
X384Y831D02*
X394Y831D01*
X1807Y831D02*
X1814Y831D01*
X1837Y831D02*
X1837Y831D01*
X1921Y831D02*
X1927Y831D01*
X1960Y831D02*
X1967Y831D01*
X0Y830D02*
X1Y830D01*
X333Y830D02*
X340Y830D01*
X353Y830D02*
X360Y830D01*
X386Y830D02*
X394Y830D01*
X1807Y830D02*
X1815Y830D01*
X1921Y830D02*
X1928Y830D01*
X1960Y830D02*
X1967Y830D01*
X0Y829D02*
X1Y829D01*
X332Y829D02*
X339Y829D01*
X353Y829D02*
X360Y829D01*
X387Y829D02*
X394Y829D01*
X1807Y829D02*
X1816Y829D01*
X1922Y829D02*
X1928Y829D01*
X1960Y829D02*
X1967Y829D01*
X0Y828D02*
X1Y828D01*
X332Y828D02*
X339Y828D01*
X352Y828D02*
X359Y828D01*
X387Y828D02*
X393Y828D01*
X1724Y828D02*
X1735Y828D01*
X1808Y828D02*
X1817Y828D01*
X1922Y828D02*
X1928Y828D01*
X1960Y828D02*
X1967Y828D01*
X0Y827D02*
X2Y827D01*
X332Y827D02*
X339Y827D01*
X352Y827D02*
X359Y827D01*
X387Y827D02*
X393Y827D01*
X1717Y827D02*
X1736Y827D01*
X1809Y827D02*
X1818Y827D01*
X1922Y827D02*
X1928Y827D01*
X1960Y827D02*
X1967Y827D01*
X0Y826D02*
X2Y826D01*
X331Y826D02*
X339Y826D01*
X351Y826D02*
X359Y826D01*
X388Y826D02*
X392Y826D01*
X1710Y826D02*
X1738Y826D01*
X1810Y826D02*
X1819Y826D01*
X1922Y826D02*
X1928Y826D01*
X1960Y826D02*
X1967Y826D01*
X0Y825D02*
X2Y825D01*
X331Y825D02*
X342Y825D01*
X351Y825D02*
X358Y825D01*
X389Y825D02*
X391Y825D01*
X1706Y825D02*
X1739Y825D01*
X1811Y825D02*
X1820Y825D01*
X1922Y825D02*
X1928Y825D01*
X1960Y825D02*
X1967Y825D01*
X0Y824D02*
X2Y824D01*
X331Y824D02*
X344Y824D01*
X351Y824D02*
X358Y824D01*
X1706Y824D02*
X1739Y824D01*
X1812Y824D02*
X1821Y824D01*
X1922Y824D02*
X1928Y824D01*
X1960Y824D02*
X1967Y824D01*
X0Y823D02*
X3Y823D01*
X331Y823D02*
X346Y823D01*
X350Y823D02*
X357Y823D01*
X1707Y823D02*
X1740Y823D01*
X1813Y823D02*
X1822Y823D01*
X1922Y823D02*
X1928Y823D01*
X1960Y823D02*
X1967Y823D01*
X0Y822D02*
X3Y822D01*
X332Y822D02*
X357Y822D01*
X1707Y822D02*
X1740Y822D01*
X1814Y822D02*
X1823Y822D01*
X1923Y822D02*
X1929Y822D01*
X1960Y822D02*
X1967Y822D01*
X0Y821D02*
X4Y821D01*
X333Y821D02*
X356Y821D01*
X1707Y821D02*
X1724Y821D01*
X1734Y821D02*
X1741Y821D01*
X1815Y821D02*
X1824Y821D01*
X1923Y821D02*
X1929Y821D01*
X1960Y821D02*
X1967Y821D01*
X0Y820D02*
X4Y820D01*
X335Y820D02*
X356Y820D01*
X1707Y820D02*
X1717Y820D01*
X1735Y820D02*
X1741Y820D01*
X1816Y820D02*
X1825Y820D01*
X1923Y820D02*
X1929Y820D01*
X1960Y820D02*
X1967Y820D01*
X0Y819D02*
X4Y819D01*
X338Y819D02*
X356Y819D01*
X1707Y819D02*
X1713Y819D01*
X1735Y819D02*
X1741Y819D01*
X1817Y819D02*
X1826Y819D01*
X1923Y819D02*
X1929Y819D01*
X1960Y819D02*
X1967Y819D01*
X0Y818D02*
X5Y818D01*
X340Y818D02*
X355Y818D01*
X1707Y818D02*
X1713Y818D01*
X1735Y818D02*
X1741Y818D01*
X1818Y818D02*
X1827Y818D01*
X1923Y818D02*
X1929Y818D01*
X1960Y818D02*
X1967Y818D01*
X0Y817D02*
X6Y817D01*
X343Y817D02*
X355Y817D01*
X1707Y817D02*
X1714Y817D01*
X1735Y817D02*
X1741Y817D01*
X1819Y817D02*
X1828Y817D01*
X1923Y817D02*
X1929Y817D01*
X1960Y817D02*
X1967Y817D01*
X0Y816D02*
X6Y816D01*
X345Y816D02*
X354Y816D01*
X1708Y816D02*
X1714Y816D01*
X1735Y816D02*
X1741Y816D01*
X1820Y816D02*
X1829Y816D01*
X1923Y816D02*
X1929Y816D01*
X1960Y816D02*
X1967Y816D01*
X0Y815D02*
X7Y815D01*
X347Y815D02*
X354Y815D01*
X1632Y815D02*
X1635Y815D01*
X1708Y815D02*
X1714Y815D01*
X1735Y815D02*
X1742Y815D01*
X1821Y815D02*
X1830Y815D01*
X1924Y815D02*
X1930Y815D01*
X1960Y815D02*
X1967Y815D01*
X0Y814D02*
X7Y814D01*
X350Y814D02*
X353Y814D01*
X1630Y814D02*
X1637Y814D01*
X1708Y814D02*
X1714Y814D01*
X1735Y814D02*
X1742Y814D01*
X1822Y814D02*
X1831Y814D01*
X1924Y814D02*
X1930Y814D01*
X1960Y814D02*
X1967Y814D01*
X0Y813D02*
X7Y813D01*
X1628Y813D02*
X1639Y813D01*
X1708Y813D02*
X1714Y813D01*
X1735Y813D02*
X1741Y813D01*
X1823Y813D02*
X1832Y813D01*
X1924Y813D02*
X1930Y813D01*
X1960Y813D02*
X1967Y813D01*
X0Y812D02*
X7Y812D01*
X1627Y812D02*
X1640Y812D01*
X1708Y812D02*
X1714Y812D01*
X1734Y812D02*
X1741Y812D01*
X1824Y812D02*
X1833Y812D01*
X1924Y812D02*
X1930Y812D01*
X1960Y812D02*
X1967Y812D01*
X0Y811D02*
X7Y811D01*
X1627Y811D02*
X1641Y811D01*
X1708Y811D02*
X1714Y811D01*
X1730Y811D02*
X1741Y811D01*
X1825Y811D02*
X1834Y811D01*
X1924Y811D02*
X1930Y811D01*
X1960Y811D02*
X1967Y811D01*
X0Y810D02*
X7Y810D01*
X1626Y810D02*
X1641Y810D01*
X1708Y810D02*
X1715Y810D01*
X1723Y810D02*
X1740Y810D01*
X1826Y810D02*
X1835Y810D01*
X1924Y810D02*
X1930Y810D01*
X1960Y810D02*
X1967Y810D01*
X0Y809D02*
X7Y809D01*
X1625Y809D02*
X1641Y809D01*
X1709Y809D02*
X1740Y809D01*
X1827Y809D02*
X1836Y809D01*
X1924Y809D02*
X1930Y809D01*
X1960Y809D02*
X1967Y809D01*
X0Y808D02*
X7Y808D01*
X1624Y808D02*
X1632Y808D01*
X1635Y808D02*
X1642Y808D01*
X1709Y808D02*
X1739Y808D01*
X1828Y808D02*
X1837Y808D01*
X1925Y808D02*
X1931Y808D01*
X1960Y808D02*
X1967Y808D01*
X0Y807D02*
X7Y807D01*
X1623Y807D02*
X1631Y807D01*
X1636Y807D02*
X1642Y807D01*
X1709Y807D02*
X1738Y807D01*
X1829Y807D02*
X1838Y807D01*
X1925Y807D02*
X1931Y807D01*
X1960Y807D02*
X1967Y807D01*
X0Y806D02*
X7Y806D01*
X1622Y806D02*
X1631Y806D01*
X1636Y806D02*
X1642Y806D01*
X1709Y806D02*
X1737Y806D01*
X1830Y806D02*
X1839Y806D01*
X1925Y806D02*
X1931Y806D01*
X1960Y806D02*
X1967Y806D01*
X0Y805D02*
X7Y805D01*
X1621Y805D02*
X1630Y805D01*
X1636Y805D02*
X1642Y805D01*
X1709Y805D02*
X1735Y805D01*
X1831Y805D02*
X1840Y805D01*
X1925Y805D02*
X1931Y805D01*
X1960Y805D02*
X1967Y805D01*
X0Y804D02*
X7Y804D01*
X1620Y804D02*
X1629Y804D01*
X1636Y804D02*
X1642Y804D01*
X1709Y804D02*
X1730Y804D01*
X1832Y804D02*
X1842Y804D01*
X1925Y804D02*
X1930Y804D01*
X1960Y804D02*
X1967Y804D01*
X0Y803D02*
X7Y803D01*
X1619Y803D02*
X1628Y803D01*
X1636Y803D02*
X1642Y803D01*
X1709Y803D02*
X1729Y803D01*
X1833Y803D02*
X1843Y803D01*
X1926Y803D02*
X1930Y803D01*
X1960Y803D02*
X1967Y803D01*
X0Y802D02*
X7Y802D01*
X1619Y802D02*
X1627Y802D01*
X1636Y802D02*
X1642Y802D01*
X1710Y802D02*
X1716Y802D01*
X1722Y802D02*
X1730Y802D01*
X1834Y802D02*
X1843Y802D01*
X1960Y802D02*
X1967Y802D01*
X0Y801D02*
X7Y801D01*
X1532Y801D02*
X1534Y801D01*
X1618Y801D02*
X1626Y801D01*
X1637Y801D02*
X1643Y801D01*
X1710Y801D02*
X1716Y801D01*
X1723Y801D02*
X1731Y801D01*
X1835Y801D02*
X1844Y801D01*
X1960Y801D02*
X1967Y801D01*
X0Y800D02*
X7Y800D01*
X1525Y800D02*
X1537Y800D01*
X1617Y800D02*
X1625Y800D01*
X1637Y800D02*
X1643Y800D01*
X1710Y800D02*
X1716Y800D01*
X1723Y800D02*
X1731Y800D01*
X1836Y800D02*
X1845Y800D01*
X1960Y800D02*
X1967Y800D01*
X0Y799D02*
X7Y799D01*
X1518Y799D02*
X1539Y799D01*
X1616Y799D02*
X1624Y799D01*
X1637Y799D02*
X1643Y799D01*
X1710Y799D02*
X1716Y799D01*
X1724Y799D02*
X1732Y799D01*
X1837Y799D02*
X1845Y799D01*
X1960Y799D02*
X1967Y799D01*
X0Y798D02*
X7Y798D01*
X1511Y798D02*
X1540Y798D01*
X1615Y798D02*
X1623Y798D01*
X1637Y798D02*
X1643Y798D01*
X1710Y798D02*
X1716Y798D01*
X1725Y798D02*
X1733Y798D01*
X1813Y798D02*
X1816Y798D01*
X1838Y798D02*
X1845Y798D01*
X1960Y798D02*
X1967Y798D01*
X0Y797D02*
X7Y797D01*
X1508Y797D02*
X1541Y797D01*
X1614Y797D02*
X1622Y797D01*
X1637Y797D02*
X1643Y797D01*
X1710Y797D02*
X1716Y797D01*
X1726Y797D02*
X1734Y797D01*
X1812Y797D02*
X1817Y797D01*
X1839Y797D02*
X1845Y797D01*
X1960Y797D02*
X1967Y797D01*
X0Y796D02*
X7Y796D01*
X1508Y796D02*
X1542Y796D01*
X1613Y796D02*
X1622Y796D01*
X1637Y796D02*
X1643Y796D01*
X1710Y796D02*
X1716Y796D01*
X1727Y796D02*
X1735Y796D01*
X1812Y796D02*
X1817Y796D01*
X1835Y796D02*
X1845Y796D01*
X1960Y796D02*
X1967Y796D01*
X0Y795D02*
X7Y795D01*
X1509Y795D02*
X1542Y795D01*
X1613Y795D02*
X1621Y795D01*
X1637Y795D02*
X1643Y795D01*
X1711Y795D02*
X1717Y795D01*
X1727Y795D02*
X1735Y795D01*
X1812Y795D02*
X1818Y795D01*
X1828Y795D02*
X1845Y795D01*
X1960Y795D02*
X1967Y795D01*
X0Y794D02*
X7Y794D01*
X1509Y794D02*
X1532Y794D01*
X1534Y794D02*
X1542Y794D01*
X1612Y794D02*
X1620Y794D01*
X1638Y794D02*
X1644Y794D01*
X1711Y794D02*
X1717Y794D01*
X1728Y794D02*
X1736Y794D01*
X1812Y794D02*
X1844Y794D01*
X1960Y794D02*
X1967Y794D01*
X0Y793D02*
X7Y793D01*
X1509Y793D02*
X1525Y793D01*
X1536Y793D02*
X1543Y793D01*
X1612Y793D02*
X1619Y793D01*
X1638Y793D02*
X1644Y793D01*
X1711Y793D02*
X1717Y793D01*
X1729Y793D02*
X1737Y793D01*
X1812Y793D02*
X1844Y793D01*
X1960Y793D02*
X1967Y793D01*
X0Y792D02*
X7Y792D01*
X1509Y792D02*
X1517Y792D01*
X1537Y792D02*
X1543Y792D01*
X1611Y792D02*
X1618Y792D01*
X1638Y792D02*
X1644Y792D01*
X1711Y792D02*
X1717Y792D01*
X1730Y792D02*
X1738Y792D01*
X1812Y792D02*
X1843Y792D01*
X1960Y792D02*
X1967Y792D01*
X0Y791D02*
X7Y791D01*
X1509Y791D02*
X1515Y791D01*
X1537Y791D02*
X1543Y791D01*
X1611Y791D02*
X1617Y791D01*
X1638Y791D02*
X1644Y791D01*
X1711Y791D02*
X1717Y791D01*
X1731Y791D02*
X1739Y791D01*
X1813Y791D02*
X1842Y791D01*
X1960Y791D02*
X1967Y791D01*
X0Y790D02*
X7Y790D01*
X1509Y790D02*
X1515Y790D01*
X1537Y790D02*
X1543Y790D01*
X1611Y790D02*
X1617Y790D01*
X1638Y790D02*
X1644Y790D01*
X1711Y790D02*
X1717Y790D01*
X1731Y790D02*
X1739Y790D01*
X1814Y790D02*
X1840Y790D01*
X1960Y790D02*
X1967Y790D01*
X0Y789D02*
X7Y789D01*
X1509Y789D02*
X1516Y789D01*
X1537Y789D02*
X1543Y789D01*
X1611Y789D02*
X1617Y789D01*
X1638Y789D02*
X1644Y789D01*
X1711Y789D02*
X1717Y789D01*
X1732Y789D02*
X1740Y789D01*
X1815Y789D02*
X1835Y789D01*
X1960Y789D02*
X1967Y789D01*
X0Y788D02*
X7Y788D01*
X1510Y788D02*
X1516Y788D01*
X1537Y788D02*
X1543Y788D01*
X1611Y788D02*
X1617Y788D01*
X1638Y788D02*
X1644Y788D01*
X1712Y788D02*
X1718Y788D01*
X1733Y788D02*
X1741Y788D01*
X1817Y788D02*
X1828Y788D01*
X1960Y788D02*
X1967Y788D01*
X0Y787D02*
X7Y787D01*
X1510Y787D02*
X1516Y787D01*
X1538Y787D02*
X1544Y787D01*
X1611Y787D02*
X1617Y787D01*
X1638Y787D02*
X1644Y787D01*
X1712Y787D02*
X1718Y787D01*
X1734Y787D02*
X1742Y787D01*
X1820Y787D02*
X1820Y787D01*
X1960Y787D02*
X1967Y787D01*
X0Y786D02*
X7Y786D01*
X1426Y786D02*
X1428Y786D01*
X1510Y786D02*
X1516Y786D01*
X1538Y786D02*
X1544Y786D01*
X1611Y786D02*
X1617Y786D01*
X1638Y786D02*
X1645Y786D01*
X1712Y786D02*
X1718Y786D01*
X1735Y786D02*
X1743Y786D01*
X1960Y786D02*
X1967Y786D01*
X0Y785D02*
X7Y785D01*
X1423Y785D02*
X1431Y785D01*
X1510Y785D02*
X1516Y785D01*
X1538Y785D02*
X1544Y785D01*
X1611Y785D02*
X1617Y785D01*
X1638Y785D02*
X1644Y785D01*
X1712Y785D02*
X1718Y785D01*
X1735Y785D02*
X1743Y785D01*
X1960Y785D02*
X1967Y785D01*
X0Y784D02*
X7Y784D01*
X1422Y784D02*
X1432Y784D01*
X1510Y784D02*
X1516Y784D01*
X1538Y784D02*
X1544Y784D01*
X1611Y784D02*
X1617Y784D01*
X1627Y784D02*
X1630Y784D01*
X1638Y784D02*
X1644Y784D01*
X1712Y784D02*
X1718Y784D01*
X1736Y784D02*
X1744Y784D01*
X1960Y784D02*
X1967Y784D01*
X0Y783D02*
X7Y783D01*
X1421Y783D02*
X1433Y783D01*
X1510Y783D02*
X1516Y783D01*
X1538Y783D02*
X1544Y783D01*
X1611Y783D02*
X1617Y783D01*
X1626Y783D02*
X1631Y783D01*
X1637Y783D02*
X1644Y783D01*
X1712Y783D02*
X1718Y783D01*
X1737Y783D02*
X1745Y783D01*
X1960Y783D02*
X1967Y783D01*
X0Y782D02*
X7Y782D01*
X1420Y782D02*
X1434Y782D01*
X1510Y782D02*
X1516Y782D01*
X1538Y782D02*
X1544Y782D01*
X1611Y782D02*
X1617Y782D01*
X1626Y782D02*
X1632Y782D01*
X1637Y782D02*
X1644Y782D01*
X1712Y782D02*
X1718Y782D01*
X1738Y782D02*
X1746Y782D01*
X1960Y782D02*
X1967Y782D01*
X0Y781D02*
X7Y781D01*
X1419Y781D02*
X1435Y781D01*
X1511Y781D02*
X1517Y781D01*
X1538Y781D02*
X1544Y781D01*
X1612Y781D02*
X1618Y781D01*
X1625Y781D02*
X1632Y781D01*
X1636Y781D02*
X1643Y781D01*
X1712Y781D02*
X1719Y781D01*
X1738Y781D02*
X1746Y781D01*
X1960Y781D02*
X1967Y781D01*
X0Y780D02*
X7Y780D01*
X1419Y780D02*
X1436Y780D01*
X1511Y780D02*
X1517Y780D01*
X1539Y780D02*
X1545Y780D01*
X1612Y780D02*
X1618Y780D01*
X1626Y780D02*
X1633Y780D01*
X1635Y780D02*
X1643Y780D01*
X1713Y780D02*
X1719Y780D01*
X1739Y780D02*
X1746Y780D01*
X1960Y780D02*
X1967Y780D01*
X0Y779D02*
X7Y779D01*
X1419Y779D02*
X1426Y779D01*
X1428Y779D02*
X1436Y779D01*
X1511Y779D02*
X1517Y779D01*
X1539Y779D02*
X1545Y779D01*
X1612Y779D02*
X1618Y779D01*
X1626Y779D02*
X1642Y779D01*
X1713Y779D02*
X1719Y779D01*
X1740Y779D02*
X1746Y779D01*
X1960Y779D02*
X1967Y779D01*
X0Y778D02*
X7Y778D01*
X1418Y778D02*
X1425Y778D01*
X1429Y778D02*
X1437Y778D01*
X1511Y778D02*
X1517Y778D01*
X1539Y778D02*
X1545Y778D01*
X1612Y778D02*
X1618Y778D01*
X1627Y778D02*
X1642Y778D01*
X1713Y778D02*
X1719Y778D01*
X1741Y778D02*
X1746Y778D01*
X1960Y778D02*
X1967Y778D01*
X0Y777D02*
X7Y777D01*
X1418Y777D02*
X1424Y777D01*
X1430Y777D02*
X1438Y777D01*
X1511Y777D02*
X1517Y777D01*
X1538Y777D02*
X1545Y777D01*
X1612Y777D02*
X1618Y777D01*
X1627Y777D02*
X1641Y777D01*
X1713Y777D02*
X1719Y777D01*
X1742Y777D02*
X1745Y777D01*
X1960Y777D02*
X1967Y777D01*
X0Y776D02*
X7Y776D01*
X1418Y776D02*
X1424Y776D01*
X1431Y776D02*
X1438Y776D01*
X1511Y776D02*
X1517Y776D01*
X1538Y776D02*
X1544Y776D01*
X1612Y776D02*
X1618Y776D01*
X1628Y776D02*
X1640Y776D01*
X1713Y776D02*
X1719Y776D01*
X1960Y776D02*
X1967Y776D01*
X0Y775D02*
X7Y775D01*
X1417Y775D02*
X1424Y775D01*
X1431Y775D02*
X1439Y775D01*
X1511Y775D02*
X1517Y775D01*
X1536Y775D02*
X1544Y775D01*
X1612Y775D02*
X1618Y775D01*
X1628Y775D02*
X1639Y775D01*
X1713Y775D02*
X1719Y775D01*
X1960Y775D02*
X1967Y775D01*
X0Y774D02*
X7Y774D01*
X1341Y774D02*
X1341Y774D01*
X1417Y774D02*
X1423Y774D01*
X1432Y774D02*
X1440Y774D01*
X1512Y774D02*
X1518Y774D01*
X1531Y774D02*
X1544Y774D01*
X1613Y774D02*
X1619Y774D01*
X1629Y774D02*
X1638Y774D01*
X1714Y774D02*
X1719Y774D01*
X1960Y774D02*
X1967Y774D01*
X0Y773D02*
X7Y773D01*
X1339Y773D02*
X1343Y773D01*
X1417Y773D02*
X1423Y773D01*
X1433Y773D02*
X1440Y773D01*
X1512Y773D02*
X1518Y773D01*
X1523Y773D02*
X1543Y773D01*
X1613Y773D02*
X1619Y773D01*
X1629Y773D02*
X1637Y773D01*
X1715Y773D02*
X1718Y773D01*
X1960Y773D02*
X1967Y773D01*
X0Y772D02*
X7Y772D01*
X1338Y772D02*
X1344Y772D01*
X1416Y772D02*
X1423Y772D01*
X1434Y772D02*
X1441Y772D01*
X1512Y772D02*
X1543Y772D01*
X1613Y772D02*
X1619Y772D01*
X1628Y772D02*
X1637Y772D01*
X1960Y772D02*
X1967Y772D01*
X0Y771D02*
X7Y771D01*
X1338Y771D02*
X1344Y771D01*
X1416Y771D02*
X1422Y771D01*
X1434Y771D02*
X1442Y771D01*
X1512Y771D02*
X1542Y771D01*
X1613Y771D02*
X1619Y771D01*
X1627Y771D02*
X1638Y771D01*
X1960Y771D02*
X1967Y771D01*
X0Y770D02*
X7Y770D01*
X1311Y770D02*
X1319Y770D01*
X1338Y770D02*
X1344Y770D01*
X1416Y770D02*
X1422Y770D01*
X1435Y770D02*
X1442Y770D01*
X1512Y770D02*
X1541Y770D01*
X1613Y770D02*
X1619Y770D01*
X1626Y770D02*
X1638Y770D01*
X1960Y770D02*
X1967Y770D01*
X0Y769D02*
X7Y769D01*
X1310Y769D02*
X1320Y769D01*
X1338Y769D02*
X1344Y769D01*
X1415Y769D02*
X1422Y769D01*
X1436Y769D02*
X1443Y769D01*
X1512Y769D02*
X1539Y769D01*
X1613Y769D02*
X1619Y769D01*
X1625Y769D02*
X1639Y769D01*
X1643Y769D02*
X1645Y769D01*
X1960Y769D02*
X1967Y769D01*
X0Y768D02*
X7Y768D01*
X1310Y768D02*
X1320Y768D01*
X1338Y768D02*
X1344Y768D01*
X1415Y768D02*
X1421Y768D01*
X1436Y768D02*
X1444Y768D01*
X1512Y768D02*
X1537Y768D01*
X1613Y768D02*
X1619Y768D01*
X1624Y768D02*
X1647Y768D01*
X1960Y768D02*
X1967Y768D01*
X0Y767D02*
X7Y767D01*
X1311Y767D02*
X1321Y767D01*
X1338Y767D02*
X1344Y767D01*
X1415Y767D02*
X1421Y767D01*
X1437Y767D02*
X1444Y767D01*
X1513Y767D02*
X1530Y767D01*
X1613Y767D02*
X1620Y767D01*
X1624Y767D02*
X1647Y767D01*
X1960Y767D02*
X1967Y767D01*
X0Y766D02*
X7Y766D01*
X1311Y766D02*
X1321Y766D01*
X1339Y766D02*
X1345Y766D01*
X1414Y766D02*
X1421Y766D01*
X1438Y766D02*
X1445Y766D01*
X1513Y766D02*
X1523Y766D01*
X1614Y766D02*
X1631Y766D01*
X1633Y766D02*
X1647Y766D01*
X1960Y766D02*
X1967Y766D01*
X0Y765D02*
X7Y765D01*
X1311Y765D02*
X1322Y765D01*
X1339Y765D02*
X1345Y765D01*
X1414Y765D02*
X1420Y765D01*
X1438Y765D02*
X1445Y765D01*
X1513Y765D02*
X1519Y765D01*
X1614Y765D02*
X1630Y765D01*
X1634Y765D02*
X1647Y765D01*
X1960Y765D02*
X1967Y765D01*
X0Y764D02*
X7Y764D01*
X1311Y764D02*
X1323Y764D01*
X1339Y764D02*
X1345Y764D01*
X1414Y764D02*
X1420Y764D01*
X1439Y764D02*
X1446Y764D01*
X1513Y764D02*
X1519Y764D01*
X1614Y764D02*
X1629Y764D01*
X1635Y764D02*
X1647Y764D01*
X1960Y764D02*
X1967Y764D01*
X0Y763D02*
X7Y763D01*
X1311Y763D02*
X1323Y763D01*
X1339Y763D02*
X1345Y763D01*
X1413Y763D02*
X1420Y763D01*
X1440Y763D02*
X1446Y763D01*
X1513Y763D02*
X1519Y763D01*
X1615Y763D02*
X1628Y763D01*
X1635Y763D02*
X1646Y763D01*
X1960Y763D02*
X1967Y763D01*
X0Y762D02*
X7Y762D01*
X1311Y762D02*
X1324Y762D01*
X1339Y762D02*
X1345Y762D01*
X1413Y762D02*
X1419Y762D01*
X1440Y762D02*
X1446Y762D01*
X1513Y762D02*
X1519Y762D01*
X1616Y762D02*
X1627Y762D01*
X1636Y762D02*
X1643Y762D01*
X1960Y762D02*
X1967Y762D01*
X0Y761D02*
X7Y761D01*
X1311Y761D02*
X1325Y761D01*
X1339Y761D02*
X1345Y761D01*
X1413Y761D02*
X1419Y761D01*
X1440Y761D02*
X1446Y761D01*
X1513Y761D02*
X1519Y761D01*
X1617Y761D02*
X1626Y761D01*
X1960Y761D02*
X1967Y761D01*
X0Y760D02*
X7Y760D01*
X1240Y760D02*
X1245Y760D01*
X1312Y760D02*
X1325Y760D01*
X1339Y760D02*
X1345Y760D01*
X1413Y760D02*
X1419Y760D01*
X1440Y760D02*
X1446Y760D01*
X1513Y760D02*
X1520Y760D01*
X1618Y760D02*
X1625Y760D01*
X1960Y760D02*
X1967Y760D01*
X0Y759D02*
X7Y759D01*
X1236Y759D02*
X1245Y759D01*
X1312Y759D02*
X1326Y759D01*
X1340Y759D02*
X1346Y759D01*
X1413Y759D02*
X1419Y759D01*
X1440Y759D02*
X1446Y759D01*
X1514Y759D02*
X1520Y759D01*
X1960Y759D02*
X1967Y759D01*
X0Y758D02*
X7Y758D01*
X1236Y758D02*
X1245Y758D01*
X1312Y758D02*
X1326Y758D01*
X1340Y758D02*
X1346Y758D01*
X1413Y758D02*
X1419Y758D01*
X1440Y758D02*
X1446Y758D01*
X1514Y758D02*
X1520Y758D01*
X1961Y758D02*
X1967Y758D01*
X0Y757D02*
X7Y757D01*
X1219Y757D02*
X1219Y757D01*
X1235Y757D02*
X1245Y757D01*
X1312Y757D02*
X1318Y757D01*
X1320Y757D02*
X1327Y757D01*
X1340Y757D02*
X1346Y757D01*
X1413Y757D02*
X1419Y757D01*
X1440Y757D02*
X1446Y757D01*
X1514Y757D02*
X1520Y757D01*
X1962Y757D02*
X1967Y757D01*
X0Y756D02*
X7Y756D01*
X1212Y756D02*
X1220Y756D01*
X1235Y756D02*
X1245Y756D01*
X1312Y756D02*
X1318Y756D01*
X1320Y756D02*
X1328Y756D01*
X1340Y756D02*
X1346Y756D01*
X1413Y756D02*
X1419Y756D01*
X1440Y756D02*
X1446Y756D01*
X1514Y756D02*
X1520Y756D01*
X1963Y756D02*
X1967Y756D01*
X0Y755D02*
X7Y755D01*
X1211Y755D02*
X1221Y755D01*
X1234Y755D02*
X1245Y755D01*
X1312Y755D02*
X1318Y755D01*
X1321Y755D02*
X1328Y755D01*
X1340Y755D02*
X1346Y755D01*
X1413Y755D02*
X1420Y755D01*
X1439Y755D02*
X1446Y755D01*
X1514Y755D02*
X1520Y755D01*
X1963Y755D02*
X1967Y755D01*
X0Y754D02*
X7Y754D01*
X1211Y754D02*
X1222Y754D01*
X1234Y754D02*
X1245Y754D01*
X1312Y754D02*
X1318Y754D01*
X1322Y754D02*
X1329Y754D01*
X1340Y754D02*
X1346Y754D01*
X1414Y754D02*
X1420Y754D01*
X1439Y754D02*
X1445Y754D01*
X1514Y754D02*
X1520Y754D01*
X1964Y754D02*
X1967Y754D01*
X0Y753D02*
X7Y753D01*
X1212Y753D02*
X1223Y753D01*
X1233Y753D02*
X1245Y753D01*
X1313Y753D02*
X1319Y753D01*
X1322Y753D02*
X1329Y753D01*
X1340Y753D02*
X1346Y753D01*
X1414Y753D02*
X1421Y753D01*
X1439Y753D02*
X1445Y753D01*
X1514Y753D02*
X1521Y753D01*
X1965Y753D02*
X1967Y753D01*
X0Y752D02*
X7Y752D01*
X1212Y752D02*
X1224Y752D01*
X1233Y752D02*
X1246Y752D01*
X1313Y752D02*
X1319Y752D01*
X1323Y752D02*
X1330Y752D01*
X1341Y752D02*
X1347Y752D01*
X1415Y752D02*
X1422Y752D01*
X1438Y752D02*
X1445Y752D01*
X1515Y752D02*
X1521Y752D01*
X1965Y752D02*
X1967Y752D01*
X0Y751D02*
X7Y751D01*
X1212Y751D02*
X1225Y751D01*
X1232Y751D02*
X1246Y751D01*
X1313Y751D02*
X1319Y751D01*
X1323Y751D02*
X1331Y751D01*
X1341Y751D02*
X1347Y751D01*
X1415Y751D02*
X1422Y751D01*
X1438Y751D02*
X1444Y751D01*
X1515Y751D02*
X1521Y751D01*
X1966Y751D02*
X1967Y751D01*
X0Y750D02*
X7Y750D01*
X299Y750D02*
X303Y750D01*
X1212Y750D02*
X1225Y750D01*
X1232Y750D02*
X1246Y750D01*
X1313Y750D02*
X1319Y750D01*
X1324Y750D02*
X1331Y750D01*
X1341Y750D02*
X1347Y750D01*
X1416Y750D02*
X1423Y750D01*
X1438Y750D02*
X1444Y750D01*
X1515Y750D02*
X1521Y750D01*
X1966Y750D02*
X1967Y750D01*
X0Y749D02*
X7Y749D01*
X298Y749D02*
X306Y749D01*
X1212Y749D02*
X1226Y749D01*
X1231Y749D02*
X1238Y749D01*
X1240Y749D02*
X1246Y749D01*
X1313Y749D02*
X1319Y749D01*
X1325Y749D02*
X1332Y749D01*
X1341Y749D02*
X1347Y749D01*
X1416Y749D02*
X1424Y749D01*
X1437Y749D02*
X1444Y749D01*
X1515Y749D02*
X1521Y749D01*
X1967Y749D02*
X1967Y749D01*
X0Y748D02*
X7Y748D01*
X298Y748D02*
X308Y748D01*
X1212Y748D02*
X1227Y748D01*
X1231Y748D02*
X1238Y748D01*
X1240Y748D02*
X1246Y748D01*
X1313Y748D02*
X1319Y748D01*
X1325Y748D02*
X1333Y748D01*
X1341Y748D02*
X1347Y748D01*
X1417Y748D02*
X1425Y748D01*
X1437Y748D02*
X1443Y748D01*
X1515Y748D02*
X1521Y748D01*
X1967Y748D02*
X1967Y748D01*
X0Y747D02*
X7Y747D01*
X298Y747D02*
X311Y747D01*
X1212Y747D02*
X1228Y747D01*
X1230Y747D02*
X1237Y747D01*
X1240Y747D02*
X1246Y747D01*
X1313Y747D02*
X1319Y747D01*
X1326Y747D02*
X1333Y747D01*
X1341Y747D02*
X1347Y747D01*
X1418Y747D02*
X1425Y747D01*
X1437Y747D02*
X1443Y747D01*
X1515Y747D02*
X1521Y747D01*
X0Y746D02*
X7Y746D01*
X297Y746D02*
X313Y746D01*
X326Y746D02*
X332Y746D01*
X1213Y746D02*
X1219Y746D01*
X1221Y746D02*
X1237Y746D01*
X1240Y746D02*
X1246Y746D01*
X1314Y746D02*
X1320Y746D01*
X1327Y746D02*
X1334Y746D01*
X1341Y746D02*
X1347Y746D01*
X1418Y746D02*
X1426Y746D01*
X1436Y746D02*
X1443Y746D01*
X1516Y746D02*
X1521Y746D01*
X0Y745D02*
X7Y745D01*
X297Y745D02*
X315Y745D01*
X325Y745D02*
X334Y745D01*
X1213Y745D02*
X1219Y745D01*
X1221Y745D02*
X1236Y745D01*
X1241Y745D02*
X1247Y745D01*
X1314Y745D02*
X1320Y745D01*
X1327Y745D02*
X1334Y745D01*
X1341Y745D02*
X1348Y745D01*
X1419Y745D02*
X1427Y745D01*
X1436Y745D02*
X1442Y745D01*
X1517Y745D02*
X1519Y745D01*
X0Y744D02*
X7Y744D01*
X296Y744D02*
X318Y744D01*
X324Y744D02*
X337Y744D01*
X1213Y744D02*
X1219Y744D01*
X1222Y744D02*
X1236Y744D01*
X1241Y744D02*
X1247Y744D01*
X1314Y744D02*
X1320Y744D01*
X1328Y744D02*
X1335Y744D01*
X1342Y744D02*
X1348Y744D01*
X1420Y744D02*
X1427Y744D01*
X1436Y744D02*
X1442Y744D01*
X0Y743D02*
X7Y743D01*
X296Y743D02*
X320Y743D01*
X323Y743D02*
X339Y743D01*
X1213Y743D02*
X1219Y743D01*
X1223Y743D02*
X1235Y743D01*
X1241Y743D02*
X1247Y743D01*
X1314Y743D02*
X1320Y743D01*
X1328Y743D02*
X1336Y743D01*
X1342Y743D02*
X1348Y743D01*
X1420Y743D02*
X1428Y743D01*
X1435Y743D02*
X1442Y743D01*
X0Y742D02*
X7Y742D01*
X295Y742D02*
X341Y742D01*
X1114Y742D02*
X1117Y742D01*
X1213Y742D02*
X1219Y742D01*
X1224Y742D02*
X1235Y742D01*
X1241Y742D02*
X1247Y742D01*
X1314Y742D02*
X1320Y742D01*
X1329Y742D02*
X1336Y742D01*
X1342Y742D02*
X1348Y742D01*
X1421Y742D02*
X1429Y742D01*
X1435Y742D02*
X1441Y742D01*
X0Y741D02*
X7Y741D01*
X295Y741D02*
X302Y741D01*
X307Y741D02*
X344Y741D01*
X1113Y741D02*
X1118Y741D01*
X1213Y741D02*
X1219Y741D01*
X1225Y741D02*
X1234Y741D01*
X1241Y741D02*
X1247Y741D01*
X1314Y741D02*
X1320Y741D01*
X1330Y741D02*
X1337Y741D01*
X1342Y741D02*
X1348Y741D01*
X1422Y741D02*
X1429Y741D01*
X1435Y741D02*
X1441Y741D01*
X0Y740D02*
X7Y740D01*
X295Y740D02*
X302Y740D01*
X309Y740D02*
X346Y740D01*
X1113Y740D02*
X1118Y740D01*
X1213Y740D02*
X1219Y740D01*
X1226Y740D02*
X1234Y740D01*
X1241Y740D02*
X1247Y740D01*
X1314Y740D02*
X1320Y740D01*
X1330Y740D02*
X1338Y740D01*
X1342Y740D02*
X1348Y740D01*
X1423Y740D02*
X1430Y740D01*
X1434Y740D02*
X1441Y740D01*
X1960Y740D02*
X1967Y740D01*
X0Y739D02*
X7Y739D01*
X294Y739D02*
X301Y739D01*
X312Y739D02*
X328Y739D01*
X330Y739D02*
X348Y739D01*
X1113Y739D02*
X1119Y739D01*
X1214Y739D02*
X1220Y739D01*
X1227Y739D02*
X1233Y739D01*
X1241Y739D02*
X1247Y739D01*
X1314Y739D02*
X1321Y739D01*
X1331Y739D02*
X1338Y739D01*
X1342Y739D02*
X1348Y739D01*
X1423Y739D02*
X1440Y739D01*
X1960Y739D02*
X1967Y739D01*
X0Y738D02*
X7Y738D01*
X294Y738D02*
X301Y738D01*
X314Y738D02*
X328Y738D01*
X333Y738D02*
X350Y738D01*
X1113Y738D02*
X1119Y738D01*
X1214Y738D02*
X1220Y738D01*
X1228Y738D02*
X1234Y738D01*
X1242Y738D02*
X1248Y738D01*
X1315Y738D02*
X1321Y738D01*
X1331Y738D02*
X1339Y738D01*
X1342Y738D02*
X1349Y738D01*
X1424Y738D02*
X1440Y738D01*
X1960Y738D02*
X1967Y738D01*
X0Y737D02*
X7Y737D01*
X293Y737D02*
X300Y737D01*
X316Y737D02*
X327Y737D01*
X335Y737D02*
X350Y737D01*
X1113Y737D02*
X1119Y737D01*
X1214Y737D02*
X1220Y737D01*
X1228Y737D02*
X1234Y737D01*
X1242Y737D02*
X1248Y737D01*
X1315Y737D02*
X1321Y737D01*
X1332Y737D02*
X1339Y737D01*
X1343Y737D02*
X1349Y737D01*
X1425Y737D02*
X1439Y737D01*
X1960Y737D02*
X1967Y737D01*
X0Y736D02*
X7Y736D01*
X293Y736D02*
X300Y736D01*
X319Y736D02*
X327Y736D01*
X337Y736D02*
X351Y736D01*
X1113Y736D02*
X1119Y736D01*
X1214Y736D02*
X1220Y736D01*
X1228Y736D02*
X1233Y736D01*
X1242Y736D02*
X1248Y736D01*
X1315Y736D02*
X1321Y736D01*
X1333Y736D02*
X1340Y736D01*
X1343Y736D02*
X1349Y736D01*
X1425Y736D02*
X1439Y736D01*
X1960Y736D02*
X1967Y736D01*
X0Y735D02*
X7Y735D01*
X293Y735D02*
X302Y735D01*
X320Y735D02*
X327Y735D01*
X340Y735D02*
X351Y735D01*
X1113Y735D02*
X1119Y735D01*
X1214Y735D02*
X1220Y735D01*
X1229Y735D02*
X1233Y735D01*
X1242Y735D02*
X1248Y735D01*
X1315Y735D02*
X1321Y735D01*
X1333Y735D02*
X1341Y735D01*
X1343Y735D02*
X1349Y735D01*
X1426Y735D02*
X1438Y735D01*
X1960Y735D02*
X1967Y735D01*
X0Y734D02*
X7Y734D01*
X292Y734D02*
X304Y734D01*
X319Y734D02*
X326Y734D01*
X342Y734D02*
X352Y734D01*
X1113Y734D02*
X1119Y734D01*
X1214Y734D02*
X1220Y734D01*
X1230Y734D02*
X1231Y734D01*
X1242Y734D02*
X1248Y734D01*
X1315Y734D02*
X1321Y734D01*
X1334Y734D02*
X1341Y734D01*
X1343Y734D02*
X1349Y734D01*
X1428Y734D02*
X1437Y734D01*
X1960Y734D02*
X1967Y734D01*
X0Y733D02*
X7Y733D01*
X292Y733D02*
X307Y733D01*
X319Y733D02*
X326Y733D01*
X345Y733D02*
X352Y733D01*
X1113Y733D02*
X1119Y733D01*
X1214Y733D02*
X1220Y733D01*
X1242Y733D02*
X1248Y733D01*
X1315Y733D02*
X1321Y733D01*
X1335Y733D02*
X1349Y733D01*
X1430Y733D02*
X1435Y733D01*
X1960Y733D02*
X1967Y733D01*
X0Y732D02*
X7Y732D01*
X293Y732D02*
X309Y732D01*
X318Y732D02*
X325Y732D01*
X345Y732D02*
X352Y732D01*
X1043Y732D02*
X1045Y732D01*
X1114Y732D02*
X1120Y732D01*
X1215Y732D02*
X1221Y732D01*
X1242Y732D02*
X1248Y732D01*
X1315Y732D02*
X1322Y732D01*
X1335Y732D02*
X1349Y732D01*
X1960Y732D02*
X1967Y732D01*
X0Y731D02*
X7Y731D01*
X294Y731D02*
X311Y731D01*
X318Y731D02*
X325Y731D01*
X345Y731D02*
X352Y731D01*
X1042Y731D02*
X1046Y731D01*
X1114Y731D02*
X1120Y731D01*
X1215Y731D02*
X1221Y731D01*
X1242Y731D02*
X1249Y731D01*
X1316Y731D02*
X1322Y731D01*
X1336Y731D02*
X1350Y731D01*
X1960Y731D02*
X1967Y731D01*
X0Y730D02*
X7Y730D01*
X296Y730D02*
X314Y730D01*
X317Y730D02*
X324Y730D01*
X344Y730D02*
X352Y730D01*
X1041Y730D02*
X1047Y730D01*
X1114Y730D02*
X1120Y730D01*
X1215Y730D02*
X1221Y730D01*
X1243Y730D02*
X1249Y730D01*
X1316Y730D02*
X1322Y730D01*
X1336Y730D02*
X1350Y730D01*
X1960Y730D02*
X1967Y730D01*
X0Y729D02*
X7Y729D01*
X298Y729D02*
X324Y729D01*
X344Y729D02*
X351Y729D01*
X1040Y729D02*
X1047Y729D01*
X1114Y729D02*
X1120Y729D01*
X1215Y729D02*
X1221Y729D01*
X1243Y729D02*
X1249Y729D01*
X1316Y729D02*
X1322Y729D01*
X1337Y729D02*
X1350Y729D01*
X0Y728D02*
X7Y728D01*
X300Y728D02*
X324Y728D01*
X344Y728D02*
X351Y728D01*
X1015Y728D02*
X1018Y728D01*
X1039Y728D02*
X1047Y728D01*
X1114Y728D02*
X1120Y728D01*
X1215Y728D02*
X1221Y728D01*
X1243Y728D02*
X1249Y728D01*
X1316Y728D02*
X1322Y728D01*
X1338Y728D02*
X1350Y728D01*
X0Y727D02*
X7Y727D01*
X303Y727D02*
X323Y727D01*
X343Y727D02*
X350Y727D01*
X1014Y727D02*
X1019Y727D01*
X1038Y727D02*
X1046Y727D01*
X1114Y727D02*
X1120Y727D01*
X1215Y727D02*
X1221Y727D01*
X1243Y727D02*
X1249Y727D01*
X1316Y727D02*
X1322Y727D01*
X1338Y727D02*
X1350Y727D01*
X0Y726D02*
X7Y726D01*
X305Y726D02*
X323Y726D01*
X343Y726D02*
X350Y726D01*
X1014Y726D02*
X1019Y726D01*
X1037Y726D02*
X1045Y726D01*
X1114Y726D02*
X1120Y726D01*
X1215Y726D02*
X1221Y726D01*
X1243Y726D02*
X1249Y726D01*
X1316Y726D02*
X1322Y726D01*
X1339Y726D02*
X1350Y726D01*
X0Y725D02*
X7Y725D01*
X308Y725D02*
X322Y725D01*
X342Y725D02*
X349Y725D01*
X1014Y725D02*
X1020Y725D01*
X1036Y725D02*
X1045Y725D01*
X1115Y725D02*
X1121Y725D01*
X1215Y725D02*
X1222Y725D01*
X1243Y725D02*
X1249Y725D01*
X1316Y725D02*
X1323Y725D01*
X1339Y725D02*
X1350Y725D01*
X0Y724D02*
X7Y724D01*
X310Y724D02*
X322Y724D01*
X342Y724D02*
X349Y724D01*
X1014Y724D02*
X1020Y724D01*
X1035Y724D02*
X1044Y724D01*
X1115Y724D02*
X1121Y724D01*
X1216Y724D02*
X1222Y724D01*
X1243Y724D02*
X1250Y724D01*
X1317Y724D02*
X1323Y724D01*
X1340Y724D02*
X1351Y724D01*
X0Y723D02*
X7Y723D01*
X312Y723D02*
X321Y723D01*
X342Y723D02*
X349Y723D01*
X1014Y723D02*
X1020Y723D01*
X1034Y723D02*
X1043Y723D01*
X1115Y723D02*
X1121Y723D01*
X1216Y723D02*
X1222Y723D01*
X1244Y723D02*
X1250Y723D01*
X1317Y723D02*
X1323Y723D01*
X1341Y723D02*
X1351Y723D01*
X1967Y723D02*
X1967Y723D01*
X0Y722D02*
X7Y722D01*
X314Y722D02*
X321Y722D01*
X341Y722D02*
X348Y722D01*
X1014Y722D02*
X1020Y722D01*
X1034Y722D02*
X1042Y722D01*
X1115Y722D02*
X1121Y722D01*
X1216Y722D02*
X1222Y722D01*
X1244Y722D02*
X1250Y722D01*
X1317Y722D02*
X1323Y722D01*
X1341Y722D02*
X1351Y722D01*
X1967Y722D02*
X1967Y722D01*
X0Y721D02*
X7Y721D01*
X314Y721D02*
X321Y721D01*
X341Y721D02*
X348Y721D01*
X1014Y721D02*
X1020Y721D01*
X1033Y721D02*
X1041Y721D01*
X1115Y721D02*
X1121Y721D01*
X1216Y721D02*
X1222Y721D01*
X1244Y721D02*
X1250Y721D01*
X1317Y721D02*
X1323Y721D01*
X1342Y721D02*
X1351Y721D01*
X1967Y721D02*
X1967Y721D01*
X0Y720D02*
X7Y720D01*
X314Y720D02*
X320Y720D01*
X340Y720D02*
X347Y720D01*
X1014Y720D02*
X1020Y720D01*
X1032Y720D02*
X1040Y720D01*
X1115Y720D02*
X1121Y720D01*
X1216Y720D02*
X1222Y720D01*
X1244Y720D02*
X1250Y720D01*
X1317Y720D02*
X1323Y720D01*
X1343Y720D02*
X1344Y720D01*
X1966Y720D02*
X1967Y720D01*
X0Y719D02*
X7Y719D01*
X314Y719D02*
X321Y719D01*
X340Y719D02*
X347Y719D01*
X1014Y719D02*
X1020Y719D01*
X1031Y719D02*
X1039Y719D01*
X1115Y719D02*
X1121Y719D01*
X1216Y719D02*
X1222Y719D01*
X1244Y719D02*
X1250Y719D01*
X1317Y719D02*
X1323Y719D01*
X1966Y719D02*
X1967Y719D01*
X0Y718D02*
X7Y718D01*
X314Y718D02*
X323Y718D01*
X339Y718D02*
X346Y718D01*
X1015Y718D02*
X1021Y718D01*
X1030Y718D02*
X1038Y718D01*
X1116Y718D02*
X1122Y718D01*
X1216Y718D02*
X1223Y718D01*
X1244Y718D02*
X1250Y718D01*
X1318Y718D02*
X1322Y718D01*
X1965Y718D02*
X1967Y718D01*
X0Y717D02*
X7Y717D01*
X314Y717D02*
X325Y717D01*
X339Y717D02*
X346Y717D01*
X940Y717D02*
X943Y717D01*
X1015Y717D02*
X1021Y717D01*
X1029Y717D02*
X1038Y717D01*
X1116Y717D02*
X1122Y717D01*
X1217Y717D02*
X1223Y717D01*
X1244Y717D02*
X1251Y717D01*
X1319Y717D02*
X1321Y717D01*
X1964Y717D02*
X1967Y717D01*
X0Y716D02*
X7Y716D01*
X314Y716D02*
X328Y716D01*
X339Y716D02*
X346Y716D01*
X939Y716D02*
X944Y716D01*
X1015Y716D02*
X1021Y716D01*
X1028Y716D02*
X1037Y716D01*
X1116Y716D02*
X1122Y716D01*
X1217Y716D02*
X1223Y716D01*
X1245Y716D02*
X1251Y716D01*
X1964Y716D02*
X1967Y716D01*
X0Y715D02*
X7Y715D01*
X315Y715D02*
X330Y715D01*
X338Y715D02*
X345Y715D01*
X938Y715D02*
X944Y715D01*
X1015Y715D02*
X1021Y715D01*
X1027Y715D02*
X1036Y715D01*
X1116Y715D02*
X1122Y715D01*
X1217Y715D02*
X1223Y715D01*
X1245Y715D02*
X1251Y715D01*
X1963Y715D02*
X1967Y715D01*
X0Y714D02*
X7Y714D01*
X316Y714D02*
X332Y714D01*
X338Y714D02*
X345Y714D01*
X938Y714D02*
X945Y714D01*
X1015Y714D02*
X1021Y714D01*
X1026Y714D02*
X1035Y714D01*
X1116Y714D02*
X1122Y714D01*
X1217Y714D02*
X1223Y714D01*
X1245Y714D02*
X1251Y714D01*
X1962Y714D02*
X1967Y714D01*
X0Y713D02*
X7Y713D01*
X317Y713D02*
X335Y713D01*
X337Y713D02*
X344Y713D01*
X939Y713D02*
X945Y713D01*
X1015Y713D02*
X1021Y713D01*
X1026Y713D02*
X1034Y713D01*
X1116Y713D02*
X1122Y713D01*
X1217Y713D02*
X1223Y713D01*
X1245Y713D02*
X1251Y713D01*
X1962Y713D02*
X1967Y713D01*
X0Y712D02*
X7Y712D01*
X319Y712D02*
X344Y712D01*
X939Y712D02*
X945Y712D01*
X1015Y712D02*
X1021Y712D01*
X1025Y712D02*
X1033Y712D01*
X1116Y712D02*
X1122Y712D01*
X1217Y712D02*
X1223Y712D01*
X1245Y712D02*
X1251Y712D01*
X1961Y712D02*
X1967Y712D01*
X0Y711D02*
X7Y711D01*
X322Y711D02*
X343Y711D01*
X939Y711D02*
X945Y711D01*
X1016Y711D02*
X1022Y711D01*
X1024Y711D02*
X1032Y711D01*
X1116Y711D02*
X1123Y711D01*
X1217Y711D02*
X1224Y711D01*
X1245Y711D02*
X1251Y711D01*
X1960Y711D02*
X1967Y711D01*
X0Y710D02*
X7Y710D01*
X324Y710D02*
X343Y710D01*
X939Y710D02*
X945Y710D01*
X1016Y710D02*
X1031Y710D01*
X1117Y710D02*
X1123Y710D01*
X1218Y710D02*
X1224Y710D01*
X1245Y710D02*
X1251Y710D01*
X1960Y710D02*
X1967Y710D01*
X0Y709D02*
X7Y709D01*
X326Y709D02*
X343Y709D01*
X939Y709D02*
X945Y709D01*
X1016Y709D02*
X1030Y709D01*
X1117Y709D02*
X1123Y709D01*
X1218Y709D02*
X1224Y709D01*
X1246Y709D02*
X1251Y709D01*
X1960Y709D02*
X1967Y709D01*
X0Y708D02*
X7Y708D01*
X329Y708D02*
X342Y708D01*
X939Y708D02*
X945Y708D01*
X1016Y708D02*
X1030Y708D01*
X1117Y708D02*
X1123Y708D01*
X1218Y708D02*
X1224Y708D01*
X1246Y708D02*
X1251Y708D01*
X1960Y708D02*
X1967Y708D01*
X0Y707D02*
X7Y707D01*
X331Y707D02*
X341Y707D01*
X939Y707D02*
X946Y707D01*
X1016Y707D02*
X1029Y707D01*
X1117Y707D02*
X1123Y707D01*
X1218Y707D02*
X1224Y707D01*
X1247Y707D02*
X1250Y707D01*
X1960Y707D02*
X1967Y707D01*
X0Y706D02*
X7Y706D01*
X334Y706D02*
X339Y706D01*
X940Y706D02*
X946Y706D01*
X1016Y706D02*
X1028Y706D01*
X1117Y706D02*
X1123Y706D01*
X1218Y706D02*
X1224Y706D01*
X1960Y706D02*
X1967Y706D01*
X0Y705D02*
X7Y705D01*
X940Y705D02*
X946Y705D01*
X1016Y705D02*
X1027Y705D01*
X1117Y705D02*
X1123Y705D01*
X1218Y705D02*
X1224Y705D01*
X1960Y705D02*
X1967Y705D01*
X0Y704D02*
X7Y704D01*
X842Y704D02*
X847Y704D01*
X940Y704D02*
X946Y704D01*
X1017Y704D02*
X1026Y704D01*
X1117Y704D02*
X1124Y704D01*
X1219Y704D02*
X1223Y704D01*
X1960Y704D02*
X1967Y704D01*
X0Y703D02*
X7Y703D01*
X835Y703D02*
X848Y703D01*
X940Y703D02*
X946Y703D01*
X1017Y703D02*
X1025Y703D01*
X1118Y703D02*
X1124Y703D01*
X1220Y703D02*
X1222Y703D01*
X1960Y703D02*
X1967Y703D01*
X0Y702D02*
X7Y702D01*
X828Y702D02*
X849Y702D01*
X940Y702D02*
X946Y702D01*
X1017Y702D02*
X1025Y702D01*
X1118Y702D02*
X1124Y702D01*
X1960Y702D02*
X1967Y702D01*
X0Y701D02*
X7Y701D01*
X821Y701D02*
X849Y701D01*
X940Y701D02*
X946Y701D01*
X1017Y701D02*
X1027Y701D01*
X1118Y701D02*
X1124Y701D01*
X1960Y701D02*
X1967Y701D01*
X0Y700D02*
X7Y700D01*
X817Y700D02*
X849Y700D01*
X940Y700D02*
X947Y700D01*
X1017Y700D02*
X1029Y700D01*
X1118Y700D02*
X1124Y700D01*
X1960Y700D02*
X1967Y700D01*
X0Y699D02*
X7Y699D01*
X816Y699D02*
X848Y699D01*
X941Y699D02*
X947Y699D01*
X1017Y699D02*
X1030Y699D01*
X1118Y699D02*
X1124Y699D01*
X1145Y699D02*
X1151Y699D01*
X1960Y699D02*
X1967Y699D01*
X0Y698D02*
X7Y698D01*
X816Y698D02*
X847Y698D01*
X941Y698D02*
X947Y698D01*
X1017Y698D02*
X1032Y698D01*
X1118Y698D02*
X1124Y698D01*
X1138Y698D02*
X1152Y698D01*
X1960Y698D02*
X1967Y698D01*
X0Y697D02*
X7Y697D01*
X816Y697D02*
X842Y697D01*
X941Y697D02*
X947Y697D01*
X1017Y697D02*
X1033Y697D01*
X1118Y697D02*
X1125Y697D01*
X1131Y697D02*
X1152Y697D01*
X1960Y697D02*
X1967Y697D01*
X0Y696D02*
X7Y696D01*
X816Y696D02*
X836Y696D01*
X941Y696D02*
X947Y696D01*
X1018Y696D02*
X1035Y696D01*
X1119Y696D02*
X1152Y696D01*
X1960Y696D02*
X1967Y696D01*
X0Y695D02*
X7Y695D01*
X816Y695D02*
X827Y695D01*
X829Y695D02*
X836Y695D01*
X941Y695D02*
X947Y695D01*
X1018Y695D02*
X1036Y695D01*
X1119Y695D02*
X1152Y695D01*
X1960Y695D02*
X1967Y695D01*
X0Y694D02*
X7Y694D01*
X818Y694D02*
X820Y694D01*
X830Y694D02*
X836Y694D01*
X941Y694D02*
X947Y694D01*
X1018Y694D02*
X1024Y694D01*
X1026Y694D02*
X1038Y694D01*
X1119Y694D02*
X1152Y694D01*
X1960Y694D02*
X1967Y694D01*
X0Y693D02*
X7Y693D01*
X830Y693D02*
X836Y693D01*
X941Y693D02*
X947Y693D01*
X1018Y693D02*
X1024Y693D01*
X1027Y693D02*
X1040Y693D01*
X1119Y693D02*
X1150Y693D01*
X1960Y693D02*
X1967Y693D01*
X0Y692D02*
X7Y692D01*
X830Y692D02*
X836Y692D01*
X942Y692D02*
X948Y692D01*
X1018Y692D02*
X1024Y692D01*
X1029Y692D02*
X1041Y692D01*
X1119Y692D02*
X1145Y692D01*
X1960Y692D02*
X1967Y692D01*
X0Y691D02*
X7Y691D01*
X830Y691D02*
X836Y691D01*
X942Y691D02*
X948Y691D01*
X1018Y691D02*
X1024Y691D01*
X1031Y691D02*
X1043Y691D01*
X1119Y691D02*
X1138Y691D01*
X1960Y691D02*
X1967Y691D01*
X0Y690D02*
X7Y690D01*
X745Y690D02*
X748Y690D01*
X830Y690D02*
X836Y690D01*
X942Y690D02*
X948Y690D01*
X1018Y690D02*
X1025Y690D01*
X1032Y690D02*
X1044Y690D01*
X1119Y690D02*
X1130Y690D01*
X1960Y690D02*
X1967Y690D01*
X0Y689D02*
X7Y689D01*
X744Y689D02*
X749Y689D01*
X831Y689D02*
X837Y689D01*
X942Y689D02*
X948Y689D01*
X1019Y689D02*
X1025Y689D01*
X1034Y689D02*
X1046Y689D01*
X1120Y689D02*
X1123Y689D01*
X1960Y689D02*
X1967Y689D01*
X0Y688D02*
X7Y688D01*
X744Y688D02*
X750Y688D01*
X831Y688D02*
X837Y688D01*
X942Y688D02*
X948Y688D01*
X1019Y688D02*
X1025Y688D01*
X1035Y688D02*
X1047Y688D01*
X1960Y688D02*
X1967Y688D01*
X0Y687D02*
X7Y687D01*
X744Y687D02*
X750Y687D01*
X831Y687D02*
X837Y687D01*
X942Y687D02*
X948Y687D01*
X1019Y687D02*
X1025Y687D01*
X1037Y687D02*
X1049Y687D01*
X1960Y687D02*
X1967Y687D01*
X0Y686D02*
X7Y686D01*
X718Y686D02*
X721Y686D01*
X744Y686D02*
X750Y686D01*
X831Y686D02*
X837Y686D01*
X942Y686D02*
X948Y686D01*
X1019Y686D02*
X1025Y686D01*
X1038Y686D02*
X1051Y686D01*
X1960Y686D02*
X1967Y686D01*
X0Y685D02*
X7Y685D01*
X717Y685D02*
X722Y685D01*
X744Y685D02*
X750Y685D01*
X831Y685D02*
X837Y685D01*
X923Y685D02*
X927Y685D01*
X943Y685D02*
X949Y685D01*
X1019Y685D02*
X1025Y685D01*
X1040Y685D02*
X1052Y685D01*
X1960Y685D02*
X1967Y685D01*
X0Y684D02*
X7Y684D01*
X717Y684D02*
X722Y684D01*
X744Y684D02*
X750Y684D01*
X831Y684D02*
X837Y684D01*
X922Y684D02*
X928Y684D01*
X943Y684D02*
X949Y684D01*
X1019Y684D02*
X1025Y684D01*
X1042Y684D02*
X1053Y684D01*
X1960Y684D02*
X1967Y684D01*
X0Y683D02*
X7Y683D01*
X717Y683D02*
X723Y683D01*
X744Y683D02*
X750Y683D01*
X831Y683D02*
X837Y683D01*
X922Y683D02*
X928Y683D01*
X943Y683D02*
X949Y683D01*
X1019Y683D02*
X1026Y683D01*
X1043Y683D02*
X1053Y683D01*
X1960Y683D02*
X1967Y683D01*
X0Y682D02*
X7Y682D01*
X717Y682D02*
X723Y682D01*
X745Y682D02*
X751Y682D01*
X832Y682D02*
X838Y682D01*
X922Y682D02*
X928Y682D01*
X943Y682D02*
X949Y682D01*
X1020Y682D02*
X1026Y682D01*
X1045Y682D02*
X1053Y682D01*
X1960Y682D02*
X1967Y682D01*
X0Y681D02*
X7Y681D01*
X717Y681D02*
X723Y681D01*
X745Y681D02*
X751Y681D01*
X832Y681D02*
X838Y681D01*
X922Y681D02*
X928Y681D01*
X943Y681D02*
X949Y681D01*
X1020Y681D02*
X1026Y681D01*
X1046Y681D02*
X1053Y681D01*
X1960Y681D02*
X1967Y681D01*
X0Y680D02*
X7Y680D01*
X717Y680D02*
X723Y680D01*
X745Y680D02*
X751Y680D01*
X832Y680D02*
X838Y680D01*
X922Y680D02*
X928Y680D01*
X943Y680D02*
X949Y680D01*
X1020Y680D02*
X1026Y680D01*
X1048Y680D02*
X1053Y680D01*
X1960Y680D02*
X1967Y680D01*
X0Y679D02*
X7Y679D01*
X717Y679D02*
X723Y679D01*
X745Y679D02*
X751Y679D01*
X832Y679D02*
X838Y679D01*
X922Y679D02*
X929Y679D01*
X943Y679D02*
X949Y679D01*
X1020Y679D02*
X1026Y679D01*
X1050Y679D02*
X1051Y679D01*
X1960Y679D02*
X1967Y679D01*
X0Y678D02*
X7Y678D01*
X717Y678D02*
X723Y678D01*
X745Y678D02*
X751Y678D01*
X832Y678D02*
X838Y678D01*
X923Y678D02*
X929Y678D01*
X944Y678D02*
X950Y678D01*
X1020Y678D02*
X1026Y678D01*
X1960Y678D02*
X1967Y678D01*
X0Y677D02*
X7Y677D01*
X717Y677D02*
X723Y677D01*
X745Y677D02*
X751Y677D01*
X832Y677D02*
X838Y677D01*
X923Y677D02*
X929Y677D01*
X944Y677D02*
X950Y677D01*
X1020Y677D02*
X1026Y677D01*
X1960Y677D02*
X1967Y677D01*
X0Y676D02*
X7Y676D01*
X643Y676D02*
X649Y676D01*
X718Y676D02*
X724Y676D01*
X745Y676D02*
X751Y676D01*
X832Y676D02*
X838Y676D01*
X923Y676D02*
X929Y676D01*
X944Y676D02*
X950Y676D01*
X1021Y676D02*
X1025Y676D01*
X1960Y676D02*
X1967Y676D01*
X0Y675D02*
X7Y675D01*
X636Y675D02*
X650Y675D01*
X718Y675D02*
X724Y675D01*
X745Y675D02*
X752Y675D01*
X833Y675D02*
X839Y675D01*
X923Y675D02*
X929Y675D01*
X944Y675D02*
X950Y675D01*
X1023Y675D02*
X1023Y675D01*
X1960Y675D02*
X1967Y675D01*
X0Y674D02*
X7Y674D01*
X634Y674D02*
X651Y674D01*
X718Y674D02*
X724Y674D01*
X746Y674D02*
X752Y674D01*
X833Y674D02*
X839Y674D01*
X923Y674D02*
X929Y674D01*
X944Y674D02*
X950Y674D01*
X1960Y674D02*
X1967Y674D01*
X0Y673D02*
X7Y673D01*
X632Y673D02*
X651Y673D01*
X718Y673D02*
X724Y673D01*
X746Y673D02*
X752Y673D01*
X833Y673D02*
X839Y673D01*
X923Y673D02*
X929Y673D01*
X944Y673D02*
X950Y673D01*
X1960Y673D02*
X1967Y673D01*
X0Y672D02*
X7Y672D01*
X631Y672D02*
X651Y672D01*
X718Y672D02*
X724Y672D01*
X746Y672D02*
X752Y672D01*
X833Y672D02*
X839Y672D01*
X923Y672D02*
X930Y672D01*
X943Y672D02*
X950Y672D01*
X1960Y672D02*
X1967Y672D01*
X0Y671D02*
X7Y671D01*
X630Y671D02*
X650Y671D01*
X718Y671D02*
X724Y671D01*
X746Y671D02*
X752Y671D01*
X833Y671D02*
X839Y671D01*
X924Y671D02*
X930Y671D01*
X943Y671D02*
X950Y671D01*
X1960Y671D02*
X1967Y671D01*
X0Y670D02*
X7Y670D01*
X630Y670D02*
X648Y670D01*
X718Y670D02*
X724Y670D01*
X746Y670D02*
X752Y670D01*
X833Y670D02*
X839Y670D01*
X924Y670D02*
X931Y670D01*
X939Y670D02*
X949Y670D01*
X1960Y670D02*
X1967Y670D01*
X0Y669D02*
X7Y669D01*
X629Y669D02*
X642Y669D01*
X718Y669D02*
X725Y669D01*
X746Y669D02*
X752Y669D01*
X833Y669D02*
X839Y669D01*
X924Y669D02*
X949Y669D01*
X1960Y669D02*
X1967Y669D01*
X0Y668D02*
X7Y668D01*
X629Y668D02*
X637Y668D01*
X719Y668D02*
X725Y668D01*
X746Y668D02*
X753Y668D01*
X833Y668D02*
X840Y668D01*
X925Y668D02*
X948Y668D01*
X1960Y668D02*
X1967Y668D01*
X0Y667D02*
X7Y667D01*
X628Y667D02*
X635Y667D01*
X719Y667D02*
X725Y667D01*
X746Y667D02*
X753Y667D01*
X834Y667D02*
X840Y667D01*
X925Y667D02*
X948Y667D01*
X1960Y667D02*
X1967Y667D01*
X0Y666D02*
X7Y666D01*
X628Y666D02*
X635Y666D01*
X719Y666D02*
X725Y666D01*
X741Y666D02*
X753Y666D01*
X834Y666D02*
X840Y666D01*
X926Y666D02*
X947Y666D01*
X1960Y666D02*
X1967Y666D01*
X0Y665D02*
X7Y665D01*
X627Y665D02*
X634Y665D01*
X719Y665D02*
X725Y665D01*
X734Y665D02*
X753Y665D01*
X834Y665D02*
X840Y665D01*
X927Y665D02*
X945Y665D01*
X1960Y665D02*
X1967Y665D01*
X0Y664D02*
X7Y664D01*
X626Y664D02*
X633Y664D01*
X719Y664D02*
X753Y664D01*
X834Y664D02*
X840Y664D01*
X928Y664D02*
X943Y664D01*
X1960Y664D02*
X1967Y664D01*
X0Y663D02*
X7Y663D01*
X626Y663D02*
X633Y663D01*
X719Y663D02*
X753Y663D01*
X834Y663D02*
X840Y663D01*
X930Y663D02*
X938Y663D01*
X1960Y663D02*
X1967Y663D01*
X0Y662D02*
X7Y662D01*
X543Y662D02*
X550Y662D01*
X625Y662D02*
X632Y662D01*
X719Y662D02*
X753Y662D01*
X834Y662D02*
X840Y662D01*
X1960Y662D02*
X1967Y662D01*
X0Y661D02*
X7Y661D01*
X261Y661D02*
X262Y661D01*
X536Y661D02*
X551Y661D01*
X625Y661D02*
X632Y661D01*
X720Y661D02*
X754Y661D01*
X834Y661D02*
X841Y661D01*
X1960Y661D02*
X1967Y661D01*
X0Y660D02*
X7Y660D01*
X261Y660D02*
X264Y660D01*
X529Y660D02*
X552Y660D01*
X624Y660D02*
X631Y660D01*
X720Y660D02*
X754Y660D01*
X835Y660D02*
X841Y660D01*
X1960Y660D02*
X1967Y660D01*
X0Y659D02*
X7Y659D01*
X260Y659D02*
X266Y659D01*
X522Y659D02*
X552Y659D01*
X624Y659D02*
X631Y659D01*
X720Y659D02*
X740Y659D01*
X748Y659D02*
X754Y659D01*
X835Y659D02*
X841Y659D01*
X1960Y659D02*
X1967Y659D01*
X0Y658D02*
X7Y658D01*
X260Y658D02*
X269Y658D01*
X518Y658D02*
X551Y658D01*
X623Y658D02*
X630Y658D01*
X720Y658D02*
X733Y658D01*
X748Y658D02*
X754Y658D01*
X835Y658D02*
X841Y658D01*
X1961Y658D02*
X1967Y658D01*
X0Y657D02*
X7Y657D01*
X259Y657D02*
X271Y657D01*
X518Y657D02*
X551Y657D01*
X622Y657D02*
X629Y657D01*
X720Y657D02*
X727Y657D01*
X748Y657D02*
X754Y657D01*
X835Y657D02*
X841Y657D01*
X846Y657D02*
X854Y657D01*
X1962Y657D02*
X1967Y657D01*
X0Y656D02*
X7Y656D01*
X259Y656D02*
X273Y656D01*
X518Y656D02*
X549Y656D01*
X622Y656D02*
X629Y656D01*
X720Y656D02*
X726Y656D01*
X748Y656D02*
X754Y656D01*
X835Y656D02*
X855Y656D01*
X1963Y656D02*
X1967Y656D01*
X0Y655D02*
X7Y655D01*
X259Y655D02*
X276Y655D01*
X519Y655D02*
X543Y655D01*
X621Y655D02*
X628Y655D01*
X720Y655D02*
X727Y655D01*
X748Y655D02*
X754Y655D01*
X832Y655D02*
X855Y655D01*
X1963Y655D02*
X1967Y655D01*
X0Y654D02*
X7Y654D01*
X258Y654D02*
X278Y654D01*
X519Y654D02*
X536Y654D01*
X621Y654D02*
X628Y654D01*
X721Y654D02*
X727Y654D01*
X748Y654D02*
X755Y654D01*
X825Y654D02*
X855Y654D01*
X1964Y654D02*
X1967Y654D01*
X0Y653D02*
X7Y653D01*
X258Y653D02*
X280Y653D01*
X519Y653D02*
X529Y653D01*
X621Y653D02*
X627Y653D01*
X721Y653D02*
X727Y653D01*
X749Y653D02*
X755Y653D01*
X823Y653D02*
X855Y653D01*
X1965Y653D02*
X1967Y653D01*
X0Y652D02*
X7Y652D01*
X257Y652D02*
X282Y652D01*
X519Y652D02*
X525Y652D01*
X621Y652D02*
X627Y652D01*
X721Y652D02*
X727Y652D01*
X749Y652D02*
X755Y652D01*
X822Y652D02*
X854Y652D01*
X1965Y652D02*
X1967Y652D01*
X0Y651D02*
X7Y651D01*
X257Y651D02*
X264Y651D01*
X267Y651D02*
X283Y651D01*
X519Y651D02*
X525Y651D01*
X620Y651D02*
X627Y651D01*
X721Y651D02*
X727Y651D01*
X749Y651D02*
X755Y651D01*
X822Y651D02*
X853Y651D01*
X1966Y651D02*
X1967Y651D01*
X0Y650D02*
X7Y650D01*
X256Y650D02*
X263Y650D01*
X270Y650D02*
X283Y650D01*
X519Y650D02*
X525Y650D01*
X620Y650D02*
X626Y650D01*
X721Y650D02*
X727Y650D01*
X749Y650D02*
X755Y650D01*
X822Y650D02*
X846Y650D01*
X1966Y650D02*
X1967Y650D01*
X0Y649D02*
X7Y649D01*
X256Y649D02*
X263Y649D01*
X272Y649D02*
X283Y649D01*
X519Y649D02*
X525Y649D01*
X620Y649D02*
X626Y649D01*
X721Y649D02*
X727Y649D01*
X749Y649D02*
X755Y649D01*
X823Y649D02*
X839Y649D01*
X1967Y649D02*
X1967Y649D01*
X0Y648D02*
X7Y648D01*
X256Y648D02*
X263Y648D01*
X274Y648D02*
X284Y648D01*
X443Y648D02*
X452Y648D01*
X519Y648D02*
X525Y648D01*
X620Y648D02*
X627Y648D01*
X721Y648D02*
X728Y648D01*
X749Y648D02*
X755Y648D01*
X823Y648D02*
X832Y648D01*
X1967Y648D02*
X1967Y648D01*
X0Y647D02*
X7Y647D01*
X255Y647D02*
X262Y647D01*
X277Y647D02*
X284Y647D01*
X436Y647D02*
X452Y647D01*
X520Y647D02*
X524Y647D01*
X621Y647D02*
X627Y647D01*
X648Y647D02*
X655Y647D01*
X722Y647D02*
X728Y647D01*
X749Y647D02*
X756Y647D01*
X0Y646D02*
X7Y646D01*
X255Y646D02*
X262Y646D01*
X278Y646D02*
X284Y646D01*
X429Y646D02*
X453Y646D01*
X520Y646D02*
X523Y646D01*
X621Y646D02*
X627Y646D01*
X641Y646D02*
X655Y646D01*
X722Y646D02*
X728Y646D01*
X750Y646D02*
X756Y646D01*
X0Y645D02*
X7Y645D01*
X254Y645D02*
X261Y645D01*
X278Y645D02*
X285Y645D01*
X422Y645D02*
X453Y645D01*
X520Y645D02*
X522Y645D01*
X621Y645D02*
X627Y645D01*
X640Y645D02*
X655Y645D01*
X722Y645D02*
X728Y645D01*
X750Y645D02*
X756Y645D01*
X0Y644D02*
X7Y644D01*
X254Y644D02*
X261Y644D01*
X278Y644D02*
X285Y644D01*
X419Y644D02*
X452Y644D01*
X520Y644D02*
X521Y644D01*
X621Y644D02*
X627Y644D01*
X639Y644D02*
X655Y644D01*
X722Y644D02*
X728Y644D01*
X750Y644D02*
X756Y644D01*
X0Y643D02*
X7Y643D01*
X253Y643D02*
X260Y643D01*
X279Y643D02*
X285Y643D01*
X419Y643D02*
X452Y643D01*
X520Y643D02*
X521Y643D01*
X621Y643D02*
X627Y643D01*
X639Y643D02*
X655Y643D01*
X722Y643D02*
X728Y643D01*
X750Y643D02*
X756Y643D01*
X0Y642D02*
X7Y642D01*
X253Y642D02*
X260Y642D01*
X279Y642D02*
X286Y642D01*
X419Y642D02*
X450Y642D01*
X520Y642D02*
X520Y642D01*
X621Y642D02*
X627Y642D01*
X639Y642D02*
X655Y642D01*
X722Y642D02*
X728Y642D01*
X750Y642D02*
X756Y642D01*
X0Y641D02*
X7Y641D01*
X253Y641D02*
X260Y641D01*
X279Y641D02*
X286Y641D01*
X420Y641D02*
X443Y641D01*
X520Y641D02*
X520Y641D01*
X621Y641D02*
X628Y641D01*
X639Y641D02*
X655Y641D01*
X722Y641D02*
X729Y641D01*
X750Y641D02*
X756Y641D01*
X0Y640D02*
X7Y640D01*
X252Y640D02*
X259Y640D01*
X280Y640D02*
X286Y640D01*
X420Y640D02*
X436Y640D01*
X622Y640D02*
X628Y640D01*
X640Y640D02*
X656Y640D01*
X723Y640D02*
X729Y640D01*
X750Y640D02*
X756Y640D01*
X1960Y640D02*
X1967Y640D01*
X0Y639D02*
X7Y639D01*
X252Y639D02*
X259Y639D01*
X280Y639D02*
X287Y639D01*
X420Y639D02*
X429Y639D01*
X622Y639D02*
X628Y639D01*
X650Y639D02*
X656Y639D01*
X723Y639D02*
X729Y639D01*
X751Y639D02*
X756Y639D01*
X1960Y639D02*
X1967Y639D01*
X0Y638D02*
X7Y638D01*
X251Y638D02*
X258Y638D01*
X280Y638D02*
X287Y638D01*
X420Y638D02*
X426Y638D01*
X622Y638D02*
X628Y638D01*
X650Y638D02*
X656Y638D01*
X723Y638D02*
X729Y638D01*
X751Y638D02*
X755Y638D01*
X1960Y638D02*
X1967Y638D01*
X0Y637D02*
X7Y637D01*
X251Y637D02*
X258Y637D01*
X280Y637D02*
X287Y637D01*
X420Y637D02*
X426Y637D01*
X622Y637D02*
X628Y637D01*
X650Y637D02*
X656Y637D01*
X723Y637D02*
X729Y637D01*
X1960Y637D02*
X1967Y637D01*
X0Y636D02*
X7Y636D01*
X250Y636D02*
X258Y636D01*
X281Y636D02*
X288Y636D01*
X420Y636D02*
X426Y636D01*
X622Y636D02*
X628Y636D01*
X650Y636D02*
X656Y636D01*
X723Y636D02*
X729Y636D01*
X1960Y636D02*
X1967Y636D01*
X0Y635D02*
X7Y635D01*
X250Y635D02*
X257Y635D01*
X281Y635D02*
X288Y635D01*
X420Y635D02*
X426Y635D01*
X622Y635D02*
X628Y635D01*
X650Y635D02*
X656Y635D01*
X724Y635D02*
X729Y635D01*
X1960Y635D02*
X1967Y635D01*
X0Y634D02*
X7Y634D01*
X250Y634D02*
X257Y634D01*
X281Y634D02*
X288Y634D01*
X420Y634D02*
X427Y634D01*
X622Y634D02*
X629Y634D01*
X650Y634D02*
X656Y634D01*
X724Y634D02*
X728Y634D01*
X1960Y634D02*
X1967Y634D01*
X0Y633D02*
X7Y633D01*
X249Y633D02*
X256Y633D01*
X282Y633D02*
X290Y633D01*
X337Y633D02*
X337Y633D01*
X421Y633D02*
X427Y633D01*
X623Y633D02*
X629Y633D01*
X650Y633D02*
X656Y633D01*
X1960Y633D02*
X1967Y633D01*
X0Y632D02*
X7Y632D01*
X249Y632D02*
X256Y632D01*
X282Y632D02*
X293Y632D01*
X330Y632D02*
X341Y632D01*
X421Y632D02*
X427Y632D01*
X623Y632D02*
X629Y632D01*
X650Y632D02*
X656Y632D01*
X1960Y632D02*
X1967Y632D01*
X0Y631D02*
X7Y631D01*
X248Y631D02*
X256Y631D01*
X282Y631D02*
X295Y631D01*
X323Y631D02*
X343Y631D01*
X421Y631D02*
X427Y631D01*
X623Y631D02*
X629Y631D01*
X650Y631D02*
X656Y631D01*
X1960Y631D02*
X1967Y631D01*
X0Y630D02*
X7Y630D01*
X248Y630D02*
X257Y630D01*
X283Y630D02*
X297Y630D01*
X321Y630D02*
X344Y630D01*
X421Y630D02*
X427Y630D01*
X623Y630D02*
X629Y630D01*
X649Y630D02*
X656Y630D01*
X1960Y630D02*
X1967Y630D01*
X0Y629D02*
X7Y629D01*
X248Y629D02*
X257Y629D01*
X283Y629D02*
X300Y629D01*
X321Y629D02*
X345Y629D01*
X421Y629D02*
X427Y629D01*
X623Y629D02*
X630Y629D01*
X647Y629D02*
X656Y629D01*
X0Y628D02*
X7Y628D01*
X249Y628D02*
X257Y628D01*
X284Y628D02*
X302Y628D01*
X321Y628D02*
X346Y628D01*
X421Y628D02*
X427Y628D01*
X623Y628D02*
X630Y628D01*
X640Y628D02*
X655Y628D01*
X0Y627D02*
X7Y627D01*
X250Y627D02*
X257Y627D01*
X286Y627D02*
X304Y627D01*
X321Y627D02*
X346Y627D01*
X421Y627D02*
X428Y627D01*
X624Y627D02*
X655Y627D01*
X0Y626D02*
X7Y626D01*
X251Y626D02*
X256Y626D01*
X289Y626D02*
X305Y626D01*
X321Y626D02*
X347Y626D01*
X422Y626D02*
X428Y626D01*
X624Y626D02*
X654Y626D01*
X0Y625D02*
X7Y625D01*
X254Y625D02*
X254Y625D01*
X291Y625D02*
X306Y625D01*
X322Y625D02*
X334Y625D01*
X340Y625D02*
X348Y625D01*
X422Y625D02*
X428Y625D01*
X625Y625D02*
X653Y625D01*
X0Y624D02*
X7Y624D01*
X293Y624D02*
X306Y624D01*
X328Y624D02*
X334Y624D01*
X341Y624D02*
X348Y624D01*
X422Y624D02*
X428Y624D01*
X625Y624D02*
X652Y624D01*
X0Y623D02*
X7Y623D01*
X296Y623D02*
X306Y623D01*
X328Y623D02*
X334Y623D01*
X342Y623D02*
X349Y623D01*
X422Y623D02*
X428Y623D01*
X435Y623D02*
X441Y623D01*
X523Y623D02*
X523Y623D01*
X626Y623D02*
X650Y623D01*
X1967Y623D02*
X1967Y623D01*
X0Y622D02*
X7Y622D01*
X298Y622D02*
X306Y622D01*
X328Y622D02*
X334Y622D01*
X342Y622D02*
X350Y622D01*
X422Y622D02*
X442Y622D01*
X523Y622D02*
X524Y622D01*
X628Y622D02*
X647Y622D01*
X1967Y622D02*
X1967Y622D01*
X0Y621D02*
X7Y621D01*
X251Y621D02*
X252Y621D01*
X300Y621D02*
X305Y621D01*
X328Y621D02*
X334Y621D01*
X343Y621D02*
X350Y621D01*
X422Y621D02*
X442Y621D01*
X523Y621D02*
X525Y621D01*
X629Y621D02*
X640Y621D01*
X1967Y621D02*
X1967Y621D01*
X0Y620D02*
X7Y620D01*
X244Y620D02*
X254Y620D01*
X328Y620D02*
X335Y620D01*
X344Y620D02*
X351Y620D01*
X422Y620D02*
X442Y620D01*
X523Y620D02*
X527Y620D01*
X1966Y620D02*
X1967Y620D01*
X0Y619D02*
X7Y619D01*
X238Y619D02*
X254Y619D01*
X329Y619D02*
X335Y619D01*
X344Y619D02*
X352Y619D01*
X423Y619D02*
X442Y619D01*
X524Y619D02*
X529Y619D01*
X1966Y619D02*
X1967Y619D01*
X0Y618D02*
X7Y618D01*
X235Y618D02*
X255Y618D01*
X329Y618D02*
X335Y618D01*
X345Y618D02*
X353Y618D01*
X423Y618D02*
X442Y618D01*
X524Y618D02*
X530Y618D01*
X1965Y618D02*
X1967Y618D01*
X0Y617D02*
X7Y617D01*
X234Y617D02*
X255Y617D01*
X329Y617D02*
X335Y617D01*
X346Y617D02*
X353Y617D01*
X423Y617D02*
X440Y617D01*
X524Y617D02*
X530Y617D01*
X1964Y617D02*
X1967Y617D01*
X0Y616D02*
X7Y616D01*
X233Y616D02*
X254Y616D01*
X329Y616D02*
X335Y616D01*
X346Y616D02*
X354Y616D01*
X423Y616D02*
X434Y616D01*
X524Y616D02*
X530Y616D01*
X1964Y616D02*
X1967Y616D01*
X0Y615D02*
X7Y615D01*
X232Y615D02*
X254Y615D01*
X329Y615D02*
X335Y615D01*
X347Y615D02*
X355Y615D01*
X423Y615D02*
X429Y615D01*
X524Y615D02*
X530Y615D01*
X1963Y615D02*
X1967Y615D01*
X0Y614D02*
X7Y614D01*
X231Y614D02*
X251Y614D01*
X329Y614D02*
X335Y614D01*
X348Y614D02*
X355Y614D01*
X423Y614D02*
X429Y614D01*
X524Y614D02*
X530Y614D01*
X1962Y614D02*
X1967Y614D01*
X0Y613D02*
X7Y613D01*
X231Y613D02*
X244Y613D01*
X329Y613D02*
X336Y613D01*
X349Y613D02*
X356Y613D01*
X423Y613D02*
X430Y613D01*
X524Y613D02*
X531Y613D01*
X1962Y613D02*
X1967Y613D01*
X0Y612D02*
X7Y612D01*
X230Y612D02*
X238Y612D01*
X330Y612D02*
X336Y612D01*
X349Y612D02*
X356Y612D01*
X424Y612D02*
X430Y612D01*
X525Y612D02*
X531Y612D01*
X1961Y612D02*
X1967Y612D01*
X0Y611D02*
X7Y611D01*
X230Y611D02*
X237Y611D01*
X330Y611D02*
X336Y611D01*
X350Y611D02*
X356Y611D01*
X424Y611D02*
X430Y611D01*
X525Y611D02*
X531Y611D01*
X1960Y611D02*
X1967Y611D01*
X0Y610D02*
X7Y610D01*
X230Y610D02*
X236Y610D01*
X330Y610D02*
X336Y610D01*
X350Y610D02*
X357Y610D01*
X424Y610D02*
X430Y610D01*
X525Y610D02*
X531Y610D01*
X1960Y610D02*
X1967Y610D01*
X0Y609D02*
X7Y609D01*
X229Y609D02*
X236Y609D01*
X330Y609D02*
X336Y609D01*
X351Y609D02*
X357Y609D01*
X424Y609D02*
X430Y609D01*
X525Y609D02*
X531Y609D01*
X1960Y609D02*
X1967Y609D01*
X0Y608D02*
X7Y608D01*
X229Y608D02*
X235Y608D01*
X330Y608D02*
X336Y608D01*
X351Y608D02*
X357Y608D01*
X424Y608D02*
X430Y608D01*
X525Y608D02*
X531Y608D01*
X1960Y608D02*
X1967Y608D01*
X0Y607D02*
X7Y607D01*
X229Y607D02*
X235Y607D01*
X330Y607D02*
X336Y607D01*
X351Y607D02*
X357Y607D01*
X424Y607D02*
X430Y607D01*
X526Y607D02*
X530Y607D01*
X1960Y607D02*
X1967Y607D01*
X0Y606D02*
X7Y606D01*
X228Y606D02*
X235Y606D01*
X330Y606D02*
X336Y606D01*
X351Y606D02*
X357Y606D01*
X424Y606D02*
X431Y606D01*
X527Y606D02*
X530Y606D01*
X1960Y606D02*
X1967Y606D01*
X0Y605D02*
X7Y605D01*
X138Y605D02*
X148Y605D01*
X228Y605D02*
X234Y605D01*
X331Y605D02*
X337Y605D01*
X351Y605D02*
X357Y605D01*
X425Y605D02*
X431Y605D01*
X1960Y605D02*
X1967Y605D01*
X0Y604D02*
X7Y604D01*
X130Y604D02*
X150Y604D01*
X228Y604D02*
X234Y604D01*
X331Y604D02*
X337Y604D01*
X351Y604D02*
X357Y604D01*
X425Y604D02*
X431Y604D01*
X1960Y604D02*
X1967Y604D01*
X0Y603D02*
X7Y603D01*
X123Y603D02*
X152Y603D01*
X227Y603D02*
X234Y603D01*
X331Y603D02*
X337Y603D01*
X350Y603D02*
X357Y603D01*
X425Y603D02*
X431Y603D01*
X1960Y603D02*
X1967Y603D01*
X0Y602D02*
X7Y602D01*
X122Y602D02*
X153Y602D01*
X227Y602D02*
X233Y602D01*
X331Y602D02*
X337Y602D01*
X350Y602D02*
X356Y602D01*
X425Y602D02*
X431Y602D01*
X455Y602D02*
X457Y602D01*
X1960Y602D02*
X1967Y602D01*
X0Y601D02*
X7Y601D01*
X122Y601D02*
X154Y601D01*
X227Y601D02*
X233Y601D01*
X331Y601D02*
X337Y601D01*
X350Y601D02*
X356Y601D01*
X425Y601D02*
X431Y601D01*
X448Y601D02*
X458Y601D01*
X1960Y601D02*
X1967Y601D01*
X0Y600D02*
X7Y600D01*
X122Y600D02*
X155Y600D01*
X226Y600D02*
X233Y600D01*
X331Y600D02*
X337Y600D01*
X349Y600D02*
X356Y600D01*
X425Y600D02*
X431Y600D01*
X441Y600D02*
X459Y600D01*
X1960Y600D02*
X1967Y600D01*
X0Y599D02*
X7Y599D01*
X123Y599D02*
X155Y599D01*
X226Y599D02*
X232Y599D01*
X331Y599D02*
X337Y599D01*
X349Y599D02*
X356Y599D01*
X425Y599D02*
X432Y599D01*
X434Y599D02*
X459Y599D01*
X1960Y599D02*
X1967Y599D01*
X0Y598D02*
X7Y598D01*
X123Y598D02*
X137Y598D01*
X147Y598D02*
X156Y598D01*
X226Y598D02*
X232Y598D01*
X332Y598D02*
X338Y598D01*
X349Y598D02*
X355Y598D01*
X426Y598D02*
X459Y598D01*
X1960Y598D02*
X1967Y598D01*
X0Y597D02*
X7Y597D01*
X123Y597D02*
X130Y597D01*
X149Y597D02*
X156Y597D01*
X225Y597D02*
X232Y597D01*
X332Y597D02*
X338Y597D01*
X348Y597D02*
X355Y597D01*
X426Y597D02*
X459Y597D01*
X1960Y597D02*
X1967Y597D01*
X0Y596D02*
X7Y596D01*
X123Y596D02*
X129Y596D01*
X150Y596D02*
X157Y596D01*
X225Y596D02*
X231Y596D01*
X332Y596D02*
X338Y596D01*
X348Y596D02*
X355Y596D01*
X426Y596D02*
X458Y596D01*
X1960Y596D02*
X1967Y596D01*
X0Y595D02*
X7Y595D01*
X123Y595D02*
X129Y595D01*
X150Y595D02*
X157Y595D01*
X225Y595D02*
X231Y595D01*
X332Y595D02*
X338Y595D01*
X348Y595D02*
X354Y595D01*
X426Y595D02*
X455Y595D01*
X1960Y595D02*
X1967Y595D01*
X0Y594D02*
X7Y594D01*
X123Y594D02*
X129Y594D01*
X151Y594D02*
X157Y594D01*
X225Y594D02*
X231Y594D01*
X332Y594D02*
X338Y594D01*
X347Y594D02*
X354Y594D01*
X426Y594D02*
X447Y594D01*
X1960Y594D02*
X1967Y594D01*
X0Y593D02*
X7Y593D01*
X123Y593D02*
X129Y593D01*
X151Y593D02*
X157Y593D01*
X225Y593D02*
X231Y593D01*
X332Y593D02*
X338Y593D01*
X347Y593D02*
X354Y593D01*
X426Y593D02*
X440Y593D01*
X1960Y593D02*
X1967Y593D01*
X0Y592D02*
X7Y592D01*
X123Y592D02*
X130Y592D01*
X151Y592D02*
X157Y592D01*
X225Y592D02*
X231Y592D01*
X332Y592D02*
X338Y592D01*
X347Y592D02*
X353Y592D01*
X426Y592D02*
X433Y592D01*
X1960Y592D02*
X1967Y592D01*
X0Y591D02*
X7Y591D01*
X39Y591D02*
X41Y591D01*
X124Y591D02*
X130Y591D01*
X151Y591D02*
X158Y591D01*
X225Y591D02*
X231Y591D01*
X333Y591D02*
X339Y591D01*
X346Y591D02*
X353Y591D01*
X1960Y591D02*
X1967Y591D01*
X0Y590D02*
X7Y590D01*
X38Y590D02*
X42Y590D01*
X124Y590D02*
X130Y590D01*
X152Y590D02*
X158Y590D01*
X225Y590D02*
X231Y590D01*
X333Y590D02*
X339Y590D01*
X346Y590D02*
X353Y590D01*
X1960Y590D02*
X1967Y590D01*
X0Y589D02*
X7Y589D01*
X37Y589D02*
X43Y589D01*
X124Y589D02*
X130Y589D01*
X152Y589D02*
X158Y589D01*
X225Y589D02*
X231Y589D01*
X333Y589D02*
X339Y589D01*
X346Y589D02*
X352Y589D01*
X1960Y589D02*
X1967Y589D01*
X0Y588D02*
X7Y588D01*
X37Y588D02*
X43Y588D01*
X124Y588D02*
X130Y588D01*
X151Y588D02*
X158Y588D01*
X225Y588D02*
X232Y588D01*
X333Y588D02*
X339Y588D01*
X345Y588D02*
X352Y588D01*
X1960Y588D02*
X1967Y588D01*
X0Y587D02*
X7Y587D01*
X37Y587D02*
X44Y587D01*
X124Y587D02*
X130Y587D01*
X151Y587D02*
X157Y587D01*
X225Y587D02*
X232Y587D01*
X333Y587D02*
X339Y587D01*
X344Y587D02*
X352Y587D01*
X1960Y587D02*
X1967Y587D01*
X0Y586D02*
X7Y586D01*
X37Y586D02*
X44Y586D01*
X124Y586D02*
X130Y586D01*
X151Y586D02*
X157Y586D01*
X226Y586D02*
X233Y586D01*
X333Y586D02*
X351Y586D01*
X1960Y586D02*
X1967Y586D01*
X0Y585D02*
X7Y585D01*
X37Y585D02*
X45Y585D01*
X124Y585D02*
X131Y585D01*
X150Y585D02*
X157Y585D01*
X226Y585D02*
X234Y585D01*
X333Y585D02*
X351Y585D01*
X1960Y585D02*
X1967Y585D01*
X0Y584D02*
X7Y584D01*
X36Y584D02*
X45Y584D01*
X125Y584D02*
X131Y584D01*
X149Y584D02*
X157Y584D01*
X227Y584D02*
X234Y584D01*
X329Y584D02*
X350Y584D01*
X1960Y584D02*
X1967Y584D01*
X0Y583D02*
X7Y583D01*
X36Y583D02*
X46Y583D01*
X125Y583D02*
X131Y583D01*
X148Y583D02*
X156Y583D01*
X227Y583D02*
X235Y583D01*
X328Y583D02*
X349Y583D01*
X1960Y583D02*
X1967Y583D01*
X0Y582D02*
X7Y582D01*
X36Y582D02*
X46Y582D01*
X125Y582D02*
X131Y582D01*
X143Y582D02*
X155Y582D01*
X228Y582D02*
X236Y582D01*
X327Y582D02*
X348Y582D01*
X1960Y582D02*
X1967Y582D01*
X0Y581D02*
X7Y581D01*
X36Y581D02*
X46Y581D01*
X125Y581D02*
X131Y581D01*
X136Y581D02*
X155Y581D01*
X229Y581D02*
X236Y581D01*
X327Y581D02*
X347Y581D01*
X1960Y581D02*
X1967Y581D01*
X0Y580D02*
X7Y580D01*
X36Y580D02*
X47Y580D01*
X125Y580D02*
X154Y580D01*
X230Y580D02*
X237Y580D01*
X327Y580D02*
X345Y580D01*
X1960Y580D02*
X1967Y580D01*
X0Y579D02*
X7Y579D01*
X36Y579D02*
X47Y579D01*
X125Y579D02*
X156Y579D01*
X230Y579D02*
X238Y579D01*
X328Y579D02*
X341Y579D01*
X1960Y579D02*
X1967Y579D01*
X0Y578D02*
X7Y578D01*
X36Y578D02*
X48Y578D01*
X125Y578D02*
X157Y578D01*
X231Y578D02*
X238Y578D01*
X329Y578D02*
X334Y578D01*
X1960Y578D02*
X1967Y578D01*
X0Y577D02*
X7Y577D01*
X35Y577D02*
X48Y577D01*
X126Y577D02*
X158Y577D01*
X232Y577D02*
X239Y577D01*
X1960Y577D02*
X1967Y577D01*
X0Y576D02*
X7Y576D01*
X35Y576D02*
X49Y576D01*
X126Y576D02*
X158Y576D01*
X232Y576D02*
X240Y576D01*
X1960Y576D02*
X1967Y576D01*
X0Y575D02*
X7Y575D01*
X35Y575D02*
X49Y575D01*
X126Y575D02*
X143Y575D01*
X150Y575D02*
X159Y575D01*
X233Y575D02*
X241Y575D01*
X1960Y575D02*
X1967Y575D01*
X0Y574D02*
X7Y574D01*
X35Y574D02*
X41Y574D01*
X43Y574D02*
X50Y574D01*
X126Y574D02*
X136Y574D01*
X152Y574D02*
X159Y574D01*
X234Y574D02*
X241Y574D01*
X256Y574D02*
X259Y574D01*
X1960Y574D02*
X1967Y574D01*
X0Y573D02*
X7Y573D01*
X35Y573D02*
X41Y573D01*
X43Y573D02*
X50Y573D01*
X126Y573D02*
X132Y573D01*
X153Y573D02*
X160Y573D01*
X234Y573D02*
X242Y573D01*
X249Y573D02*
X261Y573D01*
X1960Y573D02*
X1967Y573D01*
X0Y572D02*
X7Y572D01*
X35Y572D02*
X41Y572D01*
X44Y572D02*
X51Y572D01*
X126Y572D02*
X132Y572D01*
X154Y572D02*
X160Y572D01*
X235Y572D02*
X261Y572D01*
X1960Y572D02*
X1967Y572D01*
X0Y571D02*
X7Y571D01*
X35Y571D02*
X41Y571D01*
X44Y571D02*
X51Y571D01*
X126Y571D02*
X133Y571D01*
X154Y571D02*
X160Y571D01*
X236Y571D02*
X261Y571D01*
X1960Y571D02*
X1967Y571D01*
X0Y570D02*
X7Y570D01*
X34Y570D02*
X40Y570D01*
X45Y570D02*
X51Y570D01*
X127Y570D02*
X133Y570D01*
X154Y570D02*
X161Y570D01*
X236Y570D02*
X261Y570D01*
X1960Y570D02*
X1967Y570D01*
X0Y569D02*
X7Y569D01*
X34Y569D02*
X40Y569D01*
X45Y569D02*
X52Y569D01*
X127Y569D02*
X133Y569D01*
X155Y569D02*
X161Y569D01*
X237Y569D02*
X261Y569D01*
X1960Y569D02*
X1967Y569D01*
X0Y568D02*
X7Y568D01*
X34Y568D02*
X40Y568D01*
X46Y568D02*
X52Y568D01*
X127Y568D02*
X133Y568D01*
X155Y568D02*
X161Y568D01*
X238Y568D02*
X260Y568D01*
X1960Y568D02*
X1967Y568D01*
X0Y567D02*
X7Y567D01*
X34Y567D02*
X40Y567D01*
X46Y567D02*
X53Y567D01*
X127Y567D02*
X133Y567D01*
X155Y567D02*
X161Y567D01*
X240Y567D02*
X255Y567D01*
X1960Y567D02*
X1967Y567D01*
X0Y566D02*
X7Y566D01*
X34Y566D02*
X40Y566D01*
X47Y566D02*
X53Y566D01*
X127Y566D02*
X133Y566D01*
X155Y566D02*
X161Y566D01*
X242Y566D02*
X248Y566D01*
X1960Y566D02*
X1967Y566D01*
X0Y565D02*
X7Y565D01*
X34Y565D02*
X40Y565D01*
X47Y565D02*
X54Y565D01*
X127Y565D02*
X133Y565D01*
X155Y565D02*
X161Y565D01*
X1960Y565D02*
X1967Y565D01*
X0Y564D02*
X7Y564D01*
X33Y564D02*
X40Y564D01*
X47Y564D02*
X54Y564D01*
X127Y564D02*
X134Y564D01*
X155Y564D02*
X161Y564D01*
X1960Y564D02*
X1967Y564D01*
X0Y563D02*
X7Y563D01*
X33Y563D02*
X39Y563D01*
X48Y563D02*
X55Y563D01*
X128Y563D02*
X134Y563D01*
X154Y563D02*
X161Y563D01*
X1960Y563D02*
X1967Y563D01*
X0Y562D02*
X7Y562D01*
X33Y562D02*
X39Y562D01*
X48Y562D02*
X55Y562D01*
X128Y562D02*
X134Y562D01*
X154Y562D02*
X160Y562D01*
X1960Y562D02*
X1967Y562D01*
X0Y561D02*
X7Y561D01*
X33Y561D02*
X39Y561D01*
X49Y561D02*
X55Y561D01*
X128Y561D02*
X134Y561D01*
X153Y561D02*
X160Y561D01*
X1960Y561D02*
X1967Y561D01*
X0Y560D02*
X7Y560D01*
X33Y560D02*
X39Y560D01*
X49Y560D02*
X56Y560D01*
X128Y560D02*
X134Y560D01*
X152Y560D02*
X160Y560D01*
X1960Y560D02*
X1967Y560D01*
X0Y559D02*
X7Y559D01*
X33Y559D02*
X39Y559D01*
X50Y559D02*
X56Y559D01*
X128Y559D02*
X134Y559D01*
X149Y559D02*
X159Y559D01*
X1960Y559D02*
X1967Y559D01*
X0Y558D02*
X7Y558D01*
X33Y558D02*
X39Y558D01*
X50Y558D02*
X57Y558D01*
X128Y558D02*
X134Y558D01*
X142Y558D02*
X158Y558D01*
X1961Y558D02*
X1967Y558D01*
X0Y557D02*
X7Y557D01*
X32Y557D02*
X39Y557D01*
X50Y557D02*
X57Y557D01*
X128Y557D02*
X158Y557D01*
X1962Y557D02*
X1967Y557D01*
X0Y556D02*
X7Y556D01*
X32Y556D02*
X38Y556D01*
X43Y556D02*
X58Y556D01*
X129Y556D02*
X157Y556D01*
X1963Y556D02*
X1967Y556D01*
X0Y555D02*
X7Y555D01*
X32Y555D02*
X58Y555D01*
X129Y555D02*
X156Y555D01*
X1963Y555D02*
X1967Y555D01*
X0Y554D02*
X7Y554D01*
X32Y554D02*
X59Y554D01*
X129Y554D02*
X154Y554D01*
X1964Y554D02*
X1967Y554D01*
X0Y553D02*
X7Y553D01*
X32Y553D02*
X59Y553D01*
X129Y553D02*
X152Y553D01*
X1965Y553D02*
X1967Y553D01*
X0Y552D02*
X7Y552D01*
X32Y552D02*
X60Y552D01*
X129Y552D02*
X149Y552D01*
X1965Y552D02*
X1967Y552D01*
X0Y551D02*
X7Y551D01*
X32Y551D02*
X60Y551D01*
X129Y551D02*
X142Y551D01*
X1966Y551D02*
X1967Y551D01*
X0Y550D02*
X7Y550D01*
X31Y550D02*
X50Y550D01*
X54Y550D02*
X60Y550D01*
X129Y550D02*
X134Y550D01*
X248Y550D02*
X253Y550D01*
X1966Y550D02*
X1967Y550D01*
X0Y549D02*
X7Y549D01*
X31Y549D02*
X42Y549D01*
X54Y549D02*
X61Y549D01*
X247Y549D02*
X255Y549D01*
X1967Y549D02*
X1967Y549D01*
X0Y548D02*
X7Y548D01*
X31Y548D02*
X37Y548D01*
X55Y548D02*
X61Y548D01*
X247Y548D02*
X257Y548D01*
X1967Y548D02*
X1967Y548D01*
X0Y547D02*
X7Y547D01*
X31Y547D02*
X37Y547D01*
X55Y547D02*
X62Y547D01*
X246Y547D02*
X260Y547D01*
X0Y546D02*
X7Y546D01*
X31Y546D02*
X37Y546D01*
X56Y546D02*
X62Y546D01*
X246Y546D02*
X262Y546D01*
X0Y545D02*
X7Y545D01*
X31Y545D02*
X37Y545D01*
X56Y545D02*
X63Y545D01*
X246Y545D02*
X264Y545D01*
X0Y544D02*
X7Y544D01*
X31Y544D02*
X37Y544D01*
X56Y544D02*
X63Y544D01*
X245Y544D02*
X267Y544D01*
X0Y543D02*
X7Y543D01*
X30Y543D02*
X37Y543D01*
X57Y543D02*
X63Y543D01*
X245Y543D02*
X269Y543D01*
X0Y542D02*
X7Y542D01*
X30Y542D02*
X36Y542D01*
X57Y542D02*
X63Y542D01*
X244Y542D02*
X270Y542D01*
X0Y541D02*
X7Y541D01*
X30Y541D02*
X36Y541D01*
X58Y541D02*
X63Y541D01*
X244Y541D02*
X251Y541D01*
X256Y541D02*
X270Y541D01*
X0Y540D02*
X7Y540D01*
X30Y540D02*
X36Y540D01*
X59Y540D02*
X61Y540D01*
X244Y540D02*
X251Y540D01*
X258Y540D02*
X270Y540D01*
X1960Y540D02*
X1967Y540D01*
X0Y539D02*
X7Y539D01*
X30Y539D02*
X36Y539D01*
X210Y539D02*
X213Y539D01*
X243Y539D02*
X250Y539D01*
X260Y539D02*
X270Y539D01*
X1960Y539D02*
X1967Y539D01*
X0Y538D02*
X7Y538D01*
X30Y538D02*
X36Y538D01*
X209Y538D02*
X214Y538D01*
X243Y538D02*
X250Y538D01*
X263Y538D02*
X270Y538D01*
X1960Y538D02*
X1967Y538D01*
X0Y537D02*
X7Y537D01*
X31Y537D02*
X35Y537D01*
X208Y537D02*
X214Y537D01*
X242Y537D02*
X249Y537D01*
X263Y537D02*
X270Y537D01*
X1960Y537D02*
X1967Y537D01*
X0Y536D02*
X7Y536D01*
X32Y536D02*
X34Y536D01*
X208Y536D02*
X215Y536D01*
X242Y536D02*
X249Y536D01*
X262Y536D02*
X269Y536D01*
X1960Y536D02*
X1967Y536D01*
X0Y535D02*
X7Y535D01*
X208Y535D02*
X215Y535D01*
X241Y535D02*
X248Y535D01*
X262Y535D02*
X269Y535D01*
X1960Y535D02*
X1967Y535D01*
X0Y534D02*
X7Y534D01*
X207Y534D02*
X216Y534D01*
X241Y534D02*
X248Y534D01*
X261Y534D02*
X268Y534D01*
X1960Y534D02*
X1967Y534D01*
X0Y533D02*
X7Y533D01*
X207Y533D02*
X218Y533D01*
X241Y533D02*
X248Y533D01*
X261Y533D02*
X268Y533D01*
X1960Y533D02*
X1967Y533D01*
X0Y532D02*
X7Y532D01*
X207Y532D02*
X220Y532D01*
X240Y532D02*
X247Y532D01*
X260Y532D02*
X268Y532D01*
X1960Y532D02*
X1967Y532D01*
X0Y531D02*
X7Y531D01*
X207Y531D02*
X223Y531D01*
X240Y531D02*
X247Y531D01*
X260Y531D02*
X267Y531D01*
X1960Y531D02*
X1967Y531D01*
X0Y530D02*
X7Y530D01*
X208Y530D02*
X225Y530D01*
X239Y530D02*
X246Y530D01*
X260Y530D02*
X267Y530D01*
X1960Y530D02*
X1967Y530D01*
X0Y529D02*
X7Y529D01*
X209Y529D02*
X227Y529D01*
X239Y529D02*
X246Y529D01*
X259Y529D02*
X266Y529D01*
X0Y528D02*
X7Y528D01*
X212Y528D02*
X230Y528D01*
X238Y528D02*
X245Y528D01*
X259Y528D02*
X266Y528D01*
X0Y527D02*
X7Y527D01*
X214Y527D02*
X232Y527D01*
X238Y527D02*
X245Y527D01*
X258Y527D02*
X265Y527D01*
X0Y526D02*
X7Y526D01*
X217Y526D02*
X234Y526D01*
X238Y526D02*
X245Y526D01*
X258Y526D02*
X265Y526D01*
X0Y525D02*
X7Y525D01*
X219Y525D02*
X244Y525D01*
X257Y525D02*
X265Y525D01*
X0Y524D02*
X7Y524D01*
X221Y524D02*
X244Y524D01*
X257Y524D02*
X264Y524D01*
X0Y523D02*
X7Y523D01*
X224Y523D02*
X243Y523D01*
X257Y523D02*
X264Y523D01*
X1967Y523D02*
X1967Y523D01*
X0Y522D02*
X7Y522D01*
X226Y522D02*
X244Y522D01*
X256Y522D02*
X263Y522D01*
X1967Y522D02*
X1967Y522D01*
X0Y521D02*
X7Y521D01*
X228Y521D02*
X246Y521D01*
X256Y521D02*
X263Y521D01*
X1967Y521D02*
X1967Y521D01*
X0Y520D02*
X7Y520D01*
X231Y520D02*
X248Y520D01*
X255Y520D02*
X262Y520D01*
X1966Y520D02*
X1967Y520D01*
X0Y519D02*
X7Y519D01*
X233Y519D02*
X251Y519D01*
X255Y519D02*
X262Y519D01*
X1966Y519D02*
X1967Y519D01*
X0Y518D02*
X7Y518D01*
X235Y518D02*
X262Y518D01*
X1965Y518D02*
X1967Y518D01*
X0Y517D02*
X7Y517D01*
X238Y517D02*
X261Y517D01*
X1964Y517D02*
X1967Y517D01*
X0Y516D02*
X7Y516D01*
X240Y516D02*
X261Y516D01*
X1964Y516D02*
X1967Y516D01*
X0Y515D02*
X7Y515D01*
X242Y515D02*
X260Y515D01*
X1963Y515D02*
X1967Y515D01*
X0Y514D02*
X7Y514D01*
X245Y514D02*
X260Y514D01*
X1962Y514D02*
X1967Y514D01*
X0Y513D02*
X7Y513D01*
X247Y513D02*
X259Y513D01*
X1962Y513D02*
X1967Y513D01*
X0Y512D02*
X7Y512D01*
X250Y512D02*
X259Y512D01*
X1961Y512D02*
X1967Y512D01*
X0Y511D02*
X7Y511D01*
X252Y511D02*
X258Y511D01*
X1960Y511D02*
X1967Y511D01*
X0Y510D02*
X7Y510D01*
X254Y510D02*
X257Y510D01*
X1960Y510D02*
X1967Y510D01*
X0Y509D02*
X7Y509D01*
X1960Y509D02*
X1967Y509D01*
X0Y508D02*
X7Y508D01*
X1960Y508D02*
X1967Y508D01*
X0Y507D02*
X7Y507D01*
X1960Y507D02*
X1967Y507D01*
X0Y506D02*
X7Y506D01*
X1960Y506D02*
X1967Y506D01*
X0Y505D02*
X7Y505D01*
X1960Y505D02*
X1967Y505D01*
X0Y504D02*
X7Y504D01*
X1960Y504D02*
X1967Y504D01*
X0Y503D02*
X7Y503D01*
X1960Y503D02*
X1967Y503D01*
X0Y502D02*
X7Y502D01*
X1960Y502D02*
X1967Y502D01*
X0Y501D02*
X7Y501D01*
X1960Y501D02*
X1967Y501D01*
X0Y500D02*
X7Y500D01*
X1960Y500D02*
X1967Y500D01*
X0Y499D02*
X7Y499D01*
X1960Y499D02*
X1967Y499D01*
X0Y498D02*
X7Y498D01*
X1960Y498D02*
X1967Y498D01*
X0Y497D02*
X7Y497D01*
X1960Y497D02*
X1967Y497D01*
X0Y496D02*
X7Y496D01*
X1960Y496D02*
X1967Y496D01*
X0Y495D02*
X7Y495D01*
X1960Y495D02*
X1967Y495D01*
X0Y494D02*
X7Y494D01*
X1960Y494D02*
X1967Y494D01*
X0Y493D02*
X7Y493D01*
X1960Y493D02*
X1967Y493D01*
X0Y492D02*
X7Y492D01*
X1960Y492D02*
X1967Y492D01*
X0Y491D02*
X7Y491D01*
X1960Y491D02*
X1967Y491D01*
X0Y490D02*
X7Y490D01*
X1960Y490D02*
X1967Y490D01*
X0Y489D02*
X7Y489D01*
X1960Y489D02*
X1967Y489D01*
X0Y488D02*
X7Y488D01*
X1960Y488D02*
X1967Y488D01*
X0Y487D02*
X7Y487D01*
X1960Y487D02*
X1967Y487D01*
X0Y486D02*
X7Y486D01*
X1960Y486D02*
X1967Y486D01*
X0Y485D02*
X7Y485D01*
X1960Y485D02*
X1967Y485D01*
X0Y484D02*
X7Y484D01*
X1960Y484D02*
X1967Y484D01*
X0Y483D02*
X7Y483D01*
X1960Y483D02*
X1967Y483D01*
X0Y482D02*
X7Y482D01*
X1960Y482D02*
X1967Y482D01*
X0Y481D02*
X7Y481D01*
X1960Y481D02*
X1967Y481D01*
X0Y480D02*
X7Y480D01*
X1960Y480D02*
X1967Y480D01*
X0Y479D02*
X7Y479D01*
X1960Y479D02*
X1967Y479D01*
X0Y478D02*
X7Y478D01*
X1960Y478D02*
X1967Y478D01*
X0Y477D02*
X7Y477D01*
X1960Y477D02*
X1967Y477D01*
X0Y476D02*
X7Y476D01*
X1960Y476D02*
X1967Y476D01*
X0Y475D02*
X7Y475D01*
X1960Y475D02*
X1967Y475D01*
X0Y474D02*
X7Y474D01*
X1960Y474D02*
X1967Y474D01*
X0Y473D02*
X7Y473D01*
X1960Y473D02*
X1967Y473D01*
X0Y472D02*
X7Y472D01*
X1960Y472D02*
X1967Y472D01*
X0Y471D02*
X7Y471D01*
X1960Y471D02*
X1967Y471D01*
X0Y470D02*
X7Y470D01*
X1960Y470D02*
X1967Y470D01*
X0Y469D02*
X7Y469D01*
X1960Y469D02*
X1967Y469D01*
X0Y468D02*
X7Y468D01*
X1960Y468D02*
X1967Y468D01*
X0Y467D02*
X7Y467D01*
X1960Y467D02*
X1967Y467D01*
X0Y466D02*
X7Y466D01*
X1960Y466D02*
X1967Y466D01*
X0Y465D02*
X7Y465D01*
X179Y465D02*
X182Y465D01*
X1960Y465D02*
X1967Y465D01*
X0Y464D02*
X7Y464D01*
X178Y464D02*
X183Y464D01*
X1960Y464D02*
X1967Y464D01*
X0Y463D02*
X7Y463D01*
X177Y463D02*
X183Y463D01*
X1960Y463D02*
X1967Y463D01*
X0Y462D02*
X7Y462D01*
X177Y462D02*
X183Y462D01*
X1960Y462D02*
X1967Y462D01*
X0Y461D02*
X7Y461D01*
X176Y461D02*
X183Y461D01*
X1960Y461D02*
X1967Y461D01*
X0Y460D02*
X7Y460D01*
X176Y460D02*
X183Y460D01*
X1960Y460D02*
X1967Y460D01*
X0Y459D02*
X7Y459D01*
X175Y459D02*
X182Y459D01*
X1960Y459D02*
X1967Y459D01*
X0Y458D02*
X7Y458D01*
X175Y458D02*
X182Y458D01*
X1961Y458D02*
X1967Y458D01*
X0Y457D02*
X7Y457D01*
X174Y457D02*
X182Y457D01*
X1962Y457D02*
X1967Y457D01*
X0Y456D02*
X7Y456D01*
X174Y456D02*
X181Y456D01*
X1963Y456D02*
X1967Y456D01*
X0Y455D02*
X7Y455D01*
X174Y455D02*
X181Y455D01*
X1963Y455D02*
X1967Y455D01*
X0Y454D02*
X7Y454D01*
X173Y454D02*
X180Y454D01*
X202Y454D02*
X208Y454D01*
X1964Y454D02*
X1967Y454D01*
X0Y453D02*
X7Y453D01*
X173Y453D02*
X180Y453D01*
X201Y453D02*
X211Y453D01*
X1965Y453D02*
X1967Y453D01*
X0Y452D02*
X7Y452D01*
X172Y452D02*
X179Y452D01*
X200Y452D02*
X213Y452D01*
X1965Y452D02*
X1967Y452D01*
X0Y451D02*
X7Y451D01*
X172Y451D02*
X179Y451D01*
X199Y451D02*
X215Y451D01*
X1966Y451D02*
X1967Y451D01*
X0Y450D02*
X7Y450D01*
X172Y450D02*
X179Y450D01*
X199Y450D02*
X218Y450D01*
X1966Y450D02*
X1967Y450D01*
X0Y449D02*
X7Y449D01*
X171Y449D02*
X178Y449D01*
X198Y449D02*
X220Y449D01*
X1967Y449D02*
X1967Y449D01*
X0Y448D02*
X7Y448D01*
X171Y448D02*
X178Y448D01*
X198Y448D02*
X222Y448D01*
X1967Y448D02*
X1967Y448D01*
X0Y447D02*
X7Y447D01*
X170Y447D02*
X177Y447D01*
X197Y447D02*
X204Y447D01*
X207Y447D02*
X224Y447D01*
X0Y446D02*
X7Y446D01*
X170Y446D02*
X177Y446D01*
X197Y446D02*
X204Y446D01*
X209Y446D02*
X226Y446D01*
X0Y445D02*
X7Y445D01*
X169Y445D02*
X176Y445D01*
X196Y445D02*
X203Y445D01*
X211Y445D02*
X227Y445D01*
X0Y444D02*
X7Y444D01*
X169Y444D02*
X176Y444D01*
X196Y444D02*
X203Y444D01*
X214Y444D02*
X227Y444D01*
X0Y443D02*
X7Y443D01*
X169Y443D02*
X178Y443D01*
X196Y443D02*
X203Y443D01*
X216Y443D02*
X228Y443D01*
X0Y442D02*
X7Y442D01*
X168Y442D02*
X180Y442D01*
X195Y442D02*
X202Y442D01*
X218Y442D02*
X228Y442D01*
X0Y441D02*
X7Y441D01*
X168Y441D02*
X183Y441D01*
X195Y441D02*
X202Y441D01*
X221Y441D02*
X228Y441D01*
X0Y440D02*
X7Y440D01*
X168Y440D02*
X185Y440D01*
X194Y440D02*
X201Y440D01*
X221Y440D02*
X228Y440D01*
X1960Y440D02*
X1967Y440D01*
X0Y439D02*
X7Y439D01*
X170Y439D02*
X188Y439D01*
X194Y439D02*
X201Y439D01*
X221Y439D02*
X228Y439D01*
X1960Y439D02*
X1967Y439D01*
X0Y438D02*
X7Y438D01*
X172Y438D02*
X190Y438D01*
X193Y438D02*
X201Y438D01*
X221Y438D02*
X228Y438D01*
X1960Y438D02*
X1967Y438D01*
X0Y437D02*
X7Y437D01*
X174Y437D02*
X200Y437D01*
X220Y437D02*
X227Y437D01*
X1960Y437D02*
X1967Y437D01*
X0Y436D02*
X7Y436D01*
X177Y436D02*
X200Y436D01*
X220Y436D02*
X227Y436D01*
X1960Y436D02*
X1967Y436D01*
X0Y435D02*
X7Y435D01*
X179Y435D02*
X199Y435D01*
X219Y435D02*
X226Y435D01*
X1960Y435D02*
X1967Y435D01*
X0Y434D02*
X7Y434D01*
X181Y434D02*
X199Y434D01*
X219Y434D02*
X226Y434D01*
X1960Y434D02*
X1967Y434D01*
X0Y433D02*
X7Y433D01*
X184Y433D02*
X198Y433D01*
X218Y433D02*
X225Y433D01*
X1960Y433D02*
X1967Y433D01*
X0Y432D02*
X7Y432D01*
X186Y432D02*
X198Y432D01*
X218Y432D02*
X225Y432D01*
X1960Y432D02*
X1967Y432D01*
X0Y431D02*
X7Y431D01*
X188Y431D02*
X198Y431D01*
X218Y431D02*
X225Y431D01*
X1960Y431D02*
X1967Y431D01*
X0Y430D02*
X7Y430D01*
X191Y430D02*
X197Y430D01*
X217Y430D02*
X224Y430D01*
X1960Y430D02*
X1967Y430D01*
X0Y429D02*
X7Y429D01*
X193Y429D02*
X197Y429D01*
X217Y429D02*
X224Y429D01*
X0Y428D02*
X7Y428D01*
X195Y428D02*
X196Y428D01*
X216Y428D02*
X223Y428D01*
X0Y427D02*
X7Y427D01*
X216Y427D02*
X223Y427D01*
X0Y426D02*
X7Y426D01*
X215Y426D02*
X223Y426D01*
X0Y425D02*
X7Y425D01*
X215Y425D02*
X222Y425D01*
X0Y424D02*
X7Y424D01*
X214Y424D02*
X222Y424D01*
X0Y423D02*
X7Y423D01*
X213Y423D02*
X221Y423D01*
X1967Y423D02*
X1967Y423D01*
X0Y422D02*
X7Y422D01*
X212Y422D02*
X221Y422D01*
X1967Y422D02*
X1967Y422D01*
X0Y421D02*
X7Y421D01*
X211Y421D02*
X220Y421D01*
X1967Y421D02*
X1967Y421D01*
X0Y420D02*
X7Y420D01*
X210Y420D02*
X220Y420D01*
X1966Y420D02*
X1967Y420D01*
X0Y419D02*
X7Y419D01*
X209Y419D02*
X219Y419D01*
X1966Y419D02*
X1967Y419D01*
X0Y418D02*
X7Y418D01*
X209Y418D02*
X218Y418D01*
X1965Y418D02*
X1967Y418D01*
X0Y417D02*
X7Y417D01*
X209Y417D02*
X217Y417D01*
X1964Y417D02*
X1967Y417D01*
X0Y416D02*
X7Y416D01*
X209Y416D02*
X216Y416D01*
X1964Y416D02*
X1967Y416D01*
X0Y415D02*
X7Y415D01*
X209Y415D02*
X215Y415D01*
X1963Y415D02*
X1967Y415D01*
X0Y414D02*
X7Y414D01*
X210Y414D02*
X214Y414D01*
X1962Y414D02*
X1967Y414D01*
X0Y413D02*
X7Y413D01*
X1962Y413D02*
X1967Y413D01*
X0Y412D02*
X7Y412D01*
X1961Y412D02*
X1967Y412D01*
X0Y411D02*
X7Y411D01*
X1960Y411D02*
X1967Y411D01*
X0Y410D02*
X7Y410D01*
X1960Y410D02*
X1967Y410D01*
X0Y409D02*
X7Y409D01*
X1960Y409D02*
X1967Y409D01*
X0Y408D02*
X7Y408D01*
X1960Y408D02*
X1967Y408D01*
X0Y407D02*
X7Y407D01*
X1960Y407D02*
X1967Y407D01*
X0Y406D02*
X7Y406D01*
X1960Y406D02*
X1967Y406D01*
X0Y405D02*
X7Y405D01*
X1960Y405D02*
X1967Y405D01*
X0Y404D02*
X7Y404D01*
X1960Y404D02*
X1967Y404D01*
X0Y403D02*
X7Y403D01*
X1960Y403D02*
X1967Y403D01*
X0Y402D02*
X7Y402D01*
X1960Y402D02*
X1967Y402D01*
X0Y401D02*
X7Y401D01*
X1960Y401D02*
X1967Y401D01*
X0Y400D02*
X7Y400D01*
X1960Y400D02*
X1967Y400D01*
X0Y399D02*
X7Y399D01*
X1960Y399D02*
X1967Y399D01*
X0Y398D02*
X7Y398D01*
X1960Y398D02*
X1967Y398D01*
X0Y397D02*
X7Y397D01*
X1960Y397D02*
X1967Y397D01*
X0Y396D02*
X7Y396D01*
X1960Y396D02*
X1967Y396D01*
X0Y395D02*
X7Y395D01*
X1960Y395D02*
X1967Y395D01*
X0Y394D02*
X7Y394D01*
X1960Y394D02*
X1967Y394D01*
X0Y393D02*
X7Y393D01*
X1960Y393D02*
X1967Y393D01*
X0Y392D02*
X7Y392D01*
X1960Y392D02*
X1967Y392D01*
X0Y391D02*
X7Y391D01*
X1960Y391D02*
X1967Y391D01*
X0Y390D02*
X7Y390D01*
X1960Y390D02*
X1967Y390D01*
X0Y389D02*
X7Y389D01*
X1960Y389D02*
X1967Y389D01*
X0Y388D02*
X7Y388D01*
X1960Y388D02*
X1967Y388D01*
X0Y387D02*
X7Y387D01*
X1960Y387D02*
X1967Y387D01*
X0Y386D02*
X7Y386D01*
X1960Y386D02*
X1967Y386D01*
X0Y385D02*
X7Y385D01*
X1960Y385D02*
X1967Y385D01*
X0Y384D02*
X7Y384D01*
X1960Y384D02*
X1967Y384D01*
X0Y383D02*
X7Y383D01*
X1960Y383D02*
X1967Y383D01*
X0Y382D02*
X7Y382D01*
X1960Y382D02*
X1967Y382D01*
X0Y381D02*
X7Y381D01*
X1960Y381D02*
X1967Y381D01*
X0Y380D02*
X7Y380D01*
X1960Y380D02*
X1967Y380D01*
X0Y379D02*
X7Y379D01*
X1960Y379D02*
X1967Y379D01*
X0Y378D02*
X7Y378D01*
X1960Y378D02*
X1967Y378D01*
X0Y377D02*
X7Y377D01*
X1960Y377D02*
X1967Y377D01*
X0Y376D02*
X7Y376D01*
X1960Y376D02*
X1967Y376D01*
X0Y375D02*
X7Y375D01*
X1960Y375D02*
X1967Y375D01*
X0Y374D02*
X7Y374D01*
X1960Y374D02*
X1967Y374D01*
X0Y373D02*
X7Y373D01*
X1960Y373D02*
X1967Y373D01*
X0Y372D02*
X7Y372D01*
X1960Y372D02*
X1967Y372D01*
X0Y371D02*
X7Y371D01*
X1960Y371D02*
X1967Y371D01*
X0Y370D02*
X7Y370D01*
X1960Y370D02*
X1967Y370D01*
X0Y369D02*
X7Y369D01*
X1960Y369D02*
X1967Y369D01*
X0Y368D02*
X7Y368D01*
X1960Y368D02*
X1967Y368D01*
X0Y367D02*
X7Y367D01*
X1960Y367D02*
X1967Y367D01*
X0Y366D02*
X7Y366D01*
X1960Y366D02*
X1967Y366D01*
X0Y365D02*
X7Y365D01*
X1960Y365D02*
X1967Y365D01*
X0Y364D02*
X7Y364D01*
X1960Y364D02*
X1967Y364D01*
X0Y363D02*
X7Y363D01*
X1960Y363D02*
X1967Y363D01*
X0Y362D02*
X7Y362D01*
X1960Y362D02*
X1967Y362D01*
X0Y361D02*
X7Y361D01*
X1960Y361D02*
X1967Y361D01*
X0Y360D02*
X7Y360D01*
X141Y360D02*
X145Y360D01*
X1960Y360D02*
X1967Y360D01*
X0Y359D02*
X7Y359D01*
X140Y359D02*
X147Y359D01*
X1960Y359D02*
X1967Y359D01*
X0Y358D02*
X7Y358D01*
X139Y358D02*
X150Y358D01*
X1961Y358D02*
X1967Y358D01*
X0Y357D02*
X7Y357D01*
X139Y357D02*
X152Y357D01*
X1962Y357D02*
X1967Y357D01*
X0Y356D02*
X7Y356D01*
X140Y356D02*
X154Y356D01*
X1963Y356D02*
X1967Y356D01*
X0Y355D02*
X7Y355D01*
X140Y355D02*
X157Y355D01*
X1963Y355D02*
X1967Y355D01*
X0Y354D02*
X7Y354D01*
X141Y354D02*
X159Y354D01*
X165Y354D02*
X168Y354D01*
X1964Y354D02*
X1967Y354D01*
X0Y353D02*
X7Y353D01*
X144Y353D02*
X162Y353D01*
X164Y353D02*
X169Y353D01*
X1965Y353D02*
X1967Y353D01*
X0Y352D02*
X7Y352D01*
X146Y352D02*
X170Y352D01*
X1965Y352D02*
X1967Y352D01*
X0Y351D02*
X7Y351D01*
X148Y351D02*
X170Y351D01*
X1966Y351D02*
X1967Y351D01*
X0Y350D02*
X7Y350D01*
X151Y350D02*
X170Y350D01*
X1966Y350D02*
X1967Y350D01*
X0Y349D02*
X7Y349D01*
X153Y349D02*
X171Y349D01*
X1967Y349D02*
X1967Y349D01*
X0Y348D02*
X7Y348D01*
X155Y348D02*
X173Y348D01*
X1967Y348D02*
X1967Y348D01*
X0Y347D02*
X7Y347D01*
X158Y347D02*
X176Y347D01*
X0Y346D02*
X7Y346D01*
X160Y346D02*
X178Y346D01*
X0Y345D02*
X7Y345D01*
X161Y345D02*
X180Y345D01*
X0Y344D02*
X7Y344D01*
X160Y344D02*
X183Y344D01*
X0Y343D02*
X7Y343D01*
X127Y343D02*
X129Y343D01*
X160Y343D02*
X184Y343D01*
X0Y342D02*
X7Y342D01*
X126Y342D02*
X131Y342D01*
X159Y342D02*
X167Y342D01*
X169Y342D02*
X185Y342D01*
X0Y341D02*
X7Y341D01*
X125Y341D02*
X134Y341D01*
X159Y341D02*
X166Y341D01*
X172Y341D02*
X186Y341D01*
X0Y340D02*
X7Y340D01*
X125Y340D02*
X136Y340D01*
X159Y340D02*
X166Y340D01*
X174Y340D02*
X186Y340D01*
X1960Y340D02*
X1967Y340D01*
X0Y339D02*
X7Y339D01*
X125Y339D02*
X139Y339D01*
X158Y339D02*
X165Y339D01*
X177Y339D02*
X186Y339D01*
X1960Y339D02*
X1967Y339D01*
X0Y338D02*
X7Y338D01*
X125Y338D02*
X141Y338D01*
X158Y338D02*
X165Y338D01*
X179Y338D02*
X185Y338D01*
X1960Y338D02*
X1967Y338D01*
X0Y337D02*
X7Y337D01*
X126Y337D02*
X143Y337D01*
X157Y337D02*
X164Y337D01*
X181Y337D02*
X184Y337D01*
X1960Y337D02*
X1967Y337D01*
X0Y336D02*
X7Y336D01*
X128Y336D02*
X146Y336D01*
X157Y336D02*
X164Y336D01*
X1960Y336D02*
X1967Y336D01*
X0Y335D02*
X7Y335D01*
X130Y335D02*
X148Y335D01*
X157Y335D02*
X164Y335D01*
X1960Y335D02*
X1967Y335D01*
X0Y334D02*
X7Y334D01*
X132Y334D02*
X150Y334D01*
X156Y334D02*
X163Y334D01*
X1960Y334D02*
X1967Y334D01*
X0Y333D02*
X7Y333D01*
X135Y333D02*
X153Y333D01*
X156Y333D02*
X163Y333D01*
X1960Y333D02*
X1967Y333D01*
X0Y332D02*
X7Y332D01*
X137Y332D02*
X162Y332D01*
X1960Y332D02*
X1967Y332D01*
X0Y331D02*
X7Y331D01*
X139Y331D02*
X162Y331D01*
X1960Y331D02*
X1967Y331D01*
X0Y330D02*
X7Y330D01*
X142Y330D02*
X161Y330D01*
X1960Y330D02*
X1967Y330D01*
X0Y329D02*
X7Y329D01*
X144Y329D02*
X161Y329D01*
X0Y328D02*
X7Y328D01*
X146Y328D02*
X161Y328D01*
X0Y327D02*
X7Y327D01*
X149Y327D02*
X160Y327D01*
X0Y326D02*
X7Y326D01*
X151Y326D02*
X160Y326D01*
X0Y325D02*
X7Y325D01*
X154Y325D02*
X159Y325D01*
X0Y324D02*
X7Y324D01*
X156Y324D02*
X159Y324D01*
X0Y323D02*
X7Y323D01*
X158Y323D02*
X158Y323D01*
X1967Y323D02*
X1967Y323D01*
X0Y322D02*
X7Y322D01*
X1967Y322D02*
X1967Y322D01*
X0Y321D02*
X7Y321D01*
X1967Y321D02*
X1967Y321D01*
X0Y320D02*
X7Y320D01*
X1966Y320D02*
X1967Y320D01*
X0Y319D02*
X7Y319D01*
X1966Y319D02*
X1967Y319D01*
X0Y318D02*
X7Y318D01*
X1965Y318D02*
X1967Y318D01*
X0Y317D02*
X7Y317D01*
X1964Y317D02*
X1967Y317D01*
X0Y316D02*
X7Y316D01*
X1964Y316D02*
X1967Y316D01*
X0Y315D02*
X7Y315D01*
X1963Y315D02*
X1967Y315D01*
X0Y314D02*
X7Y314D01*
X1962Y314D02*
X1967Y314D01*
X0Y313D02*
X7Y313D01*
X1961Y313D02*
X1967Y313D01*
X0Y312D02*
X7Y312D01*
X1961Y312D02*
X1967Y312D01*
X0Y311D02*
X7Y311D01*
X1960Y311D02*
X1967Y311D01*
X0Y310D02*
X7Y310D01*
X1960Y310D02*
X1967Y310D01*
X0Y309D02*
X7Y309D01*
X1960Y309D02*
X1967Y309D01*
X0Y308D02*
X7Y308D01*
X1960Y308D02*
X1967Y308D01*
X0Y307D02*
X7Y307D01*
X1960Y307D02*
X1967Y307D01*
X0Y306D02*
X7Y306D01*
X1960Y306D02*
X1967Y306D01*
X0Y305D02*
X7Y305D01*
X1960Y305D02*
X1967Y305D01*
X0Y304D02*
X7Y304D01*
X1960Y304D02*
X1967Y304D01*
X0Y303D02*
X7Y303D01*
X1960Y303D02*
X1967Y303D01*
X0Y302D02*
X7Y302D01*
X1960Y302D02*
X1967Y302D01*
X0Y301D02*
X7Y301D01*
X1960Y301D02*
X1967Y301D01*
X0Y300D02*
X7Y300D01*
X1960Y300D02*
X1967Y300D01*
X0Y299D02*
X7Y299D01*
X1960Y299D02*
X1967Y299D01*
X0Y298D02*
X7Y298D01*
X1960Y298D02*
X1967Y298D01*
X0Y297D02*
X7Y297D01*
X1960Y297D02*
X1967Y297D01*
X0Y296D02*
X7Y296D01*
X1960Y296D02*
X1967Y296D01*
X0Y295D02*
X7Y295D01*
X1960Y295D02*
X1967Y295D01*
X0Y294D02*
X7Y294D01*
X1960Y294D02*
X1967Y294D01*
X0Y293D02*
X7Y293D01*
X1960Y293D02*
X1967Y293D01*
X0Y292D02*
X7Y292D01*
X1960Y292D02*
X1967Y292D01*
X0Y291D02*
X7Y291D01*
X1960Y291D02*
X1967Y291D01*
X0Y290D02*
X7Y290D01*
X1960Y290D02*
X1967Y290D01*
X0Y289D02*
X7Y289D01*
X1960Y289D02*
X1967Y289D01*
X0Y288D02*
X7Y288D01*
X1960Y288D02*
X1967Y288D01*
X0Y287D02*
X7Y287D01*
X1960Y287D02*
X1967Y287D01*
X0Y286D02*
X7Y286D01*
X1960Y286D02*
X1967Y286D01*
X0Y285D02*
X7Y285D01*
X1960Y285D02*
X1967Y285D01*
X0Y284D02*
X7Y284D01*
X1960Y284D02*
X1967Y284D01*
X0Y283D02*
X7Y283D01*
X1960Y283D02*
X1967Y283D01*
X0Y282D02*
X7Y282D01*
X1960Y282D02*
X1967Y282D01*
X0Y281D02*
X7Y281D01*
X1960Y281D02*
X1967Y281D01*
X0Y280D02*
X7Y280D01*
X1960Y280D02*
X1967Y280D01*
X0Y279D02*
X7Y279D01*
X1960Y279D02*
X1967Y279D01*
X0Y278D02*
X7Y278D01*
X1960Y278D02*
X1967Y278D01*
X0Y277D02*
X7Y277D01*
X1960Y277D02*
X1967Y277D01*
X0Y276D02*
X7Y276D01*
X1960Y276D02*
X1967Y276D01*
X0Y275D02*
X7Y275D01*
X1960Y275D02*
X1967Y275D01*
X0Y274D02*
X7Y274D01*
X1960Y274D02*
X1967Y274D01*
X0Y273D02*
X7Y273D01*
X1960Y273D02*
X1967Y273D01*
X0Y272D02*
X7Y272D01*
X1960Y272D02*
X1967Y272D01*
X0Y271D02*
X7Y271D01*
X1960Y271D02*
X1967Y271D01*
X0Y270D02*
X7Y270D01*
X1960Y270D02*
X1967Y270D01*
X0Y269D02*
X7Y269D01*
X96Y269D02*
X103Y269D01*
X1960Y269D02*
X1967Y269D01*
X0Y268D02*
X7Y268D01*
X95Y268D02*
X105Y268D01*
X1960Y268D02*
X1967Y268D01*
X0Y267D02*
X7Y267D01*
X94Y267D02*
X108Y267D01*
X1960Y267D02*
X1967Y267D01*
X0Y266D02*
X7Y266D01*
X93Y266D02*
X110Y266D01*
X1960Y266D02*
X1967Y266D01*
X0Y265D02*
X7Y265D01*
X93Y265D02*
X112Y265D01*
X1960Y265D02*
X1967Y265D01*
X0Y264D02*
X7Y264D01*
X93Y264D02*
X115Y264D01*
X1960Y264D02*
X1967Y264D01*
X0Y263D02*
X7Y263D01*
X92Y263D02*
X117Y263D01*
X1960Y263D02*
X1967Y263D01*
X0Y262D02*
X7Y262D01*
X92Y262D02*
X99Y262D01*
X102Y262D02*
X118Y262D01*
X1960Y262D02*
X1967Y262D01*
X0Y261D02*
X7Y261D01*
X91Y261D02*
X98Y261D01*
X104Y261D02*
X119Y261D01*
X1960Y261D02*
X1967Y261D01*
X0Y260D02*
X7Y260D01*
X91Y260D02*
X98Y260D01*
X106Y260D02*
X119Y260D01*
X1960Y260D02*
X1967Y260D01*
X0Y259D02*
X7Y259D01*
X90Y259D02*
X98Y259D01*
X109Y259D02*
X120Y259D01*
X124Y259D02*
X125Y259D01*
X1960Y259D02*
X1967Y259D01*
X0Y258D02*
X7Y258D01*
X90Y258D02*
X97Y258D01*
X111Y258D02*
X129Y258D01*
X1961Y258D02*
X1967Y258D01*
X0Y257D02*
X7Y257D01*
X90Y257D02*
X97Y257D01*
X113Y257D02*
X131Y257D01*
X1962Y257D02*
X1967Y257D01*
X0Y256D02*
X7Y256D01*
X89Y256D02*
X96Y256D01*
X114Y256D02*
X134Y256D01*
X1963Y256D02*
X1967Y256D01*
X0Y255D02*
X7Y255D01*
X89Y255D02*
X96Y255D01*
X115Y255D02*
X136Y255D01*
X1963Y255D02*
X1967Y255D01*
X0Y254D02*
X7Y254D01*
X88Y254D02*
X95Y254D01*
X115Y254D02*
X138Y254D01*
X1964Y254D02*
X1967Y254D01*
X0Y253D02*
X7Y253D01*
X88Y253D02*
X95Y253D01*
X115Y253D02*
X141Y253D01*
X1965Y253D02*
X1967Y253D01*
X0Y252D02*
X7Y252D01*
X87Y252D02*
X95Y252D01*
X115Y252D02*
X142Y252D01*
X1965Y252D02*
X1967Y252D01*
X0Y251D02*
X7Y251D01*
X87Y251D02*
X94Y251D01*
X114Y251D02*
X122Y251D01*
X127Y251D02*
X144Y251D01*
X1966Y251D02*
X1967Y251D01*
X0Y250D02*
X7Y250D01*
X87Y250D02*
X94Y250D01*
X114Y250D02*
X121Y250D01*
X130Y250D02*
X144Y250D01*
X1966Y250D02*
X1967Y250D01*
X0Y249D02*
X7Y249D01*
X86Y249D02*
X93Y249D01*
X113Y249D02*
X120Y249D01*
X132Y249D02*
X145Y249D01*
X1967Y249D02*
X1967Y249D01*
X0Y248D02*
X7Y248D01*
X86Y248D02*
X93Y248D01*
X113Y248D02*
X120Y248D01*
X134Y248D02*
X145Y248D01*
X1967Y248D02*
X1967Y248D01*
X0Y247D02*
X7Y247D01*
X85Y247D02*
X92Y247D01*
X112Y247D02*
X119Y247D01*
X137Y247D02*
X145Y247D01*
X0Y246D02*
X7Y246D01*
X85Y246D02*
X92Y246D01*
X112Y246D02*
X119Y246D01*
X139Y246D02*
X145Y246D01*
X0Y245D02*
X7Y245D01*
X85Y245D02*
X92Y245D01*
X112Y245D02*
X119Y245D01*
X139Y245D02*
X145Y245D01*
X0Y244D02*
X7Y244D01*
X84Y244D02*
X91Y244D01*
X111Y244D02*
X118Y244D01*
X138Y244D02*
X145Y244D01*
X0Y243D02*
X7Y243D01*
X84Y243D02*
X91Y243D01*
X111Y243D02*
X118Y243D01*
X138Y243D02*
X145Y243D01*
X0Y242D02*
X7Y242D01*
X83Y242D02*
X90Y242D01*
X110Y242D02*
X117Y242D01*
X137Y242D02*
X144Y242D01*
X0Y241D02*
X7Y241D01*
X83Y241D02*
X90Y241D01*
X110Y241D02*
X117Y241D01*
X137Y241D02*
X144Y241D01*
X0Y240D02*
X7Y240D01*
X83Y240D02*
X89Y240D01*
X109Y240D02*
X116Y240D01*
X137Y240D02*
X144Y240D01*
X1960Y240D02*
X1967Y240D01*
X0Y239D02*
X7Y239D01*
X83Y239D02*
X89Y239D01*
X109Y239D02*
X116Y239D01*
X136Y239D02*
X143Y239D01*
X1960Y239D02*
X1967Y239D01*
X0Y238D02*
X7Y238D01*
X84Y238D02*
X88Y238D01*
X109Y238D02*
X116Y238D01*
X136Y238D02*
X143Y238D01*
X1960Y238D02*
X1967Y238D01*
X0Y237D02*
X7Y237D01*
X86Y237D02*
X86Y237D01*
X109Y237D02*
X115Y237D01*
X135Y237D02*
X142Y237D01*
X1960Y237D02*
X1967Y237D01*
X0Y236D02*
X7Y236D01*
X109Y236D02*
X115Y236D01*
X135Y236D02*
X142Y236D01*
X1960Y236D02*
X1967Y236D01*
X0Y235D02*
X7Y235D01*
X110Y235D02*
X114Y235D01*
X134Y235D02*
X141Y235D01*
X1960Y235D02*
X1967Y235D01*
X0Y234D02*
X7Y234D01*
X112Y234D02*
X112Y234D01*
X134Y234D02*
X141Y234D01*
X1960Y234D02*
X1967Y234D01*
X0Y233D02*
X7Y233D01*
X134Y233D02*
X141Y233D01*
X1960Y233D02*
X1967Y233D01*
X0Y232D02*
X7Y232D01*
X133Y232D02*
X140Y232D01*
X1960Y232D02*
X1967Y232D01*
X0Y231D02*
X7Y231D01*
X133Y231D02*
X140Y231D01*
X1960Y231D02*
X1967Y231D01*
X0Y230D02*
X7Y230D01*
X132Y230D02*
X139Y230D01*
X1960Y230D02*
X1967Y230D01*
X0Y229D02*
X7Y229D01*
X132Y229D02*
X139Y229D01*
X0Y228D02*
X7Y228D01*
X131Y228D02*
X138Y228D01*
X0Y227D02*
X7Y227D01*
X131Y227D02*
X138Y227D01*
X0Y226D02*
X7Y226D01*
X131Y226D02*
X138Y226D01*
X0Y225D02*
X7Y225D01*
X130Y225D02*
X137Y225D01*
X0Y224D02*
X7Y224D01*
X130Y224D02*
X137Y224D01*
X0Y223D02*
X7Y223D01*
X129Y223D02*
X136Y223D01*
X1967Y223D02*
X1967Y223D01*
X0Y222D02*
X7Y222D01*
X129Y222D02*
X136Y222D01*
X1967Y222D02*
X1967Y222D01*
X0Y221D02*
X7Y221D01*
X129Y221D02*
X136Y221D01*
X1967Y221D02*
X1967Y221D01*
X0Y220D02*
X7Y220D01*
X129Y220D02*
X135Y220D01*
X1966Y220D02*
X1967Y220D01*
X0Y219D02*
X7Y219D01*
X130Y219D02*
X134Y219D01*
X1966Y219D02*
X1967Y219D01*
X0Y218D02*
X7Y218D01*
X131Y218D02*
X133Y218D01*
X1965Y218D02*
X1967Y218D01*
X0Y217D02*
X7Y217D01*
X1964Y217D02*
X1967Y217D01*
X0Y216D02*
X7Y216D01*
X1964Y216D02*
X1967Y216D01*
X0Y215D02*
X7Y215D01*
X1963Y215D02*
X1967Y215D01*
X0Y214D02*
X7Y214D01*
X1962Y214D02*
X1967Y214D01*
X0Y213D02*
X7Y213D01*
X1961Y213D02*
X1967Y213D01*
X0Y212D02*
X7Y212D01*
X1961Y212D02*
X1967Y212D01*
X0Y211D02*
X7Y211D01*
X1960Y211D02*
X1967Y211D01*
X0Y210D02*
X7Y210D01*
X1960Y210D02*
X1967Y210D01*
X0Y209D02*
X7Y209D01*
X1960Y209D02*
X1967Y209D01*
X0Y208D02*
X7Y208D01*
X1960Y208D02*
X1967Y208D01*
X0Y207D02*
X7Y207D01*
X1960Y207D02*
X1967Y207D01*
X0Y206D02*
X7Y206D01*
X1960Y206D02*
X1967Y206D01*
X0Y205D02*
X7Y205D01*
X1960Y205D02*
X1967Y205D01*
X0Y204D02*
X7Y204D01*
X1960Y204D02*
X1967Y204D01*
X0Y203D02*
X7Y203D01*
X1960Y203D02*
X1967Y203D01*
X0Y202D02*
X7Y202D01*
X1960Y202D02*
X1967Y202D01*
X0Y201D02*
X7Y201D01*
X1960Y201D02*
X1967Y201D01*
X0Y200D02*
X7Y200D01*
X1960Y200D02*
X1967Y200D01*
X0Y199D02*
X7Y199D01*
X1960Y199D02*
X1967Y199D01*
X0Y198D02*
X7Y198D01*
X1960Y198D02*
X1967Y198D01*
X0Y197D02*
X7Y197D01*
X1960Y197D02*
X1967Y197D01*
X0Y196D02*
X7Y196D01*
X1960Y196D02*
X1967Y196D01*
X0Y195D02*
X7Y195D01*
X1960Y195D02*
X1967Y195D01*
X0Y194D02*
X7Y194D01*
X1960Y194D02*
X1967Y194D01*
X0Y193D02*
X7Y193D01*
X1960Y193D02*
X1967Y193D01*
X0Y192D02*
X7Y192D01*
X1960Y192D02*
X1967Y192D01*
X0Y191D02*
X7Y191D01*
X1960Y191D02*
X1967Y191D01*
X0Y190D02*
X7Y190D01*
X1960Y190D02*
X1967Y190D01*
X0Y189D02*
X7Y189D01*
X1960Y189D02*
X1967Y189D01*
X0Y188D02*
X7Y188D01*
X1960Y188D02*
X1967Y188D01*
X0Y187D02*
X7Y187D01*
X1960Y187D02*
X1967Y187D01*
X0Y186D02*
X7Y186D01*
X1960Y186D02*
X1967Y186D01*
X0Y185D02*
X7Y185D01*
X1960Y185D02*
X1967Y185D01*
X0Y184D02*
X7Y184D01*
X1960Y184D02*
X1967Y184D01*
X0Y183D02*
X7Y183D01*
X1960Y183D02*
X1967Y183D01*
X0Y182D02*
X7Y182D01*
X1960Y182D02*
X1967Y182D01*
X0Y181D02*
X7Y181D01*
X1960Y181D02*
X1967Y181D01*
X0Y180D02*
X7Y180D01*
X1960Y180D02*
X1967Y180D01*
X0Y179D02*
X7Y179D01*
X1960Y179D02*
X1967Y179D01*
X0Y178D02*
X7Y178D01*
X1960Y178D02*
X1967Y178D01*
X0Y177D02*
X7Y177D01*
X1960Y177D02*
X1967Y177D01*
X0Y176D02*
X7Y176D01*
X1960Y176D02*
X1967Y176D01*
X0Y175D02*
X7Y175D01*
X1960Y175D02*
X1967Y175D01*
X0Y174D02*
X7Y174D01*
X1960Y174D02*
X1967Y174D01*
X0Y173D02*
X7Y173D01*
X1960Y173D02*
X1967Y173D01*
X0Y172D02*
X7Y172D01*
X56Y172D02*
X61Y172D01*
X1960Y172D02*
X1967Y172D01*
X0Y171D02*
X7Y171D01*
X54Y171D02*
X63Y171D01*
X1960Y171D02*
X1967Y171D01*
X0Y170D02*
X7Y170D01*
X53Y170D02*
X66Y170D01*
X1960Y170D02*
X1967Y170D01*
X0Y169D02*
X7Y169D01*
X52Y169D02*
X68Y169D01*
X1960Y169D02*
X1967Y169D01*
X0Y168D02*
X7Y168D01*
X52Y168D02*
X70Y168D01*
X1960Y168D02*
X1967Y168D01*
X0Y167D02*
X7Y167D01*
X51Y167D02*
X73Y167D01*
X1960Y167D02*
X1967Y167D01*
X0Y166D02*
X7Y166D01*
X51Y166D02*
X75Y166D01*
X1960Y166D02*
X1967Y166D01*
X0Y165D02*
X7Y165D01*
X51Y165D02*
X77Y165D01*
X1960Y165D02*
X1967Y165D01*
X0Y164D02*
X7Y164D01*
X50Y164D02*
X57Y164D01*
X62Y164D02*
X79Y164D01*
X1960Y164D02*
X1967Y164D01*
X0Y163D02*
X7Y163D01*
X50Y163D02*
X57Y163D01*
X64Y163D02*
X80Y163D01*
X1960Y163D02*
X1967Y163D01*
X0Y162D02*
X7Y162D01*
X49Y162D02*
X56Y162D01*
X67Y162D02*
X80Y162D01*
X1960Y162D02*
X1967Y162D01*
X0Y161D02*
X7Y161D01*
X49Y161D02*
X56Y161D01*
X69Y161D02*
X81Y161D01*
X1960Y161D02*
X1967Y161D01*
X0Y160D02*
X7Y160D01*
X48Y160D02*
X55Y160D01*
X71Y160D02*
X81Y160D01*
X1960Y160D02*
X1967Y160D01*
X0Y159D02*
X7Y159D01*
X48Y159D02*
X55Y159D01*
X74Y159D02*
X81Y159D01*
X1960Y159D02*
X1967Y159D01*
X0Y158D02*
X7Y158D01*
X48Y158D02*
X55Y158D01*
X75Y158D02*
X81Y158D01*
X1961Y158D02*
X1967Y158D01*
X0Y157D02*
X7Y157D01*
X47Y157D02*
X54Y157D01*
X74Y157D02*
X81Y157D01*
X1962Y157D02*
X1967Y157D01*
X0Y156D02*
X7Y156D01*
X47Y156D02*
X54Y156D01*
X74Y156D02*
X81Y156D01*
X1963Y156D02*
X1967Y156D01*
X0Y155D02*
X7Y155D01*
X46Y155D02*
X53Y155D01*
X73Y155D02*
X80Y155D01*
X1963Y155D02*
X1967Y155D01*
X0Y154D02*
X7Y154D01*
X46Y154D02*
X53Y154D01*
X73Y154D02*
X80Y154D01*
X101Y154D02*
X103Y154D01*
X1964Y154D02*
X1967Y154D01*
X0Y153D02*
X7Y153D01*
X45Y153D02*
X53Y153D01*
X73Y153D02*
X80Y153D01*
X100Y153D02*
X104Y153D01*
X1965Y153D02*
X1967Y153D01*
X0Y152D02*
X7Y152D01*
X45Y152D02*
X52Y152D01*
X72Y152D02*
X79Y152D01*
X99Y152D02*
X105Y152D01*
X1965Y152D02*
X1967Y152D01*
X0Y151D02*
X7Y151D01*
X45Y151D02*
X52Y151D01*
X72Y151D02*
X79Y151D01*
X99Y151D02*
X105Y151D01*
X1966Y151D02*
X1967Y151D01*
X0Y150D02*
X7Y150D01*
X44Y150D02*
X51Y150D01*
X71Y150D02*
X78Y150D01*
X98Y150D02*
X105Y150D01*
X1966Y150D02*
X1967Y150D01*
X0Y149D02*
X7Y149D01*
X44Y149D02*
X51Y149D01*
X71Y149D02*
X78Y149D01*
X98Y149D02*
X105Y149D01*
X1967Y149D02*
X1967Y149D01*
X0Y148D02*
X7Y148D01*
X43Y148D02*
X50Y148D01*
X70Y148D02*
X77Y148D01*
X97Y148D02*
X105Y148D01*
X1967Y148D02*
X1967Y148D01*
X0Y147D02*
X7Y147D01*
X43Y147D02*
X50Y147D01*
X70Y147D02*
X77Y147D01*
X97Y147D02*
X104Y147D01*
X0Y146D02*
X7Y146D01*
X42Y146D02*
X50Y146D01*
X70Y146D02*
X77Y146D01*
X97Y146D02*
X104Y146D01*
X0Y145D02*
X7Y145D01*
X42Y145D02*
X49Y145D01*
X69Y145D02*
X76Y145D01*
X96Y145D02*
X103Y145D01*
X0Y144D02*
X7Y144D01*
X42Y144D02*
X49Y144D01*
X69Y144D02*
X76Y144D01*
X96Y144D02*
X103Y144D01*
X0Y143D02*
X7Y143D01*
X42Y143D02*
X48Y143D01*
X68Y143D02*
X75Y143D01*
X95Y143D02*
X102Y143D01*
X0Y142D02*
X7Y142D01*
X42Y142D02*
X48Y142D01*
X68Y142D02*
X75Y142D01*
X95Y142D02*
X102Y142D01*
X0Y141D02*
X7Y141D01*
X43Y141D02*
X47Y141D01*
X67Y141D02*
X74Y141D01*
X95Y141D02*
X102Y141D01*
X0Y140D02*
X7Y140D01*
X44Y140D02*
X46Y140D01*
X67Y140D02*
X74Y140D01*
X94Y140D02*
X101Y140D01*
X1960Y140D02*
X1967Y140D01*
X0Y139D02*
X7Y139D01*
X67Y139D02*
X74Y139D01*
X94Y139D02*
X101Y139D01*
X1960Y139D02*
X1967Y139D01*
X0Y138D02*
X7Y138D01*
X66Y138D02*
X73Y138D01*
X93Y138D02*
X100Y138D01*
X1960Y138D02*
X1967Y138D01*
X0Y137D02*
X7Y137D01*
X66Y137D02*
X73Y137D01*
X93Y137D02*
X100Y137D01*
X1960Y137D02*
X1967Y137D01*
X0Y136D02*
X7Y136D01*
X66Y136D02*
X72Y136D01*
X92Y136D02*
X99Y136D01*
X1960Y136D02*
X1967Y136D01*
X0Y135D02*
X7Y135D01*
X66Y135D02*
X74Y135D01*
X92Y135D02*
X99Y135D01*
X1960Y135D02*
X1967Y135D01*
X0Y134D02*
X7Y134D01*
X66Y134D02*
X76Y134D01*
X92Y134D02*
X99Y134D01*
X1960Y134D02*
X1967Y134D01*
X0Y133D02*
X7Y133D01*
X66Y133D02*
X78Y133D01*
X91Y133D02*
X98Y133D01*
X1960Y133D02*
X1967Y133D01*
X0Y132D02*
X7Y132D01*
X67Y132D02*
X81Y132D01*
X91Y132D02*
X98Y132D01*
X1960Y132D02*
X1967Y132D01*
X0Y131D02*
X7Y131D01*
X67Y131D02*
X83Y131D01*
X90Y131D02*
X97Y131D01*
X1960Y131D02*
X1967Y131D01*
X0Y130D02*
X7Y130D01*
X68Y130D02*
X85Y130D01*
X90Y130D02*
X97Y130D01*
X1960Y130D02*
X1967Y130D01*
X0Y129D02*
X7Y129D01*
X70Y129D02*
X96Y129D01*
X0Y128D02*
X7Y128D01*
X72Y128D02*
X96Y128D01*
X0Y127D02*
X7Y127D01*
X74Y127D02*
X96Y127D01*
X0Y126D02*
X7Y126D01*
X77Y126D02*
X95Y126D01*
X0Y125D02*
X7Y125D01*
X79Y125D02*
X95Y125D01*
X0Y124D02*
X7Y124D01*
X81Y124D02*
X94Y124D01*
X0Y123D02*
X7Y123D01*
X84Y123D02*
X94Y123D01*
X1967Y123D02*
X1967Y123D01*
X0Y122D02*
X7Y122D01*
X86Y122D02*
X94Y122D01*
X1967Y122D02*
X1967Y122D01*
X0Y121D02*
X7Y121D01*
X89Y121D02*
X93Y121D01*
X1967Y121D02*
X1967Y121D01*
X0Y120D02*
X7Y120D01*
X91Y120D02*
X93Y120D01*
X1966Y120D02*
X1967Y120D01*
X0Y119D02*
X7Y119D01*
X1966Y119D02*
X1967Y119D01*
X0Y118D02*
X7Y118D01*
X1965Y118D02*
X1967Y118D01*
X0Y117D02*
X7Y117D01*
X1964Y117D02*
X1967Y117D01*
X0Y116D02*
X7Y116D01*
X1964Y116D02*
X1967Y116D01*
X0Y115D02*
X7Y115D01*
X1963Y115D02*
X1967Y115D01*
X0Y114D02*
X7Y114D01*
X1962Y114D02*
X1967Y114D01*
X0Y113D02*
X7Y113D01*
X1961Y113D02*
X1967Y113D01*
X0Y112D02*
X7Y112D01*
X1961Y112D02*
X1967Y112D01*
X0Y111D02*
X7Y111D01*
X1960Y111D02*
X1967Y111D01*
X0Y110D02*
X7Y110D01*
X1960Y110D02*
X1967Y110D01*
X0Y109D02*
X7Y109D01*
X1960Y109D02*
X1967Y109D01*
X0Y108D02*
X7Y108D01*
X1960Y108D02*
X1967Y108D01*
X0Y107D02*
X7Y107D01*
X1960Y107D02*
X1967Y107D01*
X0Y106D02*
X7Y106D01*
X1960Y106D02*
X1967Y106D01*
X0Y105D02*
X7Y105D01*
X1960Y105D02*
X1967Y105D01*
X0Y104D02*
X7Y104D01*
X1960Y104D02*
X1967Y104D01*
X0Y103D02*
X7Y103D01*
X1960Y103D02*
X1967Y103D01*
X0Y102D02*
X7Y102D01*
X1960Y102D02*
X1967Y102D01*
X0Y101D02*
X7Y101D01*
X1960Y101D02*
X1967Y101D01*
X0Y100D02*
X7Y100D01*
X1960Y100D02*
X1967Y100D01*
X0Y99D02*
X7Y99D01*
X1960Y99D02*
X1967Y99D01*
X0Y98D02*
X7Y98D01*
X1960Y98D02*
X1967Y98D01*
X0Y97D02*
X7Y97D01*
X1960Y97D02*
X1967Y97D01*
X0Y96D02*
X7Y96D01*
X1960Y96D02*
X1967Y96D01*
X0Y95D02*
X7Y95D01*
X1960Y95D02*
X1967Y95D01*
X0Y94D02*
X7Y94D01*
X1960Y94D02*
X1967Y94D01*
X0Y93D02*
X7Y93D01*
X1960Y93D02*
X1967Y93D01*
X0Y92D02*
X7Y92D01*
X1960Y92D02*
X1967Y92D01*
X0Y91D02*
X7Y91D01*
X1960Y91D02*
X1967Y91D01*
X0Y90D02*
X7Y90D01*
X1960Y90D02*
X1967Y90D01*
X0Y89D02*
X7Y89D01*
X1960Y89D02*
X1967Y89D01*
X0Y88D02*
X7Y88D01*
X1960Y88D02*
X1967Y88D01*
X0Y87D02*
X7Y87D01*
X1960Y87D02*
X1967Y87D01*
X0Y86D02*
X7Y86D01*
X1960Y86D02*
X1967Y86D01*
X0Y85D02*
X7Y85D01*
X1960Y85D02*
X1967Y85D01*
X0Y84D02*
X7Y84D01*
X1960Y84D02*
X1967Y84D01*
X0Y83D02*
X7Y83D01*
X1960Y83D02*
X1967Y83D01*
X0Y82D02*
X7Y82D01*
X1960Y82D02*
X1967Y82D01*
X0Y81D02*
X7Y81D01*
X1960Y81D02*
X1967Y81D01*
X0Y80D02*
X7Y80D01*
X1960Y80D02*
X1967Y80D01*
X0Y79D02*
X7Y79D01*
X1960Y79D02*
X1967Y79D01*
X0Y78D02*
X7Y78D01*
X1960Y78D02*
X1967Y78D01*
X0Y77D02*
X7Y77D01*
X1960Y77D02*
X1967Y77D01*
X0Y76D02*
X7Y76D01*
X1960Y76D02*
X1967Y76D01*
X0Y75D02*
X7Y75D01*
X1960Y75D02*
X1967Y75D01*
X0Y74D02*
X7Y74D01*
X1960Y74D02*
X1967Y74D01*
X0Y73D02*
X7Y73D01*
X1960Y73D02*
X1967Y73D01*
X0Y72D02*
X7Y72D01*
X1960Y72D02*
X1967Y72D01*
X0Y71D02*
X7Y71D01*
X1960Y71D02*
X1967Y71D01*
X0Y70D02*
X7Y70D01*
X1960Y70D02*
X1967Y70D01*
X0Y69D02*
X7Y69D01*
X1960Y69D02*
X1967Y69D01*
X0Y68D02*
X7Y68D01*
X1960Y68D02*
X1967Y68D01*
X0Y67D02*
X7Y67D01*
X1960Y67D02*
X1967Y67D01*
X0Y66D02*
X7Y66D01*
X1960Y66D02*
X1967Y66D01*
X0Y65D02*
X7Y65D01*
X1960Y65D02*
X1967Y65D01*
X0Y64D02*
X8Y64D01*
X43Y64D02*
X45Y64D01*
X1960Y64D02*
X1967Y64D01*
X0Y63D02*
X10Y63D01*
X41Y63D02*
X47Y63D01*
X1960Y63D02*
X1967Y63D01*
X0Y62D02*
X12Y62D01*
X41Y62D02*
X50Y62D01*
X1960Y62D02*
X1967Y62D01*
X0Y61D02*
X15Y61D01*
X40Y61D02*
X52Y61D01*
X1960Y61D02*
X1967Y61D01*
X0Y60D02*
X17Y60D01*
X41Y60D02*
X54Y60D01*
X1960Y60D02*
X1967Y60D01*
X0Y59D02*
X19Y59D01*
X41Y59D02*
X57Y59D01*
X1960Y59D02*
X1967Y59D01*
X0Y58D02*
X22Y58D01*
X42Y58D02*
X59Y58D01*
X1960Y58D02*
X1967Y58D01*
X0Y57D02*
X24Y57D01*
X43Y57D02*
X61Y57D01*
X1960Y57D02*
X1967Y57D01*
X0Y56D02*
X26Y56D01*
X46Y56D02*
X63Y56D01*
X1960Y56D02*
X1967Y56D01*
X0Y55D02*
X29Y55D01*
X48Y55D02*
X64Y55D01*
X1960Y55D02*
X1967Y55D01*
X0Y54D02*
X10Y54D01*
X13Y54D02*
X31Y54D01*
X50Y54D02*
X64Y54D01*
X1960Y54D02*
X1967Y54D01*
X0Y53D02*
X10Y53D01*
X15Y53D02*
X33Y53D01*
X53Y53D02*
X64Y53D01*
X1960Y53D02*
X1967Y53D01*
X0Y52D02*
X10Y52D01*
X18Y52D02*
X36Y52D01*
X55Y52D02*
X64Y52D01*
X1960Y52D02*
X1967Y52D01*
X0Y51D02*
X9Y51D01*
X20Y51D02*
X38Y51D01*
X56Y51D02*
X63Y51D01*
X1960Y51D02*
X1967Y51D01*
X0Y50D02*
X9Y50D01*
X23Y50D02*
X40Y50D01*
X56Y50D02*
X63Y50D01*
X1960Y50D02*
X1967Y50D01*
X0Y49D02*
X8Y49D01*
X25Y49D02*
X43Y49D01*
X55Y49D02*
X63Y49D01*
X1960Y49D02*
X1967Y49D01*
X0Y48D02*
X8Y48D01*
X27Y48D02*
X45Y48D01*
X55Y48D02*
X62Y48D01*
X1960Y48D02*
X1967Y48D01*
X0Y47D02*
X8Y47D01*
X30Y47D02*
X48Y47D01*
X55Y47D02*
X62Y47D01*
X1960Y47D02*
X1967Y47D01*
X0Y46D02*
X7Y46D01*
X32Y46D02*
X50Y46D01*
X54Y46D02*
X61Y46D01*
X1960Y46D02*
X1967Y46D01*
X0Y45D02*
X7Y45D01*
X34Y45D02*
X61Y45D01*
X1960Y45D02*
X1967Y45D01*
X0Y44D02*
X7Y44D01*
X37Y44D02*
X60Y44D01*
X1960Y44D02*
X1967Y44D01*
X0Y43D02*
X7Y43D01*
X39Y43D02*
X60Y43D01*
X1960Y43D02*
X1967Y43D01*
X0Y42D02*
X7Y42D01*
X41Y42D02*
X60Y42D01*
X1960Y42D02*
X1967Y42D01*
X0Y41D02*
X7Y41D01*
X44Y41D02*
X59Y41D01*
X1960Y41D02*
X1967Y41D01*
X0Y40D02*
X7Y40D01*
X46Y40D02*
X59Y40D01*
X1960Y40D02*
X1967Y40D01*
X0Y39D02*
X7Y39D01*
X48Y39D02*
X58Y39D01*
X1960Y39D02*
X1967Y39D01*
X0Y38D02*
X7Y38D01*
X50Y38D02*
X58Y38D01*
X1960Y38D02*
X1967Y38D01*
X0Y37D02*
X7Y37D01*
X50Y37D02*
X57Y37D01*
X1960Y37D02*
X1967Y37D01*
X0Y36D02*
X7Y36D01*
X50Y36D02*
X57Y36D01*
X1960Y36D02*
X1967Y36D01*
X0Y35D02*
X7Y35D01*
X50Y35D02*
X57Y35D01*
X1960Y35D02*
X1967Y35D01*
X0Y34D02*
X7Y34D01*
X49Y34D02*
X56Y34D01*
X1960Y34D02*
X1967Y34D01*
X0Y33D02*
X7Y33D01*
X49Y33D02*
X56Y33D01*
X1960Y33D02*
X1967Y33D01*
X0Y32D02*
X7Y32D01*
X48Y32D02*
X55Y32D01*
X1960Y32D02*
X1967Y32D01*
X0Y31D02*
X7Y31D01*
X48Y31D02*
X55Y31D01*
X1960Y31D02*
X1967Y31D01*
X0Y30D02*
X7Y30D01*
X47Y30D02*
X54Y30D01*
X1960Y30D02*
X1967Y30D01*
X0Y29D02*
X7Y29D01*
X47Y29D02*
X54Y29D01*
X1960Y29D02*
X1967Y29D01*
X0Y28D02*
X7Y28D01*
X47Y28D02*
X54Y28D01*
X1960Y28D02*
X1967Y28D01*
X0Y27D02*
X7Y27D01*
X46Y27D02*
X53Y27D01*
X1960Y27D02*
X1967Y27D01*
X0Y26D02*
X7Y26D01*
X46Y26D02*
X53Y26D01*
X1960Y26D02*
X1967Y26D01*
X0Y25D02*
X7Y25D01*
X47Y25D02*
X52Y25D01*
X1960Y25D02*
X1967Y25D01*
X0Y24D02*
X7Y24D01*
X47Y24D02*
X52Y24D01*
X1960Y24D02*
X1967Y24D01*
X0Y23D02*
X7Y23D01*
X49Y23D02*
X50Y23D01*
X1960Y23D02*
X1967Y23D01*
X0Y22D02*
X7Y22D01*
X1960Y22D02*
X1967Y22D01*
X0Y21D02*
X7Y21D01*
X1960Y21D02*
X1967Y21D01*
X0Y20D02*
X7Y20D01*
X1960Y20D02*
X1967Y20D01*
X0Y19D02*
X7Y19D01*
X1960Y19D02*
X1967Y19D01*
X0Y18D02*
X7Y18D01*
X1960Y18D02*
X1967Y18D01*
X0Y17D02*
X7Y17D01*
X1960Y17D02*
X1967Y17D01*
X0Y16D02*
X7Y16D01*
X1960Y16D02*
X1967Y16D01*
X0Y15D02*
X7Y15D01*
X1960Y15D02*
X1967Y15D01*
X0Y14D02*
X7Y14D01*
X1960Y14D02*
X1967Y14D01*
X0Y13D02*
X7Y13D01*
X1960Y13D02*
X1967Y13D01*
X0Y12D02*
X7Y12D01*
X1960Y12D02*
X1967Y12D01*
X0Y11D02*
X7Y11D01*
X1960Y11D02*
X1967Y11D01*
X0Y10D02*
X7Y10D01*
X1960Y10D02*
X1967Y10D01*
X0Y9D02*
X7Y9D01*
X1960Y9D02*
X1967Y9D01*
X0Y8D02*
X113Y8D01*
X158Y8D02*
X313Y8D01*
X358Y8D02*
X913Y8D01*
X958Y8D02*
X1013Y8D01*
X1057Y8D02*
X1113Y8D01*
X1157Y8D02*
X1213Y8D01*
X1257Y8D02*
X1967Y8D01*
X0Y7D02*
X115Y7D01*
X156Y7D02*
X315Y7D01*
X356Y7D02*
X914Y7D01*
X956Y7D02*
X1014Y7D01*
X1056Y7D02*
X1114Y7D01*
X1156Y7D02*
X1214Y7D01*
X1256Y7D02*
X1967Y7D01*
X0Y6D02*
X116Y6D01*
X155Y6D02*
X316Y6D01*
X355Y6D02*
X916Y6D01*
X955Y6D02*
X1016Y6D01*
X1055Y6D02*
X1116Y6D01*
X1155Y6D02*
X1216Y6D01*
X1255Y6D02*
X1967Y6D01*
X0Y5D02*
X118Y5D01*
X153Y5D02*
X318Y5D01*
X353Y5D02*
X918Y5D01*
X953Y5D02*
X1018Y5D01*
X1053Y5D02*
X1118Y5D01*
X1153Y5D02*
X1218Y5D01*
X1253Y5D02*
X1967Y5D01*
X0Y4D02*
X120Y4D01*
X151Y4D02*
X320Y4D01*
X351Y4D02*
X920Y4D01*
X951Y4D02*
X1020Y4D01*
X1051Y4D02*
X1120Y4D01*
X1151Y4D02*
X1220Y4D01*
X1251Y4D02*
X1967Y4D01*
X0Y3D02*
X122Y3D01*
X149Y3D02*
X322Y3D01*
X349Y3D02*
X922Y3D01*
X949Y3D02*
X1022Y3D01*
X1049Y3D02*
X1122Y3D01*
X1149Y3D02*
X1222Y3D01*
X1249Y3D02*
X1967Y3D01*
X0Y2D02*
X125Y2D01*
X146Y2D02*
X325Y2D01*
X346Y2D02*
X925Y2D01*
X946Y2D02*
X1025Y2D01*
X1046Y2D02*
X1124Y2D01*
X1146Y2D02*
X1224Y2D01*
X1246Y2D02*
X1967Y2D01*
X0Y1D02*
X128Y1D01*
X143Y1D02*
X328Y1D01*
X343Y1D02*
X928Y1D01*
X942Y1D02*
X1028Y1D01*
X1042Y1D02*
X1128Y1D01*
X1142Y1D02*
X1228Y1D01*
X1242Y1D02*
X1967Y1D01*
D02*
G04 End of Silk1*
M02*