G04 MADE WITH FRITZING*
G04 WWW.FRITZING.ORG*
G04 DOUBLE SIDED*
G04 HOLES PLATED*
G04 CONTOUR ON CENTER OF CONTOUR VECTOR*
%ASAXBY*%
%FSLAX23Y23*%
%MOIN*%
%OFA0B0*%
%SFA1.0B1.0*%
%ADD10C,0.059055*%
%ADD11C,0.023622*%
%ADD12C,0.016535*%
%ADD13C,0.008000*%
%LNCOPPER0*%
G90*
G70*
G54D10*
X336Y34D03*
X136Y34D03*
X1036Y34D03*
X1136Y34D03*
X1236Y34D03*
X36Y834D03*
X1436Y234D03*
X1536Y234D03*
X1436Y634D03*
X1536Y634D03*
X1636Y634D03*
X1236Y634D03*
X1836Y634D03*
X1836Y734D03*
X1836Y134D03*
X1936Y134D03*
X1936Y734D03*
X1836Y534D03*
X1836Y434D03*
X1836Y334D03*
X1836Y234D03*
X1936Y634D03*
X1936Y534D03*
X1936Y434D03*
X1936Y334D03*
X1936Y234D03*
X1036Y834D03*
X736Y834D03*
X536Y834D03*
X836Y834D03*
X936Y834D03*
X936Y34D03*
G54D11*
X1336Y634D03*
X1436Y34D03*
X1536Y334D03*
G54D10*
X1636Y234D03*
G54D11*
X1136Y334D03*
X1736Y135D03*
X736Y434D03*
X636Y534D03*
X1336Y434D03*
X536Y634D03*
X1636Y734D03*
X1535Y735D03*
G54D12*
X1336Y134D03*
G54D11*
X1337Y334D03*
X836Y434D03*
G54D10*
X836Y234D03*
G54D11*
X1536Y34D03*
G54D12*
X1736Y34D03*
G54D11*
X1436Y434D03*
X1036Y634D03*
X836Y134D03*
G54D13*
X1526Y213D02*
X1442Y46D01*
D02*
X1820Y151D02*
X1436Y534D01*
D02*
X1637Y534D02*
X1836Y835D01*
D02*
X1836Y835D02*
X1926Y655D01*
D02*
X1436Y534D02*
X1637Y534D01*
D02*
X1937Y735D02*
X1958Y741D01*
D02*
X1637Y434D02*
X1820Y251D01*
D02*
X1823Y715D02*
X1637Y434D01*
D02*
X1236Y534D02*
X1327Y625D01*
D02*
X1236Y58D02*
X1236Y534D01*
D02*
X1859Y434D02*
X1913Y434D01*
D02*
X1446Y425D02*
X1527Y344D01*
D02*
X1036Y58D02*
X1036Y621D01*
D02*
X1136Y58D02*
X1136Y321D01*
D02*
X1724Y141D02*
X1557Y224D01*
D02*
X736Y448D02*
X737Y633D01*
D02*
X737Y633D02*
X826Y813D01*
D02*
X726Y813D02*
X637Y633D01*
D02*
X637Y633D02*
X636Y548D01*
D02*
X1436Y335D02*
X1436Y258D01*
D02*
X1346Y425D02*
X1436Y335D01*
D02*
X1236Y733D02*
X1034Y735D01*
D02*
X1435Y836D02*
X1236Y733D01*
D02*
X1526Y744D02*
X1435Y836D01*
D02*
X1034Y735D02*
X935Y633D01*
D02*
X935Y633D02*
X936Y58D01*
D02*
X536Y811D02*
X536Y648D01*
D02*
X1457Y645D02*
X1624Y728D01*
D02*
X1337Y320D02*
X1336Y146D01*
D02*
X926Y813D02*
X842Y646D01*
D02*
X836Y621D02*
X836Y448D01*
D02*
X1814Y127D02*
X1549Y39D01*
D02*
X1746Y39D02*
X1915Y124D01*
D02*
X435Y34D02*
X815Y224D01*
D02*
X359Y34D02*
X435Y34D01*
D02*
X836Y211D02*
X836Y148D01*
G04 End of Copper0*
M02*