; NON-PLATED HOLES START AT T1
; THROUGH (PLATED) HOLES START AT T100
M48
INCH
T100C0.015748
T101C0.035433
T102C0.011811
%
T100
X014360Y000342
X008360Y001342
X015354Y007345
X013360Y006342
X015360Y003342
X010360Y006342
X011360Y003342
X005360Y006342
X014360Y004342
X015360Y000342
X017362Y001349
X008360Y004342
X006360Y005342
X016358Y007338
X013360Y004342
X007360Y004342
X013368Y003336
T101
X001360Y000342
X018360Y007342
X015360Y002342
X010360Y000342
X018360Y005342
X014360Y006342
X007360Y008342
X019360Y007342
X008360Y008342
X011360Y000342
X012360Y006342
X014360Y002342
X019360Y002342
X016360Y006342
X018360Y002342
X015360Y006342
X018360Y001342
X018360Y006342
X008360Y002342
X018360Y003342
X009360Y008342
X000360Y008342
X019360Y001342
X009360Y000342
X019360Y004342
X019360Y006342
X003360Y000342
X010360Y008342
X012360Y000342
X018360Y004342
X005360Y008342
X016360Y002342
X019360Y005342
X019360Y003342
T102
X013360Y001342
X017360Y000342
T00
M30
