%
M48
M72
T01C0.01550
T02C0.02756
T03C0.03150
T04C0.03543
T05C0.03937
T06C0.09843
%
T01
X271871Y127626
X252678Y86780
X258583Y100067
X264489Y106465
X280237Y106957
X280729Y115323
X255138Y121228
X250217Y118276
X238898Y128118
X223150Y120736
X220198Y117783
X212323Y115323
X223150Y112370
X206418Y106465
X201989Y106465
X195591Y106465
X188701Y106465
X178859Y106465
X193623Y112370
X196083Y120244
X190178Y120244
X182595Y119433
X201005Y120736
X221674Y130087
X236930Y100067
X244804Y100067
X221182Y89732
X207402Y82350
X196083Y82350
X208386Y67587
X223642Y71524
X238406Y72508
X196575Y49870
X168524Y52823
X154745Y60205
X150808Y55776
X143918Y49870
X138012Y52331
X132107Y52331
X126201Y48886
X122757Y51346
X109961Y52823
X110946Y58728
X98150Y66602
X90768Y66110
X88308Y58728
X75020Y56760
X64194Y65126
X75512Y67094
X86339Y73000
X98642Y81858
X105953Y85319
X109961Y93177
X115867Y101051
X107993Y106957
X116788Y109909
X121595Y109933
X122741Y115854
X126694Y117783
X136044Y117831
X135560Y113402
X139595Y110433
X141465Y104004
X130631Y100559
X133091Y97114
X133091Y92685
X126694Y90224
X130138Y87764
X136044Y89732
X141949Y87764
X148347Y87732
X150808Y83827
X157205Y85303
X164095Y85303
X168524Y85303
X162619Y72508
X159174Y70047
X154745Y66110
X168524Y70539
X117312Y69508
X77481Y87272
X64686Y92685
X63209Y99575
X63701Y82843
X90768Y95638
X115375Y122213
X126201Y126642
X146379Y127626
X146379Y123197
X146379Y118276
X159095Y109933
X155253Y104925
X161142Y100067
T02
X56595Y83256
X56595Y98610
T03
X60138Y77941
X60138Y103925
T04
X49115Y76760
X49115Y105106
X219615Y98772
X292595Y95528
X292595Y107339
T05
X190095Y60933
X175095Y60933
T06
X289095Y55933
X289095Y125933
X49095Y125933
X49095Y55933
M30
