G75*
%MOIN*%
%OFA0B0*%
%FSLAX25Y25*%
%IPPOS*%
%LPD*%
%AMOC8*
5,1,8,0,0,1.08239X$1,22.5*
%
%ADD10C,0.00000*%
%ADD11C,0.00500*%
%ADD12C,0.00700*%
%ADD13C,0.00600*%
%ADD14R,0.02343X0.00069*%
%ADD15R,0.03720X0.00069*%
%ADD16R,0.04823X0.00069*%
%ADD17R,0.05650X0.00069*%
%ADD18R,0.06339X0.00069*%
%ADD19R,0.06890X0.00069*%
%ADD20R,0.07579X0.00069*%
%ADD21R,0.08130X0.00069*%
%ADD22R,0.08543X0.00069*%
%ADD23R,0.09094X0.00069*%
%ADD24R,0.09508X0.00069*%
%ADD25R,0.09921X0.00069*%
%ADD26R,0.10335X0.00069*%
%ADD27R,0.10748X0.00069*%
%ADD28R,0.11024X0.00069*%
%ADD29R,0.04547X0.00069*%
%ADD30R,0.04065X0.00069*%
%ADD31R,0.04134X0.00069*%
%ADD32R,0.03789X0.00069*%
%ADD33R,0.03514X0.00069*%
%ADD34R,0.03376X0.00069*%
%ADD35R,0.03238X0.00069*%
%ADD36R,0.03100X0.00069*%
%ADD37R,0.02963X0.00069*%
%ADD38R,0.02825X0.00069*%
%ADD39R,0.02756X0.00069*%
%ADD40R,0.02687X0.00069*%
%ADD41R,0.02618X0.00069*%
%ADD42R,0.02549X0.00069*%
%ADD43R,0.02480X0.00069*%
%ADD44R,0.02411X0.00069*%
%ADD45R,0.02274X0.00069*%
%ADD46R,0.02205X0.00069*%
%ADD47R,0.02136X0.00069*%
%ADD48R,0.02067X0.00069*%
%ADD49R,0.01998X0.00069*%
%ADD50R,0.05236X0.00069*%
%ADD51R,0.05925X0.00069*%
%ADD52R,0.01929X0.00069*%
%ADD53R,0.06476X0.00069*%
%ADD54R,0.07028X0.00069*%
%ADD55R,0.07441X0.00069*%
%ADD56R,0.01860X0.00069*%
%ADD57R,0.07992X0.00069*%
%ADD58R,0.08406X0.00069*%
%ADD59R,0.08819X0.00069*%
%ADD60R,0.01791X0.00069*%
%ADD61R,0.10197X0.00069*%
%ADD62R,0.01722X0.00069*%
%ADD63R,0.03996X0.00069*%
%ADD64R,0.03445X0.00069*%
%ADD65R,0.01654X0.00069*%
%ADD66R,0.03031X0.00069*%
%ADD67R,0.02894X0.00069*%
%ADD68R,0.01516X0.00069*%
%ADD69R,0.01447X0.00069*%
%ADD70R,0.01378X0.00069*%
%ADD71R,0.01240X0.00069*%
%ADD72R,0.01033X0.00069*%
%ADD73R,0.00827X0.00069*%
%ADD74R,0.00689X0.00069*%
%ADD75R,0.00551X0.00069*%
%ADD76R,0.00413X0.00069*%
%ADD77R,0.04272X0.00069*%
%ADD78R,0.05374X0.00069*%
%ADD79R,0.07303X0.00069*%
%ADD80R,0.08268X0.00069*%
%ADD81R,0.08681X0.00069*%
%ADD82R,0.08957X0.00069*%
%ADD83R,0.04341X0.00069*%
%ADD84R,0.04409X0.00069*%
%ADD85R,0.03583X0.00069*%
%ADD86R,0.01171X0.00069*%
%ADD87R,0.00896X0.00069*%
%ADD88R,0.00758X0.00069*%
%ADD89R,0.00620X0.00069*%
%ADD90R,0.00482X0.00069*%
%ADD91R,0.00344X0.00069*%
%ADD92R,0.00138X0.00069*%
%ADD93R,0.01585X0.00069*%
%ADD94R,0.01447X0.00069*%
%ADD95R,0.01654X0.00069*%
%ADD96R,0.01723X0.00069*%
%ADD97R,0.04341X0.00069*%
%ADD98R,0.04410X0.00069*%
%ADD99R,0.04478X0.00069*%
%ADD100R,0.04479X0.00069*%
%ADD101R,0.03652X0.00069*%
%ADD102R,0.04548X0.00069*%
%ADD103R,0.04616X0.00069*%
%ADD104R,0.04617X0.00069*%
%ADD105R,0.03927X0.00069*%
%ADD106R,0.04685X0.00069*%
%ADD107R,0.04685X0.00069*%
%ADD108R,0.04754X0.00069*%
%ADD109R,0.04203X0.00069*%
%ADD110R,0.04754X0.00069*%
%ADD111R,0.04823X0.00069*%
%ADD112R,0.04892X0.00069*%
%ADD113R,0.04892X0.00069*%
%ADD114R,0.04961X0.00069*%
%ADD115R,0.04961X0.00069*%
%ADD116R,0.02412X0.00069*%
%ADD117R,0.02205X0.00069*%
%ADD118R,0.01998X0.00069*%
%ADD119R,0.01930X0.00069*%
%ADD120R,0.01792X0.00069*%
%ADD121R,0.01861X0.00069*%
%ADD122R,0.03169X0.00069*%
%ADD123R,0.02067X0.00069*%
%ADD124R,0.02274X0.00069*%
%ADD125R,0.02067X0.00069*%
%ADD126R,0.03307X0.00069*%
%ADD127R,0.01309X0.00069*%
%ADD128R,0.00965X0.00069*%
%ADD129R,0.00069X0.00069*%
%ADD130R,0.02342X0.00069*%
%ADD131R,0.07717X0.00069*%
%ADD132R,0.06063X0.00069*%
%ADD133R,0.05512X0.00069*%
%ADD134R,0.00207X0.00069*%
%ADD135R,0.01102X0.00069*%
%ADD136R,0.09577X0.00069*%
%ADD137R,0.09232X0.00069*%
%ADD138R,0.06614X0.00069*%
%ADD139R,0.03858X0.00069*%
%ADD140R,0.11161X0.00069*%
%ADD141R,0.00276X0.00069*%
%ADD142R,0.05030X0.00069*%
%ADD143R,0.04822X0.00069*%
%ADD144R,0.02619X0.00069*%
%ADD145R,0.06683X0.00069*%
%ADD146R,0.06545X0.00069*%
%ADD147R,0.06407X0.00069*%
%ADD148R,0.06270X0.00069*%
%ADD149R,0.06131X0.00069*%
%ADD150R,0.05787X0.00069*%
%ADD151R,0.05167X0.00069*%
%ADD152R,0.03600X0.00100*%
%ADD153R,0.02000X0.00100*%
%ADD154R,0.03500X0.00100*%
%ADD155R,0.01600X0.00100*%
%ADD156R,0.05200X0.00100*%
%ADD157R,0.02900X0.00100*%
%ADD158R,0.02600X0.00100*%
%ADD159R,0.05300X0.00100*%
%ADD160R,0.06400X0.00100*%
%ADD161R,0.03700X0.00100*%
%ADD162R,0.00100X0.00100*%
%ADD163R,0.03400X0.00100*%
%ADD164R,0.01700X0.00100*%
%ADD165R,0.06300X0.00100*%
%ADD166R,0.07300X0.00100*%
%ADD167R,0.04200X0.00100*%
%ADD168R,0.00200X0.00100*%
%ADD169R,0.07200X0.00100*%
%ADD170R,0.08000X0.00100*%
%ADD171R,0.04800X0.00100*%
%ADD172R,0.00300X0.00100*%
%ADD173R,0.03900X0.00100*%
%ADD174R,0.08100X0.00100*%
%ADD175R,0.08700X0.00100*%
%ADD176R,0.09300X0.00100*%
%ADD177R,0.05700X0.00100*%
%ADD178R,0.00400X0.00100*%
%ADD179R,0.04300X0.00100*%
%ADD180R,0.09800X0.00100*%
%ADD181R,0.06200X0.00100*%
%ADD182R,0.00500X0.00100*%
%ADD183R,0.04500X0.00100*%
%ADD184R,0.10100X0.00100*%
%ADD185R,0.06600X0.00100*%
%ADD186R,0.00600X0.00100*%
%ADD187R,0.04600X0.00100*%
%ADD188R,0.10200X0.00100*%
%ADD189R,0.06900X0.00100*%
%ADD190R,0.00700X0.00100*%
%ADD191R,0.04700X0.00100*%
%ADD192R,0.10300X0.00100*%
%ADD193R,0.00800X0.00100*%
%ADD194R,0.10400X0.00100*%
%ADD195R,0.07600X0.00100*%
%ADD196R,0.00900X0.00100*%
%ADD197R,0.04900X0.00100*%
%ADD198R,0.10500X0.00100*%
%ADD199R,0.01000X0.00100*%
%ADD200R,0.10600X0.00100*%
%ADD201R,0.08300X0.00100*%
%ADD202R,0.01100X0.00100*%
%ADD203R,0.10700X0.00100*%
%ADD204R,0.04100X0.00100*%
%ADD205R,0.10800X0.00100*%
%ADD206R,0.08900X0.00100*%
%ADD207R,0.01200X0.00100*%
%ADD208R,0.03300X0.00100*%
%ADD209R,0.02700X0.00100*%
%ADD210R,0.05000X0.00100*%
%ADD211R,0.01300X0.00100*%
%ADD212R,0.02400X0.00100*%
%ADD213R,0.01400X0.00100*%
%ADD214R,0.03000X0.00100*%
%ADD215R,0.02500X0.00100*%
%ADD216R,0.02300X0.00100*%
%ADD217R,0.01500X0.00100*%
%ADD218R,0.02100X0.00100*%
%ADD219R,0.02200X0.00100*%
%ADD220R,0.01900X0.00100*%
%ADD221R,0.04400X0.00100*%
%ADD222R,0.01800X0.00100*%
%ADD223R,0.03100X0.00100*%
%ADD224R,0.02800X0.00100*%
%ADD225R,0.09500X0.00100*%
%ADD226R,0.09600X0.00100*%
%ADD227R,0.10000X0.00100*%
%ADD228R,0.11000X0.00100*%
%ADD229R,0.11100X0.00100*%
%ADD230R,0.11200X0.00100*%
%ADD231R,0.11300X0.00100*%
%ADD232R,0.04000X0.00100*%
%ADD233R,0.11400X0.00100*%
%ADD234R,0.05600X0.00100*%
%ADD235R,0.11500X0.00100*%
%ADD236R,0.07100X0.00100*%
%ADD237R,0.11600X0.00100*%
%ADD238R,0.11700X0.00100*%
%ADD239R,0.11800X0.00100*%
%ADD240R,0.11900X0.00100*%
%ADD241R,0.10900X0.00100*%
%ADD242R,0.09900X0.00100*%
%ADD243R,0.09200X0.00100*%
%ADD244R,0.03800X0.00100*%
%ADD245R,0.03200X0.00100*%
%ADD246R,0.06500X0.00100*%
%ADD247R,0.06700X0.00100*%
%ADD248R,0.06800X0.00100*%
%ADD249R,0.08500X0.00100*%
%ADD250R,0.07000X0.00100*%
%ADD251R,0.08200X0.00100*%
%ADD252R,0.09700X0.00100*%
%ADD253R,0.07900X0.00100*%
%ADD254R,0.07500X0.00100*%
%ADD255R,0.09000X0.00100*%
%ADD256R,0.07700X0.00100*%
%ADD257R,0.08800X0.00100*%
%ADD258R,0.06000X0.00100*%
%ADD259R,0.07800X0.00100*%
%ADD260R,0.08600X0.00100*%
%ADD261R,0.05800X0.00100*%
%ADD262R,0.05500X0.00100*%
%ADD263R,0.09400X0.00100*%
%ADD264R,0.07400X0.00100*%
%ADD265R,0.05100X0.00100*%
%ADD266R,0.06100X0.00100*%
%ADD267R,0.05400X0.00100*%
%ADD268R,0.12600X0.00100*%
%ADD269R,0.13300X0.00100*%
%ADD270R,0.15100X0.00100*%
%ADD271R,0.15700X0.00100*%
%ADD272R,0.16100X0.00100*%
%ADD273R,0.16600X0.00100*%
%ADD274R,0.09100X0.00100*%
%ADD275R,0.12700X0.00100*%
%ADD276R,0.13700X0.00100*%
%ADD277R,0.13600X0.00100*%
%ADD278R,0.05900X0.00100*%
%ADD279R,0.13500X0.00100*%
%ADD280R,0.13400X0.00100*%
%ADD281R,0.13200X0.00100*%
%ADD282R,0.13100X0.00100*%
%ADD283R,0.13000X0.00100*%
%ADD284R,0.12900X0.00100*%
%ADD285R,0.12800X0.00100*%
%ADD286R,0.12500X0.00100*%
%ADD287R,0.08400X0.00100*%
D10*
X0049095Y0045933D02*
X0289095Y0045933D01*
X0284174Y0055933D02*
X0284176Y0056073D01*
X0284182Y0056213D01*
X0284192Y0056352D01*
X0284206Y0056491D01*
X0284224Y0056630D01*
X0284245Y0056768D01*
X0284271Y0056906D01*
X0284301Y0057043D01*
X0284334Y0057178D01*
X0284372Y0057313D01*
X0284413Y0057447D01*
X0284458Y0057580D01*
X0284506Y0057711D01*
X0284559Y0057840D01*
X0284615Y0057969D01*
X0284674Y0058095D01*
X0284738Y0058220D01*
X0284804Y0058343D01*
X0284875Y0058464D01*
X0284948Y0058583D01*
X0285025Y0058700D01*
X0285106Y0058814D01*
X0285189Y0058926D01*
X0285276Y0059036D01*
X0285366Y0059144D01*
X0285458Y0059248D01*
X0285554Y0059350D01*
X0285653Y0059450D01*
X0285754Y0059546D01*
X0285858Y0059640D01*
X0285965Y0059730D01*
X0286074Y0059817D01*
X0286186Y0059902D01*
X0286300Y0059983D01*
X0286416Y0060061D01*
X0286534Y0060135D01*
X0286655Y0060206D01*
X0286777Y0060274D01*
X0286902Y0060338D01*
X0287028Y0060399D01*
X0287155Y0060456D01*
X0287285Y0060509D01*
X0287416Y0060559D01*
X0287548Y0060604D01*
X0287681Y0060647D01*
X0287816Y0060685D01*
X0287951Y0060719D01*
X0288088Y0060750D01*
X0288225Y0060777D01*
X0288363Y0060799D01*
X0288502Y0060818D01*
X0288641Y0060833D01*
X0288780Y0060844D01*
X0288920Y0060851D01*
X0289060Y0060854D01*
X0289200Y0060853D01*
X0289340Y0060848D01*
X0289479Y0060839D01*
X0289619Y0060826D01*
X0289758Y0060809D01*
X0289896Y0060788D01*
X0290034Y0060764D01*
X0290171Y0060735D01*
X0290307Y0060703D01*
X0290442Y0060666D01*
X0290576Y0060626D01*
X0290709Y0060582D01*
X0290840Y0060534D01*
X0290970Y0060483D01*
X0291099Y0060428D01*
X0291226Y0060369D01*
X0291351Y0060306D01*
X0291474Y0060241D01*
X0291596Y0060171D01*
X0291715Y0060098D01*
X0291833Y0060022D01*
X0291948Y0059943D01*
X0292061Y0059860D01*
X0292171Y0059774D01*
X0292279Y0059685D01*
X0292384Y0059593D01*
X0292487Y0059498D01*
X0292587Y0059400D01*
X0292684Y0059300D01*
X0292778Y0059196D01*
X0292870Y0059090D01*
X0292958Y0058982D01*
X0293043Y0058871D01*
X0293125Y0058757D01*
X0293204Y0058641D01*
X0293279Y0058524D01*
X0293351Y0058404D01*
X0293419Y0058282D01*
X0293484Y0058158D01*
X0293546Y0058032D01*
X0293604Y0057905D01*
X0293658Y0057776D01*
X0293709Y0057645D01*
X0293755Y0057513D01*
X0293798Y0057380D01*
X0293838Y0057246D01*
X0293873Y0057111D01*
X0293905Y0056974D01*
X0293932Y0056837D01*
X0293956Y0056699D01*
X0293976Y0056561D01*
X0293992Y0056422D01*
X0294004Y0056282D01*
X0294012Y0056143D01*
X0294016Y0056003D01*
X0294016Y0055863D01*
X0294012Y0055723D01*
X0294004Y0055584D01*
X0293992Y0055444D01*
X0293976Y0055305D01*
X0293956Y0055167D01*
X0293932Y0055029D01*
X0293905Y0054892D01*
X0293873Y0054755D01*
X0293838Y0054620D01*
X0293798Y0054486D01*
X0293755Y0054353D01*
X0293709Y0054221D01*
X0293658Y0054090D01*
X0293604Y0053961D01*
X0293546Y0053834D01*
X0293484Y0053708D01*
X0293419Y0053584D01*
X0293351Y0053462D01*
X0293279Y0053342D01*
X0293204Y0053225D01*
X0293125Y0053109D01*
X0293043Y0052995D01*
X0292958Y0052884D01*
X0292870Y0052776D01*
X0292778Y0052670D01*
X0292684Y0052566D01*
X0292587Y0052466D01*
X0292487Y0052368D01*
X0292384Y0052273D01*
X0292279Y0052181D01*
X0292171Y0052092D01*
X0292061Y0052006D01*
X0291948Y0051923D01*
X0291833Y0051844D01*
X0291715Y0051768D01*
X0291596Y0051695D01*
X0291474Y0051625D01*
X0291351Y0051560D01*
X0291226Y0051497D01*
X0291099Y0051438D01*
X0290970Y0051383D01*
X0290840Y0051332D01*
X0290709Y0051284D01*
X0290576Y0051240D01*
X0290442Y0051200D01*
X0290307Y0051163D01*
X0290171Y0051131D01*
X0290034Y0051102D01*
X0289896Y0051078D01*
X0289758Y0051057D01*
X0289619Y0051040D01*
X0289479Y0051027D01*
X0289340Y0051018D01*
X0289200Y0051013D01*
X0289060Y0051012D01*
X0288920Y0051015D01*
X0288780Y0051022D01*
X0288641Y0051033D01*
X0288502Y0051048D01*
X0288363Y0051067D01*
X0288225Y0051089D01*
X0288088Y0051116D01*
X0287951Y0051147D01*
X0287816Y0051181D01*
X0287681Y0051219D01*
X0287548Y0051262D01*
X0287416Y0051307D01*
X0287285Y0051357D01*
X0287155Y0051410D01*
X0287028Y0051467D01*
X0286902Y0051528D01*
X0286777Y0051592D01*
X0286655Y0051660D01*
X0286534Y0051731D01*
X0286416Y0051805D01*
X0286300Y0051883D01*
X0286186Y0051964D01*
X0286074Y0052049D01*
X0285965Y0052136D01*
X0285858Y0052226D01*
X0285754Y0052320D01*
X0285653Y0052416D01*
X0285554Y0052516D01*
X0285458Y0052618D01*
X0285366Y0052722D01*
X0285276Y0052830D01*
X0285189Y0052940D01*
X0285106Y0053052D01*
X0285025Y0053166D01*
X0284948Y0053283D01*
X0284875Y0053402D01*
X0284804Y0053523D01*
X0284738Y0053646D01*
X0284674Y0053771D01*
X0284615Y0053897D01*
X0284559Y0054026D01*
X0284506Y0054155D01*
X0284458Y0054286D01*
X0284413Y0054419D01*
X0284372Y0054553D01*
X0284334Y0054688D01*
X0284301Y0054823D01*
X0284271Y0054960D01*
X0284245Y0055098D01*
X0284224Y0055236D01*
X0284206Y0055375D01*
X0284192Y0055514D01*
X0284182Y0055653D01*
X0284176Y0055793D01*
X0284174Y0055933D01*
X0289095Y0045933D02*
X0289337Y0045936D01*
X0289578Y0045945D01*
X0289819Y0045959D01*
X0290060Y0045980D01*
X0290300Y0046006D01*
X0290540Y0046038D01*
X0290779Y0046076D01*
X0291016Y0046119D01*
X0291253Y0046169D01*
X0291488Y0046224D01*
X0291722Y0046284D01*
X0291954Y0046351D01*
X0292185Y0046422D01*
X0292414Y0046500D01*
X0292641Y0046583D01*
X0292866Y0046671D01*
X0293089Y0046765D01*
X0293309Y0046864D01*
X0293527Y0046969D01*
X0293742Y0047078D01*
X0293955Y0047193D01*
X0294165Y0047313D01*
X0294371Y0047438D01*
X0294575Y0047568D01*
X0294776Y0047703D01*
X0294973Y0047843D01*
X0295167Y0047987D01*
X0295357Y0048136D01*
X0295543Y0048290D01*
X0295726Y0048448D01*
X0295905Y0048610D01*
X0296080Y0048777D01*
X0296251Y0048948D01*
X0296418Y0049123D01*
X0296580Y0049302D01*
X0296738Y0049485D01*
X0296892Y0049671D01*
X0297041Y0049861D01*
X0297185Y0050055D01*
X0297325Y0050252D01*
X0297460Y0050453D01*
X0297590Y0050657D01*
X0297715Y0050863D01*
X0297835Y0051073D01*
X0297950Y0051286D01*
X0298059Y0051501D01*
X0298164Y0051719D01*
X0298263Y0051939D01*
X0298357Y0052162D01*
X0298445Y0052387D01*
X0298528Y0052614D01*
X0298606Y0052843D01*
X0298677Y0053074D01*
X0298744Y0053306D01*
X0298804Y0053540D01*
X0298859Y0053775D01*
X0298909Y0054012D01*
X0298952Y0054249D01*
X0298990Y0054488D01*
X0299022Y0054728D01*
X0299048Y0054968D01*
X0299069Y0055209D01*
X0299083Y0055450D01*
X0299092Y0055691D01*
X0299095Y0055933D01*
X0299095Y0125933D01*
X0284174Y0125933D02*
X0284176Y0126073D01*
X0284182Y0126213D01*
X0284192Y0126352D01*
X0284206Y0126491D01*
X0284224Y0126630D01*
X0284245Y0126768D01*
X0284271Y0126906D01*
X0284301Y0127043D01*
X0284334Y0127178D01*
X0284372Y0127313D01*
X0284413Y0127447D01*
X0284458Y0127580D01*
X0284506Y0127711D01*
X0284559Y0127840D01*
X0284615Y0127969D01*
X0284674Y0128095D01*
X0284738Y0128220D01*
X0284804Y0128343D01*
X0284875Y0128464D01*
X0284948Y0128583D01*
X0285025Y0128700D01*
X0285106Y0128814D01*
X0285189Y0128926D01*
X0285276Y0129036D01*
X0285366Y0129144D01*
X0285458Y0129248D01*
X0285554Y0129350D01*
X0285653Y0129450D01*
X0285754Y0129546D01*
X0285858Y0129640D01*
X0285965Y0129730D01*
X0286074Y0129817D01*
X0286186Y0129902D01*
X0286300Y0129983D01*
X0286416Y0130061D01*
X0286534Y0130135D01*
X0286655Y0130206D01*
X0286777Y0130274D01*
X0286902Y0130338D01*
X0287028Y0130399D01*
X0287155Y0130456D01*
X0287285Y0130509D01*
X0287416Y0130559D01*
X0287548Y0130604D01*
X0287681Y0130647D01*
X0287816Y0130685D01*
X0287951Y0130719D01*
X0288088Y0130750D01*
X0288225Y0130777D01*
X0288363Y0130799D01*
X0288502Y0130818D01*
X0288641Y0130833D01*
X0288780Y0130844D01*
X0288920Y0130851D01*
X0289060Y0130854D01*
X0289200Y0130853D01*
X0289340Y0130848D01*
X0289479Y0130839D01*
X0289619Y0130826D01*
X0289758Y0130809D01*
X0289896Y0130788D01*
X0290034Y0130764D01*
X0290171Y0130735D01*
X0290307Y0130703D01*
X0290442Y0130666D01*
X0290576Y0130626D01*
X0290709Y0130582D01*
X0290840Y0130534D01*
X0290970Y0130483D01*
X0291099Y0130428D01*
X0291226Y0130369D01*
X0291351Y0130306D01*
X0291474Y0130241D01*
X0291596Y0130171D01*
X0291715Y0130098D01*
X0291833Y0130022D01*
X0291948Y0129943D01*
X0292061Y0129860D01*
X0292171Y0129774D01*
X0292279Y0129685D01*
X0292384Y0129593D01*
X0292487Y0129498D01*
X0292587Y0129400D01*
X0292684Y0129300D01*
X0292778Y0129196D01*
X0292870Y0129090D01*
X0292958Y0128982D01*
X0293043Y0128871D01*
X0293125Y0128757D01*
X0293204Y0128641D01*
X0293279Y0128524D01*
X0293351Y0128404D01*
X0293419Y0128282D01*
X0293484Y0128158D01*
X0293546Y0128032D01*
X0293604Y0127905D01*
X0293658Y0127776D01*
X0293709Y0127645D01*
X0293755Y0127513D01*
X0293798Y0127380D01*
X0293838Y0127246D01*
X0293873Y0127111D01*
X0293905Y0126974D01*
X0293932Y0126837D01*
X0293956Y0126699D01*
X0293976Y0126561D01*
X0293992Y0126422D01*
X0294004Y0126282D01*
X0294012Y0126143D01*
X0294016Y0126003D01*
X0294016Y0125863D01*
X0294012Y0125723D01*
X0294004Y0125584D01*
X0293992Y0125444D01*
X0293976Y0125305D01*
X0293956Y0125167D01*
X0293932Y0125029D01*
X0293905Y0124892D01*
X0293873Y0124755D01*
X0293838Y0124620D01*
X0293798Y0124486D01*
X0293755Y0124353D01*
X0293709Y0124221D01*
X0293658Y0124090D01*
X0293604Y0123961D01*
X0293546Y0123834D01*
X0293484Y0123708D01*
X0293419Y0123584D01*
X0293351Y0123462D01*
X0293279Y0123342D01*
X0293204Y0123225D01*
X0293125Y0123109D01*
X0293043Y0122995D01*
X0292958Y0122884D01*
X0292870Y0122776D01*
X0292778Y0122670D01*
X0292684Y0122566D01*
X0292587Y0122466D01*
X0292487Y0122368D01*
X0292384Y0122273D01*
X0292279Y0122181D01*
X0292171Y0122092D01*
X0292061Y0122006D01*
X0291948Y0121923D01*
X0291833Y0121844D01*
X0291715Y0121768D01*
X0291596Y0121695D01*
X0291474Y0121625D01*
X0291351Y0121560D01*
X0291226Y0121497D01*
X0291099Y0121438D01*
X0290970Y0121383D01*
X0290840Y0121332D01*
X0290709Y0121284D01*
X0290576Y0121240D01*
X0290442Y0121200D01*
X0290307Y0121163D01*
X0290171Y0121131D01*
X0290034Y0121102D01*
X0289896Y0121078D01*
X0289758Y0121057D01*
X0289619Y0121040D01*
X0289479Y0121027D01*
X0289340Y0121018D01*
X0289200Y0121013D01*
X0289060Y0121012D01*
X0288920Y0121015D01*
X0288780Y0121022D01*
X0288641Y0121033D01*
X0288502Y0121048D01*
X0288363Y0121067D01*
X0288225Y0121089D01*
X0288088Y0121116D01*
X0287951Y0121147D01*
X0287816Y0121181D01*
X0287681Y0121219D01*
X0287548Y0121262D01*
X0287416Y0121307D01*
X0287285Y0121357D01*
X0287155Y0121410D01*
X0287028Y0121467D01*
X0286902Y0121528D01*
X0286777Y0121592D01*
X0286655Y0121660D01*
X0286534Y0121731D01*
X0286416Y0121805D01*
X0286300Y0121883D01*
X0286186Y0121964D01*
X0286074Y0122049D01*
X0285965Y0122136D01*
X0285858Y0122226D01*
X0285754Y0122320D01*
X0285653Y0122416D01*
X0285554Y0122516D01*
X0285458Y0122618D01*
X0285366Y0122722D01*
X0285276Y0122830D01*
X0285189Y0122940D01*
X0285106Y0123052D01*
X0285025Y0123166D01*
X0284948Y0123283D01*
X0284875Y0123402D01*
X0284804Y0123523D01*
X0284738Y0123646D01*
X0284674Y0123771D01*
X0284615Y0123897D01*
X0284559Y0124026D01*
X0284506Y0124155D01*
X0284458Y0124286D01*
X0284413Y0124419D01*
X0284372Y0124553D01*
X0284334Y0124688D01*
X0284301Y0124823D01*
X0284271Y0124960D01*
X0284245Y0125098D01*
X0284224Y0125236D01*
X0284206Y0125375D01*
X0284192Y0125514D01*
X0284182Y0125653D01*
X0284176Y0125793D01*
X0284174Y0125933D01*
X0289095Y0135933D02*
X0289337Y0135930D01*
X0289578Y0135921D01*
X0289819Y0135907D01*
X0290060Y0135886D01*
X0290300Y0135860D01*
X0290540Y0135828D01*
X0290779Y0135790D01*
X0291016Y0135747D01*
X0291253Y0135697D01*
X0291488Y0135642D01*
X0291722Y0135582D01*
X0291954Y0135515D01*
X0292185Y0135444D01*
X0292414Y0135366D01*
X0292641Y0135283D01*
X0292866Y0135195D01*
X0293089Y0135101D01*
X0293309Y0135002D01*
X0293527Y0134897D01*
X0293742Y0134788D01*
X0293955Y0134673D01*
X0294165Y0134553D01*
X0294371Y0134428D01*
X0294575Y0134298D01*
X0294776Y0134163D01*
X0294973Y0134023D01*
X0295167Y0133879D01*
X0295357Y0133730D01*
X0295543Y0133576D01*
X0295726Y0133418D01*
X0295905Y0133256D01*
X0296080Y0133089D01*
X0296251Y0132918D01*
X0296418Y0132743D01*
X0296580Y0132564D01*
X0296738Y0132381D01*
X0296892Y0132195D01*
X0297041Y0132005D01*
X0297185Y0131811D01*
X0297325Y0131614D01*
X0297460Y0131413D01*
X0297590Y0131209D01*
X0297715Y0131003D01*
X0297835Y0130793D01*
X0297950Y0130580D01*
X0298059Y0130365D01*
X0298164Y0130147D01*
X0298263Y0129927D01*
X0298357Y0129704D01*
X0298445Y0129479D01*
X0298528Y0129252D01*
X0298606Y0129023D01*
X0298677Y0128792D01*
X0298744Y0128560D01*
X0298804Y0128326D01*
X0298859Y0128091D01*
X0298909Y0127854D01*
X0298952Y0127617D01*
X0298990Y0127378D01*
X0299022Y0127138D01*
X0299048Y0126898D01*
X0299069Y0126657D01*
X0299083Y0126416D01*
X0299092Y0126175D01*
X0299095Y0125933D01*
X0289095Y0135933D02*
X0049095Y0135933D01*
X0048853Y0135930D01*
X0048612Y0135921D01*
X0048371Y0135907D01*
X0048130Y0135886D01*
X0047890Y0135860D01*
X0047650Y0135828D01*
X0047411Y0135790D01*
X0047174Y0135747D01*
X0046937Y0135697D01*
X0046702Y0135642D01*
X0046468Y0135582D01*
X0046236Y0135515D01*
X0046005Y0135444D01*
X0045776Y0135366D01*
X0045549Y0135283D01*
X0045324Y0135195D01*
X0045101Y0135101D01*
X0044881Y0135002D01*
X0044663Y0134897D01*
X0044448Y0134788D01*
X0044235Y0134673D01*
X0044025Y0134553D01*
X0043819Y0134428D01*
X0043615Y0134298D01*
X0043414Y0134163D01*
X0043217Y0134023D01*
X0043023Y0133879D01*
X0042833Y0133730D01*
X0042647Y0133576D01*
X0042464Y0133418D01*
X0042285Y0133256D01*
X0042110Y0133089D01*
X0041939Y0132918D01*
X0041772Y0132743D01*
X0041610Y0132564D01*
X0041452Y0132381D01*
X0041298Y0132195D01*
X0041149Y0132005D01*
X0041005Y0131811D01*
X0040865Y0131614D01*
X0040730Y0131413D01*
X0040600Y0131209D01*
X0040475Y0131003D01*
X0040355Y0130793D01*
X0040240Y0130580D01*
X0040131Y0130365D01*
X0040026Y0130147D01*
X0039927Y0129927D01*
X0039833Y0129704D01*
X0039745Y0129479D01*
X0039662Y0129252D01*
X0039584Y0129023D01*
X0039513Y0128792D01*
X0039446Y0128560D01*
X0039386Y0128326D01*
X0039331Y0128091D01*
X0039281Y0127854D01*
X0039238Y0127617D01*
X0039200Y0127378D01*
X0039168Y0127138D01*
X0039142Y0126898D01*
X0039121Y0126657D01*
X0039107Y0126416D01*
X0039098Y0126175D01*
X0039095Y0125933D01*
X0039095Y0101433D01*
X0041095Y0099433D01*
X0041095Y0082933D01*
X0039095Y0080933D01*
X0039095Y0055933D01*
X0039098Y0055691D01*
X0039107Y0055450D01*
X0039121Y0055209D01*
X0039142Y0054968D01*
X0039168Y0054728D01*
X0039200Y0054488D01*
X0039238Y0054249D01*
X0039281Y0054012D01*
X0039331Y0053775D01*
X0039386Y0053540D01*
X0039446Y0053306D01*
X0039513Y0053074D01*
X0039584Y0052843D01*
X0039662Y0052614D01*
X0039745Y0052387D01*
X0039833Y0052162D01*
X0039927Y0051939D01*
X0040026Y0051719D01*
X0040131Y0051501D01*
X0040240Y0051286D01*
X0040355Y0051073D01*
X0040475Y0050863D01*
X0040600Y0050657D01*
X0040730Y0050453D01*
X0040865Y0050252D01*
X0041005Y0050055D01*
X0041149Y0049861D01*
X0041298Y0049671D01*
X0041452Y0049485D01*
X0041610Y0049302D01*
X0041772Y0049123D01*
X0041939Y0048948D01*
X0042110Y0048777D01*
X0042285Y0048610D01*
X0042464Y0048448D01*
X0042647Y0048290D01*
X0042833Y0048136D01*
X0043023Y0047987D01*
X0043217Y0047843D01*
X0043414Y0047703D01*
X0043615Y0047568D01*
X0043819Y0047438D01*
X0044025Y0047313D01*
X0044235Y0047193D01*
X0044448Y0047078D01*
X0044663Y0046969D01*
X0044881Y0046864D01*
X0045101Y0046765D01*
X0045324Y0046671D01*
X0045549Y0046583D01*
X0045776Y0046500D01*
X0046005Y0046422D01*
X0046236Y0046351D01*
X0046468Y0046284D01*
X0046702Y0046224D01*
X0046937Y0046169D01*
X0047174Y0046119D01*
X0047411Y0046076D01*
X0047650Y0046038D01*
X0047890Y0046006D01*
X0048130Y0045980D01*
X0048371Y0045959D01*
X0048612Y0045945D01*
X0048853Y0045936D01*
X0049095Y0045933D01*
X0047934Y0074988D02*
X0050296Y0074988D01*
X0050373Y0075000D01*
X0050449Y0075015D01*
X0050525Y0075034D01*
X0050599Y0075057D01*
X0050673Y0075083D01*
X0050744Y0075113D01*
X0050815Y0075147D01*
X0050883Y0075183D01*
X0050950Y0075224D01*
X0051015Y0075267D01*
X0051077Y0075313D01*
X0051138Y0075363D01*
X0051195Y0075415D01*
X0051250Y0075471D01*
X0051302Y0075528D01*
X0051352Y0075589D01*
X0051398Y0075651D01*
X0051441Y0075716D01*
X0051481Y0075783D01*
X0051518Y0075852D01*
X0051551Y0075922D01*
X0051581Y0075994D01*
X0051607Y0076068D01*
X0051629Y0076142D01*
X0051648Y0076218D01*
X0051663Y0076294D01*
X0051674Y0076371D01*
X0051682Y0076449D01*
X0051686Y0076527D01*
X0051685Y0076605D01*
X0051682Y0076682D01*
X0051674Y0076760D01*
X0051682Y0076838D01*
X0051685Y0076915D01*
X0051686Y0076993D01*
X0051682Y0077071D01*
X0051674Y0077149D01*
X0051663Y0077226D01*
X0051648Y0077302D01*
X0051629Y0077378D01*
X0051607Y0077452D01*
X0051581Y0077526D01*
X0051551Y0077598D01*
X0051518Y0077668D01*
X0051481Y0077737D01*
X0051441Y0077804D01*
X0051398Y0077869D01*
X0051352Y0077931D01*
X0051302Y0077992D01*
X0051250Y0078049D01*
X0051195Y0078105D01*
X0051138Y0078157D01*
X0051077Y0078207D01*
X0051015Y0078253D01*
X0050950Y0078296D01*
X0050883Y0078337D01*
X0050815Y0078373D01*
X0050744Y0078407D01*
X0050673Y0078437D01*
X0050599Y0078463D01*
X0050525Y0078486D01*
X0050449Y0078505D01*
X0050373Y0078520D01*
X0050296Y0078532D01*
X0050296Y0078531D02*
X0047934Y0078531D01*
X0047934Y0078532D02*
X0047857Y0078520D01*
X0047781Y0078505D01*
X0047705Y0078486D01*
X0047631Y0078463D01*
X0047557Y0078437D01*
X0047486Y0078407D01*
X0047415Y0078373D01*
X0047347Y0078337D01*
X0047280Y0078296D01*
X0047215Y0078253D01*
X0047153Y0078207D01*
X0047092Y0078157D01*
X0047035Y0078105D01*
X0046980Y0078049D01*
X0046928Y0077992D01*
X0046878Y0077931D01*
X0046832Y0077869D01*
X0046789Y0077804D01*
X0046749Y0077737D01*
X0046712Y0077668D01*
X0046679Y0077598D01*
X0046649Y0077526D01*
X0046623Y0077452D01*
X0046601Y0077378D01*
X0046582Y0077302D01*
X0046567Y0077226D01*
X0046556Y0077149D01*
X0046548Y0077071D01*
X0046544Y0076993D01*
X0046545Y0076915D01*
X0046548Y0076838D01*
X0046556Y0076760D01*
X0046548Y0076682D01*
X0046545Y0076605D01*
X0046544Y0076527D01*
X0046548Y0076449D01*
X0046556Y0076371D01*
X0046567Y0076294D01*
X0046582Y0076218D01*
X0046601Y0076142D01*
X0046623Y0076068D01*
X0046649Y0075994D01*
X0046679Y0075922D01*
X0046712Y0075852D01*
X0046749Y0075783D01*
X0046789Y0075716D01*
X0046832Y0075651D01*
X0046878Y0075589D01*
X0046928Y0075528D01*
X0046980Y0075471D01*
X0047035Y0075415D01*
X0047092Y0075363D01*
X0047153Y0075313D01*
X0047215Y0075267D01*
X0047280Y0075224D01*
X0047347Y0075183D01*
X0047415Y0075147D01*
X0047486Y0075113D01*
X0047557Y0075083D01*
X0047631Y0075057D01*
X0047705Y0075034D01*
X0047781Y0075015D01*
X0047857Y0075000D01*
X0047934Y0074988D01*
X0055217Y0083256D02*
X0055219Y0083330D01*
X0055225Y0083404D01*
X0055235Y0083477D01*
X0055249Y0083550D01*
X0055266Y0083622D01*
X0055288Y0083692D01*
X0055313Y0083762D01*
X0055342Y0083830D01*
X0055375Y0083896D01*
X0055411Y0083961D01*
X0055451Y0084023D01*
X0055493Y0084084D01*
X0055539Y0084142D01*
X0055588Y0084197D01*
X0055640Y0084250D01*
X0055695Y0084300D01*
X0055752Y0084346D01*
X0055812Y0084390D01*
X0055874Y0084430D01*
X0055938Y0084467D01*
X0056004Y0084501D01*
X0056072Y0084531D01*
X0056141Y0084557D01*
X0056212Y0084580D01*
X0056283Y0084598D01*
X0056356Y0084613D01*
X0056429Y0084624D01*
X0056503Y0084631D01*
X0056577Y0084634D01*
X0056650Y0084633D01*
X0056724Y0084628D01*
X0056798Y0084619D01*
X0056871Y0084606D01*
X0056943Y0084589D01*
X0057014Y0084569D01*
X0057084Y0084544D01*
X0057152Y0084516D01*
X0057219Y0084485D01*
X0057284Y0084449D01*
X0057347Y0084411D01*
X0057408Y0084369D01*
X0057467Y0084323D01*
X0057523Y0084275D01*
X0057576Y0084224D01*
X0057626Y0084170D01*
X0057674Y0084113D01*
X0057718Y0084054D01*
X0057760Y0083992D01*
X0057798Y0083929D01*
X0057832Y0083863D01*
X0057863Y0083796D01*
X0057890Y0083727D01*
X0057913Y0083657D01*
X0057933Y0083586D01*
X0057949Y0083513D01*
X0057961Y0083440D01*
X0057969Y0083367D01*
X0057973Y0083293D01*
X0057973Y0083219D01*
X0057969Y0083145D01*
X0057961Y0083072D01*
X0057949Y0082999D01*
X0057933Y0082926D01*
X0057913Y0082855D01*
X0057890Y0082785D01*
X0057863Y0082716D01*
X0057832Y0082649D01*
X0057798Y0082583D01*
X0057760Y0082520D01*
X0057718Y0082458D01*
X0057674Y0082399D01*
X0057626Y0082342D01*
X0057576Y0082288D01*
X0057523Y0082237D01*
X0057467Y0082189D01*
X0057408Y0082143D01*
X0057347Y0082101D01*
X0057284Y0082063D01*
X0057219Y0082027D01*
X0057152Y0081996D01*
X0057084Y0081968D01*
X0057014Y0081943D01*
X0056943Y0081923D01*
X0056871Y0081906D01*
X0056798Y0081893D01*
X0056724Y0081884D01*
X0056650Y0081879D01*
X0056577Y0081878D01*
X0056503Y0081881D01*
X0056429Y0081888D01*
X0056356Y0081899D01*
X0056283Y0081914D01*
X0056212Y0081932D01*
X0056141Y0081955D01*
X0056072Y0081981D01*
X0056004Y0082011D01*
X0055938Y0082045D01*
X0055874Y0082082D01*
X0055812Y0082122D01*
X0055752Y0082166D01*
X0055695Y0082212D01*
X0055640Y0082262D01*
X0055588Y0082315D01*
X0055539Y0082370D01*
X0055493Y0082428D01*
X0055451Y0082489D01*
X0055411Y0082551D01*
X0055375Y0082616D01*
X0055342Y0082682D01*
X0055313Y0082750D01*
X0055288Y0082820D01*
X0055266Y0082890D01*
X0055249Y0082962D01*
X0055235Y0083035D01*
X0055225Y0083108D01*
X0055219Y0083182D01*
X0055217Y0083256D01*
X0055217Y0098610D02*
X0055219Y0098684D01*
X0055225Y0098758D01*
X0055235Y0098831D01*
X0055249Y0098904D01*
X0055266Y0098976D01*
X0055288Y0099046D01*
X0055313Y0099116D01*
X0055342Y0099184D01*
X0055375Y0099250D01*
X0055411Y0099315D01*
X0055451Y0099377D01*
X0055493Y0099438D01*
X0055539Y0099496D01*
X0055588Y0099551D01*
X0055640Y0099604D01*
X0055695Y0099654D01*
X0055752Y0099700D01*
X0055812Y0099744D01*
X0055874Y0099784D01*
X0055938Y0099821D01*
X0056004Y0099855D01*
X0056072Y0099885D01*
X0056141Y0099911D01*
X0056212Y0099934D01*
X0056283Y0099952D01*
X0056356Y0099967D01*
X0056429Y0099978D01*
X0056503Y0099985D01*
X0056577Y0099988D01*
X0056650Y0099987D01*
X0056724Y0099982D01*
X0056798Y0099973D01*
X0056871Y0099960D01*
X0056943Y0099943D01*
X0057014Y0099923D01*
X0057084Y0099898D01*
X0057152Y0099870D01*
X0057219Y0099839D01*
X0057284Y0099803D01*
X0057347Y0099765D01*
X0057408Y0099723D01*
X0057467Y0099677D01*
X0057523Y0099629D01*
X0057576Y0099578D01*
X0057626Y0099524D01*
X0057674Y0099467D01*
X0057718Y0099408D01*
X0057760Y0099346D01*
X0057798Y0099283D01*
X0057832Y0099217D01*
X0057863Y0099150D01*
X0057890Y0099081D01*
X0057913Y0099011D01*
X0057933Y0098940D01*
X0057949Y0098867D01*
X0057961Y0098794D01*
X0057969Y0098721D01*
X0057973Y0098647D01*
X0057973Y0098573D01*
X0057969Y0098499D01*
X0057961Y0098426D01*
X0057949Y0098353D01*
X0057933Y0098280D01*
X0057913Y0098209D01*
X0057890Y0098139D01*
X0057863Y0098070D01*
X0057832Y0098003D01*
X0057798Y0097937D01*
X0057760Y0097874D01*
X0057718Y0097812D01*
X0057674Y0097753D01*
X0057626Y0097696D01*
X0057576Y0097642D01*
X0057523Y0097591D01*
X0057467Y0097543D01*
X0057408Y0097497D01*
X0057347Y0097455D01*
X0057284Y0097417D01*
X0057219Y0097381D01*
X0057152Y0097350D01*
X0057084Y0097322D01*
X0057014Y0097297D01*
X0056943Y0097277D01*
X0056871Y0097260D01*
X0056798Y0097247D01*
X0056724Y0097238D01*
X0056650Y0097233D01*
X0056577Y0097232D01*
X0056503Y0097235D01*
X0056429Y0097242D01*
X0056356Y0097253D01*
X0056283Y0097268D01*
X0056212Y0097286D01*
X0056141Y0097309D01*
X0056072Y0097335D01*
X0056004Y0097365D01*
X0055938Y0097399D01*
X0055874Y0097436D01*
X0055812Y0097476D01*
X0055752Y0097520D01*
X0055695Y0097566D01*
X0055640Y0097616D01*
X0055588Y0097669D01*
X0055539Y0097724D01*
X0055493Y0097782D01*
X0055451Y0097843D01*
X0055411Y0097905D01*
X0055375Y0097970D01*
X0055342Y0098036D01*
X0055313Y0098104D01*
X0055288Y0098174D01*
X0055266Y0098244D01*
X0055249Y0098316D01*
X0055235Y0098389D01*
X0055225Y0098462D01*
X0055219Y0098536D01*
X0055217Y0098610D01*
X0050296Y0103335D02*
X0048131Y0103335D01*
X0048130Y0103334D02*
X0048056Y0103331D01*
X0047981Y0103332D01*
X0047906Y0103336D01*
X0047831Y0103345D01*
X0047757Y0103357D01*
X0047684Y0103373D01*
X0047611Y0103392D01*
X0047540Y0103415D01*
X0047470Y0103442D01*
X0047401Y0103472D01*
X0047334Y0103506D01*
X0047269Y0103543D01*
X0047206Y0103583D01*
X0047145Y0103626D01*
X0047086Y0103673D01*
X0047030Y0103722D01*
X0046976Y0103774D01*
X0046925Y0103829D01*
X0046876Y0103887D01*
X0046831Y0103946D01*
X0046789Y0104008D01*
X0046750Y0104072D01*
X0046714Y0104138D01*
X0046681Y0104206D01*
X0046652Y0104275D01*
X0046627Y0104346D01*
X0046605Y0104417D01*
X0046587Y0104490D01*
X0046573Y0104564D01*
X0046562Y0104638D01*
X0046555Y0104713D01*
X0046556Y0104713D02*
X0046556Y0105500D01*
X0046555Y0105500D02*
X0046562Y0105575D01*
X0046573Y0105649D01*
X0046587Y0105723D01*
X0046605Y0105796D01*
X0046627Y0105867D01*
X0046652Y0105938D01*
X0046681Y0106007D01*
X0046714Y0106075D01*
X0046750Y0106141D01*
X0046789Y0106205D01*
X0046831Y0106267D01*
X0046876Y0106326D01*
X0046925Y0106384D01*
X0046976Y0106439D01*
X0047030Y0106491D01*
X0047086Y0106540D01*
X0047145Y0106587D01*
X0047206Y0106630D01*
X0047269Y0106670D01*
X0047334Y0106707D01*
X0047401Y0106741D01*
X0047470Y0106771D01*
X0047540Y0106798D01*
X0047611Y0106821D01*
X0047684Y0106840D01*
X0047757Y0106856D01*
X0047831Y0106868D01*
X0047906Y0106877D01*
X0047981Y0106881D01*
X0048056Y0106882D01*
X0048130Y0106879D01*
X0048131Y0106878D02*
X0050296Y0106878D01*
X0050368Y0106876D01*
X0050440Y0106870D01*
X0050512Y0106861D01*
X0050583Y0106848D01*
X0050653Y0106831D01*
X0050722Y0106811D01*
X0050790Y0106786D01*
X0050856Y0106759D01*
X0050922Y0106728D01*
X0050985Y0106693D01*
X0051047Y0106656D01*
X0051106Y0106615D01*
X0051163Y0106571D01*
X0051218Y0106524D01*
X0051270Y0106474D01*
X0051320Y0106422D01*
X0051367Y0106367D01*
X0051411Y0106310D01*
X0051452Y0106251D01*
X0051489Y0106189D01*
X0051524Y0106126D01*
X0051555Y0106060D01*
X0051582Y0105994D01*
X0051607Y0105926D01*
X0051627Y0105857D01*
X0051644Y0105787D01*
X0051657Y0105716D01*
X0051666Y0105644D01*
X0051672Y0105572D01*
X0051674Y0105500D01*
X0051674Y0104713D01*
X0051672Y0104641D01*
X0051666Y0104569D01*
X0051657Y0104497D01*
X0051644Y0104426D01*
X0051627Y0104356D01*
X0051607Y0104287D01*
X0051582Y0104219D01*
X0051555Y0104153D01*
X0051524Y0104087D01*
X0051489Y0104024D01*
X0051452Y0103962D01*
X0051411Y0103903D01*
X0051367Y0103846D01*
X0051320Y0103791D01*
X0051270Y0103739D01*
X0051218Y0103689D01*
X0051163Y0103642D01*
X0051106Y0103598D01*
X0051047Y0103557D01*
X0050985Y0103520D01*
X0050922Y0103485D01*
X0050856Y0103454D01*
X0050790Y0103427D01*
X0050722Y0103402D01*
X0050653Y0103382D01*
X0050583Y0103365D01*
X0050512Y0103352D01*
X0050440Y0103343D01*
X0050368Y0103337D01*
X0050296Y0103335D01*
X0173126Y0060933D02*
X0173128Y0061021D01*
X0173134Y0061109D01*
X0173144Y0061197D01*
X0173158Y0061285D01*
X0173175Y0061371D01*
X0173197Y0061457D01*
X0173222Y0061541D01*
X0173252Y0061625D01*
X0173284Y0061707D01*
X0173321Y0061787D01*
X0173361Y0061866D01*
X0173405Y0061943D01*
X0173452Y0062018D01*
X0173502Y0062090D01*
X0173556Y0062161D01*
X0173612Y0062228D01*
X0173672Y0062294D01*
X0173734Y0062356D01*
X0173800Y0062416D01*
X0173867Y0062472D01*
X0173938Y0062526D01*
X0174010Y0062576D01*
X0174085Y0062623D01*
X0174162Y0062667D01*
X0174241Y0062707D01*
X0174321Y0062744D01*
X0174403Y0062776D01*
X0174487Y0062806D01*
X0174571Y0062831D01*
X0174657Y0062853D01*
X0174743Y0062870D01*
X0174831Y0062884D01*
X0174919Y0062894D01*
X0175007Y0062900D01*
X0175095Y0062902D01*
X0175183Y0062900D01*
X0175271Y0062894D01*
X0175359Y0062884D01*
X0175447Y0062870D01*
X0175533Y0062853D01*
X0175619Y0062831D01*
X0175703Y0062806D01*
X0175787Y0062776D01*
X0175869Y0062744D01*
X0175949Y0062707D01*
X0176028Y0062667D01*
X0176105Y0062623D01*
X0176180Y0062576D01*
X0176252Y0062526D01*
X0176323Y0062472D01*
X0176390Y0062416D01*
X0176456Y0062356D01*
X0176518Y0062294D01*
X0176578Y0062228D01*
X0176634Y0062161D01*
X0176688Y0062090D01*
X0176738Y0062018D01*
X0176785Y0061943D01*
X0176829Y0061866D01*
X0176869Y0061787D01*
X0176906Y0061707D01*
X0176938Y0061625D01*
X0176968Y0061541D01*
X0176993Y0061457D01*
X0177015Y0061371D01*
X0177032Y0061285D01*
X0177046Y0061197D01*
X0177056Y0061109D01*
X0177062Y0061021D01*
X0177064Y0060933D01*
X0177062Y0060845D01*
X0177056Y0060757D01*
X0177046Y0060669D01*
X0177032Y0060581D01*
X0177015Y0060495D01*
X0176993Y0060409D01*
X0176968Y0060325D01*
X0176938Y0060241D01*
X0176906Y0060159D01*
X0176869Y0060079D01*
X0176829Y0060000D01*
X0176785Y0059923D01*
X0176738Y0059848D01*
X0176688Y0059776D01*
X0176634Y0059705D01*
X0176578Y0059638D01*
X0176518Y0059572D01*
X0176456Y0059510D01*
X0176390Y0059450D01*
X0176323Y0059394D01*
X0176252Y0059340D01*
X0176180Y0059290D01*
X0176105Y0059243D01*
X0176028Y0059199D01*
X0175949Y0059159D01*
X0175869Y0059122D01*
X0175787Y0059090D01*
X0175703Y0059060D01*
X0175619Y0059035D01*
X0175533Y0059013D01*
X0175447Y0058996D01*
X0175359Y0058982D01*
X0175271Y0058972D01*
X0175183Y0058966D01*
X0175095Y0058964D01*
X0175007Y0058966D01*
X0174919Y0058972D01*
X0174831Y0058982D01*
X0174743Y0058996D01*
X0174657Y0059013D01*
X0174571Y0059035D01*
X0174487Y0059060D01*
X0174403Y0059090D01*
X0174321Y0059122D01*
X0174241Y0059159D01*
X0174162Y0059199D01*
X0174085Y0059243D01*
X0174010Y0059290D01*
X0173938Y0059340D01*
X0173867Y0059394D01*
X0173800Y0059450D01*
X0173734Y0059510D01*
X0173672Y0059572D01*
X0173612Y0059638D01*
X0173556Y0059705D01*
X0173502Y0059776D01*
X0173452Y0059848D01*
X0173405Y0059923D01*
X0173361Y0060000D01*
X0173321Y0060079D01*
X0173284Y0060159D01*
X0173252Y0060241D01*
X0173222Y0060325D01*
X0173197Y0060409D01*
X0173175Y0060495D01*
X0173158Y0060581D01*
X0173144Y0060669D01*
X0173134Y0060757D01*
X0173128Y0060845D01*
X0173126Y0060933D01*
X0188126Y0060933D02*
X0188128Y0061021D01*
X0188134Y0061109D01*
X0188144Y0061197D01*
X0188158Y0061285D01*
X0188175Y0061371D01*
X0188197Y0061457D01*
X0188222Y0061541D01*
X0188252Y0061625D01*
X0188284Y0061707D01*
X0188321Y0061787D01*
X0188361Y0061866D01*
X0188405Y0061943D01*
X0188452Y0062018D01*
X0188502Y0062090D01*
X0188556Y0062161D01*
X0188612Y0062228D01*
X0188672Y0062294D01*
X0188734Y0062356D01*
X0188800Y0062416D01*
X0188867Y0062472D01*
X0188938Y0062526D01*
X0189010Y0062576D01*
X0189085Y0062623D01*
X0189162Y0062667D01*
X0189241Y0062707D01*
X0189321Y0062744D01*
X0189403Y0062776D01*
X0189487Y0062806D01*
X0189571Y0062831D01*
X0189657Y0062853D01*
X0189743Y0062870D01*
X0189831Y0062884D01*
X0189919Y0062894D01*
X0190007Y0062900D01*
X0190095Y0062902D01*
X0190183Y0062900D01*
X0190271Y0062894D01*
X0190359Y0062884D01*
X0190447Y0062870D01*
X0190533Y0062853D01*
X0190619Y0062831D01*
X0190703Y0062806D01*
X0190787Y0062776D01*
X0190869Y0062744D01*
X0190949Y0062707D01*
X0191028Y0062667D01*
X0191105Y0062623D01*
X0191180Y0062576D01*
X0191252Y0062526D01*
X0191323Y0062472D01*
X0191390Y0062416D01*
X0191456Y0062356D01*
X0191518Y0062294D01*
X0191578Y0062228D01*
X0191634Y0062161D01*
X0191688Y0062090D01*
X0191738Y0062018D01*
X0191785Y0061943D01*
X0191829Y0061866D01*
X0191869Y0061787D01*
X0191906Y0061707D01*
X0191938Y0061625D01*
X0191968Y0061541D01*
X0191993Y0061457D01*
X0192015Y0061371D01*
X0192032Y0061285D01*
X0192046Y0061197D01*
X0192056Y0061109D01*
X0192062Y0061021D01*
X0192064Y0060933D01*
X0192062Y0060845D01*
X0192056Y0060757D01*
X0192046Y0060669D01*
X0192032Y0060581D01*
X0192015Y0060495D01*
X0191993Y0060409D01*
X0191968Y0060325D01*
X0191938Y0060241D01*
X0191906Y0060159D01*
X0191869Y0060079D01*
X0191829Y0060000D01*
X0191785Y0059923D01*
X0191738Y0059848D01*
X0191688Y0059776D01*
X0191634Y0059705D01*
X0191578Y0059638D01*
X0191518Y0059572D01*
X0191456Y0059510D01*
X0191390Y0059450D01*
X0191323Y0059394D01*
X0191252Y0059340D01*
X0191180Y0059290D01*
X0191105Y0059243D01*
X0191028Y0059199D01*
X0190949Y0059159D01*
X0190869Y0059122D01*
X0190787Y0059090D01*
X0190703Y0059060D01*
X0190619Y0059035D01*
X0190533Y0059013D01*
X0190447Y0058996D01*
X0190359Y0058982D01*
X0190271Y0058972D01*
X0190183Y0058966D01*
X0190095Y0058964D01*
X0190007Y0058966D01*
X0189919Y0058972D01*
X0189831Y0058982D01*
X0189743Y0058996D01*
X0189657Y0059013D01*
X0189571Y0059035D01*
X0189487Y0059060D01*
X0189403Y0059090D01*
X0189321Y0059122D01*
X0189241Y0059159D01*
X0189162Y0059199D01*
X0189085Y0059243D01*
X0189010Y0059290D01*
X0188938Y0059340D01*
X0188867Y0059394D01*
X0188800Y0059450D01*
X0188734Y0059510D01*
X0188672Y0059572D01*
X0188612Y0059638D01*
X0188556Y0059705D01*
X0188502Y0059776D01*
X0188452Y0059848D01*
X0188405Y0059923D01*
X0188361Y0060000D01*
X0188321Y0060079D01*
X0188284Y0060159D01*
X0188252Y0060241D01*
X0188222Y0060325D01*
X0188197Y0060409D01*
X0188175Y0060495D01*
X0188158Y0060581D01*
X0188144Y0060669D01*
X0188134Y0060757D01*
X0188128Y0060845D01*
X0188126Y0060933D01*
X0217843Y0098772D02*
X0217845Y0098856D01*
X0217851Y0098939D01*
X0217861Y0099022D01*
X0217875Y0099105D01*
X0217892Y0099187D01*
X0217914Y0099268D01*
X0217939Y0099347D01*
X0217968Y0099426D01*
X0218001Y0099503D01*
X0218037Y0099578D01*
X0218077Y0099652D01*
X0218120Y0099724D01*
X0218167Y0099793D01*
X0218217Y0099860D01*
X0218270Y0099925D01*
X0218326Y0099987D01*
X0218384Y0100047D01*
X0218446Y0100104D01*
X0218510Y0100157D01*
X0218577Y0100208D01*
X0218646Y0100255D01*
X0218717Y0100300D01*
X0218790Y0100340D01*
X0218865Y0100377D01*
X0218942Y0100411D01*
X0219020Y0100441D01*
X0219099Y0100467D01*
X0219180Y0100490D01*
X0219262Y0100508D01*
X0219344Y0100523D01*
X0219427Y0100534D01*
X0219510Y0100541D01*
X0219594Y0100544D01*
X0219678Y0100543D01*
X0219761Y0100538D01*
X0219845Y0100529D01*
X0219927Y0100516D01*
X0220009Y0100500D01*
X0220090Y0100479D01*
X0220171Y0100455D01*
X0220249Y0100427D01*
X0220327Y0100395D01*
X0220403Y0100359D01*
X0220477Y0100320D01*
X0220549Y0100278D01*
X0220619Y0100232D01*
X0220687Y0100183D01*
X0220752Y0100131D01*
X0220815Y0100076D01*
X0220875Y0100018D01*
X0220933Y0099957D01*
X0220987Y0099893D01*
X0221039Y0099827D01*
X0221087Y0099759D01*
X0221132Y0099688D01*
X0221173Y0099615D01*
X0221212Y0099541D01*
X0221246Y0099465D01*
X0221277Y0099387D01*
X0221304Y0099308D01*
X0221328Y0099227D01*
X0221347Y0099146D01*
X0221363Y0099064D01*
X0221375Y0098981D01*
X0221383Y0098897D01*
X0221387Y0098814D01*
X0221387Y0098730D01*
X0221383Y0098647D01*
X0221375Y0098563D01*
X0221363Y0098480D01*
X0221347Y0098398D01*
X0221328Y0098317D01*
X0221304Y0098236D01*
X0221277Y0098157D01*
X0221246Y0098079D01*
X0221212Y0098003D01*
X0221173Y0097929D01*
X0221132Y0097856D01*
X0221087Y0097785D01*
X0221039Y0097717D01*
X0220987Y0097651D01*
X0220933Y0097587D01*
X0220875Y0097526D01*
X0220815Y0097468D01*
X0220752Y0097413D01*
X0220687Y0097361D01*
X0220619Y0097312D01*
X0220549Y0097266D01*
X0220477Y0097224D01*
X0220403Y0097185D01*
X0220327Y0097149D01*
X0220249Y0097117D01*
X0220171Y0097089D01*
X0220090Y0097065D01*
X0220009Y0097044D01*
X0219927Y0097028D01*
X0219845Y0097015D01*
X0219761Y0097006D01*
X0219678Y0097001D01*
X0219594Y0097000D01*
X0219510Y0097003D01*
X0219427Y0097010D01*
X0219344Y0097021D01*
X0219262Y0097036D01*
X0219180Y0097054D01*
X0219099Y0097077D01*
X0219020Y0097103D01*
X0218942Y0097133D01*
X0218865Y0097167D01*
X0218790Y0097204D01*
X0218717Y0097244D01*
X0218646Y0097289D01*
X0218577Y0097336D01*
X0218510Y0097387D01*
X0218446Y0097440D01*
X0218384Y0097497D01*
X0218326Y0097557D01*
X0218270Y0097619D01*
X0218217Y0097684D01*
X0218167Y0097751D01*
X0218120Y0097820D01*
X0218077Y0097892D01*
X0218037Y0097966D01*
X0218001Y0098041D01*
X0217968Y0098118D01*
X0217939Y0098197D01*
X0217914Y0098276D01*
X0217892Y0098357D01*
X0217875Y0098439D01*
X0217861Y0098522D01*
X0217851Y0098605D01*
X0217845Y0098688D01*
X0217843Y0098772D01*
D11*
X0221342Y0096337D02*
X0221926Y0096921D01*
X0224845Y0096921D01*
X0223094Y0097505D02*
X0223094Y0096337D01*
X0223677Y0095049D02*
X0222510Y0093882D01*
X0222510Y0093298D01*
X0222510Y0091980D02*
X0224261Y0091980D01*
X0224845Y0091396D01*
X0224845Y0089645D01*
X0222510Y0089645D01*
X0222510Y0088297D02*
X0222510Y0087713D01*
X0224845Y0087713D01*
X0224845Y0088297D02*
X0224845Y0087129D01*
X0224261Y0085258D02*
X0221926Y0085258D01*
X0222510Y0085842D02*
X0222510Y0084674D01*
X0224261Y0085258D02*
X0224845Y0084674D01*
X0227842Y0084135D02*
X0227842Y0085302D01*
X0228426Y0085886D01*
X0229010Y0085886D01*
X0229594Y0085302D01*
X0229594Y0084135D01*
X0230177Y0083551D01*
X0230761Y0083551D01*
X0231345Y0084135D01*
X0231345Y0085302D01*
X0230761Y0085886D01*
X0230761Y0087234D02*
X0228426Y0087234D01*
X0227842Y0087818D01*
X0227842Y0088985D01*
X0228426Y0089569D01*
X0230761Y0089569D01*
X0231345Y0088985D01*
X0231345Y0087818D01*
X0230761Y0087234D01*
X0233342Y0086500D02*
X0233342Y0085332D01*
X0233342Y0085916D02*
X0236845Y0085916D01*
X0236845Y0086500D02*
X0236845Y0085332D01*
X0236845Y0084045D02*
X0233342Y0084045D01*
X0233342Y0082293D01*
X0233926Y0081709D01*
X0235094Y0081709D01*
X0235677Y0082293D01*
X0235677Y0084045D01*
X0235677Y0082877D02*
X0236845Y0081709D01*
X0236261Y0080361D02*
X0236845Y0079778D01*
X0236845Y0078610D01*
X0236261Y0078026D01*
X0233926Y0078026D01*
X0233342Y0078610D01*
X0233342Y0079778D01*
X0233926Y0080361D01*
X0236261Y0080361D01*
X0235677Y0079194D02*
X0236845Y0078026D01*
X0238013Y0076678D02*
X0236845Y0075511D01*
X0236845Y0076094D01*
X0236261Y0076094D01*
X0236261Y0075511D01*
X0236845Y0075511D01*
X0236261Y0074223D02*
X0235677Y0074223D01*
X0235094Y0073639D01*
X0235094Y0072471D01*
X0235677Y0071887D01*
X0236261Y0071887D01*
X0236845Y0072471D01*
X0236845Y0073639D01*
X0236261Y0074223D01*
X0235094Y0073639D02*
X0234510Y0074223D01*
X0233926Y0074223D01*
X0233342Y0073639D01*
X0233342Y0072471D01*
X0233926Y0071887D01*
X0234510Y0071887D01*
X0235094Y0072471D01*
X0231345Y0072441D02*
X0231345Y0073609D01*
X0231345Y0073025D02*
X0227842Y0073025D01*
X0227842Y0073609D02*
X0227842Y0072441D01*
X0228426Y0071154D02*
X0229010Y0071154D01*
X0229594Y0070570D01*
X0229594Y0069402D01*
X0230177Y0068818D01*
X0230761Y0068818D01*
X0231345Y0069402D01*
X0231345Y0070570D01*
X0230761Y0071154D01*
X0228426Y0071154D02*
X0227842Y0070570D01*
X0227842Y0069402D01*
X0228426Y0068818D01*
X0228426Y0067470D02*
X0230761Y0067470D01*
X0231345Y0066887D01*
X0231345Y0065719D01*
X0230761Y0065135D01*
X0228426Y0065135D01*
X0227842Y0065719D01*
X0227842Y0066887D01*
X0228426Y0067470D01*
X0224845Y0068130D02*
X0224845Y0069881D01*
X0223677Y0069297D02*
X0223094Y0069881D01*
X0222510Y0069297D01*
X0222510Y0067546D01*
X0223677Y0068130D02*
X0223677Y0069297D01*
X0223677Y0068130D02*
X0224261Y0067546D01*
X0224845Y0068130D01*
X0224845Y0066198D02*
X0224261Y0066198D01*
X0224261Y0065614D01*
X0224845Y0065614D01*
X0224845Y0066198D01*
X0223094Y0066198D02*
X0222510Y0066198D01*
X0222510Y0065614D01*
X0223094Y0065614D01*
X0223094Y0066198D01*
X0227842Y0063787D02*
X0229010Y0062620D01*
X0230177Y0062620D01*
X0231345Y0063787D01*
X0233342Y0062590D02*
X0233926Y0063173D01*
X0234510Y0063173D01*
X0235094Y0062590D01*
X0235094Y0061422D01*
X0235677Y0060838D01*
X0236261Y0060838D01*
X0236845Y0061422D01*
X0236845Y0062590D01*
X0236261Y0063173D01*
X0236261Y0064521D02*
X0236845Y0065105D01*
X0236845Y0066273D01*
X0236261Y0066857D01*
X0233926Y0066857D01*
X0233342Y0066273D01*
X0233342Y0065105D01*
X0233926Y0064521D01*
X0233342Y0062590D02*
X0233342Y0061422D01*
X0233926Y0060838D01*
X0224845Y0071229D02*
X0223094Y0071229D01*
X0222510Y0071813D01*
X0222510Y0073564D01*
X0224845Y0073564D01*
X0224845Y0074852D02*
X0224845Y0076020D01*
X0224845Y0075436D02*
X0222510Y0075436D01*
X0222510Y0076020D01*
X0221342Y0075436D02*
X0220758Y0075436D01*
X0221926Y0077368D02*
X0223094Y0077368D01*
X0223677Y0077951D01*
X0223677Y0079703D01*
X0224845Y0079703D02*
X0221342Y0079703D01*
X0221342Y0077951D01*
X0221926Y0077368D01*
X0227842Y0077292D02*
X0229010Y0076124D01*
X0227842Y0074957D01*
X0231345Y0074957D01*
X0231345Y0077292D02*
X0227842Y0077292D01*
X0230761Y0078580D02*
X0230761Y0079164D01*
X0231345Y0079164D01*
X0231345Y0078580D01*
X0230761Y0078580D01*
X0231345Y0078580D02*
X0232513Y0079748D01*
X0231345Y0081035D02*
X0231345Y0082203D01*
X0231345Y0081619D02*
X0227842Y0081619D01*
X0227842Y0082203D02*
X0227842Y0081035D01*
X0228426Y0083551D02*
X0227842Y0084135D01*
X0221342Y0087713D02*
X0220758Y0087713D01*
X0214345Y0087639D02*
X0214345Y0088807D01*
X0213761Y0089391D01*
X0212594Y0088807D02*
X0212594Y0087639D01*
X0213177Y0087056D01*
X0213761Y0087056D01*
X0214345Y0087639D01*
X0214345Y0085708D02*
X0210842Y0085708D01*
X0211426Y0087056D02*
X0210842Y0087639D01*
X0210842Y0088807D01*
X0211426Y0089391D01*
X0212010Y0089391D01*
X0212594Y0088807D01*
X0214345Y0085708D02*
X0213177Y0084540D01*
X0214345Y0083372D01*
X0210842Y0083372D01*
X0211426Y0082025D02*
X0213761Y0082025D01*
X0214345Y0081441D01*
X0214345Y0080273D01*
X0213761Y0079689D01*
X0214345Y0078341D02*
X0210842Y0078341D01*
X0211426Y0079689D02*
X0210842Y0080273D01*
X0210842Y0081441D01*
X0211426Y0082025D01*
X0205345Y0081911D02*
X0205345Y0080159D01*
X0204761Y0079575D01*
X0202426Y0079575D01*
X0201842Y0080159D01*
X0201842Y0081911D01*
X0205345Y0081911D01*
X0205345Y0083259D02*
X0201842Y0083259D01*
X0201842Y0085594D02*
X0205345Y0085594D01*
X0204177Y0084426D01*
X0205345Y0083259D01*
X0204761Y0086942D02*
X0205345Y0087526D01*
X0205345Y0088693D01*
X0204761Y0089277D01*
X0203594Y0088693D02*
X0203594Y0087526D01*
X0204177Y0086942D01*
X0204761Y0086942D01*
X0203594Y0088693D02*
X0203010Y0089277D01*
X0202426Y0089277D01*
X0201842Y0088693D01*
X0201842Y0087526D01*
X0202426Y0086942D01*
X0196345Y0086872D02*
X0195177Y0088040D01*
X0195177Y0087456D02*
X0195177Y0089208D01*
X0196345Y0089208D02*
X0192842Y0089208D01*
X0192842Y0087456D01*
X0193426Y0086872D01*
X0194594Y0086872D01*
X0195177Y0087456D01*
X0195761Y0085525D02*
X0196345Y0084941D01*
X0196345Y0083773D01*
X0195761Y0083189D01*
X0195177Y0083189D01*
X0194594Y0083773D01*
X0194594Y0084941D01*
X0194010Y0085525D01*
X0193426Y0085525D01*
X0192842Y0084941D01*
X0192842Y0083773D01*
X0193426Y0083189D01*
X0192842Y0081841D02*
X0192842Y0079506D01*
X0192842Y0080674D02*
X0196345Y0080674D01*
X0201842Y0078228D02*
X0201842Y0077060D01*
X0201842Y0077644D02*
X0205345Y0077644D01*
X0205345Y0078228D02*
X0205345Y0077060D01*
X0204761Y0075772D02*
X0202426Y0075772D01*
X0201842Y0075188D01*
X0201842Y0074021D01*
X0202426Y0073437D01*
X0204761Y0073437D01*
X0205345Y0074021D01*
X0205345Y0075188D01*
X0204761Y0075772D01*
X0210842Y0074658D02*
X0214345Y0074658D01*
X0213177Y0074658D02*
X0210842Y0072323D01*
X0212594Y0074075D02*
X0214345Y0072323D01*
X0214345Y0076006D02*
X0214345Y0078341D01*
X0227842Y0090917D02*
X0231345Y0090917D01*
X0233342Y0091531D02*
X0233926Y0091531D01*
X0236261Y0093866D01*
X0236845Y0093866D01*
X0236845Y0095154D02*
X0236845Y0095738D01*
X0236261Y0095738D01*
X0236261Y0095154D01*
X0236845Y0095154D01*
X0238013Y0096322D01*
X0236845Y0097609D02*
X0236261Y0098193D01*
X0233926Y0098193D01*
X0234510Y0098777D02*
X0234510Y0097609D01*
X0232513Y0095708D02*
X0231345Y0094540D01*
X0231345Y0095124D01*
X0230761Y0095124D01*
X0230761Y0094540D01*
X0231345Y0094540D01*
X0231345Y0093252D02*
X0227842Y0093252D01*
X0229010Y0092085D01*
X0227842Y0090917D01*
X0233342Y0091531D02*
X0233342Y0093866D01*
X0231345Y0097056D02*
X0229594Y0098807D01*
X0230177Y0099391D02*
X0227842Y0097056D01*
X0227842Y0099391D02*
X0231345Y0099391D01*
X0230761Y0100739D02*
X0231345Y0101323D01*
X0231345Y0102490D01*
X0230761Y0103074D01*
X0228426Y0103074D01*
X0227842Y0102490D01*
X0227842Y0101323D01*
X0228426Y0100739D01*
X0224845Y0100604D02*
X0224845Y0099436D01*
X0224845Y0100604D02*
X0224261Y0101188D01*
X0223094Y0101188D01*
X0222510Y0100604D01*
X0222510Y0099436D01*
X0223094Y0098853D01*
X0223677Y0098853D01*
X0223677Y0101188D01*
X0222510Y0102536D02*
X0224845Y0102536D01*
X0224845Y0104287D01*
X0224261Y0104871D01*
X0222510Y0104871D01*
X0221342Y0106743D02*
X0224845Y0106743D01*
X0224845Y0107327D02*
X0224845Y0106159D01*
X0224261Y0108674D02*
X0224845Y0109258D01*
X0224845Y0111010D01*
X0221342Y0111010D01*
X0221342Y0109258D01*
X0221926Y0108674D01*
X0222510Y0108674D01*
X0223094Y0109258D01*
X0223094Y0111010D01*
X0223094Y0109258D02*
X0223677Y0108674D01*
X0224261Y0108674D01*
X0221342Y0107327D02*
X0221342Y0106743D01*
X0216335Y0104657D02*
X0216335Y0095209D01*
X0208855Y0095209D01*
X0208855Y0104657D01*
X0216335Y0104657D01*
X0207335Y0104657D02*
X0207335Y0095209D01*
X0199855Y0095209D01*
X0199855Y0104657D01*
X0207335Y0104657D01*
X0198335Y0104657D02*
X0198335Y0095209D01*
X0190855Y0095209D01*
X0190855Y0104657D01*
X0198335Y0104657D01*
X0189335Y0104657D02*
X0189335Y0095209D01*
X0181855Y0095209D01*
X0181855Y0104657D01*
X0189335Y0104657D01*
X0180335Y0104657D02*
X0180335Y0095209D01*
X0172855Y0095209D01*
X0172855Y0104657D01*
X0180335Y0104657D01*
X0177761Y0089208D02*
X0178345Y0088624D01*
X0178345Y0087456D01*
X0177761Y0086872D01*
X0176594Y0086872D01*
X0176594Y0088040D01*
X0175426Y0089208D02*
X0177761Y0089208D01*
X0175426Y0089208D02*
X0174842Y0088624D01*
X0174842Y0087456D01*
X0175426Y0086872D01*
X0174842Y0085525D02*
X0178345Y0083189D01*
X0174842Y0083189D01*
X0174842Y0081841D02*
X0174842Y0080090D01*
X0175426Y0079506D01*
X0177761Y0079506D01*
X0178345Y0080090D01*
X0178345Y0081841D01*
X0174842Y0081841D01*
X0174842Y0085525D02*
X0178345Y0085525D01*
X0183842Y0085525D02*
X0183842Y0083189D01*
X0183842Y0081841D02*
X0186761Y0081841D01*
X0187345Y0081258D01*
X0187345Y0080090D01*
X0186761Y0079506D01*
X0183842Y0079506D01*
X0185594Y0084357D02*
X0185594Y0085525D01*
X0187345Y0085525D02*
X0183842Y0085525D01*
X0184426Y0086872D02*
X0183842Y0087456D01*
X0183842Y0089208D01*
X0187345Y0089208D01*
X0187345Y0087456D01*
X0186761Y0086872D01*
X0184426Y0086872D01*
X0222510Y0095049D02*
X0224845Y0095049D01*
X0234510Y0100709D02*
X0235094Y0100125D01*
X0235677Y0100125D01*
X0235677Y0102460D01*
X0235094Y0102460D02*
X0234510Y0101876D01*
X0234510Y0100709D01*
X0235094Y0102460D02*
X0236261Y0102460D01*
X0236845Y0101876D01*
X0236845Y0100709D01*
X0236261Y0103808D02*
X0235677Y0104392D01*
X0235677Y0105560D01*
X0235094Y0106143D01*
X0234510Y0105560D01*
X0234510Y0103808D01*
X0236261Y0103808D02*
X0236845Y0104392D01*
X0236845Y0106143D01*
X0235677Y0107491D02*
X0235677Y0109827D01*
X0235094Y0109827D02*
X0234510Y0109243D01*
X0234510Y0108075D01*
X0235094Y0107491D01*
X0235677Y0107491D01*
X0236845Y0108075D02*
X0236845Y0109243D01*
X0236261Y0109827D01*
X0235094Y0109827D01*
X0235094Y0111174D02*
X0235677Y0111758D01*
X0235677Y0113510D01*
X0235677Y0112342D02*
X0236845Y0111174D01*
X0235094Y0111174D02*
X0233926Y0111174D01*
X0233342Y0111758D01*
X0233342Y0113510D01*
X0236845Y0113510D01*
X0231345Y0115351D02*
X0227842Y0115351D01*
X0227842Y0113600D01*
X0228426Y0113016D01*
X0229594Y0113016D01*
X0230177Y0113600D01*
X0230177Y0115351D01*
X0230177Y0116699D02*
X0230761Y0116699D01*
X0231345Y0117283D01*
X0231345Y0118451D01*
X0230761Y0119034D01*
X0229594Y0118451D02*
X0229594Y0117283D01*
X0230177Y0116699D01*
X0228426Y0116699D02*
X0227842Y0117283D01*
X0227842Y0118451D01*
X0228426Y0119034D01*
X0229010Y0119034D01*
X0229594Y0118451D01*
X0233342Y0119124D02*
X0235094Y0120876D01*
X0235094Y0118541D01*
X0236845Y0119124D02*
X0233342Y0119124D01*
X0231345Y0111668D02*
X0231345Y0110500D01*
X0231345Y0111084D02*
X0227842Y0111084D01*
X0227842Y0111668D02*
X0227842Y0110500D01*
X0229010Y0109213D02*
X0227842Y0108045D01*
X0228426Y0106757D02*
X0229010Y0106757D01*
X0229594Y0106173D01*
X0229594Y0105006D01*
X0230177Y0104422D01*
X0230761Y0104422D01*
X0231345Y0105006D01*
X0231345Y0106173D01*
X0230761Y0106757D01*
X0231345Y0108045D02*
X0230177Y0109213D01*
X0229010Y0109213D01*
X0228426Y0106757D02*
X0227842Y0106173D01*
X0227842Y0105006D01*
X0228426Y0104422D01*
X0093796Y0117515D02*
X0093212Y0118099D01*
X0093212Y0119267D01*
X0092628Y0118683D01*
X0092044Y0118683D01*
X0091460Y0119267D01*
X0091460Y0120435D01*
X0093212Y0120435D02*
X0093212Y0119267D01*
X0090112Y0119267D02*
X0089529Y0118683D01*
X0088361Y0118683D01*
X0087777Y0119267D01*
X0087777Y0122186D01*
X0086429Y0121602D02*
X0086429Y0121018D01*
X0085845Y0120435D01*
X0084678Y0120435D01*
X0084094Y0119851D01*
X0084094Y0119267D01*
X0084678Y0118683D01*
X0085845Y0118683D01*
X0086429Y0119267D01*
X0086429Y0121602D02*
X0085845Y0122186D01*
X0084678Y0122186D01*
X0084094Y0121602D01*
X0082746Y0122186D02*
X0080995Y0122186D01*
X0080411Y0121602D01*
X0080411Y0121018D01*
X0080995Y0120435D01*
X0082746Y0120435D01*
X0082746Y0122186D02*
X0082746Y0118683D01*
X0080995Y0118683D01*
X0080411Y0119267D01*
X0080411Y0119851D01*
X0080995Y0120435D01*
X0075380Y0120435D02*
X0074796Y0121018D01*
X0073044Y0121018D01*
X0071697Y0120435D02*
X0071113Y0121018D01*
X0069945Y0121018D01*
X0069361Y0120435D01*
X0069361Y0118683D01*
X0068014Y0119267D02*
X0067430Y0118683D01*
X0065678Y0118683D01*
X0065678Y0120435D01*
X0066262Y0121018D01*
X0067430Y0121018D01*
X0067430Y0119851D02*
X0065678Y0119851D01*
X0064330Y0119851D02*
X0063163Y0121018D01*
X0062579Y0121018D01*
X0061261Y0120435D02*
X0060677Y0121018D01*
X0058926Y0121018D01*
X0058926Y0118099D01*
X0059510Y0117515D01*
X0060093Y0117515D01*
X0060677Y0118683D02*
X0058926Y0118683D01*
X0057578Y0119267D02*
X0056994Y0118683D01*
X0055826Y0118683D01*
X0055243Y0119851D02*
X0057578Y0119851D01*
X0057578Y0120435D02*
X0056994Y0121018D01*
X0055826Y0121018D01*
X0055243Y0120435D01*
X0055243Y0119851D01*
X0057578Y0119267D02*
X0057578Y0120435D01*
X0060677Y0118683D02*
X0061261Y0119267D01*
X0061261Y0120435D01*
X0064330Y0121018D02*
X0064330Y0118683D01*
X0067430Y0119851D02*
X0068014Y0119267D01*
X0071697Y0118683D02*
X0071697Y0122186D01*
X0073351Y0124099D02*
X0073935Y0123515D01*
X0074519Y0123515D01*
X0073351Y0124099D02*
X0073351Y0127018D01*
X0073351Y0124683D02*
X0075103Y0124683D01*
X0075687Y0125267D01*
X0075687Y0127018D01*
X0077558Y0128186D02*
X0077558Y0124683D01*
X0076975Y0124683D02*
X0078142Y0124683D01*
X0079490Y0125267D02*
X0079490Y0126435D01*
X0080074Y0127018D01*
X0081241Y0127018D01*
X0081825Y0126435D01*
X0081825Y0125267D01*
X0081241Y0124683D01*
X0080074Y0124683D01*
X0079490Y0125267D01*
X0078142Y0128186D02*
X0077558Y0128186D01*
X0077528Y0130683D02*
X0075193Y0134186D01*
X0073845Y0132435D02*
X0071510Y0132435D01*
X0070162Y0131267D02*
X0069578Y0131267D01*
X0069578Y0130683D01*
X0070162Y0130683D01*
X0070162Y0131267D01*
X0068320Y0130683D02*
X0065985Y0133018D01*
X0065985Y0133602D01*
X0066569Y0134186D01*
X0067737Y0134186D01*
X0068320Y0133602D01*
X0068320Y0130683D02*
X0065985Y0130683D01*
X0064637Y0131851D02*
X0063470Y0130683D01*
X0062302Y0131851D01*
X0062302Y0134186D01*
X0064637Y0134186D02*
X0064637Y0131851D01*
X0066569Y0128186D02*
X0065985Y0127602D01*
X0065985Y0127018D01*
X0066569Y0126435D01*
X0068320Y0126435D01*
X0066569Y0126435D02*
X0065985Y0125851D01*
X0065985Y0125267D01*
X0066569Y0124683D01*
X0068320Y0124683D01*
X0068320Y0128186D01*
X0066569Y0128186D01*
X0064053Y0127018D02*
X0062886Y0127018D01*
X0062302Y0126435D01*
X0062302Y0124683D01*
X0064053Y0124683D01*
X0064637Y0125267D01*
X0064053Y0125851D01*
X0062302Y0125851D01*
X0060954Y0127018D02*
X0059787Y0127018D01*
X0060370Y0127602D02*
X0060370Y0125267D01*
X0059787Y0124683D01*
X0057915Y0125267D02*
X0057915Y0127602D01*
X0058499Y0127018D02*
X0057331Y0127018D01*
X0057915Y0125267D02*
X0057331Y0124683D01*
X0072094Y0130683D02*
X0072094Y0134186D01*
X0073845Y0132435D01*
X0078876Y0133602D02*
X0081211Y0131267D01*
X0081211Y0130683D01*
X0082469Y0130683D02*
X0083053Y0130683D01*
X0083053Y0131267D01*
X0082469Y0131267D01*
X0082469Y0130683D01*
X0084401Y0131267D02*
X0084985Y0130683D01*
X0086152Y0130683D01*
X0086736Y0131267D01*
X0085569Y0132435D02*
X0084985Y0132435D01*
X0084401Y0131851D01*
X0084401Y0131267D01*
X0084985Y0132435D02*
X0084401Y0133018D01*
X0084401Y0133602D01*
X0084985Y0134186D01*
X0086152Y0134186D01*
X0086736Y0133602D01*
X0087380Y0128770D02*
X0087380Y0128186D01*
X0087380Y0127018D02*
X0087380Y0124683D01*
X0087964Y0124683D02*
X0086796Y0124683D01*
X0085508Y0124683D02*
X0085508Y0128186D01*
X0083757Y0128186D01*
X0083173Y0127602D01*
X0083173Y0126435D01*
X0083757Y0125851D01*
X0085508Y0125851D01*
X0087380Y0127018D02*
X0087964Y0127018D01*
X0089312Y0124683D02*
X0091647Y0124683D01*
X0091647Y0128186D01*
X0090112Y0122186D02*
X0090112Y0119267D01*
X0075380Y0119267D02*
X0074796Y0118683D01*
X0073044Y0118683D01*
X0075380Y0119267D02*
X0075380Y0120435D01*
X0078876Y0133602D02*
X0078876Y0134186D01*
X0081211Y0134186D01*
D12*
X0122611Y0114119D02*
X0125480Y0111250D01*
X0124763Y0110533D01*
X0123329Y0110533D01*
X0122611Y0111250D01*
X0122611Y0114119D01*
X0123329Y0114837D01*
X0124763Y0114837D01*
X0125480Y0114119D01*
X0125480Y0111250D01*
X0127215Y0110533D02*
X0127215Y0114837D01*
X0128650Y0113402D01*
X0130084Y0114837D01*
X0130084Y0110533D01*
X0127782Y0107337D02*
X0127782Y0103033D01*
X0124913Y0103033D01*
X0123179Y0103033D02*
X0120309Y0103033D01*
X0121744Y0105185D02*
X0123179Y0105185D01*
X0123179Y0107337D02*
X0123179Y0103033D01*
X0123179Y0107337D02*
X0120309Y0107337D01*
X0134021Y0105902D02*
X0135456Y0105902D01*
X0134738Y0106619D02*
X0134738Y0103750D01*
X0134021Y0103033D01*
X0137090Y0103033D02*
X0138525Y0103033D01*
X0137808Y0103033D02*
X0137808Y0105902D01*
X0138525Y0105902D01*
X0137808Y0107337D02*
X0137808Y0108054D01*
X0138525Y0110533D02*
X0138525Y0113402D01*
X0138525Y0111968D02*
X0137090Y0113402D01*
X0136373Y0113402D01*
X0140260Y0112685D02*
X0140260Y0111968D01*
X0143129Y0111968D01*
X0143129Y0112685D02*
X0142412Y0113402D01*
X0140977Y0113402D01*
X0140260Y0112685D01*
X0140977Y0110533D02*
X0142412Y0110533D01*
X0143129Y0111250D01*
X0143129Y0112685D01*
X0144864Y0112685D02*
X0144864Y0110533D01*
X0144864Y0112685D02*
X0145581Y0113402D01*
X0147016Y0113402D01*
X0147733Y0112685D01*
X0149368Y0113402D02*
X0150802Y0113402D01*
X0150085Y0114119D02*
X0150085Y0111250D01*
X0149368Y0110533D01*
X0147733Y0110533D02*
X0147733Y0114837D01*
X0152537Y0112685D02*
X0152537Y0110533D01*
X0154689Y0110533D01*
X0155406Y0111250D01*
X0154689Y0111968D01*
X0152537Y0111968D01*
X0152537Y0112685D02*
X0153254Y0113402D01*
X0154689Y0113402D01*
X0157141Y0112685D02*
X0157141Y0111968D01*
X0160010Y0111968D01*
X0160010Y0112685D02*
X0159293Y0113402D01*
X0157858Y0113402D01*
X0157141Y0112685D01*
X0157858Y0110533D02*
X0159293Y0110533D01*
X0160010Y0111250D01*
X0160010Y0112685D01*
X0161745Y0114837D02*
X0164614Y0114837D01*
X0164614Y0110533D01*
X0164614Y0112685D02*
X0163179Y0112685D01*
X0162312Y0107337D02*
X0161595Y0107337D01*
X0161595Y0103033D01*
X0162312Y0103033D02*
X0160877Y0103033D01*
X0159243Y0103750D02*
X0158525Y0103033D01*
X0156373Y0103033D01*
X0156373Y0105902D01*
X0154639Y0105185D02*
X0153921Y0105902D01*
X0152487Y0105902D01*
X0151770Y0105185D01*
X0151770Y0104468D01*
X0154639Y0104468D01*
X0154639Y0105185D02*
X0154639Y0103750D01*
X0153921Y0103033D01*
X0152487Y0103033D01*
X0149317Y0103033D02*
X0149317Y0106619D01*
X0148600Y0107337D01*
X0146965Y0105902D02*
X0146965Y0103033D01*
X0146965Y0104468D02*
X0145531Y0105902D01*
X0144814Y0105902D01*
X0143129Y0105902D02*
X0143129Y0103750D01*
X0142412Y0103033D01*
X0140260Y0103033D01*
X0140260Y0105902D01*
X0148600Y0105185D02*
X0150035Y0105185D01*
X0159243Y0105902D02*
X0159243Y0103750D01*
X0164047Y0103750D02*
X0164764Y0103033D01*
X0166916Y0103033D01*
X0166916Y0107337D01*
X0164764Y0107337D01*
X0164047Y0106619D01*
X0164047Y0105902D01*
X0164764Y0105185D01*
X0166916Y0105185D01*
X0164764Y0105185D02*
X0164047Y0104468D01*
X0164047Y0103750D01*
X0173528Y0111926D02*
X0174796Y0110658D01*
X0176063Y0111926D01*
X0176063Y0114461D01*
X0177671Y0113827D02*
X0177671Y0113194D01*
X0178305Y0112560D01*
X0177671Y0111926D01*
X0177671Y0111292D01*
X0178305Y0110658D01*
X0179573Y0110658D01*
X0180207Y0111292D01*
X0181645Y0111292D02*
X0181645Y0110658D01*
X0182279Y0110658D01*
X0182279Y0111292D01*
X0181645Y0111292D01*
X0183887Y0111292D02*
X0184521Y0110658D01*
X0185788Y0110658D01*
X0186422Y0111292D01*
X0185154Y0112560D02*
X0184521Y0112560D01*
X0183887Y0111926D01*
X0183887Y0111292D01*
X0184521Y0112560D02*
X0183887Y0113194D01*
X0183887Y0113827D01*
X0184521Y0114461D01*
X0185788Y0114461D01*
X0186422Y0113827D01*
X0192174Y0111926D02*
X0193442Y0110658D01*
X0194075Y0110658D01*
X0194709Y0111292D01*
X0194709Y0111926D01*
X0193442Y0113194D01*
X0193442Y0113827D01*
X0194075Y0114461D01*
X0194709Y0113827D01*
X0194709Y0113194D01*
X0192174Y0110658D01*
X0200461Y0110658D02*
X0202996Y0110658D01*
X0200461Y0113194D01*
X0202996Y0113194D01*
X0204604Y0112560D02*
X0207140Y0112560D01*
X0207140Y0114461D02*
X0207140Y0110658D01*
X0208748Y0110658D02*
X0208748Y0114461D01*
X0210016Y0113194D01*
X0211283Y0114461D01*
X0211283Y0110658D01*
X0212891Y0111292D02*
X0213525Y0110658D01*
X0214793Y0110658D01*
X0215427Y0111292D01*
X0215427Y0111926D01*
X0214793Y0112560D01*
X0213525Y0112560D01*
X0212891Y0111926D01*
X0212891Y0111292D01*
X0213525Y0112560D02*
X0212891Y0113194D01*
X0212891Y0113827D01*
X0213525Y0114461D01*
X0214793Y0114461D01*
X0215427Y0113827D01*
X0215427Y0113194D01*
X0214793Y0112560D01*
X0217035Y0112560D02*
X0219570Y0112560D01*
X0217669Y0114461D01*
X0217669Y0110658D01*
X0204604Y0110658D02*
X0204604Y0114461D01*
X0203568Y0117408D02*
X0203568Y0119944D01*
X0204836Y0121211D01*
X0206104Y0119944D01*
X0206104Y0117408D01*
X0207712Y0118042D02*
X0208346Y0117408D01*
X0209614Y0117408D01*
X0210248Y0118042D01*
X0209614Y0119310D02*
X0208346Y0119310D01*
X0207712Y0118676D01*
X0207712Y0118042D01*
X0206104Y0119310D02*
X0203568Y0119310D01*
X0201960Y0121211D02*
X0200693Y0119944D01*
X0199425Y0121211D01*
X0199425Y0117408D01*
X0197817Y0117408D02*
X0195915Y0117408D01*
X0195281Y0118042D01*
X0195281Y0120577D01*
X0195915Y0121211D01*
X0197817Y0121211D01*
X0197817Y0117408D01*
X0201960Y0117408D02*
X0201960Y0121211D01*
X0207712Y0120577D02*
X0208346Y0121211D01*
X0209614Y0121211D01*
X0210248Y0120577D01*
X0210248Y0119944D01*
X0209614Y0119310D01*
X0211856Y0121211D02*
X0214391Y0121211D01*
X0213123Y0121211D02*
X0213123Y0117408D01*
X0215999Y0117408D02*
X0215999Y0119944D01*
X0217267Y0121211D01*
X0218535Y0119944D01*
X0218535Y0117408D01*
X0218535Y0119310D02*
X0215999Y0119310D01*
X0193673Y0120577D02*
X0193039Y0121211D01*
X0191772Y0121211D01*
X0191138Y0120577D01*
X0191138Y0119944D01*
X0193673Y0117408D01*
X0191138Y0117408D01*
X0189530Y0117408D02*
X0186994Y0117408D01*
X0188262Y0117408D02*
X0188262Y0121211D01*
X0189530Y0119944D01*
X0185386Y0120577D02*
X0185386Y0118042D01*
X0184752Y0117408D01*
X0183485Y0117408D01*
X0182851Y0118042D01*
X0182851Y0119310D01*
X0184119Y0119310D01*
X0185386Y0120577D02*
X0184752Y0121211D01*
X0183485Y0121211D01*
X0182851Y0120577D01*
X0181243Y0119944D02*
X0179975Y0121211D01*
X0179975Y0117408D01*
X0181243Y0117408D02*
X0178707Y0117408D01*
X0177099Y0118042D02*
X0177099Y0118676D01*
X0176465Y0119310D01*
X0175198Y0119310D01*
X0174564Y0118676D01*
X0174564Y0118042D01*
X0175198Y0117408D01*
X0176465Y0117408D01*
X0177099Y0118042D01*
X0176465Y0119310D02*
X0177099Y0119944D01*
X0177099Y0120577D01*
X0176465Y0121211D01*
X0175198Y0121211D01*
X0174564Y0120577D01*
X0174564Y0119944D01*
X0175198Y0119310D01*
X0173528Y0114461D02*
X0173528Y0111926D01*
X0177671Y0113827D02*
X0178305Y0114461D01*
X0179573Y0114461D01*
X0180207Y0113827D01*
X0178939Y0112560D02*
X0178305Y0112560D01*
D13*
X0178730Y0108335D02*
X0180464Y0108335D01*
X0179597Y0108335D02*
X0179597Y0105733D01*
X0177518Y0105733D02*
X0177518Y0108335D01*
X0176217Y0108335D01*
X0175783Y0107902D01*
X0175783Y0107034D01*
X0176217Y0106600D01*
X0177518Y0106600D01*
X0174571Y0105733D02*
X0172837Y0107468D01*
X0172837Y0107902D01*
X0173270Y0108335D01*
X0174138Y0108335D01*
X0174571Y0107902D01*
X0174571Y0105733D02*
X0172837Y0105733D01*
X0181837Y0105733D02*
X0183571Y0105733D01*
X0182704Y0105733D02*
X0182704Y0108335D01*
X0183571Y0107468D01*
X0184783Y0107902D02*
X0184783Y0107034D01*
X0185217Y0106600D01*
X0186518Y0106600D01*
X0186518Y0105733D02*
X0186518Y0108335D01*
X0185217Y0108335D01*
X0184783Y0107902D01*
X0187730Y0108335D02*
X0189464Y0108335D01*
X0188597Y0108335D02*
X0188597Y0105733D01*
X0190837Y0106167D02*
X0191270Y0105733D01*
X0192138Y0105733D01*
X0192571Y0106167D01*
X0192571Y0107034D02*
X0191704Y0107468D01*
X0191270Y0107468D01*
X0190837Y0107034D01*
X0190837Y0106167D01*
X0192571Y0107034D02*
X0192571Y0108335D01*
X0190837Y0108335D01*
X0193783Y0107902D02*
X0193783Y0107034D01*
X0194217Y0106600D01*
X0195518Y0106600D01*
X0195518Y0105733D02*
X0195518Y0108335D01*
X0194217Y0108335D01*
X0193783Y0107902D01*
X0196730Y0108335D02*
X0198464Y0108335D01*
X0197597Y0108335D02*
X0197597Y0105733D01*
X0199837Y0107034D02*
X0201571Y0107034D01*
X0200270Y0108335D01*
X0200270Y0105733D01*
X0202783Y0107034D02*
X0202783Y0107902D01*
X0203217Y0108335D01*
X0204518Y0108335D01*
X0204518Y0105733D01*
X0204518Y0106600D02*
X0203217Y0106600D01*
X0202783Y0107034D01*
X0205730Y0108335D02*
X0207464Y0108335D01*
X0206597Y0108335D02*
X0206597Y0105733D01*
X0208837Y0106167D02*
X0209270Y0105733D01*
X0210138Y0105733D01*
X0210571Y0106167D01*
X0209704Y0107034D02*
X0209270Y0107034D01*
X0208837Y0106600D01*
X0208837Y0106167D01*
X0209270Y0107034D02*
X0208837Y0107468D01*
X0208837Y0107902D01*
X0209270Y0108335D01*
X0210138Y0108335D01*
X0210571Y0107902D01*
X0211783Y0107902D02*
X0211783Y0107034D01*
X0212217Y0106600D01*
X0213518Y0106600D01*
X0213518Y0105733D02*
X0213518Y0108335D01*
X0212217Y0108335D01*
X0211783Y0107902D01*
X0214730Y0108335D02*
X0216464Y0108335D01*
X0215597Y0108335D02*
X0215597Y0105733D01*
D14*
X0123598Y0084957D03*
X0111334Y0080409D03*
X0112505Y0078274D03*
X0113608Y0076069D03*
X0113470Y0076000D03*
X0106787Y0073933D03*
X0100104Y0076000D03*
X0099966Y0076069D03*
X0101068Y0078274D03*
X0104720Y0096876D03*
X0102171Y0098736D03*
X0101068Y0100872D03*
X0101206Y0100941D03*
X0100104Y0103146D03*
X0099966Y0103077D03*
X0101482Y0110242D03*
X0101413Y0110311D03*
X0104789Y0109760D03*
X0108647Y0109898D03*
X0113470Y0103146D03*
X0113608Y0103077D03*
X0112505Y0100872D03*
X0112368Y0100941D03*
D15*
X0110990Y0104041D03*
X0109887Y0106591D03*
X0103549Y0107693D03*
X0103480Y0107762D03*
X0103342Y0107969D03*
X0103273Y0108037D03*
X0103204Y0108106D03*
X0103066Y0108313D03*
X0101826Y0111207D03*
X0110783Y0111896D03*
X0110921Y0111965D03*
X0114021Y0111344D03*
X0114090Y0111413D03*
X0102584Y0104041D03*
X0103204Y0077516D03*
X0106787Y0076482D03*
X0106787Y0074002D03*
X0110370Y0077516D03*
D16*
X0106787Y0079031D03*
X0106787Y0074071D03*
X0115675Y0085646D03*
X0115675Y0085715D03*
X0115675Y0085783D03*
X0109956Y0088953D03*
X0096521Y0085783D03*
X0096521Y0085715D03*
X0096521Y0085646D03*
X0110990Y0107624D03*
X0111059Y0107693D03*
X0111127Y0107762D03*
X0112712Y0109760D03*
X0114159Y0113343D03*
X0102584Y0110587D03*
D17*
X0106787Y0105006D03*
X0113608Y0112998D03*
X0106787Y0074140D03*
D18*
X0106787Y0074209D03*
X0106787Y0079238D03*
D19*
X0106787Y0079307D03*
X0106787Y0074278D03*
X0106787Y0099839D03*
D20*
X0106787Y0102250D03*
X0106787Y0104799D03*
X0106787Y0079445D03*
X0106787Y0074346D03*
D21*
X0106787Y0074415D03*
X0106787Y0104730D03*
D22*
X0106787Y0074484D03*
D23*
X0106787Y0074553D03*
X0106787Y0077171D03*
X0106787Y0104593D03*
D24*
X0106787Y0104524D03*
X0106787Y0077240D03*
X0106787Y0074622D03*
D25*
X0106787Y0074691D03*
X0106787Y0077309D03*
X0106787Y0101837D03*
X0106787Y0104455D03*
D26*
X0106787Y0104386D03*
X0106787Y0074760D03*
D27*
X0106787Y0074829D03*
X0106787Y0104317D03*
D28*
X0106787Y0074898D03*
D29*
X0106787Y0076551D03*
X0110232Y0074967D03*
X0103342Y0074967D03*
X0096383Y0085163D03*
X0115537Y0085163D03*
X0113057Y0110173D03*
X0113125Y0110242D03*
X0102377Y0110793D03*
D30*
X0110128Y0106797D03*
X0114538Y0113549D03*
X0109922Y0093776D03*
X0109922Y0085439D03*
X0109922Y0085370D03*
X0110611Y0075035D03*
D31*
X0102929Y0075035D03*
X0104238Y0099356D03*
X0109336Y0099356D03*
X0110232Y0106866D03*
X0113608Y0110862D03*
X0113677Y0110931D03*
D32*
X0113987Y0111276D03*
X0111024Y0112033D03*
X0109922Y0093913D03*
X0109922Y0085232D03*
X0110955Y0075104D03*
X0102619Y0075104D03*
D33*
X0102343Y0075173D03*
X0111231Y0075173D03*
X0109922Y0085094D03*
X0109922Y0094051D03*
X0109784Y0099287D03*
X0111300Y0103972D03*
X0103997Y0107142D03*
X0103928Y0107211D03*
X0102756Y0108726D03*
X0102687Y0108795D03*
X0102619Y0108864D03*
X0101723Y0111276D03*
X0110404Y0111620D03*
X0110473Y0111689D03*
X0114193Y0111551D03*
X0114262Y0111620D03*
X0114882Y0113687D03*
X0102274Y0103972D03*
D34*
X0102894Y0101561D03*
X0104203Y0106935D03*
X0104134Y0107004D03*
X0102481Y0109071D03*
X0102412Y0109140D03*
X0110128Y0111413D03*
X0110197Y0111482D03*
X0114400Y0111758D03*
X0110680Y0101561D03*
X0109922Y0094120D03*
X0111506Y0075242D03*
X0102067Y0075242D03*
D35*
X0101861Y0075311D03*
X0102687Y0077654D03*
X0103514Y0079927D03*
X0110060Y0079927D03*
X0110886Y0077654D03*
X0111713Y0075311D03*
X0109922Y0085026D03*
X0105306Y0092880D03*
X0109922Y0094189D03*
X0089184Y0094327D03*
X0089184Y0092949D03*
X0089184Y0092880D03*
X0104272Y0106866D03*
X0104341Y0106797D03*
X0102343Y0109209D03*
X0102274Y0109278D03*
X0109784Y0111138D03*
X0109853Y0111207D03*
X0109922Y0111276D03*
D36*
X0109715Y0111069D03*
X0109646Y0111000D03*
X0102136Y0109484D03*
X0109922Y0084957D03*
X0111920Y0075380D03*
X0101654Y0075380D03*
D37*
X0101447Y0075449D03*
X0112126Y0075449D03*
X0109922Y0094258D03*
X0110335Y0099150D03*
X0111162Y0101423D03*
X0103239Y0099150D03*
X0102412Y0101423D03*
X0104617Y0106591D03*
X0101998Y0109622D03*
X0109439Y0110793D03*
X0109508Y0110862D03*
X0114676Y0112102D03*
D38*
X0109302Y0110656D03*
X0109233Y0110587D03*
X0109164Y0110518D03*
X0104685Y0106522D03*
X0101241Y0103628D03*
X0103032Y0099081D03*
X0104961Y0095980D03*
X0110542Y0099081D03*
X0112333Y0103628D03*
X0101861Y0109829D03*
X0101516Y0092604D03*
X0109922Y0084888D03*
X0111506Y0077860D03*
X0112333Y0075518D03*
X0102067Y0077860D03*
X0101241Y0075518D03*
D39*
X0101068Y0075587D03*
X0102860Y0080134D03*
X0110714Y0080134D03*
X0112505Y0075587D03*
X0104996Y0095843D03*
X0104996Y0095911D03*
X0104927Y0096049D03*
X0104927Y0096118D03*
X0104927Y0096187D03*
X0102033Y0101285D03*
X0106787Y0102732D03*
X0101068Y0103559D03*
X0101757Y0109898D03*
X0101344Y0111482D03*
X0103893Y0110380D03*
X0114848Y0112240D03*
X0115261Y0113825D03*
X0112505Y0103559D03*
X0111541Y0101285D03*
D40*
X0111713Y0101217D03*
X0110748Y0099012D03*
X0104892Y0096394D03*
X0104892Y0096325D03*
X0104892Y0096256D03*
X0105030Y0095774D03*
X0102825Y0099012D03*
X0101861Y0101217D03*
X0104823Y0106453D03*
X0104134Y0110242D03*
X0103997Y0110311D03*
X0101723Y0109967D03*
X0109026Y0110380D03*
X0109095Y0110449D03*
X0109922Y0094327D03*
X0111713Y0077929D03*
X0112678Y0075656D03*
X0101861Y0077929D03*
X0100896Y0075656D03*
D41*
X0100724Y0075724D03*
X0101688Y0077998D03*
X0102653Y0080203D03*
X0110921Y0080203D03*
X0111885Y0077998D03*
X0112850Y0075724D03*
X0116364Y0085026D03*
X0097210Y0085026D03*
X0104858Y0096463D03*
X0104858Y0096531D03*
X0102653Y0098943D03*
X0101688Y0101148D03*
X0100724Y0103421D03*
X0100862Y0103490D03*
X0106787Y0105213D03*
X0106787Y0100321D03*
X0110921Y0098943D03*
X0111885Y0101148D03*
X0112850Y0103421D03*
X0112712Y0103490D03*
X0108992Y0110311D03*
X0104238Y0110173D03*
X0101688Y0110035D03*
X0114917Y0112309D03*
D42*
X0108888Y0110173D03*
X0108819Y0110104D03*
X0104410Y0110035D03*
X0104341Y0110104D03*
X0101585Y0110104D03*
X0101172Y0111551D03*
X0100552Y0103352D03*
X0101516Y0101079D03*
X0102481Y0098874D03*
X0104823Y0096600D03*
X0111093Y0098874D03*
X0112058Y0101079D03*
X0113022Y0103352D03*
X0109922Y0084819D03*
X0113022Y0075793D03*
X0100552Y0075793D03*
D43*
X0100379Y0075862D03*
X0101551Y0078067D03*
X0102515Y0080272D03*
X0106787Y0078825D03*
X0111059Y0080272D03*
X0112023Y0078067D03*
X0113194Y0075862D03*
X0106787Y0076413D03*
X0116364Y0084957D03*
X0101688Y0092535D03*
X0104789Y0096669D03*
X0104789Y0096738D03*
X0101344Y0101010D03*
X0100379Y0103283D03*
X0104927Y0106384D03*
X0104513Y0109967D03*
X0101551Y0110173D03*
X0113194Y0103283D03*
X0123598Y0094189D03*
X0097210Y0084957D03*
D44*
X0095315Y0086335D03*
X0102205Y0080409D03*
X0102343Y0080341D03*
X0101241Y0078205D03*
X0101378Y0078136D03*
X0100276Y0075931D03*
X0111231Y0080341D03*
X0112333Y0078205D03*
X0112195Y0078136D03*
X0113298Y0075931D03*
X0114469Y0086335D03*
X0104754Y0096807D03*
X0102343Y0098805D03*
X0100207Y0103215D03*
X0111231Y0098805D03*
X0112195Y0101010D03*
X0113367Y0103215D03*
X0108682Y0109967D03*
X0108750Y0110035D03*
X0104685Y0109829D03*
X0104617Y0109898D03*
D45*
X0104823Y0109691D03*
X0108544Y0109760D03*
X0108613Y0109829D03*
X0115502Y0113894D03*
X0113780Y0103008D03*
X0111506Y0098667D03*
X0109922Y0094396D03*
X0104685Y0096945D03*
X0102067Y0098667D03*
X0099794Y0103008D03*
X0101792Y0092467D03*
X0101930Y0080547D03*
X0102067Y0080478D03*
X0100965Y0078343D03*
X0099863Y0076138D03*
X0111506Y0080478D03*
X0111644Y0080547D03*
X0112609Y0078343D03*
X0113711Y0076138D03*
X0123563Y0094258D03*
D46*
X0112919Y0100665D03*
X0112781Y0100734D03*
X0112643Y0100803D03*
X0111679Y0098598D03*
X0113883Y0102939D03*
X0114021Y0102870D03*
X0114159Y0102801D03*
X0109474Y0106246D03*
X0108509Y0109691D03*
X0105064Y0109484D03*
X0104996Y0109553D03*
X0104927Y0109622D03*
X0101344Y0110380D03*
X0099690Y0102939D03*
X0099553Y0102870D03*
X0099415Y0102801D03*
X0100655Y0100665D03*
X0100793Y0100734D03*
X0100931Y0100803D03*
X0101895Y0098598D03*
X0095212Y0086404D03*
X0097210Y0084888D03*
X0100793Y0078411D03*
X0099690Y0076207D03*
X0099553Y0076276D03*
X0112781Y0078411D03*
X0113883Y0076207D03*
X0114021Y0076276D03*
X0116364Y0084888D03*
X0114366Y0086404D03*
D47*
X0109922Y0084750D03*
X0111920Y0080685D03*
X0111782Y0080616D03*
X0113022Y0078549D03*
X0112884Y0078480D03*
X0114124Y0076344D03*
X0114262Y0076413D03*
X0101792Y0080616D03*
X0101654Y0080685D03*
X0100552Y0078549D03*
X0100689Y0078480D03*
X0099449Y0076344D03*
X0099311Y0076413D03*
X0123563Y0084888D03*
X0104617Y0097014D03*
X0101792Y0098530D03*
X0101654Y0098461D03*
X0100552Y0100596D03*
X0100414Y0100528D03*
X0099311Y0102732D03*
X0099174Y0102663D03*
X0104961Y0106315D03*
X0108406Y0109553D03*
X0108475Y0109622D03*
X0100965Y0111620D03*
X0114262Y0102732D03*
X0114400Y0102663D03*
X0113160Y0100528D03*
X0113022Y0100596D03*
X0111920Y0098461D03*
X0111782Y0098530D03*
X0101861Y0092398D03*
D48*
X0104582Y0097083D03*
X0101551Y0098392D03*
X0101413Y0098323D03*
X0100310Y0100459D03*
X0100173Y0100390D03*
X0099070Y0102594D03*
X0098933Y0102526D03*
X0105202Y0109346D03*
X0105133Y0109415D03*
X0108372Y0109484D03*
X0114503Y0102594D03*
X0114641Y0102526D03*
X0113401Y0100390D03*
X0113263Y0100459D03*
X0112161Y0098323D03*
X0112023Y0098392D03*
X0108578Y0092880D03*
X0114297Y0086472D03*
X0112023Y0080754D03*
X0113125Y0078618D03*
X0113263Y0078687D03*
X0114366Y0076482D03*
X0114503Y0076551D03*
X0101551Y0080754D03*
X0100448Y0078618D03*
X0100310Y0078687D03*
X0099208Y0076482D03*
X0099070Y0076551D03*
X0095143Y0086472D03*
D49*
X0098071Y0086335D03*
X0101310Y0080892D03*
X0101447Y0080823D03*
X0100207Y0078756D03*
X0100069Y0078825D03*
X0098967Y0076620D03*
X0098829Y0076689D03*
X0098623Y0076827D03*
X0112126Y0080823D03*
X0112264Y0080892D03*
X0113367Y0078756D03*
X0113504Y0078825D03*
X0114607Y0076620D03*
X0114745Y0076689D03*
X0114951Y0076827D03*
X0117225Y0086335D03*
X0122668Y0086335D03*
X0123563Y0094327D03*
X0113504Y0100321D03*
X0112264Y0098254D03*
X0114745Y0102457D03*
X0101310Y0098254D03*
X0100069Y0100321D03*
X0098829Y0102457D03*
X0105306Y0109209D03*
X0105237Y0109278D03*
X0108337Y0109415D03*
X0101930Y0092329D03*
X0111300Y0086335D03*
D50*
X0106787Y0076620D03*
D51*
X0106787Y0076689D03*
X0106787Y0079169D03*
X0113470Y0112860D03*
D52*
X0108303Y0109346D03*
X0108234Y0109278D03*
X0114848Y0102388D03*
X0114986Y0102319D03*
X0115055Y0102250D03*
X0115192Y0102181D03*
X0113746Y0100183D03*
X0113608Y0100252D03*
X0112505Y0098116D03*
X0112368Y0098185D03*
X0105409Y0095705D03*
X0104513Y0097152D03*
X0101206Y0098185D03*
X0101068Y0098116D03*
X0099966Y0100252D03*
X0099828Y0100183D03*
X0098519Y0102250D03*
X0098588Y0102319D03*
X0098726Y0102388D03*
X0098381Y0102181D03*
X0108509Y0092811D03*
X0111334Y0092811D03*
X0111403Y0086404D03*
X0114228Y0086541D03*
X0116364Y0084819D03*
X0112368Y0080961D03*
X0113608Y0078894D03*
X0113814Y0079031D03*
X0115261Y0077033D03*
X0115055Y0076896D03*
X0114848Y0076758D03*
X0101206Y0080961D03*
X0099966Y0078894D03*
X0099759Y0079031D03*
X0098519Y0076896D03*
X0098726Y0076758D03*
X0097210Y0084819D03*
X0095074Y0086541D03*
X0108509Y0086335D03*
X0122633Y0086404D03*
X0122633Y0092811D03*
D53*
X0106787Y0099907D03*
X0106787Y0104937D03*
X0113057Y0112516D03*
X0106787Y0076758D03*
D54*
X0106787Y0076827D03*
X0106787Y0102319D03*
X0106787Y0104868D03*
D55*
X0106787Y0076896D03*
D56*
X0112471Y0081030D03*
X0112609Y0081098D03*
X0112678Y0081167D03*
X0113918Y0079100D03*
X0113711Y0078963D03*
X0114124Y0079238D03*
X0115571Y0077240D03*
X0115365Y0077102D03*
X0115158Y0076965D03*
X0123563Y0084819D03*
X0122599Y0086472D03*
X0117294Y0086472D03*
X0117294Y0086404D03*
X0111437Y0086472D03*
X0108406Y0086404D03*
X0108406Y0092673D03*
X0108406Y0092742D03*
X0109922Y0094465D03*
X0111437Y0092742D03*
X0111437Y0092673D03*
X0112609Y0098047D03*
X0113918Y0100045D03*
X0113849Y0100114D03*
X0114056Y0099976D03*
X0114124Y0099907D03*
X0115365Y0102043D03*
X0115296Y0102112D03*
X0115502Y0101974D03*
X0108199Y0109140D03*
X0108199Y0109209D03*
X0105443Y0109071D03*
X0105374Y0109140D03*
X0098278Y0102112D03*
X0098209Y0102043D03*
X0098071Y0101974D03*
X0099518Y0099976D03*
X0099656Y0100045D03*
X0099725Y0100114D03*
X0100965Y0098047D03*
X0101998Y0092260D03*
X0098140Y0086472D03*
X0098140Y0086404D03*
X0100896Y0081167D03*
X0100965Y0081098D03*
X0101103Y0081030D03*
X0099863Y0078963D03*
X0099656Y0079100D03*
X0099449Y0079238D03*
X0098002Y0077240D03*
X0098209Y0077102D03*
X0098278Y0077033D03*
X0098416Y0076965D03*
X0122599Y0092742D03*
D57*
X0106787Y0099632D03*
X0106787Y0102181D03*
X0106787Y0079514D03*
X0106787Y0076965D03*
D58*
X0106787Y0077033D03*
X0106787Y0099563D03*
X0106787Y0102112D03*
D59*
X0106787Y0102043D03*
X0106787Y0077102D03*
D60*
X0112781Y0081236D03*
X0114297Y0079376D03*
X0114228Y0079307D03*
X0114021Y0079169D03*
X0115468Y0077171D03*
X0115675Y0077309D03*
X0115744Y0077378D03*
X0115950Y0077516D03*
X0105547Y0084957D03*
X0105547Y0085026D03*
X0105547Y0085094D03*
X0105547Y0085163D03*
X0105547Y0085232D03*
X0105547Y0085301D03*
X0105547Y0085370D03*
X0105547Y0085439D03*
X0105547Y0085508D03*
X0105547Y0085577D03*
X0105547Y0085646D03*
X0105547Y0085715D03*
X0105547Y0085783D03*
X0105547Y0085852D03*
X0105547Y0085921D03*
X0105547Y0085990D03*
X0105547Y0086059D03*
X0105547Y0086128D03*
X0105547Y0086197D03*
X0105547Y0086266D03*
X0105547Y0086335D03*
X0105547Y0086404D03*
X0105547Y0086472D03*
X0105547Y0086541D03*
X0105547Y0086610D03*
X0105547Y0086679D03*
X0105547Y0086748D03*
X0105547Y0086817D03*
X0105547Y0086886D03*
X0105547Y0086955D03*
X0105547Y0087024D03*
X0105547Y0087093D03*
X0105547Y0087161D03*
X0105547Y0087230D03*
X0105547Y0087299D03*
X0105547Y0087368D03*
X0105547Y0087437D03*
X0105547Y0087506D03*
X0105547Y0087575D03*
X0105547Y0087644D03*
X0105547Y0087713D03*
X0105547Y0087781D03*
X0105547Y0087850D03*
X0105547Y0087919D03*
X0105547Y0087988D03*
X0105547Y0088057D03*
X0105547Y0088126D03*
X0105547Y0088195D03*
X0105547Y0088264D03*
X0105547Y0088333D03*
X0105547Y0088402D03*
X0105547Y0088470D03*
X0105547Y0088539D03*
X0105547Y0088608D03*
X0105547Y0088677D03*
X0105547Y0088746D03*
X0105547Y0088815D03*
X0105547Y0088884D03*
X0105547Y0088953D03*
X0105547Y0089022D03*
X0105547Y0089091D03*
X0105547Y0089159D03*
X0105547Y0089228D03*
X0105547Y0089297D03*
X0105547Y0089366D03*
X0105547Y0089435D03*
X0105547Y0089504D03*
X0105547Y0089573D03*
X0105547Y0089642D03*
X0105547Y0089711D03*
X0105547Y0089780D03*
X0105547Y0089848D03*
X0105547Y0089917D03*
X0105547Y0089986D03*
X0105547Y0090055D03*
X0105547Y0090124D03*
X0105547Y0090193D03*
X0105547Y0090262D03*
X0105547Y0090331D03*
X0105547Y0090400D03*
X0105547Y0090469D03*
X0105547Y0090537D03*
X0105547Y0090606D03*
X0105547Y0090675D03*
X0105547Y0090744D03*
X0105547Y0090813D03*
X0105547Y0090882D03*
X0105547Y0090951D03*
X0105547Y0091020D03*
X0105547Y0091089D03*
X0105547Y0091157D03*
X0105547Y0091226D03*
X0105547Y0091295D03*
X0105547Y0091364D03*
X0105547Y0091433D03*
X0105547Y0091502D03*
X0105547Y0091571D03*
X0105547Y0091640D03*
X0105547Y0091709D03*
X0105547Y0091778D03*
X0105547Y0091846D03*
X0105547Y0091915D03*
X0105547Y0091984D03*
X0105547Y0092053D03*
X0105547Y0092122D03*
X0105547Y0092191D03*
X0105547Y0092260D03*
X0105547Y0092329D03*
X0105547Y0092398D03*
X0105547Y0092467D03*
X0105547Y0092535D03*
X0105547Y0092604D03*
X0105547Y0092673D03*
X0105547Y0092742D03*
X0105547Y0092811D03*
X0105547Y0094465D03*
X0105547Y0094533D03*
X0105547Y0094602D03*
X0105547Y0094671D03*
X0105547Y0094740D03*
X0105547Y0094809D03*
X0105547Y0094878D03*
X0105547Y0094947D03*
X0105547Y0095016D03*
X0105547Y0095085D03*
X0105547Y0095154D03*
X0105547Y0095222D03*
X0105547Y0095291D03*
X0105547Y0095360D03*
X0105547Y0095429D03*
X0105547Y0095498D03*
X0105547Y0095567D03*
X0105478Y0095636D03*
X0108372Y0092604D03*
X0108372Y0092535D03*
X0111472Y0092535D03*
X0111472Y0092604D03*
X0117328Y0092604D03*
X0117328Y0092535D03*
X0117328Y0092467D03*
X0117328Y0092398D03*
X0117328Y0092329D03*
X0117328Y0092260D03*
X0117328Y0092191D03*
X0117328Y0092122D03*
X0117328Y0092053D03*
X0117328Y0091984D03*
X0117328Y0091915D03*
X0117328Y0091846D03*
X0117328Y0091778D03*
X0117328Y0091709D03*
X0117328Y0091640D03*
X0117328Y0091571D03*
X0117328Y0091502D03*
X0117328Y0091433D03*
X0117328Y0091364D03*
X0117328Y0091295D03*
X0117328Y0091226D03*
X0117328Y0091157D03*
X0117328Y0091089D03*
X0117328Y0091020D03*
X0117328Y0090951D03*
X0117328Y0090882D03*
X0117328Y0090813D03*
X0117328Y0090744D03*
X0117328Y0090675D03*
X0117328Y0090606D03*
X0117328Y0090537D03*
X0117328Y0090469D03*
X0117328Y0090400D03*
X0117328Y0090331D03*
X0117328Y0090262D03*
X0117328Y0090193D03*
X0117328Y0090124D03*
X0117328Y0090055D03*
X0117328Y0089986D03*
X0117328Y0089917D03*
X0117328Y0089848D03*
X0117328Y0089780D03*
X0117328Y0089711D03*
X0117328Y0089642D03*
X0117328Y0089573D03*
X0117328Y0089504D03*
X0117328Y0089435D03*
X0117328Y0089366D03*
X0117328Y0089297D03*
X0117328Y0089228D03*
X0117328Y0089159D03*
X0117328Y0089091D03*
X0117328Y0089022D03*
X0117328Y0088953D03*
X0117328Y0088884D03*
X0117328Y0088815D03*
X0117328Y0088746D03*
X0117328Y0088677D03*
X0117328Y0088608D03*
X0117328Y0088539D03*
X0117328Y0088470D03*
X0117328Y0088402D03*
X0117328Y0088333D03*
X0117328Y0088264D03*
X0117328Y0088195D03*
X0117328Y0088126D03*
X0117328Y0088057D03*
X0117328Y0087988D03*
X0117328Y0087919D03*
X0117328Y0087850D03*
X0117328Y0087781D03*
X0117328Y0087713D03*
X0117328Y0087644D03*
X0117328Y0087575D03*
X0117328Y0087506D03*
X0117328Y0087437D03*
X0117328Y0087368D03*
X0117328Y0087299D03*
X0117328Y0087230D03*
X0117328Y0087161D03*
X0117328Y0087093D03*
X0117328Y0087024D03*
X0117328Y0086955D03*
X0117328Y0086886D03*
X0117328Y0086817D03*
X0117328Y0086748D03*
X0117328Y0086679D03*
X0117328Y0086610D03*
X0117328Y0086541D03*
X0114159Y0086610D03*
X0111472Y0086610D03*
X0111472Y0086541D03*
X0111472Y0086679D03*
X0108372Y0086541D03*
X0108372Y0086472D03*
X0102033Y0092191D03*
X0098175Y0092191D03*
X0098175Y0092260D03*
X0098175Y0092329D03*
X0098175Y0092398D03*
X0098175Y0092467D03*
X0098175Y0092535D03*
X0098175Y0092604D03*
X0098175Y0092673D03*
X0098175Y0092742D03*
X0098175Y0092811D03*
X0098175Y0092880D03*
X0098175Y0092949D03*
X0098175Y0093018D03*
X0098175Y0093087D03*
X0098175Y0093156D03*
X0098175Y0093224D03*
X0098175Y0093293D03*
X0098175Y0093362D03*
X0098175Y0093431D03*
X0098175Y0093500D03*
X0098175Y0093569D03*
X0098175Y0093638D03*
X0098175Y0093707D03*
X0098175Y0093776D03*
X0098175Y0093844D03*
X0098175Y0093913D03*
X0098175Y0093982D03*
X0098175Y0094051D03*
X0098175Y0094120D03*
X0098175Y0094189D03*
X0098175Y0094258D03*
X0098175Y0092122D03*
X0098175Y0092053D03*
X0098175Y0091984D03*
X0098175Y0091915D03*
X0098175Y0091846D03*
X0098175Y0091778D03*
X0098175Y0091709D03*
X0098175Y0091640D03*
X0098175Y0091571D03*
X0098175Y0091502D03*
X0098175Y0091433D03*
X0098175Y0091364D03*
X0098175Y0091295D03*
X0098175Y0091226D03*
X0098175Y0091157D03*
X0098175Y0091089D03*
X0098175Y0091020D03*
X0098175Y0090951D03*
X0098175Y0090882D03*
X0098175Y0090813D03*
X0098175Y0090744D03*
X0098175Y0090675D03*
X0098175Y0090606D03*
X0098175Y0090537D03*
X0098175Y0090469D03*
X0098175Y0090400D03*
X0098175Y0090331D03*
X0098175Y0090262D03*
X0098175Y0090193D03*
X0098175Y0090124D03*
X0098175Y0090055D03*
X0098175Y0089986D03*
X0098175Y0089917D03*
X0098175Y0089848D03*
X0098175Y0089780D03*
X0098175Y0089711D03*
X0098175Y0089642D03*
X0098175Y0089573D03*
X0098175Y0089504D03*
X0098175Y0089435D03*
X0098175Y0089366D03*
X0098175Y0089297D03*
X0098175Y0089228D03*
X0098175Y0089159D03*
X0098175Y0089091D03*
X0098175Y0089022D03*
X0098175Y0088953D03*
X0098175Y0088884D03*
X0098175Y0088815D03*
X0098175Y0088746D03*
X0098175Y0088677D03*
X0098175Y0088608D03*
X0098175Y0088539D03*
X0098175Y0088470D03*
X0098175Y0088402D03*
X0098175Y0088333D03*
X0098175Y0088264D03*
X0098175Y0088195D03*
X0098175Y0088126D03*
X0098175Y0088057D03*
X0098175Y0087988D03*
X0098175Y0087919D03*
X0098175Y0087850D03*
X0098175Y0087781D03*
X0098175Y0087713D03*
X0098175Y0087644D03*
X0098175Y0087575D03*
X0098175Y0087506D03*
X0098175Y0087437D03*
X0098175Y0087368D03*
X0098175Y0087299D03*
X0098175Y0087230D03*
X0098175Y0087161D03*
X0098175Y0087093D03*
X0098175Y0087024D03*
X0098175Y0086955D03*
X0098175Y0086886D03*
X0098175Y0086817D03*
X0098175Y0086748D03*
X0098175Y0086679D03*
X0098175Y0086610D03*
X0098175Y0086541D03*
X0095005Y0086610D03*
X0100793Y0081236D03*
X0099277Y0079376D03*
X0099346Y0079307D03*
X0099553Y0079169D03*
X0098106Y0077171D03*
X0097899Y0077309D03*
X0097830Y0077378D03*
X0097623Y0077516D03*
X0122564Y0086541D03*
X0122564Y0086610D03*
X0122564Y0092604D03*
X0122564Y0092673D03*
X0117328Y0092673D03*
X0117328Y0092742D03*
X0117328Y0092811D03*
X0117328Y0092880D03*
X0117328Y0092949D03*
X0117328Y0093018D03*
X0117328Y0093087D03*
X0117328Y0093156D03*
X0117328Y0093224D03*
X0117328Y0093293D03*
X0117328Y0093362D03*
X0117328Y0093431D03*
X0117328Y0093500D03*
X0117328Y0093569D03*
X0117328Y0093638D03*
X0117328Y0093707D03*
X0117328Y0093776D03*
X0117328Y0093844D03*
X0117328Y0093913D03*
X0117328Y0093982D03*
X0117328Y0094051D03*
X0117328Y0094120D03*
X0117328Y0094189D03*
X0117328Y0094258D03*
X0112988Y0097772D03*
X0112781Y0097909D03*
X0112712Y0097978D03*
X0114228Y0099839D03*
X0115675Y0101837D03*
X0115606Y0101906D03*
X0115881Y0101699D03*
X0108165Y0109071D03*
X0108096Y0109002D03*
X0105547Y0108933D03*
X0105478Y0109002D03*
X0097968Y0101906D03*
X0097899Y0101837D03*
X0097692Y0101699D03*
X0099415Y0099907D03*
X0099346Y0099839D03*
X0100862Y0097978D03*
X0100793Y0097909D03*
X0100586Y0097772D03*
X0092387Y0096669D03*
X0092387Y0096600D03*
X0092387Y0096531D03*
X0092387Y0096463D03*
X0092387Y0096394D03*
X0092387Y0096325D03*
X0092387Y0096256D03*
X0092387Y0096187D03*
X0092387Y0096118D03*
X0092387Y0096049D03*
X0092387Y0095980D03*
X0092387Y0095911D03*
X0092387Y0095843D03*
X0092387Y0095774D03*
X0092387Y0095705D03*
X0092387Y0095636D03*
X0092387Y0095567D03*
X0092387Y0095498D03*
X0092387Y0095429D03*
X0092387Y0095360D03*
X0092387Y0095291D03*
X0092387Y0095222D03*
X0092387Y0095154D03*
D61*
X0106787Y0077378D03*
D62*
X0112884Y0081305D03*
X0112953Y0081374D03*
X0113091Y0081443D03*
X0113160Y0081512D03*
X0114469Y0079514D03*
X0114400Y0079445D03*
X0115847Y0077447D03*
X0116054Y0077585D03*
X0116123Y0077654D03*
X0114124Y0084888D03*
X0114124Y0084957D03*
X0114124Y0085026D03*
X0114124Y0086679D03*
X0114124Y0086748D03*
X0114124Y0086817D03*
X0114124Y0086886D03*
X0114124Y0086955D03*
X0114124Y0087024D03*
X0114124Y0087093D03*
X0114124Y0087161D03*
X0114124Y0087230D03*
X0114124Y0087299D03*
X0114124Y0087368D03*
X0114124Y0087437D03*
X0114124Y0087506D03*
X0114124Y0087575D03*
X0114124Y0087644D03*
X0114124Y0087713D03*
X0114124Y0087781D03*
X0114124Y0087850D03*
X0114124Y0087919D03*
X0114124Y0087988D03*
X0114124Y0088057D03*
X0114124Y0088126D03*
X0114124Y0088195D03*
X0114124Y0088264D03*
X0114124Y0088333D03*
X0114124Y0088402D03*
X0114124Y0088470D03*
X0114124Y0088539D03*
X0114124Y0088608D03*
X0114124Y0088677D03*
X0114124Y0088746D03*
X0114124Y0088815D03*
X0114124Y0088884D03*
X0114124Y0088953D03*
X0114124Y0089022D03*
X0114124Y0089091D03*
X0114124Y0089159D03*
X0114124Y0089228D03*
X0114124Y0089297D03*
X0114124Y0089366D03*
X0114124Y0089435D03*
X0114124Y0089504D03*
X0114124Y0089573D03*
X0114124Y0089642D03*
X0114124Y0089711D03*
X0114124Y0089780D03*
X0114124Y0089848D03*
X0114124Y0089917D03*
X0114124Y0089986D03*
X0114124Y0090055D03*
X0114124Y0090124D03*
X0114124Y0090193D03*
X0114124Y0090262D03*
X0114124Y0090331D03*
X0114124Y0090400D03*
X0114124Y0090469D03*
X0114124Y0090537D03*
X0114124Y0090606D03*
X0114124Y0090675D03*
X0114124Y0090744D03*
X0114124Y0090813D03*
X0114124Y0090882D03*
X0114124Y0090951D03*
X0114124Y0091020D03*
X0114124Y0091089D03*
X0114124Y0091157D03*
X0114124Y0091226D03*
X0114124Y0091295D03*
X0114124Y0091364D03*
X0114124Y0091433D03*
X0114124Y0091502D03*
X0114124Y0091571D03*
X0114124Y0091640D03*
X0114124Y0091709D03*
X0114124Y0091778D03*
X0114124Y0091846D03*
X0114124Y0091915D03*
X0114124Y0091984D03*
X0114124Y0092053D03*
X0114124Y0092122D03*
X0114124Y0092191D03*
X0114124Y0092260D03*
X0114124Y0092329D03*
X0114124Y0092398D03*
X0114124Y0092467D03*
X0114124Y0092535D03*
X0114124Y0092604D03*
X0114124Y0092673D03*
X0114124Y0092742D03*
X0114124Y0092811D03*
X0114124Y0092880D03*
X0114124Y0092949D03*
X0114124Y0093018D03*
X0114124Y0093087D03*
X0114124Y0093156D03*
X0114124Y0093224D03*
X0114124Y0093293D03*
X0114124Y0093362D03*
X0114124Y0093431D03*
X0114124Y0093500D03*
X0114124Y0093569D03*
X0114124Y0093638D03*
X0114124Y0093707D03*
X0114124Y0093776D03*
X0114124Y0093844D03*
X0114124Y0093913D03*
X0114124Y0093982D03*
X0114124Y0094051D03*
X0114124Y0094120D03*
X0114124Y0094189D03*
X0114124Y0094258D03*
X0111506Y0092467D03*
X0111506Y0092398D03*
X0111506Y0092329D03*
X0111506Y0092260D03*
X0111506Y0092191D03*
X0111506Y0092122D03*
X0111506Y0092053D03*
X0111506Y0091984D03*
X0111506Y0091915D03*
X0111506Y0091846D03*
X0111506Y0091778D03*
X0111506Y0091709D03*
X0111506Y0091640D03*
X0111506Y0091571D03*
X0111506Y0091502D03*
X0111506Y0091433D03*
X0111506Y0091364D03*
X0111506Y0091295D03*
X0111506Y0091226D03*
X0111506Y0091157D03*
X0111506Y0091089D03*
X0111506Y0091020D03*
X0111506Y0090951D03*
X0111506Y0090882D03*
X0111506Y0090813D03*
X0111506Y0090744D03*
X0111506Y0090675D03*
X0111506Y0090606D03*
X0111506Y0088884D03*
X0111506Y0088815D03*
X0111506Y0088746D03*
X0111506Y0088677D03*
X0111506Y0088608D03*
X0111506Y0088539D03*
X0111506Y0088470D03*
X0111506Y0088402D03*
X0111506Y0088333D03*
X0111506Y0088264D03*
X0111506Y0088195D03*
X0111506Y0088126D03*
X0111506Y0088057D03*
X0111506Y0087988D03*
X0111506Y0087919D03*
X0111506Y0087850D03*
X0111506Y0087781D03*
X0111506Y0087713D03*
X0111506Y0087644D03*
X0111506Y0087575D03*
X0111506Y0087506D03*
X0111506Y0087437D03*
X0111506Y0087368D03*
X0111506Y0087299D03*
X0111506Y0087230D03*
X0111506Y0087161D03*
X0111506Y0087093D03*
X0111506Y0087024D03*
X0111506Y0086955D03*
X0111506Y0086886D03*
X0111506Y0086817D03*
X0111506Y0086748D03*
X0108337Y0086748D03*
X0108337Y0086679D03*
X0108337Y0086610D03*
X0108337Y0086817D03*
X0108337Y0086886D03*
X0108337Y0086955D03*
X0108337Y0087024D03*
X0108337Y0087093D03*
X0108337Y0087161D03*
X0108337Y0087230D03*
X0108337Y0087299D03*
X0108337Y0087368D03*
X0108337Y0087437D03*
X0108337Y0087506D03*
X0108337Y0087575D03*
X0108337Y0087644D03*
X0108337Y0087713D03*
X0108337Y0087781D03*
X0108337Y0087850D03*
X0108337Y0087919D03*
X0108337Y0087988D03*
X0105581Y0084888D03*
X0102067Y0084888D03*
X0102067Y0084957D03*
X0102067Y0085026D03*
X0102067Y0085094D03*
X0102067Y0085163D03*
X0102067Y0085232D03*
X0102067Y0085301D03*
X0102067Y0085370D03*
X0102067Y0085439D03*
X0102067Y0085508D03*
X0102067Y0085577D03*
X0102067Y0085646D03*
X0102067Y0085715D03*
X0102067Y0085783D03*
X0102067Y0085852D03*
X0102067Y0085921D03*
X0102067Y0085990D03*
X0102067Y0086059D03*
X0102067Y0086128D03*
X0102067Y0086197D03*
X0102067Y0086266D03*
X0102067Y0086335D03*
X0102067Y0086404D03*
X0102067Y0086472D03*
X0102067Y0086541D03*
X0102067Y0086610D03*
X0102067Y0086679D03*
X0102067Y0086748D03*
X0102067Y0086817D03*
X0102067Y0086886D03*
X0102067Y0086955D03*
X0102067Y0087024D03*
X0102067Y0087093D03*
X0102067Y0087161D03*
X0102067Y0087230D03*
X0102067Y0087299D03*
X0102067Y0087368D03*
X0102067Y0087437D03*
X0102067Y0087506D03*
X0102067Y0087575D03*
X0102067Y0087644D03*
X0102067Y0087713D03*
X0102067Y0087781D03*
X0102067Y0087850D03*
X0102067Y0087919D03*
X0102067Y0087988D03*
X0102067Y0088057D03*
X0102067Y0088126D03*
X0102067Y0088195D03*
X0102067Y0088264D03*
X0102067Y0088333D03*
X0102067Y0088402D03*
X0102067Y0088470D03*
X0102067Y0088539D03*
X0102067Y0088608D03*
X0102067Y0088677D03*
X0102067Y0088746D03*
X0102067Y0088815D03*
X0102067Y0088884D03*
X0102067Y0088953D03*
X0102067Y0089022D03*
X0102067Y0089091D03*
X0102067Y0089159D03*
X0102067Y0089228D03*
X0102067Y0089297D03*
X0102067Y0089366D03*
X0102067Y0089435D03*
X0102067Y0089504D03*
X0102067Y0089573D03*
X0102067Y0089642D03*
X0102067Y0089711D03*
X0102067Y0089780D03*
X0102067Y0089848D03*
X0102067Y0089917D03*
X0102067Y0089986D03*
X0102067Y0090055D03*
X0102067Y0090124D03*
X0102067Y0090193D03*
X0102067Y0090262D03*
X0102067Y0090331D03*
X0102067Y0090400D03*
X0102067Y0090469D03*
X0102067Y0090537D03*
X0102067Y0090606D03*
X0102067Y0090675D03*
X0102067Y0090744D03*
X0102067Y0090813D03*
X0102067Y0090882D03*
X0102067Y0090951D03*
X0102067Y0091020D03*
X0102067Y0091089D03*
X0102067Y0091157D03*
X0102067Y0091226D03*
X0102067Y0091295D03*
X0102067Y0091364D03*
X0102067Y0091433D03*
X0102067Y0091502D03*
X0102067Y0091571D03*
X0102067Y0091640D03*
X0102067Y0091709D03*
X0102067Y0091778D03*
X0102067Y0091846D03*
X0102067Y0091915D03*
X0102067Y0091984D03*
X0102067Y0092053D03*
X0102067Y0092122D03*
X0102067Y0094051D03*
X0102067Y0094120D03*
X0102067Y0094189D03*
X0102067Y0094258D03*
X0100414Y0097634D03*
X0100483Y0097703D03*
X0100689Y0097841D03*
X0099174Y0099701D03*
X0099243Y0099770D03*
X0099036Y0099632D03*
X0098967Y0099563D03*
X0097451Y0101492D03*
X0097520Y0101561D03*
X0097589Y0101630D03*
X0097796Y0101768D03*
X0092353Y0096738D03*
X0092353Y0095085D03*
X0092353Y0095016D03*
X0092353Y0094327D03*
X0092353Y0094258D03*
X0092353Y0094189D03*
X0092353Y0094120D03*
X0092353Y0094051D03*
X0092353Y0093982D03*
X0092353Y0093913D03*
X0092353Y0093844D03*
X0092353Y0093776D03*
X0092353Y0093707D03*
X0092353Y0093638D03*
X0092353Y0093569D03*
X0092353Y0093500D03*
X0092353Y0093431D03*
X0092353Y0093362D03*
X0092353Y0093293D03*
X0092353Y0093224D03*
X0092353Y0093156D03*
X0092353Y0093087D03*
X0092353Y0093018D03*
X0092353Y0092949D03*
X0092353Y0092880D03*
X0092353Y0092811D03*
X0092353Y0092742D03*
X0092353Y0092673D03*
X0092353Y0092604D03*
X0092353Y0092535D03*
X0092353Y0092467D03*
X0092353Y0092398D03*
X0092353Y0092329D03*
X0092353Y0092260D03*
X0092353Y0092191D03*
X0092353Y0092122D03*
X0092353Y0092053D03*
X0092353Y0091984D03*
X0092353Y0091915D03*
X0092353Y0091846D03*
X0092353Y0091778D03*
X0092353Y0091709D03*
X0092353Y0091640D03*
X0092353Y0091571D03*
X0092353Y0091502D03*
X0092353Y0091433D03*
X0092353Y0091364D03*
X0092353Y0091295D03*
X0092353Y0091226D03*
X0092353Y0091157D03*
X0092353Y0091089D03*
X0092353Y0091020D03*
X0092353Y0090951D03*
X0092353Y0090882D03*
X0092353Y0090813D03*
X0092353Y0090744D03*
X0092353Y0090675D03*
X0092353Y0090606D03*
X0092353Y0090537D03*
X0092353Y0090469D03*
X0092353Y0090400D03*
X0092353Y0090331D03*
X0092353Y0090262D03*
X0092353Y0090193D03*
X0092353Y0090124D03*
X0092353Y0090055D03*
X0092353Y0089986D03*
X0092353Y0089917D03*
X0092353Y0089848D03*
X0092353Y0089780D03*
X0092353Y0089711D03*
X0092353Y0089642D03*
X0092353Y0089573D03*
X0092353Y0089504D03*
X0092353Y0089435D03*
X0092353Y0089366D03*
X0092353Y0089297D03*
X0092353Y0089228D03*
X0092353Y0089159D03*
X0092353Y0089091D03*
X0092353Y0089022D03*
X0092353Y0088953D03*
X0092353Y0088884D03*
X0092353Y0088815D03*
X0092353Y0088746D03*
X0092353Y0088677D03*
X0092353Y0088608D03*
X0092353Y0088539D03*
X0092353Y0088470D03*
X0092353Y0088402D03*
X0092353Y0088333D03*
X0092353Y0088264D03*
X0092353Y0088195D03*
X0092353Y0088126D03*
X0092353Y0088057D03*
X0092353Y0087988D03*
X0092353Y0087919D03*
X0092353Y0087850D03*
X0092353Y0087781D03*
X0092353Y0087713D03*
X0092353Y0087644D03*
X0092353Y0087575D03*
X0092353Y0087506D03*
X0092353Y0087437D03*
X0092353Y0087368D03*
X0092353Y0087299D03*
X0092353Y0087230D03*
X0092353Y0087161D03*
X0092353Y0087093D03*
X0092353Y0087024D03*
X0092353Y0086955D03*
X0092353Y0086886D03*
X0092353Y0086817D03*
X0092353Y0086748D03*
X0092353Y0086679D03*
X0092353Y0086610D03*
X0092353Y0086541D03*
X0092353Y0086472D03*
X0092353Y0086404D03*
X0092353Y0086335D03*
X0092353Y0086266D03*
X0092353Y0086197D03*
X0092353Y0086128D03*
X0092353Y0086059D03*
X0092353Y0085990D03*
X0092353Y0085921D03*
X0092353Y0085852D03*
X0092353Y0085783D03*
X0092353Y0085715D03*
X0092353Y0085646D03*
X0092353Y0085577D03*
X0092353Y0085508D03*
X0092353Y0085439D03*
X0092353Y0085370D03*
X0092353Y0085301D03*
X0092353Y0085232D03*
X0092353Y0085163D03*
X0092353Y0085094D03*
X0092353Y0085026D03*
X0092353Y0084957D03*
X0092353Y0084888D03*
X0092353Y0084819D03*
X0094971Y0084888D03*
X0094971Y0084957D03*
X0094971Y0085026D03*
X0094971Y0086679D03*
X0094971Y0086748D03*
X0094971Y0086817D03*
X0094971Y0086886D03*
X0094971Y0086955D03*
X0094971Y0087024D03*
X0094971Y0087093D03*
X0094971Y0087161D03*
X0094971Y0087230D03*
X0094971Y0087299D03*
X0094971Y0087368D03*
X0094971Y0087437D03*
X0094971Y0087506D03*
X0094971Y0087575D03*
X0094971Y0087644D03*
X0094971Y0087713D03*
X0094971Y0087781D03*
X0094971Y0087850D03*
X0094971Y0087919D03*
X0094971Y0087988D03*
X0094971Y0088057D03*
X0094971Y0088126D03*
X0094971Y0088195D03*
X0094971Y0088264D03*
X0094971Y0088333D03*
X0094971Y0088402D03*
X0094971Y0088470D03*
X0094971Y0088539D03*
X0094971Y0088608D03*
X0094971Y0088677D03*
X0094971Y0088746D03*
X0094971Y0088815D03*
X0094971Y0088884D03*
X0094971Y0088953D03*
X0094971Y0089022D03*
X0094971Y0089091D03*
X0094971Y0089159D03*
X0094971Y0089228D03*
X0094971Y0089297D03*
X0094971Y0089366D03*
X0094971Y0089435D03*
X0094971Y0089504D03*
X0094971Y0089573D03*
X0094971Y0089642D03*
X0094971Y0089711D03*
X0094971Y0089780D03*
X0094971Y0089848D03*
X0094971Y0089917D03*
X0094971Y0089986D03*
X0094971Y0090055D03*
X0094971Y0090124D03*
X0094971Y0090193D03*
X0094971Y0090262D03*
X0094971Y0090331D03*
X0094971Y0090400D03*
X0094971Y0090469D03*
X0094971Y0090537D03*
X0094971Y0090606D03*
X0094971Y0090675D03*
X0094971Y0090744D03*
X0094971Y0090813D03*
X0094971Y0090882D03*
X0094971Y0090951D03*
X0094971Y0091020D03*
X0094971Y0091089D03*
X0094971Y0091157D03*
X0094971Y0091226D03*
X0094971Y0091295D03*
X0094971Y0091364D03*
X0094971Y0091433D03*
X0094971Y0091502D03*
X0094971Y0091571D03*
X0094971Y0091640D03*
X0094971Y0091709D03*
X0094971Y0091778D03*
X0094971Y0091846D03*
X0094971Y0091915D03*
X0094971Y0091984D03*
X0094971Y0092053D03*
X0094971Y0092122D03*
X0094971Y0092191D03*
X0094971Y0092260D03*
X0094971Y0092329D03*
X0094971Y0092398D03*
X0094971Y0092467D03*
X0094971Y0092535D03*
X0094971Y0092604D03*
X0094971Y0092673D03*
X0094971Y0092742D03*
X0094971Y0092811D03*
X0094971Y0092880D03*
X0094971Y0092949D03*
X0094971Y0093018D03*
X0094971Y0093087D03*
X0094971Y0093156D03*
X0094971Y0093224D03*
X0094971Y0093293D03*
X0094971Y0093362D03*
X0094971Y0093431D03*
X0094971Y0093500D03*
X0094971Y0093569D03*
X0094971Y0093638D03*
X0094971Y0093707D03*
X0094971Y0093776D03*
X0094971Y0093844D03*
X0094971Y0093913D03*
X0094971Y0093982D03*
X0094971Y0094051D03*
X0094971Y0094120D03*
X0094971Y0094189D03*
X0094971Y0094258D03*
X0094971Y0094327D03*
X0089321Y0094465D03*
X0089321Y0094533D03*
X0089321Y0094602D03*
X0089321Y0094671D03*
X0089321Y0094740D03*
X0089321Y0094809D03*
X0089321Y0094878D03*
X0089321Y0094947D03*
X0089321Y0095016D03*
X0089321Y0095085D03*
X0089321Y0095154D03*
X0089321Y0095222D03*
X0089321Y0095291D03*
X0089321Y0095360D03*
X0089321Y0095429D03*
X0089321Y0095498D03*
X0089321Y0095567D03*
X0089321Y0095636D03*
X0089321Y0095705D03*
X0089321Y0095774D03*
X0089321Y0095843D03*
X0089321Y0092811D03*
X0089321Y0092742D03*
X0089321Y0092673D03*
X0089321Y0092604D03*
X0089321Y0092535D03*
X0089321Y0092467D03*
X0089321Y0092398D03*
X0089321Y0092329D03*
X0089321Y0092260D03*
X0089321Y0092191D03*
X0089321Y0092122D03*
X0089321Y0092053D03*
X0089321Y0091984D03*
X0089321Y0091915D03*
X0089321Y0091846D03*
X0089321Y0091778D03*
X0089321Y0091709D03*
X0089321Y0091640D03*
X0089321Y0091571D03*
X0089321Y0091502D03*
X0089321Y0091433D03*
X0089321Y0091364D03*
X0089321Y0091295D03*
X0089321Y0091226D03*
X0089321Y0091157D03*
X0089321Y0091089D03*
X0089321Y0091020D03*
X0089321Y0090951D03*
X0089321Y0090882D03*
X0089321Y0090813D03*
X0089321Y0090744D03*
X0089321Y0090675D03*
X0089321Y0090606D03*
X0089321Y0090537D03*
X0089321Y0090469D03*
X0089321Y0090400D03*
X0089321Y0090331D03*
X0089321Y0090262D03*
X0089321Y0090193D03*
X0089321Y0090124D03*
X0089321Y0090055D03*
X0089321Y0089986D03*
X0089321Y0089917D03*
X0089321Y0089848D03*
X0089321Y0089780D03*
X0089321Y0089711D03*
X0089321Y0089642D03*
X0089321Y0089573D03*
X0089321Y0089504D03*
X0089321Y0089435D03*
X0089321Y0089366D03*
X0089321Y0089297D03*
X0089321Y0089228D03*
X0089321Y0089159D03*
X0089321Y0089091D03*
X0089321Y0089022D03*
X0089321Y0088953D03*
X0089321Y0088884D03*
X0089321Y0088815D03*
X0089321Y0088746D03*
X0089321Y0088677D03*
X0089321Y0088608D03*
X0089321Y0088539D03*
X0089321Y0088470D03*
X0089321Y0088402D03*
X0089321Y0088333D03*
X0089321Y0088264D03*
X0089321Y0088195D03*
X0089321Y0088126D03*
X0089321Y0088057D03*
X0089321Y0087988D03*
X0089321Y0087919D03*
X0089321Y0087850D03*
X0089321Y0087781D03*
X0089321Y0087713D03*
X0089321Y0087644D03*
X0089321Y0087575D03*
X0089321Y0087506D03*
X0089321Y0087437D03*
X0089321Y0087368D03*
X0089321Y0087299D03*
X0089321Y0087230D03*
X0089321Y0087161D03*
X0089321Y0087093D03*
X0089321Y0087024D03*
X0089321Y0086955D03*
X0089321Y0086886D03*
X0089321Y0086817D03*
X0089321Y0086748D03*
X0089321Y0086679D03*
X0089321Y0086610D03*
X0089321Y0086541D03*
X0089321Y0086472D03*
X0089321Y0086404D03*
X0089321Y0086335D03*
X0089321Y0086266D03*
X0089321Y0086197D03*
X0089321Y0086128D03*
X0089321Y0086059D03*
X0089321Y0085990D03*
X0089321Y0085921D03*
X0089321Y0085852D03*
X0089321Y0085783D03*
X0089321Y0085715D03*
X0089321Y0085646D03*
X0089321Y0085577D03*
X0089321Y0085508D03*
X0089321Y0085439D03*
X0089321Y0085370D03*
X0089321Y0085301D03*
X0089321Y0085232D03*
X0089321Y0085163D03*
X0089321Y0085094D03*
X0089321Y0085026D03*
X0089321Y0084957D03*
X0089321Y0084888D03*
X0098967Y0079583D03*
X0099105Y0079514D03*
X0099174Y0079445D03*
X0100483Y0081443D03*
X0100414Y0081512D03*
X0100621Y0081374D03*
X0100689Y0081305D03*
X0097727Y0077447D03*
X0097520Y0077585D03*
X0097451Y0077654D03*
X0119912Y0084888D03*
X0119912Y0084957D03*
X0119912Y0085026D03*
X0119912Y0085094D03*
X0119912Y0085163D03*
X0119912Y0085232D03*
X0119912Y0085301D03*
X0119912Y0085370D03*
X0119912Y0085439D03*
X0119912Y0085508D03*
X0119912Y0085577D03*
X0119912Y0085646D03*
X0119912Y0085715D03*
X0119912Y0085783D03*
X0119912Y0085852D03*
X0119912Y0085921D03*
X0119912Y0085990D03*
X0119912Y0086059D03*
X0119912Y0086128D03*
X0119912Y0086197D03*
X0119912Y0086266D03*
X0119912Y0086335D03*
X0119912Y0086404D03*
X0119912Y0086472D03*
X0119912Y0086541D03*
X0119912Y0086610D03*
X0119912Y0086679D03*
X0119912Y0086748D03*
X0119912Y0086817D03*
X0119912Y0086886D03*
X0119912Y0086955D03*
X0119912Y0087024D03*
X0119912Y0087093D03*
X0119912Y0087161D03*
X0119912Y0087230D03*
X0119912Y0087299D03*
X0119912Y0087368D03*
X0119912Y0087437D03*
X0119912Y0087506D03*
X0119912Y0087575D03*
X0119912Y0087644D03*
X0119912Y0087713D03*
X0119912Y0087781D03*
X0119912Y0087850D03*
X0119912Y0087919D03*
X0119912Y0087988D03*
X0119912Y0088057D03*
X0119912Y0088126D03*
X0119912Y0088195D03*
X0119912Y0088264D03*
X0119912Y0088333D03*
X0119912Y0088402D03*
X0119912Y0088470D03*
X0119912Y0088539D03*
X0119912Y0088608D03*
X0119912Y0088677D03*
X0119912Y0088746D03*
X0119912Y0088815D03*
X0119912Y0088884D03*
X0119912Y0088953D03*
X0119912Y0089022D03*
X0119912Y0089091D03*
X0119912Y0089159D03*
X0119912Y0089228D03*
X0119912Y0089297D03*
X0119912Y0089366D03*
X0119912Y0089435D03*
X0119912Y0089504D03*
X0119912Y0089573D03*
X0119912Y0089642D03*
X0119912Y0089711D03*
X0119912Y0089780D03*
X0119912Y0089848D03*
X0119912Y0089917D03*
X0119912Y0089986D03*
X0119912Y0090055D03*
X0119912Y0090124D03*
X0119912Y0090193D03*
X0119912Y0090262D03*
X0119912Y0090331D03*
X0119912Y0090400D03*
X0119912Y0090469D03*
X0119912Y0090537D03*
X0119912Y0090606D03*
X0119912Y0090675D03*
X0119912Y0090744D03*
X0119912Y0090813D03*
X0119912Y0090882D03*
X0119912Y0090951D03*
X0119912Y0091020D03*
X0119912Y0091089D03*
X0119912Y0091157D03*
X0119912Y0091226D03*
X0119912Y0091295D03*
X0119912Y0091364D03*
X0119912Y0091433D03*
X0119912Y0091502D03*
X0119912Y0091571D03*
X0119912Y0091640D03*
X0119912Y0091709D03*
X0119912Y0091778D03*
X0119912Y0091846D03*
X0119912Y0091915D03*
X0119912Y0091984D03*
X0119912Y0092053D03*
X0119912Y0092122D03*
X0119912Y0092191D03*
X0119912Y0092260D03*
X0119912Y0092329D03*
X0119912Y0092398D03*
X0119912Y0092467D03*
X0119912Y0092535D03*
X0119912Y0092604D03*
X0119912Y0092673D03*
X0119912Y0092742D03*
X0119912Y0092811D03*
X0119912Y0092880D03*
X0119912Y0092949D03*
X0119912Y0093018D03*
X0119912Y0093087D03*
X0119912Y0093156D03*
X0119912Y0093224D03*
X0119912Y0093293D03*
X0119912Y0093362D03*
X0119912Y0093431D03*
X0119912Y0093500D03*
X0119912Y0093569D03*
X0119912Y0093638D03*
X0119912Y0093707D03*
X0119912Y0093776D03*
X0119912Y0093844D03*
X0119912Y0093913D03*
X0119912Y0093982D03*
X0119912Y0094051D03*
X0119912Y0094120D03*
X0119912Y0094189D03*
X0119912Y0094258D03*
X0119912Y0094327D03*
X0119912Y0094396D03*
X0119912Y0094465D03*
X0119912Y0094533D03*
X0119912Y0094602D03*
X0119912Y0094671D03*
X0119912Y0094740D03*
X0119912Y0094809D03*
X0119912Y0094878D03*
X0119912Y0094947D03*
X0119912Y0095016D03*
X0119912Y0095085D03*
X0119912Y0095154D03*
X0119912Y0095222D03*
X0119912Y0095291D03*
X0119912Y0095360D03*
X0119912Y0095429D03*
X0119912Y0095498D03*
X0119912Y0095567D03*
X0119912Y0095636D03*
X0119912Y0095705D03*
X0119912Y0095774D03*
X0119912Y0095843D03*
X0119912Y0095911D03*
X0119912Y0095980D03*
X0119912Y0096049D03*
X0119912Y0096118D03*
X0119912Y0096187D03*
X0119912Y0096256D03*
X0119912Y0096325D03*
X0119912Y0096394D03*
X0119912Y0096463D03*
X0119912Y0096531D03*
X0119912Y0096600D03*
X0119912Y0096669D03*
X0119912Y0096738D03*
X0119912Y0096807D03*
X0119912Y0096876D03*
X0119912Y0096945D03*
X0119912Y0097014D03*
X0119912Y0097083D03*
X0119912Y0097152D03*
X0119912Y0097220D03*
X0123563Y0094396D03*
X0122530Y0092535D03*
X0122530Y0092467D03*
X0122530Y0092398D03*
X0122530Y0092329D03*
X0122530Y0092260D03*
X0122530Y0092191D03*
X0122530Y0092122D03*
X0122530Y0092053D03*
X0122530Y0091984D03*
X0122530Y0091915D03*
X0122530Y0091846D03*
X0122530Y0091778D03*
X0122530Y0091709D03*
X0122530Y0091640D03*
X0122530Y0091571D03*
X0122530Y0091502D03*
X0122530Y0091433D03*
X0122530Y0091364D03*
X0122530Y0091295D03*
X0122530Y0091226D03*
X0122530Y0091157D03*
X0122530Y0091089D03*
X0122530Y0091020D03*
X0122530Y0090951D03*
X0122530Y0090882D03*
X0122530Y0090813D03*
X0122530Y0090744D03*
X0122530Y0090675D03*
X0122530Y0090606D03*
X0122530Y0090537D03*
X0122530Y0090469D03*
X0122530Y0090400D03*
X0122530Y0090331D03*
X0122530Y0090262D03*
X0122530Y0090193D03*
X0122530Y0090124D03*
X0122530Y0090055D03*
X0122530Y0089986D03*
X0122530Y0089917D03*
X0122530Y0089848D03*
X0122530Y0089780D03*
X0122530Y0089711D03*
X0122530Y0089642D03*
X0122530Y0089573D03*
X0122530Y0089504D03*
X0122530Y0089435D03*
X0122530Y0089366D03*
X0122530Y0089297D03*
X0122530Y0089228D03*
X0122530Y0089159D03*
X0122530Y0089091D03*
X0122530Y0089022D03*
X0122530Y0088953D03*
X0122530Y0088884D03*
X0122530Y0088815D03*
X0122530Y0088746D03*
X0122530Y0088677D03*
X0122530Y0088608D03*
X0122530Y0088539D03*
X0122530Y0088470D03*
X0122530Y0088402D03*
X0122530Y0088333D03*
X0122530Y0088264D03*
X0122530Y0088195D03*
X0122530Y0088126D03*
X0122530Y0088057D03*
X0122530Y0087988D03*
X0122530Y0087919D03*
X0122530Y0087850D03*
X0122530Y0087781D03*
X0122530Y0087713D03*
X0122530Y0087644D03*
X0122530Y0087575D03*
X0122530Y0087506D03*
X0122530Y0087437D03*
X0122530Y0087368D03*
X0122530Y0087299D03*
X0122530Y0087230D03*
X0122530Y0087161D03*
X0122530Y0087093D03*
X0122530Y0087024D03*
X0122530Y0086955D03*
X0122530Y0086886D03*
X0122530Y0086817D03*
X0122530Y0086748D03*
X0122530Y0086679D03*
X0108337Y0090606D03*
X0108337Y0090675D03*
X0108337Y0090744D03*
X0108337Y0090813D03*
X0108337Y0090882D03*
X0108337Y0090951D03*
X0108337Y0091020D03*
X0108337Y0091089D03*
X0108337Y0091157D03*
X0108337Y0091226D03*
X0108337Y0091295D03*
X0108337Y0091364D03*
X0108337Y0091433D03*
X0108337Y0091502D03*
X0108337Y0091571D03*
X0108337Y0091640D03*
X0108337Y0091709D03*
X0108337Y0091778D03*
X0108337Y0091846D03*
X0108337Y0091915D03*
X0108337Y0091984D03*
X0108337Y0092053D03*
X0108337Y0092122D03*
X0108337Y0092191D03*
X0108337Y0092260D03*
X0108337Y0092329D03*
X0108337Y0092398D03*
X0108337Y0092467D03*
X0113160Y0097634D03*
X0113091Y0097703D03*
X0112884Y0097841D03*
X0114400Y0099701D03*
X0114331Y0099770D03*
X0114538Y0099632D03*
X0116123Y0101492D03*
X0116054Y0101561D03*
X0115985Y0101630D03*
X0115778Y0101768D03*
X0108061Y0108933D03*
X0105650Y0108795D03*
X0105581Y0108864D03*
X0100758Y0111689D03*
X0115847Y0113963D03*
D63*
X0113814Y0111069D03*
X0113746Y0111000D03*
X0110714Y0104110D03*
X0110094Y0101699D03*
X0106787Y0105144D03*
X0102860Y0104110D03*
X0103480Y0101699D03*
X0102033Y0111069D03*
X0103549Y0077447D03*
X0110025Y0077447D03*
D64*
X0110645Y0077585D03*
X0106787Y0078894D03*
X0102929Y0077585D03*
X0104100Y0107073D03*
X0102584Y0108933D03*
X0102515Y0109002D03*
X0109681Y0106453D03*
X0110301Y0111551D03*
X0114297Y0111689D03*
D65*
X0108027Y0108864D03*
X0105685Y0108726D03*
X0097348Y0101423D03*
X0097279Y0101354D03*
X0097210Y0101285D03*
X0098933Y0099494D03*
X0100310Y0097565D03*
X0102102Y0094327D03*
X0104444Y0097220D03*
X0098175Y0094396D03*
X0098175Y0094327D03*
X0092387Y0096807D03*
X0089356Y0095911D03*
X0108303Y0088057D03*
X0105547Y0084819D03*
X0102102Y0084819D03*
X0100310Y0081581D03*
X0098933Y0079652D03*
X0097210Y0077860D03*
X0097279Y0077791D03*
X0097348Y0077722D03*
X0094936Y0084819D03*
X0089356Y0084819D03*
X0113194Y0081581D03*
X0114641Y0079652D03*
X0114572Y0079583D03*
X0116364Y0077860D03*
X0116295Y0077791D03*
X0116226Y0077722D03*
X0114090Y0084819D03*
X0119946Y0084819D03*
X0117328Y0094327D03*
X0117328Y0094396D03*
X0114090Y0094327D03*
X0114641Y0099494D03*
X0114572Y0099563D03*
X0116295Y0101354D03*
X0116364Y0101285D03*
X0116226Y0101423D03*
X0119946Y0097289D03*
D66*
X0111954Y0103766D03*
X0104513Y0106659D03*
X0101620Y0103766D03*
X0102102Y0109553D03*
X0101482Y0111413D03*
X0109543Y0110931D03*
X0114641Y0112033D03*
X0110301Y0079996D03*
X0111127Y0077722D03*
X0103273Y0079996D03*
X0102446Y0077722D03*
D67*
X0102240Y0077791D03*
X0103066Y0080065D03*
X0110507Y0080065D03*
X0111334Y0077791D03*
X0111334Y0101354D03*
X0112161Y0103697D03*
X0109474Y0106315D03*
X0109336Y0110724D03*
X0114779Y0112171D03*
X0101964Y0109691D03*
X0101895Y0109760D03*
X0101413Y0103697D03*
X0102240Y0101354D03*
D68*
X0098864Y0099425D03*
X0100242Y0097427D03*
X0097141Y0101217D03*
X0105822Y0108520D03*
X0107958Y0108657D03*
X0107958Y0108726D03*
X0116433Y0101217D03*
X0114710Y0099425D03*
X0113332Y0097427D03*
X0114090Y0084750D03*
X0113332Y0081719D03*
X0114710Y0079720D03*
X0116433Y0077929D03*
X0119946Y0084750D03*
X0125803Y0084750D03*
X0105547Y0084750D03*
X0102102Y0084750D03*
X0100242Y0081719D03*
X0098864Y0079720D03*
X0097141Y0077929D03*
X0094936Y0084750D03*
D69*
X0089321Y0084750D03*
X0098829Y0079789D03*
X0097107Y0077998D03*
X0114745Y0079789D03*
X0116467Y0077998D03*
X0119912Y0097358D03*
X0116467Y0101148D03*
X0114745Y0099356D03*
X0104341Y0097289D03*
X0098829Y0099356D03*
X0097107Y0101148D03*
X0089321Y0095980D03*
X0105857Y0108451D03*
X0107924Y0108589D03*
D70*
X0107889Y0108520D03*
X0107820Y0108451D03*
X0105960Y0108313D03*
X0105891Y0108382D03*
X0097072Y0101079D03*
X0100173Y0097358D03*
X0100448Y0094051D03*
X0113401Y0097358D03*
X0116501Y0101079D03*
X0125803Y0097358D03*
X0113401Y0081787D03*
X0114779Y0079858D03*
X0116501Y0078067D03*
X0100173Y0081787D03*
X0098795Y0079858D03*
X0097072Y0078067D03*
D71*
X0097072Y0078136D03*
X0100173Y0081856D03*
X0113401Y0081856D03*
X0116501Y0078136D03*
X0100379Y0094189D03*
X0100173Y0097289D03*
X0098795Y0099287D03*
X0113401Y0097289D03*
X0114779Y0099287D03*
X0107751Y0108244D03*
X0106029Y0108175D03*
D72*
X0106201Y0107831D03*
X0107648Y0107969D03*
X0109508Y0106177D03*
X0100414Y0111758D03*
X0098760Y0099150D03*
X0100276Y0094327D03*
X0109922Y0094533D03*
X0114813Y0099150D03*
X0116398Y0084681D03*
X0113435Y0081994D03*
X0114813Y0079996D03*
X0116536Y0078205D03*
X0123563Y0084681D03*
X0100138Y0081994D03*
X0098760Y0079996D03*
X0097038Y0078205D03*
X0097245Y0084681D03*
D73*
X0097072Y0078274D03*
X0116501Y0078274D03*
X0104169Y0097358D03*
X0106787Y0100390D03*
X0097072Y0100872D03*
X0106305Y0107555D03*
X0107545Y0107624D03*
X0107545Y0107693D03*
X0116501Y0100872D03*
D74*
X0116501Y0100803D03*
X0114848Y0099012D03*
X0100104Y0094465D03*
X0098726Y0099012D03*
X0097072Y0100803D03*
X0106373Y0107348D03*
X0107476Y0107417D03*
X0107476Y0107486D03*
X0100035Y0082201D03*
X0097072Y0078343D03*
X0116501Y0078343D03*
D75*
X0116501Y0078411D03*
X0113539Y0082270D03*
X0100035Y0082270D03*
X0097072Y0078411D03*
X0123529Y0094533D03*
X0116501Y0100734D03*
X0114848Y0098943D03*
X0113539Y0096876D03*
X0100035Y0096876D03*
X0098726Y0098943D03*
X0097072Y0100734D03*
X0106442Y0107142D03*
X0107476Y0107280D03*
X0107476Y0107348D03*
D76*
X0107407Y0107142D03*
X0107407Y0107073D03*
X0113539Y0096807D03*
X0100035Y0096807D03*
X0100035Y0082339D03*
X0097072Y0078480D03*
X0113539Y0082339D03*
X0116501Y0078480D03*
D77*
X0106787Y0078963D03*
X0106787Y0100183D03*
X0110301Y0106935D03*
X0113401Y0110587D03*
X0113470Y0110656D03*
D78*
X0113814Y0113136D03*
X0106787Y0102526D03*
X0106787Y0079100D03*
D79*
X0106787Y0079376D03*
X0106787Y0099770D03*
D80*
X0106787Y0079583D03*
D81*
X0106787Y0079652D03*
X0106787Y0099494D03*
X0106787Y0104661D03*
D82*
X0106787Y0099425D03*
X0106787Y0079720D03*
D83*
X0109233Y0079789D03*
X0109922Y0085577D03*
X0109922Y0085646D03*
X0109922Y0093500D03*
X0109922Y0093569D03*
X0110404Y0107004D03*
X0113367Y0110518D03*
X0114400Y0113480D03*
X0102205Y0110931D03*
D84*
X0102309Y0110862D03*
X0110438Y0107073D03*
X0110301Y0104179D03*
X0103273Y0104179D03*
X0113263Y0110449D03*
X0104375Y0079789D03*
D85*
X0103824Y0079858D03*
X0109749Y0079858D03*
X0103755Y0099287D03*
X0106787Y0100252D03*
X0110438Y0101630D03*
X0103135Y0101630D03*
X0103893Y0107280D03*
X0103824Y0107348D03*
X0102860Y0108589D03*
X0102791Y0108657D03*
X0110576Y0111758D03*
D86*
X0107717Y0108175D03*
X0106063Y0108106D03*
X0106063Y0108037D03*
X0097038Y0101010D03*
X0098760Y0099219D03*
X0100138Y0097220D03*
X0100345Y0094258D03*
X0113435Y0097220D03*
X0114813Y0099219D03*
X0113435Y0081925D03*
X0114813Y0079927D03*
X0100138Y0081925D03*
X0098760Y0079927D03*
D87*
X0098760Y0080065D03*
X0100069Y0082063D03*
X0113504Y0082063D03*
X0114813Y0080065D03*
X0100207Y0094396D03*
X0100069Y0097083D03*
X0098760Y0099081D03*
X0113504Y0097083D03*
X0114813Y0099081D03*
X0107579Y0107762D03*
X0106270Y0107624D03*
D88*
X0106339Y0107486D03*
X0106339Y0107417D03*
X0107510Y0107555D03*
X0113504Y0097014D03*
X0100069Y0097014D03*
X0100069Y0082132D03*
X0098760Y0080134D03*
X0113504Y0082132D03*
X0114813Y0080134D03*
D89*
X0114882Y0080203D03*
X0113504Y0082201D03*
X0098691Y0080203D03*
X0100069Y0096945D03*
X0113504Y0096945D03*
X0106408Y0107211D03*
X0106408Y0107280D03*
D90*
X0106477Y0107073D03*
X0106477Y0107004D03*
X0107441Y0107211D03*
X0114882Y0098874D03*
X0098691Y0098874D03*
X0098691Y0080272D03*
X0114882Y0080272D03*
D91*
X0114882Y0080341D03*
X0113573Y0082407D03*
X0100000Y0082407D03*
X0098691Y0080341D03*
X0100000Y0096738D03*
X0098691Y0098805D03*
X0097038Y0100665D03*
X0106477Y0106866D03*
X0106477Y0106935D03*
X0107373Y0106935D03*
X0107373Y0107004D03*
X0116536Y0100665D03*
X0114882Y0098805D03*
X0113573Y0096738D03*
D92*
X0107338Y0106728D03*
X0107338Y0106797D03*
X0106580Y0106591D03*
X0106580Y0106522D03*
X0098657Y0080409D03*
X0114917Y0080409D03*
D93*
X0113298Y0081650D03*
X0116398Y0084750D03*
X0109922Y0084681D03*
X0108337Y0088126D03*
X0114124Y0094396D03*
X0113298Y0097496D03*
X0113229Y0097565D03*
X0102067Y0094396D03*
X0100276Y0097496D03*
X0094971Y0094396D03*
X0092353Y0094396D03*
X0097245Y0084750D03*
X0100276Y0081650D03*
X0123563Y0084750D03*
X0107993Y0108795D03*
X0105788Y0108589D03*
X0105719Y0108657D03*
D94*
X0092353Y0084750D03*
D95*
X0125803Y0084819D03*
X0125803Y0097289D03*
D96*
X0125768Y0097220D03*
X0125768Y0097152D03*
X0125768Y0097083D03*
X0125768Y0097014D03*
X0125768Y0096945D03*
X0125768Y0096876D03*
X0125768Y0096807D03*
X0125768Y0096738D03*
X0125768Y0096669D03*
X0125768Y0096600D03*
X0125768Y0096531D03*
X0125768Y0096463D03*
X0125768Y0096394D03*
X0125768Y0096325D03*
X0125768Y0096256D03*
X0125768Y0096187D03*
X0125768Y0096118D03*
X0125768Y0096049D03*
X0125768Y0095980D03*
X0125768Y0095911D03*
X0125768Y0095843D03*
X0125768Y0095774D03*
X0125768Y0095705D03*
X0125768Y0095636D03*
X0125768Y0095567D03*
X0125768Y0095498D03*
X0125768Y0095429D03*
X0125768Y0095360D03*
X0125768Y0095291D03*
X0125768Y0095222D03*
X0125768Y0095154D03*
X0125768Y0095085D03*
X0125768Y0095016D03*
X0125768Y0094947D03*
X0125768Y0094878D03*
X0125768Y0094809D03*
X0125768Y0094740D03*
X0125768Y0094671D03*
X0125768Y0094602D03*
X0125768Y0094533D03*
X0125768Y0094465D03*
X0125768Y0094396D03*
X0125768Y0094327D03*
X0125768Y0094258D03*
X0125768Y0094189D03*
X0125768Y0092535D03*
X0125768Y0092467D03*
X0125768Y0092398D03*
X0125768Y0092329D03*
X0125768Y0092260D03*
X0125768Y0092191D03*
X0125768Y0092122D03*
X0125768Y0092053D03*
X0125768Y0091984D03*
X0125768Y0091915D03*
X0125768Y0091846D03*
X0125768Y0091778D03*
X0125768Y0091709D03*
X0125768Y0091640D03*
X0125768Y0091571D03*
X0125768Y0091502D03*
X0125768Y0091433D03*
X0125768Y0091364D03*
X0125768Y0091295D03*
X0125768Y0091226D03*
X0125768Y0091157D03*
X0125768Y0091089D03*
X0125768Y0091020D03*
X0125768Y0090951D03*
X0125768Y0090882D03*
X0125768Y0090813D03*
X0125768Y0090744D03*
X0125768Y0090675D03*
X0125768Y0090606D03*
X0125768Y0090537D03*
X0125768Y0090469D03*
X0125768Y0090400D03*
X0125768Y0090331D03*
X0125768Y0090262D03*
X0125768Y0090193D03*
X0125768Y0090124D03*
X0125768Y0090055D03*
X0125768Y0089986D03*
X0125768Y0089917D03*
X0125768Y0089848D03*
X0125768Y0089780D03*
X0125768Y0089711D03*
X0125768Y0089642D03*
X0125768Y0089573D03*
X0125768Y0089504D03*
X0125768Y0089435D03*
X0125768Y0089366D03*
X0125768Y0089297D03*
X0125768Y0089228D03*
X0125768Y0089159D03*
X0125768Y0089091D03*
X0125768Y0089022D03*
X0125768Y0088953D03*
X0125768Y0088884D03*
X0125768Y0088815D03*
X0125768Y0088746D03*
X0125768Y0088677D03*
X0125768Y0088608D03*
X0125768Y0088539D03*
X0125768Y0088470D03*
X0125768Y0088402D03*
X0125768Y0088333D03*
X0125768Y0088264D03*
X0125768Y0088195D03*
X0125768Y0088126D03*
X0125768Y0088057D03*
X0125768Y0087988D03*
X0125768Y0087919D03*
X0125768Y0087850D03*
X0125768Y0087781D03*
X0125768Y0087713D03*
X0125768Y0087644D03*
X0125768Y0087575D03*
X0125768Y0087506D03*
X0125768Y0087437D03*
X0125768Y0087368D03*
X0125768Y0087299D03*
X0125768Y0087230D03*
X0125768Y0087161D03*
X0125768Y0087093D03*
X0125768Y0087024D03*
X0125768Y0086955D03*
X0125768Y0086886D03*
X0125768Y0086817D03*
X0125768Y0086748D03*
X0125768Y0086679D03*
X0125768Y0084957D03*
X0125768Y0084888D03*
D97*
X0124459Y0085026D03*
X0124459Y0094120D03*
D98*
X0124425Y0094051D03*
X0124425Y0085094D03*
D99*
X0115502Y0085094D03*
X0109922Y0085715D03*
X0109922Y0085783D03*
X0109922Y0093362D03*
X0109922Y0093431D03*
X0096349Y0085094D03*
X0110542Y0107142D03*
X0110611Y0107211D03*
X0113160Y0110311D03*
X0113229Y0110380D03*
D100*
X0124390Y0093982D03*
X0124390Y0085163D03*
D101*
X0109922Y0085163D03*
X0109922Y0093982D03*
X0109784Y0106522D03*
X0103790Y0107417D03*
X0103721Y0107486D03*
X0103652Y0107555D03*
X0103583Y0107624D03*
X0103445Y0107831D03*
X0103376Y0107900D03*
X0103170Y0108175D03*
X0103101Y0108244D03*
X0103032Y0108382D03*
X0102963Y0108451D03*
X0102894Y0108520D03*
X0110680Y0111827D03*
X0114124Y0111482D03*
D102*
X0124356Y0093913D03*
X0124356Y0085232D03*
D103*
X0115571Y0085232D03*
X0115571Y0085301D03*
X0109922Y0085852D03*
X0109922Y0085921D03*
X0109922Y0085990D03*
X0109922Y0093156D03*
X0109922Y0093224D03*
X0109922Y0093293D03*
X0096418Y0085301D03*
X0096418Y0085232D03*
X0110680Y0107280D03*
X0110748Y0107348D03*
X0112953Y0110035D03*
X0113022Y0110104D03*
X0114262Y0113411D03*
D104*
X0124322Y0093844D03*
X0124322Y0085370D03*
X0124322Y0085301D03*
D105*
X0109922Y0085301D03*
X0109922Y0093844D03*
X0110060Y0106728D03*
X0111369Y0112240D03*
X0111506Y0112309D03*
X0113849Y0111138D03*
D106*
X0112919Y0109967D03*
X0112850Y0109898D03*
X0110783Y0107417D03*
X0102515Y0110656D03*
X0102446Y0110724D03*
X0106787Y0102594D03*
X0109887Y0086059D03*
X0115606Y0085439D03*
X0115606Y0085370D03*
X0096452Y0085370D03*
X0096452Y0085439D03*
D107*
X0124287Y0085439D03*
X0124287Y0085508D03*
X0124287Y0093707D03*
X0124287Y0093776D03*
D108*
X0115640Y0085577D03*
X0115640Y0085508D03*
X0109922Y0086128D03*
X0109922Y0086197D03*
X0109922Y0086266D03*
X0109922Y0092949D03*
X0109922Y0093018D03*
X0109922Y0093087D03*
X0096487Y0085577D03*
X0096487Y0085508D03*
X0104065Y0101768D03*
X0109508Y0101768D03*
X0110886Y0107486D03*
X0110955Y0107555D03*
X0112747Y0109829D03*
D109*
X0113504Y0110724D03*
X0113573Y0110793D03*
X0102136Y0111000D03*
X0109922Y0093707D03*
X0109922Y0093638D03*
X0109922Y0085508D03*
D110*
X0124253Y0085577D03*
X0124253Y0085646D03*
X0124253Y0093569D03*
X0124253Y0093638D03*
D111*
X0124218Y0093500D03*
X0124218Y0093431D03*
X0124218Y0093362D03*
X0124218Y0085852D03*
X0124218Y0085783D03*
X0124218Y0085715D03*
D112*
X0115709Y0085852D03*
X0115709Y0085921D03*
X0115709Y0085990D03*
X0115709Y0086059D03*
X0115709Y0086128D03*
X0115709Y0086197D03*
X0109922Y0089022D03*
X0109922Y0089091D03*
X0109922Y0089159D03*
X0109922Y0089228D03*
X0109922Y0089297D03*
X0109922Y0089366D03*
X0109922Y0089435D03*
X0109922Y0089504D03*
X0109922Y0089573D03*
X0109922Y0089642D03*
X0109922Y0089711D03*
X0109922Y0089780D03*
X0109922Y0089848D03*
X0109922Y0089917D03*
X0109922Y0089986D03*
X0109922Y0090055D03*
X0109922Y0090124D03*
X0109922Y0090193D03*
X0109922Y0090262D03*
X0109922Y0090331D03*
X0109922Y0090400D03*
X0109922Y0090469D03*
X0109922Y0090537D03*
X0096556Y0086197D03*
X0096556Y0086128D03*
X0096556Y0086059D03*
X0096556Y0085990D03*
X0096556Y0085921D03*
X0096556Y0085852D03*
X0111162Y0107831D03*
X0111231Y0107900D03*
X0111300Y0107969D03*
X0112402Y0109346D03*
X0112471Y0109415D03*
X0112540Y0109484D03*
X0112540Y0109553D03*
X0112609Y0109622D03*
X0102619Y0110518D03*
D113*
X0124184Y0093293D03*
X0124184Y0093224D03*
X0124184Y0093156D03*
X0124184Y0093087D03*
X0124184Y0093018D03*
X0124184Y0086128D03*
X0124184Y0086059D03*
X0124184Y0085990D03*
X0124184Y0085921D03*
D114*
X0124149Y0086197D03*
X0124149Y0086266D03*
X0124149Y0092880D03*
X0124149Y0092949D03*
D115*
X0115744Y0086266D03*
X0096590Y0086266D03*
X0106787Y0100114D03*
X0106787Y0105075D03*
X0111334Y0108037D03*
X0111403Y0108106D03*
X0111472Y0108175D03*
X0112023Y0108864D03*
X0112161Y0109071D03*
X0112230Y0109140D03*
X0112299Y0109209D03*
X0112368Y0109278D03*
X0114021Y0113274D03*
X0102722Y0110449D03*
D116*
X0125424Y0086335D03*
D117*
X0125527Y0086404D03*
D118*
X0125631Y0086472D03*
X0125631Y0092673D03*
D119*
X0125665Y0086541D03*
D120*
X0125734Y0086610D03*
D121*
X0125699Y0092604D03*
D122*
X0110094Y0099219D03*
X0110921Y0101492D03*
X0111748Y0103835D03*
X0104444Y0106728D03*
X0101826Y0103835D03*
X0102653Y0101492D03*
X0103480Y0099219D03*
X0105271Y0094396D03*
X0101344Y0093982D03*
X0101344Y0093913D03*
X0101344Y0093844D03*
X0101344Y0093776D03*
X0101344Y0093707D03*
X0101344Y0093638D03*
X0101344Y0093569D03*
X0101344Y0093500D03*
X0101344Y0093431D03*
X0101344Y0093362D03*
X0101344Y0093293D03*
X0101344Y0093224D03*
X0101344Y0093156D03*
X0101344Y0093087D03*
X0101344Y0093018D03*
X0101344Y0092949D03*
X0101344Y0092880D03*
X0101344Y0092811D03*
X0101344Y0092742D03*
X0101344Y0092673D03*
X0089149Y0094396D03*
X0102240Y0109346D03*
X0102171Y0109415D03*
X0114503Y0111896D03*
X0114572Y0111965D03*
X0115055Y0113756D03*
D123*
X0125596Y0092742D03*
D124*
X0125493Y0092811D03*
D125*
X0111265Y0092880D03*
D126*
X0105271Y0092949D03*
X0105271Y0093018D03*
X0105271Y0093087D03*
X0105271Y0093156D03*
X0105271Y0093224D03*
X0105271Y0093293D03*
X0105271Y0093362D03*
X0105271Y0093431D03*
X0105271Y0093500D03*
X0105271Y0093569D03*
X0105271Y0093638D03*
X0105271Y0093707D03*
X0105271Y0093776D03*
X0105271Y0093844D03*
X0105271Y0093913D03*
X0105271Y0093982D03*
X0105271Y0094051D03*
X0105271Y0094120D03*
X0105271Y0094189D03*
X0105271Y0094258D03*
X0105271Y0094327D03*
X0089149Y0094258D03*
X0089149Y0094189D03*
X0089149Y0094120D03*
X0089149Y0094051D03*
X0089149Y0093982D03*
X0089149Y0093913D03*
X0089149Y0093844D03*
X0089149Y0093776D03*
X0089149Y0093707D03*
X0089149Y0093638D03*
X0089149Y0093569D03*
X0089149Y0093500D03*
X0089149Y0093431D03*
X0089149Y0093362D03*
X0089149Y0093293D03*
X0089149Y0093224D03*
X0089149Y0093156D03*
X0089149Y0093087D03*
X0089149Y0093018D03*
X0102033Y0103904D03*
X0109543Y0106384D03*
X0111541Y0103904D03*
X0110025Y0111344D03*
X0114435Y0111827D03*
X0101620Y0111344D03*
D127*
X0105995Y0108244D03*
X0107786Y0108313D03*
X0107786Y0108382D03*
X0104961Y0106246D03*
X0100414Y0094120D03*
X0123563Y0094465D03*
D128*
X0116501Y0100941D03*
X0113470Y0097152D03*
X0100104Y0097152D03*
X0097072Y0100941D03*
X0106236Y0107693D03*
X0106236Y0107762D03*
X0107614Y0107831D03*
X0107614Y0107900D03*
D129*
X0107304Y0106659D03*
X0114882Y0098736D03*
D130*
X0111403Y0098736D03*
D131*
X0106787Y0099701D03*
D132*
X0106787Y0099976D03*
X0106787Y0102457D03*
X0113401Y0112791D03*
D133*
X0113746Y0113067D03*
X0106787Y0100045D03*
D134*
X0097038Y0100596D03*
X0106546Y0106659D03*
X0106546Y0106728D03*
D135*
X0106167Y0107900D03*
X0106098Y0107969D03*
X0107683Y0108037D03*
X0107683Y0108106D03*
X0116501Y0101010D03*
D136*
X0106752Y0101906D03*
D137*
X0106787Y0101974D03*
D138*
X0106787Y0102388D03*
D139*
X0106787Y0102663D03*
X0109956Y0106659D03*
X0111127Y0112102D03*
X0111265Y0112171D03*
X0113883Y0111207D03*
X0114710Y0113618D03*
X0101964Y0111138D03*
D140*
X0106787Y0104248D03*
D141*
X0106511Y0106797D03*
X0107338Y0106866D03*
D142*
X0111506Y0108244D03*
X0111575Y0108313D03*
X0111644Y0108382D03*
X0111713Y0108451D03*
X0111713Y0108520D03*
X0111782Y0108589D03*
X0111851Y0108657D03*
X0111920Y0108726D03*
X0111989Y0108795D03*
X0112058Y0108933D03*
X0112126Y0109002D03*
D143*
X0112643Y0109691D03*
D144*
X0108923Y0110242D03*
D145*
X0112953Y0112378D03*
D146*
X0113022Y0112447D03*
D147*
X0113160Y0112585D03*
D148*
X0113229Y0112654D03*
D149*
X0113298Y0112722D03*
D150*
X0113539Y0112929D03*
D151*
X0113918Y0113205D03*
D152*
X0064145Y0086233D03*
X0064145Y0086133D03*
X0064145Y0086033D03*
X0064145Y0085933D03*
X0064245Y0085833D03*
X0064245Y0085733D03*
X0064245Y0085633D03*
X0064345Y0085533D03*
X0064345Y0085433D03*
X0064445Y0085233D03*
X0078745Y0083933D03*
X0094745Y0070533D03*
X0140445Y0047733D03*
D153*
X0144445Y0050033D03*
X0135145Y0056533D03*
X0130145Y0054733D03*
X0130045Y0054833D03*
X0130045Y0049733D03*
X0127445Y0047733D03*
X0113345Y0050033D03*
X0120645Y0061033D03*
X0120745Y0061133D03*
X0135345Y0060833D03*
X0135445Y0060933D03*
X0144445Y0060833D03*
X0153145Y0068533D03*
X0104645Y0060233D03*
X0095045Y0061033D03*
X0088745Y0060833D03*
X0079745Y0060933D03*
X0079445Y0056533D03*
X0074045Y0060033D03*
X0067345Y0063233D03*
X0087945Y0066933D03*
X0097945Y0069233D03*
X0103845Y0067433D03*
X0087045Y0076633D03*
X0086945Y0076733D03*
X0077445Y0085733D03*
X0088745Y0049933D03*
X0088645Y0049833D03*
D154*
X0084795Y0047733D03*
X0073295Y0060733D03*
X0071195Y0061433D03*
X0080795Y0061533D03*
X0094995Y0070433D03*
X0090495Y0072233D03*
X0078695Y0084033D03*
X0078595Y0084133D03*
X0103895Y0060933D03*
X0136495Y0061533D03*
D155*
X0134945Y0059833D03*
X0134845Y0059433D03*
X0134845Y0059333D03*
X0134845Y0059233D03*
X0134845Y0059133D03*
X0134845Y0059033D03*
X0134745Y0058333D03*
X0134745Y0058233D03*
X0134745Y0058133D03*
X0134745Y0058033D03*
X0134745Y0057933D03*
X0134745Y0057833D03*
X0134745Y0057733D03*
X0134745Y0057633D03*
X0130545Y0053533D03*
X0130545Y0053433D03*
X0130545Y0053333D03*
X0130545Y0053233D03*
X0130545Y0053133D03*
X0130545Y0053033D03*
X0130545Y0052933D03*
X0130545Y0052833D03*
X0130545Y0052733D03*
X0130545Y0052633D03*
X0130545Y0052533D03*
X0130545Y0052433D03*
X0130545Y0052333D03*
X0130545Y0052233D03*
X0130545Y0052133D03*
X0130545Y0052033D03*
X0130545Y0051933D03*
X0130545Y0051833D03*
X0130545Y0051733D03*
X0130545Y0051633D03*
X0130545Y0051533D03*
X0130545Y0051433D03*
X0130545Y0051333D03*
X0130545Y0051233D03*
X0130545Y0051133D03*
X0130545Y0051033D03*
X0120145Y0051033D03*
X0120145Y0050933D03*
X0120145Y0050833D03*
X0120145Y0051133D03*
X0120145Y0051233D03*
X0120145Y0051333D03*
X0120145Y0051433D03*
X0120145Y0051533D03*
X0120145Y0051633D03*
X0120145Y0051733D03*
X0120145Y0051833D03*
X0120145Y0051933D03*
X0120145Y0052033D03*
X0120145Y0052133D03*
X0120145Y0052233D03*
X0120145Y0052333D03*
X0120145Y0052433D03*
X0120145Y0052533D03*
X0120145Y0052633D03*
X0120145Y0052733D03*
X0120145Y0052833D03*
X0120145Y0052933D03*
X0120145Y0053033D03*
X0120145Y0053133D03*
X0120145Y0053233D03*
X0120145Y0053333D03*
X0120145Y0053433D03*
X0120145Y0053533D03*
X0120145Y0053633D03*
X0120145Y0053733D03*
X0120145Y0053833D03*
X0120145Y0053933D03*
X0120145Y0054033D03*
X0120145Y0054133D03*
X0120145Y0054233D03*
X0120145Y0054333D03*
X0120145Y0054433D03*
X0120145Y0054533D03*
X0120145Y0054633D03*
X0120145Y0054733D03*
X0120145Y0054833D03*
X0120145Y0054933D03*
X0120145Y0055033D03*
X0120145Y0055133D03*
X0120145Y0055233D03*
X0120145Y0055333D03*
X0120145Y0055433D03*
X0120145Y0055533D03*
X0120145Y0055633D03*
X0120145Y0055733D03*
X0120145Y0057033D03*
X0120145Y0057133D03*
X0120145Y0057233D03*
X0120145Y0057333D03*
X0120145Y0057433D03*
X0120145Y0057533D03*
X0120145Y0057633D03*
X0120145Y0057733D03*
X0120145Y0057833D03*
X0120145Y0057933D03*
X0120145Y0058033D03*
X0120145Y0058133D03*
X0120145Y0058233D03*
X0120145Y0058333D03*
X0120145Y0058433D03*
X0120145Y0058533D03*
X0120145Y0058633D03*
X0120145Y0058733D03*
X0120145Y0058833D03*
X0120145Y0058933D03*
X0120145Y0059033D03*
X0120145Y0059133D03*
X0120145Y0059233D03*
X0120145Y0059333D03*
X0120145Y0059433D03*
X0120145Y0059533D03*
X0120145Y0059633D03*
X0120245Y0060033D03*
X0113945Y0052333D03*
X0113945Y0052233D03*
X0113945Y0052133D03*
X0113945Y0052033D03*
X0113945Y0051933D03*
X0113845Y0051433D03*
X0113845Y0051333D03*
X0120145Y0049633D03*
X0104845Y0047833D03*
X0094245Y0047833D03*
X0094245Y0047933D03*
X0094245Y0048033D03*
X0094245Y0048133D03*
X0094245Y0048233D03*
X0094245Y0048333D03*
X0094245Y0048433D03*
X0094245Y0048533D03*
X0094245Y0048633D03*
X0094245Y0048733D03*
X0094245Y0048833D03*
X0094245Y0048933D03*
X0094245Y0049033D03*
X0094245Y0049133D03*
X0094245Y0049233D03*
X0094245Y0049333D03*
X0094245Y0049433D03*
X0094245Y0049533D03*
X0094245Y0049633D03*
X0094245Y0049733D03*
X0094245Y0049833D03*
X0094245Y0049933D03*
X0094245Y0050033D03*
X0094245Y0050133D03*
X0094245Y0050233D03*
X0094245Y0050333D03*
X0094245Y0050433D03*
X0094245Y0050533D03*
X0094245Y0050633D03*
X0094245Y0050733D03*
X0094245Y0050833D03*
X0094245Y0050933D03*
X0094245Y0051033D03*
X0094245Y0051133D03*
X0094245Y0051233D03*
X0094245Y0051333D03*
X0094245Y0051433D03*
X0094245Y0051533D03*
X0094245Y0051633D03*
X0094245Y0051733D03*
X0094245Y0051833D03*
X0094245Y0051933D03*
X0094245Y0052033D03*
X0094245Y0052133D03*
X0094245Y0052233D03*
X0094245Y0052333D03*
X0094245Y0052433D03*
X0094245Y0052533D03*
X0094245Y0052633D03*
X0094245Y0052733D03*
X0094245Y0052833D03*
X0094245Y0052933D03*
X0094245Y0053033D03*
X0094245Y0053133D03*
X0094245Y0053233D03*
X0094245Y0053333D03*
X0094245Y0053433D03*
X0094245Y0053533D03*
X0094245Y0053633D03*
X0094245Y0053733D03*
X0094245Y0053833D03*
X0094245Y0053933D03*
X0094245Y0054033D03*
X0094245Y0054133D03*
X0094245Y0054233D03*
X0094245Y0054333D03*
X0094245Y0054433D03*
X0094245Y0054533D03*
X0094245Y0054633D03*
X0094245Y0054733D03*
X0094245Y0054833D03*
X0094245Y0054933D03*
X0094245Y0055033D03*
X0094245Y0055133D03*
X0094245Y0055233D03*
X0094245Y0055333D03*
X0094245Y0055433D03*
X0094245Y0055533D03*
X0094245Y0055633D03*
X0094245Y0055733D03*
X0094245Y0055833D03*
X0094245Y0055933D03*
X0094245Y0056033D03*
X0094245Y0056133D03*
X0094245Y0056233D03*
X0094245Y0056333D03*
X0094245Y0056433D03*
X0094245Y0056533D03*
X0094245Y0056633D03*
X0094245Y0056733D03*
X0094245Y0056833D03*
X0094245Y0056933D03*
X0094245Y0057033D03*
X0094245Y0057133D03*
X0094245Y0057233D03*
X0094245Y0057333D03*
X0094245Y0057433D03*
X0094245Y0057533D03*
X0094245Y0057633D03*
X0094245Y0057733D03*
X0094245Y0057833D03*
X0094245Y0057933D03*
X0094245Y0058033D03*
X0094245Y0058133D03*
X0094245Y0058233D03*
X0094245Y0058333D03*
X0094245Y0058433D03*
X0094245Y0058533D03*
X0094245Y0058633D03*
X0094245Y0058733D03*
X0094245Y0058833D03*
X0094245Y0058933D03*
X0094345Y0059433D03*
X0094345Y0059533D03*
X0094445Y0059833D03*
X0089545Y0058733D03*
X0089545Y0058633D03*
X0089545Y0058533D03*
X0089545Y0058433D03*
X0089545Y0058333D03*
X0089545Y0058233D03*
X0089545Y0058133D03*
X0089645Y0057933D03*
X0089645Y0057833D03*
X0089645Y0057733D03*
X0089645Y0057633D03*
X0089645Y0057533D03*
X0089645Y0057433D03*
X0089645Y0057333D03*
X0089645Y0057233D03*
X0089645Y0057133D03*
X0089645Y0057033D03*
X0089645Y0056933D03*
X0089645Y0056833D03*
X0089645Y0056733D03*
X0089645Y0056633D03*
X0089645Y0056533D03*
X0089645Y0054433D03*
X0089645Y0054333D03*
X0089645Y0054233D03*
X0089645Y0054133D03*
X0089645Y0054033D03*
X0089645Y0053933D03*
X0089645Y0053833D03*
X0089645Y0053733D03*
X0089645Y0053633D03*
X0089645Y0053533D03*
X0089645Y0053433D03*
X0089645Y0053333D03*
X0089645Y0053233D03*
X0089645Y0053133D03*
X0089645Y0053033D03*
X0089645Y0052933D03*
X0089645Y0052833D03*
X0089545Y0052733D03*
X0089545Y0052633D03*
X0089545Y0052533D03*
X0089545Y0052433D03*
X0089545Y0052333D03*
X0089545Y0052233D03*
X0089545Y0052133D03*
X0089545Y0052033D03*
X0089445Y0051933D03*
X0089445Y0051833D03*
X0089445Y0051733D03*
X0089445Y0051633D03*
X0089345Y0051433D03*
X0089345Y0051333D03*
X0089345Y0051233D03*
X0089245Y0050933D03*
X0079145Y0057233D03*
X0079145Y0057333D03*
X0079145Y0057433D03*
X0079145Y0058433D03*
X0079145Y0058533D03*
X0079145Y0058633D03*
X0079145Y0058733D03*
X0079145Y0058833D03*
X0079145Y0058933D03*
X0079145Y0059033D03*
X0079145Y0059133D03*
X0079245Y0059533D03*
X0079245Y0059633D03*
X0079245Y0059733D03*
X0074245Y0059733D03*
X0074245Y0059633D03*
X0074245Y0059533D03*
X0074245Y0059433D03*
X0074245Y0059333D03*
X0074245Y0059233D03*
X0074245Y0059133D03*
X0074245Y0059033D03*
X0074245Y0058933D03*
X0074245Y0058833D03*
X0074245Y0058733D03*
X0074245Y0058633D03*
X0074245Y0058533D03*
X0074245Y0058433D03*
X0074245Y0058333D03*
X0074245Y0058233D03*
X0074245Y0058133D03*
X0074245Y0058033D03*
X0074245Y0057933D03*
X0074245Y0057833D03*
X0074245Y0057733D03*
X0074245Y0057633D03*
X0074245Y0057533D03*
X0074245Y0057433D03*
X0074245Y0057333D03*
X0074245Y0057233D03*
X0074245Y0057133D03*
X0074245Y0057033D03*
X0074245Y0056933D03*
X0074245Y0056833D03*
X0074245Y0056733D03*
X0074245Y0056633D03*
X0074245Y0056533D03*
X0074245Y0056433D03*
X0074245Y0056333D03*
X0074245Y0056233D03*
X0074245Y0056133D03*
X0074245Y0056033D03*
X0074245Y0055933D03*
X0074245Y0055833D03*
X0074245Y0055733D03*
X0074245Y0055633D03*
X0074245Y0055533D03*
X0074245Y0055433D03*
X0074245Y0055333D03*
X0074245Y0055233D03*
X0074245Y0055133D03*
X0074245Y0055033D03*
X0074245Y0054933D03*
X0074245Y0054833D03*
X0074245Y0054733D03*
X0074245Y0054633D03*
X0074245Y0054533D03*
X0074245Y0054433D03*
X0074245Y0054333D03*
X0074245Y0054233D03*
X0074245Y0054133D03*
X0074245Y0054033D03*
X0074245Y0053933D03*
X0074245Y0053833D03*
X0074245Y0053733D03*
X0074245Y0053633D03*
X0074245Y0053533D03*
X0074245Y0053433D03*
X0074245Y0053333D03*
X0074245Y0053233D03*
X0074245Y0053133D03*
X0074245Y0053033D03*
X0074245Y0052933D03*
X0074245Y0052833D03*
X0074245Y0052733D03*
X0074245Y0052633D03*
X0074245Y0052533D03*
X0074245Y0052433D03*
X0074245Y0052333D03*
X0074245Y0052233D03*
X0074245Y0052133D03*
X0074245Y0052033D03*
X0074245Y0051933D03*
X0074245Y0051833D03*
X0074245Y0051733D03*
X0074245Y0051633D03*
X0074245Y0051533D03*
X0074245Y0051433D03*
X0074245Y0051333D03*
X0074245Y0051233D03*
X0074245Y0051133D03*
X0074245Y0051033D03*
X0074245Y0050933D03*
X0074245Y0050833D03*
X0074245Y0050733D03*
X0074245Y0050633D03*
X0074245Y0050533D03*
X0074245Y0050433D03*
X0074245Y0050333D03*
X0074245Y0050233D03*
X0074245Y0050133D03*
X0074245Y0050033D03*
X0074245Y0049933D03*
X0074245Y0049833D03*
X0074245Y0049733D03*
X0074245Y0049633D03*
X0074245Y0049533D03*
X0074245Y0049433D03*
X0074245Y0049333D03*
X0074245Y0049233D03*
X0074245Y0049133D03*
X0074245Y0049033D03*
X0074245Y0048933D03*
X0074245Y0048833D03*
X0074245Y0048733D03*
X0074245Y0048633D03*
X0074245Y0048533D03*
X0074245Y0048433D03*
X0074245Y0048333D03*
X0074245Y0048233D03*
X0074245Y0048133D03*
X0074245Y0048033D03*
X0074245Y0047933D03*
X0074245Y0047833D03*
X0089445Y0058933D03*
X0089445Y0059033D03*
X0089445Y0059133D03*
X0089445Y0059233D03*
X0089345Y0059433D03*
X0089345Y0059533D03*
X0089245Y0059833D03*
X0074245Y0059833D03*
X0074245Y0061233D03*
X0093245Y0072133D03*
X0093345Y0072033D03*
X0086745Y0077033D03*
X0086645Y0077133D03*
X0077245Y0086033D03*
X0077145Y0086133D03*
X0144945Y0059733D03*
X0145045Y0059433D03*
X0145045Y0059333D03*
X0145045Y0059233D03*
X0145145Y0059033D03*
X0145145Y0058933D03*
X0145145Y0058833D03*
X0145145Y0058733D03*
X0145145Y0058633D03*
X0145245Y0058533D03*
X0145245Y0058433D03*
X0145245Y0058333D03*
X0145245Y0058233D03*
X0145245Y0058133D03*
X0145245Y0058033D03*
X0145245Y0057933D03*
X0145245Y0057833D03*
X0145245Y0057733D03*
X0145345Y0057433D03*
X0145345Y0057333D03*
X0145345Y0057233D03*
X0145345Y0057133D03*
X0145345Y0057033D03*
X0145345Y0056933D03*
X0145345Y0056833D03*
X0145345Y0056733D03*
X0145345Y0056633D03*
X0145345Y0056533D03*
X0145345Y0056433D03*
X0145345Y0056333D03*
X0145345Y0056233D03*
X0145345Y0054533D03*
X0145345Y0054433D03*
X0145345Y0054333D03*
X0145345Y0054233D03*
X0145345Y0054133D03*
X0145345Y0054033D03*
X0145345Y0053933D03*
X0145345Y0053833D03*
X0145345Y0053733D03*
X0145345Y0053633D03*
X0145345Y0053533D03*
X0145345Y0053433D03*
X0145345Y0053333D03*
X0145245Y0053233D03*
X0145245Y0053133D03*
X0145245Y0053033D03*
X0145245Y0052933D03*
X0145245Y0052833D03*
X0145245Y0052733D03*
X0145245Y0052633D03*
X0145245Y0052533D03*
X0145245Y0052433D03*
X0145245Y0052333D03*
X0145145Y0052233D03*
X0145145Y0052133D03*
X0145145Y0052033D03*
X0145145Y0051933D03*
X0145145Y0051833D03*
X0145145Y0051733D03*
X0145045Y0051633D03*
X0145045Y0051533D03*
X0145045Y0051433D03*
X0145045Y0051333D03*
X0144945Y0051133D03*
X0144945Y0051033D03*
X0153645Y0051033D03*
X0153645Y0050933D03*
X0153645Y0050833D03*
X0153645Y0050733D03*
X0153645Y0050633D03*
X0153645Y0050533D03*
X0153645Y0050433D03*
X0153645Y0050333D03*
X0153645Y0050233D03*
X0153645Y0050133D03*
X0153645Y0050033D03*
X0153645Y0049933D03*
X0153645Y0049833D03*
X0153645Y0049733D03*
X0153645Y0049633D03*
X0153645Y0049533D03*
X0153645Y0049433D03*
X0153645Y0049333D03*
X0153645Y0049233D03*
X0153645Y0049133D03*
X0153645Y0049033D03*
X0153645Y0048933D03*
X0153645Y0048833D03*
X0153645Y0048733D03*
X0153645Y0048633D03*
X0153645Y0048533D03*
X0153645Y0048433D03*
X0153645Y0048333D03*
X0153645Y0048233D03*
X0153645Y0048133D03*
X0153645Y0048033D03*
X0153645Y0047933D03*
X0153645Y0047833D03*
X0153645Y0051133D03*
X0153645Y0051233D03*
X0153645Y0051333D03*
X0153645Y0051433D03*
X0153645Y0051533D03*
X0153645Y0051633D03*
X0153645Y0051733D03*
X0153645Y0051833D03*
X0153645Y0051933D03*
X0153645Y0052033D03*
X0153645Y0052133D03*
X0153645Y0052233D03*
X0153645Y0052333D03*
X0153645Y0052433D03*
X0153645Y0052533D03*
X0153645Y0052633D03*
X0153645Y0052733D03*
X0153645Y0052833D03*
X0153645Y0052933D03*
X0153645Y0053033D03*
X0153645Y0053133D03*
X0153645Y0053233D03*
X0153645Y0053333D03*
X0153645Y0053433D03*
X0153645Y0053533D03*
X0153645Y0053633D03*
X0153645Y0053733D03*
X0153645Y0053833D03*
X0153645Y0053933D03*
X0153645Y0054033D03*
X0153645Y0054133D03*
X0153645Y0054233D03*
X0153645Y0054333D03*
X0153645Y0054433D03*
X0153645Y0054533D03*
X0153645Y0054633D03*
X0153645Y0054733D03*
X0153645Y0054833D03*
X0153645Y0054933D03*
X0153645Y0055033D03*
X0153645Y0055133D03*
X0153645Y0055233D03*
X0153645Y0055333D03*
X0153645Y0055433D03*
X0153645Y0055533D03*
X0153645Y0055633D03*
X0153645Y0055733D03*
X0153645Y0055833D03*
X0153645Y0055933D03*
X0153645Y0056033D03*
X0153645Y0056133D03*
X0153645Y0056233D03*
X0153645Y0056333D03*
X0153645Y0056433D03*
X0153645Y0056533D03*
X0153645Y0056633D03*
X0153645Y0056733D03*
X0153645Y0056833D03*
X0153645Y0056933D03*
X0153645Y0057033D03*
X0153645Y0057133D03*
X0153645Y0057233D03*
X0153645Y0057333D03*
X0153645Y0057433D03*
X0153645Y0057533D03*
X0153645Y0057633D03*
X0153645Y0057733D03*
X0153645Y0057833D03*
X0153645Y0057933D03*
X0153645Y0058033D03*
X0153645Y0058133D03*
X0153645Y0058233D03*
X0153645Y0058333D03*
X0153645Y0058433D03*
X0153645Y0058533D03*
X0153645Y0058633D03*
X0153645Y0058733D03*
X0153645Y0058833D03*
X0153645Y0058933D03*
X0153645Y0059033D03*
X0153645Y0059133D03*
X0153645Y0059233D03*
X0153645Y0059333D03*
X0153645Y0059433D03*
X0153645Y0059533D03*
X0153645Y0059633D03*
X0153645Y0059733D03*
X0153645Y0059833D03*
X0153645Y0059933D03*
X0153645Y0060033D03*
X0153645Y0060133D03*
X0153645Y0060233D03*
X0153645Y0060333D03*
X0153645Y0060433D03*
X0153645Y0060533D03*
X0153645Y0060633D03*
X0153645Y0060733D03*
X0153645Y0060833D03*
X0153645Y0060933D03*
X0153645Y0061033D03*
X0153645Y0061133D03*
X0153645Y0061233D03*
X0153645Y0061333D03*
X0153645Y0061433D03*
X0153645Y0063133D03*
X0153645Y0063233D03*
X0153645Y0063333D03*
X0153645Y0063433D03*
X0153645Y0063533D03*
X0153645Y0063633D03*
X0153645Y0063733D03*
X0153645Y0063833D03*
X0153645Y0063933D03*
X0153645Y0064033D03*
X0153645Y0064133D03*
X0153645Y0064233D03*
X0153645Y0064333D03*
X0153645Y0064433D03*
X0153645Y0064533D03*
X0153645Y0064633D03*
X0153645Y0064733D03*
X0153645Y0064833D03*
X0153645Y0064933D03*
X0153645Y0065033D03*
X0153645Y0065133D03*
X0153645Y0065233D03*
X0153645Y0065333D03*
X0153645Y0065433D03*
X0153645Y0065533D03*
X0153645Y0065633D03*
X0153645Y0065733D03*
X0153645Y0065833D03*
X0153645Y0065933D03*
X0153645Y0066033D03*
X0153645Y0066133D03*
X0153645Y0066233D03*
X0153645Y0066333D03*
X0153645Y0066433D03*
X0153645Y0066533D03*
X0153645Y0066633D03*
X0153645Y0066733D03*
X0153645Y0066833D03*
X0153645Y0066933D03*
X0153545Y0067433D03*
X0153545Y0067533D03*
D156*
X0121945Y0049733D03*
X0140145Y0047833D03*
X0098445Y0062833D03*
X0089345Y0073133D03*
X0083345Y0076333D03*
X0074345Y0082733D03*
X0074245Y0082833D03*
X0065545Y0084233D03*
D157*
X0078195Y0084733D03*
X0096195Y0069933D03*
X0080395Y0061433D03*
X0073595Y0060433D03*
X0104195Y0060633D03*
X0121495Y0061733D03*
X0129395Y0055333D03*
X0127395Y0047833D03*
X0143595Y0061433D03*
X0150795Y0070333D03*
D158*
X0143845Y0061333D03*
X0135845Y0061333D03*
X0129145Y0061633D03*
X0121245Y0061633D03*
X0129645Y0055233D03*
X0135545Y0056233D03*
X0112845Y0049533D03*
X0110145Y0047833D03*
X0104345Y0060533D03*
X0098245Y0063233D03*
X0095645Y0061533D03*
X0088145Y0061333D03*
X0073745Y0060333D03*
X0091145Y0071733D03*
X0087445Y0076033D03*
X0077945Y0085133D03*
D159*
X0074195Y0082933D03*
X0065695Y0084033D03*
X0065595Y0084133D03*
X0083195Y0076433D03*
X0087895Y0073833D03*
X0089195Y0073233D03*
X0084095Y0063033D03*
X0067995Y0062633D03*
X0084495Y0047833D03*
X0127095Y0048233D03*
X0150295Y0070033D03*
D160*
X0150245Y0069633D03*
X0139945Y0047933D03*
X0098545Y0062533D03*
X0082945Y0068833D03*
X0086745Y0074733D03*
X0073345Y0084133D03*
X0073245Y0084233D03*
X0066945Y0082333D03*
X0066845Y0082433D03*
X0069245Y0080433D03*
X0068545Y0062133D03*
D161*
X0073195Y0060833D03*
X0087495Y0061533D03*
X0079695Y0069633D03*
X0073595Y0073033D03*
X0068395Y0078833D03*
X0064495Y0085133D03*
X0064395Y0085333D03*
X0078795Y0083833D03*
X0094595Y0070633D03*
X0121195Y0050133D03*
X0127295Y0047933D03*
X0112095Y0049233D03*
X0110595Y0048033D03*
X0143195Y0061533D03*
D162*
X0119395Y0047933D03*
X0101195Y0068133D03*
X0100895Y0068233D03*
X0113195Y0070133D03*
X0113195Y0070233D03*
X0090395Y0074733D03*
X0085495Y0078933D03*
X0082695Y0081733D03*
X0082595Y0081833D03*
X0075895Y0087533D03*
X0064795Y0080333D03*
X0074995Y0062933D03*
D163*
X0067345Y0063133D03*
X0090645Y0072133D03*
X0095245Y0070333D03*
X0098345Y0063133D03*
X0101945Y0061533D03*
X0121045Y0050233D03*
X0112345Y0049333D03*
X0110445Y0047933D03*
X0078545Y0084233D03*
D164*
X0098495Y0069033D03*
X0103395Y0067533D03*
X0104795Y0068633D03*
X0104795Y0068733D03*
X0104795Y0068833D03*
X0104795Y0068933D03*
X0104795Y0069033D03*
X0104795Y0069133D03*
X0104795Y0069233D03*
X0104795Y0069333D03*
X0104795Y0069433D03*
X0104795Y0069533D03*
X0104795Y0069633D03*
X0104795Y0069733D03*
X0104795Y0069833D03*
X0104795Y0069933D03*
X0104795Y0070033D03*
X0104795Y0070133D03*
X0104795Y0070233D03*
X0104795Y0070333D03*
X0104795Y0065933D03*
X0104795Y0065833D03*
X0104795Y0065733D03*
X0104795Y0065633D03*
X0104795Y0065533D03*
X0104795Y0065433D03*
X0104795Y0065333D03*
X0104795Y0065233D03*
X0104795Y0065133D03*
X0104795Y0065033D03*
X0104795Y0064933D03*
X0104795Y0064833D03*
X0104795Y0064733D03*
X0104795Y0064633D03*
X0104795Y0064533D03*
X0104795Y0064433D03*
X0104795Y0064333D03*
X0104795Y0064233D03*
X0104795Y0064133D03*
X0104795Y0064033D03*
X0104795Y0063933D03*
X0104795Y0063833D03*
X0104795Y0063733D03*
X0104795Y0063633D03*
X0104795Y0063533D03*
X0104795Y0063433D03*
X0104795Y0063333D03*
X0104795Y0063233D03*
X0104795Y0063133D03*
X0104795Y0063033D03*
X0104795Y0062933D03*
X0104795Y0062833D03*
X0104795Y0062733D03*
X0104795Y0062633D03*
X0104795Y0062533D03*
X0104795Y0062433D03*
X0104795Y0062333D03*
X0104795Y0062233D03*
X0104795Y0062133D03*
X0104795Y0062033D03*
X0104795Y0061933D03*
X0104795Y0061833D03*
X0104795Y0061733D03*
X0104795Y0061633D03*
X0104795Y0061533D03*
X0104795Y0061433D03*
X0104795Y0060033D03*
X0104795Y0059933D03*
X0104795Y0059833D03*
X0104795Y0059733D03*
X0104795Y0059633D03*
X0104795Y0059533D03*
X0104795Y0059433D03*
X0104795Y0059333D03*
X0104795Y0059233D03*
X0104795Y0059133D03*
X0104795Y0059033D03*
X0104795Y0058933D03*
X0104795Y0058833D03*
X0104795Y0058733D03*
X0104795Y0058633D03*
X0104795Y0058533D03*
X0104795Y0058433D03*
X0104795Y0058333D03*
X0104795Y0058233D03*
X0104795Y0058133D03*
X0104795Y0058033D03*
X0104795Y0057933D03*
X0104795Y0057833D03*
X0104795Y0057733D03*
X0104795Y0057633D03*
X0104795Y0057533D03*
X0104795Y0057433D03*
X0104795Y0057333D03*
X0104795Y0057233D03*
X0104795Y0057133D03*
X0104795Y0057033D03*
X0104795Y0056933D03*
X0104795Y0056833D03*
X0104795Y0056733D03*
X0104795Y0056633D03*
X0104795Y0056533D03*
X0104795Y0056433D03*
X0104795Y0056333D03*
X0104795Y0056233D03*
X0104795Y0056133D03*
X0104795Y0056033D03*
X0104795Y0055933D03*
X0104795Y0055833D03*
X0104795Y0055733D03*
X0104795Y0055633D03*
X0104795Y0055533D03*
X0104795Y0055433D03*
X0104795Y0055333D03*
X0104795Y0055233D03*
X0104795Y0055133D03*
X0104795Y0055033D03*
X0104795Y0054933D03*
X0104795Y0054833D03*
X0104795Y0054733D03*
X0104795Y0054633D03*
X0104795Y0054533D03*
X0104795Y0054433D03*
X0104795Y0054333D03*
X0104795Y0054233D03*
X0104795Y0054133D03*
X0104795Y0054033D03*
X0104795Y0053933D03*
X0104795Y0053833D03*
X0104795Y0053733D03*
X0104795Y0053633D03*
X0104795Y0053533D03*
X0104795Y0053433D03*
X0104795Y0053333D03*
X0104795Y0053233D03*
X0104795Y0053133D03*
X0104795Y0053033D03*
X0104795Y0052933D03*
X0104795Y0052833D03*
X0104795Y0052733D03*
X0104795Y0052633D03*
X0104795Y0052533D03*
X0104795Y0052433D03*
X0104795Y0052333D03*
X0104795Y0052233D03*
X0104795Y0052133D03*
X0104795Y0052033D03*
X0104795Y0051933D03*
X0104795Y0051833D03*
X0104795Y0051733D03*
X0104795Y0051633D03*
X0104795Y0051533D03*
X0104795Y0051433D03*
X0104795Y0051333D03*
X0104795Y0051233D03*
X0104795Y0051133D03*
X0104795Y0051033D03*
X0104795Y0050933D03*
X0104795Y0050833D03*
X0104795Y0050733D03*
X0104795Y0050633D03*
X0104795Y0050533D03*
X0104795Y0050433D03*
X0104795Y0050333D03*
X0104795Y0050233D03*
X0104795Y0050133D03*
X0104795Y0050033D03*
X0104795Y0049933D03*
X0104795Y0049833D03*
X0104795Y0049733D03*
X0104795Y0049633D03*
X0104795Y0049533D03*
X0104795Y0049433D03*
X0104795Y0049333D03*
X0104795Y0049233D03*
X0104795Y0049133D03*
X0104795Y0049033D03*
X0104795Y0048933D03*
X0104795Y0048833D03*
X0104795Y0048733D03*
X0104795Y0048633D03*
X0104795Y0048533D03*
X0104795Y0048433D03*
X0104795Y0048333D03*
X0104795Y0048233D03*
X0104795Y0048133D03*
X0104795Y0048033D03*
X0104795Y0047933D03*
X0113695Y0050733D03*
X0113695Y0050833D03*
X0113795Y0051033D03*
X0113795Y0051133D03*
X0113795Y0051233D03*
X0113895Y0051533D03*
X0113895Y0051633D03*
X0113895Y0051733D03*
X0113895Y0051833D03*
X0113995Y0052433D03*
X0113995Y0052533D03*
X0113995Y0052633D03*
X0113995Y0052733D03*
X0113995Y0052833D03*
X0113995Y0052933D03*
X0113995Y0053033D03*
X0113995Y0053133D03*
X0113995Y0053233D03*
X0113995Y0053333D03*
X0113995Y0053433D03*
X0113995Y0053533D03*
X0113995Y0053633D03*
X0113995Y0053733D03*
X0113995Y0053833D03*
X0113995Y0053933D03*
X0113995Y0054033D03*
X0113995Y0054133D03*
X0113995Y0054233D03*
X0113995Y0054333D03*
X0113995Y0054433D03*
X0113995Y0054533D03*
X0113995Y0054633D03*
X0113995Y0054733D03*
X0113995Y0054833D03*
X0113995Y0054933D03*
X0113995Y0055033D03*
X0113995Y0055133D03*
X0113995Y0055233D03*
X0113995Y0055333D03*
X0113995Y0055433D03*
X0113995Y0055533D03*
X0113995Y0055633D03*
X0113995Y0055733D03*
X0113995Y0055833D03*
X0113995Y0055933D03*
X0113995Y0056033D03*
X0113995Y0056133D03*
X0113995Y0056233D03*
X0113995Y0056333D03*
X0113995Y0056433D03*
X0113995Y0056533D03*
X0113995Y0056633D03*
X0113995Y0056733D03*
X0113995Y0056833D03*
X0113995Y0056933D03*
X0113995Y0057033D03*
X0113995Y0057133D03*
X0113995Y0057233D03*
X0113995Y0057333D03*
X0113995Y0057433D03*
X0113995Y0057533D03*
X0113995Y0057633D03*
X0113995Y0057733D03*
X0113995Y0057833D03*
X0113995Y0057933D03*
X0113995Y0058033D03*
X0113995Y0058133D03*
X0113995Y0058233D03*
X0113995Y0058333D03*
X0113995Y0058433D03*
X0113995Y0058533D03*
X0113995Y0058633D03*
X0113995Y0058733D03*
X0113995Y0058833D03*
X0113995Y0058933D03*
X0113995Y0059033D03*
X0113995Y0059133D03*
X0113995Y0059233D03*
X0113995Y0059333D03*
X0113995Y0059433D03*
X0113995Y0059533D03*
X0113995Y0059633D03*
X0113995Y0059733D03*
X0113995Y0059833D03*
X0113995Y0059933D03*
X0113995Y0060033D03*
X0113995Y0060133D03*
X0113995Y0060233D03*
X0113995Y0060333D03*
X0113995Y0060433D03*
X0113995Y0060533D03*
X0113995Y0060633D03*
X0113995Y0060733D03*
X0113995Y0060833D03*
X0113995Y0060933D03*
X0113995Y0061033D03*
X0113995Y0061133D03*
X0113995Y0061233D03*
X0113995Y0061333D03*
X0113995Y0061433D03*
X0113995Y0061533D03*
X0113995Y0061633D03*
X0113995Y0061733D03*
X0113995Y0061833D03*
X0113995Y0061933D03*
X0113995Y0062033D03*
X0113995Y0062133D03*
X0113995Y0062233D03*
X0113995Y0062333D03*
X0113995Y0062433D03*
X0113995Y0062533D03*
X0113995Y0062633D03*
X0113995Y0062733D03*
X0113995Y0062833D03*
X0113995Y0062933D03*
X0113995Y0063033D03*
X0113995Y0063133D03*
X0113995Y0063233D03*
X0113995Y0063333D03*
X0113995Y0063433D03*
X0113995Y0063533D03*
X0113995Y0063633D03*
X0113995Y0063733D03*
X0113995Y0063833D03*
X0113995Y0063933D03*
X0113995Y0064033D03*
X0113995Y0064133D03*
X0113995Y0064233D03*
X0113995Y0064333D03*
X0113995Y0064433D03*
X0113995Y0064533D03*
X0113995Y0064633D03*
X0113995Y0064733D03*
X0113995Y0064833D03*
X0113995Y0064933D03*
X0113995Y0065033D03*
X0113995Y0065133D03*
X0117795Y0064933D03*
X0117795Y0066933D03*
X0120395Y0060533D03*
X0120295Y0060333D03*
X0120295Y0060233D03*
X0120295Y0060133D03*
X0120195Y0059933D03*
X0120195Y0059833D03*
X0120195Y0059733D03*
X0130395Y0054233D03*
X0130395Y0054133D03*
X0130495Y0053933D03*
X0130495Y0053833D03*
X0130495Y0053733D03*
X0130495Y0053633D03*
X0134895Y0056933D03*
X0134895Y0057033D03*
X0134795Y0057133D03*
X0134795Y0057233D03*
X0134795Y0057333D03*
X0134795Y0057433D03*
X0134795Y0057533D03*
X0134795Y0058433D03*
X0134795Y0058533D03*
X0134795Y0058633D03*
X0134795Y0058733D03*
X0134795Y0058833D03*
X0134795Y0058933D03*
X0134895Y0059533D03*
X0134895Y0059633D03*
X0134895Y0059733D03*
X0134995Y0059933D03*
X0134995Y0060033D03*
X0134995Y0060133D03*
X0135095Y0060333D03*
X0144795Y0060133D03*
X0144795Y0060033D03*
X0144895Y0059933D03*
X0144895Y0059833D03*
X0144995Y0059633D03*
X0144995Y0059533D03*
X0145095Y0059133D03*
X0145295Y0057633D03*
X0145295Y0057533D03*
X0144995Y0051233D03*
X0144895Y0050933D03*
X0144895Y0050833D03*
X0144795Y0050733D03*
X0144795Y0050633D03*
X0144695Y0050433D03*
X0130495Y0050633D03*
X0130495Y0050733D03*
X0130495Y0050833D03*
X0130495Y0050933D03*
X0130395Y0050533D03*
X0130395Y0050433D03*
X0153595Y0067033D03*
X0153595Y0067133D03*
X0153595Y0067233D03*
X0153595Y0067333D03*
X0153495Y0067633D03*
X0153495Y0067733D03*
X0153495Y0067833D03*
X0153395Y0068033D03*
X0094595Y0060233D03*
X0094495Y0060033D03*
X0094495Y0059933D03*
X0094395Y0059733D03*
X0094395Y0059633D03*
X0094295Y0059333D03*
X0094295Y0059233D03*
X0094295Y0059133D03*
X0094295Y0059033D03*
X0089495Y0058833D03*
X0089395Y0059333D03*
X0089295Y0059633D03*
X0089295Y0059733D03*
X0089195Y0059933D03*
X0089195Y0060033D03*
X0089095Y0060233D03*
X0089595Y0058033D03*
X0089695Y0056433D03*
X0089695Y0056333D03*
X0089695Y0056233D03*
X0089695Y0054533D03*
X0089395Y0051533D03*
X0089295Y0051133D03*
X0089295Y0051033D03*
X0089195Y0050833D03*
X0089195Y0050733D03*
X0089095Y0050633D03*
X0089095Y0050533D03*
X0079195Y0057033D03*
X0079195Y0057133D03*
X0079095Y0057533D03*
X0079095Y0057633D03*
X0079095Y0057733D03*
X0079095Y0057833D03*
X0079095Y0057933D03*
X0079095Y0058033D03*
X0079095Y0058133D03*
X0079095Y0058233D03*
X0079095Y0058333D03*
X0079195Y0059233D03*
X0079195Y0059333D03*
X0079195Y0059433D03*
X0079295Y0059833D03*
X0079295Y0059933D03*
X0079295Y0060033D03*
X0079395Y0060133D03*
X0079395Y0060233D03*
D165*
X0090295Y0068933D03*
X0082395Y0077233D03*
X0073395Y0084033D03*
X0066795Y0082533D03*
X0066695Y0082633D03*
X0064595Y0091033D03*
X0084295Y0047933D03*
X0151395Y0061533D03*
X0150195Y0069733D03*
D166*
X0151895Y0062133D03*
X0139795Y0062733D03*
X0139795Y0048033D03*
X0126695Y0048733D03*
X0098695Y0062233D03*
X0090395Y0068733D03*
X0087995Y0067433D03*
X0085695Y0075533D03*
X0085595Y0075633D03*
X0081495Y0078133D03*
X0079595Y0079433D03*
X0072295Y0085633D03*
X0072195Y0085733D03*
X0072195Y0085833D03*
X0068395Y0080733D03*
X0067995Y0081033D03*
X0067895Y0081133D03*
X0065195Y0090733D03*
X0068995Y0061633D03*
D167*
X0072945Y0061033D03*
X0080645Y0073633D03*
X0079145Y0083033D03*
X0079145Y0083133D03*
X0064245Y0087033D03*
X0110845Y0048233D03*
X0123345Y0049533D03*
X0127245Y0048033D03*
D168*
X0119445Y0048033D03*
X0113245Y0069933D03*
X0113245Y0070033D03*
X0092445Y0073133D03*
X0092345Y0073233D03*
X0090445Y0074633D03*
X0085545Y0078833D03*
X0082845Y0081533D03*
X0082745Y0081633D03*
X0075945Y0087433D03*
X0072745Y0089233D03*
X0074945Y0062833D03*
D169*
X0074545Y0073533D03*
X0080445Y0072933D03*
X0081645Y0078033D03*
X0079745Y0079333D03*
X0085845Y0075433D03*
X0072445Y0085433D03*
X0072345Y0085533D03*
X0067845Y0081233D03*
X0067745Y0081333D03*
X0084145Y0048033D03*
X0151845Y0062033D03*
D170*
X0152245Y0062533D03*
X0139645Y0048133D03*
X0126545Y0048933D03*
X0095545Y0067133D03*
X0080845Y0078833D03*
X0078845Y0080233D03*
X0068945Y0080033D03*
D171*
X0072345Y0078633D03*
X0074645Y0082333D03*
X0074545Y0082433D03*
X0064445Y0087333D03*
X0083645Y0076033D03*
X0089545Y0072933D03*
X0067745Y0062833D03*
X0111145Y0048733D03*
X0121745Y0049833D03*
X0127145Y0048133D03*
D172*
X0119495Y0048133D03*
X0119495Y0048233D03*
X0130295Y0061433D03*
X0113295Y0069633D03*
X0113295Y0069733D03*
X0113295Y0069833D03*
X0090595Y0074433D03*
X0090495Y0074533D03*
X0085595Y0078733D03*
X0082995Y0081233D03*
X0082895Y0081433D03*
X0076095Y0087333D03*
X0072895Y0089133D03*
X0087795Y0066833D03*
X0074895Y0062733D03*
D173*
X0082495Y0068533D03*
X0094095Y0070833D03*
X0072595Y0078833D03*
X0078895Y0083633D03*
X0064595Y0085033D03*
X0064195Y0086633D03*
X0110695Y0048133D03*
X0122995Y0049633D03*
X0150595Y0070233D03*
D174*
X0152295Y0062633D03*
X0083995Y0048133D03*
X0078795Y0080333D03*
X0078695Y0080433D03*
X0069095Y0079833D03*
X0068995Y0079933D03*
D175*
X0069795Y0079133D03*
X0069895Y0079033D03*
X0078095Y0081133D03*
X0095595Y0067033D03*
X0098895Y0061733D03*
X0083895Y0048233D03*
X0126395Y0049133D03*
X0139495Y0048233D03*
X0126195Y0055733D03*
D176*
X0139795Y0062133D03*
X0139395Y0048333D03*
X0083795Y0048333D03*
X0084195Y0062133D03*
X0077195Y0082033D03*
D177*
X0073895Y0083333D03*
X0070595Y0087333D03*
X0066095Y0083433D03*
X0065995Y0083533D03*
X0082895Y0076733D03*
X0087495Y0074133D03*
X0088895Y0073433D03*
X0082795Y0068733D03*
X0124795Y0063133D03*
X0126995Y0048333D03*
D178*
X0119545Y0048333D03*
X0134445Y0049633D03*
X0101545Y0068033D03*
X0100545Y0068333D03*
X0092545Y0073033D03*
X0085745Y0078533D03*
X0085645Y0078633D03*
X0083045Y0081133D03*
X0082945Y0081333D03*
X0076145Y0087233D03*
X0073045Y0089033D03*
X0113345Y0069533D03*
X0113345Y0069433D03*
X0074845Y0062633D03*
X0078745Y0049633D03*
D179*
X0103495Y0061233D03*
X0093495Y0071133D03*
X0093295Y0071233D03*
X0089995Y0072633D03*
X0072495Y0078733D03*
X0079195Y0082833D03*
X0079195Y0082933D03*
X0110895Y0048333D03*
D180*
X0125545Y0062433D03*
X0139845Y0061833D03*
X0139345Y0048433D03*
X0083645Y0048433D03*
X0071845Y0077233D03*
X0071745Y0077333D03*
X0066545Y0089733D03*
D181*
X0066545Y0082833D03*
X0066645Y0082733D03*
X0080545Y0073133D03*
X0086845Y0074633D03*
X0094045Y0066533D03*
X0068445Y0062233D03*
X0126945Y0048433D03*
X0139745Y0062933D03*
X0150145Y0069833D03*
D182*
X0117795Y0064633D03*
X0113395Y0069133D03*
X0113395Y0069233D03*
X0113395Y0069333D03*
X0101895Y0067933D03*
X0092595Y0072933D03*
X0090795Y0074233D03*
X0090695Y0074333D03*
X0085795Y0078433D03*
X0083195Y0080933D03*
X0083095Y0081033D03*
X0074795Y0062533D03*
X0119595Y0048433D03*
D183*
X0123695Y0049433D03*
X0136495Y0049333D03*
X0110995Y0048433D03*
X0087995Y0067133D03*
X0089795Y0072733D03*
X0092895Y0071433D03*
X0080695Y0073533D03*
X0079295Y0082533D03*
X0079295Y0082633D03*
X0064295Y0087133D03*
X0067595Y0062933D03*
X0072795Y0061133D03*
D184*
X0084195Y0061633D03*
X0084195Y0061733D03*
X0079995Y0072433D03*
X0072295Y0076833D03*
X0072195Y0076933D03*
X0066695Y0089433D03*
X0113995Y0065533D03*
X0125395Y0062133D03*
X0124395Y0056633D03*
X0139295Y0048533D03*
X0083595Y0048533D03*
D185*
X0068645Y0062033D03*
X0084345Y0069333D03*
X0074345Y0073433D03*
X0086445Y0074933D03*
X0073145Y0084433D03*
X0073045Y0084533D03*
X0067045Y0082133D03*
X0064845Y0090933D03*
X0126845Y0048533D03*
X0150345Y0069433D03*
D186*
X0113445Y0069033D03*
X0113445Y0068933D03*
X0105345Y0068433D03*
X0100245Y0068433D03*
X0090845Y0074133D03*
X0085945Y0078233D03*
X0085845Y0078333D03*
X0083345Y0080733D03*
X0083245Y0080833D03*
X0076345Y0087033D03*
X0076245Y0087133D03*
X0073145Y0088933D03*
X0074745Y0062433D03*
X0074745Y0062333D03*
X0065645Y0061533D03*
X0119645Y0048533D03*
D187*
X0111545Y0049033D03*
X0111045Y0048533D03*
X0103345Y0061333D03*
X0090045Y0069333D03*
X0092645Y0071533D03*
X0079445Y0082233D03*
X0079445Y0082333D03*
X0079345Y0082433D03*
X0074745Y0082133D03*
X0064345Y0087233D03*
X0073845Y0073133D03*
X0080845Y0049333D03*
X0150445Y0070133D03*
D188*
X0139845Y0061633D03*
X0125345Y0061933D03*
X0125345Y0062033D03*
X0139345Y0048633D03*
X0095745Y0066833D03*
X0072545Y0076633D03*
X0072445Y0076733D03*
X0066745Y0089333D03*
D189*
X0072695Y0085033D03*
X0072795Y0084933D03*
X0067495Y0081633D03*
X0067395Y0081733D03*
X0079995Y0079033D03*
X0080095Y0078933D03*
X0081795Y0077833D03*
X0081895Y0077733D03*
X0086095Y0075233D03*
X0068795Y0061833D03*
X0126795Y0048633D03*
X0150495Y0068933D03*
X0150495Y0069033D03*
D190*
X0113495Y0068833D03*
X0113495Y0068733D03*
X0113495Y0068633D03*
X0092695Y0072833D03*
X0085995Y0078133D03*
X0083395Y0080633D03*
X0073295Y0088833D03*
X0074695Y0062233D03*
X0119695Y0048633D03*
D191*
X0111095Y0048633D03*
X0098395Y0062933D03*
X0092495Y0071633D03*
X0089695Y0072833D03*
X0083695Y0075933D03*
X0079495Y0082133D03*
X0074695Y0082233D03*
D192*
X0072695Y0076533D03*
X0066895Y0089133D03*
X0066795Y0089233D03*
X0125295Y0061833D03*
X0124495Y0056533D03*
X0139395Y0048733D03*
X0140995Y0054833D03*
X0083695Y0048633D03*
D193*
X0074645Y0062133D03*
X0092745Y0072733D03*
X0092845Y0072633D03*
X0091045Y0073933D03*
X0090945Y0074033D03*
X0086045Y0078033D03*
X0083545Y0080433D03*
X0083445Y0080533D03*
X0076545Y0086833D03*
X0076445Y0086933D03*
X0099945Y0068533D03*
X0102245Y0067833D03*
X0113545Y0068333D03*
X0113545Y0068433D03*
X0113545Y0068533D03*
X0147545Y0068833D03*
X0119745Y0048733D03*
D194*
X0139445Y0048833D03*
X0095545Y0066733D03*
X0085345Y0054833D03*
X0083745Y0048733D03*
X0072945Y0076333D03*
X0072845Y0076433D03*
X0066945Y0088933D03*
X0066945Y0089033D03*
D195*
X0065345Y0090633D03*
X0079345Y0079733D03*
X0079445Y0079633D03*
X0081245Y0078433D03*
X0074645Y0073633D03*
X0098745Y0062133D03*
X0126645Y0048833D03*
D196*
X0119795Y0048833D03*
X0117795Y0067133D03*
X0113595Y0068133D03*
X0113595Y0068233D03*
X0091095Y0073833D03*
X0086195Y0077833D03*
X0086095Y0077933D03*
X0083695Y0080133D03*
X0083595Y0080333D03*
X0073595Y0088533D03*
X0073495Y0088633D03*
X0073395Y0088733D03*
X0074595Y0062033D03*
D197*
X0082695Y0068633D03*
X0090095Y0069233D03*
X0095195Y0067633D03*
X0065195Y0084733D03*
X0063895Y0091333D03*
X0111195Y0048833D03*
X0111295Y0048933D03*
D198*
X0124595Y0056433D03*
X0139495Y0048933D03*
X0107095Y0066633D03*
X0083795Y0048833D03*
X0073195Y0076133D03*
X0073095Y0076233D03*
X0066995Y0088833D03*
D199*
X0073645Y0088433D03*
X0073745Y0088333D03*
X0076645Y0086733D03*
X0083645Y0080233D03*
X0083745Y0080033D03*
X0083745Y0079933D03*
X0083845Y0079833D03*
X0083845Y0079733D03*
X0083945Y0079533D03*
X0091145Y0073733D03*
X0092945Y0072533D03*
X0099645Y0068633D03*
X0113645Y0068033D03*
X0113645Y0067933D03*
X0113645Y0067833D03*
X0119845Y0048933D03*
X0074545Y0061933D03*
D200*
X0085245Y0054933D03*
X0083845Y0049033D03*
X0083845Y0048933D03*
X0086745Y0069433D03*
X0073445Y0075933D03*
X0073345Y0076033D03*
X0067045Y0088733D03*
X0124645Y0056333D03*
X0140845Y0054933D03*
X0139545Y0049033D03*
D201*
X0126495Y0049033D03*
X0125395Y0062833D03*
X0152395Y0062733D03*
X0090495Y0068533D03*
X0080295Y0072733D03*
X0069395Y0079533D03*
X0069295Y0079633D03*
X0078495Y0080633D03*
X0078595Y0080533D03*
X0065695Y0090433D03*
D202*
X0073795Y0088233D03*
X0073895Y0088133D03*
X0073895Y0088033D03*
X0073995Y0087933D03*
X0076695Y0086633D03*
X0083895Y0079633D03*
X0083995Y0079433D03*
X0083995Y0079333D03*
X0084095Y0079233D03*
X0084095Y0079133D03*
X0084195Y0078933D03*
X0086295Y0077733D03*
X0092995Y0072433D03*
X0102595Y0067733D03*
X0113695Y0067733D03*
X0113695Y0067633D03*
X0117795Y0064733D03*
X0119895Y0049133D03*
X0119895Y0049033D03*
X0151095Y0070433D03*
X0074495Y0061833D03*
X0074495Y0061733D03*
D203*
X0090595Y0068133D03*
X0073595Y0075833D03*
X0067095Y0088633D03*
X0124695Y0056233D03*
X0139595Y0049133D03*
X0083895Y0049133D03*
D204*
X0098395Y0063033D03*
X0093695Y0071033D03*
X0090095Y0072533D03*
X0079095Y0083233D03*
X0078995Y0083433D03*
X0064795Y0084833D03*
X0064195Y0086833D03*
X0064195Y0086933D03*
X0121395Y0050033D03*
X0111795Y0049133D03*
D205*
X0139645Y0049233D03*
X0140745Y0055033D03*
X0085145Y0055033D03*
X0083945Y0049233D03*
X0079845Y0072333D03*
X0073845Y0075633D03*
X0073745Y0075733D03*
X0067245Y0088333D03*
X0067245Y0088433D03*
X0067145Y0088533D03*
D206*
X0077695Y0081533D03*
X0077795Y0081433D03*
X0087995Y0067633D03*
X0090495Y0068433D03*
X0114495Y0065433D03*
X0125495Y0062733D03*
X0126295Y0049233D03*
D207*
X0119945Y0049233D03*
X0134845Y0049533D03*
X0113745Y0067333D03*
X0113745Y0067433D03*
X0113745Y0067533D03*
X0105045Y0068533D03*
X0099345Y0068733D03*
X0086345Y0077633D03*
X0084145Y0079033D03*
X0076845Y0086533D03*
X0074345Y0087333D03*
X0074245Y0087533D03*
X0074145Y0087633D03*
X0074145Y0087733D03*
X0074045Y0087833D03*
X0074445Y0061633D03*
D208*
X0073395Y0060633D03*
X0087995Y0067033D03*
X0095495Y0070233D03*
X0105195Y0067133D03*
X0103995Y0060833D03*
X0087795Y0049333D03*
X0143395Y0049333D03*
X0078495Y0084333D03*
D209*
X0078095Y0084933D03*
X0077995Y0085033D03*
X0087495Y0075933D03*
X0079395Y0069533D03*
X0096695Y0069733D03*
X0079895Y0056233D03*
X0088095Y0049433D03*
X0124195Y0063333D03*
X0129495Y0049333D03*
X0143795Y0049433D03*
D210*
X0124145Y0049333D03*
X0106045Y0066933D03*
X0089445Y0073033D03*
X0083545Y0076133D03*
X0080645Y0073433D03*
X0074445Y0082533D03*
X0065345Y0084533D03*
X0065245Y0084633D03*
D211*
X0074295Y0087433D03*
X0074395Y0087233D03*
X0074495Y0087133D03*
X0074495Y0087033D03*
X0074595Y0086933D03*
X0074595Y0086833D03*
X0074695Y0086733D03*
X0076895Y0086433D03*
X0086395Y0077533D03*
X0086495Y0077433D03*
X0093095Y0072333D03*
X0099095Y0068833D03*
X0098195Y0063333D03*
X0113795Y0067033D03*
X0113795Y0067133D03*
X0113795Y0067233D03*
X0119995Y0049333D03*
X0079195Y0049533D03*
X0074395Y0061533D03*
X0073495Y0072933D03*
D212*
X0087245Y0076333D03*
X0087345Y0076233D03*
X0097145Y0069533D03*
X0104245Y0067333D03*
X0095545Y0061433D03*
X0088345Y0061233D03*
X0080045Y0061233D03*
X0073845Y0060233D03*
X0079745Y0049433D03*
X0104445Y0060433D03*
X0121145Y0061533D03*
X0112945Y0049633D03*
X0129645Y0049433D03*
X0135445Y0049433D03*
X0077845Y0085233D03*
D213*
X0076945Y0086333D03*
X0074945Y0086233D03*
X0074945Y0086133D03*
X0074845Y0086333D03*
X0074845Y0086433D03*
X0074745Y0086533D03*
X0074745Y0086633D03*
X0086545Y0077333D03*
X0093145Y0072233D03*
X0103045Y0067633D03*
X0113845Y0066933D03*
X0113845Y0066833D03*
X0117745Y0067033D03*
X0129745Y0061533D03*
X0120045Y0049433D03*
X0078945Y0069433D03*
X0074345Y0061433D03*
D214*
X0087945Y0061433D03*
X0095945Y0070033D03*
X0090945Y0071933D03*
X0062945Y0091633D03*
X0112545Y0049433D03*
D215*
X0120595Y0050533D03*
X0143995Y0049533D03*
X0143995Y0061233D03*
X0096895Y0069633D03*
X0087395Y0076133D03*
X0080195Y0061333D03*
X0088295Y0049533D03*
D216*
X0088395Y0049633D03*
X0079695Y0056333D03*
X0088495Y0061133D03*
X0095395Y0061333D03*
X0113095Y0049733D03*
X0129795Y0049533D03*
X0129895Y0055033D03*
X0129795Y0055133D03*
X0135395Y0056333D03*
X0135695Y0061233D03*
X0144095Y0061133D03*
X0152895Y0068733D03*
X0120995Y0061433D03*
X0144095Y0049633D03*
X0077795Y0085333D03*
X0077695Y0085433D03*
D217*
X0077095Y0086233D03*
X0086595Y0077233D03*
X0082395Y0068433D03*
X0074295Y0061333D03*
X0098795Y0068933D03*
X0113895Y0066733D03*
X0113895Y0066633D03*
X0117795Y0064833D03*
X0120095Y0049533D03*
D218*
X0113295Y0049933D03*
X0113195Y0049833D03*
X0120795Y0061233D03*
X0120895Y0061333D03*
X0117795Y0065133D03*
X0117795Y0066733D03*
X0135495Y0061033D03*
X0135595Y0061133D03*
X0144295Y0060933D03*
X0129995Y0054933D03*
X0129895Y0049633D03*
X0144295Y0049833D03*
X0144395Y0049933D03*
X0152995Y0068633D03*
X0097695Y0069333D03*
X0093595Y0071733D03*
X0087095Y0076533D03*
X0077595Y0085633D03*
X0079795Y0061033D03*
X0079595Y0056433D03*
X0088695Y0060933D03*
X0095195Y0061133D03*
D219*
X0095245Y0061233D03*
X0088545Y0061033D03*
X0079945Y0061133D03*
X0073945Y0060133D03*
X0088545Y0049733D03*
X0104545Y0060333D03*
X0117745Y0066633D03*
X0135245Y0056433D03*
X0144245Y0061033D03*
X0144245Y0049733D03*
X0120445Y0050633D03*
X0097445Y0069433D03*
X0087145Y0076433D03*
X0077645Y0085533D03*
D220*
X0077395Y0085833D03*
X0086895Y0076833D03*
X0093495Y0071833D03*
X0094995Y0060933D03*
X0094895Y0060833D03*
X0094795Y0060633D03*
X0088895Y0060633D03*
X0088795Y0060733D03*
X0079695Y0060833D03*
X0079595Y0060733D03*
X0079395Y0056633D03*
X0088795Y0050033D03*
X0088895Y0050133D03*
X0113395Y0050133D03*
X0113495Y0050233D03*
X0120295Y0050733D03*
X0130095Y0049833D03*
X0130195Y0049933D03*
X0130195Y0050033D03*
X0130295Y0054433D03*
X0130195Y0054633D03*
X0134995Y0056733D03*
X0135095Y0056633D03*
X0135295Y0060733D03*
X0144495Y0060733D03*
X0144595Y0060533D03*
X0153195Y0068433D03*
X0153295Y0068333D03*
X0144595Y0050233D03*
X0144495Y0050133D03*
X0120595Y0060933D03*
X0117795Y0065033D03*
X0117795Y0066833D03*
D221*
X0124545Y0063233D03*
X0121545Y0049933D03*
X0093045Y0071333D03*
X0079245Y0082733D03*
X0063645Y0091433D03*
D222*
X0062345Y0091733D03*
X0077345Y0085933D03*
X0086845Y0076933D03*
X0093445Y0071933D03*
X0098245Y0069133D03*
X0094845Y0060733D03*
X0094745Y0060533D03*
X0094645Y0060433D03*
X0094645Y0060333D03*
X0094545Y0060133D03*
X0089145Y0060133D03*
X0089045Y0060333D03*
X0089045Y0060433D03*
X0088945Y0060533D03*
X0079545Y0060533D03*
X0079545Y0060633D03*
X0079445Y0060433D03*
X0079445Y0060333D03*
X0079245Y0056933D03*
X0079245Y0056833D03*
X0079345Y0056733D03*
X0074145Y0059933D03*
X0088945Y0050333D03*
X0088945Y0050233D03*
X0089045Y0050433D03*
X0104745Y0060133D03*
X0120345Y0060433D03*
X0120445Y0060633D03*
X0120445Y0060733D03*
X0120545Y0060833D03*
X0130245Y0054533D03*
X0130345Y0054333D03*
X0130445Y0054033D03*
X0134945Y0056833D03*
X0135045Y0060233D03*
X0135145Y0060433D03*
X0135145Y0060533D03*
X0135245Y0060633D03*
X0144545Y0060633D03*
X0144645Y0060433D03*
X0144745Y0060333D03*
X0144745Y0060233D03*
X0153445Y0067933D03*
X0153345Y0068133D03*
X0153345Y0068233D03*
X0144745Y0050533D03*
X0144645Y0050333D03*
X0130345Y0050333D03*
X0130345Y0050233D03*
X0130245Y0050133D03*
X0113745Y0050933D03*
X0113645Y0050633D03*
X0113645Y0050533D03*
X0113545Y0050433D03*
X0113545Y0050333D03*
D223*
X0120895Y0050333D03*
X0104095Y0060733D03*
X0095695Y0070133D03*
X0073495Y0060533D03*
X0071795Y0061233D03*
X0078395Y0084533D03*
X0078295Y0084633D03*
D224*
X0078145Y0084833D03*
X0091045Y0071833D03*
X0096445Y0069833D03*
X0104745Y0067233D03*
X0095845Y0061633D03*
X0120745Y0050433D03*
X0136045Y0061433D03*
X0152645Y0068833D03*
D225*
X0139795Y0062033D03*
X0141395Y0054633D03*
X0095695Y0066933D03*
X0084195Y0062033D03*
X0071295Y0077733D03*
X0071195Y0077833D03*
D226*
X0071345Y0077633D03*
X0066345Y0089933D03*
X0125645Y0062533D03*
X0124145Y0056833D03*
X0139845Y0061933D03*
X0085745Y0054633D03*
D227*
X0085545Y0054733D03*
X0090545Y0068233D03*
X0086745Y0069533D03*
X0072045Y0077033D03*
X0066645Y0089533D03*
X0125445Y0062233D03*
X0139845Y0061733D03*
X0141145Y0054733D03*
D228*
X0140645Y0055133D03*
X0124845Y0056033D03*
X0113545Y0065633D03*
X0085045Y0055133D03*
X0074245Y0075333D03*
X0074145Y0075433D03*
X0067445Y0087933D03*
X0067345Y0088133D03*
D229*
X0067395Y0088033D03*
X0067495Y0087833D03*
X0074395Y0075233D03*
X0124895Y0055933D03*
X0140595Y0055233D03*
D230*
X0140545Y0055333D03*
X0124945Y0055833D03*
X0084945Y0055233D03*
X0074645Y0075033D03*
X0074545Y0075133D03*
X0067545Y0087733D03*
D231*
X0067595Y0087633D03*
X0067595Y0087533D03*
X0067695Y0087433D03*
X0074795Y0074933D03*
X0075095Y0074733D03*
X0090595Y0068033D03*
X0084895Y0055333D03*
X0140495Y0055433D03*
D232*
X0128745Y0055433D03*
X0128445Y0061733D03*
X0139745Y0063133D03*
X0103645Y0061133D03*
X0084045Y0063133D03*
X0073045Y0060933D03*
X0070845Y0061533D03*
X0067445Y0063033D03*
X0090245Y0072433D03*
X0093945Y0070933D03*
X0079045Y0083333D03*
X0078945Y0083533D03*
X0064645Y0084933D03*
X0064145Y0086733D03*
D233*
X0074945Y0074833D03*
X0075245Y0074633D03*
X0084845Y0055433D03*
X0140445Y0055533D03*
D234*
X0127945Y0055533D03*
X0098445Y0062733D03*
X0083045Y0076633D03*
X0074045Y0083133D03*
X0073945Y0083233D03*
X0065945Y0083633D03*
D235*
X0075395Y0074533D03*
X0079695Y0072233D03*
X0084795Y0055533D03*
X0140395Y0055633D03*
D236*
X0127095Y0055633D03*
X0085995Y0075333D03*
X0081695Y0077933D03*
X0079895Y0079133D03*
X0079795Y0079233D03*
X0072595Y0085233D03*
X0072495Y0085333D03*
X0072195Y0085933D03*
X0072195Y0086033D03*
X0067695Y0081433D03*
X0083295Y0069033D03*
X0068895Y0061733D03*
D237*
X0084745Y0055633D03*
X0075845Y0074233D03*
X0075645Y0074333D03*
X0075545Y0074433D03*
X0140345Y0055733D03*
D238*
X0140295Y0055833D03*
X0084695Y0055733D03*
X0075995Y0074133D03*
D239*
X0076145Y0074033D03*
X0076445Y0073833D03*
X0084645Y0055933D03*
X0084645Y0055833D03*
X0113145Y0065733D03*
X0140245Y0056033D03*
X0140245Y0055933D03*
D240*
X0140195Y0056133D03*
X0090595Y0067933D03*
X0076595Y0073733D03*
X0076295Y0073933D03*
X0084595Y0056133D03*
X0084595Y0056033D03*
D241*
X0073995Y0075533D03*
X0067295Y0088233D03*
X0124795Y0056133D03*
D242*
X0124295Y0056733D03*
X0125495Y0062333D03*
X0084195Y0061833D03*
X0071995Y0077133D03*
X0066595Y0089633D03*
D243*
X0077345Y0081933D03*
X0077445Y0081833D03*
X0070845Y0078133D03*
X0123945Y0056933D03*
D244*
X0105745Y0067033D03*
X0101545Y0061633D03*
X0103745Y0061033D03*
X0094345Y0070733D03*
X0090345Y0072333D03*
X0078845Y0083733D03*
X0064145Y0086333D03*
X0064145Y0086433D03*
X0064145Y0086533D03*
X0063345Y0091533D03*
D245*
X0078445Y0084433D03*
X0090745Y0072033D03*
X0102245Y0061433D03*
X0071545Y0061333D03*
D246*
X0087995Y0067333D03*
X0086595Y0074833D03*
X0082295Y0077333D03*
X0082195Y0077433D03*
X0073195Y0084333D03*
X0066995Y0082233D03*
X0150295Y0069533D03*
X0151495Y0061633D03*
D247*
X0151595Y0061733D03*
X0150395Y0069233D03*
X0150395Y0069333D03*
X0124995Y0063033D03*
X0098595Y0062433D03*
X0095395Y0067333D03*
X0083995Y0069233D03*
X0080495Y0073033D03*
X0082095Y0077533D03*
X0081995Y0077633D03*
X0072995Y0084633D03*
X0072895Y0084733D03*
X0068895Y0080533D03*
X0067195Y0082033D03*
D248*
X0067245Y0081933D03*
X0067345Y0081833D03*
X0071745Y0078333D03*
X0072845Y0084833D03*
X0086245Y0075133D03*
X0086345Y0075033D03*
X0083645Y0069133D03*
X0090345Y0068833D03*
X0084145Y0062833D03*
X0068745Y0061933D03*
X0139745Y0062833D03*
X0151645Y0061833D03*
X0150445Y0069133D03*
D249*
X0152495Y0062833D03*
X0139795Y0062433D03*
X0098895Y0061833D03*
X0070095Y0078933D03*
X0069695Y0079233D03*
X0069595Y0079333D03*
X0069495Y0079433D03*
X0078295Y0080833D03*
X0065795Y0090333D03*
D250*
X0065045Y0090833D03*
X0072645Y0085133D03*
X0068645Y0080633D03*
X0067545Y0081533D03*
X0082945Y0068933D03*
X0098645Y0062333D03*
X0151745Y0061933D03*
D251*
X0139845Y0062533D03*
X0098845Y0061933D03*
X0087945Y0067533D03*
X0084145Y0062533D03*
X0069245Y0079733D03*
D252*
X0071495Y0077533D03*
X0071595Y0077433D03*
X0066495Y0089833D03*
X0084195Y0061933D03*
D253*
X0098795Y0062033D03*
X0080895Y0078733D03*
X0078995Y0080133D03*
X0068795Y0080133D03*
X0068695Y0080233D03*
X0065495Y0090533D03*
X0139795Y0062633D03*
D254*
X0151995Y0062233D03*
X0125195Y0062933D03*
X0115195Y0065333D03*
X0085295Y0075833D03*
X0081295Y0078333D03*
X0068195Y0080833D03*
D255*
X0084145Y0062233D03*
X0139845Y0062233D03*
D256*
X0152095Y0062333D03*
X0080395Y0072833D03*
X0081095Y0078533D03*
X0079295Y0079833D03*
D257*
X0077945Y0081233D03*
X0077845Y0081333D03*
X0080245Y0072633D03*
X0084145Y0062333D03*
X0065945Y0090233D03*
X0139845Y0062333D03*
X0152645Y0063033D03*
D258*
X0098545Y0062633D03*
X0088645Y0073633D03*
X0087145Y0074433D03*
X0074245Y0073333D03*
X0073645Y0083733D03*
X0066445Y0082933D03*
X0068345Y0062333D03*
D259*
X0084145Y0062633D03*
X0090445Y0068633D03*
X0071445Y0078233D03*
X0079045Y0080033D03*
X0079145Y0079933D03*
X0081045Y0078633D03*
X0152145Y0062433D03*
D260*
X0152545Y0062933D03*
X0084145Y0062433D03*
X0078245Y0080933D03*
X0078145Y0081033D03*
D261*
X0073845Y0083433D03*
X0069645Y0080333D03*
X0066245Y0083233D03*
X0066145Y0083333D03*
X0087245Y0074333D03*
X0087345Y0074233D03*
X0090245Y0069033D03*
X0068245Y0062433D03*
X0116045Y0065233D03*
D262*
X0095295Y0067533D03*
X0087995Y0067233D03*
X0089095Y0073333D03*
X0087595Y0074033D03*
X0083095Y0076533D03*
X0071395Y0086133D03*
X0071395Y0086233D03*
X0071295Y0086333D03*
X0071295Y0086433D03*
X0070795Y0087133D03*
X0070695Y0087233D03*
X0065895Y0083733D03*
X0065795Y0083833D03*
X0068095Y0062533D03*
D263*
X0080145Y0072533D03*
X0086845Y0069633D03*
X0090545Y0068333D03*
X0106045Y0066733D03*
X0125645Y0062633D03*
X0071045Y0077933D03*
X0070945Y0078033D03*
X0066245Y0090033D03*
D264*
X0068145Y0080933D03*
X0079545Y0079533D03*
X0081445Y0078233D03*
X0085445Y0075733D03*
X0095445Y0067233D03*
X0105845Y0066833D03*
X0084145Y0062733D03*
D265*
X0067895Y0062733D03*
X0087995Y0073733D03*
X0083395Y0076233D03*
X0074395Y0082633D03*
X0065495Y0084333D03*
X0065395Y0084433D03*
D266*
X0073495Y0083933D03*
X0073595Y0083833D03*
X0071995Y0078433D03*
X0082495Y0077133D03*
X0082595Y0077033D03*
X0086995Y0074533D03*
X0095295Y0067433D03*
X0084095Y0062933D03*
D267*
X0090145Y0069133D03*
X0087745Y0073933D03*
X0080645Y0073333D03*
X0074045Y0073233D03*
X0072245Y0078533D03*
X0074145Y0083033D03*
X0071245Y0086533D03*
X0071145Y0086633D03*
X0071145Y0086733D03*
X0071045Y0086833D03*
X0070945Y0086933D03*
X0070945Y0087033D03*
X0065745Y0083933D03*
X0064145Y0091233D03*
X0139745Y0063033D03*
D268*
X0112745Y0065833D03*
X0079545Y0072033D03*
D269*
X0082395Y0070633D03*
X0082595Y0070533D03*
X0082795Y0070433D03*
X0090595Y0067733D03*
X0112395Y0065933D03*
D270*
X0111495Y0066033D03*
X0111495Y0066133D03*
X0111495Y0066233D03*
D271*
X0111195Y0066333D03*
D272*
X0110895Y0066433D03*
D273*
X0110645Y0066533D03*
D274*
X0094595Y0066633D03*
X0077595Y0081633D03*
X0077495Y0081733D03*
X0066095Y0090133D03*
D275*
X0079795Y0071933D03*
X0090595Y0067833D03*
D276*
X0084395Y0069733D03*
D277*
X0084145Y0069833D03*
X0083945Y0069933D03*
D278*
X0080595Y0073233D03*
X0082795Y0076833D03*
X0082695Y0076933D03*
X0088795Y0073533D03*
X0073795Y0083533D03*
X0073695Y0083633D03*
X0066395Y0083033D03*
X0066295Y0083133D03*
X0064395Y0091133D03*
X0150195Y0069933D03*
D279*
X0083695Y0070033D03*
X0083495Y0070133D03*
D280*
X0083245Y0070233D03*
X0083045Y0070333D03*
D281*
X0082145Y0070733D03*
X0081945Y0070833D03*
X0081745Y0070933D03*
D282*
X0081495Y0071033D03*
D283*
X0081345Y0071133D03*
X0081145Y0071233D03*
X0080945Y0071333D03*
D284*
X0080695Y0071433D03*
D285*
X0080545Y0071533D03*
X0080345Y0071633D03*
X0080145Y0071733D03*
X0079945Y0071833D03*
D286*
X0079395Y0072133D03*
D287*
X0078445Y0080733D03*
M02*
