G75*
%MOIN*%
%OFA0B0*%
%FSLAX25Y25*%
%IPPOS*%
%LPD*%
%AMOC8*
5,1,8,0,0,1.08239X$1,22.5*
%
%ADD10C,0.00000*%
%ADD11C,0.00500*%
%ADD12C,0.00400*%
%ADD13C,0.00600*%
%ADD14C,0.01200*%
%ADD15R,0.00750X0.03500*%
%ADD16C,0.00800*%
%ADD17R,0.00787X0.03937*%
%ADD18R,0.00200X0.00025*%
%ADD19R,0.00325X0.00025*%
%ADD20R,0.00475X0.00025*%
%ADD21R,0.00550X0.00025*%
%ADD22R,0.00625X0.00025*%
%ADD23R,0.00700X0.00025*%
%ADD24R,0.00775X0.00025*%
%ADD25R,0.00850X0.00025*%
%ADD26R,0.00900X0.00025*%
%ADD27R,0.00950X0.00025*%
%ADD28R,0.01000X0.00025*%
%ADD29R,0.01050X0.00025*%
%ADD30R,0.01100X0.00025*%
%ADD31R,0.01125X0.00025*%
%ADD32R,0.01175X0.00025*%
%ADD33R,0.01225X0.00025*%
%ADD34R,0.01250X0.00025*%
%ADD35R,0.01300X0.00025*%
%ADD36R,0.01325X0.00025*%
%ADD37R,0.01375X0.00025*%
%ADD38R,0.01425X0.00025*%
%ADD39R,0.01450X0.00025*%
%ADD40R,0.01500X0.00025*%
%ADD41R,0.01525X0.00025*%
%ADD42R,0.01550X0.00025*%
%ADD43R,0.01600X0.00025*%
%ADD44R,0.01625X0.00025*%
%ADD45R,0.01650X0.00025*%
%ADD46R,0.01700X0.00025*%
%ADD47R,0.01725X0.00025*%
%ADD48R,0.01775X0.00025*%
%ADD49R,0.01800X0.00025*%
%ADD50R,0.01825X0.00025*%
%ADD51R,0.01875X0.00025*%
%ADD52R,0.01900X0.00025*%
%ADD53R,0.01925X0.00025*%
%ADD54R,0.01975X0.00025*%
%ADD55R,0.02000X0.00025*%
%ADD56R,0.02025X0.00025*%
%ADD57R,0.02075X0.00025*%
%ADD58R,0.02100X0.00025*%
%ADD59R,0.02150X0.00025*%
%ADD60R,0.02175X0.00025*%
%ADD61R,0.02200X0.00025*%
%ADD62R,0.02250X0.00025*%
%ADD63R,0.02275X0.00025*%
%ADD64R,0.02300X0.00025*%
%ADD65R,0.02350X0.00025*%
%ADD66R,0.02375X0.00025*%
%ADD67R,0.02400X0.00025*%
%ADD68R,0.02450X0.00025*%
%ADD69R,0.02475X0.00025*%
%ADD70R,0.02525X0.00025*%
%ADD71R,0.02550X0.00025*%
%ADD72R,0.00250X0.00025*%
%ADD73R,0.02575X0.00025*%
%ADD74R,0.00400X0.00025*%
%ADD75R,0.02625X0.00025*%
%ADD76R,0.00550X0.00025*%
%ADD77R,0.02650X0.00025*%
%ADD78R,0.00650X0.00025*%
%ADD79R,0.02675X0.00025*%
%ADD80R,0.00775X0.00025*%
%ADD81R,0.02725X0.00025*%
%ADD82R,0.00875X0.00025*%
%ADD83R,0.02750X0.00025*%
%ADD84R,0.00975X0.00025*%
%ADD85R,0.02775X0.00025*%
%ADD86R,0.01100X0.00025*%
%ADD87R,0.02825X0.00025*%
%ADD88R,0.01175X0.00025*%
%ADD89R,0.02850X0.00025*%
%ADD90R,0.02900X0.00025*%
%ADD91R,0.01350X0.00025*%
%ADD92R,0.02925X0.00025*%
%ADD93R,0.01475X0.00025*%
%ADD94R,0.02950X0.00025*%
%ADD95R,0.03000X0.00025*%
%ADD96R,0.01625X0.00025*%
%ADD97R,0.03025X0.00025*%
%ADD98R,0.01725X0.00025*%
%ADD99R,0.03050X0.00025*%
%ADD100R,0.01825X0.00025*%
%ADD101R,0.03100X0.00025*%
%ADD102R,0.03125X0.00025*%
%ADD103R,0.01950X0.00025*%
%ADD104R,0.03150X0.00025*%
%ADD105R,0.02050X0.00025*%
%ADD106R,0.03200X0.00025*%
%ADD107R,0.02100X0.00025*%
%ADD108R,0.03225X0.00025*%
%ADD109R,0.02200X0.00025*%
%ADD110R,0.03250X0.00025*%
%ADD111R,0.02275X0.00025*%
%ADD112R,0.03275X0.00025*%
%ADD113R,0.02350X0.00025*%
%ADD114R,0.03325X0.00025*%
%ADD115R,0.02425X0.00025*%
%ADD116R,0.03350X0.00025*%
%ADD117R,0.02500X0.00025*%
%ADD118R,0.03375X0.00025*%
%ADD119R,0.02575X0.00025*%
%ADD120R,0.03400X0.00025*%
%ADD121R,0.02625X0.00025*%
%ADD122R,0.03425X0.00025*%
%ADD123R,0.02700X0.00025*%
%ADD124R,0.03450X0.00025*%
%ADD125R,0.03475X0.00025*%
%ADD126R,0.02850X0.00025*%
%ADD127R,0.03500X0.00025*%
%ADD128R,0.03525X0.00025*%
%ADD129R,0.02975X0.00025*%
%ADD130R,0.03550X0.00025*%
%ADD131R,0.03575X0.00025*%
%ADD132R,0.03125X0.00025*%
%ADD133R,0.03600X0.00025*%
%ADD134R,0.03175X0.00025*%
%ADD135R,0.03625X0.00025*%
%ADD136R,0.03250X0.00025*%
%ADD137R,0.03650X0.00025*%
%ADD138R,0.03675X0.00025*%
%ADD139R,0.03375X0.00025*%
%ADD140R,0.03700X0.00025*%
%ADD141R,0.03425X0.00025*%
%ADD142R,0.03700X0.00025*%
%ADD143R,0.03725X0.00025*%
%ADD144R,0.03750X0.00025*%
%ADD145R,0.03575X0.00025*%
%ADD146R,0.03775X0.00025*%
%ADD147R,0.03800X0.00025*%
%ADD148R,0.03800X0.00025*%
%ADD149R,0.03825X0.00025*%
%ADD150R,0.03750X0.00025*%
%ADD151R,0.03850X0.00025*%
%ADD152R,0.03775X0.00025*%
%ADD153R,0.03875X0.00025*%
%ADD154R,0.03825X0.00025*%
%ADD155R,0.03875X0.00025*%
%ADD156R,0.03900X0.00025*%
%ADD157R,0.03875X0.00025*%
%ADD158R,0.03925X0.00025*%
%ADD159R,0.03925X0.00025*%
%ADD160R,0.03925X0.00025*%
%ADD161R,0.03950X0.00025*%
%ADD162R,0.04000X0.00025*%
%ADD163R,0.03975X0.00025*%
%ADD164R,0.04000X0.00025*%
%ADD165R,0.03975X0.00025*%
%ADD166R,0.04025X0.00025*%
%ADD167R,0.04050X0.00025*%
%ADD168R,0.04075X0.00025*%
%ADD169R,0.04125X0.00025*%
%ADD170R,0.04150X0.00025*%
%ADD171R,0.04050X0.00025*%
%ADD172R,0.04150X0.00025*%
%ADD173R,0.04075X0.00025*%
%ADD174R,0.04175X0.00025*%
%ADD175R,0.04075X0.00025*%
%ADD176R,0.04175X0.00025*%
%ADD177R,0.04100X0.00025*%
%ADD178R,0.04200X0.00025*%
%ADD179R,0.04100X0.00025*%
%ADD180R,0.04250X0.00025*%
%ADD181R,0.04125X0.00025*%
%ADD182R,0.04275X0.00025*%
%ADD183R,0.04125X0.00025*%
%ADD184R,0.04275X0.00025*%
%ADD185R,0.04300X0.00025*%
%ADD186R,0.04275X0.00025*%
%ADD187R,0.04325X0.00025*%
%ADD188R,0.04325X0.00025*%
%ADD189R,0.04175X0.00025*%
%ADD190R,0.04350X0.00025*%
%ADD191R,0.04350X0.00025*%
%ADD192R,0.04200X0.00025*%
%ADD193R,0.04375X0.00025*%
%ADD194R,0.04400X0.00025*%
%ADD195R,0.04400X0.00025*%
%ADD196R,0.04225X0.00025*%
%ADD197R,0.04225X0.00025*%
%ADD198R,0.04425X0.00025*%
%ADD199R,0.04250X0.00025*%
%ADD200R,0.04425X0.00025*%
%ADD201R,0.04450X0.00025*%
%ADD202R,0.04450X0.00025*%
%ADD203R,0.04475X0.00025*%
%ADD204R,0.04475X0.00025*%
%ADD205R,0.04275X0.00025*%
%ADD206R,0.04475X0.00025*%
%ADD207R,0.04475X0.00025*%
%ADD208R,0.04500X0.00025*%
%ADD209R,0.04500X0.00025*%
%ADD210R,0.04525X0.00025*%
%ADD211R,0.04525X0.00025*%
%ADD212R,0.04525X0.00025*%
%ADD213R,0.04525X0.00025*%
%ADD214R,0.04550X0.00025*%
%ADD215R,0.04550X0.00025*%
%ADD216R,0.04175X0.00025*%
%ADD217R,0.08650X0.00025*%
%ADD218R,0.08650X0.00025*%
%ADD219R,0.08600X0.00025*%
%ADD220R,0.08600X0.00025*%
%ADD221R,0.08550X0.00025*%
%ADD222R,0.08550X0.00025*%
%ADD223R,0.06025X0.00025*%
%ADD224R,0.05925X0.00025*%
%ADD225R,0.05875X0.00025*%
%ADD226R,0.05850X0.00025*%
%ADD227R,0.02225X0.00025*%
%ADD228R,0.05800X0.00025*%
%ADD229R,0.02225X0.00025*%
%ADD230R,0.05750X0.00025*%
%ADD231R,0.05725X0.00025*%
%ADD232R,0.02175X0.00025*%
%ADD233R,0.05675X0.00025*%
%ADD234R,0.02150X0.00025*%
%ADD235R,0.05650X0.00025*%
%ADD236R,0.02125X0.00025*%
%ADD237R,0.05625X0.00025*%
%ADD238R,0.05600X0.00025*%
%ADD239R,0.05550X0.00025*%
%ADD240R,0.02075X0.00025*%
%ADD241R,0.05525X0.00025*%
%ADD242R,0.02075X0.00025*%
%ADD243R,0.05475X0.00025*%
%ADD244R,0.05450X0.00025*%
%ADD245R,0.02050X0.00025*%
%ADD246R,0.05450X0.00025*%
%ADD247R,0.02025X0.00025*%
%ADD248R,0.05400X0.00025*%
%ADD249R,0.05375X0.00025*%
%ADD250R,0.02000X0.00025*%
%ADD251R,0.05325X0.00025*%
%ADD252R,0.01975X0.00025*%
%ADD253R,0.02800X0.00025*%
%ADD254R,0.02375X0.00025*%
%ADD255R,0.01975X0.00025*%
%ADD256R,0.02725X0.00025*%
%ADD257R,0.02250X0.00025*%
%ADD258R,0.02675X0.00025*%
%ADD259R,0.01950X0.00025*%
%ADD260R,0.02650X0.00025*%
%ADD261R,0.02625X0.00025*%
%ADD262R,0.01925X0.00025*%
%ADD263R,0.02600X0.00025*%
%ADD264R,0.01900X0.00025*%
%ADD265R,0.01875X0.00025*%
%ADD266R,0.02575X0.00025*%
%ADD267R,0.01850X0.00025*%
%ADD268R,0.01875X0.00025*%
%ADD269R,0.02550X0.00025*%
%ADD270R,0.01800X0.00025*%
%ADD271R,0.01850X0.00025*%
%ADD272R,0.02525X0.00025*%
%ADD273R,0.01750X0.00025*%
%ADD274R,0.01825X0.00025*%
%ADD275R,0.02500X0.00025*%
%ADD276R,0.01825X0.00025*%
%ADD277R,0.01550X0.00025*%
%ADD278R,0.01775X0.00025*%
%ADD279R,0.02475X0.00025*%
%ADD280R,0.01525X0.00025*%
%ADD281R,0.01775X0.00025*%
%ADD282R,0.02475X0.00025*%
%ADD283R,0.01475X0.00025*%
%ADD284R,0.01450X0.00025*%
%ADD285R,0.01725X0.00025*%
%ADD286R,0.02450X0.00025*%
%ADD287R,0.01400X0.00025*%
%ADD288R,0.01700X0.00025*%
%ADD289R,0.01375X0.00025*%
%ADD290R,0.01675X0.00025*%
%ADD291R,0.02425X0.00025*%
%ADD292R,0.01300X0.00025*%
%ADD293R,0.01650X0.00025*%
%ADD294R,0.02425X0.00025*%
%ADD295R,0.01225X0.00025*%
%ADD296R,0.01600X0.00025*%
%ADD297R,0.02425X0.00025*%
%ADD298R,0.01200X0.00025*%
%ADD299R,0.00625X0.00025*%
%ADD300R,0.02400X0.00025*%
%ADD301R,0.01150X0.00025*%
%ADD302R,0.00925X0.00025*%
%ADD303R,0.01525X0.00025*%
%ADD304R,0.01150X0.00025*%
%ADD305R,0.01325X0.00025*%
%ADD306R,0.01025X0.00025*%
%ADD307R,0.02375X0.00025*%
%ADD308R,0.01025X0.00025*%
%ADD309R,0.01425X0.00025*%
%ADD310R,0.01775X0.00025*%
%ADD311R,0.01400X0.00025*%
%ADD312R,0.01350X0.00025*%
%ADD313R,0.02025X0.00025*%
%ADD314R,0.00925X0.00025*%
%ADD315R,0.02125X0.00025*%
%ADD316R,0.02375X0.00025*%
%ADD317R,0.00925X0.00025*%
%ADD318R,0.03625X0.00025*%
%ADD319R,0.03775X0.00025*%
%ADD320R,0.00850X0.00025*%
%ADD321R,0.00825X0.00025*%
%ADD322R,0.00800X0.00025*%
%ADD323R,0.03950X0.00025*%
%ADD324R,0.00800X0.00025*%
%ADD325R,0.00775X0.00025*%
%ADD326R,0.00750X0.00025*%
%ADD327R,0.00750X0.00025*%
%ADD328R,0.00725X0.00025*%
%ADD329R,0.02325X0.00025*%
%ADD330R,0.00725X0.00025*%
%ADD331R,0.02325X0.00025*%
%ADD332R,0.00700X0.00025*%
%ADD333R,0.02300X0.00025*%
%ADD334R,0.04600X0.00025*%
%ADD335R,0.00675X0.00025*%
%ADD336R,0.04675X0.00025*%
%ADD337R,0.04725X0.00025*%
%ADD338R,0.02275X0.00025*%
%ADD339R,0.04775X0.00025*%
%ADD340R,0.04850X0.00025*%
%ADD341R,0.04925X0.00025*%
%ADD342R,0.02225X0.00025*%
%ADD343R,0.00725X0.00025*%
%ADD344R,0.04975X0.00025*%
%ADD345R,0.02225X0.00025*%
%ADD346R,0.05075X0.00025*%
%ADD347R,0.05175X0.00025*%
%ADD348R,0.02175X0.00025*%
%ADD349R,0.06175X0.00025*%
%ADD350R,0.02175X0.00025*%
%ADD351R,0.06225X0.00025*%
%ADD352R,0.06275X0.00025*%
%ADD353R,0.06325X0.00025*%
%ADD354R,0.06375X0.00025*%
%ADD355R,0.02025X0.00025*%
%ADD356R,0.06450X0.00025*%
%ADD357R,0.06525X0.00025*%
%ADD358R,0.08700X0.00025*%
%ADD359R,0.09550X0.00025*%
%ADD360R,0.09725X0.00025*%
%ADD361R,0.09850X0.00025*%
%ADD362R,0.09975X0.00025*%
%ADD363R,0.10075X0.00025*%
%ADD364R,0.10175X0.00025*%
%ADD365R,0.10275X0.00025*%
%ADD366R,0.10350X0.00025*%
%ADD367R,0.10475X0.00025*%
%ADD368R,0.10525X0.00025*%
%ADD369R,0.05600X0.00025*%
%ADD370R,0.04725X0.00025*%
%ADD371R,0.05375X0.00025*%
%ADD372R,0.05375X0.00025*%
%ADD373R,0.05325X0.00025*%
%ADD374R,0.04325X0.00025*%
%ADD375R,0.05350X0.00025*%
%ADD376R,0.05325X0.00025*%
%ADD377R,0.05350X0.00025*%
%ADD378R,0.05400X0.00025*%
%ADD379R,0.05425X0.00025*%
%ADD380R,0.05500X0.00025*%
%ADD381R,0.05525X0.00025*%
%ADD382R,0.03600X0.00025*%
%ADD383R,0.03450X0.00025*%
%ADD384R,0.01475X0.00025*%
%ADD385R,0.04225X0.00025*%
%ADD386R,0.01475X0.00025*%
%ADD387R,0.03325X0.00025*%
%ADD388R,0.03325X0.00025*%
%ADD389R,0.03275X0.00025*%
%ADD390R,0.04300X0.00025*%
%ADD391R,0.01575X0.00025*%
%ADD392R,0.03225X0.00025*%
%ADD393R,0.04375X0.00025*%
%ADD394R,0.03200X0.00025*%
%ADD395R,0.03150X0.00025*%
%ADD396R,0.01875X0.00025*%
%ADD397R,0.04650X0.00025*%
%ADD398R,0.01975X0.00025*%
%ADD399R,0.04700X0.00025*%
%ADD400R,0.03075X0.00025*%
%ADD401R,0.04875X0.00025*%
%ADD402R,0.03075X0.00025*%
%ADD403R,0.04950X0.00025*%
%ADD404R,0.05100X0.00025*%
%ADD405R,0.05250X0.00025*%
%ADD406R,0.03050X0.00025*%
%ADD407R,0.07350X0.00025*%
%ADD408R,0.00825X0.00025*%
%ADD409R,0.07350X0.00025*%
%ADD410R,0.03025X0.00025*%
%ADD411R,0.00825X0.00025*%
%ADD412R,0.07325X0.00025*%
%ADD413R,0.03000X0.00025*%
%ADD414R,0.03025X0.00025*%
%ADD415R,0.07325X0.00025*%
%ADD416R,0.07325X0.00025*%
%ADD417R,0.00875X0.00025*%
%ADD418R,0.07300X0.00025*%
%ADD419R,0.00925X0.00025*%
%ADD420R,0.07300X0.00025*%
%ADD421R,0.03025X0.00025*%
%ADD422R,0.01025X0.00025*%
%ADD423R,0.07275X0.00025*%
%ADD424R,0.01050X0.00025*%
%ADD425R,0.07275X0.00025*%
%ADD426R,0.01075X0.00025*%
%ADD427R,0.07250X0.00025*%
%ADD428R,0.01125X0.00025*%
%ADD429R,0.07250X0.00025*%
%ADD430R,0.01175X0.00025*%
%ADD431R,0.07225X0.00025*%
%ADD432R,0.03075X0.00025*%
%ADD433R,0.01200X0.00025*%
%ADD434R,0.07225X0.00025*%
%ADD435R,0.01250X0.00025*%
%ADD436R,0.07200X0.00025*%
%ADD437R,0.03100X0.00025*%
%ADD438R,0.01275X0.00025*%
%ADD439R,0.07200X0.00025*%
%ADD440R,0.03125X0.00025*%
%ADD441R,0.07175X0.00025*%
%ADD442R,0.03175X0.00025*%
%ADD443R,0.07175X0.00025*%
%ADD444R,0.07150X0.00025*%
%ADD445R,0.03225X0.00025*%
%ADD446R,0.01525X0.00025*%
%ADD447R,0.07150X0.00025*%
%ADD448R,0.07125X0.00025*%
%ADD449R,0.07100X0.00025*%
%ADD450R,0.07075X0.00025*%
%ADD451R,0.03550X0.00025*%
%ADD452R,0.07075X0.00025*%
%ADD453R,0.05675X0.00025*%
%ADD454R,0.07050X0.00025*%
%ADD455R,0.05700X0.00025*%
%ADD456R,0.07025X0.00025*%
%ADD457R,0.05700X0.00025*%
%ADD458R,0.07025X0.00025*%
%ADD459R,0.05725X0.00025*%
%ADD460R,0.06975X0.00025*%
%ADD461R,0.05750X0.00025*%
%ADD462R,0.06925X0.00025*%
%ADD463R,0.05775X0.00025*%
%ADD464R,0.06900X0.00025*%
%ADD465R,0.05775X0.00025*%
%ADD466R,0.06850X0.00025*%
%ADD467R,0.05800X0.00025*%
%ADD468R,0.06800X0.00025*%
%ADD469R,0.05825X0.00025*%
%ADD470R,0.06750X0.00025*%
%ADD471R,0.06675X0.00025*%
%ADD472R,0.05850X0.00025*%
%ADD473R,0.06625X0.00025*%
%ADD474R,0.05875X0.00025*%
%ADD475R,0.06550X0.00025*%
%ADD476R,0.05900X0.00025*%
%ADD477R,0.06475X0.00025*%
%ADD478R,0.05900X0.00025*%
%ADD479R,0.06375X0.00025*%
%ADD480R,0.05950X0.00025*%
%ADD481R,0.06300X0.00025*%
%ADD482R,0.05975X0.00025*%
%ADD483R,0.06200X0.00025*%
%ADD484R,0.06000X0.00025*%
%ADD485R,0.06125X0.00025*%
%ADD486R,0.06000X0.00025*%
%ADD487R,0.06050X0.00025*%
%ADD488R,0.06025X0.00025*%
%ADD489R,0.05975X0.00025*%
%ADD490R,0.05875X0.00025*%
%ADD491R,0.06100X0.00025*%
%ADD492R,0.05825X0.00025*%
%ADD493R,0.06100X0.00025*%
%ADD494R,0.06125X0.00025*%
%ADD495R,0.06150X0.00025*%
%ADD496R,0.01275X0.00025*%
%ADD497R,0.06175X0.00025*%
%ADD498R,0.01325X0.00025*%
%ADD499R,0.06250X0.00025*%
%ADD500R,0.03825X0.00025*%
%ADD501R,0.01375X0.00025*%
%ADD502R,0.06300X0.00025*%
%ADD503R,0.03625X0.00025*%
%ADD504R,0.03475X0.00025*%
%ADD505R,0.06350X0.00025*%
%ADD506R,0.01425X0.00025*%
%ADD507R,0.06400X0.00025*%
%ADD508R,0.06400X0.00025*%
%ADD509R,0.06475X0.00025*%
%ADD510R,0.02900X0.00025*%
%ADD511R,0.02825X0.00025*%
%ADD512R,0.06525X0.00025*%
%ADD513R,0.02675X0.00025*%
%ADD514R,0.06550X0.00025*%
%ADD515R,0.01575X0.00025*%
%ADD516R,0.06600X0.00025*%
%ADD517R,0.06600X0.00025*%
%ADD518R,0.01675X0.00025*%
%ADD519R,0.05325X0.00025*%
%ADD520R,0.01750X0.00025*%
%ADD521R,0.01425X0.00025*%
%ADD522R,0.00350X0.00025*%
%ADD523R,0.03975X0.00025*%
%ADD524R,0.03975X0.00025*%
%ADD525R,0.04025X0.00025*%
%ADD526R,0.05300X0.00025*%
%ADD527R,0.05300X0.00025*%
%ADD528R,0.05275X0.00025*%
%ADD529R,0.04075X0.00025*%
%ADD530R,0.05275X0.00025*%
%ADD531R,0.05250X0.00025*%
%ADD532R,0.05225X0.00025*%
%ADD533R,0.05200X0.00025*%
%ADD534R,0.05175X0.00025*%
%ADD535R,0.05175X0.00025*%
%ADD536R,0.05125X0.00025*%
%ADD537R,0.05100X0.00025*%
%ADD538R,0.05075X0.00025*%
%ADD539R,0.05025X0.00025*%
%ADD540R,0.04925X0.00025*%
%ADD541R,0.04900X0.00025*%
%ADD542R,0.04850X0.00025*%
%ADD543R,0.04775X0.00025*%
%ADD544R,0.04725X0.00025*%
%ADD545R,0.04675X0.00025*%
%ADD546R,0.04600X0.00025*%
%ADD547R,0.04125X0.00025*%
%ADD548R,0.03850X0.00025*%
%ADD549R,0.03725X0.00025*%
%ADD550R,0.03675X0.00025*%
%ADD551R,0.03525X0.00025*%
%ADD552R,0.03475X0.00025*%
%ADD553R,0.03400X0.00025*%
%ADD554R,0.03375X0.00025*%
%ADD555R,0.03350X0.00025*%
%ADD556R,0.03300X0.00025*%
%ADD557R,0.03175X0.00025*%
%ADD558R,0.02825X0.00025*%
%ADD559R,0.02800X0.00025*%
%ADD560R,0.02525X0.00025*%
%ADD561R,0.02525X0.00025*%
%ADD562R,0.02475X0.00025*%
%ADD563R,0.02325X0.00025*%
%ADD564R,0.02125X0.00025*%
%ADD565R,0.01125X0.00025*%
%ADD566R,0.00875X0.00025*%
%ADD567R,0.00675X0.00025*%
%ADD568R,0.00600X0.00025*%
%ADD569R,0.00525X0.00025*%
%ADD570C,0.01600*%
%ADD571R,0.03500X0.00750*%
%ADD572C,0.00787*%
%ADD573C,0.01969*%
%ADD574C,0.01000*%
D10*
X0049095Y0045933D02*
X0289095Y0045933D01*
X0284174Y0055933D02*
X0284176Y0056073D01*
X0284182Y0056213D01*
X0284192Y0056352D01*
X0284206Y0056491D01*
X0284224Y0056630D01*
X0284245Y0056768D01*
X0284271Y0056906D01*
X0284301Y0057043D01*
X0284334Y0057178D01*
X0284372Y0057313D01*
X0284413Y0057447D01*
X0284458Y0057580D01*
X0284506Y0057711D01*
X0284559Y0057840D01*
X0284615Y0057969D01*
X0284674Y0058095D01*
X0284738Y0058220D01*
X0284804Y0058343D01*
X0284875Y0058464D01*
X0284948Y0058583D01*
X0285025Y0058700D01*
X0285106Y0058814D01*
X0285189Y0058926D01*
X0285276Y0059036D01*
X0285366Y0059144D01*
X0285458Y0059248D01*
X0285554Y0059350D01*
X0285653Y0059450D01*
X0285754Y0059546D01*
X0285858Y0059640D01*
X0285965Y0059730D01*
X0286074Y0059817D01*
X0286186Y0059902D01*
X0286300Y0059983D01*
X0286416Y0060061D01*
X0286534Y0060135D01*
X0286655Y0060206D01*
X0286777Y0060274D01*
X0286902Y0060338D01*
X0287028Y0060399D01*
X0287155Y0060456D01*
X0287285Y0060509D01*
X0287416Y0060559D01*
X0287548Y0060604D01*
X0287681Y0060647D01*
X0287816Y0060685D01*
X0287951Y0060719D01*
X0288088Y0060750D01*
X0288225Y0060777D01*
X0288363Y0060799D01*
X0288502Y0060818D01*
X0288641Y0060833D01*
X0288780Y0060844D01*
X0288920Y0060851D01*
X0289060Y0060854D01*
X0289200Y0060853D01*
X0289340Y0060848D01*
X0289479Y0060839D01*
X0289619Y0060826D01*
X0289758Y0060809D01*
X0289896Y0060788D01*
X0290034Y0060764D01*
X0290171Y0060735D01*
X0290307Y0060703D01*
X0290442Y0060666D01*
X0290576Y0060626D01*
X0290709Y0060582D01*
X0290840Y0060534D01*
X0290970Y0060483D01*
X0291099Y0060428D01*
X0291226Y0060369D01*
X0291351Y0060306D01*
X0291474Y0060241D01*
X0291596Y0060171D01*
X0291715Y0060098D01*
X0291833Y0060022D01*
X0291948Y0059943D01*
X0292061Y0059860D01*
X0292171Y0059774D01*
X0292279Y0059685D01*
X0292384Y0059593D01*
X0292487Y0059498D01*
X0292587Y0059400D01*
X0292684Y0059300D01*
X0292778Y0059196D01*
X0292870Y0059090D01*
X0292958Y0058982D01*
X0293043Y0058871D01*
X0293125Y0058757D01*
X0293204Y0058641D01*
X0293279Y0058524D01*
X0293351Y0058404D01*
X0293419Y0058282D01*
X0293484Y0058158D01*
X0293546Y0058032D01*
X0293604Y0057905D01*
X0293658Y0057776D01*
X0293709Y0057645D01*
X0293755Y0057513D01*
X0293798Y0057380D01*
X0293838Y0057246D01*
X0293873Y0057111D01*
X0293905Y0056974D01*
X0293932Y0056837D01*
X0293956Y0056699D01*
X0293976Y0056561D01*
X0293992Y0056422D01*
X0294004Y0056282D01*
X0294012Y0056143D01*
X0294016Y0056003D01*
X0294016Y0055863D01*
X0294012Y0055723D01*
X0294004Y0055584D01*
X0293992Y0055444D01*
X0293976Y0055305D01*
X0293956Y0055167D01*
X0293932Y0055029D01*
X0293905Y0054892D01*
X0293873Y0054755D01*
X0293838Y0054620D01*
X0293798Y0054486D01*
X0293755Y0054353D01*
X0293709Y0054221D01*
X0293658Y0054090D01*
X0293604Y0053961D01*
X0293546Y0053834D01*
X0293484Y0053708D01*
X0293419Y0053584D01*
X0293351Y0053462D01*
X0293279Y0053342D01*
X0293204Y0053225D01*
X0293125Y0053109D01*
X0293043Y0052995D01*
X0292958Y0052884D01*
X0292870Y0052776D01*
X0292778Y0052670D01*
X0292684Y0052566D01*
X0292587Y0052466D01*
X0292487Y0052368D01*
X0292384Y0052273D01*
X0292279Y0052181D01*
X0292171Y0052092D01*
X0292061Y0052006D01*
X0291948Y0051923D01*
X0291833Y0051844D01*
X0291715Y0051768D01*
X0291596Y0051695D01*
X0291474Y0051625D01*
X0291351Y0051560D01*
X0291226Y0051497D01*
X0291099Y0051438D01*
X0290970Y0051383D01*
X0290840Y0051332D01*
X0290709Y0051284D01*
X0290576Y0051240D01*
X0290442Y0051200D01*
X0290307Y0051163D01*
X0290171Y0051131D01*
X0290034Y0051102D01*
X0289896Y0051078D01*
X0289758Y0051057D01*
X0289619Y0051040D01*
X0289479Y0051027D01*
X0289340Y0051018D01*
X0289200Y0051013D01*
X0289060Y0051012D01*
X0288920Y0051015D01*
X0288780Y0051022D01*
X0288641Y0051033D01*
X0288502Y0051048D01*
X0288363Y0051067D01*
X0288225Y0051089D01*
X0288088Y0051116D01*
X0287951Y0051147D01*
X0287816Y0051181D01*
X0287681Y0051219D01*
X0287548Y0051262D01*
X0287416Y0051307D01*
X0287285Y0051357D01*
X0287155Y0051410D01*
X0287028Y0051467D01*
X0286902Y0051528D01*
X0286777Y0051592D01*
X0286655Y0051660D01*
X0286534Y0051731D01*
X0286416Y0051805D01*
X0286300Y0051883D01*
X0286186Y0051964D01*
X0286074Y0052049D01*
X0285965Y0052136D01*
X0285858Y0052226D01*
X0285754Y0052320D01*
X0285653Y0052416D01*
X0285554Y0052516D01*
X0285458Y0052618D01*
X0285366Y0052722D01*
X0285276Y0052830D01*
X0285189Y0052940D01*
X0285106Y0053052D01*
X0285025Y0053166D01*
X0284948Y0053283D01*
X0284875Y0053402D01*
X0284804Y0053523D01*
X0284738Y0053646D01*
X0284674Y0053771D01*
X0284615Y0053897D01*
X0284559Y0054026D01*
X0284506Y0054155D01*
X0284458Y0054286D01*
X0284413Y0054419D01*
X0284372Y0054553D01*
X0284334Y0054688D01*
X0284301Y0054823D01*
X0284271Y0054960D01*
X0284245Y0055098D01*
X0284224Y0055236D01*
X0284206Y0055375D01*
X0284192Y0055514D01*
X0284182Y0055653D01*
X0284176Y0055793D01*
X0284174Y0055933D01*
X0289095Y0045933D02*
X0289337Y0045936D01*
X0289578Y0045945D01*
X0289819Y0045959D01*
X0290060Y0045980D01*
X0290300Y0046006D01*
X0290540Y0046038D01*
X0290779Y0046076D01*
X0291016Y0046119D01*
X0291253Y0046169D01*
X0291488Y0046224D01*
X0291722Y0046284D01*
X0291954Y0046351D01*
X0292185Y0046422D01*
X0292414Y0046500D01*
X0292641Y0046583D01*
X0292866Y0046671D01*
X0293089Y0046765D01*
X0293309Y0046864D01*
X0293527Y0046969D01*
X0293742Y0047078D01*
X0293955Y0047193D01*
X0294165Y0047313D01*
X0294371Y0047438D01*
X0294575Y0047568D01*
X0294776Y0047703D01*
X0294973Y0047843D01*
X0295167Y0047987D01*
X0295357Y0048136D01*
X0295543Y0048290D01*
X0295726Y0048448D01*
X0295905Y0048610D01*
X0296080Y0048777D01*
X0296251Y0048948D01*
X0296418Y0049123D01*
X0296580Y0049302D01*
X0296738Y0049485D01*
X0296892Y0049671D01*
X0297041Y0049861D01*
X0297185Y0050055D01*
X0297325Y0050252D01*
X0297460Y0050453D01*
X0297590Y0050657D01*
X0297715Y0050863D01*
X0297835Y0051073D01*
X0297950Y0051286D01*
X0298059Y0051501D01*
X0298164Y0051719D01*
X0298263Y0051939D01*
X0298357Y0052162D01*
X0298445Y0052387D01*
X0298528Y0052614D01*
X0298606Y0052843D01*
X0298677Y0053074D01*
X0298744Y0053306D01*
X0298804Y0053540D01*
X0298859Y0053775D01*
X0298909Y0054012D01*
X0298952Y0054249D01*
X0298990Y0054488D01*
X0299022Y0054728D01*
X0299048Y0054968D01*
X0299069Y0055209D01*
X0299083Y0055450D01*
X0299092Y0055691D01*
X0299095Y0055933D01*
X0299095Y0125933D01*
X0284174Y0125933D02*
X0284176Y0126073D01*
X0284182Y0126213D01*
X0284192Y0126352D01*
X0284206Y0126491D01*
X0284224Y0126630D01*
X0284245Y0126768D01*
X0284271Y0126906D01*
X0284301Y0127043D01*
X0284334Y0127178D01*
X0284372Y0127313D01*
X0284413Y0127447D01*
X0284458Y0127580D01*
X0284506Y0127711D01*
X0284559Y0127840D01*
X0284615Y0127969D01*
X0284674Y0128095D01*
X0284738Y0128220D01*
X0284804Y0128343D01*
X0284875Y0128464D01*
X0284948Y0128583D01*
X0285025Y0128700D01*
X0285106Y0128814D01*
X0285189Y0128926D01*
X0285276Y0129036D01*
X0285366Y0129144D01*
X0285458Y0129248D01*
X0285554Y0129350D01*
X0285653Y0129450D01*
X0285754Y0129546D01*
X0285858Y0129640D01*
X0285965Y0129730D01*
X0286074Y0129817D01*
X0286186Y0129902D01*
X0286300Y0129983D01*
X0286416Y0130061D01*
X0286534Y0130135D01*
X0286655Y0130206D01*
X0286777Y0130274D01*
X0286902Y0130338D01*
X0287028Y0130399D01*
X0287155Y0130456D01*
X0287285Y0130509D01*
X0287416Y0130559D01*
X0287548Y0130604D01*
X0287681Y0130647D01*
X0287816Y0130685D01*
X0287951Y0130719D01*
X0288088Y0130750D01*
X0288225Y0130777D01*
X0288363Y0130799D01*
X0288502Y0130818D01*
X0288641Y0130833D01*
X0288780Y0130844D01*
X0288920Y0130851D01*
X0289060Y0130854D01*
X0289200Y0130853D01*
X0289340Y0130848D01*
X0289479Y0130839D01*
X0289619Y0130826D01*
X0289758Y0130809D01*
X0289896Y0130788D01*
X0290034Y0130764D01*
X0290171Y0130735D01*
X0290307Y0130703D01*
X0290442Y0130666D01*
X0290576Y0130626D01*
X0290709Y0130582D01*
X0290840Y0130534D01*
X0290970Y0130483D01*
X0291099Y0130428D01*
X0291226Y0130369D01*
X0291351Y0130306D01*
X0291474Y0130241D01*
X0291596Y0130171D01*
X0291715Y0130098D01*
X0291833Y0130022D01*
X0291948Y0129943D01*
X0292061Y0129860D01*
X0292171Y0129774D01*
X0292279Y0129685D01*
X0292384Y0129593D01*
X0292487Y0129498D01*
X0292587Y0129400D01*
X0292684Y0129300D01*
X0292778Y0129196D01*
X0292870Y0129090D01*
X0292958Y0128982D01*
X0293043Y0128871D01*
X0293125Y0128757D01*
X0293204Y0128641D01*
X0293279Y0128524D01*
X0293351Y0128404D01*
X0293419Y0128282D01*
X0293484Y0128158D01*
X0293546Y0128032D01*
X0293604Y0127905D01*
X0293658Y0127776D01*
X0293709Y0127645D01*
X0293755Y0127513D01*
X0293798Y0127380D01*
X0293838Y0127246D01*
X0293873Y0127111D01*
X0293905Y0126974D01*
X0293932Y0126837D01*
X0293956Y0126699D01*
X0293976Y0126561D01*
X0293992Y0126422D01*
X0294004Y0126282D01*
X0294012Y0126143D01*
X0294016Y0126003D01*
X0294016Y0125863D01*
X0294012Y0125723D01*
X0294004Y0125584D01*
X0293992Y0125444D01*
X0293976Y0125305D01*
X0293956Y0125167D01*
X0293932Y0125029D01*
X0293905Y0124892D01*
X0293873Y0124755D01*
X0293838Y0124620D01*
X0293798Y0124486D01*
X0293755Y0124353D01*
X0293709Y0124221D01*
X0293658Y0124090D01*
X0293604Y0123961D01*
X0293546Y0123834D01*
X0293484Y0123708D01*
X0293419Y0123584D01*
X0293351Y0123462D01*
X0293279Y0123342D01*
X0293204Y0123225D01*
X0293125Y0123109D01*
X0293043Y0122995D01*
X0292958Y0122884D01*
X0292870Y0122776D01*
X0292778Y0122670D01*
X0292684Y0122566D01*
X0292587Y0122466D01*
X0292487Y0122368D01*
X0292384Y0122273D01*
X0292279Y0122181D01*
X0292171Y0122092D01*
X0292061Y0122006D01*
X0291948Y0121923D01*
X0291833Y0121844D01*
X0291715Y0121768D01*
X0291596Y0121695D01*
X0291474Y0121625D01*
X0291351Y0121560D01*
X0291226Y0121497D01*
X0291099Y0121438D01*
X0290970Y0121383D01*
X0290840Y0121332D01*
X0290709Y0121284D01*
X0290576Y0121240D01*
X0290442Y0121200D01*
X0290307Y0121163D01*
X0290171Y0121131D01*
X0290034Y0121102D01*
X0289896Y0121078D01*
X0289758Y0121057D01*
X0289619Y0121040D01*
X0289479Y0121027D01*
X0289340Y0121018D01*
X0289200Y0121013D01*
X0289060Y0121012D01*
X0288920Y0121015D01*
X0288780Y0121022D01*
X0288641Y0121033D01*
X0288502Y0121048D01*
X0288363Y0121067D01*
X0288225Y0121089D01*
X0288088Y0121116D01*
X0287951Y0121147D01*
X0287816Y0121181D01*
X0287681Y0121219D01*
X0287548Y0121262D01*
X0287416Y0121307D01*
X0287285Y0121357D01*
X0287155Y0121410D01*
X0287028Y0121467D01*
X0286902Y0121528D01*
X0286777Y0121592D01*
X0286655Y0121660D01*
X0286534Y0121731D01*
X0286416Y0121805D01*
X0286300Y0121883D01*
X0286186Y0121964D01*
X0286074Y0122049D01*
X0285965Y0122136D01*
X0285858Y0122226D01*
X0285754Y0122320D01*
X0285653Y0122416D01*
X0285554Y0122516D01*
X0285458Y0122618D01*
X0285366Y0122722D01*
X0285276Y0122830D01*
X0285189Y0122940D01*
X0285106Y0123052D01*
X0285025Y0123166D01*
X0284948Y0123283D01*
X0284875Y0123402D01*
X0284804Y0123523D01*
X0284738Y0123646D01*
X0284674Y0123771D01*
X0284615Y0123897D01*
X0284559Y0124026D01*
X0284506Y0124155D01*
X0284458Y0124286D01*
X0284413Y0124419D01*
X0284372Y0124553D01*
X0284334Y0124688D01*
X0284301Y0124823D01*
X0284271Y0124960D01*
X0284245Y0125098D01*
X0284224Y0125236D01*
X0284206Y0125375D01*
X0284192Y0125514D01*
X0284182Y0125653D01*
X0284176Y0125793D01*
X0284174Y0125933D01*
X0289095Y0135933D02*
X0289337Y0135930D01*
X0289578Y0135921D01*
X0289819Y0135907D01*
X0290060Y0135886D01*
X0290300Y0135860D01*
X0290540Y0135828D01*
X0290779Y0135790D01*
X0291016Y0135747D01*
X0291253Y0135697D01*
X0291488Y0135642D01*
X0291722Y0135582D01*
X0291954Y0135515D01*
X0292185Y0135444D01*
X0292414Y0135366D01*
X0292641Y0135283D01*
X0292866Y0135195D01*
X0293089Y0135101D01*
X0293309Y0135002D01*
X0293527Y0134897D01*
X0293742Y0134788D01*
X0293955Y0134673D01*
X0294165Y0134553D01*
X0294371Y0134428D01*
X0294575Y0134298D01*
X0294776Y0134163D01*
X0294973Y0134023D01*
X0295167Y0133879D01*
X0295357Y0133730D01*
X0295543Y0133576D01*
X0295726Y0133418D01*
X0295905Y0133256D01*
X0296080Y0133089D01*
X0296251Y0132918D01*
X0296418Y0132743D01*
X0296580Y0132564D01*
X0296738Y0132381D01*
X0296892Y0132195D01*
X0297041Y0132005D01*
X0297185Y0131811D01*
X0297325Y0131614D01*
X0297460Y0131413D01*
X0297590Y0131209D01*
X0297715Y0131003D01*
X0297835Y0130793D01*
X0297950Y0130580D01*
X0298059Y0130365D01*
X0298164Y0130147D01*
X0298263Y0129927D01*
X0298357Y0129704D01*
X0298445Y0129479D01*
X0298528Y0129252D01*
X0298606Y0129023D01*
X0298677Y0128792D01*
X0298744Y0128560D01*
X0298804Y0128326D01*
X0298859Y0128091D01*
X0298909Y0127854D01*
X0298952Y0127617D01*
X0298990Y0127378D01*
X0299022Y0127138D01*
X0299048Y0126898D01*
X0299069Y0126657D01*
X0299083Y0126416D01*
X0299092Y0126175D01*
X0299095Y0125933D01*
X0289095Y0135933D02*
X0049095Y0135933D01*
X0048853Y0135930D01*
X0048612Y0135921D01*
X0048371Y0135907D01*
X0048130Y0135886D01*
X0047890Y0135860D01*
X0047650Y0135828D01*
X0047411Y0135790D01*
X0047174Y0135747D01*
X0046937Y0135697D01*
X0046702Y0135642D01*
X0046468Y0135582D01*
X0046236Y0135515D01*
X0046005Y0135444D01*
X0045776Y0135366D01*
X0045549Y0135283D01*
X0045324Y0135195D01*
X0045101Y0135101D01*
X0044881Y0135002D01*
X0044663Y0134897D01*
X0044448Y0134788D01*
X0044235Y0134673D01*
X0044025Y0134553D01*
X0043819Y0134428D01*
X0043615Y0134298D01*
X0043414Y0134163D01*
X0043217Y0134023D01*
X0043023Y0133879D01*
X0042833Y0133730D01*
X0042647Y0133576D01*
X0042464Y0133418D01*
X0042285Y0133256D01*
X0042110Y0133089D01*
X0041939Y0132918D01*
X0041772Y0132743D01*
X0041610Y0132564D01*
X0041452Y0132381D01*
X0041298Y0132195D01*
X0041149Y0132005D01*
X0041005Y0131811D01*
X0040865Y0131614D01*
X0040730Y0131413D01*
X0040600Y0131209D01*
X0040475Y0131003D01*
X0040355Y0130793D01*
X0040240Y0130580D01*
X0040131Y0130365D01*
X0040026Y0130147D01*
X0039927Y0129927D01*
X0039833Y0129704D01*
X0039745Y0129479D01*
X0039662Y0129252D01*
X0039584Y0129023D01*
X0039513Y0128792D01*
X0039446Y0128560D01*
X0039386Y0128326D01*
X0039331Y0128091D01*
X0039281Y0127854D01*
X0039238Y0127617D01*
X0039200Y0127378D01*
X0039168Y0127138D01*
X0039142Y0126898D01*
X0039121Y0126657D01*
X0039107Y0126416D01*
X0039098Y0126175D01*
X0039095Y0125933D01*
X0039095Y0101433D01*
X0041095Y0099433D01*
X0041095Y0082933D01*
X0039095Y0080933D01*
X0039095Y0055933D01*
X0039098Y0055691D01*
X0039107Y0055450D01*
X0039121Y0055209D01*
X0039142Y0054968D01*
X0039168Y0054728D01*
X0039200Y0054488D01*
X0039238Y0054249D01*
X0039281Y0054012D01*
X0039331Y0053775D01*
X0039386Y0053540D01*
X0039446Y0053306D01*
X0039513Y0053074D01*
X0039584Y0052843D01*
X0039662Y0052614D01*
X0039745Y0052387D01*
X0039833Y0052162D01*
X0039927Y0051939D01*
X0040026Y0051719D01*
X0040131Y0051501D01*
X0040240Y0051286D01*
X0040355Y0051073D01*
X0040475Y0050863D01*
X0040600Y0050657D01*
X0040730Y0050453D01*
X0040865Y0050252D01*
X0041005Y0050055D01*
X0041149Y0049861D01*
X0041298Y0049671D01*
X0041452Y0049485D01*
X0041610Y0049302D01*
X0041772Y0049123D01*
X0041939Y0048948D01*
X0042110Y0048777D01*
X0042285Y0048610D01*
X0042464Y0048448D01*
X0042647Y0048290D01*
X0042833Y0048136D01*
X0043023Y0047987D01*
X0043217Y0047843D01*
X0043414Y0047703D01*
X0043615Y0047568D01*
X0043819Y0047438D01*
X0044025Y0047313D01*
X0044235Y0047193D01*
X0044448Y0047078D01*
X0044663Y0046969D01*
X0044881Y0046864D01*
X0045101Y0046765D01*
X0045324Y0046671D01*
X0045549Y0046583D01*
X0045776Y0046500D01*
X0046005Y0046422D01*
X0046236Y0046351D01*
X0046468Y0046284D01*
X0046702Y0046224D01*
X0046937Y0046169D01*
X0047174Y0046119D01*
X0047411Y0046076D01*
X0047650Y0046038D01*
X0047890Y0046006D01*
X0048130Y0045980D01*
X0048371Y0045959D01*
X0048612Y0045945D01*
X0048853Y0045936D01*
X0049095Y0045933D01*
X0047934Y0074988D02*
X0050296Y0074988D01*
X0050373Y0075000D01*
X0050449Y0075015D01*
X0050525Y0075034D01*
X0050599Y0075057D01*
X0050673Y0075083D01*
X0050744Y0075113D01*
X0050815Y0075147D01*
X0050883Y0075183D01*
X0050950Y0075224D01*
X0051015Y0075267D01*
X0051077Y0075313D01*
X0051138Y0075363D01*
X0051195Y0075415D01*
X0051250Y0075471D01*
X0051302Y0075528D01*
X0051352Y0075589D01*
X0051398Y0075651D01*
X0051441Y0075716D01*
X0051481Y0075783D01*
X0051518Y0075852D01*
X0051551Y0075922D01*
X0051581Y0075994D01*
X0051607Y0076068D01*
X0051629Y0076142D01*
X0051648Y0076218D01*
X0051663Y0076294D01*
X0051674Y0076371D01*
X0051682Y0076449D01*
X0051686Y0076527D01*
X0051685Y0076605D01*
X0051682Y0076682D01*
X0051674Y0076760D01*
X0051682Y0076838D01*
X0051685Y0076915D01*
X0051686Y0076993D01*
X0051682Y0077071D01*
X0051674Y0077149D01*
X0051663Y0077226D01*
X0051648Y0077302D01*
X0051629Y0077378D01*
X0051607Y0077452D01*
X0051581Y0077526D01*
X0051551Y0077598D01*
X0051518Y0077668D01*
X0051481Y0077737D01*
X0051441Y0077804D01*
X0051398Y0077869D01*
X0051352Y0077931D01*
X0051302Y0077992D01*
X0051250Y0078049D01*
X0051195Y0078105D01*
X0051138Y0078157D01*
X0051077Y0078207D01*
X0051015Y0078253D01*
X0050950Y0078296D01*
X0050883Y0078337D01*
X0050815Y0078373D01*
X0050744Y0078407D01*
X0050673Y0078437D01*
X0050599Y0078463D01*
X0050525Y0078486D01*
X0050449Y0078505D01*
X0050373Y0078520D01*
X0050296Y0078532D01*
X0050296Y0078531D02*
X0047934Y0078531D01*
X0047934Y0078532D02*
X0047857Y0078520D01*
X0047781Y0078505D01*
X0047705Y0078486D01*
X0047631Y0078463D01*
X0047557Y0078437D01*
X0047486Y0078407D01*
X0047415Y0078373D01*
X0047347Y0078337D01*
X0047280Y0078296D01*
X0047215Y0078253D01*
X0047153Y0078207D01*
X0047092Y0078157D01*
X0047035Y0078105D01*
X0046980Y0078049D01*
X0046928Y0077992D01*
X0046878Y0077931D01*
X0046832Y0077869D01*
X0046789Y0077804D01*
X0046749Y0077737D01*
X0046712Y0077668D01*
X0046679Y0077598D01*
X0046649Y0077526D01*
X0046623Y0077452D01*
X0046601Y0077378D01*
X0046582Y0077302D01*
X0046567Y0077226D01*
X0046556Y0077149D01*
X0046548Y0077071D01*
X0046544Y0076993D01*
X0046545Y0076915D01*
X0046548Y0076838D01*
X0046556Y0076760D01*
X0046548Y0076682D01*
X0046545Y0076605D01*
X0046544Y0076527D01*
X0046548Y0076449D01*
X0046556Y0076371D01*
X0046567Y0076294D01*
X0046582Y0076218D01*
X0046601Y0076142D01*
X0046623Y0076068D01*
X0046649Y0075994D01*
X0046679Y0075922D01*
X0046712Y0075852D01*
X0046749Y0075783D01*
X0046789Y0075716D01*
X0046832Y0075651D01*
X0046878Y0075589D01*
X0046928Y0075528D01*
X0046980Y0075471D01*
X0047035Y0075415D01*
X0047092Y0075363D01*
X0047153Y0075313D01*
X0047215Y0075267D01*
X0047280Y0075224D01*
X0047347Y0075183D01*
X0047415Y0075147D01*
X0047486Y0075113D01*
X0047557Y0075083D01*
X0047631Y0075057D01*
X0047705Y0075034D01*
X0047781Y0075015D01*
X0047857Y0075000D01*
X0047934Y0074988D01*
X0055217Y0083256D02*
X0055219Y0083330D01*
X0055225Y0083404D01*
X0055235Y0083477D01*
X0055249Y0083550D01*
X0055266Y0083622D01*
X0055288Y0083692D01*
X0055313Y0083762D01*
X0055342Y0083830D01*
X0055375Y0083896D01*
X0055411Y0083961D01*
X0055451Y0084023D01*
X0055493Y0084084D01*
X0055539Y0084142D01*
X0055588Y0084197D01*
X0055640Y0084250D01*
X0055695Y0084300D01*
X0055752Y0084346D01*
X0055812Y0084390D01*
X0055874Y0084430D01*
X0055938Y0084467D01*
X0056004Y0084501D01*
X0056072Y0084531D01*
X0056141Y0084557D01*
X0056212Y0084580D01*
X0056283Y0084598D01*
X0056356Y0084613D01*
X0056429Y0084624D01*
X0056503Y0084631D01*
X0056577Y0084634D01*
X0056650Y0084633D01*
X0056724Y0084628D01*
X0056798Y0084619D01*
X0056871Y0084606D01*
X0056943Y0084589D01*
X0057014Y0084569D01*
X0057084Y0084544D01*
X0057152Y0084516D01*
X0057219Y0084485D01*
X0057284Y0084449D01*
X0057347Y0084411D01*
X0057408Y0084369D01*
X0057467Y0084323D01*
X0057523Y0084275D01*
X0057576Y0084224D01*
X0057626Y0084170D01*
X0057674Y0084113D01*
X0057718Y0084054D01*
X0057760Y0083992D01*
X0057798Y0083929D01*
X0057832Y0083863D01*
X0057863Y0083796D01*
X0057890Y0083727D01*
X0057913Y0083657D01*
X0057933Y0083586D01*
X0057949Y0083513D01*
X0057961Y0083440D01*
X0057969Y0083367D01*
X0057973Y0083293D01*
X0057973Y0083219D01*
X0057969Y0083145D01*
X0057961Y0083072D01*
X0057949Y0082999D01*
X0057933Y0082926D01*
X0057913Y0082855D01*
X0057890Y0082785D01*
X0057863Y0082716D01*
X0057832Y0082649D01*
X0057798Y0082583D01*
X0057760Y0082520D01*
X0057718Y0082458D01*
X0057674Y0082399D01*
X0057626Y0082342D01*
X0057576Y0082288D01*
X0057523Y0082237D01*
X0057467Y0082189D01*
X0057408Y0082143D01*
X0057347Y0082101D01*
X0057284Y0082063D01*
X0057219Y0082027D01*
X0057152Y0081996D01*
X0057084Y0081968D01*
X0057014Y0081943D01*
X0056943Y0081923D01*
X0056871Y0081906D01*
X0056798Y0081893D01*
X0056724Y0081884D01*
X0056650Y0081879D01*
X0056577Y0081878D01*
X0056503Y0081881D01*
X0056429Y0081888D01*
X0056356Y0081899D01*
X0056283Y0081914D01*
X0056212Y0081932D01*
X0056141Y0081955D01*
X0056072Y0081981D01*
X0056004Y0082011D01*
X0055938Y0082045D01*
X0055874Y0082082D01*
X0055812Y0082122D01*
X0055752Y0082166D01*
X0055695Y0082212D01*
X0055640Y0082262D01*
X0055588Y0082315D01*
X0055539Y0082370D01*
X0055493Y0082428D01*
X0055451Y0082489D01*
X0055411Y0082551D01*
X0055375Y0082616D01*
X0055342Y0082682D01*
X0055313Y0082750D01*
X0055288Y0082820D01*
X0055266Y0082890D01*
X0055249Y0082962D01*
X0055235Y0083035D01*
X0055225Y0083108D01*
X0055219Y0083182D01*
X0055217Y0083256D01*
X0055217Y0098610D02*
X0055219Y0098684D01*
X0055225Y0098758D01*
X0055235Y0098831D01*
X0055249Y0098904D01*
X0055266Y0098976D01*
X0055288Y0099046D01*
X0055313Y0099116D01*
X0055342Y0099184D01*
X0055375Y0099250D01*
X0055411Y0099315D01*
X0055451Y0099377D01*
X0055493Y0099438D01*
X0055539Y0099496D01*
X0055588Y0099551D01*
X0055640Y0099604D01*
X0055695Y0099654D01*
X0055752Y0099700D01*
X0055812Y0099744D01*
X0055874Y0099784D01*
X0055938Y0099821D01*
X0056004Y0099855D01*
X0056072Y0099885D01*
X0056141Y0099911D01*
X0056212Y0099934D01*
X0056283Y0099952D01*
X0056356Y0099967D01*
X0056429Y0099978D01*
X0056503Y0099985D01*
X0056577Y0099988D01*
X0056650Y0099987D01*
X0056724Y0099982D01*
X0056798Y0099973D01*
X0056871Y0099960D01*
X0056943Y0099943D01*
X0057014Y0099923D01*
X0057084Y0099898D01*
X0057152Y0099870D01*
X0057219Y0099839D01*
X0057284Y0099803D01*
X0057347Y0099765D01*
X0057408Y0099723D01*
X0057467Y0099677D01*
X0057523Y0099629D01*
X0057576Y0099578D01*
X0057626Y0099524D01*
X0057674Y0099467D01*
X0057718Y0099408D01*
X0057760Y0099346D01*
X0057798Y0099283D01*
X0057832Y0099217D01*
X0057863Y0099150D01*
X0057890Y0099081D01*
X0057913Y0099011D01*
X0057933Y0098940D01*
X0057949Y0098867D01*
X0057961Y0098794D01*
X0057969Y0098721D01*
X0057973Y0098647D01*
X0057973Y0098573D01*
X0057969Y0098499D01*
X0057961Y0098426D01*
X0057949Y0098353D01*
X0057933Y0098280D01*
X0057913Y0098209D01*
X0057890Y0098139D01*
X0057863Y0098070D01*
X0057832Y0098003D01*
X0057798Y0097937D01*
X0057760Y0097874D01*
X0057718Y0097812D01*
X0057674Y0097753D01*
X0057626Y0097696D01*
X0057576Y0097642D01*
X0057523Y0097591D01*
X0057467Y0097543D01*
X0057408Y0097497D01*
X0057347Y0097455D01*
X0057284Y0097417D01*
X0057219Y0097381D01*
X0057152Y0097350D01*
X0057084Y0097322D01*
X0057014Y0097297D01*
X0056943Y0097277D01*
X0056871Y0097260D01*
X0056798Y0097247D01*
X0056724Y0097238D01*
X0056650Y0097233D01*
X0056577Y0097232D01*
X0056503Y0097235D01*
X0056429Y0097242D01*
X0056356Y0097253D01*
X0056283Y0097268D01*
X0056212Y0097286D01*
X0056141Y0097309D01*
X0056072Y0097335D01*
X0056004Y0097365D01*
X0055938Y0097399D01*
X0055874Y0097436D01*
X0055812Y0097476D01*
X0055752Y0097520D01*
X0055695Y0097566D01*
X0055640Y0097616D01*
X0055588Y0097669D01*
X0055539Y0097724D01*
X0055493Y0097782D01*
X0055451Y0097843D01*
X0055411Y0097905D01*
X0055375Y0097970D01*
X0055342Y0098036D01*
X0055313Y0098104D01*
X0055288Y0098174D01*
X0055266Y0098244D01*
X0055249Y0098316D01*
X0055235Y0098389D01*
X0055225Y0098462D01*
X0055219Y0098536D01*
X0055217Y0098610D01*
X0050296Y0103335D02*
X0048131Y0103335D01*
X0048130Y0103334D02*
X0048056Y0103331D01*
X0047981Y0103332D01*
X0047906Y0103336D01*
X0047831Y0103345D01*
X0047757Y0103357D01*
X0047684Y0103373D01*
X0047611Y0103392D01*
X0047540Y0103415D01*
X0047470Y0103442D01*
X0047401Y0103472D01*
X0047334Y0103506D01*
X0047269Y0103543D01*
X0047206Y0103583D01*
X0047145Y0103626D01*
X0047086Y0103673D01*
X0047030Y0103722D01*
X0046976Y0103774D01*
X0046925Y0103829D01*
X0046876Y0103887D01*
X0046831Y0103946D01*
X0046789Y0104008D01*
X0046750Y0104072D01*
X0046714Y0104138D01*
X0046681Y0104206D01*
X0046652Y0104275D01*
X0046627Y0104346D01*
X0046605Y0104417D01*
X0046587Y0104490D01*
X0046573Y0104564D01*
X0046562Y0104638D01*
X0046555Y0104713D01*
X0046556Y0104713D02*
X0046556Y0105500D01*
X0046555Y0105500D02*
X0046562Y0105575D01*
X0046573Y0105649D01*
X0046587Y0105723D01*
X0046605Y0105796D01*
X0046627Y0105867D01*
X0046652Y0105938D01*
X0046681Y0106007D01*
X0046714Y0106075D01*
X0046750Y0106141D01*
X0046789Y0106205D01*
X0046831Y0106267D01*
X0046876Y0106326D01*
X0046925Y0106384D01*
X0046976Y0106439D01*
X0047030Y0106491D01*
X0047086Y0106540D01*
X0047145Y0106587D01*
X0047206Y0106630D01*
X0047269Y0106670D01*
X0047334Y0106707D01*
X0047401Y0106741D01*
X0047470Y0106771D01*
X0047540Y0106798D01*
X0047611Y0106821D01*
X0047684Y0106840D01*
X0047757Y0106856D01*
X0047831Y0106868D01*
X0047906Y0106877D01*
X0047981Y0106881D01*
X0048056Y0106882D01*
X0048130Y0106879D01*
X0048131Y0106878D02*
X0050296Y0106878D01*
X0050368Y0106876D01*
X0050440Y0106870D01*
X0050512Y0106861D01*
X0050583Y0106848D01*
X0050653Y0106831D01*
X0050722Y0106811D01*
X0050790Y0106786D01*
X0050856Y0106759D01*
X0050922Y0106728D01*
X0050985Y0106693D01*
X0051047Y0106656D01*
X0051106Y0106615D01*
X0051163Y0106571D01*
X0051218Y0106524D01*
X0051270Y0106474D01*
X0051320Y0106422D01*
X0051367Y0106367D01*
X0051411Y0106310D01*
X0051452Y0106251D01*
X0051489Y0106189D01*
X0051524Y0106126D01*
X0051555Y0106060D01*
X0051582Y0105994D01*
X0051607Y0105926D01*
X0051627Y0105857D01*
X0051644Y0105787D01*
X0051657Y0105716D01*
X0051666Y0105644D01*
X0051672Y0105572D01*
X0051674Y0105500D01*
X0051674Y0104713D01*
X0051672Y0104641D01*
X0051666Y0104569D01*
X0051657Y0104497D01*
X0051644Y0104426D01*
X0051627Y0104356D01*
X0051607Y0104287D01*
X0051582Y0104219D01*
X0051555Y0104153D01*
X0051524Y0104087D01*
X0051489Y0104024D01*
X0051452Y0103962D01*
X0051411Y0103903D01*
X0051367Y0103846D01*
X0051320Y0103791D01*
X0051270Y0103739D01*
X0051218Y0103689D01*
X0051163Y0103642D01*
X0051106Y0103598D01*
X0051047Y0103557D01*
X0050985Y0103520D01*
X0050922Y0103485D01*
X0050856Y0103454D01*
X0050790Y0103427D01*
X0050722Y0103402D01*
X0050653Y0103382D01*
X0050583Y0103365D01*
X0050512Y0103352D01*
X0050440Y0103343D01*
X0050368Y0103337D01*
X0050296Y0103335D01*
X0173126Y0060933D02*
X0173128Y0061021D01*
X0173134Y0061109D01*
X0173144Y0061197D01*
X0173158Y0061285D01*
X0173175Y0061371D01*
X0173197Y0061457D01*
X0173222Y0061541D01*
X0173252Y0061625D01*
X0173284Y0061707D01*
X0173321Y0061787D01*
X0173361Y0061866D01*
X0173405Y0061943D01*
X0173452Y0062018D01*
X0173502Y0062090D01*
X0173556Y0062161D01*
X0173612Y0062228D01*
X0173672Y0062294D01*
X0173734Y0062356D01*
X0173800Y0062416D01*
X0173867Y0062472D01*
X0173938Y0062526D01*
X0174010Y0062576D01*
X0174085Y0062623D01*
X0174162Y0062667D01*
X0174241Y0062707D01*
X0174321Y0062744D01*
X0174403Y0062776D01*
X0174487Y0062806D01*
X0174571Y0062831D01*
X0174657Y0062853D01*
X0174743Y0062870D01*
X0174831Y0062884D01*
X0174919Y0062894D01*
X0175007Y0062900D01*
X0175095Y0062902D01*
X0175183Y0062900D01*
X0175271Y0062894D01*
X0175359Y0062884D01*
X0175447Y0062870D01*
X0175533Y0062853D01*
X0175619Y0062831D01*
X0175703Y0062806D01*
X0175787Y0062776D01*
X0175869Y0062744D01*
X0175949Y0062707D01*
X0176028Y0062667D01*
X0176105Y0062623D01*
X0176180Y0062576D01*
X0176252Y0062526D01*
X0176323Y0062472D01*
X0176390Y0062416D01*
X0176456Y0062356D01*
X0176518Y0062294D01*
X0176578Y0062228D01*
X0176634Y0062161D01*
X0176688Y0062090D01*
X0176738Y0062018D01*
X0176785Y0061943D01*
X0176829Y0061866D01*
X0176869Y0061787D01*
X0176906Y0061707D01*
X0176938Y0061625D01*
X0176968Y0061541D01*
X0176993Y0061457D01*
X0177015Y0061371D01*
X0177032Y0061285D01*
X0177046Y0061197D01*
X0177056Y0061109D01*
X0177062Y0061021D01*
X0177064Y0060933D01*
X0177062Y0060845D01*
X0177056Y0060757D01*
X0177046Y0060669D01*
X0177032Y0060581D01*
X0177015Y0060495D01*
X0176993Y0060409D01*
X0176968Y0060325D01*
X0176938Y0060241D01*
X0176906Y0060159D01*
X0176869Y0060079D01*
X0176829Y0060000D01*
X0176785Y0059923D01*
X0176738Y0059848D01*
X0176688Y0059776D01*
X0176634Y0059705D01*
X0176578Y0059638D01*
X0176518Y0059572D01*
X0176456Y0059510D01*
X0176390Y0059450D01*
X0176323Y0059394D01*
X0176252Y0059340D01*
X0176180Y0059290D01*
X0176105Y0059243D01*
X0176028Y0059199D01*
X0175949Y0059159D01*
X0175869Y0059122D01*
X0175787Y0059090D01*
X0175703Y0059060D01*
X0175619Y0059035D01*
X0175533Y0059013D01*
X0175447Y0058996D01*
X0175359Y0058982D01*
X0175271Y0058972D01*
X0175183Y0058966D01*
X0175095Y0058964D01*
X0175007Y0058966D01*
X0174919Y0058972D01*
X0174831Y0058982D01*
X0174743Y0058996D01*
X0174657Y0059013D01*
X0174571Y0059035D01*
X0174487Y0059060D01*
X0174403Y0059090D01*
X0174321Y0059122D01*
X0174241Y0059159D01*
X0174162Y0059199D01*
X0174085Y0059243D01*
X0174010Y0059290D01*
X0173938Y0059340D01*
X0173867Y0059394D01*
X0173800Y0059450D01*
X0173734Y0059510D01*
X0173672Y0059572D01*
X0173612Y0059638D01*
X0173556Y0059705D01*
X0173502Y0059776D01*
X0173452Y0059848D01*
X0173405Y0059923D01*
X0173361Y0060000D01*
X0173321Y0060079D01*
X0173284Y0060159D01*
X0173252Y0060241D01*
X0173222Y0060325D01*
X0173197Y0060409D01*
X0173175Y0060495D01*
X0173158Y0060581D01*
X0173144Y0060669D01*
X0173134Y0060757D01*
X0173128Y0060845D01*
X0173126Y0060933D01*
X0188126Y0060933D02*
X0188128Y0061021D01*
X0188134Y0061109D01*
X0188144Y0061197D01*
X0188158Y0061285D01*
X0188175Y0061371D01*
X0188197Y0061457D01*
X0188222Y0061541D01*
X0188252Y0061625D01*
X0188284Y0061707D01*
X0188321Y0061787D01*
X0188361Y0061866D01*
X0188405Y0061943D01*
X0188452Y0062018D01*
X0188502Y0062090D01*
X0188556Y0062161D01*
X0188612Y0062228D01*
X0188672Y0062294D01*
X0188734Y0062356D01*
X0188800Y0062416D01*
X0188867Y0062472D01*
X0188938Y0062526D01*
X0189010Y0062576D01*
X0189085Y0062623D01*
X0189162Y0062667D01*
X0189241Y0062707D01*
X0189321Y0062744D01*
X0189403Y0062776D01*
X0189487Y0062806D01*
X0189571Y0062831D01*
X0189657Y0062853D01*
X0189743Y0062870D01*
X0189831Y0062884D01*
X0189919Y0062894D01*
X0190007Y0062900D01*
X0190095Y0062902D01*
X0190183Y0062900D01*
X0190271Y0062894D01*
X0190359Y0062884D01*
X0190447Y0062870D01*
X0190533Y0062853D01*
X0190619Y0062831D01*
X0190703Y0062806D01*
X0190787Y0062776D01*
X0190869Y0062744D01*
X0190949Y0062707D01*
X0191028Y0062667D01*
X0191105Y0062623D01*
X0191180Y0062576D01*
X0191252Y0062526D01*
X0191323Y0062472D01*
X0191390Y0062416D01*
X0191456Y0062356D01*
X0191518Y0062294D01*
X0191578Y0062228D01*
X0191634Y0062161D01*
X0191688Y0062090D01*
X0191738Y0062018D01*
X0191785Y0061943D01*
X0191829Y0061866D01*
X0191869Y0061787D01*
X0191906Y0061707D01*
X0191938Y0061625D01*
X0191968Y0061541D01*
X0191993Y0061457D01*
X0192015Y0061371D01*
X0192032Y0061285D01*
X0192046Y0061197D01*
X0192056Y0061109D01*
X0192062Y0061021D01*
X0192064Y0060933D01*
X0192062Y0060845D01*
X0192056Y0060757D01*
X0192046Y0060669D01*
X0192032Y0060581D01*
X0192015Y0060495D01*
X0191993Y0060409D01*
X0191968Y0060325D01*
X0191938Y0060241D01*
X0191906Y0060159D01*
X0191869Y0060079D01*
X0191829Y0060000D01*
X0191785Y0059923D01*
X0191738Y0059848D01*
X0191688Y0059776D01*
X0191634Y0059705D01*
X0191578Y0059638D01*
X0191518Y0059572D01*
X0191456Y0059510D01*
X0191390Y0059450D01*
X0191323Y0059394D01*
X0191252Y0059340D01*
X0191180Y0059290D01*
X0191105Y0059243D01*
X0191028Y0059199D01*
X0190949Y0059159D01*
X0190869Y0059122D01*
X0190787Y0059090D01*
X0190703Y0059060D01*
X0190619Y0059035D01*
X0190533Y0059013D01*
X0190447Y0058996D01*
X0190359Y0058982D01*
X0190271Y0058972D01*
X0190183Y0058966D01*
X0190095Y0058964D01*
X0190007Y0058966D01*
X0189919Y0058972D01*
X0189831Y0058982D01*
X0189743Y0058996D01*
X0189657Y0059013D01*
X0189571Y0059035D01*
X0189487Y0059060D01*
X0189403Y0059090D01*
X0189321Y0059122D01*
X0189241Y0059159D01*
X0189162Y0059199D01*
X0189085Y0059243D01*
X0189010Y0059290D01*
X0188938Y0059340D01*
X0188867Y0059394D01*
X0188800Y0059450D01*
X0188734Y0059510D01*
X0188672Y0059572D01*
X0188612Y0059638D01*
X0188556Y0059705D01*
X0188502Y0059776D01*
X0188452Y0059848D01*
X0188405Y0059923D01*
X0188361Y0060000D01*
X0188321Y0060079D01*
X0188284Y0060159D01*
X0188252Y0060241D01*
X0188222Y0060325D01*
X0188197Y0060409D01*
X0188175Y0060495D01*
X0188158Y0060581D01*
X0188144Y0060669D01*
X0188134Y0060757D01*
X0188128Y0060845D01*
X0188126Y0060933D01*
X0217843Y0098772D02*
X0217845Y0098856D01*
X0217851Y0098939D01*
X0217861Y0099022D01*
X0217875Y0099105D01*
X0217892Y0099187D01*
X0217914Y0099268D01*
X0217939Y0099347D01*
X0217968Y0099426D01*
X0218001Y0099503D01*
X0218037Y0099578D01*
X0218077Y0099652D01*
X0218120Y0099724D01*
X0218167Y0099793D01*
X0218217Y0099860D01*
X0218270Y0099925D01*
X0218326Y0099987D01*
X0218384Y0100047D01*
X0218446Y0100104D01*
X0218510Y0100157D01*
X0218577Y0100208D01*
X0218646Y0100255D01*
X0218717Y0100300D01*
X0218790Y0100340D01*
X0218865Y0100377D01*
X0218942Y0100411D01*
X0219020Y0100441D01*
X0219099Y0100467D01*
X0219180Y0100490D01*
X0219262Y0100508D01*
X0219344Y0100523D01*
X0219427Y0100534D01*
X0219510Y0100541D01*
X0219594Y0100544D01*
X0219678Y0100543D01*
X0219761Y0100538D01*
X0219845Y0100529D01*
X0219927Y0100516D01*
X0220009Y0100500D01*
X0220090Y0100479D01*
X0220171Y0100455D01*
X0220249Y0100427D01*
X0220327Y0100395D01*
X0220403Y0100359D01*
X0220477Y0100320D01*
X0220549Y0100278D01*
X0220619Y0100232D01*
X0220687Y0100183D01*
X0220752Y0100131D01*
X0220815Y0100076D01*
X0220875Y0100018D01*
X0220933Y0099957D01*
X0220987Y0099893D01*
X0221039Y0099827D01*
X0221087Y0099759D01*
X0221132Y0099688D01*
X0221173Y0099615D01*
X0221212Y0099541D01*
X0221246Y0099465D01*
X0221277Y0099387D01*
X0221304Y0099308D01*
X0221328Y0099227D01*
X0221347Y0099146D01*
X0221363Y0099064D01*
X0221375Y0098981D01*
X0221383Y0098897D01*
X0221387Y0098814D01*
X0221387Y0098730D01*
X0221383Y0098647D01*
X0221375Y0098563D01*
X0221363Y0098480D01*
X0221347Y0098398D01*
X0221328Y0098317D01*
X0221304Y0098236D01*
X0221277Y0098157D01*
X0221246Y0098079D01*
X0221212Y0098003D01*
X0221173Y0097929D01*
X0221132Y0097856D01*
X0221087Y0097785D01*
X0221039Y0097717D01*
X0220987Y0097651D01*
X0220933Y0097587D01*
X0220875Y0097526D01*
X0220815Y0097468D01*
X0220752Y0097413D01*
X0220687Y0097361D01*
X0220619Y0097312D01*
X0220549Y0097266D01*
X0220477Y0097224D01*
X0220403Y0097185D01*
X0220327Y0097149D01*
X0220249Y0097117D01*
X0220171Y0097089D01*
X0220090Y0097065D01*
X0220009Y0097044D01*
X0219927Y0097028D01*
X0219845Y0097015D01*
X0219761Y0097006D01*
X0219678Y0097001D01*
X0219594Y0097000D01*
X0219510Y0097003D01*
X0219427Y0097010D01*
X0219344Y0097021D01*
X0219262Y0097036D01*
X0219180Y0097054D01*
X0219099Y0097077D01*
X0219020Y0097103D01*
X0218942Y0097133D01*
X0218865Y0097167D01*
X0218790Y0097204D01*
X0218717Y0097244D01*
X0218646Y0097289D01*
X0218577Y0097336D01*
X0218510Y0097387D01*
X0218446Y0097440D01*
X0218384Y0097497D01*
X0218326Y0097557D01*
X0218270Y0097619D01*
X0218217Y0097684D01*
X0218167Y0097751D01*
X0218120Y0097820D01*
X0218077Y0097892D01*
X0218037Y0097966D01*
X0218001Y0098041D01*
X0217968Y0098118D01*
X0217939Y0098197D01*
X0217914Y0098276D01*
X0217892Y0098357D01*
X0217875Y0098439D01*
X0217861Y0098522D01*
X0217851Y0098605D01*
X0217845Y0098688D01*
X0217843Y0098772D01*
D11*
X0219812Y0087354D02*
X0237922Y0087354D01*
X0237922Y0127512D01*
X0219812Y0127512D01*
X0213119Y0127512D02*
X0200520Y0127512D01*
X0171780Y0127512D02*
X0166268Y0127512D01*
X0166268Y0125937D01*
X0166268Y0088929D02*
X0166268Y0087354D01*
X0171780Y0087354D01*
X0172370Y0079186D02*
X0172370Y0075683D01*
X0174705Y0075683D01*
X0176053Y0075683D02*
X0177804Y0075683D01*
X0178388Y0076267D01*
X0178388Y0078602D01*
X0177804Y0079186D01*
X0176053Y0079186D01*
X0176053Y0075683D01*
X0173538Y0077435D02*
X0172370Y0077435D01*
X0172370Y0079186D02*
X0174705Y0079186D01*
X0171022Y0079186D02*
X0168687Y0079186D01*
X0168687Y0075683D01*
X0171022Y0075683D01*
X0169854Y0077435D02*
X0168687Y0077435D01*
X0167339Y0077435D02*
X0166755Y0076851D01*
X0165004Y0076851D01*
X0165004Y0075683D02*
X0165004Y0079186D01*
X0166755Y0079186D01*
X0167339Y0078602D01*
X0167339Y0077435D01*
X0163656Y0076851D02*
X0163656Y0076267D01*
X0163072Y0075683D01*
X0161904Y0075683D01*
X0161320Y0076267D01*
X0161904Y0077435D02*
X0163072Y0077435D01*
X0163656Y0076851D01*
X0163656Y0078602D02*
X0163072Y0079186D01*
X0161904Y0079186D01*
X0161320Y0078602D01*
X0161320Y0078018D01*
X0161904Y0077435D01*
X0159973Y0078018D02*
X0158805Y0079186D01*
X0157637Y0078018D01*
X0156289Y0078018D02*
X0155122Y0075683D01*
X0153954Y0078018D01*
X0151268Y0081941D02*
X0151268Y0084106D01*
X0149103Y0084106D01*
X0157005Y0071563D02*
X0169997Y0071563D01*
X0157005Y0071563D02*
X0157005Y0050303D01*
X0169997Y0050303D01*
X0151268Y0055760D02*
X0151268Y0057925D01*
X0151268Y0055760D02*
X0149103Y0055760D01*
X0125087Y0055760D02*
X0122922Y0055760D01*
X0122922Y0057925D01*
X0115149Y0054189D02*
X0104676Y0054189D01*
X0104618Y0054187D01*
X0104561Y0054181D01*
X0104504Y0054172D01*
X0104448Y0054159D01*
X0104393Y0054142D01*
X0104339Y0054122D01*
X0104287Y0054098D01*
X0104236Y0054071D01*
X0104187Y0054041D01*
X0104140Y0054007D01*
X0104096Y0053971D01*
X0104054Y0053931D01*
X0104014Y0053889D01*
X0103978Y0053845D01*
X0103944Y0053798D01*
X0103914Y0053749D01*
X0103887Y0053698D01*
X0103863Y0053646D01*
X0103843Y0053592D01*
X0103826Y0053537D01*
X0103813Y0053481D01*
X0103804Y0053424D01*
X0103798Y0053367D01*
X0103796Y0053309D01*
X0103796Y0049791D01*
X0103798Y0049726D01*
X0103804Y0049662D01*
X0103813Y0049598D01*
X0103826Y0049534D01*
X0103843Y0049472D01*
X0103863Y0049410D01*
X0103887Y0049350D01*
X0103914Y0049291D01*
X0103945Y0049235D01*
X0103979Y0049179D01*
X0104016Y0049126D01*
X0104056Y0049076D01*
X0104099Y0049027D01*
X0104145Y0048981D01*
X0104194Y0048938D01*
X0104244Y0048898D01*
X0104297Y0048861D01*
X0104353Y0048827D01*
X0104409Y0048796D01*
X0104468Y0048769D01*
X0104528Y0048745D01*
X0104590Y0048725D01*
X0104652Y0048708D01*
X0104716Y0048695D01*
X0104780Y0048686D01*
X0104844Y0048680D01*
X0104909Y0048678D01*
X0104909Y0048677D02*
X0115281Y0048677D01*
X0115281Y0048678D02*
X0115346Y0048680D01*
X0115410Y0048686D01*
X0115474Y0048695D01*
X0115538Y0048708D01*
X0115600Y0048725D01*
X0115662Y0048745D01*
X0115722Y0048769D01*
X0115781Y0048796D01*
X0115838Y0048827D01*
X0115893Y0048861D01*
X0115946Y0048898D01*
X0115996Y0048938D01*
X0116045Y0048981D01*
X0116091Y0049027D01*
X0116134Y0049076D01*
X0116174Y0049126D01*
X0116211Y0049179D01*
X0116245Y0049235D01*
X0116276Y0049291D01*
X0116303Y0049350D01*
X0116327Y0049410D01*
X0116347Y0049472D01*
X0116364Y0049534D01*
X0116377Y0049598D01*
X0116386Y0049662D01*
X0116392Y0049726D01*
X0116394Y0049791D01*
X0116394Y0052944D01*
X0116392Y0053014D01*
X0116386Y0053083D01*
X0116376Y0053153D01*
X0116363Y0053221D01*
X0116345Y0053289D01*
X0116324Y0053355D01*
X0116299Y0053420D01*
X0116271Y0053484D01*
X0116239Y0053546D01*
X0116203Y0053606D01*
X0116164Y0053664D01*
X0116122Y0053720D01*
X0116077Y0053774D01*
X0116029Y0053824D01*
X0115979Y0053872D01*
X0115925Y0053917D01*
X0115869Y0053959D01*
X0115811Y0053998D01*
X0115751Y0054034D01*
X0115689Y0054066D01*
X0115625Y0054094D01*
X0115560Y0054119D01*
X0115494Y0054140D01*
X0115426Y0054158D01*
X0115358Y0054171D01*
X0115288Y0054181D01*
X0115219Y0054187D01*
X0115149Y0054189D01*
X0114032Y0053008D02*
X0105764Y0053008D01*
X0105765Y0053008D02*
X0105706Y0052994D01*
X0105647Y0052977D01*
X0105590Y0052956D01*
X0105535Y0052932D01*
X0105481Y0052905D01*
X0105428Y0052874D01*
X0105378Y0052840D01*
X0105330Y0052804D01*
X0105284Y0052764D01*
X0105240Y0052722D01*
X0105200Y0052677D01*
X0105162Y0052630D01*
X0105126Y0052580D01*
X0105094Y0052529D01*
X0105065Y0052476D01*
X0105040Y0052421D01*
X0105018Y0052364D01*
X0104999Y0052307D01*
X0104983Y0052248D01*
X0104972Y0052189D01*
X0104963Y0052129D01*
X0104959Y0052068D01*
X0104958Y0052008D01*
X0104961Y0051947D01*
X0104967Y0051887D01*
X0104978Y0051827D01*
X0104977Y0051827D02*
X0104977Y0050646D01*
X0104976Y0050646D02*
X0104991Y0050585D01*
X0105009Y0050524D01*
X0105031Y0050465D01*
X0105056Y0050407D01*
X0105086Y0050352D01*
X0105118Y0050298D01*
X0105154Y0050246D01*
X0105193Y0050196D01*
X0105235Y0050149D01*
X0105280Y0050105D01*
X0105328Y0050064D01*
X0105378Y0050026D01*
X0105431Y0049991D01*
X0105485Y0049959D01*
X0105542Y0049931D01*
X0105600Y0049906D01*
X0105659Y0049885D01*
X0105720Y0049868D01*
X0105782Y0049855D01*
X0105844Y0049846D01*
X0105907Y0049840D01*
X0105970Y0049839D01*
X0106033Y0049842D01*
X0106096Y0049848D01*
X0106158Y0049858D01*
X0114032Y0049858D01*
X0114098Y0049860D01*
X0114164Y0049865D01*
X0114230Y0049875D01*
X0114295Y0049888D01*
X0114359Y0049904D01*
X0114422Y0049924D01*
X0114484Y0049948D01*
X0114544Y0049975D01*
X0114603Y0050005D01*
X0114660Y0050039D01*
X0114715Y0050076D01*
X0114768Y0050116D01*
X0114819Y0050158D01*
X0114867Y0050204D01*
X0114913Y0050252D01*
X0114955Y0050303D01*
X0114995Y0050356D01*
X0115032Y0050411D01*
X0115066Y0050468D01*
X0115096Y0050527D01*
X0115123Y0050587D01*
X0115147Y0050649D01*
X0115167Y0050712D01*
X0115183Y0050776D01*
X0115196Y0050841D01*
X0115206Y0050907D01*
X0115211Y0050973D01*
X0115213Y0051039D01*
X0115213Y0051827D01*
X0115213Y0051826D02*
X0115211Y0051895D01*
X0115205Y0051963D01*
X0115195Y0052031D01*
X0115181Y0052099D01*
X0115163Y0052165D01*
X0115142Y0052230D01*
X0115116Y0052294D01*
X0115087Y0052356D01*
X0115055Y0052417D01*
X0115019Y0052475D01*
X0114979Y0052531D01*
X0114937Y0052585D01*
X0114891Y0052636D01*
X0114842Y0052685D01*
X0114791Y0052731D01*
X0114737Y0052773D01*
X0114681Y0052813D01*
X0114623Y0052849D01*
X0114562Y0052881D01*
X0114500Y0052910D01*
X0114436Y0052936D01*
X0114371Y0052957D01*
X0114305Y0052975D01*
X0114237Y0052989D01*
X0114169Y0052999D01*
X0114101Y0053005D01*
X0114032Y0053007D01*
X0084863Y0059921D02*
X0084863Y0070945D01*
X0068327Y0070945D01*
X0068327Y0059921D01*
X0084863Y0059921D01*
X0078564Y0062283D02*
X0074627Y0062283D01*
X0074627Y0062284D02*
X0074532Y0062286D01*
X0074437Y0062292D01*
X0074342Y0062301D01*
X0074248Y0062315D01*
X0074155Y0062332D01*
X0074062Y0062353D01*
X0073970Y0062377D01*
X0073879Y0062406D01*
X0073789Y0062437D01*
X0073701Y0062473D01*
X0073614Y0062512D01*
X0073529Y0062555D01*
X0073446Y0062600D01*
X0073365Y0062650D01*
X0073285Y0062702D01*
X0073208Y0062758D01*
X0073133Y0062816D01*
X0073061Y0062878D01*
X0072991Y0062943D01*
X0072924Y0063010D01*
X0072859Y0063080D01*
X0072797Y0063152D01*
X0072739Y0063227D01*
X0072683Y0063304D01*
X0072631Y0063384D01*
X0072581Y0063465D01*
X0072536Y0063548D01*
X0072493Y0063633D01*
X0072454Y0063720D01*
X0072418Y0063808D01*
X0072387Y0063898D01*
X0072358Y0063989D01*
X0072334Y0064081D01*
X0072313Y0064174D01*
X0072296Y0064267D01*
X0072282Y0064361D01*
X0072273Y0064456D01*
X0072267Y0064551D01*
X0072265Y0064646D01*
X0072264Y0064646D02*
X0072264Y0066220D01*
X0072265Y0066220D02*
X0072267Y0066315D01*
X0072273Y0066410D01*
X0072282Y0066505D01*
X0072296Y0066599D01*
X0072313Y0066692D01*
X0072334Y0066785D01*
X0072358Y0066877D01*
X0072387Y0066968D01*
X0072418Y0067058D01*
X0072454Y0067146D01*
X0072493Y0067233D01*
X0072536Y0067318D01*
X0072581Y0067401D01*
X0072631Y0067482D01*
X0072683Y0067562D01*
X0072739Y0067639D01*
X0072797Y0067714D01*
X0072859Y0067786D01*
X0072924Y0067856D01*
X0072991Y0067923D01*
X0073061Y0067988D01*
X0073133Y0068050D01*
X0073208Y0068108D01*
X0073285Y0068164D01*
X0073365Y0068216D01*
X0073446Y0068266D01*
X0073529Y0068311D01*
X0073614Y0068354D01*
X0073701Y0068393D01*
X0073789Y0068429D01*
X0073879Y0068460D01*
X0073970Y0068489D01*
X0074062Y0068513D01*
X0074155Y0068534D01*
X0074248Y0068551D01*
X0074342Y0068565D01*
X0074437Y0068574D01*
X0074532Y0068580D01*
X0074627Y0068582D01*
X0074627Y0068583D02*
X0078564Y0068583D01*
X0078564Y0068582D02*
X0078659Y0068580D01*
X0078754Y0068574D01*
X0078849Y0068565D01*
X0078943Y0068551D01*
X0079036Y0068534D01*
X0079129Y0068513D01*
X0079221Y0068489D01*
X0079312Y0068460D01*
X0079402Y0068429D01*
X0079490Y0068393D01*
X0079577Y0068354D01*
X0079662Y0068311D01*
X0079745Y0068266D01*
X0079826Y0068216D01*
X0079906Y0068164D01*
X0079983Y0068108D01*
X0080058Y0068050D01*
X0080130Y0067988D01*
X0080200Y0067923D01*
X0080267Y0067856D01*
X0080332Y0067786D01*
X0080394Y0067714D01*
X0080452Y0067639D01*
X0080508Y0067562D01*
X0080560Y0067482D01*
X0080610Y0067401D01*
X0080655Y0067318D01*
X0080698Y0067233D01*
X0080737Y0067146D01*
X0080773Y0067058D01*
X0080804Y0066968D01*
X0080833Y0066877D01*
X0080857Y0066785D01*
X0080878Y0066692D01*
X0080895Y0066599D01*
X0080909Y0066505D01*
X0080918Y0066410D01*
X0080924Y0066315D01*
X0080926Y0066220D01*
X0080926Y0064646D01*
X0080924Y0064551D01*
X0080918Y0064456D01*
X0080909Y0064361D01*
X0080895Y0064267D01*
X0080878Y0064174D01*
X0080857Y0064081D01*
X0080833Y0063989D01*
X0080804Y0063898D01*
X0080773Y0063808D01*
X0080737Y0063720D01*
X0080698Y0063633D01*
X0080655Y0063548D01*
X0080610Y0063465D01*
X0080560Y0063384D01*
X0080508Y0063304D01*
X0080452Y0063227D01*
X0080394Y0063152D01*
X0080332Y0063080D01*
X0080267Y0063010D01*
X0080200Y0062943D01*
X0080130Y0062878D01*
X0080058Y0062816D01*
X0079983Y0062758D01*
X0079906Y0062702D01*
X0079826Y0062650D01*
X0079745Y0062600D01*
X0079662Y0062555D01*
X0079577Y0062512D01*
X0079490Y0062473D01*
X0079402Y0062437D01*
X0079312Y0062406D01*
X0079221Y0062377D01*
X0079129Y0062353D01*
X0079036Y0062332D01*
X0078943Y0062315D01*
X0078849Y0062301D01*
X0078754Y0062292D01*
X0078659Y0062286D01*
X0078564Y0062284D01*
X0078369Y0072683D02*
X0076617Y0072683D01*
X0077201Y0073851D02*
X0076617Y0074435D01*
X0077201Y0075018D01*
X0078953Y0075018D01*
X0078369Y0073851D02*
X0077201Y0073851D01*
X0078369Y0073851D02*
X0078953Y0073267D01*
X0078369Y0072683D01*
X0080301Y0073267D02*
X0080884Y0072683D01*
X0082052Y0072683D01*
X0082636Y0073851D02*
X0080301Y0073851D01*
X0080301Y0074435D02*
X0080884Y0075018D01*
X0082052Y0075018D01*
X0082636Y0074435D01*
X0082636Y0073851D01*
X0083984Y0075018D02*
X0085151Y0075018D01*
X0084568Y0075602D02*
X0084568Y0073267D01*
X0085151Y0072683D01*
X0080301Y0073267D02*
X0080301Y0074435D01*
X0075270Y0074435D02*
X0074686Y0075018D01*
X0073518Y0075018D01*
X0072934Y0074435D01*
X0072934Y0073267D01*
X0073518Y0072683D01*
X0074686Y0072683D01*
X0075270Y0073851D02*
X0072934Y0073851D01*
X0071586Y0074435D02*
X0071003Y0073851D01*
X0069251Y0073851D01*
X0070419Y0073851D02*
X0071586Y0072683D01*
X0071586Y0074435D02*
X0071586Y0075602D01*
X0071003Y0076186D01*
X0069251Y0076186D01*
X0069251Y0072683D01*
X0075270Y0073851D02*
X0075270Y0074435D01*
X0060926Y0081091D02*
X0060926Y0084240D01*
X0043209Y0075972D02*
X0039666Y0075972D01*
X0039666Y0105894D01*
X0043209Y0105894D01*
X0059342Y0112742D02*
X0062845Y0112742D01*
X0062845Y0113910D02*
X0059342Y0113910D01*
X0060510Y0113910D02*
X0060510Y0112158D01*
X0061677Y0112158D02*
X0061677Y0114494D01*
X0060510Y0114494D02*
X0060510Y0113910D01*
X0060510Y0115841D02*
X0059342Y0117009D01*
X0062845Y0117009D01*
X0062845Y0115841D02*
X0062845Y0118177D01*
X0062261Y0119525D02*
X0062845Y0120108D01*
X0062845Y0121276D01*
X0062261Y0121860D01*
X0061677Y0121860D01*
X0061094Y0121276D01*
X0061094Y0120692D01*
X0061094Y0121276D02*
X0060510Y0121860D01*
X0059926Y0121860D01*
X0059342Y0121276D01*
X0059342Y0120108D01*
X0059926Y0119525D01*
X0060926Y0100776D02*
X0060926Y0097626D01*
X0122922Y0084106D02*
X0122922Y0081941D01*
X0122922Y0084106D02*
X0125087Y0084106D01*
X0182751Y0079186D02*
X0182751Y0076851D01*
X0183919Y0075683D01*
X0185086Y0076851D01*
X0185086Y0079186D01*
X0186434Y0078018D02*
X0187602Y0079186D01*
X0188770Y0078018D01*
X0188770Y0075683D01*
X0190117Y0075683D02*
X0190117Y0079186D01*
X0191869Y0079186D01*
X0192453Y0078602D01*
X0192453Y0077435D01*
X0191869Y0076851D01*
X0190117Y0076851D01*
X0191285Y0076851D02*
X0192453Y0075683D01*
X0193801Y0075683D02*
X0194968Y0075683D01*
X0194384Y0075683D02*
X0194384Y0079186D01*
X0193801Y0079186D02*
X0194968Y0079186D01*
X0196256Y0078602D02*
X0196256Y0076267D01*
X0196840Y0075683D01*
X0198007Y0075683D01*
X0198591Y0076267D01*
X0198591Y0078602D01*
X0198007Y0079186D01*
X0196840Y0079186D01*
X0196256Y0078602D01*
X0188770Y0077435D02*
X0186434Y0077435D01*
X0186434Y0078018D02*
X0186434Y0075683D01*
X0195194Y0071563D02*
X0208186Y0071563D01*
X0208186Y0050303D01*
X0195194Y0050303D01*
X0211595Y0045988D02*
X0215335Y0045988D01*
X0222028Y0045988D01*
X0225768Y0045988D01*
X0222028Y0045988D02*
X0222028Y0044020D01*
X0215335Y0044020D01*
X0215335Y0045988D01*
X0233095Y0045988D02*
X0236835Y0045988D01*
X0243528Y0045988D01*
X0247268Y0045988D01*
X0243528Y0045988D02*
X0243528Y0044020D01*
X0236835Y0044020D01*
X0236835Y0045988D01*
X0233095Y0058587D02*
X0247268Y0058587D01*
X0247028Y0060183D02*
X0249364Y0060183D01*
X0247028Y0060183D02*
X0247028Y0063686D01*
X0245680Y0063102D02*
X0245097Y0063686D01*
X0243929Y0063686D01*
X0243345Y0063102D01*
X0243345Y0060767D01*
X0243929Y0060183D01*
X0245097Y0060183D01*
X0245680Y0060767D01*
X0245680Y0063102D01*
X0241997Y0063686D02*
X0241997Y0061351D01*
X0240830Y0060183D01*
X0239662Y0061351D01*
X0239662Y0063686D01*
X0238314Y0061935D02*
X0235979Y0061935D01*
X0237147Y0063102D02*
X0237147Y0060767D01*
X0231364Y0060183D02*
X0229028Y0060183D01*
X0229028Y0063686D01*
X0227680Y0063102D02*
X0227097Y0063686D01*
X0225929Y0063686D01*
X0225345Y0063102D01*
X0225345Y0060767D01*
X0225929Y0060183D01*
X0227097Y0060183D01*
X0227680Y0060767D01*
X0227680Y0063102D01*
X0223997Y0063686D02*
X0223997Y0061351D01*
X0222830Y0060183D01*
X0221662Y0061351D01*
X0221662Y0063686D01*
X0220314Y0061935D02*
X0217979Y0061935D01*
X0211595Y0058587D02*
X0225768Y0058587D01*
X0206217Y0072744D02*
X0208186Y0076681D01*
X0204249Y0076681D01*
X0206217Y0072744D01*
X0206163Y0072853D02*
X0206271Y0072853D01*
X0206521Y0073351D02*
X0205914Y0073351D01*
X0205664Y0073850D02*
X0206770Y0073850D01*
X0207019Y0074348D02*
X0205415Y0074348D01*
X0205166Y0074847D02*
X0207269Y0074847D01*
X0207518Y0075345D02*
X0204917Y0075345D01*
X0204667Y0075844D02*
X0207767Y0075844D01*
X0208016Y0076342D02*
X0204418Y0076342D01*
X0258359Y0054866D02*
X0258359Y0045811D01*
X0278831Y0045811D01*
X0278831Y0054866D01*
X0278180Y0092183D02*
X0278180Y0095686D01*
X0275845Y0095686D02*
X0278180Y0092183D01*
X0275845Y0092183D02*
X0275845Y0095686D01*
X0274497Y0095102D02*
X0274497Y0092767D01*
X0273913Y0092183D01*
X0272746Y0092183D01*
X0272162Y0092767D01*
X0272162Y0095102D01*
X0272746Y0095686D01*
X0273913Y0095686D01*
X0274497Y0095102D01*
X0275004Y0106183D02*
X0275004Y0109686D01*
X0277339Y0109686D01*
X0278687Y0109686D02*
X0281022Y0109686D01*
X0279854Y0107935D02*
X0278687Y0107935D01*
X0278687Y0109686D02*
X0278687Y0106183D01*
X0276171Y0107935D02*
X0275004Y0107935D01*
X0273656Y0109102D02*
X0273656Y0106767D01*
X0273072Y0106183D01*
X0271904Y0106183D01*
X0271320Y0106767D01*
X0271320Y0109102D01*
X0271904Y0109686D01*
X0273072Y0109686D01*
X0273656Y0109102D01*
D12*
X0109839Y0114435D02*
X0108505Y0114435D01*
X0109172Y0114435D02*
X0109172Y0112433D01*
X0107630Y0112433D02*
X0107630Y0113768D01*
X0106962Y0114435D01*
X0106295Y0113768D01*
X0106295Y0112433D01*
X0105420Y0112767D02*
X0105086Y0112433D01*
X0104085Y0112433D01*
X0104085Y0114435D01*
X0105086Y0114435D01*
X0105420Y0114101D01*
X0105420Y0113768D01*
X0105086Y0113434D01*
X0104085Y0113434D01*
X0103210Y0113100D02*
X0102543Y0112433D01*
X0101875Y0113100D01*
X0101875Y0114435D01*
X0103210Y0114435D02*
X0103210Y0113100D01*
X0105086Y0113434D02*
X0105420Y0113100D01*
X0105420Y0112767D01*
X0106295Y0113434D02*
X0107630Y0113434D01*
X0107401Y0120433D02*
X0107735Y0120767D01*
X0107735Y0122101D01*
X0107401Y0122435D01*
X0106400Y0122435D01*
X0106400Y0120433D01*
X0107401Y0120433D01*
X0105525Y0120433D02*
X0105525Y0122435D01*
X0104190Y0122435D02*
X0105525Y0120433D01*
X0104190Y0120433D02*
X0104190Y0122435D01*
X0103315Y0122101D02*
X0102981Y0122435D01*
X0102314Y0122435D01*
X0101980Y0122101D01*
X0101980Y0120767D01*
X0102314Y0120433D01*
X0102981Y0120433D01*
X0103315Y0120767D01*
X0103315Y0121434D01*
X0102648Y0121434D01*
D13*
X0101643Y0127590D02*
X0104245Y0129325D01*
X0104245Y0130537D02*
X0104245Y0132271D01*
X0104245Y0131404D02*
X0101643Y0131404D01*
X0102510Y0130537D01*
X0101643Y0129325D02*
X0104245Y0127590D01*
X0120493Y0130522D02*
X0120926Y0130088D01*
X0121794Y0130088D01*
X0122227Y0130522D01*
X0123439Y0130088D02*
X0125174Y0130088D01*
X0124307Y0130088D02*
X0124307Y0132690D01*
X0123439Y0131823D01*
X0122227Y0132257D02*
X0121794Y0132690D01*
X0120926Y0132690D01*
X0120493Y0132257D01*
X0120493Y0130522D01*
X0126386Y0130522D02*
X0126819Y0130088D01*
X0127687Y0130088D01*
X0128120Y0130522D01*
X0128120Y0132257D01*
X0126386Y0130522D01*
X0126386Y0132257D01*
X0126819Y0132690D01*
X0127687Y0132690D01*
X0128120Y0132257D01*
X0137895Y0132233D02*
X0138763Y0132233D01*
X0138329Y0132233D02*
X0138329Y0134835D01*
X0137895Y0134835D02*
X0138763Y0134835D01*
X0139859Y0134402D02*
X0139859Y0132667D01*
X0140293Y0132233D01*
X0141161Y0132233D01*
X0141594Y0132667D01*
X0142806Y0132233D02*
X0144541Y0133968D01*
X0144541Y0134402D01*
X0144107Y0134835D01*
X0143240Y0134835D01*
X0142806Y0134402D01*
X0141594Y0134402D02*
X0141161Y0134835D01*
X0140293Y0134835D01*
X0139859Y0134402D01*
X0142806Y0132233D02*
X0144541Y0132233D01*
X0170895Y0132167D02*
X0171329Y0131733D01*
X0172196Y0131733D01*
X0172630Y0132167D01*
X0173842Y0132167D02*
X0174275Y0131733D01*
X0175143Y0131733D01*
X0175576Y0132167D01*
X0175576Y0133034D01*
X0175143Y0133468D01*
X0174709Y0133468D01*
X0173842Y0133034D01*
X0173842Y0134335D01*
X0175576Y0134335D01*
X0172630Y0133902D02*
X0172196Y0134335D01*
X0171329Y0134335D01*
X0170895Y0133902D01*
X0170895Y0132167D01*
X0201238Y0131560D02*
X0201238Y0129391D01*
X0201671Y0128957D01*
X0202539Y0128957D01*
X0202972Y0129391D01*
X0202972Y0131560D01*
X0204184Y0130692D02*
X0205052Y0131560D01*
X0205052Y0128957D01*
X0205919Y0128957D02*
X0204184Y0128957D01*
X0220895Y0132233D02*
X0220895Y0134835D01*
X0222196Y0134835D01*
X0222630Y0134402D01*
X0222630Y0133534D01*
X0222196Y0133100D01*
X0220895Y0133100D01*
X0221763Y0133100D02*
X0222630Y0132233D01*
X0223842Y0133534D02*
X0225576Y0133534D01*
X0225143Y0132233D02*
X0225143Y0134835D01*
X0223842Y0133534D01*
X0240095Y0123433D02*
X0240095Y0118433D01*
X0240157Y0118431D01*
X0240218Y0118425D01*
X0240279Y0118416D01*
X0240339Y0118403D01*
X0240398Y0118386D01*
X0240456Y0118365D01*
X0240513Y0118341D01*
X0240568Y0118314D01*
X0240621Y0118283D01*
X0240673Y0118249D01*
X0240722Y0118212D01*
X0240769Y0118172D01*
X0240813Y0118129D01*
X0240854Y0118084D01*
X0240893Y0118036D01*
X0240929Y0117985D01*
X0240961Y0117933D01*
X0240990Y0117879D01*
X0241016Y0117823D01*
X0241038Y0117765D01*
X0241057Y0117707D01*
X0241072Y0117647D01*
X0241083Y0117586D01*
X0241091Y0117525D01*
X0241095Y0117464D01*
X0241095Y0117402D01*
X0241091Y0117341D01*
X0241083Y0117280D01*
X0241072Y0117219D01*
X0241057Y0117159D01*
X0241038Y0117101D01*
X0241016Y0117043D01*
X0240990Y0116987D01*
X0240961Y0116933D01*
X0240929Y0116881D01*
X0240893Y0116830D01*
X0240854Y0116782D01*
X0240813Y0116737D01*
X0240769Y0116694D01*
X0240722Y0116654D01*
X0240673Y0116617D01*
X0240621Y0116583D01*
X0240568Y0116552D01*
X0240513Y0116525D01*
X0240456Y0116501D01*
X0240398Y0116480D01*
X0240339Y0116463D01*
X0240279Y0116450D01*
X0240218Y0116441D01*
X0240157Y0116435D01*
X0240095Y0116433D01*
X0240095Y0111433D01*
X0259693Y0110011D02*
X0262295Y0110011D01*
X0262295Y0109144D02*
X0262295Y0110879D01*
X0260095Y0111433D02*
X0260095Y0123433D01*
X0266095Y0126433D02*
X0269095Y0126433D01*
X0267595Y0128433D01*
X0266095Y0126433D01*
X0266319Y0126732D02*
X0268871Y0126732D01*
X0268422Y0127331D02*
X0266768Y0127331D01*
X0267217Y0127929D02*
X0267973Y0127929D01*
X0274595Y0126433D02*
X0277595Y0126433D01*
X0276095Y0128433D01*
X0274595Y0126433D01*
X0274819Y0126732D02*
X0277371Y0126732D01*
X0276922Y0127331D02*
X0275268Y0127331D01*
X0275717Y0127929D02*
X0276473Y0127929D01*
X0277295Y0119914D02*
X0277295Y0118180D01*
X0275560Y0119914D01*
X0275127Y0119914D01*
X0274693Y0119481D01*
X0274693Y0118613D01*
X0275127Y0118180D01*
X0275127Y0116968D02*
X0274693Y0116534D01*
X0274693Y0115233D01*
X0277295Y0115233D01*
X0277295Y0116534D01*
X0276861Y0116968D01*
X0275127Y0116968D01*
X0268795Y0116534D02*
X0268361Y0116968D01*
X0266627Y0116968D01*
X0266193Y0116534D01*
X0266193Y0115233D01*
X0268795Y0115233D01*
X0268795Y0116534D01*
X0268361Y0118180D02*
X0268795Y0118613D01*
X0268795Y0119481D01*
X0268361Y0119914D01*
X0267928Y0119914D01*
X0267494Y0119481D01*
X0267494Y0119047D01*
X0267494Y0119481D02*
X0267060Y0119914D01*
X0266627Y0119914D01*
X0266193Y0119481D01*
X0266193Y0118613D01*
X0266627Y0118180D01*
X0259693Y0110011D02*
X0260560Y0109144D01*
X0260127Y0107932D02*
X0259693Y0107499D01*
X0259693Y0106631D01*
X0260127Y0106197D01*
X0261861Y0106197D01*
X0262295Y0106631D01*
X0262295Y0107499D01*
X0261861Y0107932D01*
X0262295Y0105100D02*
X0262295Y0104233D01*
X0262295Y0104667D02*
X0259693Y0104667D01*
X0259693Y0105100D02*
X0259693Y0104233D01*
X0280143Y0099170D02*
X0280143Y0098737D01*
X0280577Y0098303D01*
X0281444Y0098303D01*
X0281878Y0097869D01*
X0281878Y0097436D01*
X0281444Y0097002D01*
X0280577Y0097002D01*
X0280143Y0097436D01*
X0280143Y0099170D02*
X0280577Y0099604D01*
X0281444Y0099604D01*
X0281878Y0099170D01*
X0283089Y0099170D02*
X0283523Y0099604D01*
X0284390Y0099604D01*
X0284824Y0099170D01*
X0284824Y0098737D01*
X0283089Y0097002D01*
X0284824Y0097002D01*
X0263183Y0090702D02*
X0263183Y0088967D01*
X0262750Y0088533D01*
X0261882Y0088533D01*
X0261449Y0088967D01*
X0261882Y0089834D02*
X0263183Y0089834D01*
X0263183Y0090702D02*
X0262750Y0091135D01*
X0261882Y0091135D01*
X0261449Y0090702D01*
X0261449Y0090268D01*
X0261882Y0089834D01*
X0260237Y0089834D02*
X0259803Y0089400D01*
X0258502Y0089400D01*
X0258502Y0088533D02*
X0258502Y0091135D01*
X0259803Y0091135D01*
X0260237Y0090702D01*
X0260237Y0089834D01*
X0259370Y0089400D02*
X0260237Y0088533D01*
X0254816Y0084635D02*
X0254816Y0082033D01*
X0253949Y0082033D02*
X0255683Y0082033D01*
X0253949Y0083768D02*
X0254816Y0084635D01*
X0252737Y0084202D02*
X0252303Y0084635D01*
X0251436Y0084635D01*
X0251002Y0084202D01*
X0251002Y0082467D01*
X0251436Y0082033D01*
X0252303Y0082033D01*
X0252737Y0082467D01*
X0252737Y0084202D01*
X0251870Y0082900D02*
X0252737Y0082033D01*
X0241523Y0083167D02*
X0241089Y0082733D01*
X0240222Y0082733D01*
X0239788Y0083167D01*
X0241523Y0084902D01*
X0241523Y0083167D01*
X0241523Y0084902D02*
X0241089Y0085335D01*
X0240222Y0085335D01*
X0239788Y0084902D01*
X0239788Y0083167D01*
X0238576Y0082733D02*
X0236842Y0082733D01*
X0237709Y0082733D02*
X0237709Y0085335D01*
X0236842Y0084468D01*
X0235630Y0084902D02*
X0235630Y0084034D01*
X0235196Y0083600D01*
X0233895Y0083600D01*
X0233895Y0082733D02*
X0233895Y0085335D01*
X0235196Y0085335D01*
X0235630Y0084902D01*
X0234763Y0083600D02*
X0235630Y0082733D01*
X0236076Y0073335D02*
X0234342Y0073335D01*
X0234342Y0072034D01*
X0235209Y0072468D01*
X0235643Y0072468D01*
X0236076Y0072034D01*
X0236076Y0071167D01*
X0235643Y0070733D01*
X0234775Y0070733D01*
X0234342Y0071167D01*
X0233130Y0070733D02*
X0232263Y0071600D01*
X0232696Y0071600D02*
X0231395Y0071600D01*
X0231395Y0070733D02*
X0231395Y0073335D01*
X0232696Y0073335D01*
X0233130Y0072902D01*
X0233130Y0072034D01*
X0232696Y0071600D01*
X0221023Y0070233D02*
X0219288Y0070233D01*
X0220156Y0070233D02*
X0220156Y0072835D01*
X0219288Y0071968D01*
X0218076Y0070233D02*
X0216342Y0070233D01*
X0217209Y0070233D02*
X0217209Y0072835D01*
X0216342Y0071968D01*
X0215130Y0072402D02*
X0214696Y0072835D01*
X0213395Y0072835D01*
X0213395Y0070233D01*
X0213395Y0071100D02*
X0214696Y0071100D01*
X0215130Y0071534D01*
X0215130Y0072402D01*
X0214263Y0071100D02*
X0215130Y0070233D01*
X0215288Y0062335D02*
X0215288Y0061034D01*
X0216156Y0061468D01*
X0216589Y0061468D01*
X0217023Y0061034D01*
X0217023Y0060167D01*
X0216589Y0059733D01*
X0215722Y0059733D01*
X0215288Y0060167D01*
X0214076Y0059733D02*
X0212342Y0059733D01*
X0214076Y0061468D01*
X0214076Y0061902D01*
X0213643Y0062335D01*
X0212775Y0062335D01*
X0212342Y0061902D01*
X0211130Y0062335D02*
X0211130Y0060167D01*
X0210696Y0059733D01*
X0209829Y0059733D01*
X0209395Y0060167D01*
X0209395Y0062335D01*
X0215288Y0062335D02*
X0217023Y0062335D01*
X0250893Y0054654D02*
X0253495Y0054654D01*
X0253495Y0053787D02*
X0253495Y0055521D01*
X0251760Y0053787D02*
X0250893Y0054654D01*
X0252194Y0052575D02*
X0252194Y0050840D01*
X0250893Y0052141D01*
X0253495Y0052141D01*
X0253061Y0049628D02*
X0250893Y0049628D01*
X0250893Y0047894D02*
X0253061Y0047894D01*
X0253495Y0048327D01*
X0253495Y0049195D01*
X0253061Y0049628D01*
X0250878Y0069433D02*
X0250883Y0069868D01*
X0250899Y0070302D01*
X0250926Y0070736D01*
X0250963Y0071170D01*
X0251011Y0071602D01*
X0251070Y0072033D01*
X0251139Y0072462D01*
X0251218Y0072889D01*
X0251308Y0073315D01*
X0251409Y0073738D01*
X0251520Y0074158D01*
X0251641Y0074576D01*
X0251772Y0074990D01*
X0251914Y0075402D01*
X0252065Y0075809D01*
X0252227Y0076213D01*
X0252398Y0076613D01*
X0252579Y0077008D01*
X0252770Y0077399D01*
X0252970Y0077785D01*
X0253180Y0078166D01*
X0253399Y0078541D01*
X0253627Y0078912D01*
X0253864Y0079276D01*
X0254110Y0079635D01*
X0254365Y0079987D01*
X0254628Y0080333D01*
X0254900Y0080673D01*
X0255180Y0081005D01*
X0255468Y0081331D01*
X0255764Y0081650D01*
X0256067Y0081961D01*
X0256378Y0082264D01*
X0256697Y0082560D01*
X0257023Y0082848D01*
X0257355Y0083128D01*
X0257695Y0083400D01*
X0258041Y0083663D01*
X0258393Y0083918D01*
X0258752Y0084164D01*
X0259116Y0084401D01*
X0259487Y0084629D01*
X0259862Y0084848D01*
X0260243Y0085058D01*
X0260629Y0085258D01*
X0261020Y0085449D01*
X0261415Y0085630D01*
X0261815Y0085801D01*
X0262219Y0085963D01*
X0262626Y0086114D01*
X0263038Y0086256D01*
X0263452Y0086387D01*
X0263870Y0086508D01*
X0264290Y0086619D01*
X0264713Y0086720D01*
X0265139Y0086810D01*
X0265566Y0086889D01*
X0265995Y0086958D01*
X0266426Y0087017D01*
X0266858Y0087065D01*
X0267292Y0087102D01*
X0267726Y0087129D01*
X0268160Y0087145D01*
X0268595Y0087150D01*
X0269030Y0087145D01*
X0269464Y0087129D01*
X0269898Y0087102D01*
X0270332Y0087065D01*
X0270764Y0087017D01*
X0271195Y0086958D01*
X0271624Y0086889D01*
X0272051Y0086810D01*
X0272477Y0086720D01*
X0272900Y0086619D01*
X0273320Y0086508D01*
X0273738Y0086387D01*
X0274152Y0086256D01*
X0274564Y0086114D01*
X0274971Y0085963D01*
X0275375Y0085801D01*
X0275775Y0085630D01*
X0276170Y0085449D01*
X0276561Y0085258D01*
X0276947Y0085058D01*
X0277328Y0084848D01*
X0277703Y0084629D01*
X0278074Y0084401D01*
X0278438Y0084164D01*
X0278797Y0083918D01*
X0279149Y0083663D01*
X0279495Y0083400D01*
X0279835Y0083128D01*
X0280167Y0082848D01*
X0280493Y0082560D01*
X0280812Y0082264D01*
X0281123Y0081961D01*
X0281426Y0081650D01*
X0281722Y0081331D01*
X0282010Y0081005D01*
X0282290Y0080673D01*
X0282562Y0080333D01*
X0282825Y0079987D01*
X0283080Y0079635D01*
X0283326Y0079276D01*
X0283563Y0078912D01*
X0283791Y0078541D01*
X0284010Y0078166D01*
X0284220Y0077785D01*
X0284420Y0077399D01*
X0284611Y0077008D01*
X0284792Y0076613D01*
X0284963Y0076213D01*
X0285125Y0075809D01*
X0285276Y0075402D01*
X0285418Y0074990D01*
X0285549Y0074576D01*
X0285670Y0074158D01*
X0285781Y0073738D01*
X0285882Y0073315D01*
X0285972Y0072889D01*
X0286051Y0072462D01*
X0286120Y0072033D01*
X0286179Y0071602D01*
X0286227Y0071170D01*
X0286264Y0070736D01*
X0286291Y0070302D01*
X0286307Y0069868D01*
X0286312Y0069433D01*
X0286307Y0068998D01*
X0286291Y0068564D01*
X0286264Y0068130D01*
X0286227Y0067696D01*
X0286179Y0067264D01*
X0286120Y0066833D01*
X0286051Y0066404D01*
X0285972Y0065977D01*
X0285882Y0065551D01*
X0285781Y0065128D01*
X0285670Y0064708D01*
X0285549Y0064290D01*
X0285418Y0063876D01*
X0285276Y0063464D01*
X0285125Y0063057D01*
X0284963Y0062653D01*
X0284792Y0062253D01*
X0284611Y0061858D01*
X0284420Y0061467D01*
X0284220Y0061081D01*
X0284010Y0060700D01*
X0283791Y0060325D01*
X0283563Y0059954D01*
X0283326Y0059590D01*
X0283080Y0059231D01*
X0282825Y0058879D01*
X0282562Y0058533D01*
X0282290Y0058193D01*
X0282010Y0057861D01*
X0281722Y0057535D01*
X0281426Y0057216D01*
X0281123Y0056905D01*
X0280812Y0056602D01*
X0280493Y0056306D01*
X0280167Y0056018D01*
X0279835Y0055738D01*
X0279495Y0055466D01*
X0279149Y0055203D01*
X0278797Y0054948D01*
X0278438Y0054702D01*
X0278074Y0054465D01*
X0277703Y0054237D01*
X0277328Y0054018D01*
X0276947Y0053808D01*
X0276561Y0053608D01*
X0276170Y0053417D01*
X0275775Y0053236D01*
X0275375Y0053065D01*
X0274971Y0052903D01*
X0274564Y0052752D01*
X0274152Y0052610D01*
X0273738Y0052479D01*
X0273320Y0052358D01*
X0272900Y0052247D01*
X0272477Y0052146D01*
X0272051Y0052056D01*
X0271624Y0051977D01*
X0271195Y0051908D01*
X0270764Y0051849D01*
X0270332Y0051801D01*
X0269898Y0051764D01*
X0269464Y0051737D01*
X0269030Y0051721D01*
X0268595Y0051716D01*
X0268160Y0051721D01*
X0267726Y0051737D01*
X0267292Y0051764D01*
X0266858Y0051801D01*
X0266426Y0051849D01*
X0265995Y0051908D01*
X0265566Y0051977D01*
X0265139Y0052056D01*
X0264713Y0052146D01*
X0264290Y0052247D01*
X0263870Y0052358D01*
X0263452Y0052479D01*
X0263038Y0052610D01*
X0262626Y0052752D01*
X0262219Y0052903D01*
X0261815Y0053065D01*
X0261415Y0053236D01*
X0261020Y0053417D01*
X0260629Y0053608D01*
X0260243Y0053808D01*
X0259862Y0054018D01*
X0259487Y0054237D01*
X0259116Y0054465D01*
X0258752Y0054702D01*
X0258393Y0054948D01*
X0258041Y0055203D01*
X0257695Y0055466D01*
X0257355Y0055738D01*
X0257023Y0056018D01*
X0256697Y0056306D01*
X0256378Y0056602D01*
X0256067Y0056905D01*
X0255764Y0057216D01*
X0255468Y0057535D01*
X0255180Y0057861D01*
X0254900Y0058193D01*
X0254628Y0058533D01*
X0254365Y0058879D01*
X0254110Y0059231D01*
X0253864Y0059590D01*
X0253627Y0059954D01*
X0253399Y0060325D01*
X0253180Y0060700D01*
X0252970Y0061081D01*
X0252770Y0061467D01*
X0252579Y0061858D01*
X0252398Y0062253D01*
X0252227Y0062653D01*
X0252065Y0063057D01*
X0251914Y0063464D01*
X0251772Y0063876D01*
X0251641Y0064290D01*
X0251520Y0064708D01*
X0251409Y0065128D01*
X0251308Y0065551D01*
X0251218Y0065977D01*
X0251139Y0066404D01*
X0251070Y0066833D01*
X0251011Y0067264D01*
X0250963Y0067696D01*
X0250926Y0068130D01*
X0250899Y0068564D01*
X0250883Y0068998D01*
X0250878Y0069433D01*
X0287020Y0075329D02*
X0288755Y0075329D01*
X0289966Y0075762D02*
X0290400Y0075329D01*
X0291267Y0075329D01*
X0291701Y0075762D01*
X0291701Y0076196D01*
X0291267Y0076630D01*
X0290400Y0076630D01*
X0289966Y0077063D01*
X0289966Y0077497D01*
X0290400Y0077931D01*
X0291267Y0077931D01*
X0291701Y0077497D01*
X0292913Y0077063D02*
X0293780Y0077931D01*
X0293780Y0075329D01*
X0292913Y0075329D02*
X0294648Y0075329D01*
X0287020Y0075329D02*
X0287020Y0077931D01*
X0168668Y0049324D02*
X0166933Y0049324D01*
X0166933Y0048023D01*
X0167800Y0048457D01*
X0168234Y0048457D01*
X0168668Y0048023D01*
X0168668Y0047156D01*
X0168234Y0046722D01*
X0167367Y0046722D01*
X0166933Y0047156D01*
X0165721Y0046722D02*
X0163986Y0049324D01*
X0165721Y0049324D02*
X0163986Y0046722D01*
X0148502Y0051710D02*
X0148502Y0054312D01*
X0147201Y0053011D01*
X0148935Y0053011D01*
X0145989Y0052144D02*
X0145555Y0051710D01*
X0144688Y0051710D01*
X0144254Y0052144D01*
X0144254Y0054312D01*
X0145989Y0054312D02*
X0145989Y0052144D01*
X0118021Y0055572D02*
X0116287Y0055572D01*
X0118021Y0057306D01*
X0118021Y0057740D01*
X0117588Y0058174D01*
X0116720Y0058174D01*
X0116287Y0057740D01*
X0115075Y0058174D02*
X0113340Y0055572D01*
X0115075Y0055572D02*
X0113340Y0058174D01*
X0115827Y0061840D02*
X0117561Y0061840D01*
X0117995Y0062274D01*
X0117995Y0063141D01*
X0117561Y0063575D01*
X0117995Y0064787D02*
X0116260Y0066521D01*
X0115827Y0066521D01*
X0115393Y0066088D01*
X0115393Y0065220D01*
X0115827Y0064787D01*
X0115827Y0063575D02*
X0115393Y0063141D01*
X0115393Y0062274D01*
X0115827Y0061840D01*
X0117995Y0064787D02*
X0117995Y0066521D01*
X0103295Y0061481D02*
X0100693Y0061481D01*
X0101994Y0060180D01*
X0101994Y0061914D01*
X0096995Y0060800D02*
X0096995Y0059933D01*
X0096561Y0059499D01*
X0096561Y0058287D02*
X0094393Y0058287D01*
X0094827Y0059499D02*
X0094393Y0059933D01*
X0094393Y0060800D01*
X0094827Y0061234D01*
X0095260Y0061234D01*
X0095694Y0060800D01*
X0096128Y0061234D01*
X0096561Y0061234D01*
X0096995Y0060800D01*
X0095694Y0060800D02*
X0095694Y0060367D01*
X0096561Y0058287D02*
X0096995Y0057854D01*
X0096995Y0056986D01*
X0096561Y0056553D01*
X0094393Y0056553D01*
X0100693Y0057667D02*
X0101127Y0057233D01*
X0102861Y0057233D01*
X0103295Y0057667D01*
X0103295Y0058534D01*
X0102861Y0058968D01*
X0101127Y0058968D02*
X0100693Y0058534D01*
X0100693Y0057667D01*
X0097250Y0049135D02*
X0096382Y0049135D01*
X0095949Y0048702D01*
X0095949Y0048268D01*
X0096382Y0047834D01*
X0097250Y0047834D01*
X0097683Y0047400D01*
X0097683Y0046967D01*
X0097250Y0046533D01*
X0096382Y0046533D01*
X0095949Y0046967D01*
X0095949Y0047400D01*
X0096382Y0047834D01*
X0097250Y0047834D02*
X0097683Y0048268D01*
X0097683Y0048702D01*
X0097250Y0049135D01*
X0094737Y0048702D02*
X0094737Y0047834D01*
X0094303Y0047400D01*
X0093002Y0047400D01*
X0093002Y0046533D02*
X0093002Y0049135D01*
X0094303Y0049135D01*
X0094737Y0048702D01*
X0093870Y0047400D02*
X0094737Y0046533D01*
X0086223Y0048139D02*
X0084488Y0048139D01*
X0085789Y0049440D01*
X0085789Y0046838D01*
X0083276Y0046838D02*
X0081542Y0046838D01*
X0082409Y0046838D02*
X0082409Y0049440D01*
X0081542Y0048573D01*
X0080330Y0049006D02*
X0079896Y0049440D01*
X0079029Y0049440D01*
X0078595Y0049006D01*
X0078595Y0047271D01*
X0079029Y0046838D01*
X0079896Y0046838D01*
X0080330Y0047271D01*
X0072076Y0046733D02*
X0070342Y0046733D01*
X0072076Y0048468D01*
X0072076Y0048902D01*
X0071643Y0049335D01*
X0070775Y0049335D01*
X0070342Y0048902D01*
X0069130Y0048902D02*
X0069130Y0048034D01*
X0068696Y0047600D01*
X0067395Y0047600D01*
X0067395Y0046733D02*
X0067395Y0049335D01*
X0068696Y0049335D01*
X0069130Y0048902D01*
X0068263Y0047600D02*
X0069130Y0046733D01*
X0063089Y0066233D02*
X0062222Y0066233D01*
X0061788Y0066667D01*
X0061788Y0068402D01*
X0062222Y0068835D01*
X0063089Y0068835D01*
X0063523Y0068402D01*
X0063523Y0067534D02*
X0062656Y0067534D01*
X0063523Y0067534D02*
X0063523Y0066667D01*
X0063089Y0066233D01*
X0060576Y0066233D02*
X0060576Y0068835D01*
X0060576Y0067534D02*
X0058842Y0067534D01*
X0058842Y0066233D02*
X0058842Y0068835D01*
X0057630Y0068402D02*
X0057196Y0068835D01*
X0056329Y0068835D01*
X0055895Y0068402D01*
X0055895Y0066667D01*
X0056329Y0066233D01*
X0057196Y0066233D01*
X0057630Y0066667D01*
X0049595Y0067933D02*
X0047595Y0066433D01*
X0047595Y0069433D01*
X0049595Y0067933D01*
X0049402Y0068078D02*
X0047595Y0068078D01*
X0047595Y0068677D02*
X0048604Y0068677D01*
X0047806Y0069275D02*
X0047595Y0069275D01*
X0047595Y0067479D02*
X0048990Y0067479D01*
X0048192Y0066881D02*
X0047595Y0066881D01*
X0069732Y0083086D02*
X0070166Y0082652D01*
X0071901Y0082652D01*
X0072335Y0083086D01*
X0072335Y0083953D01*
X0071901Y0084387D01*
X0071901Y0085599D02*
X0072335Y0086033D01*
X0072335Y0086900D01*
X0071901Y0087334D01*
X0071467Y0087334D01*
X0071033Y0086900D01*
X0071033Y0085599D01*
X0071901Y0085599D01*
X0071033Y0085599D02*
X0070166Y0086466D01*
X0069732Y0087334D01*
X0070166Y0084387D02*
X0069732Y0083953D01*
X0069732Y0083086D01*
X0081693Y0082981D02*
X0081693Y0082113D01*
X0082127Y0081680D01*
X0082127Y0080468D02*
X0081693Y0080034D01*
X0081693Y0079167D01*
X0082127Y0078733D01*
X0083861Y0078733D01*
X0084295Y0079167D01*
X0084295Y0080034D01*
X0083861Y0080468D01*
X0083861Y0081680D02*
X0084295Y0082113D01*
X0084295Y0082981D01*
X0083861Y0083414D01*
X0083428Y0083414D01*
X0082994Y0082981D01*
X0082994Y0082547D01*
X0082994Y0082981D02*
X0082560Y0083414D01*
X0082127Y0083414D01*
X0081693Y0082981D01*
X0090095Y0089401D02*
X0090528Y0088967D01*
X0092263Y0088967D01*
X0092697Y0089401D01*
X0092697Y0090268D01*
X0092263Y0090702D01*
X0092263Y0091914D02*
X0091829Y0091914D01*
X0091396Y0092348D01*
X0091396Y0093215D01*
X0091829Y0093649D01*
X0092263Y0093649D01*
X0092697Y0093215D01*
X0092697Y0092348D01*
X0092263Y0091914D01*
X0091396Y0092348D02*
X0090962Y0091914D01*
X0090528Y0091914D01*
X0090095Y0092348D01*
X0090095Y0093215D01*
X0090528Y0093649D01*
X0090962Y0093649D01*
X0091396Y0093215D01*
X0090528Y0090702D02*
X0090095Y0090268D01*
X0090095Y0089401D01*
X0100433Y0080365D02*
X0100867Y0080365D01*
X0102602Y0078630D01*
X0103035Y0078630D01*
X0102602Y0077419D02*
X0103035Y0076985D01*
X0103035Y0076118D01*
X0102602Y0075684D01*
X0100867Y0075684D01*
X0100433Y0076118D01*
X0100433Y0076985D01*
X0100867Y0077419D01*
X0100433Y0078630D02*
X0100433Y0080365D01*
X0110193Y0081667D02*
X0110193Y0082534D01*
X0110627Y0082968D01*
X0111060Y0084180D02*
X0110193Y0085047D01*
X0112795Y0085047D01*
X0112795Y0084180D02*
X0112795Y0085914D01*
X0112361Y0082968D02*
X0112795Y0082534D01*
X0112795Y0081667D01*
X0112361Y0081233D01*
X0110627Y0081233D01*
X0110193Y0081667D01*
X0110303Y0099533D02*
X0110737Y0099967D01*
X0110737Y0101702D01*
X0110303Y0102135D01*
X0109002Y0102135D01*
X0109002Y0099533D01*
X0110303Y0099533D01*
X0111949Y0099533D02*
X0113683Y0099533D01*
X0112816Y0099533D02*
X0112816Y0102135D01*
X0111949Y0101268D01*
X0131183Y0109167D02*
X0131616Y0108733D01*
X0132484Y0108733D01*
X0132917Y0109167D01*
X0132917Y0111335D01*
X0134129Y0110902D02*
X0134563Y0111335D01*
X0135430Y0111335D01*
X0135864Y0110902D01*
X0135864Y0110468D01*
X0134129Y0108733D01*
X0135864Y0108733D01*
X0131183Y0109167D02*
X0131183Y0111335D01*
X0145002Y0105635D02*
X0146303Y0105635D01*
X0146737Y0105202D01*
X0146737Y0104334D01*
X0146303Y0103900D01*
X0145002Y0103900D01*
X0145002Y0103033D02*
X0145002Y0105635D01*
X0145870Y0103900D02*
X0146737Y0103033D01*
X0147949Y0103467D02*
X0148382Y0103033D01*
X0149250Y0103033D01*
X0149683Y0103467D01*
X0149683Y0103900D01*
X0149250Y0104334D01*
X0148816Y0104334D01*
X0149250Y0104334D02*
X0149683Y0104768D01*
X0149683Y0105202D01*
X0149250Y0105635D01*
X0148382Y0105635D01*
X0147949Y0105202D01*
X0154395Y0099835D02*
X0155696Y0099835D01*
X0156130Y0099402D01*
X0156130Y0098534D01*
X0155696Y0098100D01*
X0154395Y0098100D01*
X0154395Y0097233D02*
X0154395Y0099835D01*
X0155263Y0098100D02*
X0156130Y0097233D01*
X0157342Y0097233D02*
X0159076Y0097233D01*
X0158209Y0097233D02*
X0158209Y0099835D01*
X0157342Y0098968D01*
X0158576Y0093835D02*
X0157709Y0093402D01*
X0156842Y0092534D01*
X0158143Y0092534D01*
X0158576Y0092100D01*
X0158576Y0091667D01*
X0158143Y0091233D01*
X0157275Y0091233D01*
X0156842Y0091667D01*
X0156842Y0092534D01*
X0155630Y0092534D02*
X0155196Y0092100D01*
X0153895Y0092100D01*
X0153895Y0091233D02*
X0153895Y0093835D01*
X0155196Y0093835D01*
X0155630Y0093402D01*
X0155630Y0092534D01*
X0154763Y0092100D02*
X0155630Y0091233D01*
X0157827Y0108340D02*
X0159561Y0108340D01*
X0159995Y0108774D01*
X0159995Y0109641D01*
X0159561Y0110075D01*
X0159561Y0111287D02*
X0159995Y0111720D01*
X0159995Y0112588D01*
X0159561Y0113021D01*
X0157827Y0113021D01*
X0157393Y0112588D01*
X0157393Y0111720D01*
X0157827Y0111287D01*
X0158260Y0111287D01*
X0158694Y0111720D01*
X0158694Y0113021D01*
X0157827Y0110075D02*
X0157393Y0109641D01*
X0157393Y0108774D01*
X0157827Y0108340D01*
X0066335Y0107544D02*
X0066335Y0106676D01*
X0065901Y0106243D01*
X0065033Y0107110D02*
X0065033Y0107544D01*
X0065467Y0107977D01*
X0065901Y0107977D01*
X0066335Y0107544D01*
X0065033Y0107544D02*
X0064600Y0107977D01*
X0064166Y0107977D01*
X0063732Y0107544D01*
X0063732Y0106676D01*
X0064166Y0106243D01*
X0063732Y0105031D02*
X0066335Y0103296D01*
X0066335Y0105031D02*
X0063732Y0103296D01*
X0058717Y0112891D02*
X0056982Y0112891D01*
X0056982Y0115493D01*
X0050509Y0115360D02*
X0049955Y0115360D01*
X0050509Y0115776D02*
X0048509Y0114276D01*
X0050509Y0112776D01*
X0050509Y0115776D01*
X0050509Y0114762D02*
X0049157Y0114762D01*
X0048658Y0114163D02*
X0050509Y0114163D01*
X0050509Y0113565D02*
X0049456Y0113565D01*
X0050254Y0112966D02*
X0050509Y0112966D01*
X0063893Y0126840D02*
X0063893Y0128141D01*
X0064327Y0128575D01*
X0065194Y0128575D01*
X0065628Y0128141D01*
X0065628Y0126840D01*
X0066495Y0126840D02*
X0063893Y0126840D01*
X0065628Y0127707D02*
X0066495Y0128575D01*
X0066495Y0129787D02*
X0066061Y0129787D01*
X0064327Y0131521D01*
X0063893Y0131521D01*
X0063893Y0129787D01*
D14*
X0068938Y0094453D02*
X0072938Y0094453D01*
X0081095Y0090433D02*
X0085095Y0090433D01*
X0094154Y0093197D02*
X0098154Y0093197D01*
X0156595Y0119933D02*
X0160595Y0119933D01*
X0163095Y0129433D02*
X0163095Y0133433D01*
D15*
X0048580Y0114276D03*
X0049523Y0067933D03*
D16*
X0041221Y0055933D02*
X0041223Y0056126D01*
X0041230Y0056319D01*
X0041242Y0056512D01*
X0041259Y0056705D01*
X0041280Y0056897D01*
X0041306Y0057088D01*
X0041337Y0057279D01*
X0041372Y0057469D01*
X0041412Y0057658D01*
X0041457Y0057846D01*
X0041506Y0058033D01*
X0041560Y0058219D01*
X0041618Y0058403D01*
X0041681Y0058586D01*
X0041749Y0058767D01*
X0041820Y0058946D01*
X0041897Y0059124D01*
X0041977Y0059300D01*
X0042062Y0059473D01*
X0042151Y0059645D01*
X0042244Y0059814D01*
X0042341Y0059981D01*
X0042443Y0060146D01*
X0042548Y0060308D01*
X0042657Y0060467D01*
X0042771Y0060624D01*
X0042888Y0060777D01*
X0043008Y0060928D01*
X0043133Y0061076D01*
X0043261Y0061221D01*
X0043392Y0061362D01*
X0043527Y0061501D01*
X0043666Y0061636D01*
X0043807Y0061767D01*
X0043952Y0061895D01*
X0044100Y0062020D01*
X0044251Y0062140D01*
X0044404Y0062257D01*
X0044561Y0062371D01*
X0044720Y0062480D01*
X0044882Y0062585D01*
X0045047Y0062687D01*
X0045214Y0062784D01*
X0045383Y0062877D01*
X0045555Y0062966D01*
X0045728Y0063051D01*
X0045904Y0063131D01*
X0046082Y0063208D01*
X0046261Y0063279D01*
X0046442Y0063347D01*
X0046625Y0063410D01*
X0046809Y0063468D01*
X0046995Y0063522D01*
X0047182Y0063571D01*
X0047370Y0063616D01*
X0047559Y0063656D01*
X0047749Y0063691D01*
X0047940Y0063722D01*
X0048131Y0063748D01*
X0048323Y0063769D01*
X0048516Y0063786D01*
X0048709Y0063798D01*
X0048902Y0063805D01*
X0049095Y0063807D01*
X0049288Y0063805D01*
X0049481Y0063798D01*
X0049674Y0063786D01*
X0049867Y0063769D01*
X0050059Y0063748D01*
X0050250Y0063722D01*
X0050441Y0063691D01*
X0050631Y0063656D01*
X0050820Y0063616D01*
X0051008Y0063571D01*
X0051195Y0063522D01*
X0051381Y0063468D01*
X0051565Y0063410D01*
X0051748Y0063347D01*
X0051929Y0063279D01*
X0052108Y0063208D01*
X0052286Y0063131D01*
X0052462Y0063051D01*
X0052635Y0062966D01*
X0052807Y0062877D01*
X0052976Y0062784D01*
X0053143Y0062687D01*
X0053308Y0062585D01*
X0053470Y0062480D01*
X0053629Y0062371D01*
X0053786Y0062257D01*
X0053939Y0062140D01*
X0054090Y0062020D01*
X0054238Y0061895D01*
X0054383Y0061767D01*
X0054524Y0061636D01*
X0054663Y0061501D01*
X0054798Y0061362D01*
X0054929Y0061221D01*
X0055057Y0061076D01*
X0055182Y0060928D01*
X0055302Y0060777D01*
X0055419Y0060624D01*
X0055533Y0060467D01*
X0055642Y0060308D01*
X0055747Y0060146D01*
X0055849Y0059981D01*
X0055946Y0059814D01*
X0056039Y0059645D01*
X0056128Y0059473D01*
X0056213Y0059300D01*
X0056293Y0059124D01*
X0056370Y0058946D01*
X0056441Y0058767D01*
X0056509Y0058586D01*
X0056572Y0058403D01*
X0056630Y0058219D01*
X0056684Y0058033D01*
X0056733Y0057846D01*
X0056778Y0057658D01*
X0056818Y0057469D01*
X0056853Y0057279D01*
X0056884Y0057088D01*
X0056910Y0056897D01*
X0056931Y0056705D01*
X0056948Y0056512D01*
X0056960Y0056319D01*
X0056967Y0056126D01*
X0056969Y0055933D01*
X0056967Y0055740D01*
X0056960Y0055547D01*
X0056948Y0055354D01*
X0056931Y0055161D01*
X0056910Y0054969D01*
X0056884Y0054778D01*
X0056853Y0054587D01*
X0056818Y0054397D01*
X0056778Y0054208D01*
X0056733Y0054020D01*
X0056684Y0053833D01*
X0056630Y0053647D01*
X0056572Y0053463D01*
X0056509Y0053280D01*
X0056441Y0053099D01*
X0056370Y0052920D01*
X0056293Y0052742D01*
X0056213Y0052566D01*
X0056128Y0052393D01*
X0056039Y0052221D01*
X0055946Y0052052D01*
X0055849Y0051885D01*
X0055747Y0051720D01*
X0055642Y0051558D01*
X0055533Y0051399D01*
X0055419Y0051242D01*
X0055302Y0051089D01*
X0055182Y0050938D01*
X0055057Y0050790D01*
X0054929Y0050645D01*
X0054798Y0050504D01*
X0054663Y0050365D01*
X0054524Y0050230D01*
X0054383Y0050099D01*
X0054238Y0049971D01*
X0054090Y0049846D01*
X0053939Y0049726D01*
X0053786Y0049609D01*
X0053629Y0049495D01*
X0053470Y0049386D01*
X0053308Y0049281D01*
X0053143Y0049179D01*
X0052976Y0049082D01*
X0052807Y0048989D01*
X0052635Y0048900D01*
X0052462Y0048815D01*
X0052286Y0048735D01*
X0052108Y0048658D01*
X0051929Y0048587D01*
X0051748Y0048519D01*
X0051565Y0048456D01*
X0051381Y0048398D01*
X0051195Y0048344D01*
X0051008Y0048295D01*
X0050820Y0048250D01*
X0050631Y0048210D01*
X0050441Y0048175D01*
X0050250Y0048144D01*
X0050059Y0048118D01*
X0049867Y0048097D01*
X0049674Y0048080D01*
X0049481Y0048068D01*
X0049288Y0048061D01*
X0049095Y0048059D01*
X0048902Y0048061D01*
X0048709Y0048068D01*
X0048516Y0048080D01*
X0048323Y0048097D01*
X0048131Y0048118D01*
X0047940Y0048144D01*
X0047749Y0048175D01*
X0047559Y0048210D01*
X0047370Y0048250D01*
X0047182Y0048295D01*
X0046995Y0048344D01*
X0046809Y0048398D01*
X0046625Y0048456D01*
X0046442Y0048519D01*
X0046261Y0048587D01*
X0046082Y0048658D01*
X0045904Y0048735D01*
X0045728Y0048815D01*
X0045555Y0048900D01*
X0045383Y0048989D01*
X0045214Y0049082D01*
X0045047Y0049179D01*
X0044882Y0049281D01*
X0044720Y0049386D01*
X0044561Y0049495D01*
X0044404Y0049609D01*
X0044251Y0049726D01*
X0044100Y0049846D01*
X0043952Y0049971D01*
X0043807Y0050099D01*
X0043666Y0050230D01*
X0043527Y0050365D01*
X0043392Y0050504D01*
X0043261Y0050645D01*
X0043133Y0050790D01*
X0043008Y0050938D01*
X0042888Y0051089D01*
X0042771Y0051242D01*
X0042657Y0051399D01*
X0042548Y0051558D01*
X0042443Y0051720D01*
X0042341Y0051885D01*
X0042244Y0052052D01*
X0042151Y0052221D01*
X0042062Y0052393D01*
X0041977Y0052566D01*
X0041897Y0052742D01*
X0041820Y0052920D01*
X0041749Y0053099D01*
X0041681Y0053280D01*
X0041618Y0053463D01*
X0041560Y0053647D01*
X0041506Y0053833D01*
X0041457Y0054020D01*
X0041412Y0054208D01*
X0041372Y0054397D01*
X0041337Y0054587D01*
X0041306Y0054778D01*
X0041280Y0054969D01*
X0041259Y0055161D01*
X0041242Y0055354D01*
X0041230Y0055547D01*
X0041223Y0055740D01*
X0041221Y0055933D01*
X0089099Y0063283D02*
X0089099Y0069583D01*
X0102091Y0069583D02*
X0102091Y0063283D01*
X0097170Y0062299D02*
X0094020Y0062299D01*
X0107658Y0092677D02*
X0114532Y0092677D01*
X0112276Y0095433D02*
X0109914Y0093858D01*
X0109914Y0097008D01*
X0112276Y0095433D01*
X0111489Y0095433D02*
X0110308Y0096220D01*
X0110308Y0094646D01*
X0111489Y0095433D01*
X0111477Y0095441D02*
X0110308Y0095441D01*
X0107658Y0098189D02*
X0114532Y0098189D01*
X0126599Y0097283D02*
X0126599Y0103583D01*
X0139591Y0103583D02*
X0139591Y0097283D01*
X0134670Y0096299D02*
X0131520Y0096299D01*
X0099906Y0108575D02*
X0099906Y0126291D01*
X0086127Y0133181D02*
X0070379Y0133181D01*
X0070379Y0129835D01*
X0080221Y0129835D01*
X0080221Y0124323D01*
X0080221Y0110543D02*
X0080221Y0105031D01*
X0070379Y0105031D01*
X0070379Y0101685D01*
X0086127Y0101685D01*
X0041221Y0125933D02*
X0041223Y0126126D01*
X0041230Y0126319D01*
X0041242Y0126512D01*
X0041259Y0126705D01*
X0041280Y0126897D01*
X0041306Y0127088D01*
X0041337Y0127279D01*
X0041372Y0127469D01*
X0041412Y0127658D01*
X0041457Y0127846D01*
X0041506Y0128033D01*
X0041560Y0128219D01*
X0041618Y0128403D01*
X0041681Y0128586D01*
X0041749Y0128767D01*
X0041820Y0128946D01*
X0041897Y0129124D01*
X0041977Y0129300D01*
X0042062Y0129473D01*
X0042151Y0129645D01*
X0042244Y0129814D01*
X0042341Y0129981D01*
X0042443Y0130146D01*
X0042548Y0130308D01*
X0042657Y0130467D01*
X0042771Y0130624D01*
X0042888Y0130777D01*
X0043008Y0130928D01*
X0043133Y0131076D01*
X0043261Y0131221D01*
X0043392Y0131362D01*
X0043527Y0131501D01*
X0043666Y0131636D01*
X0043807Y0131767D01*
X0043952Y0131895D01*
X0044100Y0132020D01*
X0044251Y0132140D01*
X0044404Y0132257D01*
X0044561Y0132371D01*
X0044720Y0132480D01*
X0044882Y0132585D01*
X0045047Y0132687D01*
X0045214Y0132784D01*
X0045383Y0132877D01*
X0045555Y0132966D01*
X0045728Y0133051D01*
X0045904Y0133131D01*
X0046082Y0133208D01*
X0046261Y0133279D01*
X0046442Y0133347D01*
X0046625Y0133410D01*
X0046809Y0133468D01*
X0046995Y0133522D01*
X0047182Y0133571D01*
X0047370Y0133616D01*
X0047559Y0133656D01*
X0047749Y0133691D01*
X0047940Y0133722D01*
X0048131Y0133748D01*
X0048323Y0133769D01*
X0048516Y0133786D01*
X0048709Y0133798D01*
X0048902Y0133805D01*
X0049095Y0133807D01*
X0049288Y0133805D01*
X0049481Y0133798D01*
X0049674Y0133786D01*
X0049867Y0133769D01*
X0050059Y0133748D01*
X0050250Y0133722D01*
X0050441Y0133691D01*
X0050631Y0133656D01*
X0050820Y0133616D01*
X0051008Y0133571D01*
X0051195Y0133522D01*
X0051381Y0133468D01*
X0051565Y0133410D01*
X0051748Y0133347D01*
X0051929Y0133279D01*
X0052108Y0133208D01*
X0052286Y0133131D01*
X0052462Y0133051D01*
X0052635Y0132966D01*
X0052807Y0132877D01*
X0052976Y0132784D01*
X0053143Y0132687D01*
X0053308Y0132585D01*
X0053470Y0132480D01*
X0053629Y0132371D01*
X0053786Y0132257D01*
X0053939Y0132140D01*
X0054090Y0132020D01*
X0054238Y0131895D01*
X0054383Y0131767D01*
X0054524Y0131636D01*
X0054663Y0131501D01*
X0054798Y0131362D01*
X0054929Y0131221D01*
X0055057Y0131076D01*
X0055182Y0130928D01*
X0055302Y0130777D01*
X0055419Y0130624D01*
X0055533Y0130467D01*
X0055642Y0130308D01*
X0055747Y0130146D01*
X0055849Y0129981D01*
X0055946Y0129814D01*
X0056039Y0129645D01*
X0056128Y0129473D01*
X0056213Y0129300D01*
X0056293Y0129124D01*
X0056370Y0128946D01*
X0056441Y0128767D01*
X0056509Y0128586D01*
X0056572Y0128403D01*
X0056630Y0128219D01*
X0056684Y0128033D01*
X0056733Y0127846D01*
X0056778Y0127658D01*
X0056818Y0127469D01*
X0056853Y0127279D01*
X0056884Y0127088D01*
X0056910Y0126897D01*
X0056931Y0126705D01*
X0056948Y0126512D01*
X0056960Y0126319D01*
X0056967Y0126126D01*
X0056969Y0125933D01*
X0056967Y0125740D01*
X0056960Y0125547D01*
X0056948Y0125354D01*
X0056931Y0125161D01*
X0056910Y0124969D01*
X0056884Y0124778D01*
X0056853Y0124587D01*
X0056818Y0124397D01*
X0056778Y0124208D01*
X0056733Y0124020D01*
X0056684Y0123833D01*
X0056630Y0123647D01*
X0056572Y0123463D01*
X0056509Y0123280D01*
X0056441Y0123099D01*
X0056370Y0122920D01*
X0056293Y0122742D01*
X0056213Y0122566D01*
X0056128Y0122393D01*
X0056039Y0122221D01*
X0055946Y0122052D01*
X0055849Y0121885D01*
X0055747Y0121720D01*
X0055642Y0121558D01*
X0055533Y0121399D01*
X0055419Y0121242D01*
X0055302Y0121089D01*
X0055182Y0120938D01*
X0055057Y0120790D01*
X0054929Y0120645D01*
X0054798Y0120504D01*
X0054663Y0120365D01*
X0054524Y0120230D01*
X0054383Y0120099D01*
X0054238Y0119971D01*
X0054090Y0119846D01*
X0053939Y0119726D01*
X0053786Y0119609D01*
X0053629Y0119495D01*
X0053470Y0119386D01*
X0053308Y0119281D01*
X0053143Y0119179D01*
X0052976Y0119082D01*
X0052807Y0118989D01*
X0052635Y0118900D01*
X0052462Y0118815D01*
X0052286Y0118735D01*
X0052108Y0118658D01*
X0051929Y0118587D01*
X0051748Y0118519D01*
X0051565Y0118456D01*
X0051381Y0118398D01*
X0051195Y0118344D01*
X0051008Y0118295D01*
X0050820Y0118250D01*
X0050631Y0118210D01*
X0050441Y0118175D01*
X0050250Y0118144D01*
X0050059Y0118118D01*
X0049867Y0118097D01*
X0049674Y0118080D01*
X0049481Y0118068D01*
X0049288Y0118061D01*
X0049095Y0118059D01*
X0048902Y0118061D01*
X0048709Y0118068D01*
X0048516Y0118080D01*
X0048323Y0118097D01*
X0048131Y0118118D01*
X0047940Y0118144D01*
X0047749Y0118175D01*
X0047559Y0118210D01*
X0047370Y0118250D01*
X0047182Y0118295D01*
X0046995Y0118344D01*
X0046809Y0118398D01*
X0046625Y0118456D01*
X0046442Y0118519D01*
X0046261Y0118587D01*
X0046082Y0118658D01*
X0045904Y0118735D01*
X0045728Y0118815D01*
X0045555Y0118900D01*
X0045383Y0118989D01*
X0045214Y0119082D01*
X0045047Y0119179D01*
X0044882Y0119281D01*
X0044720Y0119386D01*
X0044561Y0119495D01*
X0044404Y0119609D01*
X0044251Y0119726D01*
X0044100Y0119846D01*
X0043952Y0119971D01*
X0043807Y0120099D01*
X0043666Y0120230D01*
X0043527Y0120365D01*
X0043392Y0120504D01*
X0043261Y0120645D01*
X0043133Y0120790D01*
X0043008Y0120938D01*
X0042888Y0121089D01*
X0042771Y0121242D01*
X0042657Y0121399D01*
X0042548Y0121558D01*
X0042443Y0121720D01*
X0042341Y0121885D01*
X0042244Y0122052D01*
X0042151Y0122221D01*
X0042062Y0122393D01*
X0041977Y0122566D01*
X0041897Y0122742D01*
X0041820Y0122920D01*
X0041749Y0123099D01*
X0041681Y0123280D01*
X0041618Y0123463D01*
X0041560Y0123647D01*
X0041506Y0123833D01*
X0041457Y0124020D01*
X0041412Y0124208D01*
X0041372Y0124397D01*
X0041337Y0124587D01*
X0041306Y0124778D01*
X0041280Y0124969D01*
X0041259Y0125161D01*
X0041242Y0125354D01*
X0041230Y0125547D01*
X0041223Y0125740D01*
X0041221Y0125933D01*
D17*
X0112670Y0095433D03*
D18*
X0118583Y0115008D03*
D19*
X0118595Y0115033D03*
D20*
X0118595Y0115058D03*
D21*
X0118583Y0115083D03*
D22*
X0118595Y0115108D03*
D23*
X0118583Y0115133D03*
X0115108Y0121183D03*
X0115108Y0121233D03*
X0115133Y0121283D03*
D24*
X0118595Y0115158D03*
X0116395Y0129708D03*
D25*
X0114783Y0122933D03*
X0114883Y0122833D03*
X0115033Y0120883D03*
X0118583Y0115183D03*
D26*
X0118583Y0115208D03*
X0115033Y0120858D03*
X0114933Y0122808D03*
D27*
X0114658Y0123083D03*
X0115008Y0120783D03*
X0118558Y0115233D03*
X0116383Y0129583D03*
D28*
X0116383Y0129558D03*
X0114633Y0123108D03*
X0115008Y0120758D03*
X0118558Y0115258D03*
D29*
X0118533Y0115283D03*
X0114983Y0120683D03*
D30*
X0114983Y0120658D03*
X0118533Y0115308D03*
D31*
X0118520Y0115333D03*
X0114970Y0120633D03*
D32*
X0118495Y0115358D03*
D33*
X0118495Y0115383D03*
X0114945Y0120533D03*
X0116345Y0129333D03*
D34*
X0118483Y0115408D03*
D35*
X0118458Y0115433D03*
X0114933Y0120483D03*
X0116633Y0124133D03*
X0116333Y0129283D03*
X0110258Y0116583D03*
D36*
X0118445Y0115458D03*
D37*
X0118445Y0115483D03*
X0114645Y0124633D03*
D38*
X0118420Y0115508D03*
D39*
X0118408Y0115533D03*
X0115308Y0122383D03*
X0116708Y0124333D03*
X0116308Y0129133D03*
D40*
X0114683Y0124758D03*
X0116733Y0124408D03*
X0115358Y0122458D03*
X0117208Y0120658D03*
X0118383Y0115558D03*
D41*
X0118370Y0115583D03*
X0115370Y0122483D03*
D42*
X0115233Y0122308D03*
X0117258Y0120608D03*
X0118358Y0115608D03*
X0110358Y0116658D03*
D43*
X0117333Y0120533D03*
X0115183Y0122283D03*
X0115408Y0122533D03*
X0114283Y0123433D03*
X0114708Y0124833D03*
X0118333Y0115633D03*
D44*
X0118320Y0115658D03*
X0114870Y0120308D03*
X0118870Y0120708D03*
X0116770Y0124558D03*
X0116270Y0128958D03*
D45*
X0116258Y0128933D03*
X0117383Y0120483D03*
X0114858Y0120283D03*
X0118308Y0115683D03*
D46*
X0118283Y0115708D03*
X0114858Y0120258D03*
X0116783Y0124608D03*
X0116258Y0128908D03*
D47*
X0118270Y0115733D03*
D48*
X0118245Y0115758D03*
X0116795Y0124708D03*
X0116245Y0128808D03*
D49*
X0116233Y0128783D03*
X0116783Y0124733D03*
X0114183Y0123483D03*
X0118233Y0115783D03*
D50*
X0118220Y0115808D03*
D51*
X0118195Y0115833D03*
D52*
X0118183Y0115858D03*
X0114808Y0120158D03*
X0118858Y0120758D03*
X0116783Y0124808D03*
X0110483Y0116758D03*
D53*
X0118170Y0115883D03*
X0117620Y0120083D03*
X0116770Y0124833D03*
X0116220Y0128683D03*
D54*
X0114095Y0123508D03*
X0118145Y0115908D03*
D55*
X0118133Y0115933D03*
X0117683Y0119933D03*
X0116758Y0124883D03*
D56*
X0115570Y0122708D03*
X0114770Y0120108D03*
X0118120Y0115958D03*
D57*
X0118095Y0115983D03*
X0116195Y0128533D03*
D58*
X0116183Y0128508D03*
X0113133Y0121508D03*
X0117733Y0119758D03*
X0118083Y0116008D03*
D59*
X0118058Y0116033D03*
X0115608Y0122733D03*
D60*
X0117745Y0119658D03*
X0118045Y0116058D03*
D61*
X0118033Y0116083D03*
X0112958Y0121433D03*
D62*
X0112833Y0121358D03*
X0118008Y0116108D03*
X0116158Y0128358D03*
D63*
X0116145Y0128333D03*
X0112795Y0121333D03*
X0117745Y0119583D03*
X0117995Y0116133D03*
D64*
X0117983Y0116158D03*
X0117733Y0119558D03*
X0112683Y0121258D03*
D65*
X0112483Y0121083D03*
X0112433Y0121033D03*
X0112383Y0120983D03*
X0112333Y0120933D03*
X0117708Y0119533D03*
X0117958Y0116183D03*
X0116133Y0128283D03*
D66*
X0117945Y0116208D03*
D67*
X0117933Y0116233D03*
X0112133Y0120683D03*
X0112208Y0120783D03*
X0116133Y0128233D03*
D68*
X0112008Y0120458D03*
X0111983Y0120408D03*
X0117908Y0116258D03*
D69*
X0117895Y0116283D03*
X0111945Y0120333D03*
D70*
X0111920Y0120258D03*
X0117870Y0116308D03*
D71*
X0117858Y0116333D03*
X0119108Y0124483D03*
D72*
X0116383Y0129858D03*
X0110058Y0116358D03*
D73*
X0111895Y0120158D03*
X0117845Y0116358D03*
X0116095Y0128058D03*
D74*
X0116383Y0129833D03*
X0110058Y0116383D03*
D75*
X0117820Y0116383D03*
D76*
X0110083Y0116408D03*
D77*
X0117808Y0116408D03*
D78*
X0110108Y0116433D03*
D79*
X0117795Y0116433D03*
D80*
X0110120Y0116458D03*
X0115070Y0121008D03*
X0115170Y0121408D03*
D81*
X0117770Y0116458D03*
X0116070Y0127908D03*
D82*
X0116395Y0129633D03*
X0114745Y0122983D03*
X0110145Y0116483D03*
D83*
X0117758Y0116483D03*
X0116058Y0127883D03*
D84*
X0110170Y0116508D03*
D85*
X0110945Y0117058D03*
X0117745Y0116508D03*
X0116045Y0127858D03*
D86*
X0110208Y0116533D03*
D87*
X0117720Y0116533D03*
D88*
X0110220Y0116558D03*
D89*
X0117708Y0116558D03*
D90*
X0117683Y0116583D03*
X0116033Y0127733D03*
D91*
X0114658Y0124608D03*
X0116658Y0124208D03*
X0117058Y0120808D03*
X0110283Y0116608D03*
D92*
X0111020Y0117108D03*
X0117670Y0116608D03*
X0116020Y0127708D03*
D93*
X0114670Y0124733D03*
X0116720Y0124383D03*
X0115270Y0122333D03*
X0118870Y0120683D03*
X0110320Y0116633D03*
D94*
X0117658Y0116633D03*
D95*
X0117633Y0116658D03*
X0111233Y0123108D03*
X0116008Y0127658D03*
D96*
X0116270Y0128983D03*
X0116770Y0124533D03*
X0110370Y0116683D03*
D97*
X0117620Y0116683D03*
X0111320Y0122983D03*
X0111220Y0123133D03*
D98*
X0115470Y0122608D03*
X0110420Y0116708D03*
D99*
X0111108Y0117158D03*
X0117608Y0116708D03*
X0111433Y0122858D03*
X0111383Y0122908D03*
X0111183Y0123208D03*
D100*
X0115495Y0122633D03*
X0110445Y0116733D03*
D101*
X0117583Y0116733D03*
X0111133Y0123283D03*
D102*
X0111570Y0122708D03*
X0117570Y0116758D03*
D103*
X0117658Y0120033D03*
X0114783Y0120133D03*
X0110508Y0116783D03*
D104*
X0117558Y0116783D03*
X0111658Y0122633D03*
D105*
X0113258Y0121558D03*
X0113433Y0121608D03*
X0117708Y0119858D03*
X0110558Y0116808D03*
X0116183Y0128558D03*
D106*
X0111758Y0122558D03*
X0117533Y0116808D03*
D107*
X0117733Y0119783D03*
X0114758Y0120083D03*
X0113208Y0121533D03*
X0110583Y0116833D03*
D108*
X0117520Y0116833D03*
X0115970Y0127433D03*
D109*
X0116158Y0128408D03*
X0110633Y0116858D03*
D110*
X0111833Y0122508D03*
X0117508Y0116858D03*
X0115958Y0127408D03*
D111*
X0112720Y0121283D03*
X0110670Y0116883D03*
D112*
X0117495Y0116883D03*
X0115945Y0127383D03*
D113*
X0116133Y0128258D03*
X0112508Y0121108D03*
X0112458Y0121058D03*
X0112408Y0121008D03*
X0112358Y0120958D03*
X0112308Y0120908D03*
X0110708Y0116908D03*
D114*
X0111270Y0117258D03*
X0117470Y0116908D03*
X0111120Y0123458D03*
D115*
X0112095Y0120633D03*
X0112045Y0120533D03*
X0110745Y0116933D03*
X0115695Y0122783D03*
D116*
X0117458Y0116933D03*
D117*
X0111933Y0120308D03*
X0110783Y0116958D03*
D118*
X0111995Y0122408D03*
X0119245Y0124308D03*
X0117445Y0116958D03*
D119*
X0110820Y0116983D03*
D120*
X0112033Y0122383D03*
X0111158Y0123483D03*
X0115933Y0127233D03*
X0117433Y0116983D03*
D121*
X0110870Y0117008D03*
X0116070Y0128008D03*
D122*
X0117420Y0117008D03*
D123*
X0110908Y0117033D03*
X0116058Y0127933D03*
D124*
X0117408Y0117033D03*
D125*
X0117395Y0117058D03*
D126*
X0110983Y0117083D03*
X0116033Y0127783D03*
D127*
X0112133Y0122333D03*
X0111383Y0117333D03*
X0117383Y0117083D03*
D128*
X0117370Y0117108D03*
X0111420Y0117358D03*
D129*
X0111070Y0117133D03*
X0116020Y0127683D03*
D130*
X0115908Y0127083D03*
X0117358Y0117133D03*
D131*
X0117345Y0117158D03*
D132*
X0111145Y0117183D03*
X0111595Y0122683D03*
X0115995Y0127533D03*
D133*
X0115908Y0127033D03*
X0117333Y0117183D03*
D134*
X0111195Y0117208D03*
X0111695Y0122608D03*
D135*
X0111470Y0117408D03*
X0117320Y0117208D03*
D136*
X0111233Y0117233D03*
D137*
X0111508Y0117433D03*
X0117308Y0117233D03*
X0110283Y0125883D03*
X0115908Y0126983D03*
D138*
X0115895Y0126958D03*
X0118195Y0120858D03*
X0117295Y0117258D03*
D139*
X0111320Y0117283D03*
D140*
X0117283Y0117283D03*
X0112283Y0122283D03*
X0119308Y0124233D03*
D141*
X0111345Y0117308D03*
D142*
X0111533Y0117458D03*
X0117283Y0117308D03*
X0115883Y0126908D03*
D143*
X0117270Y0117333D03*
D144*
X0117258Y0117358D03*
X0115883Y0126858D03*
D145*
X0111445Y0117383D03*
D146*
X0117245Y0117383D03*
X0115895Y0126833D03*
D147*
X0115883Y0126808D03*
X0118233Y0120908D03*
X0117233Y0117408D03*
D148*
X0117233Y0117433D03*
X0115883Y0126783D03*
D149*
X0115870Y0126758D03*
X0110320Y0125858D03*
X0117220Y0117458D03*
D150*
X0111558Y0117483D03*
D151*
X0117208Y0117483D03*
X0115883Y0126733D03*
D152*
X0111595Y0117508D03*
D153*
X0111645Y0117558D03*
X0117195Y0117508D03*
D154*
X0111620Y0117533D03*
D155*
X0117195Y0117533D03*
X0118245Y0120933D03*
D156*
X0117183Y0117558D03*
X0115808Y0124908D03*
X0115883Y0126658D03*
D157*
X0115870Y0126683D03*
X0111670Y0117583D03*
D158*
X0117170Y0117583D03*
X0119370Y0124183D03*
X0115820Y0124933D03*
X0115870Y0126583D03*
X0115870Y0126633D03*
D159*
X0111695Y0117608D03*
D160*
X0117170Y0117608D03*
X0115820Y0124958D03*
X0115870Y0126608D03*
D161*
X0115808Y0124983D03*
X0117158Y0117633D03*
X0111708Y0117633D03*
D162*
X0111733Y0117658D03*
X0117133Y0117708D03*
X0115808Y0125058D03*
X0115858Y0126458D03*
D163*
X0117145Y0117658D03*
D164*
X0117133Y0117733D03*
X0111758Y0117683D03*
X0118283Y0120983D03*
X0115858Y0126433D03*
X0115858Y0126483D03*
D165*
X0110345Y0125833D03*
X0117145Y0117683D03*
D166*
X0117120Y0117758D03*
X0111770Y0117708D03*
X0115820Y0125108D03*
D167*
X0115858Y0126383D03*
X0117108Y0117783D03*
X0111808Y0117733D03*
D168*
X0111820Y0117758D03*
X0115820Y0125208D03*
D169*
X0115845Y0126133D03*
X0115845Y0126183D03*
X0115845Y0126233D03*
X0118295Y0121033D03*
X0111845Y0117783D03*
D170*
X0111858Y0117808D03*
X0117058Y0118008D03*
X0116908Y0119258D03*
X0116908Y0119308D03*
X0119858Y0122158D03*
X0119933Y0122208D03*
X0120008Y0122258D03*
X0115833Y0126008D03*
X0115833Y0126058D03*
X0115833Y0126108D03*
D171*
X0115858Y0126358D03*
X0115858Y0126408D03*
X0115808Y0125158D03*
X0119383Y0124158D03*
X0117108Y0117808D03*
D172*
X0117058Y0117983D03*
X0117058Y0118033D03*
X0116908Y0119233D03*
X0116908Y0119283D03*
X0120033Y0122283D03*
X0119408Y0124133D03*
X0115808Y0125383D03*
X0115833Y0126033D03*
X0115833Y0126083D03*
X0111883Y0117833D03*
D173*
X0117095Y0117833D03*
X0115845Y0126283D03*
X0115845Y0126333D03*
D174*
X0117045Y0118058D03*
X0111895Y0117858D03*
D175*
X0117095Y0117858D03*
X0118295Y0121008D03*
X0115845Y0126308D03*
D176*
X0115820Y0125633D03*
X0115820Y0125583D03*
X0115820Y0125533D03*
X0115820Y0125483D03*
X0115820Y0125433D03*
X0119820Y0122133D03*
X0119970Y0122233D03*
X0116920Y0119183D03*
X0111920Y0117883D03*
D177*
X0117083Y0117883D03*
D178*
X0117033Y0118108D03*
X0117033Y0118158D03*
X0116933Y0119108D03*
X0118308Y0121058D03*
X0115833Y0125658D03*
X0115833Y0125708D03*
X0115833Y0125758D03*
X0115833Y0125808D03*
X0115833Y0125858D03*
X0115833Y0125908D03*
X0115833Y0125958D03*
X0111933Y0117908D03*
D179*
X0117083Y0117908D03*
X0115808Y0125258D03*
X0115858Y0126258D03*
X0110383Y0125808D03*
D180*
X0116933Y0118983D03*
X0116933Y0118933D03*
X0116983Y0118433D03*
X0117008Y0118333D03*
X0117008Y0118283D03*
X0111958Y0117933D03*
D181*
X0117070Y0117933D03*
X0115820Y0125283D03*
X0115820Y0125333D03*
D182*
X0116970Y0118658D03*
X0116970Y0118608D03*
X0116970Y0118558D03*
X0116970Y0118508D03*
X0111970Y0117958D03*
D183*
X0117070Y0117958D03*
X0115820Y0125308D03*
X0115820Y0125358D03*
D184*
X0120195Y0122433D03*
X0116945Y0118883D03*
X0116945Y0118833D03*
X0116945Y0118783D03*
X0116945Y0118733D03*
X0116995Y0118383D03*
X0111995Y0117983D03*
D185*
X0112008Y0118008D03*
X0118333Y0121108D03*
X0120208Y0122458D03*
D186*
X0119620Y0122033D03*
X0116970Y0118683D03*
X0116970Y0118633D03*
X0116970Y0118583D03*
X0116970Y0118533D03*
X0116970Y0118483D03*
X0112020Y0118033D03*
D187*
X0112045Y0118058D03*
D188*
X0112045Y0118083D03*
D189*
X0117045Y0118083D03*
X0119895Y0122183D03*
X0120095Y0122333D03*
D190*
X0120258Y0122508D03*
X0112058Y0118108D03*
D191*
X0112083Y0118133D03*
X0118333Y0121133D03*
X0119458Y0124083D03*
D192*
X0119733Y0122083D03*
X0116933Y0119133D03*
X0116933Y0119083D03*
X0117033Y0118183D03*
X0117033Y0118133D03*
X0115833Y0125683D03*
X0115833Y0125733D03*
X0115833Y0125783D03*
X0115833Y0125833D03*
X0115833Y0125883D03*
X0115833Y0125933D03*
X0115833Y0125983D03*
X0110408Y0125783D03*
D193*
X0112095Y0118158D03*
D194*
X0112108Y0118183D03*
X0112133Y0118233D03*
X0119508Y0121983D03*
D195*
X0112133Y0118208D03*
D196*
X0116920Y0119058D03*
X0117020Y0118208D03*
X0120120Y0122358D03*
X0120170Y0122408D03*
D197*
X0118320Y0121083D03*
X0116920Y0119033D03*
X0117020Y0118233D03*
D198*
X0112145Y0118258D03*
X0118345Y0121158D03*
X0119445Y0121958D03*
D199*
X0119683Y0122058D03*
X0116933Y0119008D03*
X0116933Y0118958D03*
X0116933Y0118908D03*
X0116983Y0118458D03*
X0117008Y0118358D03*
X0117008Y0118308D03*
X0117008Y0118258D03*
D200*
X0112170Y0118283D03*
D201*
X0112183Y0118308D03*
X0112208Y0118358D03*
X0120283Y0122558D03*
X0110483Y0125708D03*
D202*
X0112183Y0118333D03*
D203*
X0112220Y0118383D03*
D204*
X0112220Y0118408D03*
D205*
X0116945Y0118708D03*
X0116945Y0118758D03*
X0116945Y0118808D03*
X0116945Y0118858D03*
X0116995Y0118408D03*
X0119445Y0124108D03*
X0110445Y0125758D03*
D206*
X0118345Y0121183D03*
X0120295Y0122583D03*
X0112245Y0118433D03*
D207*
X0112245Y0118458D03*
D208*
X0112258Y0118483D03*
X0112283Y0118533D03*
X0112308Y0118583D03*
X0112508Y0119183D03*
D209*
X0112533Y0119258D03*
X0112283Y0118508D03*
X0119483Y0124058D03*
D210*
X0120295Y0122608D03*
X0112545Y0119308D03*
X0112495Y0119158D03*
X0112495Y0119108D03*
X0112445Y0119008D03*
X0112445Y0118958D03*
X0112395Y0118808D03*
X0112345Y0118708D03*
X0112345Y0118658D03*
X0112295Y0118558D03*
D211*
X0112320Y0118608D03*
X0112370Y0118758D03*
X0112420Y0118908D03*
X0112470Y0119058D03*
X0112520Y0119208D03*
D212*
X0112520Y0119233D03*
X0112470Y0119083D03*
X0112470Y0119033D03*
X0112420Y0118883D03*
X0112370Y0118733D03*
X0112320Y0118633D03*
X0110520Y0125683D03*
D213*
X0112545Y0119283D03*
X0112495Y0119133D03*
X0112445Y0118983D03*
X0112395Y0118833D03*
X0112345Y0118683D03*
D214*
X0112383Y0118783D03*
X0112433Y0118933D03*
X0119358Y0121933D03*
D215*
X0118358Y0121208D03*
X0112408Y0118858D03*
D216*
X0116920Y0119158D03*
X0116920Y0119208D03*
X0119770Y0122108D03*
X0120070Y0122308D03*
X0115820Y0125408D03*
X0115820Y0125458D03*
X0115820Y0125508D03*
X0115820Y0125558D03*
X0115820Y0125608D03*
D217*
X0114633Y0119383D03*
X0114633Y0119333D03*
D218*
X0114633Y0119358D03*
D219*
X0114633Y0119408D03*
X0114633Y0119458D03*
D220*
X0114633Y0119433D03*
D221*
X0114633Y0119483D03*
D222*
X0114633Y0119508D03*
D223*
X0113370Y0119533D03*
D224*
X0113345Y0119558D03*
D225*
X0113320Y0119583D03*
D226*
X0113308Y0119608D03*
X0112158Y0123758D03*
D227*
X0117745Y0119608D03*
D228*
X0113283Y0119633D03*
D229*
X0117745Y0119633D03*
D230*
X0113283Y0119658D03*
D231*
X0113270Y0119683D03*
D232*
X0117745Y0119683D03*
D233*
X0113270Y0119708D03*
D234*
X0114733Y0120058D03*
X0117733Y0119708D03*
X0119058Y0124558D03*
D235*
X0113258Y0119733D03*
D236*
X0117745Y0119733D03*
D237*
X0113245Y0119758D03*
D238*
X0113233Y0119783D03*
D239*
X0113233Y0119808D03*
D240*
X0117720Y0119808D03*
D241*
X0113220Y0119833D03*
D242*
X0117720Y0119833D03*
D243*
X0113220Y0119858D03*
D244*
X0113208Y0119883D03*
X0113658Y0121933D03*
D245*
X0117708Y0119883D03*
X0119058Y0124583D03*
D246*
X0113258Y0122208D03*
X0113208Y0119908D03*
D247*
X0117695Y0119908D03*
D248*
X0113208Y0119933D03*
X0113308Y0122133D03*
D249*
X0113195Y0119958D03*
D250*
X0117683Y0119958D03*
X0116208Y0128608D03*
D251*
X0110945Y0125083D03*
X0111195Y0124733D03*
X0111295Y0124583D03*
X0113195Y0119983D03*
D252*
X0117670Y0119983D03*
D253*
X0111933Y0120008D03*
D254*
X0112220Y0120808D03*
X0112270Y0120858D03*
X0114670Y0120008D03*
D255*
X0117670Y0120008D03*
D256*
X0111920Y0120033D03*
D257*
X0114708Y0120033D03*
X0116158Y0128383D03*
D258*
X0111895Y0120058D03*
D259*
X0117633Y0120058D03*
X0116758Y0124858D03*
X0116208Y0128658D03*
D260*
X0116083Y0127983D03*
X0111908Y0120083D03*
D261*
X0111895Y0120108D03*
D262*
X0117620Y0120108D03*
D263*
X0111883Y0120133D03*
X0116083Y0128033D03*
D264*
X0117608Y0120133D03*
D265*
X0117595Y0120158D03*
X0119045Y0124608D03*
D266*
X0111895Y0120183D03*
D267*
X0114808Y0120183D03*
X0117558Y0120233D03*
X0116783Y0124783D03*
D268*
X0116220Y0128733D03*
X0117570Y0120183D03*
D269*
X0111908Y0120208D03*
D270*
X0114833Y0120208D03*
X0117508Y0120308D03*
D271*
X0117558Y0120208D03*
X0116783Y0124758D03*
X0116233Y0128758D03*
D272*
X0111920Y0120233D03*
D273*
X0114833Y0120233D03*
X0117458Y0120383D03*
X0116783Y0124683D03*
X0119033Y0124633D03*
D274*
X0117545Y0120258D03*
D275*
X0111933Y0120283D03*
X0116108Y0128133D03*
D276*
X0117520Y0120283D03*
D277*
X0117283Y0120583D03*
X0114883Y0120333D03*
X0114683Y0124783D03*
X0116283Y0129033D03*
D278*
X0116245Y0128833D03*
X0117495Y0120333D03*
D279*
X0111945Y0120358D03*
D280*
X0114895Y0120358D03*
X0116295Y0129058D03*
D281*
X0117470Y0120358D03*
D282*
X0111970Y0120383D03*
D283*
X0114895Y0120383D03*
X0115345Y0122433D03*
X0114345Y0123383D03*
X0117195Y0120683D03*
D284*
X0117158Y0120708D03*
X0114908Y0120408D03*
X0114658Y0124708D03*
X0116308Y0129158D03*
D285*
X0117445Y0120408D03*
D286*
X0112008Y0120483D03*
X0111983Y0120433D03*
X0116108Y0128183D03*
D287*
X0116308Y0129183D03*
X0116683Y0124283D03*
X0114908Y0120433D03*
D288*
X0117408Y0120433D03*
X0115458Y0122583D03*
X0114733Y0124883D03*
X0116783Y0124633D03*
X0116258Y0128883D03*
D289*
X0116320Y0129208D03*
X0114920Y0120458D03*
D290*
X0117395Y0120458D03*
X0116245Y0122808D03*
X0114245Y0123458D03*
D291*
X0112120Y0120658D03*
X0112020Y0120508D03*
X0116120Y0128208D03*
D292*
X0114658Y0124558D03*
X0116633Y0124158D03*
X0114933Y0120508D03*
D293*
X0115433Y0122558D03*
X0117358Y0120508D03*
X0114708Y0124858D03*
D294*
X0119095Y0124508D03*
X0112045Y0120558D03*
D295*
X0114945Y0120558D03*
X0116595Y0124058D03*
X0116345Y0129358D03*
D296*
X0116283Y0129008D03*
X0116758Y0124508D03*
X0119033Y0124658D03*
X0117308Y0120558D03*
D297*
X0112070Y0120583D03*
D298*
X0114958Y0120583D03*
X0116358Y0129383D03*
D299*
X0118845Y0120583D03*
D300*
X0112183Y0120758D03*
X0112158Y0120708D03*
X0112083Y0120608D03*
D301*
X0114958Y0120608D03*
X0119008Y0124708D03*
X0116358Y0129408D03*
D302*
X0116395Y0129608D03*
X0118845Y0120608D03*
D303*
X0117245Y0120633D03*
X0116745Y0124433D03*
X0116295Y0129083D03*
D304*
X0116358Y0129433D03*
X0118858Y0120633D03*
D305*
X0118870Y0120658D03*
X0116320Y0129258D03*
D306*
X0114995Y0120708D03*
D307*
X0112170Y0120733D03*
D308*
X0114995Y0120733D03*
D309*
X0117145Y0120733D03*
D310*
X0118870Y0120733D03*
D311*
X0117108Y0120758D03*
X0116683Y0124258D03*
X0114658Y0124658D03*
X0114383Y0123358D03*
D312*
X0114408Y0123333D03*
X0117083Y0120783D03*
X0116333Y0129233D03*
D313*
X0118870Y0120783D03*
D314*
X0115020Y0120808D03*
X0114670Y0123058D03*
D315*
X0118870Y0120808D03*
D316*
X0112295Y0120883D03*
X0112245Y0120833D03*
D317*
X0115020Y0120833D03*
D318*
X0118170Y0120833D03*
D319*
X0118220Y0120883D03*
D320*
X0115033Y0120908D03*
X0114758Y0122958D03*
D321*
X0115195Y0121433D03*
X0115045Y0120933D03*
X0118995Y0124733D03*
X0116395Y0129683D03*
D322*
X0115058Y0120958D03*
D323*
X0118258Y0120958D03*
X0115858Y0126558D03*
D324*
X0115058Y0120983D03*
D325*
X0115070Y0121033D03*
D326*
X0115083Y0121058D03*
D327*
X0115083Y0121083D03*
D328*
X0115095Y0121108D03*
X0115145Y0121358D03*
D329*
X0112520Y0121133D03*
X0119070Y0124533D03*
D330*
X0115145Y0121333D03*
X0115095Y0121133D03*
X0116395Y0129733D03*
D331*
X0112620Y0121208D03*
X0112570Y0121158D03*
D332*
X0115108Y0121158D03*
X0115108Y0121208D03*
X0115133Y0121308D03*
D333*
X0112658Y0121233D03*
X0112583Y0121183D03*
D334*
X0118358Y0121233D03*
X0120308Y0122633D03*
D335*
X0115120Y0121258D03*
D336*
X0118370Y0121258D03*
D337*
X0118370Y0121283D03*
D338*
X0115645Y0122758D03*
X0112745Y0121308D03*
D339*
X0118370Y0121308D03*
X0120320Y0122708D03*
D340*
X0118383Y0121333D03*
D341*
X0118370Y0121358D03*
D342*
X0112870Y0121383D03*
D343*
X0115170Y0121383D03*
D344*
X0118370Y0121383D03*
X0110670Y0125483D03*
D345*
X0112920Y0121408D03*
D346*
X0118370Y0121408D03*
D347*
X0118345Y0121433D03*
D348*
X0113020Y0121458D03*
X0116170Y0128458D03*
D349*
X0117870Y0121458D03*
D350*
X0113070Y0121483D03*
X0116170Y0128433D03*
D351*
X0112045Y0124183D03*
X0117895Y0121483D03*
D352*
X0117895Y0121508D03*
D353*
X0117920Y0121533D03*
X0112020Y0124283D03*
D354*
X0117920Y0121558D03*
D355*
X0113345Y0121583D03*
X0116195Y0128583D03*
D356*
X0112008Y0124383D03*
X0117933Y0121583D03*
D357*
X0117920Y0121608D03*
D358*
X0116858Y0121633D03*
D359*
X0116483Y0121658D03*
D360*
X0116420Y0121683D03*
D361*
X0116383Y0121708D03*
D362*
X0116370Y0121733D03*
D363*
X0116345Y0121758D03*
D364*
X0116320Y0121783D03*
D365*
X0116320Y0121808D03*
D366*
X0116308Y0121833D03*
D367*
X0116295Y0121858D03*
D368*
X0116295Y0121883D03*
D369*
X0113758Y0121908D03*
D370*
X0119245Y0121908D03*
D371*
X0113570Y0121958D03*
D372*
X0113520Y0121983D03*
D373*
X0113470Y0122008D03*
X0111320Y0124558D03*
X0111270Y0124608D03*
X0111170Y0124758D03*
X0111070Y0124908D03*
X0110920Y0125108D03*
D374*
X0119570Y0122008D03*
D375*
X0113433Y0122033D03*
X0113358Y0122083D03*
X0111158Y0124783D03*
X0111083Y0124883D03*
X0111058Y0124933D03*
X0110983Y0125033D03*
D376*
X0110995Y0125008D03*
X0111145Y0124808D03*
X0111245Y0124658D03*
X0113395Y0122058D03*
D377*
X0113333Y0122108D03*
X0111208Y0124708D03*
X0111108Y0124858D03*
X0111033Y0124958D03*
X0110958Y0125058D03*
D378*
X0113283Y0122158D03*
D379*
X0113270Y0122183D03*
D380*
X0113233Y0122233D03*
D381*
X0113220Y0122258D03*
D382*
X0112208Y0122308D03*
X0115908Y0127058D03*
D383*
X0115933Y0127208D03*
X0110233Y0125908D03*
X0112083Y0122358D03*
D384*
X0115295Y0122358D03*
X0116295Y0129108D03*
D385*
X0120145Y0122383D03*
D386*
X0116720Y0124358D03*
X0115320Y0122408D03*
D387*
X0111945Y0122433D03*
X0115945Y0127333D03*
D388*
X0111895Y0122458D03*
D389*
X0111870Y0122483D03*
X0111120Y0123433D03*
X0119220Y0124333D03*
D390*
X0120233Y0122483D03*
D391*
X0116745Y0124458D03*
X0114695Y0124808D03*
X0115395Y0122508D03*
D392*
X0111795Y0122533D03*
D393*
X0110470Y0125733D03*
X0120270Y0122533D03*
D394*
X0111733Y0122583D03*
X0111108Y0123383D03*
D395*
X0111633Y0122658D03*
X0115983Y0127508D03*
X0119208Y0124358D03*
D396*
X0115520Y0122658D03*
X0116220Y0128708D03*
D397*
X0120308Y0122658D03*
D398*
X0115545Y0122683D03*
X0116195Y0128633D03*
D399*
X0120308Y0122683D03*
D400*
X0115995Y0127583D03*
X0111495Y0122783D03*
X0111545Y0122733D03*
D401*
X0120295Y0122733D03*
D402*
X0111520Y0122758D03*
X0111470Y0122808D03*
D403*
X0120283Y0122758D03*
D404*
X0120258Y0122783D03*
D405*
X0120208Y0122808D03*
X0110808Y0125258D03*
D406*
X0111158Y0123233D03*
X0111183Y0123183D03*
X0111458Y0122833D03*
X0119183Y0124383D03*
D407*
X0119183Y0122833D03*
D408*
X0114845Y0122858D03*
X0114795Y0122908D03*
D409*
X0119208Y0122858D03*
X0119258Y0122908D03*
D410*
X0111395Y0122883D03*
X0111245Y0123083D03*
D411*
X0114820Y0122883D03*
D412*
X0119245Y0122883D03*
X0119295Y0122933D03*
D413*
X0116008Y0127633D03*
X0111283Y0123033D03*
X0111358Y0122933D03*
D414*
X0111345Y0122958D03*
X0111295Y0123008D03*
X0111195Y0123158D03*
X0115995Y0127608D03*
D415*
X0119295Y0122958D03*
D416*
X0119320Y0122983D03*
D417*
X0114720Y0123008D03*
D418*
X0119333Y0123008D03*
X0119358Y0123058D03*
X0119383Y0123108D03*
D419*
X0114695Y0123033D03*
D420*
X0119358Y0123033D03*
X0119383Y0123083D03*
D421*
X0111270Y0123058D03*
D422*
X0114620Y0123133D03*
X0116370Y0129533D03*
D423*
X0119395Y0123133D03*
D424*
X0114583Y0123158D03*
X0116383Y0129508D03*
D425*
X0119395Y0123158D03*
D426*
X0114570Y0123183D03*
X0116370Y0129483D03*
D427*
X0119408Y0123183D03*
D428*
X0114545Y0123208D03*
D429*
X0119408Y0123208D03*
D430*
X0114520Y0123233D03*
D431*
X0119420Y0123233D03*
D432*
X0115995Y0127558D03*
X0111145Y0123258D03*
D433*
X0114483Y0123258D03*
D434*
X0119420Y0123258D03*
D435*
X0116608Y0124083D03*
X0114458Y0123283D03*
D436*
X0119433Y0123283D03*
D437*
X0111133Y0123308D03*
D438*
X0114445Y0123308D03*
X0116345Y0129308D03*
D439*
X0119433Y0123308D03*
D440*
X0111120Y0123333D03*
X0110170Y0125933D03*
D441*
X0119445Y0123333D03*
D442*
X0115970Y0127458D03*
X0111120Y0123358D03*
D443*
X0119445Y0123358D03*
D444*
X0119433Y0123383D03*
D445*
X0111120Y0123408D03*
D446*
X0114320Y0123408D03*
D447*
X0119433Y0123408D03*
D448*
X0119445Y0123433D03*
D449*
X0119433Y0123458D03*
D450*
X0119445Y0123483D03*
D451*
X0115908Y0127108D03*
X0111208Y0123508D03*
D452*
X0119445Y0123508D03*
D453*
X0112245Y0123533D03*
D454*
X0119433Y0123533D03*
D455*
X0112233Y0123558D03*
D456*
X0119420Y0123558D03*
D457*
X0112233Y0123583D03*
D458*
X0119420Y0123583D03*
D459*
X0112220Y0123608D03*
D460*
X0119420Y0123608D03*
D461*
X0112208Y0123633D03*
D462*
X0119395Y0123633D03*
D463*
X0112195Y0123658D03*
D464*
X0119383Y0123658D03*
D465*
X0112195Y0123683D03*
D466*
X0119358Y0123683D03*
D467*
X0112183Y0123708D03*
D468*
X0119358Y0123708D03*
D469*
X0112170Y0123733D03*
D470*
X0119333Y0123733D03*
D471*
X0119295Y0123758D03*
D472*
X0112158Y0123783D03*
D473*
X0119270Y0123783D03*
D474*
X0112145Y0123808D03*
D475*
X0119233Y0123808D03*
D476*
X0112133Y0123833D03*
D477*
X0111995Y0124433D03*
X0119195Y0123833D03*
D478*
X0112133Y0123858D03*
D479*
X0119145Y0123858D03*
D480*
X0112133Y0123883D03*
D481*
X0112033Y0124233D03*
X0119133Y0123883D03*
D482*
X0112120Y0123908D03*
D483*
X0112058Y0124158D03*
X0119083Y0123908D03*
D484*
X0112108Y0123933D03*
D485*
X0119045Y0123933D03*
D486*
X0112108Y0123958D03*
D487*
X0112083Y0124008D03*
X0119008Y0123958D03*
D488*
X0112095Y0123983D03*
D489*
X0118970Y0123983D03*
D490*
X0118920Y0124008D03*
D491*
X0112083Y0124033D03*
D492*
X0118895Y0124033D03*
D493*
X0112083Y0124058D03*
D494*
X0112070Y0124083D03*
D495*
X0112058Y0124108D03*
D496*
X0116620Y0124108D03*
D497*
X0112045Y0124133D03*
D498*
X0114645Y0124583D03*
X0116645Y0124183D03*
D499*
X0112033Y0124208D03*
D500*
X0119345Y0124208D03*
D501*
X0119020Y0124683D03*
X0116670Y0124233D03*
D502*
X0112033Y0124258D03*
D503*
X0115895Y0127008D03*
X0119295Y0124258D03*
D504*
X0119270Y0124283D03*
X0115920Y0127183D03*
D505*
X0112008Y0124308D03*
D506*
X0116695Y0124308D03*
D507*
X0112008Y0124333D03*
D508*
X0112008Y0124358D03*
D509*
X0111995Y0124408D03*
D510*
X0116033Y0127758D03*
X0119158Y0124408D03*
D511*
X0119145Y0124433D03*
D512*
X0111995Y0124458D03*
D513*
X0116070Y0127958D03*
X0119120Y0124458D03*
D514*
X0111983Y0124483D03*
D515*
X0116745Y0124483D03*
D516*
X0111983Y0124508D03*
D517*
X0111983Y0124533D03*
D518*
X0116770Y0124583D03*
D519*
X0111270Y0124633D03*
X0111220Y0124683D03*
X0111120Y0124833D03*
X0111020Y0124983D03*
D520*
X0116783Y0124658D03*
X0116258Y0128858D03*
D521*
X0114670Y0124683D03*
D522*
X0118983Y0124758D03*
D523*
X0115820Y0125008D03*
X0115870Y0126508D03*
D524*
X0115870Y0126533D03*
X0115820Y0125033D03*
D525*
X0115820Y0125083D03*
X0115820Y0125133D03*
D526*
X0110908Y0125133D03*
D527*
X0110883Y0125158D03*
D528*
X0110870Y0125183D03*
D529*
X0115820Y0125183D03*
X0115820Y0125233D03*
D530*
X0110845Y0125208D03*
D531*
X0110833Y0125233D03*
D532*
X0110795Y0125283D03*
D533*
X0110783Y0125308D03*
D534*
X0110770Y0125333D03*
D535*
X0110745Y0125358D03*
D536*
X0110720Y0125383D03*
D537*
X0110708Y0125408D03*
D538*
X0110695Y0125433D03*
D539*
X0110670Y0125458D03*
D540*
X0110645Y0125508D03*
D541*
X0110633Y0125533D03*
D542*
X0110608Y0125558D03*
D543*
X0110595Y0125583D03*
D544*
X0110570Y0125608D03*
D545*
X0110545Y0125633D03*
D546*
X0110533Y0125658D03*
D547*
X0115845Y0126158D03*
X0115845Y0126208D03*
D548*
X0115883Y0126708D03*
D549*
X0115895Y0126883D03*
D550*
X0115895Y0126933D03*
D551*
X0115920Y0127133D03*
D552*
X0115920Y0127158D03*
D553*
X0115933Y0127258D03*
D554*
X0115945Y0127283D03*
D555*
X0115933Y0127308D03*
D556*
X0115958Y0127358D03*
D557*
X0115970Y0127483D03*
D558*
X0116045Y0127808D03*
D559*
X0116058Y0127833D03*
D560*
X0116095Y0128083D03*
D561*
X0116095Y0128108D03*
D562*
X0116120Y0128158D03*
D563*
X0116145Y0128308D03*
D564*
X0116170Y0128483D03*
D565*
X0116370Y0129458D03*
D566*
X0116395Y0129658D03*
D567*
X0116395Y0129758D03*
D568*
X0116408Y0129783D03*
D569*
X0116395Y0129808D03*
D570*
X0152075Y0054665D02*
X0152077Y0054709D01*
X0152083Y0054753D01*
X0152093Y0054796D01*
X0152106Y0054838D01*
X0152123Y0054879D01*
X0152144Y0054918D01*
X0152168Y0054955D01*
X0152195Y0054990D01*
X0152225Y0055022D01*
X0152258Y0055052D01*
X0152294Y0055078D01*
X0152331Y0055102D01*
X0152371Y0055121D01*
X0152412Y0055138D01*
X0152455Y0055150D01*
X0152498Y0055159D01*
X0152542Y0055164D01*
X0152586Y0055165D01*
X0152630Y0055162D01*
X0152674Y0055155D01*
X0152717Y0055144D01*
X0152759Y0055130D01*
X0152799Y0055112D01*
X0152838Y0055090D01*
X0152874Y0055066D01*
X0152908Y0055038D01*
X0152940Y0055007D01*
X0152969Y0054973D01*
X0152995Y0054937D01*
X0153017Y0054899D01*
X0153036Y0054859D01*
X0153051Y0054817D01*
X0153063Y0054775D01*
X0153071Y0054731D01*
X0153075Y0054687D01*
X0153075Y0054643D01*
X0153071Y0054599D01*
X0153063Y0054555D01*
X0153051Y0054513D01*
X0153036Y0054471D01*
X0153017Y0054431D01*
X0152995Y0054393D01*
X0152969Y0054357D01*
X0152940Y0054323D01*
X0152908Y0054292D01*
X0152874Y0054264D01*
X0152838Y0054240D01*
X0152799Y0054218D01*
X0152759Y0054200D01*
X0152717Y0054186D01*
X0152674Y0054175D01*
X0152630Y0054168D01*
X0152586Y0054165D01*
X0152542Y0054166D01*
X0152498Y0054171D01*
X0152455Y0054180D01*
X0152412Y0054192D01*
X0152371Y0054209D01*
X0152331Y0054228D01*
X0152294Y0054252D01*
X0152258Y0054278D01*
X0152225Y0054308D01*
X0152195Y0054340D01*
X0152168Y0054375D01*
X0152144Y0054412D01*
X0152123Y0054451D01*
X0152106Y0054492D01*
X0152093Y0054534D01*
X0152083Y0054577D01*
X0152077Y0054621D01*
X0152075Y0054665D01*
D571*
X0267595Y0128361D03*
X0276095Y0128361D03*
D572*
X0146095Y0132776D02*
X0146095Y0113091D01*
D573*
X0136843Y0130315D03*
D574*
X0279528Y0092689D02*
X0279530Y0092729D01*
X0279536Y0092768D01*
X0279546Y0092807D01*
X0279559Y0092845D01*
X0279576Y0092881D01*
X0279597Y0092915D01*
X0279620Y0092947D01*
X0279647Y0092977D01*
X0279677Y0093004D01*
X0279709Y0093027D01*
X0279743Y0093048D01*
X0279779Y0093065D01*
X0279817Y0093078D01*
X0279856Y0093088D01*
X0279895Y0093094D01*
X0279935Y0093096D01*
X0279975Y0093094D01*
X0280014Y0093088D01*
X0280053Y0093078D01*
X0280091Y0093065D01*
X0280127Y0093048D01*
X0280161Y0093027D01*
X0280193Y0093004D01*
X0280223Y0092977D01*
X0280250Y0092947D01*
X0280273Y0092915D01*
X0280294Y0092881D01*
X0280311Y0092845D01*
X0280324Y0092807D01*
X0280334Y0092768D01*
X0280340Y0092729D01*
X0280342Y0092689D01*
X0280340Y0092649D01*
X0280334Y0092610D01*
X0280324Y0092571D01*
X0280311Y0092533D01*
X0280294Y0092497D01*
X0280273Y0092463D01*
X0280250Y0092431D01*
X0280223Y0092401D01*
X0280193Y0092374D01*
X0280161Y0092351D01*
X0280127Y0092330D01*
X0280091Y0092313D01*
X0280053Y0092300D01*
X0280014Y0092290D01*
X0279975Y0092284D01*
X0279935Y0092282D01*
X0279895Y0092284D01*
X0279856Y0092290D01*
X0279817Y0092300D01*
X0279779Y0092313D01*
X0279743Y0092330D01*
X0279709Y0092351D01*
X0279677Y0092374D01*
X0279647Y0092401D01*
X0279620Y0092431D01*
X0279597Y0092463D01*
X0279576Y0092497D01*
X0279559Y0092533D01*
X0279546Y0092571D01*
X0279536Y0092610D01*
X0279530Y0092649D01*
X0279528Y0092689D01*
X0287477Y0095134D02*
X0287477Y0101827D01*
X0291020Y0114622D02*
X0294170Y0114622D01*
X0299935Y0114622D02*
X0303619Y0114622D01*
X0303619Y0088244D01*
X0299818Y0088244D01*
X0294170Y0088244D02*
X0291020Y0088244D01*
X0293399Y0069433D02*
X0293401Y0069489D01*
X0293407Y0069544D01*
X0293417Y0069598D01*
X0293430Y0069652D01*
X0293448Y0069705D01*
X0293469Y0069756D01*
X0293493Y0069806D01*
X0293521Y0069854D01*
X0293553Y0069900D01*
X0293587Y0069944D01*
X0293625Y0069985D01*
X0293665Y0070023D01*
X0293708Y0070058D01*
X0293753Y0070090D01*
X0293801Y0070119D01*
X0293850Y0070145D01*
X0293901Y0070167D01*
X0293953Y0070185D01*
X0294007Y0070199D01*
X0294062Y0070210D01*
X0294117Y0070217D01*
X0294172Y0070220D01*
X0294228Y0070219D01*
X0294283Y0070214D01*
X0294338Y0070205D01*
X0294392Y0070193D01*
X0294445Y0070176D01*
X0294497Y0070156D01*
X0294547Y0070132D01*
X0294595Y0070105D01*
X0294642Y0070075D01*
X0294686Y0070041D01*
X0294728Y0070004D01*
X0294766Y0069964D01*
X0294803Y0069922D01*
X0294836Y0069877D01*
X0294865Y0069831D01*
X0294892Y0069782D01*
X0294914Y0069731D01*
X0294934Y0069679D01*
X0294949Y0069625D01*
X0294961Y0069571D01*
X0294969Y0069516D01*
X0294973Y0069461D01*
X0294973Y0069405D01*
X0294969Y0069350D01*
X0294961Y0069295D01*
X0294949Y0069241D01*
X0294934Y0069187D01*
X0294914Y0069135D01*
X0294892Y0069084D01*
X0294865Y0069035D01*
X0294836Y0068989D01*
X0294803Y0068944D01*
X0294766Y0068902D01*
X0294728Y0068862D01*
X0294686Y0068825D01*
X0294642Y0068791D01*
X0294595Y0068761D01*
X0294547Y0068734D01*
X0294497Y0068710D01*
X0294445Y0068690D01*
X0294392Y0068673D01*
X0294338Y0068661D01*
X0294283Y0068652D01*
X0294228Y0068647D01*
X0294172Y0068646D01*
X0294117Y0068649D01*
X0294062Y0068656D01*
X0294007Y0068667D01*
X0293953Y0068681D01*
X0293901Y0068699D01*
X0293850Y0068721D01*
X0293801Y0068747D01*
X0293753Y0068776D01*
X0293708Y0068808D01*
X0293665Y0068843D01*
X0293625Y0068881D01*
X0293587Y0068922D01*
X0293553Y0068966D01*
X0293521Y0069012D01*
X0293493Y0069060D01*
X0293469Y0069110D01*
X0293448Y0069161D01*
X0293430Y0069214D01*
X0293417Y0069268D01*
X0293407Y0069322D01*
X0293401Y0069377D01*
X0293399Y0069433D01*
M02*
